  0
SECTION
  2
BLOCKS
  0
ENDSEC
  0
SECTION
  2
ENTITIES
  0
LINE
  8
0
 10
-47.9
 20
-12.4
 11
-47.8941
 21
-12.5884
  0
LINE
  8
0
 10
-47.8941
 20
-12.5884
 11
-47.8763
 21
-12.776
  0
LINE
  8
0
 10
-47.8763
 20
-12.776
 11
-47.8469
 21
-12.9621
  0
LINE
  8
0
 10
-47.8469
 20
-12.9621
 11
-47.8057
 21
-13.1461
  0
LINE
  8
0
 10
-47.8057
 20
-13.1461
 11
-47.7532
 21
-13.3271
  0
LINE
  8
0
 10
-47.7532
 20
-13.3271
 11
-47.6893
 21
-13.5044
  0
LINE
  8
0
 10
-47.6893
 20
-13.5044
 11
-47.6145
 21
-13.6773
  0
LINE
  8
0
 10
-47.6145
 20
-13.6773
 11
-47.5289
 21
-13.8453
  0
LINE
  8
0
 10
-47.5289
 20
-13.8453
 11
-47.433
 21
-14.0075
  0
LINE
  8
0
 10
-47.433
 20
-14.0075
 11
-47.3271
 21
-14.1634
  0
LINE
  8
0
 10
-47.3271
 20
-14.1634
 11
-47.2115
 21
-14.3123
  0
LINE
  8
0
 10
-47.2115
 20
-14.3123
 11
-47.0869
 21
-14.4536
  0
LINE
  8
0
 10
-47.0869
 20
-14.4536
 11
-46.9536
 21
-14.5869
  0
LINE
  8
0
 10
-46.9536
 20
-14.5869
 11
-46.8123
 21
-14.7115
  0
LINE
  8
0
 10
-46.8123
 20
-14.7115
 11
-46.6634
 21
-14.8271
  0
LINE
  8
0
 10
-46.6634
 20
-14.8271
 11
-46.5075
 21
-14.933
  0
LINE
  8
0
 10
-46.5075
 20
-14.933
 11
-46.3453
 21
-15.0289
  0
LINE
  8
0
 10
-46.3453
 20
-15.0289
 11
-46.1773
 21
-15.1145
  0
LINE
  8
0
 10
-46.1773
 20
-15.1145
 11
-46.0044
 21
-15.1893
  0
LINE
  8
0
 10
-46.0044
 20
-15.1893
 11
-45.8271
 21
-15.2532
  0
LINE
  8
0
 10
-45.8271
 20
-15.2532
 11
-45.6461
 21
-15.3057
  0
LINE
  8
0
 10
-45.6461
 20
-15.3057
 11
-45.4621
 21
-15.3469
  0
LINE
  8
0
 10
-45.4621
 20
-15.3469
 11
-45.276
 21
-15.3763
  0
LINE
  8
0
 10
-45.276
 20
-15.3763
 11
-45.0884
 21
-15.3941
  0
LINE
  8
0
 10
-45.0884
 20
-15.3941
 11
-44.9
 21
-15.4
  0
LINE
  8
0
 10
-44.9
 20
-15.4
 11
44.9
 21
-15.4
  0
LINE
  8
0
 10
44.9
 20
-15.4
 11
45.0884
 21
-15.3941
  0
LINE
  8
0
 10
45.0884
 20
-15.3941
 11
45.276
 21
-15.3763
  0
LINE
  8
0
 10
45.276
 20
-15.3763
 11
45.4621
 21
-15.3469
  0
LINE
  8
0
 10
45.4621
 20
-15.3469
 11
45.6461
 21
-15.3057
  0
LINE
  8
0
 10
45.6461
 20
-15.3057
 11
45.8271
 21
-15.2532
  0
LINE
  8
0
 10
45.8271
 20
-15.2532
 11
46.0044
 21
-15.1893
  0
LINE
  8
0
 10
46.0044
 20
-15.1893
 11
46.1773
 21
-15.1145
  0
LINE
  8
0
 10
46.1773
 20
-15.1145
 11
46.3453
 21
-15.0289
  0
LINE
  8
0
 10
46.3453
 20
-15.0289
 11
46.5075
 21
-14.933
  0
LINE
  8
0
 10
46.5075
 20
-14.933
 11
46.6634
 21
-14.8271
  0
LINE
  8
0
 10
46.6634
 20
-14.8271
 11
46.8123
 21
-14.7115
  0
LINE
  8
0
 10
46.8123
 20
-14.7115
 11
46.9536
 21
-14.5869
  0
LINE
  8
0
 10
46.9536
 20
-14.5869
 11
47.0869
 21
-14.4536
  0
LINE
  8
0
 10
47.0869
 20
-14.4536
 11
47.2115
 21
-14.3123
  0
LINE
  8
0
 10
47.2115
 20
-14.3123
 11
47.3271
 21
-14.1634
  0
LINE
  8
0
 10
47.3271
 20
-14.1634
 11
47.433
 21
-14.0075
  0
LINE
  8
0
 10
47.433
 20
-14.0075
 11
47.5289
 21
-13.8453
  0
LINE
  8
0
 10
47.5289
 20
-13.8453
 11
47.6145
 21
-13.6773
  0
LINE
  8
0
 10
47.6145
 20
-13.6773
 11
47.6893
 21
-13.5044
  0
LINE
  8
0
 10
47.6893
 20
-13.5044
 11
47.7532
 21
-13.3271
  0
LINE
  8
0
 10
47.7532
 20
-13.3271
 11
47.8057
 21
-13.1461
  0
LINE
  8
0
 10
47.8057
 20
-13.1461
 11
47.8469
 21
-12.9621
  0
LINE
  8
0
 10
47.8469
 20
-12.9621
 11
47.8763
 21
-12.776
  0
LINE
  8
0
 10
47.8763
 20
-12.776
 11
47.8941
 21
-12.5884
  0
LINE
  8
0
 10
47.8941
 20
-12.5884
 11
47.9
 21
-12.4
  0
LINE
  8
0
 10
47.9
 20
-12.4
 11
47.9
 21
12.4
  0
LINE
  8
0
 10
47.9
 20
12.4
 11
47.8941
 21
12.5884
  0
LINE
  8
0
 10
47.8941
 20
12.5884
 11
47.8763
 21
12.776
  0
LINE
  8
0
 10
47.8763
 20
12.776
 11
47.8469
 21
12.9621
  0
LINE
  8
0
 10
47.8469
 20
12.9621
 11
47.8057
 21
13.1461
  0
LINE
  8
0
 10
47.8057
 20
13.1461
 11
47.7532
 21
13.3271
  0
LINE
  8
0
 10
47.7532
 20
13.3271
 11
47.6893
 21
13.5044
  0
LINE
  8
0
 10
47.6893
 20
13.5044
 11
47.6145
 21
13.6773
  0
LINE
  8
0
 10
47.6145
 20
13.6773
 11
47.5289
 21
13.8453
  0
LINE
  8
0
 10
47.5289
 20
13.8453
 11
47.433
 21
14.0075
  0
LINE
  8
0
 10
47.433
 20
14.0075
 11
47.3271
 21
14.1634
  0
LINE
  8
0
 10
47.3271
 20
14.1634
 11
47.2115
 21
14.3123
  0
LINE
  8
0
 10
47.2115
 20
14.3123
 11
47.0869
 21
14.4536
  0
LINE
  8
0
 10
47.0869
 20
14.4536
 11
46.9536
 21
14.5869
  0
LINE
  8
0
 10
46.9536
 20
14.5869
 11
46.8123
 21
14.7115
  0
LINE
  8
0
 10
46.8123
 20
14.7115
 11
46.6634
 21
14.8271
  0
LINE
  8
0
 10
46.6634
 20
14.8271
 11
46.5075
 21
14.933
  0
LINE
  8
0
 10
46.5075
 20
14.933
 11
46.3453
 21
15.0289
  0
LINE
  8
0
 10
46.3453
 20
15.0289
 11
46.1773
 21
15.1145
  0
LINE
  8
0
 10
46.1773
 20
15.1145
 11
46.0044
 21
15.1893
  0
LINE
  8
0
 10
46.0044
 20
15.1893
 11
45.8271
 21
15.2532
  0
LINE
  8
0
 10
45.8271
 20
15.2532
 11
45.6461
 21
15.3057
  0
LINE
  8
0
 10
45.6461
 20
15.3057
 11
45.4621
 21
15.3469
  0
LINE
  8
0
 10
45.4621
 20
15.3469
 11
45.276
 21
15.3763
  0
LINE
  8
0
 10
45.276
 20
15.3763
 11
45.0884
 21
15.3941
  0
LINE
  8
0
 10
45.0884
 20
15.3941
 11
44.9
 21
15.4
  0
LINE
  8
0
 10
44.9
 20
15.4
 11
-44.9
 21
15.4
  0
LINE
  8
0
 10
-44.9
 20
15.4
 11
-45.0884
 21
15.3941
  0
LINE
  8
0
 10
-45.0884
 20
15.3941
 11
-45.276
 21
15.3763
  0
LINE
  8
0
 10
-45.276
 20
15.3763
 11
-45.4621
 21
15.3469
  0
LINE
  8
0
 10
-45.4621
 20
15.3469
 11
-45.6461
 21
15.3057
  0
LINE
  8
0
 10
-45.6461
 20
15.3057
 11
-45.8271
 21
15.2532
  0
LINE
  8
0
 10
-45.8271
 20
15.2532
 11
-46.0044
 21
15.1893
  0
LINE
  8
0
 10
-46.0044
 20
15.1893
 11
-46.1773
 21
15.1145
  0
LINE
  8
0
 10
-46.1773
 20
15.1145
 11
-46.3453
 21
15.0289
  0
LINE
  8
0
 10
-46.3453
 20
15.0289
 11
-46.5075
 21
14.933
  0
LINE
  8
0
 10
-46.5075
 20
14.933
 11
-46.6634
 21
14.8271
  0
LINE
  8
0
 10
-46.6634
 20
14.8271
 11
-46.8123
 21
14.7115
  0
LINE
  8
0
 10
-46.8123
 20
14.7115
 11
-46.9536
 21
14.5869
  0
LINE
  8
0
 10
-46.9536
 20
14.5869
 11
-47.0869
 21
14.4536
  0
LINE
  8
0
 10
-47.0869
 20
14.4536
 11
-47.2115
 21
14.3123
  0
LINE
  8
0
 10
-47.2115
 20
14.3123
 11
-47.3271
 21
14.1634
  0
LINE
  8
0
 10
-47.3271
 20
14.1634
 11
-47.433
 21
14.0075
  0
LINE
  8
0
 10
-47.433
 20
14.0075
 11
-47.5289
 21
13.8453
  0
LINE
  8
0
 10
-47.5289
 20
13.8453
 11
-47.6145
 21
13.6773
  0
LINE
  8
0
 10
-47.6145
 20
13.6773
 11
-47.6893
 21
13.5044
  0
LINE
  8
0
 10
-47.6893
 20
13.5044
 11
-47.7532
 21
13.3271
  0
LINE
  8
0
 10
-47.7532
 20
13.3271
 11
-47.8057
 21
13.1461
  0
LINE
  8
0
 10
-47.8057
 20
13.1461
 11
-47.8469
 21
12.9621
  0
LINE
  8
0
 10
-47.8469
 20
12.9621
 11
-47.8763
 21
12.776
  0
LINE
  8
0
 10
-47.8763
 20
12.776
 11
-47.8941
 21
12.5884
  0
LINE
  8
0
 10
-47.8941
 20
12.5884
 11
-47.9
 21
12.4
  0
LINE
  8
0
 10
-47.9
 20
12.4
 11
-47.9
 21
-12.4
  0
LINE
  8
0
 10
-46.6
 20
-12.5
 11
-46.5968
 21
-12.3995
  0
LINE
  8
0
 10
-46.5968
 20
-12.3995
 11
-46.5874
 21
-12.2995
  0
LINE
  8
0
 10
-46.5874
 20
-12.2995
 11
-46.5717
 21
-12.2002
  0
LINE
  8
0
 10
-46.5717
 20
-12.2002
 11
-46.5497
 21
-12.1021
  0
LINE
  8
0
 10
-46.5497
 20
-12.1021
 11
-46.5217
 21
-12.0056
  0
LINE
  8
0
 10
-46.5217
 20
-12.0056
 11
-46.4876
 21
-11.911
  0
LINE
  8
0
 10
-46.4876
 20
-11.911
 11
-46.4477
 21
-11.8188
  0
LINE
  8
0
 10
-46.4477
 20
-11.8188
 11
-46.4021
 21
-11.7292
  0
LINE
  8
0
 10
-46.4021
 20
-11.7292
 11
-46.3509
 21
-11.6427
  0
LINE
  8
0
 10
-46.3509
 20
-11.6427
 11
-46.2944
 21
-11.5595
  0
LINE
  8
0
 10
-46.2944
 20
-11.5595
 11
-46.2328
 21
-11.4801
  0
LINE
  8
0
 10
-46.2328
 20
-11.4801
 11
-46.1663
 21
-11.4047
  0
LINE
  8
0
 10
-46.1663
 20
-11.4047
 11
-46.0953
 21
-11.3336
  0
LINE
  8
0
 10
-46.0953
 20
-11.3336
 11
-46.0199
 21
-11.2672
  0
LINE
  8
0
 10
-46.0199
 20
-11.2672
 11
-45.9405
 21
-11.2056
  0
LINE
  8
0
 10
-45.9405
 20
-11.2056
 11
-45.8573
 21
-11.1491
  0
LINE
  8
0
 10
-45.8573
 20
-11.1491
 11
-45.7708
 21
-11.0979
  0
LINE
  8
0
 10
-45.7708
 20
-11.0979
 11
-45.6812
 21
-11.0523
  0
LINE
  8
0
 10
-45.6812
 20
-11.0523
 11
-45.589
 21
-11.0124
  0
LINE
  8
0
 10
-45.589
 20
-11.0124
 11
-45.4944
 21
-10.9783
  0
LINE
  8
0
 10
-45.4944
 20
-10.9783
 11
-45.3979
 21
-10.9503
  0
LINE
  8
0
 10
-45.3979
 20
-10.9503
 11
-45.2998
 21
-10.9283
  0
LINE
  8
0
 10
-45.2998
 20
-10.9283
 11
-45.2005
 21
-10.9126
  0
LINE
  8
0
 10
-45.2005
 20
-10.9126
 11
-45.1005
 21
-10.9032
  0
LINE
  8
0
 10
-45.1005
 20
-10.9032
 11
-45
 21
-10.9
  0
LINE
  8
0
 10
-45
 20
-10.9
 11
-44.8995
 21
-10.9032
  0
LINE
  8
0
 10
-44.8995
 20
-10.9032
 11
-44.7995
 21
-10.9126
  0
LINE
  8
0
 10
-44.7995
 20
-10.9126
 11
-44.7002
 21
-10.9283
  0
LINE
  8
0
 10
-44.7002
 20
-10.9283
 11
-44.6021
 21
-10.9503
  0
LINE
  8
0
 10
-44.6021
 20
-10.9503
 11
-44.5056
 21
-10.9783
  0
LINE
  8
0
 10
-44.5056
 20
-10.9783
 11
-44.411
 21
-11.0124
  0
LINE
  8
0
 10
-44.411
 20
-11.0124
 11
-44.3188
 21
-11.0523
  0
LINE
  8
0
 10
-44.3188
 20
-11.0523
 11
-44.2292
 21
-11.0979
  0
LINE
  8
0
 10
-44.2292
 20
-11.0979
 11
-44.1427
 21
-11.1491
  0
LINE
  8
0
 10
-44.1427
 20
-11.1491
 11
-44.0595
 21
-11.2056
  0
LINE
  8
0
 10
-44.0595
 20
-11.2056
 11
-43.9801
 21
-11.2672
  0
LINE
  8
0
 10
-43.9801
 20
-11.2672
 11
-43.9047
 21
-11.3336
  0
LINE
  8
0
 10
-43.9047
 20
-11.3336
 11
-43.8336
 21
-11.4047
  0
LINE
  8
0
 10
-43.8336
 20
-11.4047
 11
-43.7672
 21
-11.4801
  0
LINE
  8
0
 10
-43.7672
 20
-11.4801
 11
-43.7056
 21
-11.5595
  0
LINE
  8
0
 10
-43.7056
 20
-11.5595
 11
-43.6491
 21
-11.6427
  0
LINE
  8
0
 10
-43.6491
 20
-11.6427
 11
-43.5979
 21
-11.7292
  0
LINE
  8
0
 10
-43.5979
 20
-11.7292
 11
-43.5523
 21
-11.8188
  0
LINE
  8
0
 10
-43.5523
 20
-11.8188
 11
-43.5124
 21
-11.911
  0
LINE
  8
0
 10
-43.5124
 20
-11.911
 11
-43.4783
 21
-12.0056
  0
LINE
  8
0
 10
-43.4783
 20
-12.0056
 11
-43.4503
 21
-12.1021
  0
LINE
  8
0
 10
-43.4503
 20
-12.1021
 11
-43.4283
 21
-12.2002
  0
LINE
  8
0
 10
-43.4283
 20
-12.2002
 11
-43.4126
 21
-12.2995
  0
LINE
  8
0
 10
-43.4126
 20
-12.2995
 11
-43.4032
 21
-12.3995
  0
LINE
  8
0
 10
-43.4032
 20
-12.3995
 11
-43.4
 21
-12.5
  0
LINE
  8
0
 10
-43.4
 20
-12.5
 11
-43.4032
 21
-12.6005
  0
LINE
  8
0
 10
-43.4032
 20
-12.6005
 11
-43.4126
 21
-12.7005
  0
LINE
  8
0
 10
-43.4126
 20
-12.7005
 11
-43.4283
 21
-12.7998
  0
LINE
  8
0
 10
-43.4283
 20
-12.7998
 11
-43.4503
 21
-12.8979
  0
LINE
  8
0
 10
-43.4503
 20
-12.8979
 11
-43.4783
 21
-12.9944
  0
LINE
  8
0
 10
-43.4783
 20
-12.9944
 11
-43.5124
 21
-13.089
  0
LINE
  8
0
 10
-43.5124
 20
-13.089
 11
-43.5523
 21
-13.1812
  0
LINE
  8
0
 10
-43.5523
 20
-13.1812
 11
-43.5979
 21
-13.2708
  0
LINE
  8
0
 10
-43.5979
 20
-13.2708
 11
-43.6491
 21
-13.3573
  0
LINE
  8
0
 10
-43.6491
 20
-13.3573
 11
-43.7056
 21
-13.4405
  0
LINE
  8
0
 10
-43.7056
 20
-13.4405
 11
-43.7672
 21
-13.5199
  0
LINE
  8
0
 10
-43.7672
 20
-13.5199
 11
-43.8336
 21
-13.5953
  0
LINE
  8
0
 10
-43.8336
 20
-13.5953
 11
-43.9047
 21
-13.6663
  0
LINE
  8
0
 10
-43.9047
 20
-13.6663
 11
-43.9801
 21
-13.7328
  0
LINE
  8
0
 10
-43.9801
 20
-13.7328
 11
-44.0595
 21
-13.7944
  0
LINE
  8
0
 10
-44.0595
 20
-13.7944
 11
-44.1427
 21
-13.8509
  0
LINE
  8
0
 10
-44.1427
 20
-13.8509
 11
-44.2292
 21
-13.9021
  0
LINE
  8
0
 10
-44.2292
 20
-13.9021
 11
-44.3188
 21
-13.9477
  0
LINE
  8
0
 10
-44.3188
 20
-13.9477
 11
-44.411
 21
-13.9876
  0
LINE
  8
0
 10
-44.411
 20
-13.9876
 11
-44.5056
 21
-14.0217
  0
LINE
  8
0
 10
-44.5056
 20
-14.0217
 11
-44.6021
 21
-14.0497
  0
LINE
  8
0
 10
-44.6021
 20
-14.0497
 11
-44.7002
 21
-14.0717
  0
LINE
  8
0
 10
-44.7002
 20
-14.0717
 11
-44.7995
 21
-14.0874
  0
LINE
  8
0
 10
-44.7995
 20
-14.0874
 11
-44.8995
 21
-14.0968
  0
LINE
  8
0
 10
-44.8995
 20
-14.0968
 11
-45
 21
-14.1
  0
LINE
  8
0
 10
-45
 20
-14.1
 11
-45.1005
 21
-14.0968
  0
LINE
  8
0
 10
-45.1005
 20
-14.0968
 11
-45.2005
 21
-14.0874
  0
LINE
  8
0
 10
-45.2005
 20
-14.0874
 11
-45.2998
 21
-14.0717
  0
LINE
  8
0
 10
-45.2998
 20
-14.0717
 11
-45.3979
 21
-14.0497
  0
LINE
  8
0
 10
-45.3979
 20
-14.0497
 11
-45.4944
 21
-14.0217
  0
LINE
  8
0
 10
-45.4944
 20
-14.0217
 11
-45.589
 21
-13.9876
  0
LINE
  8
0
 10
-45.589
 20
-13.9876
 11
-45.6812
 21
-13.9477
  0
LINE
  8
0
 10
-45.6812
 20
-13.9477
 11
-45.7708
 21
-13.9021
  0
LINE
  8
0
 10
-45.7708
 20
-13.9021
 11
-45.8573
 21
-13.8509
  0
LINE
  8
0
 10
-45.8573
 20
-13.8509
 11
-45.9405
 21
-13.7944
  0
LINE
  8
0
 10
-45.9405
 20
-13.7944
 11
-46.0199
 21
-13.7328
  0
LINE
  8
0
 10
-46.0199
 20
-13.7328
 11
-46.0953
 21
-13.6663
  0
LINE
  8
0
 10
-46.0953
 20
-13.6663
 11
-46.1663
 21
-13.5953
  0
LINE
  8
0
 10
-46.1663
 20
-13.5953
 11
-46.2328
 21
-13.5199
  0
LINE
  8
0
 10
-46.2328
 20
-13.5199
 11
-46.2944
 21
-13.4405
  0
LINE
  8
0
 10
-46.2944
 20
-13.4405
 11
-46.3509
 21
-13.3573
  0
LINE
  8
0
 10
-46.3509
 20
-13.3573
 11
-46.4021
 21
-13.2708
  0
LINE
  8
0
 10
-46.4021
 20
-13.2708
 11
-46.4477
 21
-13.1812
  0
LINE
  8
0
 10
-46.4477
 20
-13.1812
 11
-46.4876
 21
-13.089
  0
LINE
  8
0
 10
-46.4876
 20
-13.089
 11
-46.5217
 21
-12.9944
  0
LINE
  8
0
 10
-46.5217
 20
-12.9944
 11
-46.5497
 21
-12.8979
  0
LINE
  8
0
 10
-46.5497
 20
-12.8979
 11
-46.5717
 21
-12.7998
  0
LINE
  8
0
 10
-46.5717
 20
-12.7998
 11
-46.5874
 21
-12.7005
  0
LINE
  8
0
 10
-46.5874
 20
-12.7005
 11
-46.5968
 21
-12.6005
  0
LINE
  8
0
 10
-46.5968
 20
-12.6005
 11
-46.6
 21
-12.5
  0
LINE
  8
0
 10
-46.6
 20
12.5
 11
-46.5968
 21
12.6005
  0
LINE
  8
0
 10
-46.5968
 20
12.6005
 11
-46.5874
 21
12.7005
  0
LINE
  8
0
 10
-46.5874
 20
12.7005
 11
-46.5717
 21
12.7998
  0
LINE
  8
0
 10
-46.5717
 20
12.7998
 11
-46.5497
 21
12.8979
  0
LINE
  8
0
 10
-46.5497
 20
12.8979
 11
-46.5217
 21
12.9944
  0
LINE
  8
0
 10
-46.5217
 20
12.9944
 11
-46.4876
 21
13.089
  0
LINE
  8
0
 10
-46.4876
 20
13.089
 11
-46.4477
 21
13.1812
  0
LINE
  8
0
 10
-46.4477
 20
13.1812
 11
-46.4021
 21
13.2708
  0
LINE
  8
0
 10
-46.4021
 20
13.2708
 11
-46.3509
 21
13.3573
  0
LINE
  8
0
 10
-46.3509
 20
13.3573
 11
-46.2944
 21
13.4405
  0
LINE
  8
0
 10
-46.2944
 20
13.4405
 11
-46.2328
 21
13.5199
  0
LINE
  8
0
 10
-46.2328
 20
13.5199
 11
-46.1663
 21
13.5953
  0
LINE
  8
0
 10
-46.1663
 20
13.5953
 11
-46.0953
 21
13.6663
  0
LINE
  8
0
 10
-46.0953
 20
13.6663
 11
-46.0199
 21
13.7328
  0
LINE
  8
0
 10
-46.0199
 20
13.7328
 11
-45.9405
 21
13.7944
  0
LINE
  8
0
 10
-45.9405
 20
13.7944
 11
-45.8573
 21
13.8509
  0
LINE
  8
0
 10
-45.8573
 20
13.8509
 11
-45.7708
 21
13.9021
  0
LINE
  8
0
 10
-45.7708
 20
13.9021
 11
-45.6812
 21
13.9477
  0
LINE
  8
0
 10
-45.6812
 20
13.9477
 11
-45.589
 21
13.9876
  0
LINE
  8
0
 10
-45.589
 20
13.9876
 11
-45.4944
 21
14.0217
  0
LINE
  8
0
 10
-45.4944
 20
14.0217
 11
-45.3979
 21
14.0497
  0
LINE
  8
0
 10
-45.3979
 20
14.0497
 11
-45.2998
 21
14.0717
  0
LINE
  8
0
 10
-45.2998
 20
14.0717
 11
-45.2005
 21
14.0874
  0
LINE
  8
0
 10
-45.2005
 20
14.0874
 11
-45.1005
 21
14.0968
  0
LINE
  8
0
 10
-45.1005
 20
14.0968
 11
-45
 21
14.1
  0
LINE
  8
0
 10
-45
 20
14.1
 11
-44.8995
 21
14.0968
  0
LINE
  8
0
 10
-44.8995
 20
14.0968
 11
-44.7995
 21
14.0874
  0
LINE
  8
0
 10
-44.7995
 20
14.0874
 11
-44.7002
 21
14.0717
  0
LINE
  8
0
 10
-44.7002
 20
14.0717
 11
-44.6021
 21
14.0497
  0
LINE
  8
0
 10
-44.6021
 20
14.0497
 11
-44.5056
 21
14.0217
  0
LINE
  8
0
 10
-44.5056
 20
14.0217
 11
-44.411
 21
13.9876
  0
LINE
  8
0
 10
-44.411
 20
13.9876
 11
-44.3188
 21
13.9477
  0
LINE
  8
0
 10
-44.3188
 20
13.9477
 11
-44.2292
 21
13.9021
  0
LINE
  8
0
 10
-44.2292
 20
13.9021
 11
-44.1427
 21
13.8509
  0
LINE
  8
0
 10
-44.1427
 20
13.8509
 11
-44.0595
 21
13.7944
  0
LINE
  8
0
 10
-44.0595
 20
13.7944
 11
-43.9801
 21
13.7328
  0
LINE
  8
0
 10
-43.9801
 20
13.7328
 11
-43.9047
 21
13.6663
  0
LINE
  8
0
 10
-43.9047
 20
13.6663
 11
-43.8336
 21
13.5953
  0
LINE
  8
0
 10
-43.8336
 20
13.5953
 11
-43.7672
 21
13.5199
  0
LINE
  8
0
 10
-43.7672
 20
13.5199
 11
-43.7056
 21
13.4405
  0
LINE
  8
0
 10
-43.7056
 20
13.4405
 11
-43.6491
 21
13.3573
  0
LINE
  8
0
 10
-43.6491
 20
13.3573
 11
-43.5979
 21
13.2708
  0
LINE
  8
0
 10
-43.5979
 20
13.2708
 11
-43.5523
 21
13.1812
  0
LINE
  8
0
 10
-43.5523
 20
13.1812
 11
-43.5124
 21
13.089
  0
LINE
  8
0
 10
-43.5124
 20
13.089
 11
-43.4783
 21
12.9944
  0
LINE
  8
0
 10
-43.4783
 20
12.9944
 11
-43.4503
 21
12.8979
  0
LINE
  8
0
 10
-43.4503
 20
12.8979
 11
-43.4283
 21
12.7998
  0
LINE
  8
0
 10
-43.4283
 20
12.7998
 11
-43.4126
 21
12.7005
  0
LINE
  8
0
 10
-43.4126
 20
12.7005
 11
-43.4032
 21
12.6005
  0
LINE
  8
0
 10
-43.4032
 20
12.6005
 11
-43.4
 21
12.5
  0
LINE
  8
0
 10
-43.4
 20
12.5
 11
-43.4032
 21
12.3995
  0
LINE
  8
0
 10
-43.4032
 20
12.3995
 11
-43.4126
 21
12.2995
  0
LINE
  8
0
 10
-43.4126
 20
12.2995
 11
-43.4283
 21
12.2002
  0
LINE
  8
0
 10
-43.4283
 20
12.2002
 11
-43.4503
 21
12.1021
  0
LINE
  8
0
 10
-43.4503
 20
12.1021
 11
-43.4783
 21
12.0056
  0
LINE
  8
0
 10
-43.4783
 20
12.0056
 11
-43.5124
 21
11.911
  0
LINE
  8
0
 10
-43.5124
 20
11.911
 11
-43.5523
 21
11.8188
  0
LINE
  8
0
 10
-43.5523
 20
11.8188
 11
-43.5979
 21
11.7292
  0
LINE
  8
0
 10
-43.5979
 20
11.7292
 11
-43.6491
 21
11.6427
  0
LINE
  8
0
 10
-43.6491
 20
11.6427
 11
-43.7056
 21
11.5595
  0
LINE
  8
0
 10
-43.7056
 20
11.5595
 11
-43.7672
 21
11.4801
  0
LINE
  8
0
 10
-43.7672
 20
11.4801
 11
-43.8336
 21
11.4047
  0
LINE
  8
0
 10
-43.8336
 20
11.4047
 11
-43.9047
 21
11.3336
  0
LINE
  8
0
 10
-43.9047
 20
11.3336
 11
-43.9801
 21
11.2672
  0
LINE
  8
0
 10
-43.9801
 20
11.2672
 11
-44.0595
 21
11.2056
  0
LINE
  8
0
 10
-44.0595
 20
11.2056
 11
-44.1427
 21
11.1491
  0
LINE
  8
0
 10
-44.1427
 20
11.1491
 11
-44.2292
 21
11.0979
  0
LINE
  8
0
 10
-44.2292
 20
11.0979
 11
-44.3188
 21
11.0523
  0
LINE
  8
0
 10
-44.3188
 20
11.0523
 11
-44.411
 21
11.0124
  0
LINE
  8
0
 10
-44.411
 20
11.0124
 11
-44.5056
 21
10.9783
  0
LINE
  8
0
 10
-44.5056
 20
10.9783
 11
-44.6021
 21
10.9503
  0
LINE
  8
0
 10
-44.6021
 20
10.9503
 11
-44.7002
 21
10.9283
  0
LINE
  8
0
 10
-44.7002
 20
10.9283
 11
-44.7995
 21
10.9126
  0
LINE
  8
0
 10
-44.7995
 20
10.9126
 11
-44.8995
 21
10.9032
  0
LINE
  8
0
 10
-44.8995
 20
10.9032
 11
-45
 21
10.9
  0
LINE
  8
0
 10
-45
 20
10.9
 11
-45.1005
 21
10.9032
  0
LINE
  8
0
 10
-45.1005
 20
10.9032
 11
-45.2005
 21
10.9126
  0
LINE
  8
0
 10
-45.2005
 20
10.9126
 11
-45.2998
 21
10.9283
  0
LINE
  8
0
 10
-45.2998
 20
10.9283
 11
-45.3979
 21
10.9503
  0
LINE
  8
0
 10
-45.3979
 20
10.9503
 11
-45.4944
 21
10.9783
  0
LINE
  8
0
 10
-45.4944
 20
10.9783
 11
-45.589
 21
11.0124
  0
LINE
  8
0
 10
-45.589
 20
11.0124
 11
-45.6812
 21
11.0523
  0
LINE
  8
0
 10
-45.6812
 20
11.0523
 11
-45.7708
 21
11.0979
  0
LINE
  8
0
 10
-45.7708
 20
11.0979
 11
-45.8573
 21
11.1491
  0
LINE
  8
0
 10
-45.8573
 20
11.1491
 11
-45.9405
 21
11.2056
  0
LINE
  8
0
 10
-45.9405
 20
11.2056
 11
-46.0199
 21
11.2672
  0
LINE
  8
0
 10
-46.0199
 20
11.2672
 11
-46.0953
 21
11.3336
  0
LINE
  8
0
 10
-46.0953
 20
11.3336
 11
-46.1663
 21
11.4047
  0
LINE
  8
0
 10
-46.1663
 20
11.4047
 11
-46.2328
 21
11.4801
  0
LINE
  8
0
 10
-46.2328
 20
11.4801
 11
-46.2944
 21
11.5595
  0
LINE
  8
0
 10
-46.2944
 20
11.5595
 11
-46.3509
 21
11.6427
  0
LINE
  8
0
 10
-46.3509
 20
11.6427
 11
-46.4021
 21
11.7292
  0
LINE
  8
0
 10
-46.4021
 20
11.7292
 11
-46.4477
 21
11.8188
  0
LINE
  8
0
 10
-46.4477
 20
11.8188
 11
-46.4876
 21
11.911
  0
LINE
  8
0
 10
-46.4876
 20
11.911
 11
-46.5217
 21
12.0056
  0
LINE
  8
0
 10
-46.5217
 20
12.0056
 11
-46.5497
 21
12.1021
  0
LINE
  8
0
 10
-46.5497
 20
12.1021
 11
-46.5717
 21
12.2002
  0
LINE
  8
0
 10
-46.5717
 20
12.2002
 11
-46.5874
 21
12.2995
  0
LINE
  8
0
 10
-46.5874
 20
12.2995
 11
-46.5968
 21
12.3995
  0
LINE
  8
0
 10
-46.5968
 20
12.3995
 11
-46.6
 21
12.5
  0
LINE
  8
0
 10
43.4
 20
-12.5
 11
43.4032
 21
-12.3995
  0
LINE
  8
0
 10
43.4032
 20
-12.3995
 11
43.4126
 21
-12.2995
  0
LINE
  8
0
 10
43.4126
 20
-12.2995
 11
43.4283
 21
-12.2002
  0
LINE
  8
0
 10
43.4283
 20
-12.2002
 11
43.4503
 21
-12.1021
  0
LINE
  8
0
 10
43.4503
 20
-12.1021
 11
43.4783
 21
-12.0056
  0
LINE
  8
0
 10
43.4783
 20
-12.0056
 11
43.5124
 21
-11.911
  0
LINE
  8
0
 10
43.5124
 20
-11.911
 11
43.5523
 21
-11.8188
  0
LINE
  8
0
 10
43.5523
 20
-11.8188
 11
43.5979
 21
-11.7292
  0
LINE
  8
0
 10
43.5979
 20
-11.7292
 11
43.6491
 21
-11.6427
  0
LINE
  8
0
 10
43.6491
 20
-11.6427
 11
43.7056
 21
-11.5595
  0
LINE
  8
0
 10
43.7056
 20
-11.5595
 11
43.7672
 21
-11.4801
  0
LINE
  8
0
 10
43.7672
 20
-11.4801
 11
43.8336
 21
-11.4047
  0
LINE
  8
0
 10
43.8336
 20
-11.4047
 11
43.9047
 21
-11.3336
  0
LINE
  8
0
 10
43.9047
 20
-11.3336
 11
43.9801
 21
-11.2672
  0
LINE
  8
0
 10
43.9801
 20
-11.2672
 11
44.0595
 21
-11.2056
  0
LINE
  8
0
 10
44.0595
 20
-11.2056
 11
44.1427
 21
-11.1491
  0
LINE
  8
0
 10
44.1427
 20
-11.1491
 11
44.2292
 21
-11.0979
  0
LINE
  8
0
 10
44.2292
 20
-11.0979
 11
44.3188
 21
-11.0523
  0
LINE
  8
0
 10
44.3188
 20
-11.0523
 11
44.411
 21
-11.0124
  0
LINE
  8
0
 10
44.411
 20
-11.0124
 11
44.5056
 21
-10.9783
  0
LINE
  8
0
 10
44.5056
 20
-10.9783
 11
44.6021
 21
-10.9503
  0
LINE
  8
0
 10
44.6021
 20
-10.9503
 11
44.7002
 21
-10.9283
  0
LINE
  8
0
 10
44.7002
 20
-10.9283
 11
44.7995
 21
-10.9126
  0
LINE
  8
0
 10
44.7995
 20
-10.9126
 11
44.8995
 21
-10.9032
  0
LINE
  8
0
 10
44.8995
 20
-10.9032
 11
45
 21
-10.9
  0
LINE
  8
0
 10
45
 20
-10.9
 11
45.1005
 21
-10.9032
  0
LINE
  8
0
 10
45.1005
 20
-10.9032
 11
45.2005
 21
-10.9126
  0
LINE
  8
0
 10
45.2005
 20
-10.9126
 11
45.2998
 21
-10.9283
  0
LINE
  8
0
 10
45.2998
 20
-10.9283
 11
45.3979
 21
-10.9503
  0
LINE
  8
0
 10
45.3979
 20
-10.9503
 11
45.4944
 21
-10.9783
  0
LINE
  8
0
 10
45.4944
 20
-10.9783
 11
45.589
 21
-11.0124
  0
LINE
  8
0
 10
45.589
 20
-11.0124
 11
45.6812
 21
-11.0523
  0
LINE
  8
0
 10
45.6812
 20
-11.0523
 11
45.7708
 21
-11.0979
  0
LINE
  8
0
 10
45.7708
 20
-11.0979
 11
45.8573
 21
-11.1491
  0
LINE
  8
0
 10
45.8573
 20
-11.1491
 11
45.9405
 21
-11.2056
  0
LINE
  8
0
 10
45.9405
 20
-11.2056
 11
46.0199
 21
-11.2672
  0
LINE
  8
0
 10
46.0199
 20
-11.2672
 11
46.0953
 21
-11.3336
  0
LINE
  8
0
 10
46.0953
 20
-11.3336
 11
46.1663
 21
-11.4047
  0
LINE
  8
0
 10
46.1663
 20
-11.4047
 11
46.2328
 21
-11.4801
  0
LINE
  8
0
 10
46.2328
 20
-11.4801
 11
46.2944
 21
-11.5595
  0
LINE
  8
0
 10
46.2944
 20
-11.5595
 11
46.3509
 21
-11.6427
  0
LINE
  8
0
 10
46.3509
 20
-11.6427
 11
46.4021
 21
-11.7292
  0
LINE
  8
0
 10
46.4021
 20
-11.7292
 11
46.4477
 21
-11.8188
  0
LINE
  8
0
 10
46.4477
 20
-11.8188
 11
46.4876
 21
-11.911
  0
LINE
  8
0
 10
46.4876
 20
-11.911
 11
46.5217
 21
-12.0056
  0
LINE
  8
0
 10
46.5217
 20
-12.0056
 11
46.5497
 21
-12.1021
  0
LINE
  8
0
 10
46.5497
 20
-12.1021
 11
46.5717
 21
-12.2002
  0
LINE
  8
0
 10
46.5717
 20
-12.2002
 11
46.5874
 21
-12.2995
  0
LINE
  8
0
 10
46.5874
 20
-12.2995
 11
46.5968
 21
-12.3995
  0
LINE
  8
0
 10
46.5968
 20
-12.3995
 11
46.6
 21
-12.5
  0
LINE
  8
0
 10
46.6
 20
-12.5
 11
46.5968
 21
-12.6005
  0
LINE
  8
0
 10
46.5968
 20
-12.6005
 11
46.5874
 21
-12.7005
  0
LINE
  8
0
 10
46.5874
 20
-12.7005
 11
46.5717
 21
-12.7998
  0
LINE
  8
0
 10
46.5717
 20
-12.7998
 11
46.5497
 21
-12.8979
  0
LINE
  8
0
 10
46.5497
 20
-12.8979
 11
46.5217
 21
-12.9944
  0
LINE
  8
0
 10
46.5217
 20
-12.9944
 11
46.4876
 21
-13.089
  0
LINE
  8
0
 10
46.4876
 20
-13.089
 11
46.4477
 21
-13.1812
  0
LINE
  8
0
 10
46.4477
 20
-13.1812
 11
46.4021
 21
-13.2708
  0
LINE
  8
0
 10
46.4021
 20
-13.2708
 11
46.3509
 21
-13.3573
  0
LINE
  8
0
 10
46.3509
 20
-13.3573
 11
46.2944
 21
-13.4405
  0
LINE
  8
0
 10
46.2944
 20
-13.4405
 11
46.2328
 21
-13.5199
  0
LINE
  8
0
 10
46.2328
 20
-13.5199
 11
46.1663
 21
-13.5953
  0
LINE
  8
0
 10
46.1663
 20
-13.5953
 11
46.0953
 21
-13.6663
  0
LINE
  8
0
 10
46.0953
 20
-13.6663
 11
46.0199
 21
-13.7328
  0
LINE
  8
0
 10
46.0199
 20
-13.7328
 11
45.9405
 21
-13.7944
  0
LINE
  8
0
 10
45.9405
 20
-13.7944
 11
45.8573
 21
-13.8509
  0
LINE
  8
0
 10
45.8573
 20
-13.8509
 11
45.7708
 21
-13.9021
  0
LINE
  8
0
 10
45.7708
 20
-13.9021
 11
45.6812
 21
-13.9477
  0
LINE
  8
0
 10
45.6812
 20
-13.9477
 11
45.589
 21
-13.9876
  0
LINE
  8
0
 10
45.589
 20
-13.9876
 11
45.4944
 21
-14.0217
  0
LINE
  8
0
 10
45.4944
 20
-14.0217
 11
45.3979
 21
-14.0497
  0
LINE
  8
0
 10
45.3979
 20
-14.0497
 11
45.2998
 21
-14.0717
  0
LINE
  8
0
 10
45.2998
 20
-14.0717
 11
45.2005
 21
-14.0874
  0
LINE
  8
0
 10
45.2005
 20
-14.0874
 11
45.1005
 21
-14.0968
  0
LINE
  8
0
 10
45.1005
 20
-14.0968
 11
45
 21
-14.1
  0
LINE
  8
0
 10
45
 20
-14.1
 11
44.8995
 21
-14.0968
  0
LINE
  8
0
 10
44.8995
 20
-14.0968
 11
44.7995
 21
-14.0874
  0
LINE
  8
0
 10
44.7995
 20
-14.0874
 11
44.7002
 21
-14.0717
  0
LINE
  8
0
 10
44.7002
 20
-14.0717
 11
44.6021
 21
-14.0497
  0
LINE
  8
0
 10
44.6021
 20
-14.0497
 11
44.5056
 21
-14.0217
  0
LINE
  8
0
 10
44.5056
 20
-14.0217
 11
44.411
 21
-13.9876
  0
LINE
  8
0
 10
44.411
 20
-13.9876
 11
44.3188
 21
-13.9477
  0
LINE
  8
0
 10
44.3188
 20
-13.9477
 11
44.2292
 21
-13.9021
  0
LINE
  8
0
 10
44.2292
 20
-13.9021
 11
44.1427
 21
-13.8509
  0
LINE
  8
0
 10
44.1427
 20
-13.8509
 11
44.0595
 21
-13.7944
  0
LINE
  8
0
 10
44.0595
 20
-13.7944
 11
43.9801
 21
-13.7328
  0
LINE
  8
0
 10
43.9801
 20
-13.7328
 11
43.9047
 21
-13.6663
  0
LINE
  8
0
 10
43.9047
 20
-13.6663
 11
43.8336
 21
-13.5953
  0
LINE
  8
0
 10
43.8336
 20
-13.5953
 11
43.7672
 21
-13.5199
  0
LINE
  8
0
 10
43.7672
 20
-13.5199
 11
43.7056
 21
-13.4405
  0
LINE
  8
0
 10
43.7056
 20
-13.4405
 11
43.6491
 21
-13.3573
  0
LINE
  8
0
 10
43.6491
 20
-13.3573
 11
43.5979
 21
-13.2708
  0
LINE
  8
0
 10
43.5979
 20
-13.2708
 11
43.5523
 21
-13.1812
  0
LINE
  8
0
 10
43.5523
 20
-13.1812
 11
43.5124
 21
-13.089
  0
LINE
  8
0
 10
43.5124
 20
-13.089
 11
43.4783
 21
-12.9944
  0
LINE
  8
0
 10
43.4783
 20
-12.9944
 11
43.4503
 21
-12.8979
  0
LINE
  8
0
 10
43.4503
 20
-12.8979
 11
43.4283
 21
-12.7998
  0
LINE
  8
0
 10
43.4283
 20
-12.7998
 11
43.4126
 21
-12.7005
  0
LINE
  8
0
 10
43.4126
 20
-12.7005
 11
43.4032
 21
-12.6005
  0
LINE
  8
0
 10
43.4032
 20
-12.6005
 11
43.4
 21
-12.5
  0
LINE
  8
0
 10
43.4
 20
12.5
 11
43.4032
 21
12.6005
  0
LINE
  8
0
 10
43.4032
 20
12.6005
 11
43.4126
 21
12.7005
  0
LINE
  8
0
 10
43.4126
 20
12.7005
 11
43.4283
 21
12.7998
  0
LINE
  8
0
 10
43.4283
 20
12.7998
 11
43.4503
 21
12.8979
  0
LINE
  8
0
 10
43.4503
 20
12.8979
 11
43.4783
 21
12.9944
  0
LINE
  8
0
 10
43.4783
 20
12.9944
 11
43.5124
 21
13.089
  0
LINE
  8
0
 10
43.5124
 20
13.089
 11
43.5523
 21
13.1812
  0
LINE
  8
0
 10
43.5523
 20
13.1812
 11
43.5979
 21
13.2708
  0
LINE
  8
0
 10
43.5979
 20
13.2708
 11
43.6491
 21
13.3573
  0
LINE
  8
0
 10
43.6491
 20
13.3573
 11
43.7056
 21
13.4405
  0
LINE
  8
0
 10
43.7056
 20
13.4405
 11
43.7672
 21
13.5199
  0
LINE
  8
0
 10
43.7672
 20
13.5199
 11
43.8336
 21
13.5953
  0
LINE
  8
0
 10
43.8336
 20
13.5953
 11
43.9047
 21
13.6663
  0
LINE
  8
0
 10
43.9047
 20
13.6663
 11
43.9801
 21
13.7328
  0
LINE
  8
0
 10
43.9801
 20
13.7328
 11
44.0595
 21
13.7944
  0
LINE
  8
0
 10
44.0595
 20
13.7944
 11
44.1427
 21
13.8509
  0
LINE
  8
0
 10
44.1427
 20
13.8509
 11
44.2292
 21
13.9021
  0
LINE
  8
0
 10
44.2292
 20
13.9021
 11
44.3188
 21
13.9477
  0
LINE
  8
0
 10
44.3188
 20
13.9477
 11
44.411
 21
13.9876
  0
LINE
  8
0
 10
44.411
 20
13.9876
 11
44.5056
 21
14.0217
  0
LINE
  8
0
 10
44.5056
 20
14.0217
 11
44.6021
 21
14.0497
  0
LINE
  8
0
 10
44.6021
 20
14.0497
 11
44.7002
 21
14.0717
  0
LINE
  8
0
 10
44.7002
 20
14.0717
 11
44.7995
 21
14.0874
  0
LINE
  8
0
 10
44.7995
 20
14.0874
 11
44.8995
 21
14.0968
  0
LINE
  8
0
 10
44.8995
 20
14.0968
 11
45
 21
14.1
  0
LINE
  8
0
 10
45
 20
14.1
 11
45.1005
 21
14.0968
  0
LINE
  8
0
 10
45.1005
 20
14.0968
 11
45.2005
 21
14.0874
  0
LINE
  8
0
 10
45.2005
 20
14.0874
 11
45.2998
 21
14.0717
  0
LINE
  8
0
 10
45.2998
 20
14.0717
 11
45.3979
 21
14.0497
  0
LINE
  8
0
 10
45.3979
 20
14.0497
 11
45.4944
 21
14.0217
  0
LINE
  8
0
 10
45.4944
 20
14.0217
 11
45.589
 21
13.9876
  0
LINE
  8
0
 10
45.589
 20
13.9876
 11
45.6812
 21
13.9477
  0
LINE
  8
0
 10
45.6812
 20
13.9477
 11
45.7708
 21
13.9021
  0
LINE
  8
0
 10
45.7708
 20
13.9021
 11
45.8573
 21
13.8509
  0
LINE
  8
0
 10
45.8573
 20
13.8509
 11
45.9405
 21
13.7944
  0
LINE
  8
0
 10
45.9405
 20
13.7944
 11
46.0199
 21
13.7328
  0
LINE
  8
0
 10
46.0199
 20
13.7328
 11
46.0953
 21
13.6663
  0
LINE
  8
0
 10
46.0953
 20
13.6663
 11
46.1663
 21
13.5953
  0
LINE
  8
0
 10
46.1663
 20
13.5953
 11
46.2328
 21
13.5199
  0
LINE
  8
0
 10
46.2328
 20
13.5199
 11
46.2944
 21
13.4405
  0
LINE
  8
0
 10
46.2944
 20
13.4405
 11
46.3509
 21
13.3573
  0
LINE
  8
0
 10
46.3509
 20
13.3573
 11
46.4021
 21
13.2708
  0
LINE
  8
0
 10
46.4021
 20
13.2708
 11
46.4477
 21
13.1812
  0
LINE
  8
0
 10
46.4477
 20
13.1812
 11
46.4876
 21
13.089
  0
LINE
  8
0
 10
46.4876
 20
13.089
 11
46.5217
 21
12.9944
  0
LINE
  8
0
 10
46.5217
 20
12.9944
 11
46.5497
 21
12.8979
  0
LINE
  8
0
 10
46.5497
 20
12.8979
 11
46.5717
 21
12.7998
  0
LINE
  8
0
 10
46.5717
 20
12.7998
 11
46.5874
 21
12.7005
  0
LINE
  8
0
 10
46.5874
 20
12.7005
 11
46.5968
 21
12.6005
  0
LINE
  8
0
 10
46.5968
 20
12.6005
 11
46.6
 21
12.5
  0
LINE
  8
0
 10
46.6
 20
12.5
 11
46.5968
 21
12.3995
  0
LINE
  8
0
 10
46.5968
 20
12.3995
 11
46.5874
 21
12.2995
  0
LINE
  8
0
 10
46.5874
 20
12.2995
 11
46.5717
 21
12.2002
  0
LINE
  8
0
 10
46.5717
 20
12.2002
 11
46.5497
 21
12.1021
  0
LINE
  8
0
 10
46.5497
 20
12.1021
 11
46.5217
 21
12.0056
  0
LINE
  8
0
 10
46.5217
 20
12.0056
 11
46.4876
 21
11.911
  0
LINE
  8
0
 10
46.4876
 20
11.911
 11
46.4477
 21
11.8188
  0
LINE
  8
0
 10
46.4477
 20
11.8188
 11
46.4021
 21
11.7292
  0
LINE
  8
0
 10
46.4021
 20
11.7292
 11
46.3509
 21
11.6427
  0
LINE
  8
0
 10
46.3509
 20
11.6427
 11
46.2944
 21
11.5595
  0
LINE
  8
0
 10
46.2944
 20
11.5595
 11
46.2328
 21
11.4801
  0
LINE
  8
0
 10
46.2328
 20
11.4801
 11
46.1663
 21
11.4047
  0
LINE
  8
0
 10
46.1663
 20
11.4047
 11
46.0953
 21
11.3336
  0
LINE
  8
0
 10
46.0953
 20
11.3336
 11
46.0199
 21
11.2672
  0
LINE
  8
0
 10
46.0199
 20
11.2672
 11
45.9405
 21
11.2056
  0
LINE
  8
0
 10
45.9405
 20
11.2056
 11
45.8573
 21
11.1491
  0
LINE
  8
0
 10
45.8573
 20
11.1491
 11
45.7708
 21
11.0979
  0
LINE
  8
0
 10
45.7708
 20
11.0979
 11
45.6812
 21
11.0523
  0
LINE
  8
0
 10
45.6812
 20
11.0523
 11
45.589
 21
11.0124
  0
LINE
  8
0
 10
45.589
 20
11.0124
 11
45.4944
 21
10.9783
  0
LINE
  8
0
 10
45.4944
 20
10.9783
 11
45.3979
 21
10.9503
  0
LINE
  8
0
 10
45.3979
 20
10.9503
 11
45.2998
 21
10.9283
  0
LINE
  8
0
 10
45.2998
 20
10.9283
 11
45.2005
 21
10.9126
  0
LINE
  8
0
 10
45.2005
 20
10.9126
 11
45.1005
 21
10.9032
  0
LINE
  8
0
 10
45.1005
 20
10.9032
 11
45
 21
10.9
  0
LINE
  8
0
 10
45
 20
10.9
 11
44.8995
 21
10.9032
  0
LINE
  8
0
 10
44.8995
 20
10.9032
 11
44.7995
 21
10.9126
  0
LINE
  8
0
 10
44.7995
 20
10.9126
 11
44.7002
 21
10.9283
  0
LINE
  8
0
 10
44.7002
 20
10.9283
 11
44.6021
 21
10.9503
  0
LINE
  8
0
 10
44.6021
 20
10.9503
 11
44.5056
 21
10.9783
  0
LINE
  8
0
 10
44.5056
 20
10.9783
 11
44.411
 21
11.0124
  0
LINE
  8
0
 10
44.411
 20
11.0124
 11
44.3188
 21
11.0523
  0
LINE
  8
0
 10
44.3188
 20
11.0523
 11
44.2292
 21
11.0979
  0
LINE
  8
0
 10
44.2292
 20
11.0979
 11
44.1427
 21
11.1491
  0
LINE
  8
0
 10
44.1427
 20
11.1491
 11
44.0595
 21
11.2056
  0
LINE
  8
0
 10
44.0595
 20
11.2056
 11
43.9801
 21
11.2672
  0
LINE
  8
0
 10
43.9801
 20
11.2672
 11
43.9047
 21
11.3336
  0
LINE
  8
0
 10
43.9047
 20
11.3336
 11
43.8336
 21
11.4047
  0
LINE
  8
0
 10
43.8336
 20
11.4047
 11
43.7672
 21
11.4801
  0
LINE
  8
0
 10
43.7672
 20
11.4801
 11
43.7056
 21
11.5595
  0
LINE
  8
0
 10
43.7056
 20
11.5595
 11
43.6491
 21
11.6427
  0
LINE
  8
0
 10
43.6491
 20
11.6427
 11
43.5979
 21
11.7292
  0
LINE
  8
0
 10
43.5979
 20
11.7292
 11
43.5523
 21
11.8188
  0
LINE
  8
0
 10
43.5523
 20
11.8188
 11
43.5124
 21
11.911
  0
LINE
  8
0
 10
43.5124
 20
11.911
 11
43.4783
 21
12.0056
  0
LINE
  8
0
 10
43.4783
 20
12.0056
 11
43.4503
 21
12.1021
  0
LINE
  8
0
 10
43.4503
 20
12.1021
 11
43.4283
 21
12.2002
  0
LINE
  8
0
 10
43.4283
 20
12.2002
 11
43.4126
 21
12.2995
  0
LINE
  8
0
 10
43.4126
 20
12.2995
 11
43.4032
 21
12.3995
  0
LINE
  8
0
 10
43.4032
 20
12.3995
 11
43.4
 21
12.5
  0
ENDSEC
  0
SECTION
  2
OBJECTS
  0
DICTIONARY
  0
ENDSEC
  0
EOF
