M48
INCH,TZ
T1C0.012
T2C0.020
T3C0.024
T4C0.028
T5C0.030
T6C0.032
T7C0.039
%
G90
G05
T1
X40600Y-42600
X40600Y-44400
X40800Y-43200
X40800Y-45800
X41200Y-37400
X41400Y-35400
X41400Y-42000
X41600Y-43800
X41800Y-41000
X41800Y-43200
X42400Y-34600
X42400Y-43000
X42400Y-45600
X42600Y-37000
X42600Y-44200
X42800Y-39200
X42800Y-46400
X43000Y-41800
X43600Y-35600
X43600Y-37800
X43800Y-45200
X43800Y-46200
X43800Y-49800
X44000Y-44200
X44000Y-47400
X44200Y-32000
X44400Y-36800
X44400Y-38600
X44400Y-48200
X44800Y-43400
X44800Y-49200
X45000Y-31000
X45000Y-42200
X45000Y-44800
X45000Y-46600
X45200Y-48400
X45400Y-47400
X45600Y-38200
X45600Y-40600
X45600Y-50000
X45800Y-32000
X45800Y-39200
X45800Y-41800
X46200Y-48400
X46600Y-49600
X46800Y-36400
X46800Y-38400
X46800Y-42600
X46800Y-47600
X47000Y-31000
X47000Y-34800
X47200Y-49000
X47600Y-40600
X47800Y-32000
X47800Y-36000
X47800Y-41600
X47800Y-47600
X47800Y-49800
X48000Y-34600
X48200Y-42400
X48400Y-39400
X48400Y-40400
X48600Y-38000
X48600Y-42800
X48600Y-45200
X48600Y-46600
X48600Y-49000
X48800Y-40200
X49000Y-31400
X49200Y-39400
X49200Y-42800
X49200Y-48000
X49400Y-34400
X49400Y-45400
X49400Y-46400
X49600Y-33400
X49800Y-48600
X50200Y-45000
X50400Y-40400
X50600Y-31600
X50600Y-34400
X50600Y-43200
X50733Y-38867
X50800Y-37400
X50800Y-46400
X50800Y-47400
X50800Y-49200
X51019Y-44071
X51400Y-44600
X51500Y-41183
X51568Y-39702
X51600Y-33400
X51600Y-40000
X51600Y-40600
X51600Y-48000
X51800Y-39220
X51800Y-34400
X51800Y-37380
X51800Y-41200
X51800Y-42200
X51989Y-39811
X52000Y-43800
X52000Y-45400
X52000Y-50000
X52091Y-41056
X52200Y-32800
X52200Y-44400
X52204Y-41693
X52400Y-45800
X52600Y-34400
X52820Y-42600
X52917Y-37214
X53000Y-38200
X53094Y-41595
X53200Y-33400
X53200Y-40400
X53200Y-40800
X53200Y-46200
X53380Y-35437
X53600Y-37400
X53600Y-47000
X53620Y-41298
X53800Y-32600
X53800Y-49800
X53881Y-41446
X54000Y-36600
X54000Y-37400
X54000Y-42600
X54200Y-33800
X54200Y-40800
X54282Y-39563
X54400Y-41600
X54400Y-43600
X54600Y-31000
X54600Y-39600
X54658Y-42613
X54800Y-38000
X54800Y-41600
X54800Y-43600
X54800Y-48600
X55000Y-36600
X55000Y-37400
X55200Y-38000
X55200Y-39600
X55200Y-42820
X55212Y-40988
X55600Y-32600
X55600Y-38580
X55600Y-39128
X55600Y-45800
X55800Y-37400
X56000Y-33800
X56386Y-40618
X56400Y-46600
X56402Y-40318
X56600Y-31200
X56600Y-37630
X56614Y-40813
X56800Y-38420
X56876Y-39836
X57000Y-37180
X57205Y-39182
X57400Y-34200
X57400Y-47400
X57600Y-32800
X58200Y-45600
X58400Y-37400
X58400Y-41000
X58600Y-30800
X58800Y-33600
X58800Y-39620
X58800Y-47800
X59000Y-32600
X59000Y-37980
X59000Y-44600
X59400Y-37600
X59400Y-47200
X59800Y-36600
X60000Y-37600
X60200Y-45000
X60200Y-46000
X60200Y-49000
X60286Y-37980
X60400Y-31200
X60400Y-33000
X60400Y-34400
X60400Y-42800
X60588Y-39980
X60600Y-41200
X60800Y-36600
X60800Y-37600
X60800Y-40200
X61200Y-37600
X61400Y-34400
X61400Y-40780
X61400Y-49800
X61600Y-42800
X61800Y-44600
X61800Y-45400
X62200Y-31600
X62400Y-33400
X62400Y-37400
X62400Y-38420
X62400Y-39800
X62400Y-49400
X62600Y-36200
X63000Y-34800
X63200Y-40780
X63200Y-49400
X63400Y-31600
X63400Y-41220
X63400Y-45600
X63600Y-38580
X63600Y-44600
X63800Y-36200
X63800Y-37400
X63800Y-40000
X63800Y-40780
X63800Y-42800
X64000Y-33800
X64200Y-41220
X64400Y-35000
X64600Y-31400
X64600Y-42000
X64600Y-42600
X64600Y-48200
X64600Y-49600
X65000Y-33000
X65000Y-41000
X65200Y-35400
X65200Y-38420
X65200Y-39800
X65200Y-45800
X65600Y-32200
X65600Y-37200
X65600Y-39020
X65600Y-46000
X65600Y-48600
X65800Y-34200
X65800Y-49800
X66000Y-41000
X66400Y-38420
X66400Y-44600
X66600Y-39180
X66600Y-45400
X66600Y-47600
X66800Y-33200
X66800Y-35000
X66800Y-37600
X66800Y-40000
X67200Y-39800
X67200Y-42000
X67400Y-36800
X67600Y-34600
X67600Y-40800
X67600Y-50000
X67800Y-40200
X68000Y-32800
X68000Y-44200
X68200Y-31800
X68400Y-35400
X68400Y-48200
X68800Y-33000
X69000Y-34400
X69000Y-40220
X69000Y-47000
X69200Y-41200
X70000Y-33600
X70200Y-31800
X70600Y-38200
X70800Y-36400
X70800Y-43600
X70800Y-46400
X71400Y-47800
X71600Y-31800
X71800Y-33800
X72000Y-44800
X72000Y-46200
X72600Y-41600
X72800Y-31600
X72800Y-39600
X72800Y-43200
X72803Y-40126
X73000Y-33800
X73000Y-41200
X73400Y-47400
X73800Y-42600
X74397Y-39758
X74400Y-44400
X74400Y-46400
X74507Y-40059
X74600Y-31800
X74600Y-34000
X74800Y-37000
X75600Y-34800
X75600Y-44800
X75800Y-39000
X76200Y-34000
X76200Y-40000
X76600Y-39200
X76600Y-40000
X76800Y-42400
X76800Y-46000
X77200Y-35400
X77400Y-40800
X77600Y-34400
X77600Y-37600
X77800Y-44600
X78000Y-36400
X78000Y-38600
X78000Y-41800
X78200Y-41400
X78400Y-43200
X78400Y-46000
X78800Y-36800
X78800Y-37800
X79000Y-35200
T2
X51400Y-38000
X52400Y-38000
X71700Y-42400
X72700Y-42400
X75900Y-41400
X76100Y-43600
X76900Y-41400
X77100Y-43600
T3
X47850Y-39705
X47850Y-40295
T4
X68750Y-43081
X68750Y-44419
T5
X46380Y-35437
X47380Y-35437
X48380Y-35437
X49380Y-35437
X50380Y-35437
X51380Y-35437
X52380Y-35437
X53380Y-35437
X54380Y-35437
X55380Y-35437
X56380Y-35437
X57380Y-35437
X58380Y-35437
X59380Y-35437
X60380Y-35437
X61380Y-35437
X68273Y-40044
X68273Y-41044
T6
X43750Y-43000
X45750Y-43000
X54750Y-45000
X56750Y-45000
X68840Y-36788
X68840Y-37788
T7
X40887Y-39044
X40887Y-40044
X40887Y-41044
X56500Y-49500
X57500Y-49500
X58500Y-49500
X59500Y-49500
X61000Y-46500
X62000Y-46500
X70200Y-39400
X70200Y-40400
X70200Y-41400
X73250Y-45504
X73250Y-48496
T0
M30
