%TF.GenerationSoftware,KiCad,Pcbnew,(2015-12-30 BZR 6409)-product*%
%TF.CreationDate,2016-01-04T10:30:51+01:00*%
%TF.ProjectId,gp8-clock,6770382D636C6F636B2E6B696361645F,rev?*%
%TF.FileFunction,Profile,NP*%
%FSLAX46Y46*%
G04 Gerber Fmt 4.6, Leading zero omitted, Abs format (unit mm)*
G04 Created by KiCad (PCBNEW (2015-12-30 BZR 6409)-product) date pon, 4 sty 2016, 10:30:51*
%MOMM*%
G01*
G04 APERTURE LIST*
%ADD10C,0.100000*%
G04 APERTURE END LIST*
D10*
X202300000Y-119500000D02*
X202300000Y-119600000D01*
X203800000Y-95000000D02*
X203800000Y-109900000D01*
X202300000Y-109900000D02*
X203800000Y-109900000D01*
X202300000Y-95000000D02*
X203800000Y-95000000D01*
X202300000Y-109900000D02*
X202300000Y-119500000D01*
X202300000Y-85400000D02*
X202300000Y-95000000D01*
X171003462Y-124626561D02*
X171003462Y-124626561D01*
X170978767Y-124381479D02*
X171003462Y-124626561D01*
X170907907Y-124153210D02*
X170978767Y-124381479D01*
X170795785Y-123946643D02*
X170907907Y-124153210D01*
X170647291Y-123766667D02*
X170795785Y-123946643D01*
X170467315Y-123618173D02*
X170647291Y-123766667D01*
X170260749Y-123506051D02*
X170467315Y-123618173D01*
X170032479Y-123435191D02*
X170260749Y-123506051D01*
X169787397Y-123410497D02*
X170032479Y-123435191D01*
X169542315Y-123435191D02*
X169787397Y-123410497D01*
X169314045Y-123506049D02*
X169542315Y-123435191D01*
X169107476Y-123618170D02*
X169314045Y-123506049D01*
X168927500Y-123766664D02*
X169107476Y-123618170D01*
X168779006Y-123946640D02*
X168927500Y-123766664D01*
X168666884Y-124153210D02*
X168779006Y-123946640D01*
X168596024Y-124381479D02*
X168666884Y-124153210D01*
X168571330Y-124626561D02*
X168596024Y-124381479D01*
X168596024Y-124871643D02*
X168571330Y-124626561D01*
X168666884Y-125099913D02*
X168596024Y-124871643D01*
X168779006Y-125306482D02*
X168666884Y-125099913D01*
X168927500Y-125486458D02*
X168779006Y-125306482D01*
X169107476Y-125634950D02*
X168927500Y-125486458D01*
X169314045Y-125747071D02*
X169107476Y-125634950D01*
X169542315Y-125817931D02*
X169314045Y-125747071D01*
X169787397Y-125842626D02*
X169542315Y-125817931D01*
X170032479Y-125817931D02*
X169787397Y-125842626D01*
X170260749Y-125747071D02*
X170032479Y-125817931D01*
X170467315Y-125634950D02*
X170260749Y-125747071D01*
X170647291Y-125486456D02*
X170467315Y-125634950D01*
X170795785Y-125306480D02*
X170647291Y-125486456D01*
X170907907Y-125099913D02*
X170795785Y-125306480D01*
X170978767Y-124871643D02*
X170907907Y-125099913D01*
X171003462Y-124626561D02*
X170978767Y-124871643D01*
X134969735Y-124626561D02*
X134969735Y-124626561D01*
X134945040Y-124381479D02*
X134969735Y-124626561D01*
X134874180Y-124153210D02*
X134945040Y-124381479D01*
X134762059Y-123946643D02*
X134874180Y-124153210D01*
X134613564Y-123766667D02*
X134762059Y-123946643D01*
X134433589Y-123618173D02*
X134613564Y-123766667D01*
X134227022Y-123506051D02*
X134433589Y-123618173D01*
X133998752Y-123435191D02*
X134227022Y-123506051D01*
X133753670Y-123410497D02*
X133998752Y-123435191D01*
X133508588Y-123435191D02*
X133753670Y-123410497D01*
X133280318Y-123506051D02*
X133508588Y-123435191D01*
X133073752Y-123618173D02*
X133280318Y-123506051D01*
X132893776Y-123766667D02*
X133073752Y-123618173D01*
X132745282Y-123946643D02*
X132893776Y-123766667D01*
X132633160Y-124153210D02*
X132745282Y-123946643D01*
X132562300Y-124381479D02*
X132633160Y-124153210D01*
X132537606Y-124626561D02*
X132562300Y-124381479D01*
X132562300Y-124871643D02*
X132537606Y-124626561D01*
X132633160Y-125099913D02*
X132562300Y-124871643D01*
X132745282Y-125306480D02*
X132633160Y-125099913D01*
X132893776Y-125486456D02*
X132745282Y-125306480D01*
X133073752Y-125634950D02*
X132893776Y-125486456D01*
X133280318Y-125747071D02*
X133073752Y-125634950D01*
X133508588Y-125817931D02*
X133280318Y-125747071D01*
X133753670Y-125842626D02*
X133508588Y-125817931D01*
X133998752Y-125817931D02*
X133753670Y-125842626D01*
X134227022Y-125747071D02*
X133998752Y-125817931D01*
X134433589Y-125634950D02*
X134227022Y-125747071D01*
X134613564Y-125486456D02*
X134433589Y-125634950D01*
X134762059Y-125306480D02*
X134613564Y-125486456D01*
X134874180Y-125099913D02*
X134762059Y-125306480D01*
X134945040Y-124871643D02*
X134874180Y-125099913D01*
X134969735Y-124626561D02*
X134945040Y-124871643D01*
X171003462Y-80378141D02*
X171003462Y-80378141D01*
X170978767Y-80133059D02*
X171003462Y-80378141D01*
X170907907Y-79904790D02*
X170978767Y-80133059D01*
X170795785Y-79698223D02*
X170907907Y-79904790D01*
X170647291Y-79518247D02*
X170795785Y-79698223D01*
X170467315Y-79369753D02*
X170647291Y-79518247D01*
X170260749Y-79257632D02*
X170467315Y-79369753D01*
X170032479Y-79186771D02*
X170260749Y-79257632D01*
X169787397Y-79162077D02*
X170032479Y-79186771D01*
X169542315Y-79186771D02*
X169787397Y-79162077D01*
X169314045Y-79257629D02*
X169542315Y-79186771D01*
X169107476Y-79369750D02*
X169314045Y-79257629D01*
X168927500Y-79518244D02*
X169107476Y-79369750D01*
X168779006Y-79698220D02*
X168927500Y-79518244D01*
X168666884Y-79904790D02*
X168779006Y-79698220D01*
X168596024Y-80133059D02*
X168666884Y-79904790D01*
X168571330Y-80378141D02*
X168596024Y-80133059D01*
X168596024Y-80623223D02*
X168571330Y-80378141D01*
X168666884Y-80851493D02*
X168596024Y-80623223D01*
X168779006Y-81058063D02*
X168666884Y-80851493D01*
X168927500Y-81238038D02*
X168779006Y-81058063D01*
X169107476Y-81386530D02*
X168927500Y-81238038D01*
X169314045Y-81498651D02*
X169107476Y-81386530D01*
X169542315Y-81569511D02*
X169314045Y-81498651D01*
X169787397Y-81594206D02*
X169542315Y-81569511D01*
X170032479Y-81569511D02*
X169787397Y-81594206D01*
X170260749Y-81498651D02*
X170032479Y-81569511D01*
X170467315Y-81386530D02*
X170260749Y-81498651D01*
X170647291Y-81238036D02*
X170467315Y-81386530D01*
X170795785Y-81058060D02*
X170647291Y-81238036D01*
X170907907Y-80851493D02*
X170795785Y-81058060D01*
X170978767Y-80623223D02*
X170907907Y-80851493D01*
X171003462Y-80378141D02*
X170978767Y-80623223D01*
X134969735Y-80378141D02*
X134969735Y-80378141D01*
X134945040Y-80133059D02*
X134969735Y-80378141D01*
X134874180Y-79904790D02*
X134945040Y-80133059D01*
X134762059Y-79698223D02*
X134874180Y-79904790D01*
X134613564Y-79518247D02*
X134762059Y-79698223D01*
X134433589Y-79369753D02*
X134613564Y-79518247D01*
X134227022Y-79257632D02*
X134433589Y-79369753D01*
X133998752Y-79186771D02*
X134227022Y-79257632D01*
X133753670Y-79162077D02*
X133998752Y-79186771D01*
X133508588Y-79186771D02*
X133753670Y-79162077D01*
X133280318Y-79257632D02*
X133508588Y-79186771D01*
X133073752Y-79369753D02*
X133280318Y-79257632D01*
X132893776Y-79518247D02*
X133073752Y-79369753D01*
X132745282Y-79698223D02*
X132893776Y-79518247D01*
X132633160Y-79904790D02*
X132745282Y-79698223D01*
X132562300Y-80133059D02*
X132633160Y-79904790D01*
X132537606Y-80378141D02*
X132562300Y-80133059D01*
X132562300Y-80623223D02*
X132537606Y-80378141D01*
X132633160Y-80851493D02*
X132562300Y-80623223D01*
X132745282Y-81058060D02*
X132633160Y-80851493D01*
X132893776Y-81238036D02*
X132745282Y-81058060D01*
X133073752Y-81386530D02*
X132893776Y-81238036D01*
X133280318Y-81498651D02*
X133073752Y-81386530D01*
X133508588Y-81569511D02*
X133280318Y-81498651D01*
X133753670Y-81594206D02*
X133508588Y-81569511D01*
X133998752Y-81569511D02*
X133753670Y-81594206D01*
X134227022Y-81498651D02*
X133998752Y-81569511D01*
X134433589Y-81386530D02*
X134227022Y-81498651D01*
X134613564Y-81238036D02*
X134433589Y-81386530D01*
X134762059Y-81058060D02*
X134613564Y-81238036D01*
X134874180Y-80851493D02*
X134762059Y-81058060D01*
X134945040Y-80623223D02*
X134874180Y-80851493D01*
X134969735Y-80378141D02*
X134945040Y-80623223D01*
X109965410Y-77101934D02*
X109965410Y-77101934D01*
X123937064Y-77101934D02*
X109965410Y-77101934D01*
X123937064Y-78319017D02*
X123937064Y-77101934D01*
X125757177Y-78319017D02*
X123937064Y-78319017D01*
X125757177Y-77101934D02*
X125757177Y-78319017D01*
X127338615Y-77101934D02*
X125757177Y-77101934D01*
X127338615Y-78319017D02*
X127338615Y-77101934D01*
X129159279Y-78319017D02*
X127338615Y-78319017D01*
X129159279Y-77101934D02*
X129159279Y-78319017D01*
X174342946Y-77101934D02*
X129159279Y-77101934D01*
X174342946Y-78319017D02*
X174342946Y-77101934D01*
X176163059Y-78319017D02*
X174342946Y-78319017D01*
X176163059Y-77101934D02*
X176163059Y-78319017D01*
X177744495Y-77101934D02*
X176163059Y-77101934D01*
X177744495Y-78319017D02*
X177744495Y-77101934D01*
X179565161Y-78319017D02*
X177744495Y-78319017D01*
X179565161Y-77101934D02*
X179565161Y-78319017D01*
X193523584Y-77101934D02*
X179565161Y-77101934D01*
X193523584Y-83658088D02*
X193523584Y-77101934D01*
X193562350Y-84004245D02*
X193523584Y-83658088D01*
X193673594Y-84326247D02*
X193562350Y-84004245D01*
X193849734Y-84617308D02*
X193673594Y-84326247D01*
X194083188Y-84870653D02*
X193849734Y-84617308D01*
X194366376Y-85079501D02*
X194083188Y-84870653D01*
X194691713Y-85237071D02*
X194366376Y-85079501D01*
X195051617Y-85336585D02*
X194691713Y-85237071D01*
X195438507Y-85371265D02*
X195051617Y-85336585D01*
X202242157Y-85371265D02*
X195438507Y-85371265D01*
X195438507Y-119590709D02*
X202242157Y-119590709D01*
X195051617Y-119625411D02*
X195438507Y-119590709D01*
X194691713Y-119724988D02*
X195051617Y-119625411D01*
X194366376Y-119882648D02*
X194691713Y-119724988D01*
X194083188Y-120091597D02*
X194366376Y-119882648D01*
X193849734Y-120345044D02*
X194083188Y-120091597D01*
X193673594Y-120636196D02*
X193849734Y-120345044D01*
X193562350Y-120958256D02*
X193673594Y-120636196D01*
X193523584Y-121304439D02*
X193562350Y-120958256D01*
X193523584Y-128050210D02*
X193523584Y-121304439D01*
X179565161Y-128050210D02*
X193523584Y-128050210D01*
X179565161Y-126688158D02*
X179565161Y-128050210D01*
X177744495Y-126688158D02*
X179565161Y-126688158D01*
X177744495Y-128050210D02*
X177744495Y-126688158D01*
X176163059Y-128050210D02*
X177744495Y-128050210D01*
X176163059Y-126688158D02*
X176163059Y-128050210D01*
X174342946Y-126688158D02*
X176163059Y-126688158D01*
X174342946Y-128050210D02*
X174342946Y-126688158D01*
X129159279Y-128050210D02*
X174342946Y-128050210D01*
X129159279Y-126688158D02*
X129159279Y-128050210D01*
X127338615Y-126688158D02*
X129159279Y-126688158D01*
X127338615Y-128050210D02*
X127338615Y-126688158D01*
X125757177Y-128050210D02*
X127338615Y-128050210D01*
X125757177Y-126688158D02*
X125757177Y-128050210D01*
X123937064Y-126688158D02*
X125757177Y-126688158D01*
X123937064Y-128050210D02*
X123937064Y-126688158D01*
X109965410Y-128050210D02*
X123937064Y-128050210D01*
X109965410Y-121253726D02*
X109965410Y-128050210D01*
X109926644Y-120907569D02*
X109965410Y-121253726D01*
X109815401Y-120585568D02*
X109926644Y-120907569D01*
X109639260Y-120294507D02*
X109815401Y-120585568D01*
X109405806Y-120041161D02*
X109639260Y-120294507D01*
X109122621Y-119832314D02*
X109405806Y-120041161D01*
X108797284Y-119674744D02*
X109122621Y-119832314D01*
X108437380Y-119575229D02*
X108797284Y-119674744D01*
X108050490Y-119540550D02*
X108437380Y-119575229D01*
X101495439Y-119540550D02*
X108050490Y-119540550D01*
X101495439Y-85472137D02*
X101495439Y-119540550D01*
X108050490Y-85472137D02*
X101495439Y-85472137D01*
X108437380Y-85437435D02*
X108050490Y-85472137D01*
X108797284Y-85337858D02*
X108437380Y-85437435D01*
X109122621Y-85180200D02*
X108797284Y-85337858D01*
X109405806Y-84971251D02*
X109122621Y-85180200D01*
X109639260Y-84717805D02*
X109405806Y-84971251D01*
X109815401Y-84426653D02*
X109639260Y-84717805D01*
X109926644Y-84104592D02*
X109815401Y-84426653D01*
X109965410Y-83758410D02*
X109926644Y-84104592D01*
X109965410Y-77101934D02*
X109965410Y-83758410D01*
M02*
