%TF.GenerationSoftware,KiCad,Pcbnew,(2015-12-30 BZR 6409)-product*%
%TF.CreationDate,2016-01-04T10:30:51+01:00*%
%TF.ProjectId,gp8-clock,6770382D636C6F636B2E6B696361645F,rev?*%
%TF.FileFunction,Copper,L1,Top,Signal*%
%FSLAX46Y46*%
G04 Gerber Fmt 4.6, Leading zero omitted, Abs format (unit mm)*
G04 Created by KiCad (PCBNEW (2015-12-30 BZR 6409)-product) date pon, 4 sty 2016, 10:30:51*
%MOMM*%
G01*
G04 APERTURE LIST*
%ADD10C,0.100000*%
%ADD11C,1.524000*%
%ADD12R,2.199640X1.524000*%
%ADD13O,2.199640X1.524000*%
%ADD14C,1.000760*%
%ADD15C,1.998980*%
%ADD16C,1.016000*%
%ADD17R,1.524000X2.199640*%
%ADD18O,1.524000X2.199640*%
%ADD19C,1.400000*%
%ADD20C,2.000000*%
%ADD21R,1.600000X1.400000*%
%ADD22C,0.609600*%
%ADD23C,0.203200*%
%ADD24C,0.254000*%
G04 APERTURE END LIST*
D10*
D11*
X155904000Y-90011000D03*
X153364000Y-90011000D03*
X150824000Y-90011000D03*
X148284000Y-90011000D03*
X145744000Y-90011000D03*
X143204000Y-90011000D03*
X140664000Y-90011000D03*
X138124000Y-90011000D03*
X135584000Y-90011000D03*
X133044000Y-90011000D03*
X130504000Y-90011000D03*
X127964000Y-90011000D03*
X125424000Y-90011000D03*
X122884000Y-90011000D03*
X120344000Y-90011000D03*
X117804000Y-90011000D03*
X173414000Y-101711000D03*
X173414000Y-104251000D03*
D12*
X103854000Y-104251000D03*
D13*
X103854000Y-101711000D03*
X103854000Y-99171000D03*
D14*
X121539000Y-102349300D03*
X121539000Y-100850700D03*
D15*
X174854000Y-93441000D03*
X174854000Y-95981000D03*
D12*
X178308000Y-100076000D03*
D13*
X178308000Y-102616000D03*
X178308000Y-105156000D03*
D16*
X130556000Y-96520000D03*
X133096000Y-96520000D03*
D17*
X143510000Y-125730000D03*
D18*
X146050000Y-125730000D03*
X148590000Y-125730000D03*
X151130000Y-125730000D03*
D16*
X192786000Y-105156000D03*
X195326000Y-105156000D03*
X193294000Y-110744000D03*
X195834000Y-110744000D03*
X182118000Y-107696000D03*
X184658000Y-107696000D03*
D19*
X174625000Y-109425000D03*
X174625000Y-112825000D03*
D20*
X186055000Y-115580160D03*
X186055000Y-123179840D03*
D21*
X189620000Y-92238000D03*
X181220000Y-92238000D03*
X181220000Y-94488000D03*
X181220000Y-96738000D03*
X189620000Y-96738000D03*
D17*
X157480000Y-118110000D03*
D18*
X154940000Y-118110000D03*
D15*
X139065000Y-114300000D03*
X144145000Y-114300000D03*
X116205000Y-109220000D03*
X111125000Y-109220000D03*
D22*
X130556000Y-113284000D03*
X132080000Y-111252000D03*
X132080000Y-115316000D03*
X162052000Y-108712000D03*
X161036000Y-104698810D03*
X163068000Y-104698810D03*
X160528000Y-103581190D03*
X162052000Y-103581190D03*
X162052000Y-101600000D03*
X158496000Y-101092000D03*
X158496000Y-97586810D03*
X161544000Y-97993190D03*
X194564000Y-99568000D03*
X192532000Y-99060000D03*
X194564000Y-101600000D03*
X193548000Y-101600000D03*
X196596000Y-103632000D03*
X198120000Y-106172000D03*
X195072000Y-107696000D03*
X199136000Y-109728000D03*
X199136000Y-116840000D03*
X197612000Y-113284000D03*
X195072000Y-116840000D03*
X192024000Y-113792000D03*
X184404000Y-105664000D03*
X187452000Y-108204000D03*
X184912000Y-109728000D03*
X179832000Y-110744000D03*
X182880000Y-113792000D03*
X188976000Y-112776000D03*
X188976000Y-117856000D03*
X186436000Y-120396000D03*
X182880000Y-117348000D03*
X181356000Y-121412000D03*
X179832000Y-117856000D03*
X175260000Y-119380000D03*
X171704000Y-127000000D03*
X167132000Y-126492000D03*
X158496000Y-125476000D03*
X152908000Y-124460000D03*
X155956000Y-126492000D03*
X160528000Y-125476000D03*
X164084000Y-122428000D03*
X164084000Y-125984000D03*
X166624000Y-123444000D03*
X169164000Y-120904000D03*
X166624000Y-116840000D03*
X169164000Y-115316000D03*
X168656000Y-113284000D03*
X165608000Y-116332000D03*
X161036000Y-115824000D03*
X156972000Y-115316000D03*
X161544000Y-113284000D03*
X156972000Y-113284000D03*
X152908000Y-116840000D03*
X152908000Y-114300000D03*
X149860000Y-113284000D03*
X149352000Y-121412000D03*
X147828000Y-115824000D03*
X143256000Y-118364000D03*
X141224000Y-116332000D03*
X135128000Y-117348000D03*
X133096000Y-116332000D03*
X136144000Y-119380000D03*
X139192000Y-123444000D03*
X136652000Y-126492000D03*
X132080000Y-127000000D03*
X129032000Y-124968000D03*
X131064000Y-121920000D03*
X126492000Y-123444000D03*
X129032000Y-120396000D03*
X124968000Y-121920000D03*
X129032000Y-117856000D03*
X125476000Y-117856000D03*
X125476000Y-115316000D03*
X123444000Y-114808000D03*
X123444000Y-118364000D03*
X123444000Y-124460000D03*
X121412000Y-120904000D03*
X121412000Y-126492000D03*
X119888000Y-124460000D03*
X118872000Y-120904000D03*
X117348000Y-122936000D03*
X118364000Y-125984000D03*
X114808000Y-122936000D03*
X115824000Y-127000000D03*
X113792000Y-124968000D03*
X111252000Y-126492000D03*
X112776000Y-122428000D03*
X115316000Y-120396000D03*
X111760000Y-120396000D03*
X114300000Y-118364000D03*
X114300000Y-113792000D03*
X111252000Y-117348000D03*
X111252000Y-114808000D03*
X108712000Y-117856000D03*
X103632000Y-116332000D03*
X107696000Y-115824000D03*
X103124000Y-112776000D03*
X105664000Y-111252000D03*
X103632000Y-109728000D03*
X106172000Y-109728000D03*
X103124000Y-108204000D03*
X105156000Y-106680000D03*
X109220000Y-106172000D03*
X107696000Y-109220000D03*
X108204000Y-112268000D03*
X111760000Y-112268000D03*
X113792000Y-110236000D03*
X114300000Y-107188000D03*
X171704000Y-103632000D03*
X172212000Y-102108000D03*
X170688000Y-101092000D03*
X169672000Y-101600000D03*
X165608000Y-101092000D03*
X169164000Y-99517190D03*
X166624000Y-99110810D03*
X168656000Y-97586810D03*
X165608000Y-97586810D03*
X166624000Y-94488000D03*
X169672000Y-95504000D03*
X171196000Y-93472000D03*
X173736000Y-89916000D03*
X169672000Y-88900000D03*
X165608000Y-89916000D03*
X167132000Y-86868000D03*
X163576000Y-88900000D03*
X162052000Y-91948000D03*
X162052000Y-94996000D03*
X158496000Y-94996000D03*
X159004000Y-91948000D03*
X160020000Y-88392000D03*
X155956000Y-87376000D03*
X153416000Y-87376000D03*
X149352000Y-85344000D03*
X145796000Y-86868000D03*
X200152000Y-96012000D03*
X197104000Y-95504000D03*
X200152000Y-93472000D03*
X198120000Y-92456000D03*
X200660000Y-89408000D03*
X196088000Y-89916000D03*
X197104000Y-87376000D03*
X192024000Y-88392000D03*
X193548000Y-86360000D03*
X189484000Y-86360000D03*
X189484000Y-80772000D03*
X185420000Y-85852000D03*
X184912000Y-80264000D03*
X182372000Y-85852000D03*
X181864000Y-80772000D03*
X177800000Y-85344000D03*
X178308000Y-80772000D03*
X175260000Y-87376000D03*
X174752000Y-83820000D03*
X173228000Y-80772000D03*
X172720000Y-83312000D03*
X169672000Y-84328000D03*
X171704000Y-87884000D03*
X166624000Y-81788000D03*
X165100000Y-83820000D03*
X164084000Y-79756000D03*
X162560000Y-85852000D03*
X161036000Y-80264000D03*
X158496000Y-84836000D03*
X157988000Y-80264000D03*
X153416000Y-83820000D03*
X153416000Y-79248000D03*
X149860000Y-82804000D03*
X148844000Y-78232000D03*
X146304000Y-83312000D03*
X143764000Y-79248000D03*
X142240000Y-85852000D03*
X141224000Y-82804000D03*
X137668000Y-85852000D03*
X138684000Y-78740000D03*
X136652000Y-82804000D03*
X135128000Y-84836000D03*
X133604000Y-87376000D03*
X131572000Y-87376000D03*
X132588000Y-83312000D03*
X131064000Y-84836000D03*
X128524000Y-80264000D03*
X128524000Y-87376000D03*
X125476000Y-87376000D03*
X125984000Y-84836000D03*
X124460000Y-79756000D03*
X121412000Y-81280000D03*
X119380000Y-78740000D03*
X116332000Y-81280000D03*
X114300000Y-78740000D03*
X112268000Y-81280000D03*
X121412000Y-91440000D03*
X121920000Y-87884000D03*
X119380000Y-88392000D03*
X118872000Y-92456000D03*
X118872000Y-97536000D03*
X115824000Y-97028000D03*
X112776000Y-93472000D03*
X110744000Y-90424000D03*
X107696000Y-87884000D03*
X105156000Y-89916000D03*
X108204000Y-93980000D03*
X110744000Y-96012000D03*
X108712000Y-99568000D03*
X104648000Y-94996000D03*
X185420000Y-104648000D03*
X175768000Y-104648000D03*
X167640000Y-104140000D03*
X153416000Y-108712000D03*
X156464000Y-108712000D03*
X155956000Y-103581190D03*
X148336000Y-104140000D03*
X128862754Y-98721246D03*
X130983754Y-100842236D03*
X112776000Y-98044000D03*
X116332000Y-99568000D03*
X116332000Y-106172000D03*
X118872000Y-108204000D03*
X155448000Y-95504000D03*
X154432000Y-95504000D03*
X152400000Y-95504000D03*
X150876000Y-95504000D03*
X140208000Y-96520000D03*
X143764000Y-95580842D03*
X145300006Y-99521084D03*
X141224000Y-99385028D03*
X137160000Y-108204000D03*
X138176000Y-110744000D03*
X198628000Y-105156000D03*
X198120000Y-98044000D03*
X179832000Y-92456000D03*
X189992000Y-93980000D03*
X115824000Y-103124000D03*
X123444000Y-96520000D03*
X120904000Y-103124000D03*
X121412000Y-105664000D03*
X122428000Y-107696000D03*
X123444000Y-108712000D03*
X124968000Y-108712000D03*
X144272000Y-97586810D03*
X141224000Y-97993190D03*
X132588000Y-112776000D03*
X127508000Y-114300000D03*
X165100000Y-104140000D03*
X153924000Y-104648000D03*
X170688000Y-106680000D03*
X139192000Y-110744000D03*
X175260000Y-102158820D03*
X143800464Y-103663866D03*
X179324000Y-97028000D03*
X122936000Y-100076000D03*
X122936000Y-102616000D03*
X124968000Y-100076000D03*
X123952000Y-102108000D03*
X131064000Y-101600000D03*
X132051892Y-101120108D03*
X136194820Y-104896111D03*
X164084000Y-108204000D03*
X131571313Y-99618820D03*
X134620000Y-97028000D03*
X129032000Y-94996000D03*
X131572000Y-94945180D03*
X134410062Y-94523319D03*
X135584000Y-90011000D03*
X136144000Y-94996000D03*
X137160000Y-92964000D03*
X137160000Y-94996000D03*
X139700000Y-92964000D03*
X139700000Y-94996000D03*
X141732000Y-94996000D03*
X144780000Y-94437180D03*
X148336000Y-94996000D03*
X149860000Y-96469180D03*
X144463955Y-101182335D03*
X149352000Y-100634810D03*
X151892000Y-92964000D03*
X153126438Y-96469180D03*
X143261339Y-102407751D03*
X153893183Y-101549190D03*
X154432000Y-92964000D03*
X143221258Y-103168708D03*
X154432000Y-102108000D03*
X136857277Y-105272692D03*
X164084000Y-106680000D03*
X188968852Y-100985227D03*
X137876614Y-100490239D03*
X189247293Y-101748859D03*
X138684007Y-100584007D03*
X140208000Y-108762810D03*
X172720000Y-112268000D03*
X131064000Y-103124000D03*
X106172000Y-104140000D03*
X128524000Y-109728000D03*
X132597597Y-105901119D03*
X132311765Y-104283217D03*
X130811231Y-104604480D03*
X131572000Y-104648000D03*
X131572000Y-107188000D03*
X134859196Y-105651053D03*
X135128000Y-103632000D03*
X135128000Y-102616000D03*
X134162810Y-108204000D03*
X128016000Y-102616000D03*
X129587352Y-111940639D03*
X137668000Y-103632000D03*
X138176000Y-105664000D03*
X184912000Y-100584000D03*
X140238824Y-104109176D03*
X139192000Y-105664000D03*
X184920838Y-101919549D03*
X138831351Y-108236380D03*
X173736000Y-122428000D03*
X139192000Y-96520000D03*
X145796000Y-120396000D03*
X140208000Y-100584000D03*
X150876000Y-119888000D03*
D23*
X132080000Y-111760000D02*
X130860799Y-112979201D01*
X132080000Y-111252000D02*
X132080000Y-111760000D01*
X130860799Y-112979201D02*
X130556000Y-113284000D01*
X133096000Y-116332000D02*
X132080000Y-115316000D01*
X162052000Y-108712000D02*
X156464000Y-108712000D01*
X163068000Y-104698810D02*
X161036000Y-104698810D01*
X162052000Y-103581190D02*
X160528000Y-103581190D01*
X158496000Y-101092000D02*
X161544000Y-101092000D01*
X161544000Y-101092000D02*
X162052000Y-101600000D01*
X161544000Y-97993190D02*
X161137620Y-97586810D01*
X161137620Y-97586810D02*
X158496000Y-97586810D01*
X194564000Y-99568000D02*
X196596000Y-99568000D01*
X196596000Y-99568000D02*
X198120000Y-98044000D01*
X194564000Y-101600000D02*
X194564000Y-101092000D01*
X194564000Y-101092000D02*
X192532000Y-99060000D01*
X196596000Y-103632000D02*
X194564000Y-101600000D01*
X195072000Y-107696000D02*
X196596000Y-106172000D01*
X196596000Y-106172000D02*
X198120000Y-106172000D01*
X199136000Y-116840000D02*
X199136000Y-109728000D01*
X195072000Y-116840000D02*
X195072000Y-115824000D01*
X195072000Y-115824000D02*
X197612000Y-113284000D01*
X184404000Y-105664000D02*
X184404000Y-106172000D01*
X184404000Y-106172000D02*
X192024000Y-113792000D01*
X184912000Y-109728000D02*
X186436000Y-108204000D01*
X186436000Y-108204000D02*
X187452000Y-108204000D01*
X182880000Y-113792000D02*
X179832000Y-110744000D01*
X188976000Y-117856000D02*
X188976000Y-112776000D01*
X182880000Y-117348000D02*
X185928000Y-120396000D01*
X185928000Y-120396000D02*
X186436000Y-120396000D01*
X179832000Y-117856000D02*
X179832000Y-119888000D01*
X179832000Y-119888000D02*
X181356000Y-121412000D01*
X171704000Y-127000000D02*
X175260000Y-123444000D01*
X175260000Y-123444000D02*
X175260000Y-119380000D01*
X158496000Y-125476000D02*
X166116000Y-125476000D01*
X166116000Y-125476000D02*
X167132000Y-126492000D01*
X155956000Y-126492000D02*
X154940000Y-126492000D01*
X154940000Y-126492000D02*
X152908000Y-124460000D01*
X164084000Y-122428000D02*
X163576000Y-122428000D01*
X163576000Y-122428000D02*
X160528000Y-125476000D01*
X166624000Y-123444000D02*
X164084000Y-125984000D01*
X166624000Y-116840000D02*
X169164000Y-119380000D01*
X169164000Y-119380000D02*
X169164000Y-120904000D01*
X168656000Y-113284000D02*
X169164000Y-113792000D01*
X169164000Y-113792000D02*
X169164000Y-115316000D01*
X161036000Y-115824000D02*
X165100000Y-115824000D01*
X165100000Y-115824000D02*
X165608000Y-116332000D01*
X161544000Y-113284000D02*
X159004000Y-113284000D01*
X159004000Y-113284000D02*
X156972000Y-115316000D01*
X152908000Y-116840000D02*
X153416000Y-116840000D01*
X153416000Y-116840000D02*
X156972000Y-113284000D01*
X149860000Y-113284000D02*
X151892000Y-113284000D01*
X151892000Y-113284000D02*
X152908000Y-114300000D01*
X147828000Y-115824000D02*
X147828000Y-119888000D01*
X147828000Y-119888000D02*
X149352000Y-121412000D01*
X141224000Y-116332000D02*
X143256000Y-118364000D01*
X133096000Y-116332000D02*
X134112000Y-116332000D01*
X134112000Y-116332000D02*
X135128000Y-117348000D01*
X139192000Y-123444000D02*
X139192000Y-122428000D01*
X139192000Y-122428000D02*
X136144000Y-119380000D01*
X132080000Y-127000000D02*
X136144000Y-127000000D01*
X136144000Y-127000000D02*
X136652000Y-126492000D01*
X131064000Y-121920000D02*
X131064000Y-122936000D01*
X131064000Y-122936000D02*
X129032000Y-124968000D01*
X129032000Y-120396000D02*
X129032000Y-120904000D01*
X129032000Y-120904000D02*
X126492000Y-123444000D01*
X129032000Y-117856000D02*
X124968000Y-121920000D01*
X125476000Y-115316000D02*
X125476000Y-117856000D01*
X123444000Y-118364000D02*
X123444000Y-114808000D01*
X121412000Y-120904000D02*
X121412000Y-122428000D01*
X121412000Y-122428000D02*
X123444000Y-124460000D01*
X119888000Y-124460000D02*
X121412000Y-125984000D01*
X121412000Y-125984000D02*
X121412000Y-126492000D01*
X117348000Y-122936000D02*
X118872000Y-121412000D01*
X118872000Y-121412000D02*
X118872000Y-120904000D01*
X114808000Y-122936000D02*
X115316000Y-122936000D01*
X115316000Y-122936000D02*
X118364000Y-125984000D01*
X113792000Y-124968000D02*
X115824000Y-127000000D01*
X112776000Y-122428000D02*
X112776000Y-124968000D01*
X112776000Y-124968000D02*
X111252000Y-126492000D01*
X111760000Y-120396000D02*
X115316000Y-120396000D01*
X114300000Y-113792000D02*
X114300000Y-118364000D01*
X111252000Y-114808000D02*
X111252000Y-117348000D01*
X103632000Y-116332000D02*
X107188000Y-116332000D01*
X107188000Y-116332000D02*
X108712000Y-117856000D01*
X103124000Y-112776000D02*
X104648000Y-112776000D01*
X104648000Y-112776000D02*
X107696000Y-115824000D01*
X103632000Y-109728000D02*
X104140000Y-109728000D01*
X104140000Y-109728000D02*
X105664000Y-111252000D01*
X103124000Y-108204000D02*
X104648000Y-108204000D01*
X104648000Y-108204000D02*
X106172000Y-109728000D01*
X109220000Y-106172000D02*
X108712000Y-106680000D01*
X108712000Y-106680000D02*
X105156000Y-106680000D01*
X108204000Y-112268000D02*
X108204000Y-109728000D01*
X108204000Y-109728000D02*
X107696000Y-109220000D01*
X113792000Y-110236000D02*
X111760000Y-112268000D01*
X116332000Y-106172000D02*
X115316000Y-106172000D01*
X115316000Y-106172000D02*
X114300000Y-107188000D01*
X171704000Y-103632000D02*
X172101001Y-103234999D01*
X172101001Y-103234999D02*
X174354999Y-103234999D01*
X170688000Y-101092000D02*
X171196000Y-101092000D01*
X171196000Y-101092000D02*
X172212000Y-102108000D01*
X165608000Y-101092000D02*
X166116000Y-101600000D01*
X166116000Y-101600000D02*
X169672000Y-101600000D01*
X166624000Y-99110810D02*
X167030380Y-99517190D01*
X167030380Y-99517190D02*
X169164000Y-99517190D01*
X165608000Y-97586810D02*
X168656000Y-97586810D01*
X169672000Y-95504000D02*
X167640000Y-95504000D01*
X167640000Y-95504000D02*
X166624000Y-94488000D01*
X173736000Y-89916000D02*
X171196000Y-92456000D01*
X171196000Y-92456000D02*
X171196000Y-93472000D01*
X165608000Y-89916000D02*
X166624000Y-88900000D01*
X166624000Y-88900000D02*
X169672000Y-88900000D01*
X163576000Y-88900000D02*
X165608000Y-86868000D01*
X165608000Y-86868000D02*
X167132000Y-86868000D01*
X162052000Y-94996000D02*
X162052000Y-91948000D01*
X159004000Y-91948000D02*
X159004000Y-94488000D01*
X159004000Y-94488000D02*
X158496000Y-94996000D01*
X155956000Y-87376000D02*
X159004000Y-87376000D01*
X159004000Y-87376000D02*
X160020000Y-88392000D01*
X149352000Y-85344000D02*
X151384000Y-85344000D01*
X151384000Y-85344000D02*
X153416000Y-87376000D01*
X146304000Y-83312000D02*
X146304000Y-86360000D01*
X146304000Y-86360000D02*
X145796000Y-86868000D01*
X200152000Y-96012000D02*
X198120000Y-98044000D01*
X200152000Y-93472000D02*
X199136000Y-93472000D01*
X199136000Y-93472000D02*
X197104000Y-95504000D01*
X200660000Y-89408000D02*
X200660000Y-89916000D01*
X200660000Y-89916000D02*
X198120000Y-92456000D01*
X197104000Y-87376000D02*
X197104000Y-88900000D01*
X197104000Y-88900000D02*
X196088000Y-89916000D01*
X193548000Y-86360000D02*
X193548000Y-86868000D01*
X193548000Y-86868000D02*
X192024000Y-88392000D01*
X189484000Y-80772000D02*
X189484000Y-86360000D01*
X185420000Y-80772000D02*
X185420000Y-85852000D01*
X184912000Y-80264000D02*
X185420000Y-80772000D01*
X181864000Y-80772000D02*
X182372000Y-81280000D01*
X182372000Y-81280000D02*
X182372000Y-85852000D01*
X178308000Y-80772000D02*
X177800000Y-81280000D01*
X177800000Y-81280000D02*
X177800000Y-85344000D01*
X174752000Y-83820000D02*
X175260000Y-84328000D01*
X175260000Y-84328000D02*
X175260000Y-87376000D01*
X172720000Y-83312000D02*
X172720000Y-81280000D01*
X172720000Y-81280000D02*
X173228000Y-80772000D01*
X168148000Y-84328000D02*
X169672000Y-84328000D01*
X171704000Y-87884000D02*
X168148000Y-84328000D01*
X165100000Y-83820000D02*
X165100000Y-83312000D01*
X165100000Y-83312000D02*
X166624000Y-81788000D01*
X162560000Y-85852000D02*
X162560000Y-81280000D01*
X162560000Y-81280000D02*
X164084000Y-79756000D01*
X158496000Y-84836000D02*
X158496000Y-82804000D01*
X158496000Y-82804000D02*
X161036000Y-80264000D01*
X153416000Y-83820000D02*
X154432000Y-83820000D01*
X154432000Y-83820000D02*
X157988000Y-80264000D01*
X149860000Y-82804000D02*
X153416000Y-79248000D01*
X146304000Y-83312000D02*
X146304000Y-80772000D01*
X146304000Y-80772000D02*
X148844000Y-78232000D01*
X142240000Y-85852000D02*
X142240000Y-80772000D01*
X142240000Y-80772000D02*
X143764000Y-79248000D01*
X137668000Y-85852000D02*
X138176000Y-85852000D01*
X138176000Y-85852000D02*
X141224000Y-82804000D01*
X136652000Y-82804000D02*
X136652000Y-80772000D01*
X136652000Y-80772000D02*
X138684000Y-78740000D01*
X133604000Y-87376000D02*
X133604000Y-86360000D01*
X133604000Y-86360000D02*
X135128000Y-84836000D01*
X132588000Y-83312000D02*
X131572000Y-84328000D01*
X131572000Y-84328000D02*
X131572000Y-87376000D01*
X128524000Y-80264000D02*
X128524000Y-82296000D01*
X128524000Y-82296000D02*
X131064000Y-84836000D01*
X125476000Y-87376000D02*
X128524000Y-87376000D01*
X124460000Y-79756000D02*
X125984000Y-81280000D01*
X125984000Y-81280000D02*
X125984000Y-84836000D01*
X119380000Y-78740000D02*
X119380000Y-79248000D01*
X119380000Y-79248000D02*
X121412000Y-81280000D01*
X114300000Y-78740000D02*
X114300000Y-79248000D01*
X114300000Y-79248000D02*
X116332000Y-81280000D01*
X121920000Y-87884000D02*
X118872000Y-87884000D01*
X118872000Y-87884000D02*
X112268000Y-81280000D01*
X119380000Y-88392000D02*
X119888000Y-87884000D01*
X119888000Y-87884000D02*
X121920000Y-87884000D01*
X118872000Y-97536000D02*
X118872000Y-92456000D01*
X112776000Y-93472000D02*
X115824000Y-96520000D01*
X115824000Y-96520000D02*
X115824000Y-97028000D01*
X107696000Y-87884000D02*
X110236000Y-90424000D01*
X110236000Y-90424000D02*
X110744000Y-90424000D01*
X108204000Y-93980000D02*
X105156000Y-90932000D01*
X105156000Y-90932000D02*
X105156000Y-89916000D01*
X108712000Y-99568000D02*
X108712000Y-98044000D01*
X108712000Y-98044000D02*
X110744000Y-96012000D01*
X103854000Y-99171000D02*
X103854000Y-95790000D01*
X103854000Y-95790000D02*
X104648000Y-94996000D01*
X178308000Y-105156000D02*
X184912000Y-105156000D01*
X184912000Y-105156000D02*
X185420000Y-104648000D01*
X174752000Y-103632000D02*
X175768000Y-104648000D01*
X167640000Y-104140000D02*
X168545001Y-103234999D01*
X168545001Y-103234999D02*
X174354999Y-103234999D01*
X174354999Y-103234999D02*
X174752000Y-103632000D01*
X156464000Y-108712000D02*
X153416000Y-108712000D01*
X148336000Y-104140000D02*
X148894810Y-103581190D01*
X148894810Y-103581190D02*
X155956000Y-103581190D01*
X130983754Y-100842236D02*
X128862764Y-98721246D01*
X128862764Y-98721246D02*
X128862754Y-98721246D01*
X116332000Y-99568000D02*
X114808000Y-98044000D01*
X114808000Y-98044000D02*
X112776000Y-98044000D01*
X118872000Y-108204000D02*
X116840000Y-106172000D01*
X116840000Y-106172000D02*
X116332000Y-106172000D01*
X154432000Y-95504000D02*
X155448000Y-95504000D01*
X150876000Y-95504000D02*
X152400000Y-95504000D01*
X143764000Y-95580842D02*
X142824842Y-96520000D01*
X142824842Y-96520000D02*
X140208000Y-96520000D01*
X141224000Y-99385028D02*
X145163950Y-99385028D01*
X145163950Y-99385028D02*
X145300006Y-99521084D01*
X138176000Y-110744000D02*
X137160000Y-109728000D01*
X137160000Y-109728000D02*
X137160000Y-108204000D01*
X198120000Y-98044000D02*
X198120000Y-104648000D01*
X198120000Y-104648000D02*
X198628000Y-105156000D01*
X179832000Y-92456000D02*
X181002000Y-92456000D01*
X181002000Y-92456000D02*
X181220000Y-92238000D01*
X189620000Y-92238000D02*
X181220000Y-92238000D01*
X189992000Y-93980000D02*
X189992000Y-92610000D01*
X189992000Y-92610000D02*
X189620000Y-92238000D01*
X115824000Y-103124000D02*
X120904000Y-103124000D01*
X120904000Y-103124000D02*
X120599201Y-102819201D01*
X120599201Y-102819201D02*
X120599201Y-99364799D01*
X120599201Y-99364799D02*
X122293381Y-97670619D01*
X122293381Y-97670619D02*
X123444000Y-96520000D01*
X122428000Y-107696000D02*
X122428000Y-106680000D01*
X122428000Y-106680000D02*
X121412000Y-105664000D01*
X123444000Y-108712000D02*
X122428000Y-107696000D01*
X127508000Y-114300000D02*
X127508000Y-111252000D01*
X127508000Y-111252000D02*
X124968000Y-108712000D01*
X141224000Y-97993190D02*
X141630380Y-97586810D01*
X141630380Y-97586810D02*
X144272000Y-97586810D01*
X138938000Y-125730000D02*
X129540000Y-116332000D01*
X129540000Y-116332000D02*
X127508000Y-114300000D01*
X132588000Y-112776000D02*
X129540000Y-115824000D01*
X129540000Y-115824000D02*
X129540000Y-116332000D01*
X143510000Y-125730000D02*
X138938000Y-125730000D01*
X153924000Y-104648000D02*
X154432000Y-104140000D01*
X154432000Y-104140000D02*
X165100000Y-104140000D01*
X170688000Y-106680000D02*
X173433000Y-109425000D01*
X173433000Y-109425000D02*
X174625000Y-109425000D01*
X139065000Y-114300000D02*
X139065000Y-110871000D01*
X139065000Y-110871000D02*
X139192000Y-110744000D01*
X144737329Y-102727001D02*
X174691819Y-102727001D01*
X174691819Y-102727001D02*
X174955201Y-102463619D01*
X174955201Y-102463619D02*
X175260000Y-102158820D01*
X143800464Y-103663866D02*
X144737329Y-102727001D01*
X189620000Y-96738000D02*
X188616800Y-96738000D01*
X188616800Y-96738000D02*
X181220000Y-96738000D01*
X179324000Y-97028000D02*
X180930000Y-97028000D01*
X180930000Y-97028000D02*
X181220000Y-96738000D01*
X122936000Y-102616000D02*
X122936000Y-100076000D01*
X123952000Y-102108000D02*
X123952000Y-101092000D01*
X123952000Y-101092000D02*
X124968000Y-100076000D01*
X131064000Y-101600000D02*
X130429318Y-101600000D01*
X130429318Y-101600000D02*
X119602317Y-90772999D01*
X119602317Y-90772999D02*
X118565999Y-90772999D01*
X118565999Y-90772999D02*
X117804000Y-90011000D01*
X132051892Y-101120108D02*
X120942784Y-90011000D01*
X120942784Y-90011000D02*
X120344000Y-90011000D01*
X163525187Y-107645187D02*
X138176007Y-107645187D01*
X164084000Y-108204000D02*
X163525187Y-107645187D01*
X138176007Y-107645187D02*
X136194820Y-105664000D01*
X136194820Y-105664000D02*
X136194820Y-105327163D01*
X136194820Y-105327163D02*
X136194820Y-104896111D01*
X123645999Y-91693506D02*
X131571313Y-99618820D01*
X122884000Y-90011000D02*
X123645999Y-90772999D01*
X123645999Y-90772999D02*
X123645999Y-91693506D01*
X134620000Y-97028000D02*
X134315201Y-97332799D01*
X134315201Y-97332799D02*
X130241037Y-97332799D01*
X130241037Y-97332799D02*
X125424000Y-92515762D01*
X125424000Y-92515762D02*
X125424000Y-91088630D01*
X125424000Y-91088630D02*
X125424000Y-90011000D01*
X129032000Y-94996000D02*
X127964000Y-93928000D01*
X127964000Y-93928000D02*
X127964000Y-90011000D01*
X131572000Y-94514128D02*
X131572000Y-94945180D01*
X130504000Y-90011000D02*
X131572000Y-91079000D01*
X131572000Y-91079000D02*
X131572000Y-94514128D01*
X134105263Y-94218520D02*
X134410062Y-94523319D01*
X133044000Y-90011000D02*
X133044000Y-93157257D01*
X133044000Y-93157257D02*
X134105263Y-94218520D01*
X136144000Y-94996000D02*
X136144000Y-90571000D01*
X136144000Y-90571000D02*
X135584000Y-90011000D01*
X137160000Y-94996000D02*
X137160000Y-92964000D01*
X139700000Y-94996000D02*
X139700000Y-92964000D01*
X141732000Y-94996000D02*
X143204000Y-93524000D01*
X143204000Y-93524000D02*
X143204000Y-90011000D01*
X145744000Y-90011000D02*
X144780000Y-90975000D01*
X144780000Y-90975000D02*
X144780000Y-94006128D01*
X144780000Y-94006128D02*
X144780000Y-94437180D01*
X148284000Y-94944000D02*
X148336000Y-94996000D01*
X148284000Y-90011000D02*
X148284000Y-94944000D01*
X149860000Y-96038128D02*
X149860000Y-96469180D01*
X151892000Y-92964000D02*
X149860000Y-94996000D01*
X149860000Y-94996000D02*
X149860000Y-96038128D01*
X145011480Y-100634810D02*
X144768754Y-100877536D01*
X149352000Y-100634810D02*
X145011480Y-100634810D01*
X144768754Y-100877536D02*
X144463955Y-101182335D01*
X153126438Y-96038128D02*
X153126438Y-96469180D01*
X154432000Y-92964000D02*
X153126438Y-94269562D01*
X153126438Y-94269562D02*
X153126438Y-96038128D01*
X153893183Y-101549190D02*
X153462131Y-101549190D01*
X143927953Y-101741137D02*
X143566138Y-102102952D01*
X153270184Y-101741137D02*
X143927953Y-101741137D01*
X143566138Y-102102952D02*
X143261339Y-102407751D01*
X153462131Y-101549190D02*
X153270184Y-101741137D01*
X143327410Y-103168708D02*
X143221258Y-103168708D01*
X154432000Y-102108000D02*
X144388118Y-102108000D01*
X144388118Y-102108000D02*
X143327410Y-103168708D01*
X137162076Y-105577491D02*
X136857277Y-105272692D01*
X164084000Y-106680000D02*
X138264585Y-106680000D01*
X138264585Y-106680000D02*
X137162076Y-105577491D01*
X137876614Y-100490239D02*
X141338853Y-97028000D01*
X188664053Y-100680428D02*
X188968852Y-100985227D01*
X141338853Y-97028000D02*
X174045832Y-97028000D01*
X174045832Y-97028000D02*
X174252323Y-97234491D01*
X174252323Y-97234491D02*
X175455677Y-97234491D01*
X175455677Y-97234491D02*
X176265186Y-98044000D01*
X176265186Y-98044000D02*
X186027625Y-98044000D01*
X186027625Y-98044000D02*
X188664053Y-100680428D01*
X174531347Y-98399611D02*
X185466993Y-98399611D01*
X188816241Y-101748859D02*
X189247293Y-101748859D01*
X138684007Y-100584007D02*
X140716014Y-98552000D01*
X140716014Y-98552000D02*
X174378958Y-98552000D01*
X174378958Y-98552000D02*
X174531347Y-98399611D01*
X185466993Y-98399611D02*
X188816241Y-101748859D01*
X138684000Y-100584014D02*
X138684007Y-100584007D01*
X172720000Y-112268000D02*
X170180000Y-109728000D01*
X170180000Y-109728000D02*
X141173190Y-109728000D01*
X141173190Y-109728000D02*
X140208000Y-108762810D01*
X130759201Y-102819201D02*
X131064000Y-103124000D01*
X129743201Y-101803201D02*
X130759201Y-102819201D01*
X125272799Y-101803201D02*
X129743201Y-101803201D01*
X122936000Y-104140000D02*
X125272799Y-101803201D01*
X106172000Y-104140000D02*
X122936000Y-104140000D01*
X132597597Y-105901119D02*
X132597597Y-106989429D01*
X132597597Y-106989429D02*
X129859026Y-109728000D01*
X129859026Y-109728000D02*
X128524000Y-109728000D01*
X132006966Y-103978418D02*
X132311765Y-104283217D01*
X131437293Y-103978418D02*
X132006966Y-103978418D01*
X130811231Y-104604480D02*
X131437293Y-103978418D01*
X131572000Y-107188000D02*
X131572000Y-104648000D01*
X135128000Y-103632000D02*
X135128000Y-105382249D01*
X135128000Y-105382249D02*
X134859196Y-105651053D01*
X134823201Y-102920799D02*
X135128000Y-102616000D01*
X134162810Y-103581190D02*
X134823201Y-102920799D01*
X134162810Y-108204000D02*
X134162810Y-103581190D01*
X129587352Y-111940639D02*
X127965199Y-110318486D01*
X127965199Y-110318486D02*
X127965199Y-102666801D01*
X127965199Y-102666801D02*
X128016000Y-102616000D01*
X133096000Y-96520000D02*
X130556000Y-96520000D01*
X138176000Y-105664000D02*
X138176000Y-104140000D01*
X138176000Y-104140000D02*
X137668000Y-103632000D01*
X184607201Y-100279201D02*
X184912000Y-100584000D01*
X183083222Y-98755222D02*
X184607201Y-100279201D01*
X175970590Y-98755222D02*
X183083222Y-98755222D01*
X174649812Y-100076000D02*
X175970590Y-98755222D01*
X145572116Y-100076000D02*
X174649812Y-100076000D01*
X140238824Y-104109176D02*
X144268115Y-100079885D01*
X144268115Y-100079885D02*
X145568231Y-100079885D01*
X145568231Y-100079885D02*
X145572116Y-100076000D01*
X139623052Y-105664000D02*
X139192000Y-105664000D01*
X184920838Y-101919549D02*
X183157577Y-103682810D01*
X177528293Y-103682810D02*
X175547103Y-105664000D01*
X183157577Y-103682810D02*
X177528293Y-103682810D01*
X175547103Y-105664000D02*
X139623052Y-105664000D01*
X139136150Y-108541179D02*
X138831351Y-108236380D01*
X163068000Y-111760000D02*
X142354971Y-111760000D01*
X142354971Y-111760000D02*
X139136150Y-108541179D01*
X173736000Y-122428000D02*
X163068000Y-111760000D01*
X145796000Y-120396000D02*
X141224000Y-120396000D01*
X141224000Y-120396000D02*
X133604000Y-112776000D01*
X133604000Y-112776000D02*
X133604000Y-102108000D01*
X133604000Y-102108000D02*
X139192000Y-96520000D01*
X150876000Y-119888000D02*
X151180799Y-119583201D01*
X135636000Y-105868055D02*
X135636000Y-104328974D01*
X151180799Y-119583201D02*
X151180799Y-116636799D01*
X151180799Y-116636799D02*
X147320000Y-112776000D01*
X147320000Y-112776000D02*
X142543945Y-112776000D01*
X142543945Y-112776000D02*
X135636000Y-105868055D01*
X135636000Y-104328974D02*
X137600428Y-102364546D01*
X137600428Y-102364546D02*
X138427454Y-102364546D01*
X138427454Y-102364546D02*
X140208000Y-100584000D01*
D24*
G36*
X123252064Y-78319017D02*
X123304207Y-78581155D01*
X123452696Y-78803385D01*
X123674926Y-78951874D01*
X123937064Y-79004017D01*
X125757177Y-79004017D01*
X126019315Y-78951874D01*
X126241545Y-78803385D01*
X126390034Y-78581155D01*
X126442177Y-78319017D01*
X126442177Y-77786934D01*
X126653615Y-77786934D01*
X126653615Y-78319017D01*
X126705758Y-78581155D01*
X126854247Y-78803385D01*
X127076477Y-78951874D01*
X127338615Y-79004017D01*
X129159279Y-79004017D01*
X129421417Y-78951874D01*
X129643647Y-78803385D01*
X129792136Y-78581155D01*
X129844279Y-78319017D01*
X129844279Y-77786934D01*
X173657946Y-77786934D01*
X173657946Y-78319017D01*
X173710089Y-78581155D01*
X173858578Y-78803385D01*
X174080808Y-78951874D01*
X174342946Y-79004017D01*
X176163059Y-79004017D01*
X176425197Y-78951874D01*
X176647427Y-78803385D01*
X176795916Y-78581155D01*
X176848059Y-78319017D01*
X176848059Y-77786934D01*
X177059495Y-77786934D01*
X177059495Y-78319017D01*
X177111638Y-78581155D01*
X177260127Y-78803385D01*
X177482357Y-78951874D01*
X177744495Y-79004017D01*
X179565161Y-79004017D01*
X179827299Y-78951874D01*
X180049529Y-78803385D01*
X180198018Y-78581155D01*
X180250161Y-78319017D01*
X180250161Y-77786934D01*
X192838584Y-77786934D01*
X192838584Y-83658088D01*
X192846107Y-83695906D01*
X192842840Y-83734324D01*
X192881606Y-84080481D01*
X192904593Y-84152769D01*
X192914899Y-84227924D01*
X193026143Y-84549926D01*
X193062795Y-84612625D01*
X193087551Y-84680900D01*
X193263691Y-84971960D01*
X193310126Y-85022758D01*
X193345995Y-85081497D01*
X193579448Y-85334842D01*
X193632446Y-85373474D01*
X193676616Y-85421946D01*
X193959804Y-85630794D01*
X194017205Y-85657754D01*
X194067788Y-85695999D01*
X194393125Y-85853569D01*
X194453459Y-85869276D01*
X194509159Y-85897298D01*
X194869064Y-85996812D01*
X194930936Y-86001362D01*
X194990460Y-86018850D01*
X195377350Y-86053529D01*
X195408136Y-86050224D01*
X195438507Y-86056265D01*
X201615000Y-86056265D01*
X201615000Y-95000000D01*
X201667143Y-95262138D01*
X201815632Y-95484368D01*
X202037862Y-95632857D01*
X202184000Y-95661926D01*
X202184000Y-109238074D01*
X202037862Y-109267143D01*
X201815632Y-109415632D01*
X201667143Y-109637862D01*
X201615000Y-109900000D01*
X201615000Y-118905709D01*
X195438507Y-118905709D01*
X195408119Y-118911754D01*
X195377312Y-118908448D01*
X194990422Y-118943150D01*
X194930865Y-118960651D01*
X194868956Y-118965214D01*
X194509052Y-119064791D01*
X194453342Y-119092829D01*
X194392987Y-119108556D01*
X194067650Y-119266216D01*
X194017069Y-119304477D01*
X193959677Y-119331449D01*
X193676488Y-119540398D01*
X193632334Y-119588874D01*
X193579355Y-119627509D01*
X193345901Y-119880956D01*
X193310054Y-119939686D01*
X193263642Y-119990473D01*
X193087502Y-120281624D01*
X193062764Y-120349876D01*
X193026130Y-120412553D01*
X192914887Y-120734613D01*
X192904587Y-120809749D01*
X192881605Y-120882025D01*
X192842839Y-121228208D01*
X192846106Y-121266624D01*
X192838584Y-121304439D01*
X192838584Y-127365210D01*
X180250161Y-127365210D01*
X180250161Y-126688158D01*
X180198018Y-126426020D01*
X180049529Y-126203790D01*
X179827299Y-126055301D01*
X179565161Y-126003158D01*
X177744495Y-126003158D01*
X177482357Y-126055301D01*
X177260127Y-126203790D01*
X177111638Y-126426020D01*
X177059495Y-126688158D01*
X177059495Y-127365210D01*
X176848059Y-127365210D01*
X176848059Y-126688158D01*
X176795916Y-126426020D01*
X176647427Y-126203790D01*
X176425197Y-126055301D01*
X176163059Y-126003158D01*
X174342946Y-126003158D01*
X174080808Y-126055301D01*
X173858578Y-126203790D01*
X173710089Y-126426020D01*
X173657946Y-126688158D01*
X173657946Y-127365210D01*
X151705402Y-127365210D01*
X152117828Y-127089635D01*
X152420660Y-126636416D01*
X152527000Y-126101807D01*
X152527000Y-125358193D01*
X152420660Y-124823584D01*
X152243128Y-124557889D01*
X167889781Y-124557889D01*
X167896389Y-124626561D01*
X167889781Y-124695233D01*
X167914475Y-124940315D01*
X167934623Y-125006200D01*
X167941819Y-125074722D01*
X168012679Y-125302992D01*
X168044859Y-125362271D01*
X168064851Y-125426686D01*
X168176972Y-125633255D01*
X168219286Y-125684145D01*
X168250635Y-125742428D01*
X168399129Y-125922405D01*
X168450018Y-125963946D01*
X168491557Y-126014832D01*
X168671533Y-126163323D01*
X168729815Y-126194672D01*
X168780705Y-126236985D01*
X168987274Y-126349106D01*
X169051690Y-126369098D01*
X169110966Y-126401276D01*
X169339235Y-126472136D01*
X169407757Y-126479332D01*
X169473641Y-126499480D01*
X169718723Y-126524175D01*
X169787397Y-126517567D01*
X169856071Y-126524175D01*
X170101153Y-126499480D01*
X170167037Y-126479332D01*
X170235558Y-126472136D01*
X170463828Y-126401276D01*
X170523106Y-126369097D01*
X170587524Y-126349104D01*
X170794089Y-126236983D01*
X170844977Y-126194671D01*
X170903261Y-126163321D01*
X171083238Y-126014827D01*
X171124778Y-125963938D01*
X171175662Y-125922402D01*
X171324156Y-125742426D01*
X171355505Y-125684144D01*
X171397817Y-125633256D01*
X171509939Y-125426688D01*
X171529931Y-125362273D01*
X171562112Y-125302992D01*
X171632972Y-125074723D01*
X171640168Y-125006201D01*
X171660316Y-124940317D01*
X171685011Y-124695235D01*
X171681682Y-124660644D01*
X171688462Y-124626561D01*
X171681682Y-124592478D01*
X171685011Y-124557887D01*
X171660316Y-124312805D01*
X171640167Y-124246918D01*
X171632971Y-124178398D01*
X171562111Y-123950130D01*
X171529932Y-123890852D01*
X171509939Y-123826435D01*
X171397817Y-123619867D01*
X171355505Y-123568979D01*
X171324156Y-123510697D01*
X171318330Y-123503635D01*
X184419716Y-123503635D01*
X184668106Y-124104783D01*
X185127637Y-124565118D01*
X185728352Y-124814556D01*
X186378795Y-124815124D01*
X186979943Y-124566734D01*
X187440278Y-124107203D01*
X187689716Y-123506488D01*
X187690284Y-122856045D01*
X187441894Y-122254897D01*
X186982363Y-121794562D01*
X186381648Y-121545124D01*
X185731205Y-121544556D01*
X185130057Y-121792946D01*
X184669722Y-122252477D01*
X184420284Y-122853192D01*
X184419716Y-123503635D01*
X171318330Y-123503635D01*
X171175662Y-123330721D01*
X171124778Y-123289185D01*
X171083238Y-123238296D01*
X170903261Y-123089802D01*
X170844978Y-123058452D01*
X170794092Y-123016142D01*
X170587526Y-122904020D01*
X170523109Y-122884027D01*
X170463828Y-122851846D01*
X170235558Y-122780986D01*
X170167036Y-122773790D01*
X170101151Y-122753642D01*
X169856069Y-122728948D01*
X169787397Y-122735556D01*
X169718725Y-122728948D01*
X169473643Y-122753642D01*
X169407759Y-122773789D01*
X169339241Y-122780985D01*
X169110971Y-122851843D01*
X169051695Y-122884021D01*
X168987274Y-122904014D01*
X168780705Y-123016135D01*
X168729815Y-123058448D01*
X168671530Y-123089799D01*
X168491554Y-123238293D01*
X168450018Y-123289177D01*
X168399129Y-123330717D01*
X168250635Y-123510694D01*
X168219285Y-123568979D01*
X168176972Y-123619868D01*
X168064850Y-123826438D01*
X168044858Y-123890853D01*
X168012679Y-123950130D01*
X167941820Y-124178399D01*
X167934624Y-124246919D01*
X167914475Y-124312807D01*
X167889781Y-124557889D01*
X152243128Y-124557889D01*
X152117828Y-124370365D01*
X151664609Y-124067533D01*
X151130000Y-123961193D01*
X150595391Y-124067533D01*
X150142172Y-124370365D01*
X149851353Y-124805606D01*
X149832059Y-124740239D01*
X149488026Y-124314550D01*
X149007277Y-124052920D01*
X148933070Y-124037960D01*
X148717000Y-124160460D01*
X148717000Y-125603000D01*
X148737000Y-125603000D01*
X148737000Y-125857000D01*
X148717000Y-125857000D01*
X148717000Y-125877000D01*
X148463000Y-125877000D01*
X148463000Y-125857000D01*
X148443000Y-125857000D01*
X148443000Y-125603000D01*
X148463000Y-125603000D01*
X148463000Y-124160460D01*
X148246930Y-124037960D01*
X148172723Y-124052920D01*
X147691974Y-124314550D01*
X147347941Y-124740239D01*
X147328647Y-124805606D01*
X147037828Y-124370365D01*
X146584609Y-124067533D01*
X146050000Y-123961193D01*
X145515391Y-124067533D01*
X145062172Y-124370365D01*
X144912657Y-124594130D01*
X144875162Y-124394863D01*
X144736090Y-124178739D01*
X144523890Y-124033749D01*
X144272000Y-123982740D01*
X142748000Y-123982740D01*
X142512683Y-124027018D01*
X142296559Y-124166090D01*
X142151569Y-124378290D01*
X142100560Y-124630180D01*
X142100560Y-124993400D01*
X139243110Y-124993400D01*
X130327710Y-116078000D01*
X132689821Y-113715889D01*
X132774118Y-113715963D01*
X133119659Y-113573188D01*
X133239673Y-113453383D01*
X140703145Y-120916855D01*
X140942115Y-121076530D01*
X141224000Y-121132600D01*
X145203396Y-121132600D01*
X145262951Y-121192259D01*
X145608242Y-121335637D01*
X145982118Y-121335963D01*
X146327659Y-121193188D01*
X146592259Y-120929049D01*
X146735637Y-120583758D01*
X146735963Y-120209882D01*
X146593188Y-119864341D01*
X146329049Y-119599741D01*
X145983758Y-119456363D01*
X145609882Y-119456037D01*
X145264341Y-119598812D01*
X145203647Y-119659400D01*
X141529110Y-119659400D01*
X134340600Y-112470890D01*
X134340600Y-109143956D01*
X134348928Y-109143963D01*
X134694469Y-109001188D01*
X134959069Y-108737049D01*
X135102447Y-108391758D01*
X135102773Y-108017882D01*
X134959998Y-107672341D01*
X134899410Y-107611647D01*
X134899410Y-106590889D01*
X135045314Y-106591016D01*
X135237741Y-106511506D01*
X138669332Y-109943097D01*
X138660341Y-109946812D01*
X138395741Y-110210951D01*
X138252363Y-110556242D01*
X138252037Y-110930118D01*
X138328400Y-111114930D01*
X138328400Y-112835835D01*
X138140345Y-112913538D01*
X137680154Y-113372927D01*
X137430794Y-113973453D01*
X137430226Y-114623694D01*
X137678538Y-115224655D01*
X138137927Y-115684846D01*
X138738453Y-115934206D01*
X139388694Y-115934774D01*
X139989655Y-115686462D01*
X140449846Y-115227073D01*
X140699206Y-114626547D01*
X140699774Y-113976306D01*
X140451462Y-113375345D01*
X139992073Y-112915154D01*
X139801600Y-112836063D01*
X139801600Y-111463383D01*
X139988259Y-111277049D01*
X139992667Y-111266432D01*
X142023090Y-113296855D01*
X142262061Y-113456531D01*
X142543945Y-113512601D01*
X142543950Y-113512600D01*
X142702157Y-113512600D01*
X142510794Y-113973453D01*
X142510226Y-114623694D01*
X142758538Y-115224655D01*
X143217927Y-115684846D01*
X143818453Y-115934206D01*
X144468694Y-115934774D01*
X145069655Y-115686462D01*
X145529846Y-115227073D01*
X145779206Y-114626547D01*
X145779774Y-113976306D01*
X145588175Y-113512600D01*
X147014890Y-113512600D01*
X150444199Y-116941909D01*
X150444199Y-119049551D01*
X150344341Y-119090812D01*
X150079741Y-119354951D01*
X149936363Y-119700242D01*
X149936037Y-120074118D01*
X150078812Y-120419659D01*
X150342951Y-120684259D01*
X150688242Y-120827637D01*
X151062118Y-120827963D01*
X151407659Y-120685188D01*
X151672259Y-120421049D01*
X151815637Y-120075758D01*
X151815761Y-119933283D01*
X151861329Y-119865086D01*
X151917399Y-119583201D01*
X151917399Y-117738193D01*
X153543000Y-117738193D01*
X153543000Y-118481807D01*
X153649340Y-119016416D01*
X153952172Y-119469635D01*
X154405391Y-119772467D01*
X154940000Y-119878807D01*
X155474609Y-119772467D01*
X155927828Y-119469635D01*
X156077343Y-119245870D01*
X156114838Y-119445137D01*
X156253910Y-119661261D01*
X156466110Y-119806251D01*
X156718000Y-119857260D01*
X158242000Y-119857260D01*
X158477317Y-119812982D01*
X158693441Y-119673910D01*
X158838431Y-119461710D01*
X158889440Y-119209820D01*
X158889440Y-117010180D01*
X158845162Y-116774863D01*
X158706090Y-116558739D01*
X158493890Y-116413749D01*
X158242000Y-116362740D01*
X156718000Y-116362740D01*
X156482683Y-116407018D01*
X156266559Y-116546090D01*
X156121569Y-116758290D01*
X156077740Y-116974724D01*
X155927828Y-116750365D01*
X155474609Y-116447533D01*
X154940000Y-116341193D01*
X154405391Y-116447533D01*
X153952172Y-116750365D01*
X153649340Y-117203584D01*
X153543000Y-117738193D01*
X151917399Y-117738193D01*
X151917399Y-116636799D01*
X151861329Y-116354914D01*
X151701654Y-116115944D01*
X148082310Y-112496600D01*
X162762890Y-112496600D01*
X172796111Y-122529821D01*
X172796037Y-122614118D01*
X172938812Y-122959659D01*
X173202951Y-123224259D01*
X173548242Y-123367637D01*
X173922118Y-123367963D01*
X174267659Y-123225188D01*
X174532259Y-122961049D01*
X174675637Y-122615758D01*
X174675963Y-122241882D01*
X174533188Y-121896341D01*
X174269049Y-121631741D01*
X173923758Y-121488363D01*
X173837998Y-121488288D01*
X168253665Y-115903955D01*
X184419716Y-115903955D01*
X184668106Y-116505103D01*
X185127637Y-116965438D01*
X185728352Y-117214876D01*
X186378795Y-117215444D01*
X186979943Y-116967054D01*
X187440278Y-116507523D01*
X187689716Y-115906808D01*
X187690284Y-115256365D01*
X187441894Y-114655217D01*
X186982363Y-114194882D01*
X186381648Y-113945444D01*
X185731205Y-113944876D01*
X185130057Y-114193266D01*
X184669722Y-114652797D01*
X184420284Y-115253512D01*
X184419716Y-115903955D01*
X168253665Y-115903955D01*
X163588855Y-111239145D01*
X163349885Y-111079470D01*
X163068000Y-111023400D01*
X142660081Y-111023400D01*
X142101281Y-110464600D01*
X169874890Y-110464600D01*
X171780111Y-112369821D01*
X171780037Y-112454118D01*
X171922812Y-112799659D01*
X172186951Y-113064259D01*
X172532242Y-113207637D01*
X172906118Y-113207963D01*
X173251659Y-113065188D01*
X173289823Y-113027090D01*
X173289769Y-113089383D01*
X173492582Y-113580229D01*
X173867796Y-113956098D01*
X174358287Y-114159768D01*
X174889383Y-114160231D01*
X175380229Y-113957418D01*
X175756098Y-113582204D01*
X175959768Y-113091713D01*
X175960231Y-112560617D01*
X175757418Y-112069771D01*
X175382204Y-111693902D01*
X174891713Y-111490232D01*
X174360617Y-111489769D01*
X173869771Y-111692582D01*
X173607349Y-111954547D01*
X173517188Y-111736341D01*
X173253049Y-111471741D01*
X172907758Y-111328363D01*
X172821998Y-111328288D01*
X172464069Y-110970359D01*
X192150802Y-110970359D01*
X192324446Y-111390612D01*
X192645697Y-111712423D01*
X193065646Y-111886801D01*
X193520359Y-111887198D01*
X193940612Y-111713554D01*
X194262423Y-111392303D01*
X194436801Y-110972354D01*
X194436802Y-110970359D01*
X194690802Y-110970359D01*
X194864446Y-111390612D01*
X195185697Y-111712423D01*
X195605646Y-111886801D01*
X196060359Y-111887198D01*
X196480612Y-111713554D01*
X196802423Y-111392303D01*
X196976801Y-110972354D01*
X196977198Y-110517641D01*
X196803554Y-110097388D01*
X196482303Y-109775577D01*
X196062354Y-109601199D01*
X195607641Y-109600802D01*
X195187388Y-109774446D01*
X194865577Y-110095697D01*
X194691199Y-110515646D01*
X194690802Y-110970359D01*
X194436802Y-110970359D01*
X194437198Y-110517641D01*
X194263554Y-110097388D01*
X193942303Y-109775577D01*
X193522354Y-109601199D01*
X193067641Y-109600802D01*
X192647388Y-109774446D01*
X192325577Y-110095697D01*
X192151199Y-110515646D01*
X192150802Y-110970359D01*
X172464069Y-110970359D01*
X170700855Y-109207145D01*
X170461885Y-109047470D01*
X170180000Y-108991400D01*
X164625464Y-108991400D01*
X164880259Y-108737049D01*
X165023637Y-108391758D01*
X165023963Y-108017882D01*
X164881188Y-107672341D01*
X164651079Y-107441830D01*
X164880259Y-107213049D01*
X165023637Y-106867758D01*
X165023963Y-106493882D01*
X164985420Y-106400600D01*
X169786416Y-106400600D01*
X169748363Y-106492242D01*
X169748037Y-106866118D01*
X169890812Y-107211659D01*
X170154951Y-107476259D01*
X170500242Y-107619637D01*
X170586002Y-107619712D01*
X172912145Y-109945855D01*
X173151115Y-110105530D01*
X173433000Y-110161600D01*
X173484885Y-110161600D01*
X173492582Y-110180229D01*
X173867796Y-110556098D01*
X174358287Y-110759768D01*
X174889383Y-110760231D01*
X175380229Y-110557418D01*
X175756098Y-110182204D01*
X175959768Y-109691713D01*
X175960231Y-109160617D01*
X175757418Y-108669771D01*
X175382204Y-108293902D01*
X174891713Y-108090232D01*
X174360617Y-108089769D01*
X173869771Y-108292582D01*
X173605801Y-108556091D01*
X172972069Y-107922359D01*
X180974802Y-107922359D01*
X181148446Y-108342612D01*
X181469697Y-108664423D01*
X181889646Y-108838801D01*
X182344359Y-108839198D01*
X182764612Y-108665554D01*
X183086423Y-108344303D01*
X183260801Y-107924354D01*
X183260802Y-107922359D01*
X183514802Y-107922359D01*
X183688446Y-108342612D01*
X184009697Y-108664423D01*
X184429646Y-108838801D01*
X184884359Y-108839198D01*
X185304612Y-108665554D01*
X185626423Y-108344303D01*
X185800801Y-107924354D01*
X185801198Y-107469641D01*
X185627554Y-107049388D01*
X185306303Y-106727577D01*
X184886354Y-106553199D01*
X184431641Y-106552802D01*
X184011388Y-106726446D01*
X183689577Y-107047697D01*
X183515199Y-107467646D01*
X183514802Y-107922359D01*
X183260802Y-107922359D01*
X183261198Y-107469641D01*
X183087554Y-107049388D01*
X182766303Y-106727577D01*
X182346354Y-106553199D01*
X181891641Y-106552802D01*
X181471388Y-106726446D01*
X181149577Y-107047697D01*
X180975199Y-107467646D01*
X180974802Y-107922359D01*
X172972069Y-107922359D01*
X171627889Y-106578179D01*
X171627963Y-106493882D01*
X171589420Y-106400600D01*
X175547103Y-106400600D01*
X175828988Y-106344530D01*
X176067958Y-106184855D01*
X176648053Y-105604760D01*
X176892550Y-106054026D01*
X177318239Y-106398059D01*
X177843180Y-106553000D01*
X178181000Y-106553000D01*
X178181000Y-105283000D01*
X178435000Y-105283000D01*
X178435000Y-106553000D01*
X178772820Y-106553000D01*
X179297761Y-106398059D01*
X179723450Y-106054026D01*
X179985080Y-105573277D01*
X180000040Y-105499070D01*
X179933872Y-105382359D01*
X191642802Y-105382359D01*
X191816446Y-105802612D01*
X192137697Y-106124423D01*
X192557646Y-106298801D01*
X193012359Y-106299198D01*
X193432612Y-106125554D01*
X193754423Y-105804303D01*
X193928801Y-105384354D01*
X193928802Y-105382359D01*
X194182802Y-105382359D01*
X194356446Y-105802612D01*
X194677697Y-106124423D01*
X195097646Y-106298801D01*
X195552359Y-106299198D01*
X195972612Y-106125554D01*
X196294423Y-105804303D01*
X196468801Y-105384354D01*
X196469198Y-104929641D01*
X196333866Y-104602109D01*
X198919741Y-104602109D01*
X199076793Y-104982204D01*
X199367346Y-105273265D01*
X199747166Y-105430980D01*
X200158429Y-105431339D01*
X200538524Y-105274287D01*
X200829585Y-104983734D01*
X200987300Y-104603914D01*
X200987659Y-104192651D01*
X200830607Y-103812556D01*
X200540054Y-103521495D01*
X200160234Y-103363780D01*
X199748971Y-103363421D01*
X199368876Y-103520473D01*
X199077815Y-103811026D01*
X198920100Y-104190846D01*
X198919741Y-104602109D01*
X196333866Y-104602109D01*
X196295554Y-104509388D01*
X195974303Y-104187577D01*
X195554354Y-104013199D01*
X195099641Y-104012802D01*
X194679388Y-104186446D01*
X194357577Y-104507697D01*
X194183199Y-104927646D01*
X194182802Y-105382359D01*
X193928802Y-105382359D01*
X193929198Y-104929641D01*
X193755554Y-104509388D01*
X193434303Y-104187577D01*
X193014354Y-104013199D01*
X192559641Y-104012802D01*
X192139388Y-104186446D01*
X191817577Y-104507697D01*
X191643199Y-104927646D01*
X191642802Y-105382359D01*
X179933872Y-105382359D01*
X179877540Y-105283000D01*
X178435000Y-105283000D01*
X178181000Y-105283000D01*
X178161000Y-105283000D01*
X178161000Y-105029000D01*
X178181000Y-105029000D01*
X178181000Y-105009000D01*
X178435000Y-105009000D01*
X178435000Y-105029000D01*
X179877540Y-105029000D01*
X180000040Y-104812930D01*
X179985080Y-104738723D01*
X179811306Y-104419410D01*
X183157577Y-104419410D01*
X183439462Y-104363340D01*
X183678432Y-104203665D01*
X185022659Y-102859438D01*
X185106956Y-102859512D01*
X185452497Y-102716737D01*
X185717097Y-102452598D01*
X185860475Y-102107307D01*
X185860801Y-101733431D01*
X185718026Y-101387890D01*
X185577731Y-101247350D01*
X185708259Y-101117049D01*
X185851637Y-100771758D01*
X185851963Y-100397882D01*
X185709188Y-100052341D01*
X185445049Y-99787741D01*
X185099758Y-99644363D01*
X185013998Y-99644288D01*
X184505921Y-99136211D01*
X185161883Y-99136211D01*
X188295386Y-102269714D01*
X188534356Y-102429389D01*
X188614663Y-102445363D01*
X188714244Y-102545118D01*
X189059535Y-102688496D01*
X189433411Y-102688822D01*
X189778952Y-102546047D01*
X190043552Y-102281908D01*
X190186930Y-101936617D01*
X190187256Y-101562741D01*
X190044481Y-101217200D01*
X189908569Y-101081051D01*
X189908810Y-100804809D01*
X198917201Y-100804809D01*
X199074253Y-101184904D01*
X199364806Y-101475965D01*
X199744626Y-101633680D01*
X200155889Y-101634039D01*
X200535984Y-101476987D01*
X200827045Y-101186434D01*
X200984760Y-100806614D01*
X200985119Y-100395351D01*
X200828067Y-100015256D01*
X200537514Y-99724195D01*
X200157694Y-99566480D01*
X199746431Y-99566121D01*
X199366336Y-99723173D01*
X199075275Y-100013726D01*
X198917560Y-100393546D01*
X198917201Y-100804809D01*
X189908810Y-100804809D01*
X189908815Y-100799109D01*
X189766040Y-100453568D01*
X189501901Y-100188968D01*
X189156610Y-100045590D01*
X189070850Y-100045515D01*
X186548480Y-97523145D01*
X186475827Y-97474600D01*
X188179447Y-97474600D01*
X188216838Y-97673317D01*
X188355910Y-97889441D01*
X188568110Y-98034431D01*
X188820000Y-98085440D01*
X190420000Y-98085440D01*
X190655317Y-98041162D01*
X190871441Y-97902090D01*
X191016431Y-97689890D01*
X191067440Y-97438000D01*
X191067440Y-96038000D01*
X191023162Y-95802683D01*
X190884090Y-95586559D01*
X190671890Y-95441569D01*
X190420000Y-95390560D01*
X188820000Y-95390560D01*
X188584683Y-95434838D01*
X188368559Y-95573910D01*
X188223569Y-95786110D01*
X188179972Y-96001400D01*
X182660553Y-96001400D01*
X182623162Y-95802683D01*
X182499671Y-95610773D01*
X182616431Y-95439890D01*
X182667440Y-95188000D01*
X182667440Y-93788000D01*
X182623162Y-93552683D01*
X182497941Y-93358084D01*
X182558327Y-93297699D01*
X182655000Y-93064310D01*
X182655000Y-92523750D01*
X188185000Y-92523750D01*
X188185000Y-93064310D01*
X188281673Y-93297699D01*
X188460302Y-93476327D01*
X188693691Y-93573000D01*
X189334250Y-93573000D01*
X189493000Y-93414250D01*
X189493000Y-92365000D01*
X189747000Y-92365000D01*
X189747000Y-93414250D01*
X189905750Y-93573000D01*
X190546309Y-93573000D01*
X190779698Y-93476327D01*
X190958327Y-93297699D01*
X191055000Y-93064310D01*
X191055000Y-92523750D01*
X190896250Y-92365000D01*
X189747000Y-92365000D01*
X189493000Y-92365000D01*
X188343750Y-92365000D01*
X188185000Y-92523750D01*
X182655000Y-92523750D01*
X182496250Y-92365000D01*
X181347000Y-92365000D01*
X181347000Y-92385000D01*
X181093000Y-92385000D01*
X181093000Y-92365000D01*
X179943750Y-92365000D01*
X179785000Y-92523750D01*
X179785000Y-93064310D01*
X179881673Y-93297699D01*
X179943930Y-93359956D01*
X179823569Y-93536110D01*
X179772560Y-93788000D01*
X179772560Y-95188000D01*
X179816838Y-95423317D01*
X179940329Y-95615227D01*
X179823569Y-95786110D01*
X179772560Y-96038000D01*
X179772560Y-96196658D01*
X179511758Y-96088363D01*
X179137882Y-96088037D01*
X178792341Y-96230812D01*
X178527741Y-96494951D01*
X178384363Y-96840242D01*
X178384037Y-97214118D01*
X178422580Y-97307400D01*
X176570296Y-97307400D01*
X176204878Y-96941982D01*
X176238846Y-96908073D01*
X176488206Y-96307547D01*
X176488774Y-95657306D01*
X176240462Y-95056345D01*
X175895520Y-94710801D01*
X176238846Y-94368073D01*
X176488206Y-93767547D01*
X176488774Y-93117306D01*
X176240462Y-92516345D01*
X175781073Y-92056154D01*
X175180547Y-91806794D01*
X174530306Y-91806226D01*
X173929345Y-92054538D01*
X173469154Y-92513927D01*
X173219794Y-93114453D01*
X173219226Y-93764694D01*
X173467538Y-94365655D01*
X173812480Y-94711199D01*
X173469154Y-95053927D01*
X173219794Y-95654453D01*
X173219238Y-96291400D01*
X154066394Y-96291400D01*
X154066401Y-96283062D01*
X153923626Y-95937521D01*
X153863038Y-95876827D01*
X153863038Y-94574672D01*
X154533821Y-93903889D01*
X154618118Y-93903963D01*
X154963659Y-93761188D01*
X155228259Y-93497049D01*
X155371637Y-93151758D01*
X155371963Y-92777882D01*
X155229188Y-92432341D01*
X154965049Y-92167741D01*
X154619758Y-92024363D01*
X154245882Y-92024037D01*
X153900341Y-92166812D01*
X153635741Y-92430951D01*
X153492363Y-92776242D01*
X153492288Y-92862002D01*
X152605583Y-93748707D01*
X152445908Y-93987677D01*
X152389838Y-94269562D01*
X152389838Y-95876576D01*
X152330179Y-95936131D01*
X152186801Y-96281422D01*
X152186792Y-96291400D01*
X150799956Y-96291400D01*
X150799963Y-96283062D01*
X150657188Y-95937521D01*
X150596600Y-95876827D01*
X150596600Y-95301110D01*
X151993821Y-93903889D01*
X152078118Y-93903963D01*
X152423659Y-93761188D01*
X152688259Y-93497049D01*
X152831637Y-93151758D01*
X152831963Y-92777882D01*
X152689188Y-92432341D01*
X152425049Y-92167741D01*
X152079758Y-92024363D01*
X151705882Y-92024037D01*
X151360341Y-92166812D01*
X151095741Y-92430951D01*
X150952363Y-92776242D01*
X150952288Y-92862002D01*
X149339145Y-94475145D01*
X149214643Y-94661476D01*
X149133188Y-94464341D01*
X149020600Y-94351557D01*
X149020600Y-91411690D01*
X179785000Y-91411690D01*
X179785000Y-91952250D01*
X179943750Y-92111000D01*
X181093000Y-92111000D01*
X181093000Y-91061750D01*
X181347000Y-91061750D01*
X181347000Y-92111000D01*
X182496250Y-92111000D01*
X182655000Y-91952250D01*
X182655000Y-91411690D01*
X188185000Y-91411690D01*
X188185000Y-91952250D01*
X188343750Y-92111000D01*
X189493000Y-92111000D01*
X189493000Y-91061750D01*
X189747000Y-91061750D01*
X189747000Y-92111000D01*
X190896250Y-92111000D01*
X191055000Y-91952250D01*
X191055000Y-91411690D01*
X190958327Y-91178301D01*
X190779698Y-90999673D01*
X190546309Y-90903000D01*
X189905750Y-90903000D01*
X189747000Y-91061750D01*
X189493000Y-91061750D01*
X189334250Y-90903000D01*
X188693691Y-90903000D01*
X188460302Y-90999673D01*
X188281673Y-91178301D01*
X188185000Y-91411690D01*
X182655000Y-91411690D01*
X182558327Y-91178301D01*
X182379698Y-90999673D01*
X182146309Y-90903000D01*
X181505750Y-90903000D01*
X181347000Y-91061750D01*
X181093000Y-91061750D01*
X180934250Y-90903000D01*
X180293691Y-90903000D01*
X180060302Y-90999673D01*
X179881673Y-91178301D01*
X179785000Y-91411690D01*
X149020600Y-91411690D01*
X149020600Y-91218200D01*
X149074303Y-91196010D01*
X149467629Y-90803370D01*
X149553949Y-90595488D01*
X149638990Y-90801303D01*
X150031630Y-91194629D01*
X150544900Y-91407757D01*
X151100661Y-91408242D01*
X151614303Y-91196010D01*
X152007629Y-90803370D01*
X152093949Y-90595488D01*
X152178990Y-90801303D01*
X152571630Y-91194629D01*
X153084900Y-91407757D01*
X153640661Y-91408242D01*
X154154303Y-91196010D01*
X154547629Y-90803370D01*
X154633949Y-90595488D01*
X154718990Y-90801303D01*
X155111630Y-91194629D01*
X155624900Y-91407757D01*
X156180661Y-91408242D01*
X156694303Y-91196010D01*
X157087629Y-90803370D01*
X157300757Y-90290100D01*
X157301242Y-89734339D01*
X157089010Y-89220697D01*
X156696370Y-88827371D01*
X156183100Y-88614243D01*
X155627339Y-88613758D01*
X155113697Y-88825990D01*
X154720371Y-89218630D01*
X154634051Y-89426512D01*
X154549010Y-89220697D01*
X154156370Y-88827371D01*
X153643100Y-88614243D01*
X153087339Y-88613758D01*
X152573697Y-88825990D01*
X152180371Y-89218630D01*
X152094051Y-89426512D01*
X152009010Y-89220697D01*
X151616370Y-88827371D01*
X151103100Y-88614243D01*
X150547339Y-88613758D01*
X150033697Y-88825990D01*
X149640371Y-89218630D01*
X149554051Y-89426512D01*
X149469010Y-89220697D01*
X149076370Y-88827371D01*
X148563100Y-88614243D01*
X148007339Y-88613758D01*
X147493697Y-88825990D01*
X147100371Y-89218630D01*
X147014051Y-89426512D01*
X146929010Y-89220697D01*
X146536370Y-88827371D01*
X146023100Y-88614243D01*
X145467339Y-88613758D01*
X144953697Y-88825990D01*
X144560371Y-89218630D01*
X144474051Y-89426512D01*
X144389010Y-89220697D01*
X143996370Y-88827371D01*
X143483100Y-88614243D01*
X142927339Y-88613758D01*
X142413697Y-88825990D01*
X142020371Y-89218630D01*
X141934051Y-89426512D01*
X141849010Y-89220697D01*
X141456370Y-88827371D01*
X140943100Y-88614243D01*
X140387339Y-88613758D01*
X139873697Y-88825990D01*
X139480371Y-89218630D01*
X139394051Y-89426512D01*
X139309010Y-89220697D01*
X138916370Y-88827371D01*
X138403100Y-88614243D01*
X137847339Y-88613758D01*
X137333697Y-88825990D01*
X136940371Y-89218630D01*
X136854051Y-89426512D01*
X136769010Y-89220697D01*
X136376370Y-88827371D01*
X135863100Y-88614243D01*
X135307339Y-88613758D01*
X134793697Y-88825990D01*
X134400371Y-89218630D01*
X134314051Y-89426512D01*
X134229010Y-89220697D01*
X133836370Y-88827371D01*
X133323100Y-88614243D01*
X132767339Y-88613758D01*
X132253697Y-88825990D01*
X131860371Y-89218630D01*
X131774051Y-89426512D01*
X131689010Y-89220697D01*
X131296370Y-88827371D01*
X130783100Y-88614243D01*
X130227339Y-88613758D01*
X129713697Y-88825990D01*
X129320371Y-89218630D01*
X129234051Y-89426512D01*
X129149010Y-89220697D01*
X128756370Y-88827371D01*
X128243100Y-88614243D01*
X127687339Y-88613758D01*
X127173697Y-88825990D01*
X126780371Y-89218630D01*
X126694051Y-89426512D01*
X126609010Y-89220697D01*
X126216370Y-88827371D01*
X125703100Y-88614243D01*
X125147339Y-88613758D01*
X124633697Y-88825990D01*
X124240371Y-89218630D01*
X124154051Y-89426512D01*
X124069010Y-89220697D01*
X123676370Y-88827371D01*
X123163100Y-88614243D01*
X122607339Y-88613758D01*
X122093697Y-88825990D01*
X121700371Y-89218630D01*
X121614051Y-89426512D01*
X121529010Y-89220697D01*
X121136370Y-88827371D01*
X120623100Y-88614243D01*
X120067339Y-88613758D01*
X119553697Y-88825990D01*
X119160371Y-89218630D01*
X119074051Y-89426512D01*
X118989010Y-89220697D01*
X118596370Y-88827371D01*
X118083100Y-88614243D01*
X117527339Y-88613758D01*
X117013697Y-88825990D01*
X116620371Y-89218630D01*
X116407243Y-89731900D01*
X116406758Y-90287661D01*
X116618990Y-90801303D01*
X117011630Y-91194629D01*
X117524900Y-91407757D01*
X118080661Y-91408242D01*
X118164496Y-91373602D01*
X118284114Y-91453529D01*
X118565999Y-91509599D01*
X119297207Y-91509599D01*
X123367741Y-95580133D01*
X123257882Y-95580037D01*
X122912341Y-95722812D01*
X122647741Y-95986951D01*
X122504363Y-96332242D01*
X122504288Y-96418002D01*
X120078346Y-98843944D01*
X119918671Y-99082914D01*
X119862601Y-99364799D01*
X119862601Y-102387400D01*
X116416604Y-102387400D01*
X116357049Y-102327741D01*
X116011758Y-102184363D01*
X115637882Y-102184037D01*
X115292341Y-102326812D01*
X115027741Y-102590951D01*
X114884363Y-102936242D01*
X114884037Y-103310118D01*
X114922580Y-103403400D01*
X106764604Y-103403400D01*
X106705049Y-103343741D01*
X106359758Y-103200363D01*
X105985882Y-103200037D01*
X105640341Y-103342812D01*
X105584283Y-103398773D01*
X105556982Y-103253683D01*
X105417910Y-103037559D01*
X105205710Y-102892569D01*
X104989276Y-102848740D01*
X105213635Y-102698828D01*
X105516467Y-102245609D01*
X105622807Y-101711000D01*
X105516467Y-101176391D01*
X105213635Y-100723172D01*
X104778394Y-100432353D01*
X104843761Y-100413059D01*
X105269450Y-100069026D01*
X105531080Y-99588277D01*
X105546040Y-99514070D01*
X105423540Y-99298000D01*
X103981000Y-99298000D01*
X103981000Y-99318000D01*
X103727000Y-99318000D01*
X103727000Y-99298000D01*
X103707000Y-99298000D01*
X103707000Y-99044000D01*
X103727000Y-99044000D01*
X103727000Y-97774000D01*
X103981000Y-97774000D01*
X103981000Y-99044000D01*
X105423540Y-99044000D01*
X105546040Y-98827930D01*
X105531080Y-98753723D01*
X105269450Y-98272974D01*
X104843761Y-97928941D01*
X104318820Y-97774000D01*
X103981000Y-97774000D01*
X103727000Y-97774000D01*
X103389180Y-97774000D01*
X102864239Y-97928941D01*
X102438550Y-98272974D01*
X102180439Y-98747257D01*
X102180439Y-86157137D01*
X108050490Y-86157137D01*
X108080878Y-86151092D01*
X108111685Y-86154398D01*
X108498575Y-86119696D01*
X108558132Y-86102195D01*
X108620041Y-86097632D01*
X108979945Y-85998055D01*
X109035655Y-85970017D01*
X109096007Y-85954291D01*
X109421344Y-85796633D01*
X109471924Y-85758373D01*
X109529324Y-85731397D01*
X109812508Y-85522448D01*
X109856659Y-85473974D01*
X109909638Y-85435340D01*
X110143091Y-85181894D01*
X110178935Y-85123168D01*
X110225351Y-85072378D01*
X110401492Y-84781226D01*
X110426231Y-84712970D01*
X110462865Y-84650293D01*
X110574108Y-84328232D01*
X110584407Y-84253098D01*
X110607389Y-84180823D01*
X110646155Y-83834641D01*
X110642888Y-83796225D01*
X110650410Y-83758410D01*
X110650410Y-80309469D01*
X131856057Y-80309469D01*
X131862665Y-80378141D01*
X131856057Y-80446813D01*
X131880751Y-80691895D01*
X131900899Y-80757780D01*
X131908095Y-80826302D01*
X131978955Y-81054572D01*
X132011135Y-81113852D01*
X132031128Y-81178269D01*
X132143250Y-81384836D01*
X132185562Y-81435724D01*
X132216911Y-81494006D01*
X132365405Y-81673983D01*
X132416294Y-81715523D01*
X132457830Y-81766407D01*
X132637806Y-81914901D01*
X132696088Y-81946250D01*
X132746977Y-81988563D01*
X132953543Y-82100684D01*
X133017961Y-82120677D01*
X133077239Y-82152856D01*
X133305508Y-82223716D01*
X133374030Y-82230912D01*
X133439914Y-82251060D01*
X133684996Y-82275755D01*
X133753670Y-82269147D01*
X133822344Y-82275755D01*
X134067426Y-82251060D01*
X134133310Y-82230912D01*
X134201831Y-82223716D01*
X134430101Y-82152856D01*
X134489380Y-82120676D01*
X134553795Y-82100684D01*
X134760362Y-81988563D01*
X134811249Y-81946252D01*
X134869537Y-81914900D01*
X135049512Y-81766406D01*
X135091051Y-81715519D01*
X135141933Y-81673984D01*
X135290428Y-81494008D01*
X135321779Y-81435722D01*
X135364092Y-81384833D01*
X135476213Y-81178266D01*
X135496205Y-81113851D01*
X135528385Y-81054572D01*
X135599245Y-80826303D01*
X135606441Y-80757781D01*
X135626589Y-80691897D01*
X135651284Y-80446815D01*
X135647955Y-80412224D01*
X135654735Y-80378141D01*
X135647955Y-80344058D01*
X135651283Y-80309469D01*
X167889781Y-80309469D01*
X167896389Y-80378141D01*
X167889781Y-80446813D01*
X167914475Y-80691895D01*
X167934623Y-80757780D01*
X167941819Y-80826302D01*
X168012679Y-81054572D01*
X168044858Y-81113850D01*
X168064850Y-81178265D01*
X168176972Y-81384835D01*
X168219284Y-81435724D01*
X168250636Y-81494011D01*
X168399130Y-81673986D01*
X168450018Y-81715526D01*
X168491557Y-81766412D01*
X168671533Y-81914903D01*
X168729815Y-81946252D01*
X168780705Y-81988565D01*
X168987274Y-82100686D01*
X169051690Y-82120678D01*
X169110966Y-82152856D01*
X169339235Y-82223716D01*
X169407757Y-82230912D01*
X169473641Y-82251060D01*
X169718723Y-82275755D01*
X169787397Y-82269147D01*
X169856071Y-82275755D01*
X170101153Y-82251060D01*
X170167037Y-82230912D01*
X170235558Y-82223716D01*
X170463828Y-82152856D01*
X170523106Y-82120677D01*
X170587524Y-82100684D01*
X170794089Y-81988563D01*
X170844977Y-81946251D01*
X170903261Y-81914901D01*
X171083238Y-81766407D01*
X171124778Y-81715518D01*
X171175662Y-81673982D01*
X171324156Y-81494006D01*
X171355505Y-81435724D01*
X171397817Y-81384836D01*
X171509939Y-81178268D01*
X171529931Y-81113853D01*
X171562112Y-81054572D01*
X171632972Y-80826303D01*
X171640168Y-80757781D01*
X171660316Y-80691897D01*
X171685011Y-80446815D01*
X171681682Y-80412224D01*
X171688462Y-80378141D01*
X171681682Y-80344058D01*
X171685011Y-80309467D01*
X171660316Y-80064385D01*
X171640167Y-79998498D01*
X171632971Y-79929978D01*
X171562111Y-79701710D01*
X171529932Y-79642432D01*
X171509939Y-79578015D01*
X171397817Y-79371447D01*
X171355505Y-79320559D01*
X171324156Y-79262277D01*
X171175662Y-79082301D01*
X171124778Y-79040765D01*
X171083238Y-78989876D01*
X170903261Y-78841382D01*
X170844977Y-78810032D01*
X170794089Y-78767720D01*
X170587524Y-78655599D01*
X170523107Y-78635607D01*
X170463831Y-78603428D01*
X170235561Y-78532567D01*
X170167038Y-78525370D01*
X170101151Y-78505222D01*
X169856069Y-78480528D01*
X169787397Y-78487136D01*
X169718725Y-78480528D01*
X169473643Y-78505222D01*
X169407759Y-78525369D01*
X169339241Y-78532565D01*
X169110971Y-78603423D01*
X169051695Y-78635601D01*
X168987274Y-78655594D01*
X168780705Y-78767715D01*
X168729815Y-78810028D01*
X168671530Y-78841379D01*
X168491554Y-78989873D01*
X168450018Y-79040757D01*
X168399129Y-79082297D01*
X168250635Y-79262274D01*
X168219285Y-79320559D01*
X168176972Y-79371448D01*
X168064850Y-79578018D01*
X168044858Y-79642433D01*
X168012679Y-79701710D01*
X167941820Y-79929979D01*
X167934624Y-79998499D01*
X167914475Y-80064387D01*
X167889781Y-80309469D01*
X135651283Y-80309469D01*
X135651284Y-80309467D01*
X135626589Y-80064385D01*
X135606440Y-79998498D01*
X135599244Y-79929978D01*
X135528384Y-79701710D01*
X135496206Y-79642434D01*
X135476213Y-79578017D01*
X135364092Y-79371450D01*
X135321779Y-79320561D01*
X135290428Y-79262275D01*
X135141933Y-79082299D01*
X135091051Y-79040764D01*
X135049512Y-78989877D01*
X134869537Y-78841383D01*
X134811249Y-78810031D01*
X134760362Y-78767720D01*
X134553795Y-78655599D01*
X134489381Y-78635607D01*
X134430104Y-78603428D01*
X134201834Y-78532567D01*
X134133311Y-78525370D01*
X134067424Y-78505222D01*
X133822342Y-78480528D01*
X133753670Y-78487136D01*
X133684998Y-78480528D01*
X133439916Y-78505222D01*
X133374029Y-78525370D01*
X133305506Y-78532567D01*
X133077236Y-78603428D01*
X133017960Y-78635607D01*
X132953543Y-78655599D01*
X132746977Y-78767720D01*
X132696088Y-78810033D01*
X132637806Y-78841382D01*
X132457830Y-78989876D01*
X132416294Y-79040760D01*
X132365405Y-79082300D01*
X132216911Y-79262277D01*
X132185562Y-79320559D01*
X132143250Y-79371447D01*
X132031128Y-79578014D01*
X132011136Y-79642431D01*
X131978955Y-79701710D01*
X131908096Y-79929979D01*
X131900900Y-79998499D01*
X131880751Y-80064387D01*
X131856057Y-80309469D01*
X110650410Y-80309469D01*
X110650410Y-77786934D01*
X123252064Y-77786934D01*
X123252064Y-78319017D01*
X123252064Y-78319017D01*
G37*
X123252064Y-78319017D02*
X123304207Y-78581155D01*
X123452696Y-78803385D01*
X123674926Y-78951874D01*
X123937064Y-79004017D01*
X125757177Y-79004017D01*
X126019315Y-78951874D01*
X126241545Y-78803385D01*
X126390034Y-78581155D01*
X126442177Y-78319017D01*
X126442177Y-77786934D01*
X126653615Y-77786934D01*
X126653615Y-78319017D01*
X126705758Y-78581155D01*
X126854247Y-78803385D01*
X127076477Y-78951874D01*
X127338615Y-79004017D01*
X129159279Y-79004017D01*
X129421417Y-78951874D01*
X129643647Y-78803385D01*
X129792136Y-78581155D01*
X129844279Y-78319017D01*
X129844279Y-77786934D01*
X173657946Y-77786934D01*
X173657946Y-78319017D01*
X173710089Y-78581155D01*
X173858578Y-78803385D01*
X174080808Y-78951874D01*
X174342946Y-79004017D01*
X176163059Y-79004017D01*
X176425197Y-78951874D01*
X176647427Y-78803385D01*
X176795916Y-78581155D01*
X176848059Y-78319017D01*
X176848059Y-77786934D01*
X177059495Y-77786934D01*
X177059495Y-78319017D01*
X177111638Y-78581155D01*
X177260127Y-78803385D01*
X177482357Y-78951874D01*
X177744495Y-79004017D01*
X179565161Y-79004017D01*
X179827299Y-78951874D01*
X180049529Y-78803385D01*
X180198018Y-78581155D01*
X180250161Y-78319017D01*
X180250161Y-77786934D01*
X192838584Y-77786934D01*
X192838584Y-83658088D01*
X192846107Y-83695906D01*
X192842840Y-83734324D01*
X192881606Y-84080481D01*
X192904593Y-84152769D01*
X192914899Y-84227924D01*
X193026143Y-84549926D01*
X193062795Y-84612625D01*
X193087551Y-84680900D01*
X193263691Y-84971960D01*
X193310126Y-85022758D01*
X193345995Y-85081497D01*
X193579448Y-85334842D01*
X193632446Y-85373474D01*
X193676616Y-85421946D01*
X193959804Y-85630794D01*
X194017205Y-85657754D01*
X194067788Y-85695999D01*
X194393125Y-85853569D01*
X194453459Y-85869276D01*
X194509159Y-85897298D01*
X194869064Y-85996812D01*
X194930936Y-86001362D01*
X194990460Y-86018850D01*
X195377350Y-86053529D01*
X195408136Y-86050224D01*
X195438507Y-86056265D01*
X201615000Y-86056265D01*
X201615000Y-95000000D01*
X201667143Y-95262138D01*
X201815632Y-95484368D01*
X202037862Y-95632857D01*
X202184000Y-95661926D01*
X202184000Y-109238074D01*
X202037862Y-109267143D01*
X201815632Y-109415632D01*
X201667143Y-109637862D01*
X201615000Y-109900000D01*
X201615000Y-118905709D01*
X195438507Y-118905709D01*
X195408119Y-118911754D01*
X195377312Y-118908448D01*
X194990422Y-118943150D01*
X194930865Y-118960651D01*
X194868956Y-118965214D01*
X194509052Y-119064791D01*
X194453342Y-119092829D01*
X194392987Y-119108556D01*
X194067650Y-119266216D01*
X194017069Y-119304477D01*
X193959677Y-119331449D01*
X193676488Y-119540398D01*
X193632334Y-119588874D01*
X193579355Y-119627509D01*
X193345901Y-119880956D01*
X193310054Y-119939686D01*
X193263642Y-119990473D01*
X193087502Y-120281624D01*
X193062764Y-120349876D01*
X193026130Y-120412553D01*
X192914887Y-120734613D01*
X192904587Y-120809749D01*
X192881605Y-120882025D01*
X192842839Y-121228208D01*
X192846106Y-121266624D01*
X192838584Y-121304439D01*
X192838584Y-127365210D01*
X180250161Y-127365210D01*
X180250161Y-126688158D01*
X180198018Y-126426020D01*
X180049529Y-126203790D01*
X179827299Y-126055301D01*
X179565161Y-126003158D01*
X177744495Y-126003158D01*
X177482357Y-126055301D01*
X177260127Y-126203790D01*
X177111638Y-126426020D01*
X177059495Y-126688158D01*
X177059495Y-127365210D01*
X176848059Y-127365210D01*
X176848059Y-126688158D01*
X176795916Y-126426020D01*
X176647427Y-126203790D01*
X176425197Y-126055301D01*
X176163059Y-126003158D01*
X174342946Y-126003158D01*
X174080808Y-126055301D01*
X173858578Y-126203790D01*
X173710089Y-126426020D01*
X173657946Y-126688158D01*
X173657946Y-127365210D01*
X151705402Y-127365210D01*
X152117828Y-127089635D01*
X152420660Y-126636416D01*
X152527000Y-126101807D01*
X152527000Y-125358193D01*
X152420660Y-124823584D01*
X152243128Y-124557889D01*
X167889781Y-124557889D01*
X167896389Y-124626561D01*
X167889781Y-124695233D01*
X167914475Y-124940315D01*
X167934623Y-125006200D01*
X167941819Y-125074722D01*
X168012679Y-125302992D01*
X168044859Y-125362271D01*
X168064851Y-125426686D01*
X168176972Y-125633255D01*
X168219286Y-125684145D01*
X168250635Y-125742428D01*
X168399129Y-125922405D01*
X168450018Y-125963946D01*
X168491557Y-126014832D01*
X168671533Y-126163323D01*
X168729815Y-126194672D01*
X168780705Y-126236985D01*
X168987274Y-126349106D01*
X169051690Y-126369098D01*
X169110966Y-126401276D01*
X169339235Y-126472136D01*
X169407757Y-126479332D01*
X169473641Y-126499480D01*
X169718723Y-126524175D01*
X169787397Y-126517567D01*
X169856071Y-126524175D01*
X170101153Y-126499480D01*
X170167037Y-126479332D01*
X170235558Y-126472136D01*
X170463828Y-126401276D01*
X170523106Y-126369097D01*
X170587524Y-126349104D01*
X170794089Y-126236983D01*
X170844977Y-126194671D01*
X170903261Y-126163321D01*
X171083238Y-126014827D01*
X171124778Y-125963938D01*
X171175662Y-125922402D01*
X171324156Y-125742426D01*
X171355505Y-125684144D01*
X171397817Y-125633256D01*
X171509939Y-125426688D01*
X171529931Y-125362273D01*
X171562112Y-125302992D01*
X171632972Y-125074723D01*
X171640168Y-125006201D01*
X171660316Y-124940317D01*
X171685011Y-124695235D01*
X171681682Y-124660644D01*
X171688462Y-124626561D01*
X171681682Y-124592478D01*
X171685011Y-124557887D01*
X171660316Y-124312805D01*
X171640167Y-124246918D01*
X171632971Y-124178398D01*
X171562111Y-123950130D01*
X171529932Y-123890852D01*
X171509939Y-123826435D01*
X171397817Y-123619867D01*
X171355505Y-123568979D01*
X171324156Y-123510697D01*
X171318330Y-123503635D01*
X184419716Y-123503635D01*
X184668106Y-124104783D01*
X185127637Y-124565118D01*
X185728352Y-124814556D01*
X186378795Y-124815124D01*
X186979943Y-124566734D01*
X187440278Y-124107203D01*
X187689716Y-123506488D01*
X187690284Y-122856045D01*
X187441894Y-122254897D01*
X186982363Y-121794562D01*
X186381648Y-121545124D01*
X185731205Y-121544556D01*
X185130057Y-121792946D01*
X184669722Y-122252477D01*
X184420284Y-122853192D01*
X184419716Y-123503635D01*
X171318330Y-123503635D01*
X171175662Y-123330721D01*
X171124778Y-123289185D01*
X171083238Y-123238296D01*
X170903261Y-123089802D01*
X170844978Y-123058452D01*
X170794092Y-123016142D01*
X170587526Y-122904020D01*
X170523109Y-122884027D01*
X170463828Y-122851846D01*
X170235558Y-122780986D01*
X170167036Y-122773790D01*
X170101151Y-122753642D01*
X169856069Y-122728948D01*
X169787397Y-122735556D01*
X169718725Y-122728948D01*
X169473643Y-122753642D01*
X169407759Y-122773789D01*
X169339241Y-122780985D01*
X169110971Y-122851843D01*
X169051695Y-122884021D01*
X168987274Y-122904014D01*
X168780705Y-123016135D01*
X168729815Y-123058448D01*
X168671530Y-123089799D01*
X168491554Y-123238293D01*
X168450018Y-123289177D01*
X168399129Y-123330717D01*
X168250635Y-123510694D01*
X168219285Y-123568979D01*
X168176972Y-123619868D01*
X168064850Y-123826438D01*
X168044858Y-123890853D01*
X168012679Y-123950130D01*
X167941820Y-124178399D01*
X167934624Y-124246919D01*
X167914475Y-124312807D01*
X167889781Y-124557889D01*
X152243128Y-124557889D01*
X152117828Y-124370365D01*
X151664609Y-124067533D01*
X151130000Y-123961193D01*
X150595391Y-124067533D01*
X150142172Y-124370365D01*
X149851353Y-124805606D01*
X149832059Y-124740239D01*
X149488026Y-124314550D01*
X149007277Y-124052920D01*
X148933070Y-124037960D01*
X148717000Y-124160460D01*
X148717000Y-125603000D01*
X148737000Y-125603000D01*
X148737000Y-125857000D01*
X148717000Y-125857000D01*
X148717000Y-125877000D01*
X148463000Y-125877000D01*
X148463000Y-125857000D01*
X148443000Y-125857000D01*
X148443000Y-125603000D01*
X148463000Y-125603000D01*
X148463000Y-124160460D01*
X148246930Y-124037960D01*
X148172723Y-124052920D01*
X147691974Y-124314550D01*
X147347941Y-124740239D01*
X147328647Y-124805606D01*
X147037828Y-124370365D01*
X146584609Y-124067533D01*
X146050000Y-123961193D01*
X145515391Y-124067533D01*
X145062172Y-124370365D01*
X144912657Y-124594130D01*
X144875162Y-124394863D01*
X144736090Y-124178739D01*
X144523890Y-124033749D01*
X144272000Y-123982740D01*
X142748000Y-123982740D01*
X142512683Y-124027018D01*
X142296559Y-124166090D01*
X142151569Y-124378290D01*
X142100560Y-124630180D01*
X142100560Y-124993400D01*
X139243110Y-124993400D01*
X130327710Y-116078000D01*
X132689821Y-113715889D01*
X132774118Y-113715963D01*
X133119659Y-113573188D01*
X133239673Y-113453383D01*
X140703145Y-120916855D01*
X140942115Y-121076530D01*
X141224000Y-121132600D01*
X145203396Y-121132600D01*
X145262951Y-121192259D01*
X145608242Y-121335637D01*
X145982118Y-121335963D01*
X146327659Y-121193188D01*
X146592259Y-120929049D01*
X146735637Y-120583758D01*
X146735963Y-120209882D01*
X146593188Y-119864341D01*
X146329049Y-119599741D01*
X145983758Y-119456363D01*
X145609882Y-119456037D01*
X145264341Y-119598812D01*
X145203647Y-119659400D01*
X141529110Y-119659400D01*
X134340600Y-112470890D01*
X134340600Y-109143956D01*
X134348928Y-109143963D01*
X134694469Y-109001188D01*
X134959069Y-108737049D01*
X135102447Y-108391758D01*
X135102773Y-108017882D01*
X134959998Y-107672341D01*
X134899410Y-107611647D01*
X134899410Y-106590889D01*
X135045314Y-106591016D01*
X135237741Y-106511506D01*
X138669332Y-109943097D01*
X138660341Y-109946812D01*
X138395741Y-110210951D01*
X138252363Y-110556242D01*
X138252037Y-110930118D01*
X138328400Y-111114930D01*
X138328400Y-112835835D01*
X138140345Y-112913538D01*
X137680154Y-113372927D01*
X137430794Y-113973453D01*
X137430226Y-114623694D01*
X137678538Y-115224655D01*
X138137927Y-115684846D01*
X138738453Y-115934206D01*
X139388694Y-115934774D01*
X139989655Y-115686462D01*
X140449846Y-115227073D01*
X140699206Y-114626547D01*
X140699774Y-113976306D01*
X140451462Y-113375345D01*
X139992073Y-112915154D01*
X139801600Y-112836063D01*
X139801600Y-111463383D01*
X139988259Y-111277049D01*
X139992667Y-111266432D01*
X142023090Y-113296855D01*
X142262061Y-113456531D01*
X142543945Y-113512601D01*
X142543950Y-113512600D01*
X142702157Y-113512600D01*
X142510794Y-113973453D01*
X142510226Y-114623694D01*
X142758538Y-115224655D01*
X143217927Y-115684846D01*
X143818453Y-115934206D01*
X144468694Y-115934774D01*
X145069655Y-115686462D01*
X145529846Y-115227073D01*
X145779206Y-114626547D01*
X145779774Y-113976306D01*
X145588175Y-113512600D01*
X147014890Y-113512600D01*
X150444199Y-116941909D01*
X150444199Y-119049551D01*
X150344341Y-119090812D01*
X150079741Y-119354951D01*
X149936363Y-119700242D01*
X149936037Y-120074118D01*
X150078812Y-120419659D01*
X150342951Y-120684259D01*
X150688242Y-120827637D01*
X151062118Y-120827963D01*
X151407659Y-120685188D01*
X151672259Y-120421049D01*
X151815637Y-120075758D01*
X151815761Y-119933283D01*
X151861329Y-119865086D01*
X151917399Y-119583201D01*
X151917399Y-117738193D01*
X153543000Y-117738193D01*
X153543000Y-118481807D01*
X153649340Y-119016416D01*
X153952172Y-119469635D01*
X154405391Y-119772467D01*
X154940000Y-119878807D01*
X155474609Y-119772467D01*
X155927828Y-119469635D01*
X156077343Y-119245870D01*
X156114838Y-119445137D01*
X156253910Y-119661261D01*
X156466110Y-119806251D01*
X156718000Y-119857260D01*
X158242000Y-119857260D01*
X158477317Y-119812982D01*
X158693441Y-119673910D01*
X158838431Y-119461710D01*
X158889440Y-119209820D01*
X158889440Y-117010180D01*
X158845162Y-116774863D01*
X158706090Y-116558739D01*
X158493890Y-116413749D01*
X158242000Y-116362740D01*
X156718000Y-116362740D01*
X156482683Y-116407018D01*
X156266559Y-116546090D01*
X156121569Y-116758290D01*
X156077740Y-116974724D01*
X155927828Y-116750365D01*
X155474609Y-116447533D01*
X154940000Y-116341193D01*
X154405391Y-116447533D01*
X153952172Y-116750365D01*
X153649340Y-117203584D01*
X153543000Y-117738193D01*
X151917399Y-117738193D01*
X151917399Y-116636799D01*
X151861329Y-116354914D01*
X151701654Y-116115944D01*
X148082310Y-112496600D01*
X162762890Y-112496600D01*
X172796111Y-122529821D01*
X172796037Y-122614118D01*
X172938812Y-122959659D01*
X173202951Y-123224259D01*
X173548242Y-123367637D01*
X173922118Y-123367963D01*
X174267659Y-123225188D01*
X174532259Y-122961049D01*
X174675637Y-122615758D01*
X174675963Y-122241882D01*
X174533188Y-121896341D01*
X174269049Y-121631741D01*
X173923758Y-121488363D01*
X173837998Y-121488288D01*
X168253665Y-115903955D01*
X184419716Y-115903955D01*
X184668106Y-116505103D01*
X185127637Y-116965438D01*
X185728352Y-117214876D01*
X186378795Y-117215444D01*
X186979943Y-116967054D01*
X187440278Y-116507523D01*
X187689716Y-115906808D01*
X187690284Y-115256365D01*
X187441894Y-114655217D01*
X186982363Y-114194882D01*
X186381648Y-113945444D01*
X185731205Y-113944876D01*
X185130057Y-114193266D01*
X184669722Y-114652797D01*
X184420284Y-115253512D01*
X184419716Y-115903955D01*
X168253665Y-115903955D01*
X163588855Y-111239145D01*
X163349885Y-111079470D01*
X163068000Y-111023400D01*
X142660081Y-111023400D01*
X142101281Y-110464600D01*
X169874890Y-110464600D01*
X171780111Y-112369821D01*
X171780037Y-112454118D01*
X171922812Y-112799659D01*
X172186951Y-113064259D01*
X172532242Y-113207637D01*
X172906118Y-113207963D01*
X173251659Y-113065188D01*
X173289823Y-113027090D01*
X173289769Y-113089383D01*
X173492582Y-113580229D01*
X173867796Y-113956098D01*
X174358287Y-114159768D01*
X174889383Y-114160231D01*
X175380229Y-113957418D01*
X175756098Y-113582204D01*
X175959768Y-113091713D01*
X175960231Y-112560617D01*
X175757418Y-112069771D01*
X175382204Y-111693902D01*
X174891713Y-111490232D01*
X174360617Y-111489769D01*
X173869771Y-111692582D01*
X173607349Y-111954547D01*
X173517188Y-111736341D01*
X173253049Y-111471741D01*
X172907758Y-111328363D01*
X172821998Y-111328288D01*
X172464069Y-110970359D01*
X192150802Y-110970359D01*
X192324446Y-111390612D01*
X192645697Y-111712423D01*
X193065646Y-111886801D01*
X193520359Y-111887198D01*
X193940612Y-111713554D01*
X194262423Y-111392303D01*
X194436801Y-110972354D01*
X194436802Y-110970359D01*
X194690802Y-110970359D01*
X194864446Y-111390612D01*
X195185697Y-111712423D01*
X195605646Y-111886801D01*
X196060359Y-111887198D01*
X196480612Y-111713554D01*
X196802423Y-111392303D01*
X196976801Y-110972354D01*
X196977198Y-110517641D01*
X196803554Y-110097388D01*
X196482303Y-109775577D01*
X196062354Y-109601199D01*
X195607641Y-109600802D01*
X195187388Y-109774446D01*
X194865577Y-110095697D01*
X194691199Y-110515646D01*
X194690802Y-110970359D01*
X194436802Y-110970359D01*
X194437198Y-110517641D01*
X194263554Y-110097388D01*
X193942303Y-109775577D01*
X193522354Y-109601199D01*
X193067641Y-109600802D01*
X192647388Y-109774446D01*
X192325577Y-110095697D01*
X192151199Y-110515646D01*
X192150802Y-110970359D01*
X172464069Y-110970359D01*
X170700855Y-109207145D01*
X170461885Y-109047470D01*
X170180000Y-108991400D01*
X164625464Y-108991400D01*
X164880259Y-108737049D01*
X165023637Y-108391758D01*
X165023963Y-108017882D01*
X164881188Y-107672341D01*
X164651079Y-107441830D01*
X164880259Y-107213049D01*
X165023637Y-106867758D01*
X165023963Y-106493882D01*
X164985420Y-106400600D01*
X169786416Y-106400600D01*
X169748363Y-106492242D01*
X169748037Y-106866118D01*
X169890812Y-107211659D01*
X170154951Y-107476259D01*
X170500242Y-107619637D01*
X170586002Y-107619712D01*
X172912145Y-109945855D01*
X173151115Y-110105530D01*
X173433000Y-110161600D01*
X173484885Y-110161600D01*
X173492582Y-110180229D01*
X173867796Y-110556098D01*
X174358287Y-110759768D01*
X174889383Y-110760231D01*
X175380229Y-110557418D01*
X175756098Y-110182204D01*
X175959768Y-109691713D01*
X175960231Y-109160617D01*
X175757418Y-108669771D01*
X175382204Y-108293902D01*
X174891713Y-108090232D01*
X174360617Y-108089769D01*
X173869771Y-108292582D01*
X173605801Y-108556091D01*
X172972069Y-107922359D01*
X180974802Y-107922359D01*
X181148446Y-108342612D01*
X181469697Y-108664423D01*
X181889646Y-108838801D01*
X182344359Y-108839198D01*
X182764612Y-108665554D01*
X183086423Y-108344303D01*
X183260801Y-107924354D01*
X183260802Y-107922359D01*
X183514802Y-107922359D01*
X183688446Y-108342612D01*
X184009697Y-108664423D01*
X184429646Y-108838801D01*
X184884359Y-108839198D01*
X185304612Y-108665554D01*
X185626423Y-108344303D01*
X185800801Y-107924354D01*
X185801198Y-107469641D01*
X185627554Y-107049388D01*
X185306303Y-106727577D01*
X184886354Y-106553199D01*
X184431641Y-106552802D01*
X184011388Y-106726446D01*
X183689577Y-107047697D01*
X183515199Y-107467646D01*
X183514802Y-107922359D01*
X183260802Y-107922359D01*
X183261198Y-107469641D01*
X183087554Y-107049388D01*
X182766303Y-106727577D01*
X182346354Y-106553199D01*
X181891641Y-106552802D01*
X181471388Y-106726446D01*
X181149577Y-107047697D01*
X180975199Y-107467646D01*
X180974802Y-107922359D01*
X172972069Y-107922359D01*
X171627889Y-106578179D01*
X171627963Y-106493882D01*
X171589420Y-106400600D01*
X175547103Y-106400600D01*
X175828988Y-106344530D01*
X176067958Y-106184855D01*
X176648053Y-105604760D01*
X176892550Y-106054026D01*
X177318239Y-106398059D01*
X177843180Y-106553000D01*
X178181000Y-106553000D01*
X178181000Y-105283000D01*
X178435000Y-105283000D01*
X178435000Y-106553000D01*
X178772820Y-106553000D01*
X179297761Y-106398059D01*
X179723450Y-106054026D01*
X179985080Y-105573277D01*
X180000040Y-105499070D01*
X179933872Y-105382359D01*
X191642802Y-105382359D01*
X191816446Y-105802612D01*
X192137697Y-106124423D01*
X192557646Y-106298801D01*
X193012359Y-106299198D01*
X193432612Y-106125554D01*
X193754423Y-105804303D01*
X193928801Y-105384354D01*
X193928802Y-105382359D01*
X194182802Y-105382359D01*
X194356446Y-105802612D01*
X194677697Y-106124423D01*
X195097646Y-106298801D01*
X195552359Y-106299198D01*
X195972612Y-106125554D01*
X196294423Y-105804303D01*
X196468801Y-105384354D01*
X196469198Y-104929641D01*
X196333866Y-104602109D01*
X198919741Y-104602109D01*
X199076793Y-104982204D01*
X199367346Y-105273265D01*
X199747166Y-105430980D01*
X200158429Y-105431339D01*
X200538524Y-105274287D01*
X200829585Y-104983734D01*
X200987300Y-104603914D01*
X200987659Y-104192651D01*
X200830607Y-103812556D01*
X200540054Y-103521495D01*
X200160234Y-103363780D01*
X199748971Y-103363421D01*
X199368876Y-103520473D01*
X199077815Y-103811026D01*
X198920100Y-104190846D01*
X198919741Y-104602109D01*
X196333866Y-104602109D01*
X196295554Y-104509388D01*
X195974303Y-104187577D01*
X195554354Y-104013199D01*
X195099641Y-104012802D01*
X194679388Y-104186446D01*
X194357577Y-104507697D01*
X194183199Y-104927646D01*
X194182802Y-105382359D01*
X193928802Y-105382359D01*
X193929198Y-104929641D01*
X193755554Y-104509388D01*
X193434303Y-104187577D01*
X193014354Y-104013199D01*
X192559641Y-104012802D01*
X192139388Y-104186446D01*
X191817577Y-104507697D01*
X191643199Y-104927646D01*
X191642802Y-105382359D01*
X179933872Y-105382359D01*
X179877540Y-105283000D01*
X178435000Y-105283000D01*
X178181000Y-105283000D01*
X178161000Y-105283000D01*
X178161000Y-105029000D01*
X178181000Y-105029000D01*
X178181000Y-105009000D01*
X178435000Y-105009000D01*
X178435000Y-105029000D01*
X179877540Y-105029000D01*
X180000040Y-104812930D01*
X179985080Y-104738723D01*
X179811306Y-104419410D01*
X183157577Y-104419410D01*
X183439462Y-104363340D01*
X183678432Y-104203665D01*
X185022659Y-102859438D01*
X185106956Y-102859512D01*
X185452497Y-102716737D01*
X185717097Y-102452598D01*
X185860475Y-102107307D01*
X185860801Y-101733431D01*
X185718026Y-101387890D01*
X185577731Y-101247350D01*
X185708259Y-101117049D01*
X185851637Y-100771758D01*
X185851963Y-100397882D01*
X185709188Y-100052341D01*
X185445049Y-99787741D01*
X185099758Y-99644363D01*
X185013998Y-99644288D01*
X184505921Y-99136211D01*
X185161883Y-99136211D01*
X188295386Y-102269714D01*
X188534356Y-102429389D01*
X188614663Y-102445363D01*
X188714244Y-102545118D01*
X189059535Y-102688496D01*
X189433411Y-102688822D01*
X189778952Y-102546047D01*
X190043552Y-102281908D01*
X190186930Y-101936617D01*
X190187256Y-101562741D01*
X190044481Y-101217200D01*
X189908569Y-101081051D01*
X189908810Y-100804809D01*
X198917201Y-100804809D01*
X199074253Y-101184904D01*
X199364806Y-101475965D01*
X199744626Y-101633680D01*
X200155889Y-101634039D01*
X200535984Y-101476987D01*
X200827045Y-101186434D01*
X200984760Y-100806614D01*
X200985119Y-100395351D01*
X200828067Y-100015256D01*
X200537514Y-99724195D01*
X200157694Y-99566480D01*
X199746431Y-99566121D01*
X199366336Y-99723173D01*
X199075275Y-100013726D01*
X198917560Y-100393546D01*
X198917201Y-100804809D01*
X189908810Y-100804809D01*
X189908815Y-100799109D01*
X189766040Y-100453568D01*
X189501901Y-100188968D01*
X189156610Y-100045590D01*
X189070850Y-100045515D01*
X186548480Y-97523145D01*
X186475827Y-97474600D01*
X188179447Y-97474600D01*
X188216838Y-97673317D01*
X188355910Y-97889441D01*
X188568110Y-98034431D01*
X188820000Y-98085440D01*
X190420000Y-98085440D01*
X190655317Y-98041162D01*
X190871441Y-97902090D01*
X191016431Y-97689890D01*
X191067440Y-97438000D01*
X191067440Y-96038000D01*
X191023162Y-95802683D01*
X190884090Y-95586559D01*
X190671890Y-95441569D01*
X190420000Y-95390560D01*
X188820000Y-95390560D01*
X188584683Y-95434838D01*
X188368559Y-95573910D01*
X188223569Y-95786110D01*
X188179972Y-96001400D01*
X182660553Y-96001400D01*
X182623162Y-95802683D01*
X182499671Y-95610773D01*
X182616431Y-95439890D01*
X182667440Y-95188000D01*
X182667440Y-93788000D01*
X182623162Y-93552683D01*
X182497941Y-93358084D01*
X182558327Y-93297699D01*
X182655000Y-93064310D01*
X182655000Y-92523750D01*
X188185000Y-92523750D01*
X188185000Y-93064310D01*
X188281673Y-93297699D01*
X188460302Y-93476327D01*
X188693691Y-93573000D01*
X189334250Y-93573000D01*
X189493000Y-93414250D01*
X189493000Y-92365000D01*
X189747000Y-92365000D01*
X189747000Y-93414250D01*
X189905750Y-93573000D01*
X190546309Y-93573000D01*
X190779698Y-93476327D01*
X190958327Y-93297699D01*
X191055000Y-93064310D01*
X191055000Y-92523750D01*
X190896250Y-92365000D01*
X189747000Y-92365000D01*
X189493000Y-92365000D01*
X188343750Y-92365000D01*
X188185000Y-92523750D01*
X182655000Y-92523750D01*
X182496250Y-92365000D01*
X181347000Y-92365000D01*
X181347000Y-92385000D01*
X181093000Y-92385000D01*
X181093000Y-92365000D01*
X179943750Y-92365000D01*
X179785000Y-92523750D01*
X179785000Y-93064310D01*
X179881673Y-93297699D01*
X179943930Y-93359956D01*
X179823569Y-93536110D01*
X179772560Y-93788000D01*
X179772560Y-95188000D01*
X179816838Y-95423317D01*
X179940329Y-95615227D01*
X179823569Y-95786110D01*
X179772560Y-96038000D01*
X179772560Y-96196658D01*
X179511758Y-96088363D01*
X179137882Y-96088037D01*
X178792341Y-96230812D01*
X178527741Y-96494951D01*
X178384363Y-96840242D01*
X178384037Y-97214118D01*
X178422580Y-97307400D01*
X176570296Y-97307400D01*
X176204878Y-96941982D01*
X176238846Y-96908073D01*
X176488206Y-96307547D01*
X176488774Y-95657306D01*
X176240462Y-95056345D01*
X175895520Y-94710801D01*
X176238846Y-94368073D01*
X176488206Y-93767547D01*
X176488774Y-93117306D01*
X176240462Y-92516345D01*
X175781073Y-92056154D01*
X175180547Y-91806794D01*
X174530306Y-91806226D01*
X173929345Y-92054538D01*
X173469154Y-92513927D01*
X173219794Y-93114453D01*
X173219226Y-93764694D01*
X173467538Y-94365655D01*
X173812480Y-94711199D01*
X173469154Y-95053927D01*
X173219794Y-95654453D01*
X173219238Y-96291400D01*
X154066394Y-96291400D01*
X154066401Y-96283062D01*
X153923626Y-95937521D01*
X153863038Y-95876827D01*
X153863038Y-94574672D01*
X154533821Y-93903889D01*
X154618118Y-93903963D01*
X154963659Y-93761188D01*
X155228259Y-93497049D01*
X155371637Y-93151758D01*
X155371963Y-92777882D01*
X155229188Y-92432341D01*
X154965049Y-92167741D01*
X154619758Y-92024363D01*
X154245882Y-92024037D01*
X153900341Y-92166812D01*
X153635741Y-92430951D01*
X153492363Y-92776242D01*
X153492288Y-92862002D01*
X152605583Y-93748707D01*
X152445908Y-93987677D01*
X152389838Y-94269562D01*
X152389838Y-95876576D01*
X152330179Y-95936131D01*
X152186801Y-96281422D01*
X152186792Y-96291400D01*
X150799956Y-96291400D01*
X150799963Y-96283062D01*
X150657188Y-95937521D01*
X150596600Y-95876827D01*
X150596600Y-95301110D01*
X151993821Y-93903889D01*
X152078118Y-93903963D01*
X152423659Y-93761188D01*
X152688259Y-93497049D01*
X152831637Y-93151758D01*
X152831963Y-92777882D01*
X152689188Y-92432341D01*
X152425049Y-92167741D01*
X152079758Y-92024363D01*
X151705882Y-92024037D01*
X151360341Y-92166812D01*
X151095741Y-92430951D01*
X150952363Y-92776242D01*
X150952288Y-92862002D01*
X149339145Y-94475145D01*
X149214643Y-94661476D01*
X149133188Y-94464341D01*
X149020600Y-94351557D01*
X149020600Y-91411690D01*
X179785000Y-91411690D01*
X179785000Y-91952250D01*
X179943750Y-92111000D01*
X181093000Y-92111000D01*
X181093000Y-91061750D01*
X181347000Y-91061750D01*
X181347000Y-92111000D01*
X182496250Y-92111000D01*
X182655000Y-91952250D01*
X182655000Y-91411690D01*
X188185000Y-91411690D01*
X188185000Y-91952250D01*
X188343750Y-92111000D01*
X189493000Y-92111000D01*
X189493000Y-91061750D01*
X189747000Y-91061750D01*
X189747000Y-92111000D01*
X190896250Y-92111000D01*
X191055000Y-91952250D01*
X191055000Y-91411690D01*
X190958327Y-91178301D01*
X190779698Y-90999673D01*
X190546309Y-90903000D01*
X189905750Y-90903000D01*
X189747000Y-91061750D01*
X189493000Y-91061750D01*
X189334250Y-90903000D01*
X188693691Y-90903000D01*
X188460302Y-90999673D01*
X188281673Y-91178301D01*
X188185000Y-91411690D01*
X182655000Y-91411690D01*
X182558327Y-91178301D01*
X182379698Y-90999673D01*
X182146309Y-90903000D01*
X181505750Y-90903000D01*
X181347000Y-91061750D01*
X181093000Y-91061750D01*
X180934250Y-90903000D01*
X180293691Y-90903000D01*
X180060302Y-90999673D01*
X179881673Y-91178301D01*
X179785000Y-91411690D01*
X149020600Y-91411690D01*
X149020600Y-91218200D01*
X149074303Y-91196010D01*
X149467629Y-90803370D01*
X149553949Y-90595488D01*
X149638990Y-90801303D01*
X150031630Y-91194629D01*
X150544900Y-91407757D01*
X151100661Y-91408242D01*
X151614303Y-91196010D01*
X152007629Y-90803370D01*
X152093949Y-90595488D01*
X152178990Y-90801303D01*
X152571630Y-91194629D01*
X153084900Y-91407757D01*
X153640661Y-91408242D01*
X154154303Y-91196010D01*
X154547629Y-90803370D01*
X154633949Y-90595488D01*
X154718990Y-90801303D01*
X155111630Y-91194629D01*
X155624900Y-91407757D01*
X156180661Y-91408242D01*
X156694303Y-91196010D01*
X157087629Y-90803370D01*
X157300757Y-90290100D01*
X157301242Y-89734339D01*
X157089010Y-89220697D01*
X156696370Y-88827371D01*
X156183100Y-88614243D01*
X155627339Y-88613758D01*
X155113697Y-88825990D01*
X154720371Y-89218630D01*
X154634051Y-89426512D01*
X154549010Y-89220697D01*
X154156370Y-88827371D01*
X153643100Y-88614243D01*
X153087339Y-88613758D01*
X152573697Y-88825990D01*
X152180371Y-89218630D01*
X152094051Y-89426512D01*
X152009010Y-89220697D01*
X151616370Y-88827371D01*
X151103100Y-88614243D01*
X150547339Y-88613758D01*
X150033697Y-88825990D01*
X149640371Y-89218630D01*
X149554051Y-89426512D01*
X149469010Y-89220697D01*
X149076370Y-88827371D01*
X148563100Y-88614243D01*
X148007339Y-88613758D01*
X147493697Y-88825990D01*
X147100371Y-89218630D01*
X147014051Y-89426512D01*
X146929010Y-89220697D01*
X146536370Y-88827371D01*
X146023100Y-88614243D01*
X145467339Y-88613758D01*
X144953697Y-88825990D01*
X144560371Y-89218630D01*
X144474051Y-89426512D01*
X144389010Y-89220697D01*
X143996370Y-88827371D01*
X143483100Y-88614243D01*
X142927339Y-88613758D01*
X142413697Y-88825990D01*
X142020371Y-89218630D01*
X141934051Y-89426512D01*
X141849010Y-89220697D01*
X141456370Y-88827371D01*
X140943100Y-88614243D01*
X140387339Y-88613758D01*
X139873697Y-88825990D01*
X139480371Y-89218630D01*
X139394051Y-89426512D01*
X139309010Y-89220697D01*
X138916370Y-88827371D01*
X138403100Y-88614243D01*
X137847339Y-88613758D01*
X137333697Y-88825990D01*
X136940371Y-89218630D01*
X136854051Y-89426512D01*
X136769010Y-89220697D01*
X136376370Y-88827371D01*
X135863100Y-88614243D01*
X135307339Y-88613758D01*
X134793697Y-88825990D01*
X134400371Y-89218630D01*
X134314051Y-89426512D01*
X134229010Y-89220697D01*
X133836370Y-88827371D01*
X133323100Y-88614243D01*
X132767339Y-88613758D01*
X132253697Y-88825990D01*
X131860371Y-89218630D01*
X131774051Y-89426512D01*
X131689010Y-89220697D01*
X131296370Y-88827371D01*
X130783100Y-88614243D01*
X130227339Y-88613758D01*
X129713697Y-88825990D01*
X129320371Y-89218630D01*
X129234051Y-89426512D01*
X129149010Y-89220697D01*
X128756370Y-88827371D01*
X128243100Y-88614243D01*
X127687339Y-88613758D01*
X127173697Y-88825990D01*
X126780371Y-89218630D01*
X126694051Y-89426512D01*
X126609010Y-89220697D01*
X126216370Y-88827371D01*
X125703100Y-88614243D01*
X125147339Y-88613758D01*
X124633697Y-88825990D01*
X124240371Y-89218630D01*
X124154051Y-89426512D01*
X124069010Y-89220697D01*
X123676370Y-88827371D01*
X123163100Y-88614243D01*
X122607339Y-88613758D01*
X122093697Y-88825990D01*
X121700371Y-89218630D01*
X121614051Y-89426512D01*
X121529010Y-89220697D01*
X121136370Y-88827371D01*
X120623100Y-88614243D01*
X120067339Y-88613758D01*
X119553697Y-88825990D01*
X119160371Y-89218630D01*
X119074051Y-89426512D01*
X118989010Y-89220697D01*
X118596370Y-88827371D01*
X118083100Y-88614243D01*
X117527339Y-88613758D01*
X117013697Y-88825990D01*
X116620371Y-89218630D01*
X116407243Y-89731900D01*
X116406758Y-90287661D01*
X116618990Y-90801303D01*
X117011630Y-91194629D01*
X117524900Y-91407757D01*
X118080661Y-91408242D01*
X118164496Y-91373602D01*
X118284114Y-91453529D01*
X118565999Y-91509599D01*
X119297207Y-91509599D01*
X123367741Y-95580133D01*
X123257882Y-95580037D01*
X122912341Y-95722812D01*
X122647741Y-95986951D01*
X122504363Y-96332242D01*
X122504288Y-96418002D01*
X120078346Y-98843944D01*
X119918671Y-99082914D01*
X119862601Y-99364799D01*
X119862601Y-102387400D01*
X116416604Y-102387400D01*
X116357049Y-102327741D01*
X116011758Y-102184363D01*
X115637882Y-102184037D01*
X115292341Y-102326812D01*
X115027741Y-102590951D01*
X114884363Y-102936242D01*
X114884037Y-103310118D01*
X114922580Y-103403400D01*
X106764604Y-103403400D01*
X106705049Y-103343741D01*
X106359758Y-103200363D01*
X105985882Y-103200037D01*
X105640341Y-103342812D01*
X105584283Y-103398773D01*
X105556982Y-103253683D01*
X105417910Y-103037559D01*
X105205710Y-102892569D01*
X104989276Y-102848740D01*
X105213635Y-102698828D01*
X105516467Y-102245609D01*
X105622807Y-101711000D01*
X105516467Y-101176391D01*
X105213635Y-100723172D01*
X104778394Y-100432353D01*
X104843761Y-100413059D01*
X105269450Y-100069026D01*
X105531080Y-99588277D01*
X105546040Y-99514070D01*
X105423540Y-99298000D01*
X103981000Y-99298000D01*
X103981000Y-99318000D01*
X103727000Y-99318000D01*
X103727000Y-99298000D01*
X103707000Y-99298000D01*
X103707000Y-99044000D01*
X103727000Y-99044000D01*
X103727000Y-97774000D01*
X103981000Y-97774000D01*
X103981000Y-99044000D01*
X105423540Y-99044000D01*
X105546040Y-98827930D01*
X105531080Y-98753723D01*
X105269450Y-98272974D01*
X104843761Y-97928941D01*
X104318820Y-97774000D01*
X103981000Y-97774000D01*
X103727000Y-97774000D01*
X103389180Y-97774000D01*
X102864239Y-97928941D01*
X102438550Y-98272974D01*
X102180439Y-98747257D01*
X102180439Y-86157137D01*
X108050490Y-86157137D01*
X108080878Y-86151092D01*
X108111685Y-86154398D01*
X108498575Y-86119696D01*
X108558132Y-86102195D01*
X108620041Y-86097632D01*
X108979945Y-85998055D01*
X109035655Y-85970017D01*
X109096007Y-85954291D01*
X109421344Y-85796633D01*
X109471924Y-85758373D01*
X109529324Y-85731397D01*
X109812508Y-85522448D01*
X109856659Y-85473974D01*
X109909638Y-85435340D01*
X110143091Y-85181894D01*
X110178935Y-85123168D01*
X110225351Y-85072378D01*
X110401492Y-84781226D01*
X110426231Y-84712970D01*
X110462865Y-84650293D01*
X110574108Y-84328232D01*
X110584407Y-84253098D01*
X110607389Y-84180823D01*
X110646155Y-83834641D01*
X110642888Y-83796225D01*
X110650410Y-83758410D01*
X110650410Y-80309469D01*
X131856057Y-80309469D01*
X131862665Y-80378141D01*
X131856057Y-80446813D01*
X131880751Y-80691895D01*
X131900899Y-80757780D01*
X131908095Y-80826302D01*
X131978955Y-81054572D01*
X132011135Y-81113852D01*
X132031128Y-81178269D01*
X132143250Y-81384836D01*
X132185562Y-81435724D01*
X132216911Y-81494006D01*
X132365405Y-81673983D01*
X132416294Y-81715523D01*
X132457830Y-81766407D01*
X132637806Y-81914901D01*
X132696088Y-81946250D01*
X132746977Y-81988563D01*
X132953543Y-82100684D01*
X133017961Y-82120677D01*
X133077239Y-82152856D01*
X133305508Y-82223716D01*
X133374030Y-82230912D01*
X133439914Y-82251060D01*
X133684996Y-82275755D01*
X133753670Y-82269147D01*
X133822344Y-82275755D01*
X134067426Y-82251060D01*
X134133310Y-82230912D01*
X134201831Y-82223716D01*
X134430101Y-82152856D01*
X134489380Y-82120676D01*
X134553795Y-82100684D01*
X134760362Y-81988563D01*
X134811249Y-81946252D01*
X134869537Y-81914900D01*
X135049512Y-81766406D01*
X135091051Y-81715519D01*
X135141933Y-81673984D01*
X135290428Y-81494008D01*
X135321779Y-81435722D01*
X135364092Y-81384833D01*
X135476213Y-81178266D01*
X135496205Y-81113851D01*
X135528385Y-81054572D01*
X135599245Y-80826303D01*
X135606441Y-80757781D01*
X135626589Y-80691897D01*
X135651284Y-80446815D01*
X135647955Y-80412224D01*
X135654735Y-80378141D01*
X135647955Y-80344058D01*
X135651283Y-80309469D01*
X167889781Y-80309469D01*
X167896389Y-80378141D01*
X167889781Y-80446813D01*
X167914475Y-80691895D01*
X167934623Y-80757780D01*
X167941819Y-80826302D01*
X168012679Y-81054572D01*
X168044858Y-81113850D01*
X168064850Y-81178265D01*
X168176972Y-81384835D01*
X168219284Y-81435724D01*
X168250636Y-81494011D01*
X168399130Y-81673986D01*
X168450018Y-81715526D01*
X168491557Y-81766412D01*
X168671533Y-81914903D01*
X168729815Y-81946252D01*
X168780705Y-81988565D01*
X168987274Y-82100686D01*
X169051690Y-82120678D01*
X169110966Y-82152856D01*
X169339235Y-82223716D01*
X169407757Y-82230912D01*
X169473641Y-82251060D01*
X169718723Y-82275755D01*
X169787397Y-82269147D01*
X169856071Y-82275755D01*
X170101153Y-82251060D01*
X170167037Y-82230912D01*
X170235558Y-82223716D01*
X170463828Y-82152856D01*
X170523106Y-82120677D01*
X170587524Y-82100684D01*
X170794089Y-81988563D01*
X170844977Y-81946251D01*
X170903261Y-81914901D01*
X171083238Y-81766407D01*
X171124778Y-81715518D01*
X171175662Y-81673982D01*
X171324156Y-81494006D01*
X171355505Y-81435724D01*
X171397817Y-81384836D01*
X171509939Y-81178268D01*
X171529931Y-81113853D01*
X171562112Y-81054572D01*
X171632972Y-80826303D01*
X171640168Y-80757781D01*
X171660316Y-80691897D01*
X171685011Y-80446815D01*
X171681682Y-80412224D01*
X171688462Y-80378141D01*
X171681682Y-80344058D01*
X171685011Y-80309467D01*
X171660316Y-80064385D01*
X171640167Y-79998498D01*
X171632971Y-79929978D01*
X171562111Y-79701710D01*
X171529932Y-79642432D01*
X171509939Y-79578015D01*
X171397817Y-79371447D01*
X171355505Y-79320559D01*
X171324156Y-79262277D01*
X171175662Y-79082301D01*
X171124778Y-79040765D01*
X171083238Y-78989876D01*
X170903261Y-78841382D01*
X170844977Y-78810032D01*
X170794089Y-78767720D01*
X170587524Y-78655599D01*
X170523107Y-78635607D01*
X170463831Y-78603428D01*
X170235561Y-78532567D01*
X170167038Y-78525370D01*
X170101151Y-78505222D01*
X169856069Y-78480528D01*
X169787397Y-78487136D01*
X169718725Y-78480528D01*
X169473643Y-78505222D01*
X169407759Y-78525369D01*
X169339241Y-78532565D01*
X169110971Y-78603423D01*
X169051695Y-78635601D01*
X168987274Y-78655594D01*
X168780705Y-78767715D01*
X168729815Y-78810028D01*
X168671530Y-78841379D01*
X168491554Y-78989873D01*
X168450018Y-79040757D01*
X168399129Y-79082297D01*
X168250635Y-79262274D01*
X168219285Y-79320559D01*
X168176972Y-79371448D01*
X168064850Y-79578018D01*
X168044858Y-79642433D01*
X168012679Y-79701710D01*
X167941820Y-79929979D01*
X167934624Y-79998499D01*
X167914475Y-80064387D01*
X167889781Y-80309469D01*
X135651283Y-80309469D01*
X135651284Y-80309467D01*
X135626589Y-80064385D01*
X135606440Y-79998498D01*
X135599244Y-79929978D01*
X135528384Y-79701710D01*
X135496206Y-79642434D01*
X135476213Y-79578017D01*
X135364092Y-79371450D01*
X135321779Y-79320561D01*
X135290428Y-79262275D01*
X135141933Y-79082299D01*
X135091051Y-79040764D01*
X135049512Y-78989877D01*
X134869537Y-78841383D01*
X134811249Y-78810031D01*
X134760362Y-78767720D01*
X134553795Y-78655599D01*
X134489381Y-78635607D01*
X134430104Y-78603428D01*
X134201834Y-78532567D01*
X134133311Y-78525370D01*
X134067424Y-78505222D01*
X133822342Y-78480528D01*
X133753670Y-78487136D01*
X133684998Y-78480528D01*
X133439916Y-78505222D01*
X133374029Y-78525370D01*
X133305506Y-78532567D01*
X133077236Y-78603428D01*
X133017960Y-78635607D01*
X132953543Y-78655599D01*
X132746977Y-78767720D01*
X132696088Y-78810033D01*
X132637806Y-78841382D01*
X132457830Y-78989876D01*
X132416294Y-79040760D01*
X132365405Y-79082300D01*
X132216911Y-79262277D01*
X132185562Y-79320559D01*
X132143250Y-79371447D01*
X132031128Y-79578014D01*
X132011136Y-79642431D01*
X131978955Y-79701710D01*
X131908096Y-79929979D01*
X131900900Y-79998499D01*
X131880751Y-80064387D01*
X131856057Y-80309469D01*
X110650410Y-80309469D01*
X110650410Y-77786934D01*
X123252064Y-77786934D01*
X123252064Y-78319017D01*
G36*
X120615741Y-105130951D02*
X120472363Y-105476242D01*
X120472037Y-105850118D01*
X120614812Y-106195659D01*
X120878951Y-106460259D01*
X121224242Y-106603637D01*
X121310002Y-106603712D01*
X121691400Y-106985110D01*
X121691400Y-107103396D01*
X121631741Y-107162951D01*
X121488363Y-107508242D01*
X121488037Y-107882118D01*
X121630812Y-108227659D01*
X121894951Y-108492259D01*
X122240242Y-108635637D01*
X122326002Y-108635712D01*
X122504111Y-108813821D01*
X122504037Y-108898118D01*
X122646812Y-109243659D01*
X122910951Y-109508259D01*
X123256242Y-109651637D01*
X123630118Y-109651963D01*
X123975659Y-109509188D01*
X124206170Y-109279079D01*
X124434951Y-109508259D01*
X124780242Y-109651637D01*
X124866002Y-109651712D01*
X126771400Y-111557110D01*
X126771400Y-113707396D01*
X126711741Y-113766951D01*
X126568363Y-114112242D01*
X126568037Y-114486118D01*
X126710812Y-114831659D01*
X126974951Y-115096259D01*
X127320242Y-115239637D01*
X127406002Y-115239712D01*
X138417145Y-126250855D01*
X138656115Y-126410530D01*
X138938000Y-126466600D01*
X142100560Y-126466600D01*
X142100560Y-126829820D01*
X142144838Y-127065137D01*
X142283910Y-127281261D01*
X142406773Y-127365210D01*
X129844279Y-127365210D01*
X129844279Y-126688158D01*
X129792136Y-126426020D01*
X129643647Y-126203790D01*
X129421417Y-126055301D01*
X129159279Y-126003158D01*
X127338615Y-126003158D01*
X127076477Y-126055301D01*
X126854247Y-126203790D01*
X126705758Y-126426020D01*
X126653615Y-126688158D01*
X126653615Y-127365210D01*
X126442177Y-127365210D01*
X126442177Y-126688158D01*
X126390034Y-126426020D01*
X126241545Y-126203790D01*
X126019315Y-126055301D01*
X125757177Y-126003158D01*
X123937064Y-126003158D01*
X123674926Y-126055301D01*
X123452696Y-126203790D01*
X123304207Y-126426020D01*
X123252064Y-126688158D01*
X123252064Y-127365210D01*
X110650410Y-127365210D01*
X110650410Y-124557889D01*
X131856057Y-124557889D01*
X131862665Y-124626561D01*
X131856057Y-124695233D01*
X131880751Y-124940315D01*
X131900899Y-125006200D01*
X131908095Y-125074722D01*
X131978955Y-125302992D01*
X132011135Y-125362272D01*
X132031128Y-125426689D01*
X132143250Y-125633256D01*
X132185562Y-125684144D01*
X132216911Y-125742426D01*
X132365405Y-125922403D01*
X132416294Y-125963943D01*
X132457830Y-126014827D01*
X132637806Y-126163321D01*
X132696088Y-126194670D01*
X132746977Y-126236983D01*
X132953543Y-126349104D01*
X133017961Y-126369097D01*
X133077239Y-126401276D01*
X133305508Y-126472136D01*
X133374030Y-126479332D01*
X133439914Y-126499480D01*
X133684996Y-126524175D01*
X133753670Y-126517567D01*
X133822344Y-126524175D01*
X134067426Y-126499480D01*
X134133310Y-126479332D01*
X134201831Y-126472136D01*
X134430101Y-126401276D01*
X134489380Y-126369096D01*
X134553795Y-126349104D01*
X134760362Y-126236983D01*
X134811249Y-126194672D01*
X134869537Y-126163320D01*
X135049512Y-126014826D01*
X135091051Y-125963939D01*
X135141933Y-125922404D01*
X135290428Y-125742428D01*
X135321779Y-125684142D01*
X135364092Y-125633253D01*
X135476213Y-125426686D01*
X135496205Y-125362271D01*
X135528385Y-125302992D01*
X135599245Y-125074723D01*
X135606441Y-125006201D01*
X135626589Y-124940317D01*
X135651284Y-124695235D01*
X135647955Y-124660644D01*
X135654735Y-124626561D01*
X135647955Y-124592478D01*
X135651284Y-124557887D01*
X135626589Y-124312805D01*
X135606440Y-124246918D01*
X135599244Y-124178398D01*
X135528384Y-123950130D01*
X135496206Y-123890854D01*
X135476213Y-123826437D01*
X135364092Y-123619870D01*
X135321779Y-123568981D01*
X135290428Y-123510695D01*
X135141933Y-123330719D01*
X135091051Y-123289184D01*
X135049512Y-123238297D01*
X134869537Y-123089803D01*
X134811252Y-123058453D01*
X134760365Y-123016141D01*
X134553798Y-122904019D01*
X134489381Y-122884026D01*
X134430101Y-122851846D01*
X134201831Y-122780986D01*
X134133309Y-122773790D01*
X134067424Y-122753642D01*
X133822342Y-122728948D01*
X133753670Y-122735556D01*
X133684998Y-122728948D01*
X133439916Y-122753642D01*
X133374032Y-122773790D01*
X133305508Y-122780986D01*
X133077239Y-122851846D01*
X133017961Y-122884025D01*
X132953541Y-122904019D01*
X132746975Y-123016142D01*
X132696089Y-123058452D01*
X132637806Y-123089802D01*
X132457830Y-123238296D01*
X132416294Y-123289180D01*
X132365405Y-123330720D01*
X132216911Y-123510697D01*
X132185562Y-123568979D01*
X132143250Y-123619867D01*
X132031128Y-123826434D01*
X132011136Y-123890851D01*
X131978955Y-123950130D01*
X131908096Y-124178399D01*
X131900900Y-124246919D01*
X131880751Y-124312807D01*
X131856057Y-124557889D01*
X110650410Y-124557889D01*
X110650410Y-121253726D01*
X110642887Y-121215908D01*
X110646154Y-121177490D01*
X110607388Y-120831333D01*
X110584401Y-120759044D01*
X110574095Y-120683891D01*
X110462852Y-120361890D01*
X110426200Y-120299190D01*
X110401443Y-120230914D01*
X110225302Y-119939853D01*
X110178867Y-119889055D01*
X110143000Y-119830319D01*
X109909546Y-119576973D01*
X109856553Y-119538344D01*
X109812380Y-119489869D01*
X109529195Y-119281022D01*
X109471793Y-119254062D01*
X109421208Y-119215815D01*
X109095872Y-119058246D01*
X109035538Y-119042539D01*
X108979840Y-119014518D01*
X108619935Y-118915003D01*
X108558062Y-118910453D01*
X108498535Y-118892964D01*
X108111645Y-118858285D01*
X108080857Y-118861591D01*
X108050490Y-118855550D01*
X102180439Y-118855550D01*
X102180439Y-109543694D01*
X109490226Y-109543694D01*
X109738538Y-110144655D01*
X110197927Y-110604846D01*
X110798453Y-110854206D01*
X111448694Y-110854774D01*
X112049655Y-110606462D01*
X112509846Y-110147073D01*
X112759206Y-109546547D01*
X112759208Y-109543694D01*
X114570226Y-109543694D01*
X114818538Y-110144655D01*
X115277927Y-110604846D01*
X115878453Y-110854206D01*
X116528694Y-110854774D01*
X117129655Y-110606462D01*
X117589846Y-110147073D01*
X117839206Y-109546547D01*
X117839774Y-108896306D01*
X117591462Y-108295345D01*
X117132073Y-107835154D01*
X116531547Y-107585794D01*
X115881306Y-107585226D01*
X115280345Y-107833538D01*
X114820154Y-108292927D01*
X114570794Y-108893453D01*
X114570226Y-109543694D01*
X112759208Y-109543694D01*
X112759774Y-108896306D01*
X112511462Y-108295345D01*
X112052073Y-107835154D01*
X111451547Y-107585794D01*
X110801306Y-107585226D01*
X110200345Y-107833538D01*
X109740154Y-108292927D01*
X109490794Y-108893453D01*
X109490226Y-109543694D01*
X102180439Y-109543694D01*
X102180439Y-105294039D01*
X102290090Y-105464441D01*
X102502290Y-105609431D01*
X102754180Y-105660440D01*
X104953820Y-105660440D01*
X105189137Y-105616162D01*
X105405261Y-105477090D01*
X105550251Y-105264890D01*
X105601260Y-105013000D01*
X105601260Y-104898502D01*
X105638951Y-104936259D01*
X105984242Y-105079637D01*
X106358118Y-105079963D01*
X106703659Y-104937188D01*
X106764353Y-104876600D01*
X120870536Y-104876600D01*
X120615741Y-105130951D01*
X120615741Y-105130951D01*
G37*
X120615741Y-105130951D02*
X120472363Y-105476242D01*
X120472037Y-105850118D01*
X120614812Y-106195659D01*
X120878951Y-106460259D01*
X121224242Y-106603637D01*
X121310002Y-106603712D01*
X121691400Y-106985110D01*
X121691400Y-107103396D01*
X121631741Y-107162951D01*
X121488363Y-107508242D01*
X121488037Y-107882118D01*
X121630812Y-108227659D01*
X121894951Y-108492259D01*
X122240242Y-108635637D01*
X122326002Y-108635712D01*
X122504111Y-108813821D01*
X122504037Y-108898118D01*
X122646812Y-109243659D01*
X122910951Y-109508259D01*
X123256242Y-109651637D01*
X123630118Y-109651963D01*
X123975659Y-109509188D01*
X124206170Y-109279079D01*
X124434951Y-109508259D01*
X124780242Y-109651637D01*
X124866002Y-109651712D01*
X126771400Y-111557110D01*
X126771400Y-113707396D01*
X126711741Y-113766951D01*
X126568363Y-114112242D01*
X126568037Y-114486118D01*
X126710812Y-114831659D01*
X126974951Y-115096259D01*
X127320242Y-115239637D01*
X127406002Y-115239712D01*
X138417145Y-126250855D01*
X138656115Y-126410530D01*
X138938000Y-126466600D01*
X142100560Y-126466600D01*
X142100560Y-126829820D01*
X142144838Y-127065137D01*
X142283910Y-127281261D01*
X142406773Y-127365210D01*
X129844279Y-127365210D01*
X129844279Y-126688158D01*
X129792136Y-126426020D01*
X129643647Y-126203790D01*
X129421417Y-126055301D01*
X129159279Y-126003158D01*
X127338615Y-126003158D01*
X127076477Y-126055301D01*
X126854247Y-126203790D01*
X126705758Y-126426020D01*
X126653615Y-126688158D01*
X126653615Y-127365210D01*
X126442177Y-127365210D01*
X126442177Y-126688158D01*
X126390034Y-126426020D01*
X126241545Y-126203790D01*
X126019315Y-126055301D01*
X125757177Y-126003158D01*
X123937064Y-126003158D01*
X123674926Y-126055301D01*
X123452696Y-126203790D01*
X123304207Y-126426020D01*
X123252064Y-126688158D01*
X123252064Y-127365210D01*
X110650410Y-127365210D01*
X110650410Y-124557889D01*
X131856057Y-124557889D01*
X131862665Y-124626561D01*
X131856057Y-124695233D01*
X131880751Y-124940315D01*
X131900899Y-125006200D01*
X131908095Y-125074722D01*
X131978955Y-125302992D01*
X132011135Y-125362272D01*
X132031128Y-125426689D01*
X132143250Y-125633256D01*
X132185562Y-125684144D01*
X132216911Y-125742426D01*
X132365405Y-125922403D01*
X132416294Y-125963943D01*
X132457830Y-126014827D01*
X132637806Y-126163321D01*
X132696088Y-126194670D01*
X132746977Y-126236983D01*
X132953543Y-126349104D01*
X133017961Y-126369097D01*
X133077239Y-126401276D01*
X133305508Y-126472136D01*
X133374030Y-126479332D01*
X133439914Y-126499480D01*
X133684996Y-126524175D01*
X133753670Y-126517567D01*
X133822344Y-126524175D01*
X134067426Y-126499480D01*
X134133310Y-126479332D01*
X134201831Y-126472136D01*
X134430101Y-126401276D01*
X134489380Y-126369096D01*
X134553795Y-126349104D01*
X134760362Y-126236983D01*
X134811249Y-126194672D01*
X134869537Y-126163320D01*
X135049512Y-126014826D01*
X135091051Y-125963939D01*
X135141933Y-125922404D01*
X135290428Y-125742428D01*
X135321779Y-125684142D01*
X135364092Y-125633253D01*
X135476213Y-125426686D01*
X135496205Y-125362271D01*
X135528385Y-125302992D01*
X135599245Y-125074723D01*
X135606441Y-125006201D01*
X135626589Y-124940317D01*
X135651284Y-124695235D01*
X135647955Y-124660644D01*
X135654735Y-124626561D01*
X135647955Y-124592478D01*
X135651284Y-124557887D01*
X135626589Y-124312805D01*
X135606440Y-124246918D01*
X135599244Y-124178398D01*
X135528384Y-123950130D01*
X135496206Y-123890854D01*
X135476213Y-123826437D01*
X135364092Y-123619870D01*
X135321779Y-123568981D01*
X135290428Y-123510695D01*
X135141933Y-123330719D01*
X135091051Y-123289184D01*
X135049512Y-123238297D01*
X134869537Y-123089803D01*
X134811252Y-123058453D01*
X134760365Y-123016141D01*
X134553798Y-122904019D01*
X134489381Y-122884026D01*
X134430101Y-122851846D01*
X134201831Y-122780986D01*
X134133309Y-122773790D01*
X134067424Y-122753642D01*
X133822342Y-122728948D01*
X133753670Y-122735556D01*
X133684998Y-122728948D01*
X133439916Y-122753642D01*
X133374032Y-122773790D01*
X133305508Y-122780986D01*
X133077239Y-122851846D01*
X133017961Y-122884025D01*
X132953541Y-122904019D01*
X132746975Y-123016142D01*
X132696089Y-123058452D01*
X132637806Y-123089802D01*
X132457830Y-123238296D01*
X132416294Y-123289180D01*
X132365405Y-123330720D01*
X132216911Y-123510697D01*
X132185562Y-123568979D01*
X132143250Y-123619867D01*
X132031128Y-123826434D01*
X132011136Y-123890851D01*
X131978955Y-123950130D01*
X131908096Y-124178399D01*
X131900900Y-124246919D01*
X131880751Y-124312807D01*
X131856057Y-124557889D01*
X110650410Y-124557889D01*
X110650410Y-121253726D01*
X110642887Y-121215908D01*
X110646154Y-121177490D01*
X110607388Y-120831333D01*
X110584401Y-120759044D01*
X110574095Y-120683891D01*
X110462852Y-120361890D01*
X110426200Y-120299190D01*
X110401443Y-120230914D01*
X110225302Y-119939853D01*
X110178867Y-119889055D01*
X110143000Y-119830319D01*
X109909546Y-119576973D01*
X109856553Y-119538344D01*
X109812380Y-119489869D01*
X109529195Y-119281022D01*
X109471793Y-119254062D01*
X109421208Y-119215815D01*
X109095872Y-119058246D01*
X109035538Y-119042539D01*
X108979840Y-119014518D01*
X108619935Y-118915003D01*
X108558062Y-118910453D01*
X108498535Y-118892964D01*
X108111645Y-118858285D01*
X108080857Y-118861591D01*
X108050490Y-118855550D01*
X102180439Y-118855550D01*
X102180439Y-109543694D01*
X109490226Y-109543694D01*
X109738538Y-110144655D01*
X110197927Y-110604846D01*
X110798453Y-110854206D01*
X111448694Y-110854774D01*
X112049655Y-110606462D01*
X112509846Y-110147073D01*
X112759206Y-109546547D01*
X112759208Y-109543694D01*
X114570226Y-109543694D01*
X114818538Y-110144655D01*
X115277927Y-110604846D01*
X115878453Y-110854206D01*
X116528694Y-110854774D01*
X117129655Y-110606462D01*
X117589846Y-110147073D01*
X117839206Y-109546547D01*
X117839774Y-108896306D01*
X117591462Y-108295345D01*
X117132073Y-107835154D01*
X116531547Y-107585794D01*
X115881306Y-107585226D01*
X115280345Y-107833538D01*
X114820154Y-108292927D01*
X114570794Y-108893453D01*
X114570226Y-109543694D01*
X112759208Y-109543694D01*
X112759774Y-108896306D01*
X112511462Y-108295345D01*
X112052073Y-107835154D01*
X111451547Y-107585794D01*
X110801306Y-107585226D01*
X110200345Y-107833538D01*
X109740154Y-108292927D01*
X109490794Y-108893453D01*
X109490226Y-109543694D01*
X102180439Y-109543694D01*
X102180439Y-105294039D01*
X102290090Y-105464441D01*
X102502290Y-105609431D01*
X102754180Y-105660440D01*
X104953820Y-105660440D01*
X105189137Y-105616162D01*
X105405261Y-105477090D01*
X105550251Y-105264890D01*
X105601260Y-105013000D01*
X105601260Y-104898502D01*
X105638951Y-104936259D01*
X105984242Y-105079637D01*
X106358118Y-105079963D01*
X106703659Y-104937188D01*
X106764353Y-104876600D01*
X120870536Y-104876600D01*
X120615741Y-105130951D01*
G36*
X132867400Y-111874416D02*
X132775758Y-111836363D01*
X132401882Y-111836037D01*
X132056341Y-111978812D01*
X131791741Y-112242951D01*
X131648363Y-112588242D01*
X131648288Y-112674002D01*
X129286000Y-115036290D01*
X128447889Y-114198179D01*
X128447963Y-114113882D01*
X128305188Y-113768341D01*
X128244600Y-113707647D01*
X128244600Y-111639597D01*
X128647463Y-112042460D01*
X128647389Y-112126757D01*
X128790164Y-112472298D01*
X129054303Y-112736898D01*
X129399594Y-112880276D01*
X129773470Y-112880602D01*
X130119011Y-112737827D01*
X130383611Y-112473688D01*
X130526989Y-112128397D01*
X130527315Y-111754521D01*
X130384540Y-111408980D01*
X130120401Y-111144380D01*
X129775110Y-111001002D01*
X129689350Y-111000927D01*
X129153023Y-110464600D01*
X129859026Y-110464600D01*
X130140911Y-110408530D01*
X130379881Y-110248855D01*
X132867400Y-107761336D01*
X132867400Y-111874416D01*
X132867400Y-111874416D01*
G37*
X132867400Y-111874416D02*
X132775758Y-111836363D01*
X132401882Y-111836037D01*
X132056341Y-111978812D01*
X131791741Y-112242951D01*
X131648363Y-112588242D01*
X131648288Y-112674002D01*
X129286000Y-115036290D01*
X128447889Y-114198179D01*
X128447963Y-114113882D01*
X128305188Y-113768341D01*
X128244600Y-113707647D01*
X128244600Y-111639597D01*
X128647463Y-112042460D01*
X128647389Y-112126757D01*
X128790164Y-112472298D01*
X129054303Y-112736898D01*
X129399594Y-112880276D01*
X129773470Y-112880602D01*
X130119011Y-112737827D01*
X130383611Y-112473688D01*
X130526989Y-112128397D01*
X130527315Y-111754521D01*
X130384540Y-111408980D01*
X130120401Y-111144380D01*
X129775110Y-111001002D01*
X129689350Y-111000927D01*
X129153023Y-110464600D01*
X129859026Y-110464600D01*
X130140911Y-110408530D01*
X130379881Y-110248855D01*
X132867400Y-107761336D01*
X132867400Y-111874416D01*
G36*
X163144037Y-108390118D02*
X163286812Y-108735659D01*
X163542107Y-108991400D01*
X141478300Y-108991400D01*
X141147889Y-108660989D01*
X141147963Y-108576692D01*
X141067430Y-108381787D01*
X163144044Y-108381787D01*
X163144037Y-108390118D01*
X163144037Y-108390118D01*
G37*
X163144037Y-108390118D02*
X163286812Y-108735659D01*
X163542107Y-108991400D01*
X141478300Y-108991400D01*
X141147889Y-108660989D01*
X141147963Y-108576692D01*
X141067430Y-108381787D01*
X163144044Y-108381787D01*
X163144037Y-108390118D01*
G36*
X142281295Y-103354826D02*
X142424070Y-103700367D01*
X142688209Y-103964967D01*
X142953534Y-104075140D01*
X143003276Y-104195525D01*
X143267415Y-104460125D01*
X143612706Y-104603503D01*
X143986582Y-104603829D01*
X144332123Y-104461054D01*
X144596723Y-104196915D01*
X144740101Y-103851624D01*
X144740176Y-103765864D01*
X145042439Y-103463601D01*
X154143933Y-103463601D01*
X153911145Y-103619145D01*
X153822179Y-103708111D01*
X153737882Y-103708037D01*
X153392341Y-103850812D01*
X153127741Y-104114951D01*
X152984363Y-104460242D01*
X152984037Y-104834118D01*
X153022580Y-104927400D01*
X140719572Y-104927400D01*
X140770483Y-104906364D01*
X141035083Y-104642225D01*
X141178461Y-104296934D01*
X141178536Y-104211174D01*
X142281510Y-103108200D01*
X142281295Y-103354826D01*
X142281295Y-103354826D01*
G37*
X142281295Y-103354826D02*
X142424070Y-103700367D01*
X142688209Y-103964967D01*
X142953534Y-104075140D01*
X143003276Y-104195525D01*
X143267415Y-104460125D01*
X143612706Y-104603503D01*
X143986582Y-104603829D01*
X144332123Y-104461054D01*
X144596723Y-104196915D01*
X144740101Y-103851624D01*
X144740176Y-103765864D01*
X145042439Y-103463601D01*
X154143933Y-103463601D01*
X153911145Y-103619145D01*
X153822179Y-103708111D01*
X153737882Y-103708037D01*
X153392341Y-103850812D01*
X153127741Y-104114951D01*
X152984363Y-104460242D01*
X152984037Y-104834118D01*
X153022580Y-104927400D01*
X140719572Y-104927400D01*
X140770483Y-104906364D01*
X141035083Y-104642225D01*
X141178461Y-104296934D01*
X141178536Y-104211174D01*
X142281510Y-103108200D01*
X142281295Y-103354826D01*
G36*
X172017243Y-103971900D02*
X172016758Y-104527661D01*
X172181926Y-104927400D01*
X165641464Y-104927400D01*
X165896259Y-104673049D01*
X166039637Y-104327758D01*
X166039963Y-103953882D01*
X165897188Y-103608341D01*
X165752700Y-103463601D01*
X172228307Y-103463601D01*
X172017243Y-103971900D01*
X172017243Y-103971900D01*
G37*
X172017243Y-103971900D02*
X172016758Y-104527661D01*
X172181926Y-104927400D01*
X165641464Y-104927400D01*
X165896259Y-104673049D01*
X166039637Y-104327758D01*
X166039963Y-103953882D01*
X165897188Y-103608341D01*
X165752700Y-103463601D01*
X172228307Y-103463601D01*
X172017243Y-103971900D01*
G36*
X176560740Y-100838000D02*
X176605018Y-101073317D01*
X176744090Y-101289441D01*
X176956290Y-101434431D01*
X177172724Y-101478260D01*
X176948365Y-101628172D01*
X176645533Y-102081391D01*
X176539193Y-102616000D01*
X176645533Y-103150609D01*
X176795037Y-103374356D01*
X175241993Y-104927400D01*
X174645784Y-104927400D01*
X174810757Y-104530100D01*
X174811242Y-103974339D01*
X174600210Y-103463601D01*
X174691819Y-103463601D01*
X174973704Y-103407531D01*
X175212674Y-103247856D01*
X175361821Y-103098709D01*
X175446118Y-103098783D01*
X175791659Y-102956008D01*
X176056259Y-102691869D01*
X176199637Y-102346578D01*
X176199963Y-101972702D01*
X176057188Y-101627161D01*
X175793049Y-101362561D01*
X175447758Y-101219183D01*
X175073882Y-101218857D01*
X174773492Y-101342976D01*
X174599010Y-100920697D01*
X174491102Y-100812600D01*
X174649812Y-100812600D01*
X174931697Y-100756530D01*
X175170667Y-100596855D01*
X176275700Y-99491822D01*
X176560740Y-99491822D01*
X176560740Y-100838000D01*
X176560740Y-100838000D01*
G37*
X176560740Y-100838000D02*
X176605018Y-101073317D01*
X176744090Y-101289441D01*
X176956290Y-101434431D01*
X177172724Y-101478260D01*
X176948365Y-101628172D01*
X176645533Y-102081391D01*
X176539193Y-102616000D01*
X176645533Y-103150609D01*
X176795037Y-103374356D01*
X175241993Y-104927400D01*
X174645784Y-104927400D01*
X174810757Y-104530100D01*
X174811242Y-103974339D01*
X174600210Y-103463601D01*
X174691819Y-103463601D01*
X174973704Y-103407531D01*
X175212674Y-103247856D01*
X175361821Y-103098709D01*
X175446118Y-103098783D01*
X175791659Y-102956008D01*
X176056259Y-102691869D01*
X176199637Y-102346578D01*
X176199963Y-101972702D01*
X176057188Y-101627161D01*
X175793049Y-101362561D01*
X175447758Y-101219183D01*
X175073882Y-101218857D01*
X174773492Y-101342976D01*
X174599010Y-100920697D01*
X174491102Y-100812600D01*
X174649812Y-100812600D01*
X174931697Y-100756530D01*
X175170667Y-100596855D01*
X176275700Y-99491822D01*
X176560740Y-99491822D01*
X176560740Y-100838000D01*
G36*
X174344702Y-99339400D02*
X145572116Y-99339400D01*
X145552585Y-99343285D01*
X144268115Y-99343285D01*
X143986230Y-99399355D01*
X143747260Y-99559030D01*
X140137003Y-103169287D01*
X140052706Y-103169213D01*
X139707165Y-103311988D01*
X139442565Y-103576127D01*
X139299187Y-103921418D01*
X139298861Y-104295294D01*
X139441636Y-104640835D01*
X139627861Y-104827385D01*
X139379758Y-104724363D01*
X139005882Y-104724037D01*
X138912600Y-104762580D01*
X138912600Y-104140000D01*
X138856530Y-103858115D01*
X138696855Y-103619145D01*
X138607889Y-103530179D01*
X138607963Y-103445882D01*
X138465188Y-103100341D01*
X138459607Y-103094750D01*
X138709339Y-103045076D01*
X138948309Y-102885401D01*
X140309821Y-101523889D01*
X140394118Y-101523963D01*
X140739659Y-101381188D01*
X141004259Y-101117049D01*
X141147637Y-100771758D01*
X141147963Y-100397882D01*
X141005188Y-100052341D01*
X140741049Y-99787741D01*
X140586258Y-99723466D01*
X141021124Y-99288600D01*
X174378958Y-99288600D01*
X174399610Y-99284492D01*
X174344702Y-99339400D01*
X174344702Y-99339400D01*
G37*
X174344702Y-99339400D02*
X145572116Y-99339400D01*
X145552585Y-99343285D01*
X144268115Y-99343285D01*
X143986230Y-99399355D01*
X143747260Y-99559030D01*
X140137003Y-103169287D01*
X140052706Y-103169213D01*
X139707165Y-103311988D01*
X139442565Y-103576127D01*
X139299187Y-103921418D01*
X139298861Y-104295294D01*
X139441636Y-104640835D01*
X139627861Y-104827385D01*
X139379758Y-104724363D01*
X139005882Y-104724037D01*
X138912600Y-104762580D01*
X138912600Y-104140000D01*
X138856530Y-103858115D01*
X138696855Y-103619145D01*
X138607889Y-103530179D01*
X138607963Y-103445882D01*
X138465188Y-103100341D01*
X138459607Y-103094750D01*
X138709339Y-103045076D01*
X138948309Y-102885401D01*
X140309821Y-101523889D01*
X140394118Y-101523963D01*
X140739659Y-101381188D01*
X141004259Y-101117049D01*
X141147637Y-100771758D01*
X141147963Y-100397882D01*
X141005188Y-100052341D01*
X140741049Y-99787741D01*
X140586258Y-99723466D01*
X141021124Y-99288600D01*
X174378958Y-99288600D01*
X174399610Y-99284492D01*
X174344702Y-99339400D01*
G36*
X147098990Y-90801303D02*
X147491630Y-91194629D01*
X147547400Y-91217787D01*
X147547400Y-94455305D01*
X147539741Y-94462951D01*
X147396363Y-94808242D01*
X147396037Y-95182118D01*
X147538812Y-95527659D01*
X147802951Y-95792259D01*
X148148242Y-95935637D01*
X148522118Y-95935963D01*
X148867659Y-95793188D01*
X149123400Y-95537893D01*
X149123400Y-95876576D01*
X149063741Y-95936131D01*
X148920363Y-96281422D01*
X148920354Y-96291400D01*
X141338853Y-96291400D01*
X141056968Y-96347470D01*
X140817998Y-96507145D01*
X137774793Y-99550350D01*
X137690496Y-99550276D01*
X137344955Y-99693051D01*
X137080355Y-99957190D01*
X136936977Y-100302481D01*
X136936651Y-100676357D01*
X137079426Y-101021898D01*
X137343565Y-101286498D01*
X137688856Y-101429876D01*
X138062732Y-101430202D01*
X138167232Y-101387023D01*
X138305749Y-101444541D01*
X138122344Y-101627946D01*
X137600428Y-101627946D01*
X137318543Y-101684016D01*
X137116807Y-101818812D01*
X137079573Y-101843691D01*
X136030805Y-102892459D01*
X136067637Y-102803758D01*
X136067963Y-102429882D01*
X135925188Y-102084341D01*
X135661049Y-101819741D01*
X135315758Y-101676363D01*
X135077555Y-101676155D01*
X139293821Y-97459889D01*
X139378118Y-97459963D01*
X139723659Y-97317188D01*
X139988259Y-97053049D01*
X140131637Y-96707758D01*
X140131963Y-96333882D01*
X139989188Y-95988341D01*
X139922071Y-95921107D01*
X140231659Y-95793188D01*
X140496259Y-95529049D01*
X140639637Y-95183758D01*
X140639963Y-94809882D01*
X140497188Y-94464341D01*
X140436600Y-94403647D01*
X140436600Y-93556604D01*
X140496259Y-93497049D01*
X140639637Y-93151758D01*
X140639963Y-92777882D01*
X140497188Y-92432341D01*
X140233049Y-92167741D01*
X139887758Y-92024363D01*
X139513882Y-92024037D01*
X139168341Y-92166812D01*
X138903741Y-92430951D01*
X138760363Y-92776242D01*
X138760037Y-93150118D01*
X138902812Y-93495659D01*
X138963400Y-93556353D01*
X138963400Y-94403396D01*
X138903741Y-94462951D01*
X138760363Y-94808242D01*
X138760037Y-95182118D01*
X138902812Y-95527659D01*
X138969929Y-95594893D01*
X138660341Y-95722812D01*
X138395741Y-95986951D01*
X138252363Y-96332242D01*
X138252288Y-96418002D01*
X133083145Y-101587145D01*
X132923470Y-101826115D01*
X132867400Y-102108000D01*
X132867400Y-103509583D01*
X132844814Y-103486958D01*
X132499523Y-103343580D01*
X132357048Y-103343456D01*
X132288851Y-103297888D01*
X132006966Y-103241818D01*
X132003698Y-103241818D01*
X132003963Y-102937882D01*
X131861188Y-102592341D01*
X131631079Y-102361830D01*
X131860259Y-102133049D01*
X131890688Y-102059768D01*
X132238010Y-102060071D01*
X132583551Y-101917296D01*
X132848151Y-101653157D01*
X132991529Y-101307866D01*
X132991855Y-100933990D01*
X132849080Y-100588449D01*
X132584941Y-100323849D01*
X132309758Y-100209582D01*
X132367572Y-100151869D01*
X132510950Y-99806578D01*
X132511276Y-99432702D01*
X132368501Y-99087161D01*
X132104362Y-98822561D01*
X131759071Y-98679183D01*
X131673311Y-98679108D01*
X131063602Y-98069399D01*
X134315201Y-98069399D01*
X134597086Y-98013329D01*
X134665165Y-97967840D01*
X134806118Y-97967963D01*
X135151659Y-97825188D01*
X135416259Y-97561049D01*
X135559637Y-97215758D01*
X135559963Y-96841882D01*
X135417188Y-96496341D01*
X135153049Y-96231741D01*
X134807758Y-96088363D01*
X134433882Y-96088037D01*
X134195024Y-96186731D01*
X134065554Y-95873388D01*
X133744303Y-95551577D01*
X133324354Y-95377199D01*
X132869641Y-95376802D01*
X132449388Y-95550446D01*
X132216028Y-95783400D01*
X132004354Y-95783400D01*
X132103659Y-95742368D01*
X132368259Y-95478229D01*
X132511637Y-95132938D01*
X132511963Y-94759062D01*
X132369188Y-94413521D01*
X132308600Y-94352827D01*
X132308600Y-93163290D01*
X132363470Y-93439142D01*
X132523145Y-93678112D01*
X133470173Y-94625140D01*
X133470099Y-94709437D01*
X133612874Y-95054978D01*
X133877013Y-95319578D01*
X134222304Y-95462956D01*
X134596180Y-95463282D01*
X134941721Y-95320507D01*
X135204145Y-95058540D01*
X135204037Y-95182118D01*
X135346812Y-95527659D01*
X135610951Y-95792259D01*
X135956242Y-95935637D01*
X136330118Y-95935963D01*
X136652366Y-95802812D01*
X136972242Y-95935637D01*
X137346118Y-95935963D01*
X137691659Y-95793188D01*
X137956259Y-95529049D01*
X138099637Y-95183758D01*
X138099963Y-94809882D01*
X137957188Y-94464341D01*
X137896600Y-94403647D01*
X137896600Y-93556604D01*
X137956259Y-93497049D01*
X138099637Y-93151758D01*
X138099963Y-92777882D01*
X137957188Y-92432341D01*
X137693049Y-92167741D01*
X137347758Y-92024363D01*
X136973882Y-92024037D01*
X136880600Y-92062580D01*
X136880600Y-90659988D01*
X136938990Y-90801303D01*
X137331630Y-91194629D01*
X137844900Y-91407757D01*
X138400661Y-91408242D01*
X138914303Y-91196010D01*
X139307629Y-90803370D01*
X139393949Y-90595488D01*
X139478990Y-90801303D01*
X139871630Y-91194629D01*
X140384900Y-91407757D01*
X140940661Y-91408242D01*
X141454303Y-91196010D01*
X141847629Y-90803370D01*
X141933949Y-90595488D01*
X142018990Y-90801303D01*
X142411630Y-91194629D01*
X142467400Y-91217787D01*
X142467400Y-93218890D01*
X141630179Y-94056111D01*
X141545882Y-94056037D01*
X141200341Y-94198812D01*
X140935741Y-94462951D01*
X140792363Y-94808242D01*
X140792037Y-95182118D01*
X140934812Y-95527659D01*
X141198951Y-95792259D01*
X141544242Y-95935637D01*
X141918118Y-95935963D01*
X142263659Y-95793188D01*
X142528259Y-95529049D01*
X142671637Y-95183758D01*
X142671712Y-95097998D01*
X143724855Y-94044855D01*
X143884530Y-93805885D01*
X143940600Y-93524000D01*
X143940600Y-91218200D01*
X143994303Y-91196010D01*
X144043400Y-91146999D01*
X144043400Y-93844576D01*
X143983741Y-93904131D01*
X143840363Y-94249422D01*
X143840037Y-94623298D01*
X143982812Y-94968839D01*
X144246951Y-95233439D01*
X144592242Y-95376817D01*
X144966118Y-95377143D01*
X145311659Y-95234368D01*
X145576259Y-94970229D01*
X145719637Y-94624938D01*
X145719963Y-94251062D01*
X145577188Y-93905521D01*
X145516600Y-93844827D01*
X145516600Y-91407802D01*
X146020661Y-91408242D01*
X146534303Y-91196010D01*
X146927629Y-90803370D01*
X147013949Y-90595488D01*
X147098990Y-90801303D01*
X147098990Y-90801303D01*
G37*
X147098990Y-90801303D02*
X147491630Y-91194629D01*
X147547400Y-91217787D01*
X147547400Y-94455305D01*
X147539741Y-94462951D01*
X147396363Y-94808242D01*
X147396037Y-95182118D01*
X147538812Y-95527659D01*
X147802951Y-95792259D01*
X148148242Y-95935637D01*
X148522118Y-95935963D01*
X148867659Y-95793188D01*
X149123400Y-95537893D01*
X149123400Y-95876576D01*
X149063741Y-95936131D01*
X148920363Y-96281422D01*
X148920354Y-96291400D01*
X141338853Y-96291400D01*
X141056968Y-96347470D01*
X140817998Y-96507145D01*
X137774793Y-99550350D01*
X137690496Y-99550276D01*
X137344955Y-99693051D01*
X137080355Y-99957190D01*
X136936977Y-100302481D01*
X136936651Y-100676357D01*
X137079426Y-101021898D01*
X137343565Y-101286498D01*
X137688856Y-101429876D01*
X138062732Y-101430202D01*
X138167232Y-101387023D01*
X138305749Y-101444541D01*
X138122344Y-101627946D01*
X137600428Y-101627946D01*
X137318543Y-101684016D01*
X137116807Y-101818812D01*
X137079573Y-101843691D01*
X136030805Y-102892459D01*
X136067637Y-102803758D01*
X136067963Y-102429882D01*
X135925188Y-102084341D01*
X135661049Y-101819741D01*
X135315758Y-101676363D01*
X135077555Y-101676155D01*
X139293821Y-97459889D01*
X139378118Y-97459963D01*
X139723659Y-97317188D01*
X139988259Y-97053049D01*
X140131637Y-96707758D01*
X140131963Y-96333882D01*
X139989188Y-95988341D01*
X139922071Y-95921107D01*
X140231659Y-95793188D01*
X140496259Y-95529049D01*
X140639637Y-95183758D01*
X140639963Y-94809882D01*
X140497188Y-94464341D01*
X140436600Y-94403647D01*
X140436600Y-93556604D01*
X140496259Y-93497049D01*
X140639637Y-93151758D01*
X140639963Y-92777882D01*
X140497188Y-92432341D01*
X140233049Y-92167741D01*
X139887758Y-92024363D01*
X139513882Y-92024037D01*
X139168341Y-92166812D01*
X138903741Y-92430951D01*
X138760363Y-92776242D01*
X138760037Y-93150118D01*
X138902812Y-93495659D01*
X138963400Y-93556353D01*
X138963400Y-94403396D01*
X138903741Y-94462951D01*
X138760363Y-94808242D01*
X138760037Y-95182118D01*
X138902812Y-95527659D01*
X138969929Y-95594893D01*
X138660341Y-95722812D01*
X138395741Y-95986951D01*
X138252363Y-96332242D01*
X138252288Y-96418002D01*
X133083145Y-101587145D01*
X132923470Y-101826115D01*
X132867400Y-102108000D01*
X132867400Y-103509583D01*
X132844814Y-103486958D01*
X132499523Y-103343580D01*
X132357048Y-103343456D01*
X132288851Y-103297888D01*
X132006966Y-103241818D01*
X132003698Y-103241818D01*
X132003963Y-102937882D01*
X131861188Y-102592341D01*
X131631079Y-102361830D01*
X131860259Y-102133049D01*
X131890688Y-102059768D01*
X132238010Y-102060071D01*
X132583551Y-101917296D01*
X132848151Y-101653157D01*
X132991529Y-101307866D01*
X132991855Y-100933990D01*
X132849080Y-100588449D01*
X132584941Y-100323849D01*
X132309758Y-100209582D01*
X132367572Y-100151869D01*
X132510950Y-99806578D01*
X132511276Y-99432702D01*
X132368501Y-99087161D01*
X132104362Y-98822561D01*
X131759071Y-98679183D01*
X131673311Y-98679108D01*
X131063602Y-98069399D01*
X134315201Y-98069399D01*
X134597086Y-98013329D01*
X134665165Y-97967840D01*
X134806118Y-97967963D01*
X135151659Y-97825188D01*
X135416259Y-97561049D01*
X135559637Y-97215758D01*
X135559963Y-96841882D01*
X135417188Y-96496341D01*
X135153049Y-96231741D01*
X134807758Y-96088363D01*
X134433882Y-96088037D01*
X134195024Y-96186731D01*
X134065554Y-95873388D01*
X133744303Y-95551577D01*
X133324354Y-95377199D01*
X132869641Y-95376802D01*
X132449388Y-95550446D01*
X132216028Y-95783400D01*
X132004354Y-95783400D01*
X132103659Y-95742368D01*
X132368259Y-95478229D01*
X132511637Y-95132938D01*
X132511963Y-94759062D01*
X132369188Y-94413521D01*
X132308600Y-94352827D01*
X132308600Y-93163290D01*
X132363470Y-93439142D01*
X132523145Y-93678112D01*
X133470173Y-94625140D01*
X133470099Y-94709437D01*
X133612874Y-95054978D01*
X133877013Y-95319578D01*
X134222304Y-95462956D01*
X134596180Y-95463282D01*
X134941721Y-95320507D01*
X135204145Y-95058540D01*
X135204037Y-95182118D01*
X135346812Y-95527659D01*
X135610951Y-95792259D01*
X135956242Y-95935637D01*
X136330118Y-95935963D01*
X136652366Y-95802812D01*
X136972242Y-95935637D01*
X137346118Y-95935963D01*
X137691659Y-95793188D01*
X137956259Y-95529049D01*
X138099637Y-95183758D01*
X138099963Y-94809882D01*
X137957188Y-94464341D01*
X137896600Y-94403647D01*
X137896600Y-93556604D01*
X137956259Y-93497049D01*
X138099637Y-93151758D01*
X138099963Y-92777882D01*
X137957188Y-92432341D01*
X137693049Y-92167741D01*
X137347758Y-92024363D01*
X136973882Y-92024037D01*
X136880600Y-92062580D01*
X136880600Y-90659988D01*
X136938990Y-90801303D01*
X137331630Y-91194629D01*
X137844900Y-91407757D01*
X138400661Y-91408242D01*
X138914303Y-91196010D01*
X139307629Y-90803370D01*
X139393949Y-90595488D01*
X139478990Y-90801303D01*
X139871630Y-91194629D01*
X140384900Y-91407757D01*
X140940661Y-91408242D01*
X141454303Y-91196010D01*
X141847629Y-90803370D01*
X141933949Y-90595488D01*
X142018990Y-90801303D01*
X142411630Y-91194629D01*
X142467400Y-91217787D01*
X142467400Y-93218890D01*
X141630179Y-94056111D01*
X141545882Y-94056037D01*
X141200341Y-94198812D01*
X140935741Y-94462951D01*
X140792363Y-94808242D01*
X140792037Y-95182118D01*
X140934812Y-95527659D01*
X141198951Y-95792259D01*
X141544242Y-95935637D01*
X141918118Y-95935963D01*
X142263659Y-95793188D01*
X142528259Y-95529049D01*
X142671637Y-95183758D01*
X142671712Y-95097998D01*
X143724855Y-94044855D01*
X143884530Y-93805885D01*
X143940600Y-93524000D01*
X143940600Y-91218200D01*
X143994303Y-91196010D01*
X144043400Y-91146999D01*
X144043400Y-93844576D01*
X143983741Y-93904131D01*
X143840363Y-94249422D01*
X143840037Y-94623298D01*
X143982812Y-94968839D01*
X144246951Y-95233439D01*
X144592242Y-95376817D01*
X144966118Y-95377143D01*
X145311659Y-95234368D01*
X145576259Y-94970229D01*
X145719637Y-94624938D01*
X145719963Y-94251062D01*
X145577188Y-93905521D01*
X145516600Y-93844827D01*
X145516600Y-91407802D01*
X146020661Y-91408242D01*
X146534303Y-91196010D01*
X146927629Y-90803370D01*
X147013949Y-90595488D01*
X147098990Y-90801303D01*
G36*
X172230371Y-100918630D02*
X172017243Y-101431900D01*
X172016758Y-101987661D01*
X172017890Y-101990401D01*
X155371903Y-101990401D01*
X155371963Y-101921882D01*
X155229188Y-101576341D01*
X154965049Y-101311741D01*
X154780226Y-101234995D01*
X154690371Y-101017531D01*
X154485797Y-100812600D01*
X172336586Y-100812600D01*
X172230371Y-100918630D01*
X172230371Y-100918630D01*
G37*
X172230371Y-100918630D02*
X172017243Y-101431900D01*
X172016758Y-101987661D01*
X172017890Y-101990401D01*
X155371903Y-101990401D01*
X155371963Y-101921882D01*
X155229188Y-101576341D01*
X154965049Y-101311741D01*
X154780226Y-101234995D01*
X154690371Y-101017531D01*
X154485797Y-100812600D01*
X172336586Y-100812600D01*
X172230371Y-100918630D01*
M02*
