%TF.GenerationSoftware,KiCad,Pcbnew,(2015-12-30 BZR 6409)-product*%
%TF.CreationDate,2016-01-04T10:25:45+01:00*%
%TF.ProjectId,transmitter,7472616E736D69747465722E6B696361,rev?*%
%TF.FileFunction,Copper,L2,Bot,Signal*%
%FSLAX46Y46*%
G04 Gerber Fmt 4.6, Leading zero omitted, Abs format (unit mm)*
G04 Created by KiCad (PCBNEW (2015-12-30 BZR 6409)-product) date pon, 4 sty 2016, 10:25:45*
%MOMM*%
G01*
G04 APERTURE LIST*
%ADD10C,0.100000*%
%ADD11C,0.300000*%
%ADD12R,1.897380X1.897380*%
%ADD13R,1.348740X0.398780*%
%ADD14R,1.346200X0.398780*%
%ADD15R,1.000760X0.899160*%
%ADD16R,2.000000X1.900000*%
%ADD17C,1.900000*%
%ADD18O,2.200000X1.100000*%
%ADD19R,0.899160X1.000760*%
%ADD20R,2.692400X1.600200*%
%ADD21R,1.000000X0.250000*%
%ADD22R,1.524000X2.199640*%
%ADD23O,1.524000X2.199640*%
%ADD24R,2.499360X1.950720*%
%ADD25C,1.524000*%
%ADD26C,1.016000*%
%ADD27R,2.199640X1.524000*%
%ADD28O,2.199640X1.524000*%
%ADD29R,1.600200X2.692400*%
%ADD30C,1.320800*%
%ADD31R,1.500000X0.600000*%
%ADD32R,1.000000X0.600000*%
%ADD33C,0.711200*%
%ADD34C,0.203200*%
%ADD35C,0.406400*%
%ADD36C,0.254000*%
G04 APERTURE END LIST*
D10*
D11*
X88022142Y-109263571D02*
X88022142Y-107763571D01*
X87450713Y-108263571D02*
X87164999Y-109263571D01*
X86879285Y-108549286D01*
X86593570Y-109263571D01*
X86307856Y-108263571D01*
X85093570Y-109263571D02*
X85093570Y-108477857D01*
X85164999Y-108335000D01*
X85307856Y-108263571D01*
X85593570Y-108263571D01*
X85736427Y-108335000D01*
X85093570Y-109192143D02*
X85236427Y-109263571D01*
X85593570Y-109263571D01*
X85736427Y-109192143D01*
X85807856Y-109049286D01*
X85807856Y-108906429D01*
X85736427Y-108763571D01*
X85593570Y-108692143D01*
X85236427Y-108692143D01*
X85093570Y-108620714D01*
X84450713Y-109192143D02*
X84307856Y-109263571D01*
X84022141Y-109263571D01*
X83879284Y-109192143D01*
X83807856Y-109049286D01*
X83807856Y-108977857D01*
X83879284Y-108835000D01*
X84022141Y-108763571D01*
X84236427Y-108763571D01*
X84379284Y-108692143D01*
X84450713Y-108549286D01*
X84450713Y-108477857D01*
X84379284Y-108335000D01*
X84236427Y-108263571D01*
X84022141Y-108263571D01*
X83879284Y-108335000D01*
X83307855Y-108263571D02*
X82522141Y-108263571D01*
X83307855Y-109263571D01*
X82522141Y-109263571D01*
X80879284Y-107906429D02*
X80807855Y-107835000D01*
X80664998Y-107763571D01*
X80307855Y-107763571D01*
X80164998Y-107835000D01*
X80093569Y-107906429D01*
X80022141Y-108049286D01*
X80022141Y-108192143D01*
X80093569Y-108406429D01*
X80950712Y-109263571D01*
X80022141Y-109263571D01*
X79093570Y-107763571D02*
X78950713Y-107763571D01*
X78807856Y-107835000D01*
X78736427Y-107906429D01*
X78664998Y-108049286D01*
X78593570Y-108335000D01*
X78593570Y-108692143D01*
X78664998Y-108977857D01*
X78736427Y-109120714D01*
X78807856Y-109192143D01*
X78950713Y-109263571D01*
X79093570Y-109263571D01*
X79236427Y-109192143D01*
X79307856Y-109120714D01*
X79379284Y-108977857D01*
X79450713Y-108692143D01*
X79450713Y-108335000D01*
X79379284Y-108049286D01*
X79307856Y-107906429D01*
X79236427Y-107835000D01*
X79093570Y-107763571D01*
X77164999Y-109263571D02*
X78022142Y-109263571D01*
X77593570Y-109263571D02*
X77593570Y-107763571D01*
X77736427Y-107977857D01*
X77879285Y-108120714D01*
X78022142Y-108192143D01*
X75879285Y-107763571D02*
X76164999Y-107763571D01*
X76307856Y-107835000D01*
X76379285Y-107906429D01*
X76522142Y-108120714D01*
X76593571Y-108406429D01*
X76593571Y-108977857D01*
X76522142Y-109120714D01*
X76450714Y-109192143D01*
X76307856Y-109263571D01*
X76022142Y-109263571D01*
X75879285Y-109192143D01*
X75807856Y-109120714D01*
X75736428Y-108977857D01*
X75736428Y-108620714D01*
X75807856Y-108477857D01*
X75879285Y-108406429D01*
X76022142Y-108335000D01*
X76307856Y-108335000D01*
X76450714Y-108406429D01*
X76522142Y-108477857D01*
X76593571Y-108620714D01*
D12*
X138616000Y-99544120D03*
X138616000Y-101941880D03*
X138616000Y-104692700D03*
X138616000Y-96793300D03*
D13*
X135941380Y-99442520D03*
D14*
X135941380Y-100095300D03*
X135941380Y-100743000D03*
X135941380Y-101390700D03*
X135941380Y-102043480D03*
D15*
X107950000Y-107431840D03*
X107950000Y-105928160D03*
X106045000Y-101716840D03*
X106045000Y-100213160D03*
X95885000Y-106796840D03*
X95885000Y-105293160D03*
D16*
X60626000Y-105268000D03*
D17*
X60626000Y-107808000D03*
D18*
X67310000Y-97155000D03*
X67310000Y-95885000D03*
X67310000Y-94615000D03*
X67310000Y-88900000D03*
X67310000Y-90170000D03*
X67310000Y-91440000D03*
D19*
X130291840Y-112395000D03*
X128788160Y-112395000D03*
X130926840Y-106680000D03*
X129423160Y-106680000D03*
X124978160Y-112395000D03*
X126481840Y-112395000D03*
D15*
X93980000Y-106796840D03*
X93980000Y-105293160D03*
D19*
X71638160Y-92710000D03*
X73141840Y-92710000D03*
D15*
X75565000Y-90921840D03*
X75565000Y-89418160D03*
D20*
X72390000Y-97917000D03*
X72390000Y-95123000D03*
D21*
X129748100Y-108220000D03*
X129748100Y-108720000D03*
X129748100Y-109220000D03*
X129748100Y-109720000D03*
X129748100Y-110220000D03*
X125521900Y-110220000D03*
X125521900Y-109720000D03*
X125521900Y-109220000D03*
X125521900Y-108720000D03*
X125521900Y-108220000D03*
D22*
X122555000Y-107950000D03*
D23*
X120015000Y-107950000D03*
D16*
X60626000Y-97805000D03*
D17*
X60626000Y-100345000D03*
D15*
X95885000Y-101716840D03*
X95885000Y-100213160D03*
X107950000Y-101716840D03*
X107950000Y-100213160D03*
D24*
X132715000Y-97409000D03*
X132715000Y-94361000D03*
X72390000Y-104394000D03*
X72390000Y-101346000D03*
D25*
X133000000Y-111760000D03*
X133000000Y-109220000D03*
X133000000Y-106680000D03*
D16*
X66040000Y-101600000D03*
D17*
X66040000Y-104140000D03*
D22*
X127635000Y-116205000D03*
D23*
X125095000Y-116205000D03*
X122555000Y-116205000D03*
D26*
X99695000Y-111760000D03*
X102235000Y-111760000D03*
X123825000Y-119380000D03*
X126365000Y-119380000D03*
X118745000Y-100330000D03*
X118745000Y-102870000D03*
X123190000Y-111125000D03*
X120650000Y-111125000D03*
D22*
X106045000Y-111760000D03*
D23*
X108585000Y-111760000D03*
D26*
X99695000Y-97790000D03*
X102235000Y-97790000D03*
D27*
X62230000Y-93345000D03*
D28*
X62230000Y-90805000D03*
D22*
X66040000Y-113030000D03*
D23*
X68580000Y-113030000D03*
D26*
X67310000Y-86360000D03*
X64770000Y-86360000D03*
X55245000Y-105410000D03*
X55245000Y-107950000D03*
D27*
X76200000Y-94615000D03*
D28*
X76200000Y-97155000D03*
D29*
X65913000Y-109220000D03*
X68707000Y-109220000D03*
D30*
X62865000Y-117475000D03*
X73025000Y-117475000D03*
D25*
X129540000Y-89789000D03*
X127000000Y-94869000D03*
X129540000Y-102235000D03*
X124460000Y-89789000D03*
X121920000Y-94869000D03*
X124460000Y-102235000D03*
D31*
X110330000Y-107950000D03*
X110330000Y-106680000D03*
X110330000Y-105410000D03*
X110330000Y-104140000D03*
X110330000Y-102870000D03*
X110330000Y-101600000D03*
X110330000Y-100330000D03*
X115730000Y-100330000D03*
X115730000Y-101600000D03*
X115730000Y-102870000D03*
X115730000Y-104140000D03*
X115730000Y-105410000D03*
X115730000Y-106680000D03*
X115730000Y-107950000D03*
X98265000Y-107950000D03*
X98265000Y-106680000D03*
X98265000Y-105410000D03*
X98265000Y-104140000D03*
X98265000Y-102870000D03*
X98265000Y-101600000D03*
X98265000Y-100330000D03*
X103665000Y-100330000D03*
X103665000Y-101600000D03*
X103665000Y-102870000D03*
X103665000Y-104140000D03*
X103665000Y-105410000D03*
X103665000Y-106680000D03*
X103665000Y-107950000D03*
D32*
X73490000Y-88900000D03*
X71290000Y-88900000D03*
X71290000Y-90805000D03*
X73490000Y-90805000D03*
D33*
X112933822Y-102773822D03*
X121920000Y-101600000D03*
X120396000Y-96520000D03*
X117571178Y-98267178D03*
X63373000Y-115189000D03*
X61341000Y-112395000D03*
X57658000Y-111633000D03*
X54229000Y-111125000D03*
X53213000Y-103251000D03*
X57277000Y-102743000D03*
X56515000Y-100203000D03*
X56769000Y-96774000D03*
X57277000Y-93853000D03*
X64516000Y-97155000D03*
X68453000Y-99314000D03*
X69977000Y-105283000D03*
X73660000Y-111379000D03*
X135890000Y-110871000D03*
X137414000Y-109220000D03*
X136398000Y-107569000D03*
X121539000Y-118872000D03*
X118110000Y-118618000D03*
X114554000Y-116967000D03*
X116078000Y-112522000D03*
X114046000Y-111252000D03*
X112014000Y-113919000D03*
X108331000Y-115824000D03*
X106807000Y-119380000D03*
X104648000Y-115951000D03*
X101727000Y-119507000D03*
X100457000Y-116078000D03*
X97028000Y-118745000D03*
X96266000Y-115570000D03*
X94234000Y-118999000D03*
X94234000Y-111633000D03*
X91059000Y-114173000D03*
X88519000Y-118872000D03*
X88011000Y-115697000D03*
X83185000Y-119507000D03*
X83947000Y-116205000D03*
X76835000Y-112776000D03*
X88138000Y-113157000D03*
X90297000Y-110363000D03*
X89027000Y-106299000D03*
X82550000Y-106045000D03*
X77724000Y-105664000D03*
X92456000Y-102235000D03*
X94234000Y-96901000D03*
X89535000Y-103124000D03*
X90678000Y-96901000D03*
X87376000Y-102362000D03*
X86106000Y-97663000D03*
X84074000Y-103505000D03*
X82550000Y-98044000D03*
X79248000Y-101473000D03*
X81280000Y-96012000D03*
X129159000Y-95631000D03*
X129794000Y-93980000D03*
X128905000Y-92202000D03*
X130175000Y-87503000D03*
X127381000Y-87630000D03*
X124206000Y-87757000D03*
X122047000Y-87630000D03*
X116078000Y-87249000D03*
X113792000Y-86487000D03*
X111760000Y-90678000D03*
X110490000Y-91821000D03*
X108966000Y-88392000D03*
X107442000Y-90805000D03*
X107061000Y-87376000D03*
X104648000Y-90297000D03*
X104521000Y-86741000D03*
X101473000Y-90678000D03*
X100584000Y-86233000D03*
X98806000Y-89662000D03*
X96393000Y-86106000D03*
X93599000Y-88773000D03*
X92075000Y-86360000D03*
X89916000Y-89281000D03*
X87757000Y-86106000D03*
X85598000Y-89281000D03*
X83312000Y-85725000D03*
X97028000Y-98806000D03*
X98044000Y-97155000D03*
X98425000Y-95123000D03*
X96520000Y-93980000D03*
X94107000Y-93853000D03*
X91567000Y-93726000D03*
X89916000Y-93853000D03*
X88011000Y-93980000D03*
X85471000Y-94107000D03*
X81915000Y-93980000D03*
X78867000Y-93980000D03*
X78232000Y-91440000D03*
X79629000Y-91440000D03*
X82042000Y-91313000D03*
X85725000Y-91313000D03*
X88773000Y-91059000D03*
X91694000Y-91313000D03*
X94615000Y-91440000D03*
X97409000Y-91440000D03*
X99822000Y-92202000D03*
X101219000Y-93726000D03*
X103124000Y-95504000D03*
X114554000Y-98171000D03*
X111887000Y-101092000D03*
X117348000Y-101473000D03*
X117475000Y-104013000D03*
X104013000Y-97790000D03*
X104521000Y-96647000D03*
X106934000Y-96647000D03*
X110871000Y-96647000D03*
X109299234Y-98679010D03*
X99695000Y-100457000D03*
X103759000Y-99339410D03*
X69850000Y-100457000D03*
X69977000Y-97917000D03*
X69850000Y-91567000D03*
X65922232Y-93081768D03*
X64516000Y-94361000D03*
X126746000Y-111252000D03*
X129540000Y-110998000D03*
X134112000Y-102108000D03*
X129794000Y-98298000D03*
X123952000Y-93218000D03*
X111760000Y-105410000D03*
X106680000Y-104140000D03*
X92202000Y-106934000D03*
X117094000Y-95250000D03*
X112014000Y-106680000D03*
X100330000Y-105918000D03*
X101600000Y-101346000D03*
X70358000Y-94488000D03*
X76962000Y-91440000D03*
D34*
X111887000Y-101092000D02*
X111887000Y-101727000D01*
X111887000Y-101727000D02*
X112933822Y-102773822D01*
X120396000Y-96520000D02*
X120396000Y-100076000D01*
X120396000Y-100076000D02*
X121920000Y-101600000D01*
X117348000Y-101473000D02*
X117348000Y-98490356D01*
X117348000Y-98490356D02*
X117571178Y-98267178D01*
X61341000Y-112395000D02*
X63373000Y-114427000D01*
X63373000Y-114427000D02*
X63373000Y-115189000D01*
X54229000Y-111125000D02*
X57150000Y-111125000D01*
X57150000Y-111125000D02*
X57658000Y-111633000D01*
X57277000Y-102743000D02*
X53721000Y-102743000D01*
X53721000Y-102743000D02*
X53213000Y-103251000D01*
X56769000Y-96774000D02*
X56769000Y-99949000D01*
X56769000Y-99949000D02*
X56515000Y-100203000D01*
X62230000Y-93345000D02*
X57785000Y-93345000D01*
X57785000Y-93345000D02*
X57277000Y-93853000D01*
X64516000Y-97155000D02*
X64516000Y-94361000D01*
X69850000Y-100457000D02*
X69596000Y-100457000D01*
X69596000Y-100457000D02*
X68453000Y-99314000D01*
X69977000Y-105283000D02*
X69977000Y-100584000D01*
X69977000Y-100584000D02*
X69850000Y-100457000D01*
X76835000Y-112776000D02*
X75057000Y-112776000D01*
X75057000Y-112776000D02*
X73660000Y-111379000D01*
X137414000Y-109220000D02*
X135890000Y-110744000D01*
X135890000Y-110744000D02*
X135890000Y-110871000D01*
X134112000Y-102108000D02*
X136398000Y-104394000D01*
X136398000Y-104394000D02*
X136398000Y-107569000D01*
X122555000Y-116205000D02*
X122555000Y-117856000D01*
X122555000Y-117856000D02*
X121539000Y-118872000D01*
X121539000Y-118872000D02*
X123317001Y-118872001D01*
X123317001Y-118872001D02*
X123825000Y-119380000D01*
X114554000Y-116967000D02*
X116459000Y-116967000D01*
X116459000Y-116967000D02*
X118110000Y-118618000D01*
X114046000Y-111252000D02*
X114808000Y-111252000D01*
X114808000Y-111252000D02*
X116078000Y-112522000D01*
X108331000Y-115824000D02*
X110109000Y-115824000D01*
X110109000Y-115824000D02*
X112014000Y-113919000D01*
X104648000Y-115951000D02*
X104648000Y-117221000D01*
X104648000Y-117221000D02*
X106807000Y-119380000D01*
X100457000Y-116078000D02*
X100457000Y-118237000D01*
X100457000Y-118237000D02*
X101727000Y-119507000D01*
X96266000Y-115570000D02*
X97028000Y-116332000D01*
X97028000Y-116332000D02*
X97028000Y-118745000D01*
X94234000Y-111633000D02*
X94234000Y-118999000D01*
X88519000Y-118872000D02*
X91059000Y-116332000D01*
X91059000Y-116332000D02*
X91059000Y-114173000D01*
X83185000Y-119507000D02*
X84201000Y-119507000D01*
X84201000Y-119507000D02*
X88011000Y-115697000D01*
X76835000Y-112776000D02*
X80518000Y-112776000D01*
X80518000Y-112776000D02*
X83947000Y-116205000D01*
X90297000Y-110363000D02*
X90297000Y-110998000D01*
X90297000Y-110998000D02*
X88138000Y-113157000D01*
X82550000Y-106045000D02*
X88773000Y-106045000D01*
X88773000Y-106045000D02*
X89027000Y-106299000D01*
X92456000Y-102235000D02*
X81153000Y-102235000D01*
X81153000Y-102235000D02*
X77724000Y-105664000D01*
X89535000Y-103124000D02*
X89535000Y-101600000D01*
X89535000Y-101600000D02*
X94234000Y-96901000D01*
X87376000Y-102362000D02*
X87376000Y-100203000D01*
X87376000Y-100203000D02*
X90678000Y-96901000D01*
X85852000Y-101727000D02*
X85852000Y-97917000D01*
X85852000Y-97917000D02*
X86106000Y-97663000D01*
X84074000Y-103505000D02*
X85852000Y-101727000D01*
X79248000Y-101473000D02*
X82550000Y-98171000D01*
X82550000Y-98171000D02*
X82550000Y-98044000D01*
X81915000Y-93980000D02*
X81915000Y-95377000D01*
X81915000Y-95377000D02*
X81280000Y-96012000D01*
X129159000Y-95631000D02*
X129794000Y-96266000D01*
X129794000Y-96266000D02*
X129794000Y-97007680D01*
X128905000Y-92202000D02*
X128905000Y-93091000D01*
X128905000Y-93091000D02*
X129794000Y-93980000D01*
X127381000Y-87630000D02*
X130048000Y-87630000D01*
X130048000Y-87630000D02*
X130175000Y-87503000D01*
X122047000Y-87630000D02*
X124079000Y-87630000D01*
X124079000Y-87630000D02*
X124206000Y-87757000D01*
X113792000Y-86487000D02*
X115316000Y-86487000D01*
X115316000Y-86487000D02*
X116078000Y-87249000D01*
X110490000Y-91821000D02*
X110617000Y-91821000D01*
X110617000Y-91821000D02*
X111760000Y-90678000D01*
X107442000Y-90805000D02*
X107442000Y-89916000D01*
X107442000Y-89916000D02*
X108966000Y-88392000D01*
X104648000Y-90297000D02*
X104648000Y-89789000D01*
X104648000Y-89789000D02*
X107061000Y-87376000D01*
X101473000Y-90678000D02*
X101473000Y-89789000D01*
X101473000Y-89789000D02*
X104521000Y-86741000D01*
X98806000Y-89662000D02*
X100584000Y-87884000D01*
X100584000Y-87884000D02*
X100584000Y-86233000D01*
X93599000Y-88773000D02*
X96266000Y-86106000D01*
X96266000Y-86106000D02*
X96393000Y-86106000D01*
X89916000Y-89281000D02*
X89916000Y-88519000D01*
X89916000Y-88519000D02*
X92075000Y-86360000D01*
X85598000Y-89281000D02*
X85598000Y-88265000D01*
X85598000Y-88265000D02*
X87757000Y-86106000D01*
X82042000Y-91313000D02*
X82042000Y-86995000D01*
X82042000Y-86995000D02*
X83312000Y-85725000D01*
X97028000Y-98806000D02*
X96525106Y-98806000D01*
X95885000Y-99446106D02*
X95885000Y-99560380D01*
X96525106Y-98806000D02*
X95885000Y-99446106D01*
X95885000Y-99560380D02*
X95885000Y-100213160D01*
X98425000Y-95123000D02*
X98425000Y-96774000D01*
X98425000Y-96774000D02*
X98044000Y-97155000D01*
X94107000Y-93853000D02*
X96393000Y-93853000D01*
X96393000Y-93853000D02*
X96520000Y-93980000D01*
X89916000Y-93853000D02*
X91440000Y-93853000D01*
X91440000Y-93853000D02*
X91567000Y-93726000D01*
X85471000Y-94107000D02*
X87884000Y-94107000D01*
X87884000Y-94107000D02*
X88011000Y-93980000D01*
X78867000Y-93980000D02*
X81915000Y-93980000D01*
X79629000Y-91440000D02*
X78232000Y-91440000D01*
X85725000Y-91313000D02*
X82042000Y-91313000D01*
X91694000Y-91313000D02*
X89027000Y-91313000D01*
X89027000Y-91313000D02*
X88773000Y-91059000D01*
X97409000Y-91440000D02*
X94615000Y-91440000D01*
X101219000Y-93726000D02*
X99822000Y-92329000D01*
X99822000Y-92329000D02*
X99822000Y-92202000D01*
X104521000Y-96647000D02*
X104267000Y-96647000D01*
X104267000Y-96647000D02*
X103124000Y-95504000D01*
X103665000Y-105410000D02*
X104432606Y-105410000D01*
X104432606Y-105410000D02*
X104719801Y-105122805D01*
X104719801Y-105122805D02*
X104719801Y-102204801D01*
X104719801Y-102204801D02*
X104115000Y-101600000D01*
X104115000Y-101600000D02*
X103665000Y-101600000D01*
X114554000Y-98171000D02*
X114554000Y-99604000D01*
X114554000Y-99604000D02*
X115280000Y-100330000D01*
X115280000Y-100330000D02*
X115730000Y-100330000D01*
X110330000Y-100330000D02*
X111125000Y-100330000D01*
X111125000Y-100330000D02*
X111887000Y-101092000D01*
X117348000Y-101473000D02*
X115857000Y-101473000D01*
X115857000Y-101473000D02*
X115730000Y-101600000D01*
X115730000Y-105410000D02*
X116180000Y-105410000D01*
X116180000Y-105410000D02*
X117475000Y-104115000D01*
X117475000Y-104115000D02*
X117475000Y-104013000D01*
X115730000Y-101600000D02*
X115730000Y-100330000D01*
X107950000Y-100213160D02*
X110213160Y-100213160D01*
X110213160Y-100213160D02*
X110330000Y-100330000D01*
X104521000Y-96647000D02*
X104521000Y-97282000D01*
X104521000Y-97282000D02*
X104013000Y-97790000D01*
X110871000Y-96647000D02*
X106934000Y-96647000D01*
X107950000Y-100213160D02*
X108000800Y-100213160D01*
X108000800Y-100213160D02*
X109299234Y-98914726D01*
X109299234Y-98914726D02*
X109299234Y-98679010D01*
X98265000Y-100330000D02*
X96001840Y-100330000D01*
X96001840Y-100330000D02*
X95885000Y-100213160D01*
X99695000Y-100457000D02*
X98392000Y-100457000D01*
X98392000Y-100457000D02*
X98265000Y-100330000D01*
X103665000Y-100330000D02*
X103665000Y-99433410D01*
X103665000Y-99433410D02*
X103759000Y-99339410D01*
X103665000Y-101600000D02*
X103665000Y-100330000D01*
X72390000Y-101346000D02*
X70739000Y-101346000D01*
X70739000Y-101346000D02*
X69850000Y-100457000D01*
X69977000Y-97917000D02*
X72390000Y-97917000D01*
X71290000Y-90805000D02*
X70612000Y-90805000D01*
X70612000Y-90805000D02*
X69850000Y-91567000D01*
X65922232Y-93081768D02*
X69516432Y-93081768D01*
X69516432Y-93081768D02*
X71290000Y-91308200D01*
X71290000Y-91308200D02*
X71290000Y-90805000D01*
X62230000Y-93345000D02*
X62567820Y-93345000D01*
X62567820Y-93345000D02*
X63583820Y-94361000D01*
X63583820Y-94361000D02*
X64516000Y-94361000D01*
X126746000Y-111252000D02*
X126746000Y-112130840D01*
X126746000Y-112130840D02*
X126481840Y-112395000D01*
X129748100Y-110220000D02*
X129748100Y-110789900D01*
X129748100Y-110789900D02*
X129540000Y-110998000D01*
X134112000Y-102108000D02*
X135876860Y-102108000D01*
X135876860Y-102108000D02*
X135941380Y-102043480D01*
X132715000Y-94361000D02*
X132440680Y-94361000D01*
X132440680Y-94361000D02*
X129794000Y-97007680D01*
X129794000Y-97007680D02*
X129794000Y-98298000D01*
X122555000Y-115867180D02*
X122555000Y-116205000D01*
D35*
X133000000Y-109220000D02*
X134077630Y-109220000D01*
X133349999Y-99662481D02*
X133569960Y-99442520D01*
X134077630Y-109220000D02*
X134366000Y-108931630D01*
X134366000Y-108931630D02*
X134366000Y-103489762D01*
X134366000Y-103489762D02*
X133349999Y-102473761D01*
X133349999Y-102473761D02*
X133349999Y-99662481D01*
D34*
X129748100Y-108720000D02*
X130451300Y-108720000D01*
X130451300Y-108720000D02*
X130689300Y-108482000D01*
X130689300Y-108482000D02*
X130689300Y-108458000D01*
X129748100Y-108220000D02*
X130451300Y-108220000D01*
X130451300Y-108220000D02*
X130689300Y-108458000D01*
X130689300Y-108458000D02*
X130810000Y-108458000D01*
D35*
X131160370Y-108458000D02*
X130810000Y-108458000D01*
X133000000Y-109220000D02*
X131922370Y-109220000D01*
X131922370Y-109220000D02*
X131160370Y-108458000D01*
D34*
X135941380Y-99442520D02*
X133569960Y-99442520D01*
X133569960Y-99442520D02*
X132715000Y-98587560D01*
X132715000Y-98587560D02*
X132715000Y-97409000D01*
D35*
X110330000Y-107950000D02*
X108468160Y-107950000D01*
X108468160Y-107950000D02*
X107950000Y-107431840D01*
X123952000Y-93218000D02*
X125349000Y-93218000D01*
X125349000Y-93218000D02*
X127000000Y-94869000D01*
X110330000Y-105410000D02*
X111760000Y-105410000D01*
X110330000Y-105410000D02*
X108468160Y-105410000D01*
X108468160Y-105410000D02*
X107950000Y-105928160D01*
X129540000Y-102235000D02*
X129540000Y-101157370D01*
X129540000Y-101157370D02*
X127000000Y-98617370D01*
X127000000Y-98617370D02*
X127000000Y-95946630D01*
X127000000Y-95946630D02*
X127000000Y-94869000D01*
D34*
X106045000Y-101716840D02*
X105341420Y-101716840D01*
X105341420Y-101716840D02*
X105029000Y-101404420D01*
X105029000Y-101404420D02*
X105029000Y-98679000D01*
X105029000Y-98679000D02*
X102906000Y-98679000D01*
X102906000Y-98679000D02*
X98715000Y-102870000D01*
X98715000Y-102870000D02*
X98265000Y-102870000D01*
D35*
X106680000Y-104140000D02*
X106680000Y-102351840D01*
X106680000Y-102351840D02*
X106045000Y-101716840D01*
X106045000Y-101716840D02*
X105994200Y-101716840D01*
X98298000Y-102870000D02*
X98265000Y-102870000D01*
X115730000Y-102870000D02*
X115280000Y-102870000D01*
X115280000Y-102870000D02*
X110327000Y-97917000D01*
X106095800Y-100213160D02*
X106045000Y-100213160D01*
X110327000Y-97917000D02*
X108391960Y-97917000D01*
X108391960Y-97917000D02*
X106095800Y-100213160D01*
X115730000Y-102870000D02*
X118745000Y-102870000D01*
X98265000Y-107950000D02*
X97038160Y-107950000D01*
X97038160Y-107950000D02*
X95885000Y-106796840D01*
X98265000Y-105410000D02*
X96001840Y-105410000D01*
X96001840Y-105410000D02*
X95885000Y-105293160D01*
X93980000Y-105293160D02*
X95885000Y-105293160D01*
X130926840Y-106680000D02*
X133000000Y-106680000D01*
X55245000Y-107950000D02*
X55245000Y-105410000D01*
X55245000Y-105410000D02*
X60484000Y-105410000D01*
X60484000Y-105410000D02*
X60626000Y-105268000D01*
X67310000Y-97155000D02*
X67310000Y-98973600D01*
X67310000Y-98973600D02*
X66040000Y-100243600D01*
X60626000Y-97805000D02*
X63601400Y-97805000D01*
X63601400Y-97805000D02*
X66040000Y-100243600D01*
X66040000Y-100243600D02*
X66040000Y-101600000D01*
X95885000Y-101716840D02*
X98148160Y-101716840D01*
X98148160Y-101716840D02*
X98265000Y-101600000D01*
X98265000Y-104140000D02*
X97108600Y-104140000D01*
X95885000Y-102916400D02*
X95885000Y-102572820D01*
X97108600Y-104140000D02*
X95885000Y-102916400D01*
X95885000Y-102572820D02*
X95885000Y-101716840D01*
X103665000Y-107950000D02*
X103215000Y-107950000D01*
X103215000Y-107950000D02*
X101142801Y-105877801D01*
X101142801Y-105877801D02*
X101142801Y-105527855D01*
X101142801Y-105527855D02*
X99754946Y-104140000D01*
X99754946Y-104140000D02*
X99421400Y-104140000D01*
X99421400Y-104140000D02*
X98265000Y-104140000D01*
X106045000Y-111760000D02*
X106045000Y-110253780D01*
X106045000Y-110253780D02*
X105410000Y-109618780D01*
X105410000Y-109618780D02*
X105410000Y-107950000D01*
X106045000Y-111760000D02*
X102235000Y-111760000D01*
X115730000Y-107950000D02*
X115730000Y-107856000D01*
X115730000Y-107856000D02*
X115311201Y-107437201D01*
X115311201Y-107437201D02*
X114614239Y-107437201D01*
X114614239Y-107437201D02*
X114522799Y-107345761D01*
X114522799Y-107345761D02*
X114522799Y-106648799D01*
X114522799Y-106648799D02*
X112014000Y-104140000D01*
X112014000Y-104140000D02*
X110330000Y-104140000D01*
X103665000Y-107950000D02*
X105410000Y-107950000D01*
X105410000Y-107950000D02*
X106172000Y-107188000D01*
X106172000Y-107188000D02*
X106172000Y-105933238D01*
X106172000Y-105933238D02*
X107950000Y-104155238D01*
X107950000Y-104155238D02*
X107950000Y-104115000D01*
X107950000Y-104115000D02*
X107950000Y-101716840D01*
X110330000Y-101600000D02*
X108066840Y-101600000D01*
X108066840Y-101600000D02*
X107950000Y-101716840D01*
X110330000Y-102870000D02*
X110330000Y-101600000D01*
X110330000Y-104140000D02*
X110330000Y-102870000D01*
X120015000Y-107950000D02*
X115730000Y-107950000D01*
X73490000Y-88900000D02*
X73490000Y-90805000D01*
X71290000Y-88900000D02*
X70383600Y-88900000D01*
X70383600Y-88900000D02*
X69113600Y-90170000D01*
X69113600Y-90170000D02*
X68816400Y-90170000D01*
X68816400Y-90170000D02*
X67310000Y-90170000D01*
X75565000Y-89418160D02*
X75514200Y-89418160D01*
X75514200Y-89418160D02*
X74289639Y-88193599D01*
X74289639Y-88193599D02*
X72196400Y-88193600D01*
X72196400Y-88193600D02*
X71490000Y-88900000D01*
X71490000Y-88900000D02*
X71290000Y-88900000D01*
D34*
X125521900Y-108720000D02*
X126225100Y-108720000D01*
X126225100Y-108720000D02*
X126463100Y-108482000D01*
X126463100Y-108482000D02*
X126463100Y-108458000D01*
X125521900Y-108220000D02*
X126225100Y-108220000D01*
X126225100Y-108220000D02*
X126463100Y-108458000D01*
X126463100Y-108458000D02*
X127000000Y-108458000D01*
D35*
X127000000Y-110378238D02*
X127000000Y-108458000D01*
X127635000Y-116205000D02*
X127635000Y-111013238D01*
X127635000Y-111013238D02*
X127000000Y-110378238D01*
D34*
X125521900Y-108720000D02*
X124818700Y-108720000D01*
X124818700Y-108720000D02*
X124556700Y-108458000D01*
X124556700Y-108458000D02*
X124460000Y-108458000D01*
X125521900Y-108220000D02*
X124818700Y-108220000D01*
X124818700Y-108220000D02*
X124580700Y-108458000D01*
X124580700Y-108458000D02*
X124460000Y-108458000D01*
D35*
X124231400Y-108458000D02*
X124460000Y-108458000D01*
X122555000Y-107950000D02*
X123723400Y-107950000D01*
X123723400Y-107950000D02*
X124231400Y-108458000D01*
X71638160Y-92710000D02*
X70782180Y-92710000D01*
X70782180Y-92710000D02*
X69342000Y-94150180D01*
X69342000Y-94150180D02*
X69342000Y-95359400D01*
X69342000Y-95359400D02*
X68816400Y-95885000D01*
X68816400Y-95885000D02*
X67310000Y-95885000D01*
X62865000Y-117475000D02*
X63525399Y-116814601D01*
X63525399Y-116814601D02*
X64848741Y-116814601D01*
X64848741Y-116814601D02*
X67411590Y-114251752D01*
X67411590Y-114251752D02*
X67411590Y-111061510D01*
X67411590Y-111061510D02*
X68707000Y-109766100D01*
X68707000Y-109766100D02*
X68707000Y-109220000D01*
D34*
X128788160Y-112395000D02*
X128788160Y-109976740D01*
X128788160Y-109976740D02*
X129044900Y-109720000D01*
X129044900Y-109720000D02*
X129748100Y-109720000D01*
X129423160Y-106680000D02*
X129423160Y-107050840D01*
X129423160Y-107050840D02*
X128778000Y-107696000D01*
X129044900Y-109220000D02*
X129748100Y-109220000D01*
X128778000Y-107696000D02*
X128778000Y-108966000D01*
X128778000Y-108966000D02*
X129032000Y-109220000D01*
X129032000Y-109220000D02*
X129044900Y-109220000D01*
X125521900Y-110220000D02*
X125521900Y-111851260D01*
X125521900Y-111851260D02*
X124978160Y-112395000D01*
D35*
X92202000Y-106934000D02*
X93842840Y-106934000D01*
X93842840Y-106934000D02*
X93980000Y-106796840D01*
X121920000Y-94869000D02*
X117475000Y-94869000D01*
X117475000Y-94869000D02*
X117094000Y-95250000D01*
X124460000Y-102235000D02*
X124460000Y-97409000D01*
X124460000Y-97409000D02*
X121920000Y-94869000D01*
X112014000Y-106680000D02*
X110330000Y-106680000D01*
X100330000Y-105918000D02*
X99568000Y-106680000D01*
X99568000Y-106680000D02*
X98265000Y-106680000D01*
X76200000Y-97155000D02*
X76200000Y-100858320D01*
X76200000Y-100858320D02*
X72664320Y-104394000D01*
X72664320Y-104394000D02*
X72390000Y-104394000D01*
X68580000Y-113030000D02*
X69748400Y-113030000D01*
X69748400Y-113030000D02*
X72390000Y-110388400D01*
X72390000Y-110388400D02*
X72390000Y-105775760D01*
X72390000Y-105775760D02*
X72390000Y-104394000D01*
X68580000Y-113030000D02*
X68580000Y-114536220D01*
X68580000Y-114536220D02*
X71518780Y-117475000D01*
X71518780Y-117475000D02*
X72091054Y-117475000D01*
X72091054Y-117475000D02*
X73025000Y-117475000D01*
X130291840Y-112395000D02*
X132365000Y-112395000D01*
X132365000Y-112395000D02*
X133000000Y-111760000D01*
X66040000Y-113030000D02*
X66040000Y-109347000D01*
X66040000Y-109347000D02*
X65913000Y-109220000D01*
X66040000Y-104140000D02*
X66040000Y-109093000D01*
X66040000Y-109093000D02*
X65913000Y-109220000D01*
X60626000Y-107808000D02*
X62038000Y-109220000D01*
X62038000Y-109220000D02*
X65913000Y-109220000D01*
X60626000Y-100345000D02*
X62245000Y-100345000D01*
X62245000Y-100345000D02*
X66040000Y-104140000D01*
D34*
X123190000Y-111125000D02*
X124595000Y-109720000D01*
X124595000Y-109720000D02*
X125521900Y-109720000D01*
D35*
X102235000Y-97790000D02*
X102235000Y-97071580D01*
X97873420Y-92710000D02*
X73997820Y-92710000D01*
X102235000Y-97071580D02*
X97873420Y-92710000D01*
X73997820Y-92710000D02*
X73141840Y-92710000D01*
X103665000Y-102870000D02*
X103124000Y-102870000D01*
X103124000Y-102870000D02*
X101600000Y-101346000D01*
X67310000Y-94615000D02*
X66377820Y-94615000D01*
X66377820Y-94615000D02*
X62567820Y-90805000D01*
X62567820Y-90805000D02*
X62230000Y-90805000D01*
X67310000Y-88900000D02*
X62966600Y-88900000D01*
X62966600Y-88900000D02*
X62230000Y-89636600D01*
X62230000Y-89636600D02*
X62230000Y-90805000D01*
X70358000Y-94488000D02*
X71755000Y-94488000D01*
X71755000Y-94488000D02*
X72390000Y-95123000D01*
X76962000Y-91440000D02*
X76083160Y-91440000D01*
X76083160Y-91440000D02*
X75565000Y-90921840D01*
D34*
X121920000Y-110921801D02*
X121920000Y-112692180D01*
X125095000Y-115867180D02*
X125095000Y-116205000D01*
X121920000Y-112692180D02*
X125095000Y-115867180D01*
X125521900Y-109220000D02*
X123621801Y-109220000D01*
X123621801Y-109220000D02*
X121920000Y-110921801D01*
D36*
G36*
X60461193Y-90805000D02*
X60567533Y-91339609D01*
X60870365Y-91792828D01*
X61102596Y-91948000D01*
X61003870Y-91948000D01*
X60770481Y-92044673D01*
X60591853Y-92223302D01*
X60495180Y-92456691D01*
X60495180Y-93059250D01*
X60653930Y-93218000D01*
X62103000Y-93218000D01*
X62103000Y-93198000D01*
X62357000Y-93198000D01*
X62357000Y-93218000D01*
X62377000Y-93218000D01*
X62377000Y-93472000D01*
X62357000Y-93472000D01*
X62357000Y-94583250D01*
X62515750Y-94742000D01*
X63456130Y-94742000D01*
X63689519Y-94645327D01*
X63868147Y-94466698D01*
X63964820Y-94233309D01*
X63964820Y-93630750D01*
X63806072Y-93472002D01*
X63964820Y-93472002D01*
X63964820Y-93387394D01*
X65627563Y-95050137D01*
X65631212Y-95068480D01*
X65752499Y-95250000D01*
X65631212Y-95431520D01*
X65541009Y-95885000D01*
X65631212Y-96338480D01*
X65752499Y-96520000D01*
X65631212Y-96701520D01*
X65541009Y-97155000D01*
X65631212Y-97608480D01*
X65888087Y-97992922D01*
X66272529Y-98249797D01*
X66471800Y-98289435D01*
X66471800Y-98626406D01*
X66040000Y-99058206D01*
X64194097Y-97212303D01*
X63922166Y-97030604D01*
X63601400Y-96966800D01*
X62273440Y-96966800D01*
X62273440Y-96855000D01*
X62229162Y-96619683D01*
X62090090Y-96403559D01*
X61877890Y-96258569D01*
X61626000Y-96207560D01*
X59626000Y-96207560D01*
X59390683Y-96251838D01*
X59174559Y-96390910D01*
X59029569Y-96603110D01*
X58978560Y-96855000D01*
X58978560Y-98755000D01*
X59022838Y-98990317D01*
X59161910Y-99206441D01*
X59374110Y-99351431D01*
X59377192Y-99352055D01*
X59283086Y-99445997D01*
X59041276Y-100028341D01*
X59040725Y-100658893D01*
X59281519Y-101241657D01*
X59726997Y-101687914D01*
X60309341Y-101929724D01*
X60939893Y-101930275D01*
X61522657Y-101689481D01*
X61963757Y-101249151D01*
X64479532Y-103764926D01*
X64455276Y-103823341D01*
X64454725Y-104453893D01*
X64695519Y-105036657D01*
X65140997Y-105482914D01*
X65201800Y-105508162D01*
X65201800Y-107226360D01*
X65112900Y-107226360D01*
X64877583Y-107270638D01*
X64661459Y-107409710D01*
X64516469Y-107621910D01*
X64465460Y-107873800D01*
X64465460Y-108381800D01*
X62385194Y-108381800D01*
X62186468Y-108183074D01*
X62210724Y-108124659D01*
X62211275Y-107494107D01*
X61970481Y-106911343D01*
X61872971Y-106813663D01*
X62077441Y-106682090D01*
X62222431Y-106469890D01*
X62273440Y-106218000D01*
X62273440Y-104318000D01*
X62229162Y-104082683D01*
X62090090Y-103866559D01*
X61877890Y-103721569D01*
X61626000Y-103670560D01*
X59626000Y-103670560D01*
X59390683Y-103714838D01*
X59174559Y-103853910D01*
X59029569Y-104066110D01*
X58978560Y-104318000D01*
X58978560Y-104571800D01*
X56023299Y-104571800D01*
X55893303Y-104441577D01*
X55473354Y-104267199D01*
X55018641Y-104266802D01*
X54598388Y-104440446D01*
X54276577Y-104761697D01*
X54102199Y-105181646D01*
X54101802Y-105636359D01*
X54275446Y-106056612D01*
X54406800Y-106188195D01*
X54406800Y-107171701D01*
X54276577Y-107301697D01*
X54102199Y-107721646D01*
X54101802Y-108176359D01*
X54275446Y-108596612D01*
X54596697Y-108918423D01*
X55016646Y-109092801D01*
X55471359Y-109093198D01*
X55891612Y-108919554D01*
X56213423Y-108598303D01*
X56387801Y-108178354D01*
X56388198Y-107723641D01*
X56214554Y-107303388D01*
X56083200Y-107171805D01*
X56083200Y-106248200D01*
X58984243Y-106248200D01*
X59022838Y-106453317D01*
X59161910Y-106669441D01*
X59374110Y-106814431D01*
X59377192Y-106815055D01*
X59283086Y-106908997D01*
X59041276Y-107491341D01*
X59040725Y-108121893D01*
X59281519Y-108704657D01*
X59726997Y-109150914D01*
X60309341Y-109392724D01*
X60939893Y-109393275D01*
X61000740Y-109368134D01*
X61445303Y-109812697D01*
X61717235Y-109994396D01*
X62038000Y-110058200D01*
X64465460Y-110058200D01*
X64465460Y-110566200D01*
X64509738Y-110801517D01*
X64648810Y-111017641D01*
X64861010Y-111162631D01*
X65112900Y-111213640D01*
X65201800Y-111213640D01*
X65201800Y-111297078D01*
X65042683Y-111327018D01*
X64826559Y-111466090D01*
X64681569Y-111678290D01*
X64630560Y-111930180D01*
X64630560Y-114129820D01*
X64674838Y-114365137D01*
X64813910Y-114581261D01*
X65026110Y-114726251D01*
X65278000Y-114777260D01*
X65700688Y-114777260D01*
X64501547Y-115976401D01*
X63525399Y-115976401D01*
X63204633Y-116040205D01*
X62995843Y-116179714D01*
X62608460Y-116179376D01*
X62132174Y-116376173D01*
X61767454Y-116740257D01*
X61569826Y-117216199D01*
X61569376Y-117731540D01*
X61766173Y-118207826D01*
X62130257Y-118572546D01*
X62606199Y-118770174D01*
X63121540Y-118770624D01*
X63597826Y-118573827D01*
X63962546Y-118209743D01*
X64160174Y-117733801D01*
X64160245Y-117652801D01*
X64848741Y-117652801D01*
X65169507Y-117588997D01*
X65441438Y-117407298D01*
X67880164Y-114968572D01*
X67987303Y-115128917D01*
X70926083Y-118067697D01*
X71198015Y-118249396D01*
X71518780Y-118313200D01*
X72031363Y-118313200D01*
X72290257Y-118572546D01*
X72766199Y-118770174D01*
X73281540Y-118770624D01*
X73757826Y-118573827D01*
X74122546Y-118209743D01*
X74320174Y-117733801D01*
X74320237Y-117660980D01*
X77726602Y-117660980D01*
X77733210Y-117729698D01*
X77726602Y-117798416D01*
X77751692Y-118047258D01*
X77771838Y-118113120D01*
X77779032Y-118181621D01*
X77850979Y-118413389D01*
X77883158Y-118472665D01*
X77903150Y-118537081D01*
X78016990Y-118746816D01*
X78059302Y-118797704D01*
X78090652Y-118855988D01*
X78241423Y-119038724D01*
X78292309Y-119080262D01*
X78333848Y-119131149D01*
X78516584Y-119281920D01*
X78574870Y-119313271D01*
X78625757Y-119355582D01*
X78835491Y-119469423D01*
X78899908Y-119489415D01*
X78959182Y-119521593D01*
X79190951Y-119593540D01*
X79259453Y-119600734D01*
X79325315Y-119620880D01*
X79574156Y-119645970D01*
X79642874Y-119639362D01*
X79711592Y-119645970D01*
X79960434Y-119620880D01*
X80026296Y-119600734D01*
X80094797Y-119593540D01*
X80326565Y-119521593D01*
X80385841Y-119489414D01*
X80450257Y-119469422D01*
X80659992Y-119355582D01*
X80710880Y-119313270D01*
X80769164Y-119281920D01*
X80951900Y-119131149D01*
X80993438Y-119080263D01*
X81044325Y-119038724D01*
X81195096Y-118855988D01*
X81226447Y-118797702D01*
X81268758Y-118746815D01*
X81382599Y-118537081D01*
X81402591Y-118472664D01*
X81434769Y-118413390D01*
X81506716Y-118181621D01*
X81513910Y-118113119D01*
X81534056Y-118047257D01*
X81559146Y-117798416D01*
X81552538Y-117729698D01*
X81559146Y-117660980D01*
X109249822Y-117660980D01*
X109256430Y-117729698D01*
X109249822Y-117798416D01*
X109274912Y-118047258D01*
X109295058Y-118113120D01*
X109302252Y-118181621D01*
X109374199Y-118413389D01*
X109406378Y-118472665D01*
X109426370Y-118537081D01*
X109540210Y-118746816D01*
X109582522Y-118797704D01*
X109613872Y-118855988D01*
X109764643Y-119038724D01*
X109815529Y-119080262D01*
X109857069Y-119131150D01*
X110039807Y-119281922D01*
X110098089Y-119313270D01*
X110148976Y-119355582D01*
X110358710Y-119469422D01*
X110423126Y-119489414D01*
X110482402Y-119521593D01*
X110714171Y-119593540D01*
X110782673Y-119600734D01*
X110848535Y-119620880D01*
X111097376Y-119645970D01*
X111166094Y-119639362D01*
X111234812Y-119645970D01*
X111483654Y-119620880D01*
X111549517Y-119600734D01*
X111618016Y-119593540D01*
X111849786Y-119521593D01*
X111909062Y-119489415D01*
X111973480Y-119469422D01*
X112183213Y-119355582D01*
X112234102Y-119313269D01*
X112292384Y-119281920D01*
X112475120Y-119131149D01*
X112516656Y-119080265D01*
X112567544Y-119038726D01*
X112718315Y-118855990D01*
X112749666Y-118797704D01*
X112791979Y-118746815D01*
X112880308Y-118584081D01*
X123208686Y-118584081D01*
X123825000Y-119200395D01*
X124441314Y-118584081D01*
X125748686Y-118584081D01*
X126365000Y-119200395D01*
X126981314Y-118584081D01*
X126943176Y-118368144D01*
X126511945Y-118223909D01*
X126058343Y-118255678D01*
X125786824Y-118368144D01*
X125748686Y-118584081D01*
X124441314Y-118584081D01*
X124403176Y-118368144D01*
X123971945Y-118223909D01*
X123518343Y-118255678D01*
X123246824Y-118368144D01*
X123208686Y-118584081D01*
X112880308Y-118584081D01*
X112905820Y-118537081D01*
X112925812Y-118472664D01*
X112957990Y-118413390D01*
X113029937Y-118181621D01*
X113037131Y-118113121D01*
X113057278Y-118047255D01*
X113082367Y-117798413D01*
X113075759Y-117729698D01*
X113082367Y-117660983D01*
X113057278Y-117412141D01*
X113037131Y-117346275D01*
X113029937Y-117277775D01*
X112957990Y-117046006D01*
X112925812Y-116986732D01*
X112905820Y-116922315D01*
X112791979Y-116712581D01*
X112749666Y-116661692D01*
X112718315Y-116603406D01*
X112567544Y-116420670D01*
X112516657Y-116379131D01*
X112478184Y-116332000D01*
X121158000Y-116332000D01*
X121158000Y-116669820D01*
X121312941Y-117194761D01*
X121656974Y-117620450D01*
X122137723Y-117882080D01*
X122211930Y-117897040D01*
X122428000Y-117774540D01*
X122428000Y-116332000D01*
X121158000Y-116332000D01*
X112478184Y-116332000D01*
X112475121Y-116328248D01*
X112292386Y-116177476D01*
X112234102Y-116146126D01*
X112183213Y-116103813D01*
X111973480Y-115989973D01*
X111909061Y-115969980D01*
X111849783Y-115937801D01*
X111618013Y-115865855D01*
X111549515Y-115858661D01*
X111483654Y-115838516D01*
X111234812Y-115813426D01*
X111166094Y-115820034D01*
X111097376Y-115813426D01*
X110848535Y-115838516D01*
X110782675Y-115858661D01*
X110714174Y-115865855D01*
X110482405Y-115937801D01*
X110423127Y-115969980D01*
X110358710Y-115989973D01*
X110148976Y-116103813D01*
X110098087Y-116146126D01*
X110039805Y-116177475D01*
X109857068Y-116328247D01*
X109815530Y-116379134D01*
X109764643Y-116420672D01*
X109613872Y-116603408D01*
X109582522Y-116661692D01*
X109540210Y-116712580D01*
X109426370Y-116922315D01*
X109406378Y-116986731D01*
X109374199Y-117046007D01*
X109302252Y-117277775D01*
X109295058Y-117346276D01*
X109274912Y-117412138D01*
X109249822Y-117660980D01*
X81559146Y-117660980D01*
X81534056Y-117412139D01*
X81513910Y-117346277D01*
X81506716Y-117277775D01*
X81434769Y-117046006D01*
X81402591Y-116986732D01*
X81382599Y-116922315D01*
X81268758Y-116712581D01*
X81226447Y-116661694D01*
X81195096Y-116603408D01*
X81044325Y-116420672D01*
X80993439Y-116379133D01*
X80951901Y-116328248D01*
X80769166Y-116177476D01*
X80710880Y-116146125D01*
X80659992Y-116103813D01*
X80450257Y-115989973D01*
X80385842Y-115969981D01*
X80326563Y-115937801D01*
X80094794Y-115865855D01*
X80026294Y-115858661D01*
X79960434Y-115838516D01*
X79711592Y-115813426D01*
X79642874Y-115820034D01*
X79574156Y-115813426D01*
X79325315Y-115838516D01*
X79259455Y-115858661D01*
X79190954Y-115865855D01*
X78959185Y-115937801D01*
X78899909Y-115969979D01*
X78835491Y-115989972D01*
X78625757Y-116103813D01*
X78574868Y-116146126D01*
X78516582Y-116177477D01*
X78333846Y-116328248D01*
X78292307Y-116379136D01*
X78241423Y-116420672D01*
X78090652Y-116603408D01*
X78059302Y-116661692D01*
X78016990Y-116712580D01*
X77903150Y-116922315D01*
X77883158Y-116986731D01*
X77850979Y-117046007D01*
X77779032Y-117277775D01*
X77771838Y-117346276D01*
X77751692Y-117412138D01*
X77726602Y-117660980D01*
X74320237Y-117660980D01*
X74320624Y-117218460D01*
X74123827Y-116742174D01*
X73759743Y-116377454D01*
X73283801Y-116179826D01*
X72768460Y-116179376D01*
X72292174Y-116376173D01*
X72031092Y-116636800D01*
X71865974Y-116636800D01*
X70969354Y-115740180D01*
X121158000Y-115740180D01*
X121158000Y-116078000D01*
X122428000Y-116078000D01*
X122428000Y-114635460D01*
X122211930Y-114512960D01*
X122137723Y-114527920D01*
X121656974Y-114789550D01*
X121312941Y-115215239D01*
X121158000Y-115740180D01*
X70969354Y-115740180D01*
X69588248Y-114359074D01*
X69870660Y-113936416D01*
X69889825Y-113840069D01*
X70069166Y-113804396D01*
X70341097Y-113622697D01*
X71977435Y-111986359D01*
X98551802Y-111986359D01*
X98725446Y-112406612D01*
X99046697Y-112728423D01*
X99466646Y-112902801D01*
X99921359Y-112903198D01*
X100341612Y-112729554D01*
X100663423Y-112408303D01*
X100837801Y-111988354D01*
X100838198Y-111533641D01*
X100664554Y-111113388D01*
X100343303Y-110791577D01*
X99923354Y-110617199D01*
X99468641Y-110616802D01*
X99048388Y-110790446D01*
X98726577Y-111111697D01*
X98552199Y-111531646D01*
X98551802Y-111986359D01*
X71977435Y-111986359D01*
X72982697Y-110981097D01*
X73164396Y-110709165D01*
X73228200Y-110388400D01*
X73228200Y-106450000D01*
X74665715Y-106450000D01*
X74665715Y-110420000D01*
X89164286Y-110420000D01*
X89164286Y-106450000D01*
X74665715Y-106450000D01*
X73228200Y-106450000D01*
X73228200Y-106016800D01*
X73639680Y-106016800D01*
X73874997Y-105972522D01*
X74091121Y-105833450D01*
X74236111Y-105621250D01*
X74287120Y-105369360D01*
X74287120Y-103956594D01*
X76792697Y-101451017D01*
X76974396Y-101179085D01*
X77038200Y-100858320D01*
X77038200Y-99637271D01*
X94749620Y-99637271D01*
X94749620Y-99927410D01*
X94908370Y-100086160D01*
X95758000Y-100086160D01*
X95758000Y-99287330D01*
X96012000Y-99287330D01*
X96012000Y-100086160D01*
X96861630Y-100086160D01*
X96891770Y-100056020D01*
X97038750Y-100203000D01*
X98138000Y-100203000D01*
X98138000Y-99553750D01*
X98392000Y-99553750D01*
X98392000Y-100203000D01*
X99491250Y-100203000D01*
X99650000Y-100044250D01*
X99650000Y-99903690D01*
X99553327Y-99670301D01*
X99374698Y-99491673D01*
X99141309Y-99395000D01*
X98550750Y-99395000D01*
X98392000Y-99553750D01*
X98138000Y-99553750D01*
X97979250Y-99395000D01*
X97388691Y-99395000D01*
X97155302Y-99491673D01*
X97017253Y-99629721D01*
X96923707Y-99403882D01*
X96745079Y-99225253D01*
X96511690Y-99128580D01*
X96170750Y-99128580D01*
X96012000Y-99287330D01*
X95758000Y-99287330D01*
X95599250Y-99128580D01*
X95258310Y-99128580D01*
X95024921Y-99225253D01*
X94846293Y-99403882D01*
X94749620Y-99637271D01*
X77038200Y-99637271D01*
X77038200Y-98459229D01*
X77106416Y-98445660D01*
X77559635Y-98142828D01*
X77644139Y-98016359D01*
X98551802Y-98016359D01*
X98725446Y-98436612D01*
X99046697Y-98758423D01*
X99466646Y-98932801D01*
X99921359Y-98933198D01*
X100341612Y-98759554D01*
X100663423Y-98438303D01*
X100837801Y-98018354D01*
X100838198Y-97563641D01*
X100664554Y-97143388D01*
X100343303Y-96821577D01*
X99923354Y-96647199D01*
X99468641Y-96646802D01*
X99048388Y-96820446D01*
X98726577Y-97141697D01*
X98552199Y-97561646D01*
X98551802Y-98016359D01*
X77644139Y-98016359D01*
X77862467Y-97689609D01*
X77968807Y-97155000D01*
X77862467Y-96620391D01*
X77559635Y-96167172D01*
X77335870Y-96017657D01*
X77535137Y-95980162D01*
X77751261Y-95841090D01*
X77896251Y-95628890D01*
X77947260Y-95377000D01*
X77947260Y-93853000D01*
X77902982Y-93617683D01*
X77858271Y-93548200D01*
X97526226Y-93548200D01*
X101223489Y-97245463D01*
X101092199Y-97561646D01*
X101091802Y-98016359D01*
X101265446Y-98436612D01*
X101586697Y-98758423D01*
X101726723Y-98816567D01*
X99563521Y-100979769D01*
X99559822Y-100974020D01*
X99650000Y-100756310D01*
X99650000Y-100615750D01*
X99491250Y-100457000D01*
X98392000Y-100457000D01*
X98392000Y-100477000D01*
X98138000Y-100477000D01*
X98138000Y-100457000D01*
X97038750Y-100457000D01*
X97008610Y-100487140D01*
X96861630Y-100340160D01*
X96012000Y-100340160D01*
X96012000Y-100360160D01*
X95758000Y-100360160D01*
X95758000Y-100340160D01*
X94908370Y-100340160D01*
X94749620Y-100498910D01*
X94749620Y-100789049D01*
X94822541Y-100965095D01*
X94788189Y-101015370D01*
X94737180Y-101267260D01*
X94737180Y-102166420D01*
X94781458Y-102401737D01*
X94920530Y-102617861D01*
X95046800Y-102704138D01*
X95046800Y-102916400D01*
X95110604Y-103237166D01*
X95292303Y-103509097D01*
X95979346Y-104196140D01*
X95384620Y-104196140D01*
X95149303Y-104240418D01*
X94933179Y-104379490D01*
X94930881Y-104382854D01*
X94732270Y-104247149D01*
X94480380Y-104196140D01*
X93479620Y-104196140D01*
X93244303Y-104240418D01*
X93028179Y-104379490D01*
X92883189Y-104591690D01*
X92832180Y-104843580D01*
X92832180Y-105742740D01*
X92876458Y-105978057D01*
X92918599Y-106043546D01*
X92883189Y-106095370D01*
X92883102Y-106095800D01*
X92764960Y-106095800D01*
X92763862Y-106094700D01*
X92399907Y-105943572D01*
X92005822Y-105943228D01*
X91641603Y-106093721D01*
X91362700Y-106372138D01*
X91211572Y-106736093D01*
X91211228Y-107130178D01*
X91361721Y-107494397D01*
X91640138Y-107773300D01*
X92004093Y-107924428D01*
X92398178Y-107924772D01*
X92762397Y-107774279D01*
X92764480Y-107772200D01*
X93124329Y-107772200D01*
X93227730Y-107842851D01*
X93479620Y-107893860D01*
X94480380Y-107893860D01*
X94715697Y-107849582D01*
X94931821Y-107710510D01*
X94934119Y-107707146D01*
X95132730Y-107842851D01*
X95384620Y-107893860D01*
X95796626Y-107893860D01*
X96445463Y-108542697D01*
X96717395Y-108724396D01*
X97038160Y-108788200D01*
X97177886Y-108788200D01*
X97263110Y-108846431D01*
X97515000Y-108897440D01*
X99015000Y-108897440D01*
X99250317Y-108853162D01*
X99466441Y-108714090D01*
X99611431Y-108501890D01*
X99662440Y-108250000D01*
X99662440Y-107650000D01*
X99635128Y-107504848D01*
X99888766Y-107454396D01*
X100160697Y-107272697D01*
X100524623Y-106908771D01*
X100526178Y-106908772D01*
X100853239Y-106773633D01*
X102267560Y-108187954D01*
X102267560Y-108250000D01*
X102311838Y-108485317D01*
X102450910Y-108701441D01*
X102663110Y-108846431D01*
X102915000Y-108897440D01*
X104415000Y-108897440D01*
X104571800Y-108867936D01*
X104571800Y-109618780D01*
X104635604Y-109939546D01*
X104817303Y-110211477D01*
X104819526Y-110213700D01*
X104686569Y-110408290D01*
X104635560Y-110660180D01*
X104635560Y-110921800D01*
X103013299Y-110921800D01*
X102883303Y-110791577D01*
X102463354Y-110617199D01*
X102008641Y-110616802D01*
X101588388Y-110790446D01*
X101266577Y-111111697D01*
X101092199Y-111531646D01*
X101091802Y-111986359D01*
X101265446Y-112406612D01*
X101586697Y-112728423D01*
X102006646Y-112902801D01*
X102461359Y-112903198D01*
X102881612Y-112729554D01*
X103013195Y-112598200D01*
X104635560Y-112598200D01*
X104635560Y-112859820D01*
X104679838Y-113095137D01*
X104818910Y-113311261D01*
X105031110Y-113456251D01*
X105283000Y-113507260D01*
X106807000Y-113507260D01*
X107042317Y-113462982D01*
X107258441Y-113323910D01*
X107403431Y-113111710D01*
X107447260Y-112895276D01*
X107597172Y-113119635D01*
X108050391Y-113422467D01*
X108585000Y-113528807D01*
X109119609Y-113422467D01*
X109572828Y-113119635D01*
X109875660Y-112666416D01*
X109982000Y-112131807D01*
X109982000Y-111388193D01*
X109875660Y-110853584D01*
X109572828Y-110400365D01*
X109119609Y-110097533D01*
X108585000Y-109991193D01*
X108050391Y-110097533D01*
X107597172Y-110400365D01*
X107447657Y-110624130D01*
X107410162Y-110424863D01*
X107271090Y-110208739D01*
X107058890Y-110063749D01*
X106836440Y-110018702D01*
X106819396Y-109933015D01*
X106637697Y-109661083D01*
X106248200Y-109271586D01*
X106248200Y-108297194D01*
X106764697Y-107780697D01*
X106802180Y-107724600D01*
X106802180Y-107881420D01*
X106846458Y-108116737D01*
X106985530Y-108332861D01*
X107197730Y-108477851D01*
X107449620Y-108528860D01*
X107861626Y-108528860D01*
X107875463Y-108542697D01*
X108147395Y-108724396D01*
X108468160Y-108788200D01*
X109242886Y-108788200D01*
X109328110Y-108846431D01*
X109580000Y-108897440D01*
X111080000Y-108897440D01*
X111315317Y-108853162D01*
X111531441Y-108714090D01*
X111676431Y-108501890D01*
X111727440Y-108250000D01*
X111727440Y-107650000D01*
X111724096Y-107632227D01*
X111816093Y-107670428D01*
X112210178Y-107670772D01*
X112574397Y-107520279D01*
X112853300Y-107241862D01*
X113004428Y-106877907D01*
X113004772Y-106483822D01*
X112886719Y-106198113D01*
X113684599Y-106995993D01*
X113684599Y-107345761D01*
X113748403Y-107666527D01*
X113930102Y-107938458D01*
X114021542Y-108029898D01*
X114293474Y-108211597D01*
X114332560Y-108219372D01*
X114332560Y-108250000D01*
X114376838Y-108485317D01*
X114515910Y-108701441D01*
X114728110Y-108846431D01*
X114980000Y-108897440D01*
X116480000Y-108897440D01*
X116715317Y-108853162D01*
X116816271Y-108788200D01*
X118710771Y-108788200D01*
X118724340Y-108856416D01*
X119027172Y-109309635D01*
X119480391Y-109612467D01*
X120015000Y-109718807D01*
X120549609Y-109612467D01*
X121002828Y-109309635D01*
X121152343Y-109085870D01*
X121189838Y-109285137D01*
X121328910Y-109501261D01*
X121541110Y-109646251D01*
X121793000Y-109697260D01*
X122102831Y-109697260D01*
X121470758Y-110329333D01*
X121298303Y-110156577D01*
X120878354Y-109982199D01*
X120423641Y-109981802D01*
X120003388Y-110155446D01*
X119681577Y-110476697D01*
X119507199Y-110896646D01*
X119506802Y-111351359D01*
X119680446Y-111771612D01*
X120001697Y-112093423D01*
X120421646Y-112267801D01*
X120876359Y-112268198D01*
X121183400Y-112141332D01*
X121183400Y-112692180D01*
X121239470Y-112974065D01*
X121399145Y-113213035D01*
X122771071Y-114584961D01*
X122682000Y-114635460D01*
X122682000Y-116078000D01*
X122702000Y-116078000D01*
X122702000Y-116332000D01*
X122682000Y-116332000D01*
X122682000Y-117774540D01*
X122898070Y-117897040D01*
X122972277Y-117882080D01*
X123453026Y-117620450D01*
X123797059Y-117194761D01*
X123816353Y-117129394D01*
X124107172Y-117564635D01*
X124560391Y-117867467D01*
X125095000Y-117973807D01*
X125629609Y-117867467D01*
X126082828Y-117564635D01*
X126232343Y-117340870D01*
X126269838Y-117540137D01*
X126408910Y-117756261D01*
X126621110Y-117901251D01*
X126873000Y-117952260D01*
X128397000Y-117952260D01*
X128632317Y-117907982D01*
X128848441Y-117768910D01*
X128993431Y-117556710D01*
X129044440Y-117304820D01*
X129044440Y-115105180D01*
X129000162Y-114869863D01*
X128861090Y-114653739D01*
X128648890Y-114508749D01*
X128473200Y-114473171D01*
X128473200Y-113542820D01*
X129237740Y-113542820D01*
X129473057Y-113498542D01*
X129538546Y-113456401D01*
X129590370Y-113491811D01*
X129842260Y-113542820D01*
X130741420Y-113542820D01*
X130976737Y-113498542D01*
X131192861Y-113359470D01*
X131279138Y-113233200D01*
X131656451Y-113233200D01*
X131556715Y-113287236D01*
X131505598Y-113329672D01*
X131447088Y-113361142D01*
X131125730Y-113626278D01*
X131084185Y-113677172D01*
X131033291Y-113718717D01*
X130768154Y-114040075D01*
X130736683Y-114098585D01*
X130694247Y-114149703D01*
X130494157Y-114519016D01*
X130474165Y-114583606D01*
X130441981Y-114643071D01*
X130315752Y-115051523D01*
X130308673Y-115119757D01*
X130288637Y-115185365D01*
X130244540Y-115624684D01*
X130247869Y-115659143D01*
X130241115Y-115693098D01*
X130241115Y-120484422D01*
X126719700Y-120484422D01*
X126943176Y-120391856D01*
X126981314Y-120175919D01*
X126365000Y-119559605D01*
X125748686Y-120175919D01*
X125786824Y-120391856D01*
X126063576Y-120484422D01*
X124179700Y-120484422D01*
X124403176Y-120391856D01*
X124441314Y-120175919D01*
X123825000Y-119559605D01*
X123208686Y-120175919D01*
X123246824Y-120391856D01*
X123523576Y-120484422D01*
X121917995Y-120484422D01*
X121917995Y-119547745D01*
X121865852Y-119285607D01*
X121830738Y-119233055D01*
X122668909Y-119233055D01*
X122700678Y-119686657D01*
X122813144Y-119958176D01*
X123029081Y-119996314D01*
X123645395Y-119380000D01*
X124004605Y-119380000D01*
X124620919Y-119996314D01*
X124836856Y-119958176D01*
X124981091Y-119526945D01*
X124960508Y-119233055D01*
X125208909Y-119233055D01*
X125240678Y-119686657D01*
X125353144Y-119958176D01*
X125569081Y-119996314D01*
X126185395Y-119380000D01*
X126544605Y-119380000D01*
X127160919Y-119996314D01*
X127376856Y-119958176D01*
X127521091Y-119526945D01*
X127489322Y-119073343D01*
X127376856Y-118801824D01*
X127160919Y-118763686D01*
X126544605Y-119380000D01*
X126185395Y-119380000D01*
X125569081Y-118763686D01*
X125353144Y-118801824D01*
X125208909Y-119233055D01*
X124960508Y-119233055D01*
X124949322Y-119073343D01*
X124836856Y-118801824D01*
X124620919Y-118763686D01*
X124004605Y-119380000D01*
X123645395Y-119380000D01*
X123029081Y-118763686D01*
X122813144Y-118801824D01*
X122668909Y-119233055D01*
X121830738Y-119233055D01*
X121717363Y-119063377D01*
X121495133Y-118914888D01*
X121232995Y-118862745D01*
X118702918Y-118862745D01*
X118440780Y-118914888D01*
X118257536Y-119037327D01*
X118074292Y-118914888D01*
X117812154Y-118862745D01*
X115282074Y-118862745D01*
X115019936Y-118914888D01*
X114797706Y-119063377D01*
X114649217Y-119285607D01*
X114597074Y-119547745D01*
X114597074Y-120484422D01*
X76161614Y-120484422D01*
X76161614Y-119547745D01*
X76109471Y-119285607D01*
X75960982Y-119063377D01*
X75738752Y-118914888D01*
X75476614Y-118862745D01*
X72946537Y-118862745D01*
X72684399Y-118914888D01*
X72501155Y-119037327D01*
X72317911Y-118914888D01*
X72055773Y-118862745D01*
X69525142Y-118862745D01*
X69263004Y-118914888D01*
X69040774Y-119063377D01*
X68892285Y-119285607D01*
X68840142Y-119547745D01*
X68840142Y-120484422D01*
X60588682Y-120484422D01*
X60588682Y-115693098D01*
X60582011Y-115659560D01*
X60585341Y-115625529D01*
X60541794Y-115186210D01*
X60521596Y-115119776D01*
X60514345Y-115050717D01*
X60387565Y-114642266D01*
X60355696Y-114583555D01*
X60336015Y-114519710D01*
X60136474Y-114150397D01*
X60093849Y-114098932D01*
X60062195Y-114040079D01*
X59797062Y-113718721D01*
X59745947Y-113676994D01*
X59704174Y-113625910D01*
X59382263Y-113360774D01*
X59323975Y-113329487D01*
X59273081Y-113287236D01*
X58903768Y-113087146D01*
X58839179Y-113067154D01*
X58779715Y-113034971D01*
X58371264Y-112908741D01*
X58303030Y-112901661D01*
X58237420Y-112881625D01*
X57798101Y-112837528D01*
X57763642Y-112840857D01*
X57729687Y-112834103D01*
X52949389Y-112834103D01*
X52949389Y-93630750D01*
X60495180Y-93630750D01*
X60495180Y-94233309D01*
X60591853Y-94466698D01*
X60770481Y-94645327D01*
X61003870Y-94742000D01*
X61944250Y-94742000D01*
X62103000Y-94583250D01*
X62103000Y-93472000D01*
X60653930Y-93472000D01*
X60495180Y-93630750D01*
X52949389Y-93630750D01*
X52949389Y-92793249D01*
X57729687Y-92793249D01*
X57763642Y-92786495D01*
X57798101Y-92789824D01*
X58237420Y-92745727D01*
X58303028Y-92725691D01*
X58371262Y-92718612D01*
X58779713Y-92592383D01*
X58839178Y-92560199D01*
X58903768Y-92540207D01*
X59273081Y-92340117D01*
X59323709Y-92298088D01*
X59381722Y-92267024D01*
X59703633Y-92002440D01*
X59745858Y-91950910D01*
X59797430Y-91908738D01*
X60062563Y-91586827D01*
X60094033Y-91528198D01*
X60136474Y-91476955D01*
X60336015Y-91107642D01*
X60355696Y-91043797D01*
X60387565Y-90985086D01*
X60492829Y-90645952D01*
X60461193Y-90805000D01*
X60461193Y-90805000D01*
G37*
X60461193Y-90805000D02*
X60567533Y-91339609D01*
X60870365Y-91792828D01*
X61102596Y-91948000D01*
X61003870Y-91948000D01*
X60770481Y-92044673D01*
X60591853Y-92223302D01*
X60495180Y-92456691D01*
X60495180Y-93059250D01*
X60653930Y-93218000D01*
X62103000Y-93218000D01*
X62103000Y-93198000D01*
X62357000Y-93198000D01*
X62357000Y-93218000D01*
X62377000Y-93218000D01*
X62377000Y-93472000D01*
X62357000Y-93472000D01*
X62357000Y-94583250D01*
X62515750Y-94742000D01*
X63456130Y-94742000D01*
X63689519Y-94645327D01*
X63868147Y-94466698D01*
X63964820Y-94233309D01*
X63964820Y-93630750D01*
X63806072Y-93472002D01*
X63964820Y-93472002D01*
X63964820Y-93387394D01*
X65627563Y-95050137D01*
X65631212Y-95068480D01*
X65752499Y-95250000D01*
X65631212Y-95431520D01*
X65541009Y-95885000D01*
X65631212Y-96338480D01*
X65752499Y-96520000D01*
X65631212Y-96701520D01*
X65541009Y-97155000D01*
X65631212Y-97608480D01*
X65888087Y-97992922D01*
X66272529Y-98249797D01*
X66471800Y-98289435D01*
X66471800Y-98626406D01*
X66040000Y-99058206D01*
X64194097Y-97212303D01*
X63922166Y-97030604D01*
X63601400Y-96966800D01*
X62273440Y-96966800D01*
X62273440Y-96855000D01*
X62229162Y-96619683D01*
X62090090Y-96403559D01*
X61877890Y-96258569D01*
X61626000Y-96207560D01*
X59626000Y-96207560D01*
X59390683Y-96251838D01*
X59174559Y-96390910D01*
X59029569Y-96603110D01*
X58978560Y-96855000D01*
X58978560Y-98755000D01*
X59022838Y-98990317D01*
X59161910Y-99206441D01*
X59374110Y-99351431D01*
X59377192Y-99352055D01*
X59283086Y-99445997D01*
X59041276Y-100028341D01*
X59040725Y-100658893D01*
X59281519Y-101241657D01*
X59726997Y-101687914D01*
X60309341Y-101929724D01*
X60939893Y-101930275D01*
X61522657Y-101689481D01*
X61963757Y-101249151D01*
X64479532Y-103764926D01*
X64455276Y-103823341D01*
X64454725Y-104453893D01*
X64695519Y-105036657D01*
X65140997Y-105482914D01*
X65201800Y-105508162D01*
X65201800Y-107226360D01*
X65112900Y-107226360D01*
X64877583Y-107270638D01*
X64661459Y-107409710D01*
X64516469Y-107621910D01*
X64465460Y-107873800D01*
X64465460Y-108381800D01*
X62385194Y-108381800D01*
X62186468Y-108183074D01*
X62210724Y-108124659D01*
X62211275Y-107494107D01*
X61970481Y-106911343D01*
X61872971Y-106813663D01*
X62077441Y-106682090D01*
X62222431Y-106469890D01*
X62273440Y-106218000D01*
X62273440Y-104318000D01*
X62229162Y-104082683D01*
X62090090Y-103866559D01*
X61877890Y-103721569D01*
X61626000Y-103670560D01*
X59626000Y-103670560D01*
X59390683Y-103714838D01*
X59174559Y-103853910D01*
X59029569Y-104066110D01*
X58978560Y-104318000D01*
X58978560Y-104571800D01*
X56023299Y-104571800D01*
X55893303Y-104441577D01*
X55473354Y-104267199D01*
X55018641Y-104266802D01*
X54598388Y-104440446D01*
X54276577Y-104761697D01*
X54102199Y-105181646D01*
X54101802Y-105636359D01*
X54275446Y-106056612D01*
X54406800Y-106188195D01*
X54406800Y-107171701D01*
X54276577Y-107301697D01*
X54102199Y-107721646D01*
X54101802Y-108176359D01*
X54275446Y-108596612D01*
X54596697Y-108918423D01*
X55016646Y-109092801D01*
X55471359Y-109093198D01*
X55891612Y-108919554D01*
X56213423Y-108598303D01*
X56387801Y-108178354D01*
X56388198Y-107723641D01*
X56214554Y-107303388D01*
X56083200Y-107171805D01*
X56083200Y-106248200D01*
X58984243Y-106248200D01*
X59022838Y-106453317D01*
X59161910Y-106669441D01*
X59374110Y-106814431D01*
X59377192Y-106815055D01*
X59283086Y-106908997D01*
X59041276Y-107491341D01*
X59040725Y-108121893D01*
X59281519Y-108704657D01*
X59726997Y-109150914D01*
X60309341Y-109392724D01*
X60939893Y-109393275D01*
X61000740Y-109368134D01*
X61445303Y-109812697D01*
X61717235Y-109994396D01*
X62038000Y-110058200D01*
X64465460Y-110058200D01*
X64465460Y-110566200D01*
X64509738Y-110801517D01*
X64648810Y-111017641D01*
X64861010Y-111162631D01*
X65112900Y-111213640D01*
X65201800Y-111213640D01*
X65201800Y-111297078D01*
X65042683Y-111327018D01*
X64826559Y-111466090D01*
X64681569Y-111678290D01*
X64630560Y-111930180D01*
X64630560Y-114129820D01*
X64674838Y-114365137D01*
X64813910Y-114581261D01*
X65026110Y-114726251D01*
X65278000Y-114777260D01*
X65700688Y-114777260D01*
X64501547Y-115976401D01*
X63525399Y-115976401D01*
X63204633Y-116040205D01*
X62995843Y-116179714D01*
X62608460Y-116179376D01*
X62132174Y-116376173D01*
X61767454Y-116740257D01*
X61569826Y-117216199D01*
X61569376Y-117731540D01*
X61766173Y-118207826D01*
X62130257Y-118572546D01*
X62606199Y-118770174D01*
X63121540Y-118770624D01*
X63597826Y-118573827D01*
X63962546Y-118209743D01*
X64160174Y-117733801D01*
X64160245Y-117652801D01*
X64848741Y-117652801D01*
X65169507Y-117588997D01*
X65441438Y-117407298D01*
X67880164Y-114968572D01*
X67987303Y-115128917D01*
X70926083Y-118067697D01*
X71198015Y-118249396D01*
X71518780Y-118313200D01*
X72031363Y-118313200D01*
X72290257Y-118572546D01*
X72766199Y-118770174D01*
X73281540Y-118770624D01*
X73757826Y-118573827D01*
X74122546Y-118209743D01*
X74320174Y-117733801D01*
X74320237Y-117660980D01*
X77726602Y-117660980D01*
X77733210Y-117729698D01*
X77726602Y-117798416D01*
X77751692Y-118047258D01*
X77771838Y-118113120D01*
X77779032Y-118181621D01*
X77850979Y-118413389D01*
X77883158Y-118472665D01*
X77903150Y-118537081D01*
X78016990Y-118746816D01*
X78059302Y-118797704D01*
X78090652Y-118855988D01*
X78241423Y-119038724D01*
X78292309Y-119080262D01*
X78333848Y-119131149D01*
X78516584Y-119281920D01*
X78574870Y-119313271D01*
X78625757Y-119355582D01*
X78835491Y-119469423D01*
X78899908Y-119489415D01*
X78959182Y-119521593D01*
X79190951Y-119593540D01*
X79259453Y-119600734D01*
X79325315Y-119620880D01*
X79574156Y-119645970D01*
X79642874Y-119639362D01*
X79711592Y-119645970D01*
X79960434Y-119620880D01*
X80026296Y-119600734D01*
X80094797Y-119593540D01*
X80326565Y-119521593D01*
X80385841Y-119489414D01*
X80450257Y-119469422D01*
X80659992Y-119355582D01*
X80710880Y-119313270D01*
X80769164Y-119281920D01*
X80951900Y-119131149D01*
X80993438Y-119080263D01*
X81044325Y-119038724D01*
X81195096Y-118855988D01*
X81226447Y-118797702D01*
X81268758Y-118746815D01*
X81382599Y-118537081D01*
X81402591Y-118472664D01*
X81434769Y-118413390D01*
X81506716Y-118181621D01*
X81513910Y-118113119D01*
X81534056Y-118047257D01*
X81559146Y-117798416D01*
X81552538Y-117729698D01*
X81559146Y-117660980D01*
X109249822Y-117660980D01*
X109256430Y-117729698D01*
X109249822Y-117798416D01*
X109274912Y-118047258D01*
X109295058Y-118113120D01*
X109302252Y-118181621D01*
X109374199Y-118413389D01*
X109406378Y-118472665D01*
X109426370Y-118537081D01*
X109540210Y-118746816D01*
X109582522Y-118797704D01*
X109613872Y-118855988D01*
X109764643Y-119038724D01*
X109815529Y-119080262D01*
X109857069Y-119131150D01*
X110039807Y-119281922D01*
X110098089Y-119313270D01*
X110148976Y-119355582D01*
X110358710Y-119469422D01*
X110423126Y-119489414D01*
X110482402Y-119521593D01*
X110714171Y-119593540D01*
X110782673Y-119600734D01*
X110848535Y-119620880D01*
X111097376Y-119645970D01*
X111166094Y-119639362D01*
X111234812Y-119645970D01*
X111483654Y-119620880D01*
X111549517Y-119600734D01*
X111618016Y-119593540D01*
X111849786Y-119521593D01*
X111909062Y-119489415D01*
X111973480Y-119469422D01*
X112183213Y-119355582D01*
X112234102Y-119313269D01*
X112292384Y-119281920D01*
X112475120Y-119131149D01*
X112516656Y-119080265D01*
X112567544Y-119038726D01*
X112718315Y-118855990D01*
X112749666Y-118797704D01*
X112791979Y-118746815D01*
X112880308Y-118584081D01*
X123208686Y-118584081D01*
X123825000Y-119200395D01*
X124441314Y-118584081D01*
X125748686Y-118584081D01*
X126365000Y-119200395D01*
X126981314Y-118584081D01*
X126943176Y-118368144D01*
X126511945Y-118223909D01*
X126058343Y-118255678D01*
X125786824Y-118368144D01*
X125748686Y-118584081D01*
X124441314Y-118584081D01*
X124403176Y-118368144D01*
X123971945Y-118223909D01*
X123518343Y-118255678D01*
X123246824Y-118368144D01*
X123208686Y-118584081D01*
X112880308Y-118584081D01*
X112905820Y-118537081D01*
X112925812Y-118472664D01*
X112957990Y-118413390D01*
X113029937Y-118181621D01*
X113037131Y-118113121D01*
X113057278Y-118047255D01*
X113082367Y-117798413D01*
X113075759Y-117729698D01*
X113082367Y-117660983D01*
X113057278Y-117412141D01*
X113037131Y-117346275D01*
X113029937Y-117277775D01*
X112957990Y-117046006D01*
X112925812Y-116986732D01*
X112905820Y-116922315D01*
X112791979Y-116712581D01*
X112749666Y-116661692D01*
X112718315Y-116603406D01*
X112567544Y-116420670D01*
X112516657Y-116379131D01*
X112478184Y-116332000D01*
X121158000Y-116332000D01*
X121158000Y-116669820D01*
X121312941Y-117194761D01*
X121656974Y-117620450D01*
X122137723Y-117882080D01*
X122211930Y-117897040D01*
X122428000Y-117774540D01*
X122428000Y-116332000D01*
X121158000Y-116332000D01*
X112478184Y-116332000D01*
X112475121Y-116328248D01*
X112292386Y-116177476D01*
X112234102Y-116146126D01*
X112183213Y-116103813D01*
X111973480Y-115989973D01*
X111909061Y-115969980D01*
X111849783Y-115937801D01*
X111618013Y-115865855D01*
X111549515Y-115858661D01*
X111483654Y-115838516D01*
X111234812Y-115813426D01*
X111166094Y-115820034D01*
X111097376Y-115813426D01*
X110848535Y-115838516D01*
X110782675Y-115858661D01*
X110714174Y-115865855D01*
X110482405Y-115937801D01*
X110423127Y-115969980D01*
X110358710Y-115989973D01*
X110148976Y-116103813D01*
X110098087Y-116146126D01*
X110039805Y-116177475D01*
X109857068Y-116328247D01*
X109815530Y-116379134D01*
X109764643Y-116420672D01*
X109613872Y-116603408D01*
X109582522Y-116661692D01*
X109540210Y-116712580D01*
X109426370Y-116922315D01*
X109406378Y-116986731D01*
X109374199Y-117046007D01*
X109302252Y-117277775D01*
X109295058Y-117346276D01*
X109274912Y-117412138D01*
X109249822Y-117660980D01*
X81559146Y-117660980D01*
X81534056Y-117412139D01*
X81513910Y-117346277D01*
X81506716Y-117277775D01*
X81434769Y-117046006D01*
X81402591Y-116986732D01*
X81382599Y-116922315D01*
X81268758Y-116712581D01*
X81226447Y-116661694D01*
X81195096Y-116603408D01*
X81044325Y-116420672D01*
X80993439Y-116379133D01*
X80951901Y-116328248D01*
X80769166Y-116177476D01*
X80710880Y-116146125D01*
X80659992Y-116103813D01*
X80450257Y-115989973D01*
X80385842Y-115969981D01*
X80326563Y-115937801D01*
X80094794Y-115865855D01*
X80026294Y-115858661D01*
X79960434Y-115838516D01*
X79711592Y-115813426D01*
X79642874Y-115820034D01*
X79574156Y-115813426D01*
X79325315Y-115838516D01*
X79259455Y-115858661D01*
X79190954Y-115865855D01*
X78959185Y-115937801D01*
X78899909Y-115969979D01*
X78835491Y-115989972D01*
X78625757Y-116103813D01*
X78574868Y-116146126D01*
X78516582Y-116177477D01*
X78333846Y-116328248D01*
X78292307Y-116379136D01*
X78241423Y-116420672D01*
X78090652Y-116603408D01*
X78059302Y-116661692D01*
X78016990Y-116712580D01*
X77903150Y-116922315D01*
X77883158Y-116986731D01*
X77850979Y-117046007D01*
X77779032Y-117277775D01*
X77771838Y-117346276D01*
X77751692Y-117412138D01*
X77726602Y-117660980D01*
X74320237Y-117660980D01*
X74320624Y-117218460D01*
X74123827Y-116742174D01*
X73759743Y-116377454D01*
X73283801Y-116179826D01*
X72768460Y-116179376D01*
X72292174Y-116376173D01*
X72031092Y-116636800D01*
X71865974Y-116636800D01*
X70969354Y-115740180D01*
X121158000Y-115740180D01*
X121158000Y-116078000D01*
X122428000Y-116078000D01*
X122428000Y-114635460D01*
X122211930Y-114512960D01*
X122137723Y-114527920D01*
X121656974Y-114789550D01*
X121312941Y-115215239D01*
X121158000Y-115740180D01*
X70969354Y-115740180D01*
X69588248Y-114359074D01*
X69870660Y-113936416D01*
X69889825Y-113840069D01*
X70069166Y-113804396D01*
X70341097Y-113622697D01*
X71977435Y-111986359D01*
X98551802Y-111986359D01*
X98725446Y-112406612D01*
X99046697Y-112728423D01*
X99466646Y-112902801D01*
X99921359Y-112903198D01*
X100341612Y-112729554D01*
X100663423Y-112408303D01*
X100837801Y-111988354D01*
X100838198Y-111533641D01*
X100664554Y-111113388D01*
X100343303Y-110791577D01*
X99923354Y-110617199D01*
X99468641Y-110616802D01*
X99048388Y-110790446D01*
X98726577Y-111111697D01*
X98552199Y-111531646D01*
X98551802Y-111986359D01*
X71977435Y-111986359D01*
X72982697Y-110981097D01*
X73164396Y-110709165D01*
X73228200Y-110388400D01*
X73228200Y-106450000D01*
X74665715Y-106450000D01*
X74665715Y-110420000D01*
X89164286Y-110420000D01*
X89164286Y-106450000D01*
X74665715Y-106450000D01*
X73228200Y-106450000D01*
X73228200Y-106016800D01*
X73639680Y-106016800D01*
X73874997Y-105972522D01*
X74091121Y-105833450D01*
X74236111Y-105621250D01*
X74287120Y-105369360D01*
X74287120Y-103956594D01*
X76792697Y-101451017D01*
X76974396Y-101179085D01*
X77038200Y-100858320D01*
X77038200Y-99637271D01*
X94749620Y-99637271D01*
X94749620Y-99927410D01*
X94908370Y-100086160D01*
X95758000Y-100086160D01*
X95758000Y-99287330D01*
X96012000Y-99287330D01*
X96012000Y-100086160D01*
X96861630Y-100086160D01*
X96891770Y-100056020D01*
X97038750Y-100203000D01*
X98138000Y-100203000D01*
X98138000Y-99553750D01*
X98392000Y-99553750D01*
X98392000Y-100203000D01*
X99491250Y-100203000D01*
X99650000Y-100044250D01*
X99650000Y-99903690D01*
X99553327Y-99670301D01*
X99374698Y-99491673D01*
X99141309Y-99395000D01*
X98550750Y-99395000D01*
X98392000Y-99553750D01*
X98138000Y-99553750D01*
X97979250Y-99395000D01*
X97388691Y-99395000D01*
X97155302Y-99491673D01*
X97017253Y-99629721D01*
X96923707Y-99403882D01*
X96745079Y-99225253D01*
X96511690Y-99128580D01*
X96170750Y-99128580D01*
X96012000Y-99287330D01*
X95758000Y-99287330D01*
X95599250Y-99128580D01*
X95258310Y-99128580D01*
X95024921Y-99225253D01*
X94846293Y-99403882D01*
X94749620Y-99637271D01*
X77038200Y-99637271D01*
X77038200Y-98459229D01*
X77106416Y-98445660D01*
X77559635Y-98142828D01*
X77644139Y-98016359D01*
X98551802Y-98016359D01*
X98725446Y-98436612D01*
X99046697Y-98758423D01*
X99466646Y-98932801D01*
X99921359Y-98933198D01*
X100341612Y-98759554D01*
X100663423Y-98438303D01*
X100837801Y-98018354D01*
X100838198Y-97563641D01*
X100664554Y-97143388D01*
X100343303Y-96821577D01*
X99923354Y-96647199D01*
X99468641Y-96646802D01*
X99048388Y-96820446D01*
X98726577Y-97141697D01*
X98552199Y-97561646D01*
X98551802Y-98016359D01*
X77644139Y-98016359D01*
X77862467Y-97689609D01*
X77968807Y-97155000D01*
X77862467Y-96620391D01*
X77559635Y-96167172D01*
X77335870Y-96017657D01*
X77535137Y-95980162D01*
X77751261Y-95841090D01*
X77896251Y-95628890D01*
X77947260Y-95377000D01*
X77947260Y-93853000D01*
X77902982Y-93617683D01*
X77858271Y-93548200D01*
X97526226Y-93548200D01*
X101223489Y-97245463D01*
X101092199Y-97561646D01*
X101091802Y-98016359D01*
X101265446Y-98436612D01*
X101586697Y-98758423D01*
X101726723Y-98816567D01*
X99563521Y-100979769D01*
X99559822Y-100974020D01*
X99650000Y-100756310D01*
X99650000Y-100615750D01*
X99491250Y-100457000D01*
X98392000Y-100457000D01*
X98392000Y-100477000D01*
X98138000Y-100477000D01*
X98138000Y-100457000D01*
X97038750Y-100457000D01*
X97008610Y-100487140D01*
X96861630Y-100340160D01*
X96012000Y-100340160D01*
X96012000Y-100360160D01*
X95758000Y-100360160D01*
X95758000Y-100340160D01*
X94908370Y-100340160D01*
X94749620Y-100498910D01*
X94749620Y-100789049D01*
X94822541Y-100965095D01*
X94788189Y-101015370D01*
X94737180Y-101267260D01*
X94737180Y-102166420D01*
X94781458Y-102401737D01*
X94920530Y-102617861D01*
X95046800Y-102704138D01*
X95046800Y-102916400D01*
X95110604Y-103237166D01*
X95292303Y-103509097D01*
X95979346Y-104196140D01*
X95384620Y-104196140D01*
X95149303Y-104240418D01*
X94933179Y-104379490D01*
X94930881Y-104382854D01*
X94732270Y-104247149D01*
X94480380Y-104196140D01*
X93479620Y-104196140D01*
X93244303Y-104240418D01*
X93028179Y-104379490D01*
X92883189Y-104591690D01*
X92832180Y-104843580D01*
X92832180Y-105742740D01*
X92876458Y-105978057D01*
X92918599Y-106043546D01*
X92883189Y-106095370D01*
X92883102Y-106095800D01*
X92764960Y-106095800D01*
X92763862Y-106094700D01*
X92399907Y-105943572D01*
X92005822Y-105943228D01*
X91641603Y-106093721D01*
X91362700Y-106372138D01*
X91211572Y-106736093D01*
X91211228Y-107130178D01*
X91361721Y-107494397D01*
X91640138Y-107773300D01*
X92004093Y-107924428D01*
X92398178Y-107924772D01*
X92762397Y-107774279D01*
X92764480Y-107772200D01*
X93124329Y-107772200D01*
X93227730Y-107842851D01*
X93479620Y-107893860D01*
X94480380Y-107893860D01*
X94715697Y-107849582D01*
X94931821Y-107710510D01*
X94934119Y-107707146D01*
X95132730Y-107842851D01*
X95384620Y-107893860D01*
X95796626Y-107893860D01*
X96445463Y-108542697D01*
X96717395Y-108724396D01*
X97038160Y-108788200D01*
X97177886Y-108788200D01*
X97263110Y-108846431D01*
X97515000Y-108897440D01*
X99015000Y-108897440D01*
X99250317Y-108853162D01*
X99466441Y-108714090D01*
X99611431Y-108501890D01*
X99662440Y-108250000D01*
X99662440Y-107650000D01*
X99635128Y-107504848D01*
X99888766Y-107454396D01*
X100160697Y-107272697D01*
X100524623Y-106908771D01*
X100526178Y-106908772D01*
X100853239Y-106773633D01*
X102267560Y-108187954D01*
X102267560Y-108250000D01*
X102311838Y-108485317D01*
X102450910Y-108701441D01*
X102663110Y-108846431D01*
X102915000Y-108897440D01*
X104415000Y-108897440D01*
X104571800Y-108867936D01*
X104571800Y-109618780D01*
X104635604Y-109939546D01*
X104817303Y-110211477D01*
X104819526Y-110213700D01*
X104686569Y-110408290D01*
X104635560Y-110660180D01*
X104635560Y-110921800D01*
X103013299Y-110921800D01*
X102883303Y-110791577D01*
X102463354Y-110617199D01*
X102008641Y-110616802D01*
X101588388Y-110790446D01*
X101266577Y-111111697D01*
X101092199Y-111531646D01*
X101091802Y-111986359D01*
X101265446Y-112406612D01*
X101586697Y-112728423D01*
X102006646Y-112902801D01*
X102461359Y-112903198D01*
X102881612Y-112729554D01*
X103013195Y-112598200D01*
X104635560Y-112598200D01*
X104635560Y-112859820D01*
X104679838Y-113095137D01*
X104818910Y-113311261D01*
X105031110Y-113456251D01*
X105283000Y-113507260D01*
X106807000Y-113507260D01*
X107042317Y-113462982D01*
X107258441Y-113323910D01*
X107403431Y-113111710D01*
X107447260Y-112895276D01*
X107597172Y-113119635D01*
X108050391Y-113422467D01*
X108585000Y-113528807D01*
X109119609Y-113422467D01*
X109572828Y-113119635D01*
X109875660Y-112666416D01*
X109982000Y-112131807D01*
X109982000Y-111388193D01*
X109875660Y-110853584D01*
X109572828Y-110400365D01*
X109119609Y-110097533D01*
X108585000Y-109991193D01*
X108050391Y-110097533D01*
X107597172Y-110400365D01*
X107447657Y-110624130D01*
X107410162Y-110424863D01*
X107271090Y-110208739D01*
X107058890Y-110063749D01*
X106836440Y-110018702D01*
X106819396Y-109933015D01*
X106637697Y-109661083D01*
X106248200Y-109271586D01*
X106248200Y-108297194D01*
X106764697Y-107780697D01*
X106802180Y-107724600D01*
X106802180Y-107881420D01*
X106846458Y-108116737D01*
X106985530Y-108332861D01*
X107197730Y-108477851D01*
X107449620Y-108528860D01*
X107861626Y-108528860D01*
X107875463Y-108542697D01*
X108147395Y-108724396D01*
X108468160Y-108788200D01*
X109242886Y-108788200D01*
X109328110Y-108846431D01*
X109580000Y-108897440D01*
X111080000Y-108897440D01*
X111315317Y-108853162D01*
X111531441Y-108714090D01*
X111676431Y-108501890D01*
X111727440Y-108250000D01*
X111727440Y-107650000D01*
X111724096Y-107632227D01*
X111816093Y-107670428D01*
X112210178Y-107670772D01*
X112574397Y-107520279D01*
X112853300Y-107241862D01*
X113004428Y-106877907D01*
X113004772Y-106483822D01*
X112886719Y-106198113D01*
X113684599Y-106995993D01*
X113684599Y-107345761D01*
X113748403Y-107666527D01*
X113930102Y-107938458D01*
X114021542Y-108029898D01*
X114293474Y-108211597D01*
X114332560Y-108219372D01*
X114332560Y-108250000D01*
X114376838Y-108485317D01*
X114515910Y-108701441D01*
X114728110Y-108846431D01*
X114980000Y-108897440D01*
X116480000Y-108897440D01*
X116715317Y-108853162D01*
X116816271Y-108788200D01*
X118710771Y-108788200D01*
X118724340Y-108856416D01*
X119027172Y-109309635D01*
X119480391Y-109612467D01*
X120015000Y-109718807D01*
X120549609Y-109612467D01*
X121002828Y-109309635D01*
X121152343Y-109085870D01*
X121189838Y-109285137D01*
X121328910Y-109501261D01*
X121541110Y-109646251D01*
X121793000Y-109697260D01*
X122102831Y-109697260D01*
X121470758Y-110329333D01*
X121298303Y-110156577D01*
X120878354Y-109982199D01*
X120423641Y-109981802D01*
X120003388Y-110155446D01*
X119681577Y-110476697D01*
X119507199Y-110896646D01*
X119506802Y-111351359D01*
X119680446Y-111771612D01*
X120001697Y-112093423D01*
X120421646Y-112267801D01*
X120876359Y-112268198D01*
X121183400Y-112141332D01*
X121183400Y-112692180D01*
X121239470Y-112974065D01*
X121399145Y-113213035D01*
X122771071Y-114584961D01*
X122682000Y-114635460D01*
X122682000Y-116078000D01*
X122702000Y-116078000D01*
X122702000Y-116332000D01*
X122682000Y-116332000D01*
X122682000Y-117774540D01*
X122898070Y-117897040D01*
X122972277Y-117882080D01*
X123453026Y-117620450D01*
X123797059Y-117194761D01*
X123816353Y-117129394D01*
X124107172Y-117564635D01*
X124560391Y-117867467D01*
X125095000Y-117973807D01*
X125629609Y-117867467D01*
X126082828Y-117564635D01*
X126232343Y-117340870D01*
X126269838Y-117540137D01*
X126408910Y-117756261D01*
X126621110Y-117901251D01*
X126873000Y-117952260D01*
X128397000Y-117952260D01*
X128632317Y-117907982D01*
X128848441Y-117768910D01*
X128993431Y-117556710D01*
X129044440Y-117304820D01*
X129044440Y-115105180D01*
X129000162Y-114869863D01*
X128861090Y-114653739D01*
X128648890Y-114508749D01*
X128473200Y-114473171D01*
X128473200Y-113542820D01*
X129237740Y-113542820D01*
X129473057Y-113498542D01*
X129538546Y-113456401D01*
X129590370Y-113491811D01*
X129842260Y-113542820D01*
X130741420Y-113542820D01*
X130976737Y-113498542D01*
X131192861Y-113359470D01*
X131279138Y-113233200D01*
X131656451Y-113233200D01*
X131556715Y-113287236D01*
X131505598Y-113329672D01*
X131447088Y-113361142D01*
X131125730Y-113626278D01*
X131084185Y-113677172D01*
X131033291Y-113718717D01*
X130768154Y-114040075D01*
X130736683Y-114098585D01*
X130694247Y-114149703D01*
X130494157Y-114519016D01*
X130474165Y-114583606D01*
X130441981Y-114643071D01*
X130315752Y-115051523D01*
X130308673Y-115119757D01*
X130288637Y-115185365D01*
X130244540Y-115624684D01*
X130247869Y-115659143D01*
X130241115Y-115693098D01*
X130241115Y-120484422D01*
X126719700Y-120484422D01*
X126943176Y-120391856D01*
X126981314Y-120175919D01*
X126365000Y-119559605D01*
X125748686Y-120175919D01*
X125786824Y-120391856D01*
X126063576Y-120484422D01*
X124179700Y-120484422D01*
X124403176Y-120391856D01*
X124441314Y-120175919D01*
X123825000Y-119559605D01*
X123208686Y-120175919D01*
X123246824Y-120391856D01*
X123523576Y-120484422D01*
X121917995Y-120484422D01*
X121917995Y-119547745D01*
X121865852Y-119285607D01*
X121830738Y-119233055D01*
X122668909Y-119233055D01*
X122700678Y-119686657D01*
X122813144Y-119958176D01*
X123029081Y-119996314D01*
X123645395Y-119380000D01*
X124004605Y-119380000D01*
X124620919Y-119996314D01*
X124836856Y-119958176D01*
X124981091Y-119526945D01*
X124960508Y-119233055D01*
X125208909Y-119233055D01*
X125240678Y-119686657D01*
X125353144Y-119958176D01*
X125569081Y-119996314D01*
X126185395Y-119380000D01*
X126544605Y-119380000D01*
X127160919Y-119996314D01*
X127376856Y-119958176D01*
X127521091Y-119526945D01*
X127489322Y-119073343D01*
X127376856Y-118801824D01*
X127160919Y-118763686D01*
X126544605Y-119380000D01*
X126185395Y-119380000D01*
X125569081Y-118763686D01*
X125353144Y-118801824D01*
X125208909Y-119233055D01*
X124960508Y-119233055D01*
X124949322Y-119073343D01*
X124836856Y-118801824D01*
X124620919Y-118763686D01*
X124004605Y-119380000D01*
X123645395Y-119380000D01*
X123029081Y-118763686D01*
X122813144Y-118801824D01*
X122668909Y-119233055D01*
X121830738Y-119233055D01*
X121717363Y-119063377D01*
X121495133Y-118914888D01*
X121232995Y-118862745D01*
X118702918Y-118862745D01*
X118440780Y-118914888D01*
X118257536Y-119037327D01*
X118074292Y-118914888D01*
X117812154Y-118862745D01*
X115282074Y-118862745D01*
X115019936Y-118914888D01*
X114797706Y-119063377D01*
X114649217Y-119285607D01*
X114597074Y-119547745D01*
X114597074Y-120484422D01*
X76161614Y-120484422D01*
X76161614Y-119547745D01*
X76109471Y-119285607D01*
X75960982Y-119063377D01*
X75738752Y-118914888D01*
X75476614Y-118862745D01*
X72946537Y-118862745D01*
X72684399Y-118914888D01*
X72501155Y-119037327D01*
X72317911Y-118914888D01*
X72055773Y-118862745D01*
X69525142Y-118862745D01*
X69263004Y-118914888D01*
X69040774Y-119063377D01*
X68892285Y-119285607D01*
X68840142Y-119547745D01*
X68840142Y-120484422D01*
X60588682Y-120484422D01*
X60588682Y-115693098D01*
X60582011Y-115659560D01*
X60585341Y-115625529D01*
X60541794Y-115186210D01*
X60521596Y-115119776D01*
X60514345Y-115050717D01*
X60387565Y-114642266D01*
X60355696Y-114583555D01*
X60336015Y-114519710D01*
X60136474Y-114150397D01*
X60093849Y-114098932D01*
X60062195Y-114040079D01*
X59797062Y-113718721D01*
X59745947Y-113676994D01*
X59704174Y-113625910D01*
X59382263Y-113360774D01*
X59323975Y-113329487D01*
X59273081Y-113287236D01*
X58903768Y-113087146D01*
X58839179Y-113067154D01*
X58779715Y-113034971D01*
X58371264Y-112908741D01*
X58303030Y-112901661D01*
X58237420Y-112881625D01*
X57798101Y-112837528D01*
X57763642Y-112840857D01*
X57729687Y-112834103D01*
X52949389Y-112834103D01*
X52949389Y-93630750D01*
X60495180Y-93630750D01*
X60495180Y-94233309D01*
X60591853Y-94466698D01*
X60770481Y-94645327D01*
X61003870Y-94742000D01*
X61944250Y-94742000D01*
X62103000Y-94583250D01*
X62103000Y-93472000D01*
X60653930Y-93472000D01*
X60495180Y-93630750D01*
X52949389Y-93630750D01*
X52949389Y-92793249D01*
X57729687Y-92793249D01*
X57763642Y-92786495D01*
X57798101Y-92789824D01*
X58237420Y-92745727D01*
X58303028Y-92725691D01*
X58371262Y-92718612D01*
X58779713Y-92592383D01*
X58839178Y-92560199D01*
X58903768Y-92540207D01*
X59273081Y-92340117D01*
X59323709Y-92298088D01*
X59381722Y-92267024D01*
X59703633Y-92002440D01*
X59745858Y-91950910D01*
X59797430Y-91908738D01*
X60062563Y-91586827D01*
X60094033Y-91528198D01*
X60136474Y-91476955D01*
X60336015Y-91107642D01*
X60355696Y-91043797D01*
X60387565Y-90985086D01*
X60492829Y-90645952D01*
X60461193Y-90805000D01*
G36*
X126407303Y-110970935D02*
X126731789Y-111295421D01*
X126608840Y-111418370D01*
X126608840Y-112268000D01*
X126628840Y-112268000D01*
X126628840Y-112522000D01*
X126608840Y-112522000D01*
X126608840Y-113371630D01*
X126767590Y-113530380D01*
X126796800Y-113530380D01*
X126796800Y-114472078D01*
X126637683Y-114502018D01*
X126421559Y-114641090D01*
X126276569Y-114853290D01*
X126232740Y-115069724D01*
X126082828Y-114845365D01*
X125629609Y-114542533D01*
X125095000Y-114436193D01*
X124770308Y-114500778D01*
X122656600Y-112387070D01*
X122656600Y-112141135D01*
X122961646Y-112267801D01*
X123416359Y-112268198D01*
X123836612Y-112094554D01*
X123881140Y-112050103D01*
X123881140Y-112895380D01*
X123925418Y-113130697D01*
X124064490Y-113346821D01*
X124276690Y-113491811D01*
X124528580Y-113542820D01*
X125427740Y-113542820D01*
X125663057Y-113498542D01*
X125728078Y-113456702D01*
X125905951Y-113530380D01*
X126196090Y-113530380D01*
X126354840Y-113371630D01*
X126354840Y-112522000D01*
X126334840Y-112522000D01*
X126334840Y-112268000D01*
X126354840Y-112268000D01*
X126354840Y-111418370D01*
X126258500Y-111322030D01*
X126258500Y-110947336D01*
X126351534Y-110887471D01*
X126407303Y-110970935D01*
X126407303Y-110970935D01*
G37*
X126407303Y-110970935D02*
X126731789Y-111295421D01*
X126608840Y-111418370D01*
X126608840Y-112268000D01*
X126628840Y-112268000D01*
X126628840Y-112522000D01*
X126608840Y-112522000D01*
X126608840Y-113371630D01*
X126767590Y-113530380D01*
X126796800Y-113530380D01*
X126796800Y-114472078D01*
X126637683Y-114502018D01*
X126421559Y-114641090D01*
X126276569Y-114853290D01*
X126232740Y-115069724D01*
X126082828Y-114845365D01*
X125629609Y-114542533D01*
X125095000Y-114436193D01*
X124770308Y-114500778D01*
X122656600Y-112387070D01*
X122656600Y-112141135D01*
X122961646Y-112267801D01*
X123416359Y-112268198D01*
X123836612Y-112094554D01*
X123881140Y-112050103D01*
X123881140Y-112895380D01*
X123925418Y-113130697D01*
X124064490Y-113346821D01*
X124276690Y-113491811D01*
X124528580Y-113542820D01*
X125427740Y-113542820D01*
X125663057Y-113498542D01*
X125728078Y-113456702D01*
X125905951Y-113530380D01*
X126196090Y-113530380D01*
X126354840Y-113371630D01*
X126354840Y-112522000D01*
X126334840Y-112522000D01*
X126334840Y-112268000D01*
X126354840Y-112268000D01*
X126354840Y-111418370D01*
X126258500Y-111322030D01*
X126258500Y-110947336D01*
X126351534Y-110887471D01*
X126407303Y-110970935D01*
G36*
X134620840Y-100294690D02*
X134645119Y-100423719D01*
X134620840Y-100543610D01*
X134620840Y-100942390D01*
X134645119Y-101071419D01*
X134620840Y-101191310D01*
X134620840Y-101590090D01*
X134641247Y-101698546D01*
X134633280Y-101717781D01*
X134633280Y-101785035D01*
X134663140Y-101814895D01*
X134665118Y-101825407D01*
X134804190Y-102041531D01*
X134952951Y-102143175D01*
X134792030Y-102143175D01*
X134633280Y-102301925D01*
X134633280Y-102369179D01*
X134729953Y-102602568D01*
X134908581Y-102781197D01*
X135141970Y-102877870D01*
X135449278Y-102877870D01*
X135592793Y-103225204D01*
X135883346Y-103516265D01*
X136263166Y-103673980D01*
X136674429Y-103674339D01*
X137054524Y-103517287D01*
X137068635Y-103503200D01*
X137019870Y-103744010D01*
X137019870Y-105641390D01*
X137064148Y-105876707D01*
X137203220Y-106092831D01*
X137415420Y-106237821D01*
X137667310Y-106288830D01*
X138303000Y-106288830D01*
X138303000Y-109676679D01*
X138180901Y-109700966D01*
X137958671Y-109849455D01*
X137810182Y-110071685D01*
X137758039Y-110333823D01*
X137758039Y-112834103D01*
X133901404Y-112834103D01*
X134183629Y-112552370D01*
X134396757Y-112039100D01*
X134397242Y-111483339D01*
X134185010Y-110969697D01*
X133792370Y-110576371D01*
X133584488Y-110490051D01*
X133790303Y-110405010D01*
X134152672Y-110043273D01*
X134398396Y-109994396D01*
X134670327Y-109812697D01*
X134958697Y-109524327D01*
X135140396Y-109252395D01*
X135204200Y-108931630D01*
X135204200Y-103489762D01*
X135140396Y-103168997D01*
X134958697Y-102897065D01*
X134188199Y-102126567D01*
X134188199Y-100179120D01*
X134620840Y-100179120D01*
X134620840Y-100294690D01*
X134620840Y-100294690D01*
G37*
X134620840Y-100294690D02*
X134645119Y-100423719D01*
X134620840Y-100543610D01*
X134620840Y-100942390D01*
X134645119Y-101071419D01*
X134620840Y-101191310D01*
X134620840Y-101590090D01*
X134641247Y-101698546D01*
X134633280Y-101717781D01*
X134633280Y-101785035D01*
X134663140Y-101814895D01*
X134665118Y-101825407D01*
X134804190Y-102041531D01*
X134952951Y-102143175D01*
X134792030Y-102143175D01*
X134633280Y-102301925D01*
X134633280Y-102369179D01*
X134729953Y-102602568D01*
X134908581Y-102781197D01*
X135141970Y-102877870D01*
X135449278Y-102877870D01*
X135592793Y-103225204D01*
X135883346Y-103516265D01*
X136263166Y-103673980D01*
X136674429Y-103674339D01*
X137054524Y-103517287D01*
X137068635Y-103503200D01*
X137019870Y-103744010D01*
X137019870Y-105641390D01*
X137064148Y-105876707D01*
X137203220Y-106092831D01*
X137415420Y-106237821D01*
X137667310Y-106288830D01*
X138303000Y-106288830D01*
X138303000Y-109676679D01*
X138180901Y-109700966D01*
X137958671Y-109849455D01*
X137810182Y-110071685D01*
X137758039Y-110333823D01*
X137758039Y-112834103D01*
X133901404Y-112834103D01*
X134183629Y-112552370D01*
X134396757Y-112039100D01*
X134397242Y-111483339D01*
X134185010Y-110969697D01*
X133792370Y-110576371D01*
X133584488Y-110490051D01*
X133790303Y-110405010D01*
X134152672Y-110043273D01*
X134398396Y-109994396D01*
X134670327Y-109812697D01*
X134958697Y-109524327D01*
X135140396Y-109252395D01*
X135204200Y-108931630D01*
X135204200Y-103489762D01*
X135140396Y-103168997D01*
X134958697Y-102897065D01*
X134188199Y-102126567D01*
X134188199Y-100179120D01*
X134620840Y-100179120D01*
X134620840Y-100294690D01*
G36*
X74503749Y-93601110D02*
X74452740Y-93853000D01*
X74452740Y-95377000D01*
X74497018Y-95612317D01*
X74636090Y-95828441D01*
X74848290Y-95973431D01*
X75064724Y-96017260D01*
X74840365Y-96167172D01*
X74537533Y-96620391D01*
X74431193Y-97155000D01*
X74537533Y-97689609D01*
X74840365Y-98142828D01*
X75293584Y-98445660D01*
X75361800Y-98459229D01*
X75361800Y-100511126D01*
X74257928Y-101614998D01*
X74115930Y-101473000D01*
X72517000Y-101473000D01*
X72517000Y-101493000D01*
X72263000Y-101493000D01*
X72263000Y-101473000D01*
X70664070Y-101473000D01*
X70505320Y-101631750D01*
X70505320Y-102447669D01*
X70601993Y-102681058D01*
X70780621Y-102859687D01*
X70814495Y-102873718D01*
X70688879Y-102954550D01*
X70543889Y-103166750D01*
X70492880Y-103418640D01*
X70492880Y-105369360D01*
X70537158Y-105604677D01*
X70676230Y-105820801D01*
X70888430Y-105965791D01*
X71140320Y-106016800D01*
X71551800Y-106016800D01*
X71551800Y-110041206D01*
X69709946Y-111883060D01*
X69567828Y-111670365D01*
X69114609Y-111367533D01*
X68580000Y-111261193D01*
X68351936Y-111306558D01*
X68444854Y-111213640D01*
X69507100Y-111213640D01*
X69742417Y-111169362D01*
X69958541Y-111030290D01*
X70103531Y-110818090D01*
X70154540Y-110566200D01*
X70154540Y-107873800D01*
X70110262Y-107638483D01*
X69971190Y-107422359D01*
X69758990Y-107277369D01*
X69507100Y-107226360D01*
X67906900Y-107226360D01*
X67671583Y-107270638D01*
X67455459Y-107409710D01*
X67310469Y-107621910D01*
X67309303Y-107627668D01*
X67177190Y-107422359D01*
X66964990Y-107277369D01*
X66878200Y-107259794D01*
X66878200Y-105508635D01*
X66936657Y-105484481D01*
X67382914Y-105039003D01*
X67624724Y-104456659D01*
X67625275Y-103826107D01*
X67384481Y-103243343D01*
X67286971Y-103145663D01*
X67491441Y-103014090D01*
X67636431Y-102801890D01*
X67687440Y-102550000D01*
X67687440Y-100650000D01*
X67643162Y-100414683D01*
X67533544Y-100244331D01*
X70505320Y-100244331D01*
X70505320Y-101060250D01*
X70664070Y-101219000D01*
X72263000Y-101219000D01*
X72263000Y-99894390D01*
X72517000Y-99894390D01*
X72517000Y-101219000D01*
X74115930Y-101219000D01*
X74274680Y-101060250D01*
X74274680Y-100244331D01*
X74178007Y-100010942D01*
X73999379Y-99832313D01*
X73765990Y-99735640D01*
X72675750Y-99735640D01*
X72517000Y-99894390D01*
X72263000Y-99894390D01*
X72104250Y-99735640D01*
X71014010Y-99735640D01*
X70780621Y-99832313D01*
X70601993Y-100010942D01*
X70505320Y-100244331D01*
X67533544Y-100244331D01*
X67504090Y-100198559D01*
X67365280Y-100103714D01*
X67902697Y-99566297D01*
X68084396Y-99294366D01*
X68148200Y-98973600D01*
X68148200Y-98289435D01*
X68347471Y-98249797D01*
X68417882Y-98202750D01*
X70408800Y-98202750D01*
X70408800Y-98843409D01*
X70505473Y-99076798D01*
X70684101Y-99255427D01*
X70917490Y-99352100D01*
X72104250Y-99352100D01*
X72263000Y-99193350D01*
X72263000Y-98044000D01*
X72517000Y-98044000D01*
X72517000Y-99193350D01*
X72675750Y-99352100D01*
X73862510Y-99352100D01*
X74095899Y-99255427D01*
X74274527Y-99076798D01*
X74371200Y-98843409D01*
X74371200Y-98202750D01*
X74212450Y-98044000D01*
X72517000Y-98044000D01*
X72263000Y-98044000D01*
X70567550Y-98044000D01*
X70408800Y-98202750D01*
X68417882Y-98202750D01*
X68731913Y-97992922D01*
X68988788Y-97608480D01*
X69078991Y-97155000D01*
X68988788Y-96701520D01*
X68981351Y-96690389D01*
X69137166Y-96659396D01*
X69409097Y-96477697D01*
X69934697Y-95952097D01*
X70116396Y-95680165D01*
X70156796Y-95477059D01*
X70160093Y-95478428D01*
X70396360Y-95478634D01*
X70396360Y-95923100D01*
X70440638Y-96158417D01*
X70579710Y-96374541D01*
X70791910Y-96519531D01*
X70815237Y-96524255D01*
X70684101Y-96578573D01*
X70505473Y-96757202D01*
X70408800Y-96990591D01*
X70408800Y-97631250D01*
X70567550Y-97790000D01*
X72263000Y-97790000D01*
X72263000Y-97770000D01*
X72517000Y-97770000D01*
X72517000Y-97790000D01*
X74212450Y-97790000D01*
X74371200Y-97631250D01*
X74371200Y-96990591D01*
X74274527Y-96757202D01*
X74095899Y-96578573D01*
X73970205Y-96526509D01*
X73971517Y-96526262D01*
X74187641Y-96387190D01*
X74332631Y-96174990D01*
X74383640Y-95923100D01*
X74383640Y-94322900D01*
X74339362Y-94087583D01*
X74200290Y-93871459D01*
X73988090Y-93726469D01*
X73968285Y-93722458D01*
X74042861Y-93674470D01*
X74129138Y-93548200D01*
X74539901Y-93548200D01*
X74503749Y-93601110D01*
X74503749Y-93601110D01*
G37*
X74503749Y-93601110D02*
X74452740Y-93853000D01*
X74452740Y-95377000D01*
X74497018Y-95612317D01*
X74636090Y-95828441D01*
X74848290Y-95973431D01*
X75064724Y-96017260D01*
X74840365Y-96167172D01*
X74537533Y-96620391D01*
X74431193Y-97155000D01*
X74537533Y-97689609D01*
X74840365Y-98142828D01*
X75293584Y-98445660D01*
X75361800Y-98459229D01*
X75361800Y-100511126D01*
X74257928Y-101614998D01*
X74115930Y-101473000D01*
X72517000Y-101473000D01*
X72517000Y-101493000D01*
X72263000Y-101493000D01*
X72263000Y-101473000D01*
X70664070Y-101473000D01*
X70505320Y-101631750D01*
X70505320Y-102447669D01*
X70601993Y-102681058D01*
X70780621Y-102859687D01*
X70814495Y-102873718D01*
X70688879Y-102954550D01*
X70543889Y-103166750D01*
X70492880Y-103418640D01*
X70492880Y-105369360D01*
X70537158Y-105604677D01*
X70676230Y-105820801D01*
X70888430Y-105965791D01*
X71140320Y-106016800D01*
X71551800Y-106016800D01*
X71551800Y-110041206D01*
X69709946Y-111883060D01*
X69567828Y-111670365D01*
X69114609Y-111367533D01*
X68580000Y-111261193D01*
X68351936Y-111306558D01*
X68444854Y-111213640D01*
X69507100Y-111213640D01*
X69742417Y-111169362D01*
X69958541Y-111030290D01*
X70103531Y-110818090D01*
X70154540Y-110566200D01*
X70154540Y-107873800D01*
X70110262Y-107638483D01*
X69971190Y-107422359D01*
X69758990Y-107277369D01*
X69507100Y-107226360D01*
X67906900Y-107226360D01*
X67671583Y-107270638D01*
X67455459Y-107409710D01*
X67310469Y-107621910D01*
X67309303Y-107627668D01*
X67177190Y-107422359D01*
X66964990Y-107277369D01*
X66878200Y-107259794D01*
X66878200Y-105508635D01*
X66936657Y-105484481D01*
X67382914Y-105039003D01*
X67624724Y-104456659D01*
X67625275Y-103826107D01*
X67384481Y-103243343D01*
X67286971Y-103145663D01*
X67491441Y-103014090D01*
X67636431Y-102801890D01*
X67687440Y-102550000D01*
X67687440Y-100650000D01*
X67643162Y-100414683D01*
X67533544Y-100244331D01*
X70505320Y-100244331D01*
X70505320Y-101060250D01*
X70664070Y-101219000D01*
X72263000Y-101219000D01*
X72263000Y-99894390D01*
X72517000Y-99894390D01*
X72517000Y-101219000D01*
X74115930Y-101219000D01*
X74274680Y-101060250D01*
X74274680Y-100244331D01*
X74178007Y-100010942D01*
X73999379Y-99832313D01*
X73765990Y-99735640D01*
X72675750Y-99735640D01*
X72517000Y-99894390D01*
X72263000Y-99894390D01*
X72104250Y-99735640D01*
X71014010Y-99735640D01*
X70780621Y-99832313D01*
X70601993Y-100010942D01*
X70505320Y-100244331D01*
X67533544Y-100244331D01*
X67504090Y-100198559D01*
X67365280Y-100103714D01*
X67902697Y-99566297D01*
X68084396Y-99294366D01*
X68148200Y-98973600D01*
X68148200Y-98289435D01*
X68347471Y-98249797D01*
X68417882Y-98202750D01*
X70408800Y-98202750D01*
X70408800Y-98843409D01*
X70505473Y-99076798D01*
X70684101Y-99255427D01*
X70917490Y-99352100D01*
X72104250Y-99352100D01*
X72263000Y-99193350D01*
X72263000Y-98044000D01*
X72517000Y-98044000D01*
X72517000Y-99193350D01*
X72675750Y-99352100D01*
X73862510Y-99352100D01*
X74095899Y-99255427D01*
X74274527Y-99076798D01*
X74371200Y-98843409D01*
X74371200Y-98202750D01*
X74212450Y-98044000D01*
X72517000Y-98044000D01*
X72263000Y-98044000D01*
X70567550Y-98044000D01*
X70408800Y-98202750D01*
X68417882Y-98202750D01*
X68731913Y-97992922D01*
X68988788Y-97608480D01*
X69078991Y-97155000D01*
X68988788Y-96701520D01*
X68981351Y-96690389D01*
X69137166Y-96659396D01*
X69409097Y-96477697D01*
X69934697Y-95952097D01*
X70116396Y-95680165D01*
X70156796Y-95477059D01*
X70160093Y-95478428D01*
X70396360Y-95478634D01*
X70396360Y-95923100D01*
X70440638Y-96158417D01*
X70579710Y-96374541D01*
X70791910Y-96519531D01*
X70815237Y-96524255D01*
X70684101Y-96578573D01*
X70505473Y-96757202D01*
X70408800Y-96990591D01*
X70408800Y-97631250D01*
X70567550Y-97790000D01*
X72263000Y-97790000D01*
X72263000Y-97770000D01*
X72517000Y-97770000D01*
X72517000Y-97790000D01*
X74212450Y-97790000D01*
X74371200Y-97631250D01*
X74371200Y-96990591D01*
X74274527Y-96757202D01*
X74095899Y-96578573D01*
X73970205Y-96526509D01*
X73971517Y-96526262D01*
X74187641Y-96387190D01*
X74332631Y-96174990D01*
X74383640Y-95923100D01*
X74383640Y-94322900D01*
X74339362Y-94087583D01*
X74200290Y-93871459D01*
X73988090Y-93726469D01*
X73968285Y-93722458D01*
X74042861Y-93674470D01*
X74129138Y-93548200D01*
X74539901Y-93548200D01*
X74503749Y-93601110D01*
G36*
X131329673Y-109812697D02*
X131601605Y-109994396D01*
X131848045Y-110043416D01*
X132207630Y-110403629D01*
X132415512Y-110489949D01*
X132209697Y-110574990D01*
X131816371Y-110967630D01*
X131603243Y-111480900D01*
X131603177Y-111556800D01*
X131278623Y-111556800D01*
X131205510Y-111443179D01*
X130993310Y-111298189D01*
X130741420Y-111247180D01*
X129842260Y-111247180D01*
X129606943Y-111291458D01*
X129541454Y-111333599D01*
X129524760Y-111322192D01*
X129524760Y-110917590D01*
X129621100Y-110821250D01*
X129621100Y-110492440D01*
X129875100Y-110492440D01*
X129875100Y-110821250D01*
X130033850Y-110980000D01*
X130374410Y-110980000D01*
X130607799Y-110883327D01*
X130786427Y-110704698D01*
X130883100Y-110471309D01*
X130883100Y-110441250D01*
X130724350Y-110282500D01*
X130717709Y-110282500D01*
X130844531Y-110096890D01*
X130859658Y-110022192D01*
X130883100Y-109998750D01*
X130883100Y-109968691D01*
X130874632Y-109948247D01*
X130895540Y-109845000D01*
X130895540Y-109595000D01*
X130871156Y-109465411D01*
X130889888Y-109372912D01*
X131329673Y-109812697D01*
X131329673Y-109812697D01*
G37*
X131329673Y-109812697D02*
X131601605Y-109994396D01*
X131848045Y-110043416D01*
X132207630Y-110403629D01*
X132415512Y-110489949D01*
X132209697Y-110574990D01*
X131816371Y-110967630D01*
X131603243Y-111480900D01*
X131603177Y-111556800D01*
X131278623Y-111556800D01*
X131205510Y-111443179D01*
X130993310Y-111298189D01*
X130741420Y-111247180D01*
X129842260Y-111247180D01*
X129606943Y-111291458D01*
X129541454Y-111333599D01*
X129524760Y-111322192D01*
X129524760Y-110917590D01*
X129621100Y-110821250D01*
X129621100Y-110492440D01*
X129875100Y-110492440D01*
X129875100Y-110821250D01*
X130033850Y-110980000D01*
X130374410Y-110980000D01*
X130607799Y-110883327D01*
X130786427Y-110704698D01*
X130883100Y-110471309D01*
X130883100Y-110441250D01*
X130724350Y-110282500D01*
X130717709Y-110282500D01*
X130844531Y-110096890D01*
X130859658Y-110022192D01*
X130883100Y-109998750D01*
X130883100Y-109968691D01*
X130874632Y-109948247D01*
X130895540Y-109845000D01*
X130895540Y-109595000D01*
X130871156Y-109465411D01*
X130889888Y-109372912D01*
X131329673Y-109812697D01*
G36*
X68840142Y-85942907D02*
X68892285Y-86205045D01*
X69040774Y-86427275D01*
X69263004Y-86575764D01*
X69525142Y-86627907D01*
X72055773Y-86627907D01*
X72317911Y-86575764D01*
X72501155Y-86453325D01*
X72684399Y-86575764D01*
X72946537Y-86627907D01*
X75476614Y-86627907D01*
X75738752Y-86575764D01*
X75960982Y-86427275D01*
X76109471Y-86205045D01*
X76161614Y-85942907D01*
X76161614Y-85064659D01*
X114597074Y-85064659D01*
X114597074Y-85942907D01*
X114649217Y-86205045D01*
X114797706Y-86427275D01*
X115019936Y-86575764D01*
X115282074Y-86627907D01*
X117812154Y-86627907D01*
X118074292Y-86575764D01*
X118257536Y-86453325D01*
X118440780Y-86575764D01*
X118702918Y-86627907D01*
X121232995Y-86627907D01*
X121495133Y-86575764D01*
X121717363Y-86427275D01*
X121865852Y-86205045D01*
X121917995Y-85942907D01*
X121917995Y-85064659D01*
X130241115Y-85064659D01*
X130241115Y-88567479D01*
X129819100Y-88392243D01*
X129263339Y-88391758D01*
X128749697Y-88603990D01*
X128356371Y-88996630D01*
X128143243Y-89509900D01*
X128142758Y-90065661D01*
X128354990Y-90579303D01*
X128747630Y-90972629D01*
X129260900Y-91185757D01*
X129816661Y-91186242D01*
X130330303Y-90974010D01*
X130413225Y-90891233D01*
X130441981Y-90984281D01*
X130474165Y-91043746D01*
X130494157Y-91108336D01*
X130694247Y-91477649D01*
X130736499Y-91528545D01*
X130767786Y-91586831D01*
X131032923Y-91908741D01*
X131084271Y-91950729D01*
X131126271Y-92002073D01*
X131447629Y-92266657D01*
X131505866Y-92297904D01*
X131556715Y-92340117D01*
X131926027Y-92540207D01*
X131990744Y-92560238D01*
X132050331Y-92592459D01*
X132459334Y-92718688D01*
X132527395Y-92725723D01*
X132592842Y-92745719D01*
X132641808Y-92750640D01*
X132587998Y-92750640D01*
X132587998Y-92909388D01*
X132429250Y-92750640D01*
X131339010Y-92750640D01*
X131105621Y-92847313D01*
X130926993Y-93025942D01*
X130830320Y-93259331D01*
X130830320Y-94075250D01*
X130989070Y-94234000D01*
X132588000Y-94234000D01*
X132588000Y-94214000D01*
X132842000Y-94214000D01*
X132842000Y-94234000D01*
X134440930Y-94234000D01*
X134599680Y-94075250D01*
X134599680Y-93259331D01*
X134503007Y-93025942D01*
X134324379Y-92847313D01*
X134193857Y-92793249D01*
X137758039Y-92793249D01*
X137758039Y-95197170D01*
X137667310Y-95197170D01*
X137431993Y-95241448D01*
X137215869Y-95380520D01*
X137070879Y-95592720D01*
X137019870Y-95844610D01*
X137019870Y-97741990D01*
X137064148Y-97977307D01*
X137065127Y-97978828D01*
X137053514Y-97967195D01*
X136673694Y-97809480D01*
X136262431Y-97809121D01*
X135882336Y-97966173D01*
X135591275Y-98256726D01*
X135450525Y-98595690D01*
X135267010Y-98595690D01*
X135031693Y-98639968D01*
X134929201Y-98705920D01*
X134513508Y-98705920D01*
X134561111Y-98636250D01*
X134612120Y-98384360D01*
X134612120Y-96433640D01*
X134567842Y-96198323D01*
X134428770Y-95982199D01*
X134291408Y-95888344D01*
X134324379Y-95874687D01*
X134503007Y-95696058D01*
X134599680Y-95462669D01*
X134599680Y-94646750D01*
X134440930Y-94488000D01*
X132842000Y-94488000D01*
X132842000Y-94508000D01*
X132588000Y-94508000D01*
X132588000Y-94488000D01*
X130989070Y-94488000D01*
X130830320Y-94646750D01*
X130830320Y-95462669D01*
X130926993Y-95696058D01*
X131105621Y-95874687D01*
X131139495Y-95888718D01*
X131013879Y-95969550D01*
X130868889Y-96181750D01*
X130817880Y-96433640D01*
X130817880Y-98384360D01*
X130862158Y-98619677D01*
X131001230Y-98835801D01*
X131213430Y-98980791D01*
X131465320Y-99031800D01*
X132142952Y-99031800D01*
X132194145Y-99108415D01*
X132551022Y-99465292D01*
X132533427Y-99553750D01*
X132511799Y-99662481D01*
X132511799Y-102473761D01*
X132575603Y-102794527D01*
X132757302Y-103066458D01*
X133527800Y-103836956D01*
X133527800Y-105386512D01*
X133279100Y-105283243D01*
X132723339Y-105282758D01*
X132209697Y-105494990D01*
X131893542Y-105810593D01*
X131840510Y-105728179D01*
X131628310Y-105583189D01*
X131376420Y-105532180D01*
X130477260Y-105532180D01*
X130241943Y-105576458D01*
X130176454Y-105618599D01*
X130124630Y-105583189D01*
X129872740Y-105532180D01*
X128973580Y-105532180D01*
X128738263Y-105576458D01*
X128522139Y-105715530D01*
X128377149Y-105927730D01*
X128326140Y-106179620D01*
X128326140Y-107106150D01*
X128257145Y-107175145D01*
X128097470Y-107414115D01*
X128041400Y-107696000D01*
X128041400Y-108966000D01*
X128097470Y-109247885D01*
X128251878Y-109478973D01*
X128107630Y-109694855D01*
X128051560Y-109976740D01*
X128051560Y-110244404D01*
X127838200Y-110031044D01*
X127838200Y-108458000D01*
X127774396Y-108137235D01*
X127592697Y-107865303D01*
X127320765Y-107683604D01*
X127000000Y-107619800D01*
X126712726Y-107676942D01*
X126506985Y-107539470D01*
X126225100Y-107483400D01*
X126198883Y-107483400D01*
X126021900Y-107447560D01*
X125021900Y-107447560D01*
X124831427Y-107483400D01*
X124818700Y-107483400D01*
X124536815Y-107539470D01*
X124513705Y-107554911D01*
X124316097Y-107357303D01*
X124044166Y-107175604D01*
X123964440Y-107159746D01*
X123964440Y-106850180D01*
X123920162Y-106614863D01*
X123781090Y-106398739D01*
X123568890Y-106253749D01*
X123317000Y-106202740D01*
X121793000Y-106202740D01*
X121557683Y-106247018D01*
X121341559Y-106386090D01*
X121196569Y-106598290D01*
X121152740Y-106814724D01*
X121002828Y-106590365D01*
X120549609Y-106287533D01*
X120015000Y-106181193D01*
X119480391Y-106287533D01*
X119027172Y-106590365D01*
X118724340Y-107043584D01*
X118710771Y-107111800D01*
X117100750Y-107111800D01*
X117127440Y-106980000D01*
X117127440Y-106380000D01*
X117083162Y-106144683D01*
X117024822Y-106054020D01*
X117115000Y-105836310D01*
X117115000Y-105695750D01*
X116956250Y-105537000D01*
X115857000Y-105537000D01*
X115857000Y-105557000D01*
X115603000Y-105557000D01*
X115603000Y-105537000D01*
X115583000Y-105537000D01*
X115583000Y-105283000D01*
X115603000Y-105283000D01*
X115603000Y-105263000D01*
X115857000Y-105263000D01*
X115857000Y-105283000D01*
X116956250Y-105283000D01*
X117115000Y-105124250D01*
X117115000Y-104983690D01*
X117025194Y-104766878D01*
X117076431Y-104691890D01*
X117127440Y-104440000D01*
X117127440Y-103840000D01*
X117102640Y-103708200D01*
X117966701Y-103708200D01*
X118096697Y-103838423D01*
X118516646Y-104012801D01*
X118971359Y-104013198D01*
X119391612Y-103839554D01*
X119713423Y-103518303D01*
X119887801Y-103098354D01*
X119888198Y-102643641D01*
X119714554Y-102223388D01*
X119393303Y-101901577D01*
X118973354Y-101727199D01*
X118518641Y-101726802D01*
X118098388Y-101900446D01*
X117966805Y-102031800D01*
X117112726Y-102031800D01*
X117115000Y-102026310D01*
X117115000Y-101885750D01*
X116956250Y-101727000D01*
X115857000Y-101727000D01*
X115857000Y-101747000D01*
X115603000Y-101747000D01*
X115603000Y-101727000D01*
X115583000Y-101727000D01*
X115583000Y-101473000D01*
X115603000Y-101473000D01*
X115603000Y-100457000D01*
X115857000Y-100457000D01*
X115857000Y-101473000D01*
X116956250Y-101473000D01*
X117115000Y-101314250D01*
X117115000Y-101173690D01*
X117028558Y-100965000D01*
X117115000Y-100756310D01*
X117115000Y-100615750D01*
X117055609Y-100556359D01*
X117601802Y-100556359D01*
X117775446Y-100976612D01*
X118096697Y-101298423D01*
X118516646Y-101472801D01*
X118971359Y-101473198D01*
X119391612Y-101299554D01*
X119713423Y-100978303D01*
X119887801Y-100558354D01*
X119888198Y-100103641D01*
X119714554Y-99683388D01*
X119393303Y-99361577D01*
X118973354Y-99187199D01*
X118518641Y-99186802D01*
X118098388Y-99360446D01*
X117776577Y-99681697D01*
X117602199Y-100101646D01*
X117601802Y-100556359D01*
X117055609Y-100556359D01*
X116956250Y-100457000D01*
X115857000Y-100457000D01*
X115603000Y-100457000D01*
X114503750Y-100457000D01*
X114345000Y-100615750D01*
X114345000Y-100749606D01*
X113499084Y-99903690D01*
X114345000Y-99903690D01*
X114345000Y-100044250D01*
X114503750Y-100203000D01*
X115603000Y-100203000D01*
X115603000Y-99553750D01*
X115857000Y-99553750D01*
X115857000Y-100203000D01*
X116956250Y-100203000D01*
X117115000Y-100044250D01*
X117115000Y-99903690D01*
X117018327Y-99670301D01*
X116839698Y-99491673D01*
X116606309Y-99395000D01*
X116015750Y-99395000D01*
X115857000Y-99553750D01*
X115603000Y-99553750D01*
X115444250Y-99395000D01*
X114853691Y-99395000D01*
X114620302Y-99491673D01*
X114441673Y-99670301D01*
X114345000Y-99903690D01*
X113499084Y-99903690D01*
X110919697Y-97324303D01*
X110647766Y-97142604D01*
X110327000Y-97078800D01*
X108391960Y-97078800D01*
X108071195Y-97142604D01*
X107799263Y-97324303D01*
X106007426Y-99116140D01*
X105765600Y-99116140D01*
X105765600Y-98679000D01*
X105709530Y-98397115D01*
X105549855Y-98158145D01*
X105310885Y-97998470D01*
X105029000Y-97942400D01*
X103377867Y-97942400D01*
X103378198Y-97563641D01*
X103204554Y-97143388D01*
X103058351Y-96996930D01*
X103009396Y-96750815D01*
X102827697Y-96478883D01*
X101794992Y-95446178D01*
X116103228Y-95446178D01*
X116253721Y-95810397D01*
X116532138Y-96089300D01*
X116896093Y-96240428D01*
X117290178Y-96240772D01*
X117654397Y-96090279D01*
X117933300Y-95811862D01*
X117976760Y-95707200D01*
X120782803Y-95707200D01*
X121127630Y-96052629D01*
X121640900Y-96265757D01*
X122131791Y-96266185D01*
X123621800Y-97756194D01*
X123621800Y-101097803D01*
X123276371Y-101442630D01*
X123063243Y-101955900D01*
X123062758Y-102511661D01*
X123274990Y-103025303D01*
X123667630Y-103418629D01*
X124180900Y-103631757D01*
X124736661Y-103632242D01*
X125250303Y-103420010D01*
X125643629Y-103027370D01*
X125856757Y-102514100D01*
X125857242Y-101958339D01*
X125645010Y-101444697D01*
X125298200Y-101097281D01*
X125298200Y-97409000D01*
X125234396Y-97088235D01*
X125052697Y-96816303D01*
X123316816Y-95080422D01*
X123317242Y-94592339D01*
X123105010Y-94078697D01*
X122712370Y-93685371D01*
X122199100Y-93472243D01*
X121643339Y-93471758D01*
X121129697Y-93683990D01*
X120782281Y-94030800D01*
X117475000Y-94030800D01*
X117154234Y-94094604D01*
X116907844Y-94259237D01*
X116897822Y-94259228D01*
X116533603Y-94409721D01*
X116254700Y-94688138D01*
X116103572Y-95052093D01*
X116103228Y-95446178D01*
X101794992Y-95446178D01*
X99762992Y-93414178D01*
X122961228Y-93414178D01*
X123111721Y-93778397D01*
X123390138Y-94057300D01*
X123754093Y-94208428D01*
X124148178Y-94208772D01*
X124512397Y-94058279D01*
X124514480Y-94056200D01*
X125001806Y-94056200D01*
X125603184Y-94657578D01*
X125602758Y-95145661D01*
X125814990Y-95659303D01*
X126161800Y-96006719D01*
X126161800Y-98617370D01*
X126225604Y-98938136D01*
X126407303Y-99210067D01*
X128498242Y-101301006D01*
X128356371Y-101442630D01*
X128143243Y-101955900D01*
X128142758Y-102511661D01*
X128354990Y-103025303D01*
X128747630Y-103418629D01*
X129260900Y-103631757D01*
X129816661Y-103632242D01*
X130330303Y-103420010D01*
X130723629Y-103027370D01*
X130936757Y-102514100D01*
X130937242Y-101958339D01*
X130725010Y-101444697D01*
X130363273Y-101082328D01*
X130314396Y-100836605D01*
X130132697Y-100564673D01*
X127838200Y-98270176D01*
X127838200Y-96006197D01*
X128183629Y-95661370D01*
X128396757Y-95148100D01*
X128397242Y-94592339D01*
X128185010Y-94078697D01*
X127792370Y-93685371D01*
X127279100Y-93472243D01*
X126788209Y-93471815D01*
X125941697Y-92625303D01*
X125669766Y-92443604D01*
X125349000Y-92379800D01*
X124514960Y-92379800D01*
X124513862Y-92378700D01*
X124149907Y-92227572D01*
X123755822Y-92227228D01*
X123391603Y-92377721D01*
X123112700Y-92656138D01*
X122961572Y-93020093D01*
X122961228Y-93414178D01*
X99762992Y-93414178D01*
X98466117Y-92117303D01*
X98194186Y-91935604D01*
X97873420Y-91871800D01*
X77855307Y-91871800D01*
X77952428Y-91637907D01*
X77952772Y-91243822D01*
X77802279Y-90879603D01*
X77523862Y-90600700D01*
X77159907Y-90449572D01*
X76765822Y-90449228D01*
X76712622Y-90471210D01*
X76668542Y-90236943D01*
X76626401Y-90171454D01*
X76661811Y-90119630D01*
X76672739Y-90065661D01*
X123062758Y-90065661D01*
X123274990Y-90579303D01*
X123667630Y-90972629D01*
X124180900Y-91185757D01*
X124736661Y-91186242D01*
X125250303Y-90974010D01*
X125643629Y-90581370D01*
X125856757Y-90068100D01*
X125857242Y-89512339D01*
X125645010Y-88998697D01*
X125252370Y-88605371D01*
X124739100Y-88392243D01*
X124183339Y-88391758D01*
X123669697Y-88603990D01*
X123276371Y-88996630D01*
X123063243Y-89509900D01*
X123062758Y-90065661D01*
X76672739Y-90065661D01*
X76712820Y-89867740D01*
X76712820Y-88968580D01*
X76668542Y-88733263D01*
X76529470Y-88517139D01*
X76317270Y-88372149D01*
X76065380Y-88321140D01*
X75602574Y-88321140D01*
X75079501Y-87798067D01*
X77726602Y-87798067D01*
X77733210Y-87866785D01*
X77726602Y-87935503D01*
X77751692Y-88184345D01*
X77771838Y-88250208D01*
X77779032Y-88318707D01*
X77850979Y-88550477D01*
X77883157Y-88609753D01*
X77903150Y-88674171D01*
X78016990Y-88883904D01*
X78059303Y-88934793D01*
X78090652Y-88993075D01*
X78241423Y-89175811D01*
X78292307Y-89217347D01*
X78333846Y-89268235D01*
X78516582Y-89419006D01*
X78574868Y-89450357D01*
X78625757Y-89492670D01*
X78835491Y-89606511D01*
X78899908Y-89626503D01*
X78959182Y-89658681D01*
X79190951Y-89730628D01*
X79259451Y-89737822D01*
X79325317Y-89757969D01*
X79574159Y-89783058D01*
X79642874Y-89776450D01*
X79711590Y-89783058D01*
X79960431Y-89757969D01*
X80026297Y-89737822D01*
X80094797Y-89730628D01*
X80326565Y-89658681D01*
X80385841Y-89626502D01*
X80450257Y-89606510D01*
X80659992Y-89492670D01*
X80710880Y-89450358D01*
X80769166Y-89419007D01*
X80951901Y-89268235D01*
X80993439Y-89217350D01*
X81044325Y-89175811D01*
X81195096Y-88993075D01*
X81226445Y-88934794D01*
X81268758Y-88883904D01*
X81382598Y-88674170D01*
X81402591Y-88609753D01*
X81434769Y-88550477D01*
X81506716Y-88318707D01*
X81513910Y-88250207D01*
X81534056Y-88184344D01*
X81559146Y-87935503D01*
X81552538Y-87866785D01*
X81559146Y-87798067D01*
X109249822Y-87798067D01*
X109256430Y-87866785D01*
X109249822Y-87935503D01*
X109274912Y-88184345D01*
X109295058Y-88250208D01*
X109302252Y-88318707D01*
X109374199Y-88550477D01*
X109406377Y-88609753D01*
X109426370Y-88674171D01*
X109540210Y-88883904D01*
X109582523Y-88934793D01*
X109613872Y-88993075D01*
X109764643Y-89175811D01*
X109815530Y-89217349D01*
X109857068Y-89268236D01*
X110039805Y-89419008D01*
X110098087Y-89450357D01*
X110148976Y-89492670D01*
X110358710Y-89606510D01*
X110423126Y-89626502D01*
X110482402Y-89658681D01*
X110714171Y-89730628D01*
X110782671Y-89737822D01*
X110848537Y-89757969D01*
X111097379Y-89783058D01*
X111166094Y-89776450D01*
X111234810Y-89783058D01*
X111483651Y-89757969D01*
X111549518Y-89737822D01*
X111618016Y-89730628D01*
X111849786Y-89658681D01*
X111909062Y-89626503D01*
X111973480Y-89606510D01*
X112183213Y-89492670D01*
X112234102Y-89450357D01*
X112292386Y-89419007D01*
X112475121Y-89268235D01*
X112516657Y-89217352D01*
X112567544Y-89175813D01*
X112718315Y-88993077D01*
X112749664Y-88934795D01*
X112791979Y-88883904D01*
X112905819Y-88674170D01*
X112925812Y-88609753D01*
X112957990Y-88550477D01*
X113029937Y-88318707D01*
X113037131Y-88250209D01*
X113057278Y-88184342D01*
X113082367Y-87935500D01*
X113075759Y-87866785D01*
X113082367Y-87798070D01*
X113057278Y-87549228D01*
X113037131Y-87483362D01*
X113029937Y-87414862D01*
X112957990Y-87183093D01*
X112925812Y-87123819D01*
X112905820Y-87059402D01*
X112791979Y-86849668D01*
X112749666Y-86798779D01*
X112718315Y-86740493D01*
X112567544Y-86557757D01*
X112516656Y-86516218D01*
X112475120Y-86465334D01*
X112292384Y-86314563D01*
X112234102Y-86283214D01*
X112183213Y-86240901D01*
X111973480Y-86127061D01*
X111909062Y-86107068D01*
X111849786Y-86074890D01*
X111618016Y-86002943D01*
X111549517Y-85995749D01*
X111483654Y-85975603D01*
X111234812Y-85950513D01*
X111166094Y-85957121D01*
X111097376Y-85950513D01*
X110848535Y-85975603D01*
X110782673Y-85995749D01*
X110714171Y-86002943D01*
X110482402Y-86074890D01*
X110423126Y-86107069D01*
X110358710Y-86127061D01*
X110148976Y-86240901D01*
X110098089Y-86283213D01*
X110039807Y-86314561D01*
X109857069Y-86465333D01*
X109815529Y-86516221D01*
X109764643Y-86557759D01*
X109613872Y-86740495D01*
X109582522Y-86798779D01*
X109540210Y-86849667D01*
X109426370Y-87059402D01*
X109406378Y-87123818D01*
X109374199Y-87183094D01*
X109302252Y-87414862D01*
X109295058Y-87483363D01*
X109274912Y-87549225D01*
X109249822Y-87798067D01*
X81559146Y-87798067D01*
X81534056Y-87549226D01*
X81513910Y-87483364D01*
X81506716Y-87414862D01*
X81434769Y-87183093D01*
X81402591Y-87123819D01*
X81382599Y-87059402D01*
X81268758Y-86849668D01*
X81226447Y-86798781D01*
X81195096Y-86740495D01*
X81044325Y-86557759D01*
X80993438Y-86516220D01*
X80951900Y-86465334D01*
X80769164Y-86314563D01*
X80710880Y-86283213D01*
X80659992Y-86240901D01*
X80450257Y-86127061D01*
X80385841Y-86107069D01*
X80326565Y-86074890D01*
X80094797Y-86002943D01*
X80026296Y-85995749D01*
X79960434Y-85975603D01*
X79711592Y-85950513D01*
X79642874Y-85957121D01*
X79574156Y-85950513D01*
X79325315Y-85975603D01*
X79259453Y-85995749D01*
X79190951Y-86002943D01*
X78959182Y-86074890D01*
X78899908Y-86107068D01*
X78835491Y-86127060D01*
X78625757Y-86240901D01*
X78574870Y-86283212D01*
X78516584Y-86314563D01*
X78333848Y-86465334D01*
X78292309Y-86516221D01*
X78241423Y-86557759D01*
X78090652Y-86740495D01*
X78059302Y-86798779D01*
X78016990Y-86849667D01*
X77903150Y-87059402D01*
X77883158Y-87123818D01*
X77850979Y-87183094D01*
X77779032Y-87414862D01*
X77771838Y-87483363D01*
X77751692Y-87549225D01*
X77726602Y-87798067D01*
X75079501Y-87798067D01*
X74882336Y-87600902D01*
X74610405Y-87419203D01*
X74289639Y-87355399D01*
X72196400Y-87355400D01*
X71875635Y-87419204D01*
X71607054Y-87598664D01*
X71603703Y-87600903D01*
X71252046Y-87952560D01*
X70790000Y-87952560D01*
X70554683Y-87996838D01*
X70453729Y-88061800D01*
X70383600Y-88061800D01*
X70062834Y-88125604D01*
X69790903Y-88307303D01*
X69049389Y-89048817D01*
X69078991Y-88900000D01*
X68988788Y-88446520D01*
X68731913Y-88062078D01*
X68347471Y-87805203D01*
X67893991Y-87715000D01*
X66726009Y-87715000D01*
X66272529Y-87805203D01*
X65888503Y-88061800D01*
X62966600Y-88061800D01*
X62645835Y-88125604D01*
X62373903Y-88307303D01*
X61637303Y-89043903D01*
X61455604Y-89315834D01*
X61428541Y-89451890D01*
X61419931Y-89495175D01*
X61323584Y-89514340D01*
X60870365Y-89817172D01*
X60567533Y-90270391D01*
X60549965Y-90358713D01*
X60585341Y-90001824D01*
X60582011Y-89967793D01*
X60588682Y-89934255D01*
X60588682Y-86586359D01*
X63626802Y-86586359D01*
X63800446Y-87006612D01*
X64121697Y-87328423D01*
X64541646Y-87502801D01*
X64996359Y-87503198D01*
X65416612Y-87329554D01*
X65738423Y-87008303D01*
X65912801Y-86588354D01*
X65912802Y-86586359D01*
X66166802Y-86586359D01*
X66340446Y-87006612D01*
X66661697Y-87328423D01*
X67081646Y-87502801D01*
X67536359Y-87503198D01*
X67956612Y-87329554D01*
X68278423Y-87008303D01*
X68452801Y-86588354D01*
X68453198Y-86133641D01*
X68279554Y-85713388D01*
X67958303Y-85391577D01*
X67538354Y-85217199D01*
X67083641Y-85216802D01*
X66663388Y-85390446D01*
X66341577Y-85711697D01*
X66167199Y-86131646D01*
X66166802Y-86586359D01*
X65912802Y-86586359D01*
X65913198Y-86133641D01*
X65739554Y-85713388D01*
X65418303Y-85391577D01*
X64998354Y-85217199D01*
X64543641Y-85216802D01*
X64123388Y-85390446D01*
X63801577Y-85711697D01*
X63627199Y-86131646D01*
X63626802Y-86586359D01*
X60588682Y-86586359D01*
X60588682Y-85064659D01*
X68840142Y-85064659D01*
X68840142Y-85942907D01*
X68840142Y-85942907D01*
G37*
X68840142Y-85942907D02*
X68892285Y-86205045D01*
X69040774Y-86427275D01*
X69263004Y-86575764D01*
X69525142Y-86627907D01*
X72055773Y-86627907D01*
X72317911Y-86575764D01*
X72501155Y-86453325D01*
X72684399Y-86575764D01*
X72946537Y-86627907D01*
X75476614Y-86627907D01*
X75738752Y-86575764D01*
X75960982Y-86427275D01*
X76109471Y-86205045D01*
X76161614Y-85942907D01*
X76161614Y-85064659D01*
X114597074Y-85064659D01*
X114597074Y-85942907D01*
X114649217Y-86205045D01*
X114797706Y-86427275D01*
X115019936Y-86575764D01*
X115282074Y-86627907D01*
X117812154Y-86627907D01*
X118074292Y-86575764D01*
X118257536Y-86453325D01*
X118440780Y-86575764D01*
X118702918Y-86627907D01*
X121232995Y-86627907D01*
X121495133Y-86575764D01*
X121717363Y-86427275D01*
X121865852Y-86205045D01*
X121917995Y-85942907D01*
X121917995Y-85064659D01*
X130241115Y-85064659D01*
X130241115Y-88567479D01*
X129819100Y-88392243D01*
X129263339Y-88391758D01*
X128749697Y-88603990D01*
X128356371Y-88996630D01*
X128143243Y-89509900D01*
X128142758Y-90065661D01*
X128354990Y-90579303D01*
X128747630Y-90972629D01*
X129260900Y-91185757D01*
X129816661Y-91186242D01*
X130330303Y-90974010D01*
X130413225Y-90891233D01*
X130441981Y-90984281D01*
X130474165Y-91043746D01*
X130494157Y-91108336D01*
X130694247Y-91477649D01*
X130736499Y-91528545D01*
X130767786Y-91586831D01*
X131032923Y-91908741D01*
X131084271Y-91950729D01*
X131126271Y-92002073D01*
X131447629Y-92266657D01*
X131505866Y-92297904D01*
X131556715Y-92340117D01*
X131926027Y-92540207D01*
X131990744Y-92560238D01*
X132050331Y-92592459D01*
X132459334Y-92718688D01*
X132527395Y-92725723D01*
X132592842Y-92745719D01*
X132641808Y-92750640D01*
X132587998Y-92750640D01*
X132587998Y-92909388D01*
X132429250Y-92750640D01*
X131339010Y-92750640D01*
X131105621Y-92847313D01*
X130926993Y-93025942D01*
X130830320Y-93259331D01*
X130830320Y-94075250D01*
X130989070Y-94234000D01*
X132588000Y-94234000D01*
X132588000Y-94214000D01*
X132842000Y-94214000D01*
X132842000Y-94234000D01*
X134440930Y-94234000D01*
X134599680Y-94075250D01*
X134599680Y-93259331D01*
X134503007Y-93025942D01*
X134324379Y-92847313D01*
X134193857Y-92793249D01*
X137758039Y-92793249D01*
X137758039Y-95197170D01*
X137667310Y-95197170D01*
X137431993Y-95241448D01*
X137215869Y-95380520D01*
X137070879Y-95592720D01*
X137019870Y-95844610D01*
X137019870Y-97741990D01*
X137064148Y-97977307D01*
X137065127Y-97978828D01*
X137053514Y-97967195D01*
X136673694Y-97809480D01*
X136262431Y-97809121D01*
X135882336Y-97966173D01*
X135591275Y-98256726D01*
X135450525Y-98595690D01*
X135267010Y-98595690D01*
X135031693Y-98639968D01*
X134929201Y-98705920D01*
X134513508Y-98705920D01*
X134561111Y-98636250D01*
X134612120Y-98384360D01*
X134612120Y-96433640D01*
X134567842Y-96198323D01*
X134428770Y-95982199D01*
X134291408Y-95888344D01*
X134324379Y-95874687D01*
X134503007Y-95696058D01*
X134599680Y-95462669D01*
X134599680Y-94646750D01*
X134440930Y-94488000D01*
X132842000Y-94488000D01*
X132842000Y-94508000D01*
X132588000Y-94508000D01*
X132588000Y-94488000D01*
X130989070Y-94488000D01*
X130830320Y-94646750D01*
X130830320Y-95462669D01*
X130926993Y-95696058D01*
X131105621Y-95874687D01*
X131139495Y-95888718D01*
X131013879Y-95969550D01*
X130868889Y-96181750D01*
X130817880Y-96433640D01*
X130817880Y-98384360D01*
X130862158Y-98619677D01*
X131001230Y-98835801D01*
X131213430Y-98980791D01*
X131465320Y-99031800D01*
X132142952Y-99031800D01*
X132194145Y-99108415D01*
X132551022Y-99465292D01*
X132533427Y-99553750D01*
X132511799Y-99662481D01*
X132511799Y-102473761D01*
X132575603Y-102794527D01*
X132757302Y-103066458D01*
X133527800Y-103836956D01*
X133527800Y-105386512D01*
X133279100Y-105283243D01*
X132723339Y-105282758D01*
X132209697Y-105494990D01*
X131893542Y-105810593D01*
X131840510Y-105728179D01*
X131628310Y-105583189D01*
X131376420Y-105532180D01*
X130477260Y-105532180D01*
X130241943Y-105576458D01*
X130176454Y-105618599D01*
X130124630Y-105583189D01*
X129872740Y-105532180D01*
X128973580Y-105532180D01*
X128738263Y-105576458D01*
X128522139Y-105715530D01*
X128377149Y-105927730D01*
X128326140Y-106179620D01*
X128326140Y-107106150D01*
X128257145Y-107175145D01*
X128097470Y-107414115D01*
X128041400Y-107696000D01*
X128041400Y-108966000D01*
X128097470Y-109247885D01*
X128251878Y-109478973D01*
X128107630Y-109694855D01*
X128051560Y-109976740D01*
X128051560Y-110244404D01*
X127838200Y-110031044D01*
X127838200Y-108458000D01*
X127774396Y-108137235D01*
X127592697Y-107865303D01*
X127320765Y-107683604D01*
X127000000Y-107619800D01*
X126712726Y-107676942D01*
X126506985Y-107539470D01*
X126225100Y-107483400D01*
X126198883Y-107483400D01*
X126021900Y-107447560D01*
X125021900Y-107447560D01*
X124831427Y-107483400D01*
X124818700Y-107483400D01*
X124536815Y-107539470D01*
X124513705Y-107554911D01*
X124316097Y-107357303D01*
X124044166Y-107175604D01*
X123964440Y-107159746D01*
X123964440Y-106850180D01*
X123920162Y-106614863D01*
X123781090Y-106398739D01*
X123568890Y-106253749D01*
X123317000Y-106202740D01*
X121793000Y-106202740D01*
X121557683Y-106247018D01*
X121341559Y-106386090D01*
X121196569Y-106598290D01*
X121152740Y-106814724D01*
X121002828Y-106590365D01*
X120549609Y-106287533D01*
X120015000Y-106181193D01*
X119480391Y-106287533D01*
X119027172Y-106590365D01*
X118724340Y-107043584D01*
X118710771Y-107111800D01*
X117100750Y-107111800D01*
X117127440Y-106980000D01*
X117127440Y-106380000D01*
X117083162Y-106144683D01*
X117024822Y-106054020D01*
X117115000Y-105836310D01*
X117115000Y-105695750D01*
X116956250Y-105537000D01*
X115857000Y-105537000D01*
X115857000Y-105557000D01*
X115603000Y-105557000D01*
X115603000Y-105537000D01*
X115583000Y-105537000D01*
X115583000Y-105283000D01*
X115603000Y-105283000D01*
X115603000Y-105263000D01*
X115857000Y-105263000D01*
X115857000Y-105283000D01*
X116956250Y-105283000D01*
X117115000Y-105124250D01*
X117115000Y-104983690D01*
X117025194Y-104766878D01*
X117076431Y-104691890D01*
X117127440Y-104440000D01*
X117127440Y-103840000D01*
X117102640Y-103708200D01*
X117966701Y-103708200D01*
X118096697Y-103838423D01*
X118516646Y-104012801D01*
X118971359Y-104013198D01*
X119391612Y-103839554D01*
X119713423Y-103518303D01*
X119887801Y-103098354D01*
X119888198Y-102643641D01*
X119714554Y-102223388D01*
X119393303Y-101901577D01*
X118973354Y-101727199D01*
X118518641Y-101726802D01*
X118098388Y-101900446D01*
X117966805Y-102031800D01*
X117112726Y-102031800D01*
X117115000Y-102026310D01*
X117115000Y-101885750D01*
X116956250Y-101727000D01*
X115857000Y-101727000D01*
X115857000Y-101747000D01*
X115603000Y-101747000D01*
X115603000Y-101727000D01*
X115583000Y-101727000D01*
X115583000Y-101473000D01*
X115603000Y-101473000D01*
X115603000Y-100457000D01*
X115857000Y-100457000D01*
X115857000Y-101473000D01*
X116956250Y-101473000D01*
X117115000Y-101314250D01*
X117115000Y-101173690D01*
X117028558Y-100965000D01*
X117115000Y-100756310D01*
X117115000Y-100615750D01*
X117055609Y-100556359D01*
X117601802Y-100556359D01*
X117775446Y-100976612D01*
X118096697Y-101298423D01*
X118516646Y-101472801D01*
X118971359Y-101473198D01*
X119391612Y-101299554D01*
X119713423Y-100978303D01*
X119887801Y-100558354D01*
X119888198Y-100103641D01*
X119714554Y-99683388D01*
X119393303Y-99361577D01*
X118973354Y-99187199D01*
X118518641Y-99186802D01*
X118098388Y-99360446D01*
X117776577Y-99681697D01*
X117602199Y-100101646D01*
X117601802Y-100556359D01*
X117055609Y-100556359D01*
X116956250Y-100457000D01*
X115857000Y-100457000D01*
X115603000Y-100457000D01*
X114503750Y-100457000D01*
X114345000Y-100615750D01*
X114345000Y-100749606D01*
X113499084Y-99903690D01*
X114345000Y-99903690D01*
X114345000Y-100044250D01*
X114503750Y-100203000D01*
X115603000Y-100203000D01*
X115603000Y-99553750D01*
X115857000Y-99553750D01*
X115857000Y-100203000D01*
X116956250Y-100203000D01*
X117115000Y-100044250D01*
X117115000Y-99903690D01*
X117018327Y-99670301D01*
X116839698Y-99491673D01*
X116606309Y-99395000D01*
X116015750Y-99395000D01*
X115857000Y-99553750D01*
X115603000Y-99553750D01*
X115444250Y-99395000D01*
X114853691Y-99395000D01*
X114620302Y-99491673D01*
X114441673Y-99670301D01*
X114345000Y-99903690D01*
X113499084Y-99903690D01*
X110919697Y-97324303D01*
X110647766Y-97142604D01*
X110327000Y-97078800D01*
X108391960Y-97078800D01*
X108071195Y-97142604D01*
X107799263Y-97324303D01*
X106007426Y-99116140D01*
X105765600Y-99116140D01*
X105765600Y-98679000D01*
X105709530Y-98397115D01*
X105549855Y-98158145D01*
X105310885Y-97998470D01*
X105029000Y-97942400D01*
X103377867Y-97942400D01*
X103378198Y-97563641D01*
X103204554Y-97143388D01*
X103058351Y-96996930D01*
X103009396Y-96750815D01*
X102827697Y-96478883D01*
X101794992Y-95446178D01*
X116103228Y-95446178D01*
X116253721Y-95810397D01*
X116532138Y-96089300D01*
X116896093Y-96240428D01*
X117290178Y-96240772D01*
X117654397Y-96090279D01*
X117933300Y-95811862D01*
X117976760Y-95707200D01*
X120782803Y-95707200D01*
X121127630Y-96052629D01*
X121640900Y-96265757D01*
X122131791Y-96266185D01*
X123621800Y-97756194D01*
X123621800Y-101097803D01*
X123276371Y-101442630D01*
X123063243Y-101955900D01*
X123062758Y-102511661D01*
X123274990Y-103025303D01*
X123667630Y-103418629D01*
X124180900Y-103631757D01*
X124736661Y-103632242D01*
X125250303Y-103420010D01*
X125643629Y-103027370D01*
X125856757Y-102514100D01*
X125857242Y-101958339D01*
X125645010Y-101444697D01*
X125298200Y-101097281D01*
X125298200Y-97409000D01*
X125234396Y-97088235D01*
X125052697Y-96816303D01*
X123316816Y-95080422D01*
X123317242Y-94592339D01*
X123105010Y-94078697D01*
X122712370Y-93685371D01*
X122199100Y-93472243D01*
X121643339Y-93471758D01*
X121129697Y-93683990D01*
X120782281Y-94030800D01*
X117475000Y-94030800D01*
X117154234Y-94094604D01*
X116907844Y-94259237D01*
X116897822Y-94259228D01*
X116533603Y-94409721D01*
X116254700Y-94688138D01*
X116103572Y-95052093D01*
X116103228Y-95446178D01*
X101794992Y-95446178D01*
X99762992Y-93414178D01*
X122961228Y-93414178D01*
X123111721Y-93778397D01*
X123390138Y-94057300D01*
X123754093Y-94208428D01*
X124148178Y-94208772D01*
X124512397Y-94058279D01*
X124514480Y-94056200D01*
X125001806Y-94056200D01*
X125603184Y-94657578D01*
X125602758Y-95145661D01*
X125814990Y-95659303D01*
X126161800Y-96006719D01*
X126161800Y-98617370D01*
X126225604Y-98938136D01*
X126407303Y-99210067D01*
X128498242Y-101301006D01*
X128356371Y-101442630D01*
X128143243Y-101955900D01*
X128142758Y-102511661D01*
X128354990Y-103025303D01*
X128747630Y-103418629D01*
X129260900Y-103631757D01*
X129816661Y-103632242D01*
X130330303Y-103420010D01*
X130723629Y-103027370D01*
X130936757Y-102514100D01*
X130937242Y-101958339D01*
X130725010Y-101444697D01*
X130363273Y-101082328D01*
X130314396Y-100836605D01*
X130132697Y-100564673D01*
X127838200Y-98270176D01*
X127838200Y-96006197D01*
X128183629Y-95661370D01*
X128396757Y-95148100D01*
X128397242Y-94592339D01*
X128185010Y-94078697D01*
X127792370Y-93685371D01*
X127279100Y-93472243D01*
X126788209Y-93471815D01*
X125941697Y-92625303D01*
X125669766Y-92443604D01*
X125349000Y-92379800D01*
X124514960Y-92379800D01*
X124513862Y-92378700D01*
X124149907Y-92227572D01*
X123755822Y-92227228D01*
X123391603Y-92377721D01*
X123112700Y-92656138D01*
X122961572Y-93020093D01*
X122961228Y-93414178D01*
X99762992Y-93414178D01*
X98466117Y-92117303D01*
X98194186Y-91935604D01*
X97873420Y-91871800D01*
X77855307Y-91871800D01*
X77952428Y-91637907D01*
X77952772Y-91243822D01*
X77802279Y-90879603D01*
X77523862Y-90600700D01*
X77159907Y-90449572D01*
X76765822Y-90449228D01*
X76712622Y-90471210D01*
X76668542Y-90236943D01*
X76626401Y-90171454D01*
X76661811Y-90119630D01*
X76672739Y-90065661D01*
X123062758Y-90065661D01*
X123274990Y-90579303D01*
X123667630Y-90972629D01*
X124180900Y-91185757D01*
X124736661Y-91186242D01*
X125250303Y-90974010D01*
X125643629Y-90581370D01*
X125856757Y-90068100D01*
X125857242Y-89512339D01*
X125645010Y-88998697D01*
X125252370Y-88605371D01*
X124739100Y-88392243D01*
X124183339Y-88391758D01*
X123669697Y-88603990D01*
X123276371Y-88996630D01*
X123063243Y-89509900D01*
X123062758Y-90065661D01*
X76672739Y-90065661D01*
X76712820Y-89867740D01*
X76712820Y-88968580D01*
X76668542Y-88733263D01*
X76529470Y-88517139D01*
X76317270Y-88372149D01*
X76065380Y-88321140D01*
X75602574Y-88321140D01*
X75079501Y-87798067D01*
X77726602Y-87798067D01*
X77733210Y-87866785D01*
X77726602Y-87935503D01*
X77751692Y-88184345D01*
X77771838Y-88250208D01*
X77779032Y-88318707D01*
X77850979Y-88550477D01*
X77883157Y-88609753D01*
X77903150Y-88674171D01*
X78016990Y-88883904D01*
X78059303Y-88934793D01*
X78090652Y-88993075D01*
X78241423Y-89175811D01*
X78292307Y-89217347D01*
X78333846Y-89268235D01*
X78516582Y-89419006D01*
X78574868Y-89450357D01*
X78625757Y-89492670D01*
X78835491Y-89606511D01*
X78899908Y-89626503D01*
X78959182Y-89658681D01*
X79190951Y-89730628D01*
X79259451Y-89737822D01*
X79325317Y-89757969D01*
X79574159Y-89783058D01*
X79642874Y-89776450D01*
X79711590Y-89783058D01*
X79960431Y-89757969D01*
X80026297Y-89737822D01*
X80094797Y-89730628D01*
X80326565Y-89658681D01*
X80385841Y-89626502D01*
X80450257Y-89606510D01*
X80659992Y-89492670D01*
X80710880Y-89450358D01*
X80769166Y-89419007D01*
X80951901Y-89268235D01*
X80993439Y-89217350D01*
X81044325Y-89175811D01*
X81195096Y-88993075D01*
X81226445Y-88934794D01*
X81268758Y-88883904D01*
X81382598Y-88674170D01*
X81402591Y-88609753D01*
X81434769Y-88550477D01*
X81506716Y-88318707D01*
X81513910Y-88250207D01*
X81534056Y-88184344D01*
X81559146Y-87935503D01*
X81552538Y-87866785D01*
X81559146Y-87798067D01*
X109249822Y-87798067D01*
X109256430Y-87866785D01*
X109249822Y-87935503D01*
X109274912Y-88184345D01*
X109295058Y-88250208D01*
X109302252Y-88318707D01*
X109374199Y-88550477D01*
X109406377Y-88609753D01*
X109426370Y-88674171D01*
X109540210Y-88883904D01*
X109582523Y-88934793D01*
X109613872Y-88993075D01*
X109764643Y-89175811D01*
X109815530Y-89217349D01*
X109857068Y-89268236D01*
X110039805Y-89419008D01*
X110098087Y-89450357D01*
X110148976Y-89492670D01*
X110358710Y-89606510D01*
X110423126Y-89626502D01*
X110482402Y-89658681D01*
X110714171Y-89730628D01*
X110782671Y-89737822D01*
X110848537Y-89757969D01*
X111097379Y-89783058D01*
X111166094Y-89776450D01*
X111234810Y-89783058D01*
X111483651Y-89757969D01*
X111549518Y-89737822D01*
X111618016Y-89730628D01*
X111849786Y-89658681D01*
X111909062Y-89626503D01*
X111973480Y-89606510D01*
X112183213Y-89492670D01*
X112234102Y-89450357D01*
X112292386Y-89419007D01*
X112475121Y-89268235D01*
X112516657Y-89217352D01*
X112567544Y-89175813D01*
X112718315Y-88993077D01*
X112749664Y-88934795D01*
X112791979Y-88883904D01*
X112905819Y-88674170D01*
X112925812Y-88609753D01*
X112957990Y-88550477D01*
X113029937Y-88318707D01*
X113037131Y-88250209D01*
X113057278Y-88184342D01*
X113082367Y-87935500D01*
X113075759Y-87866785D01*
X113082367Y-87798070D01*
X113057278Y-87549228D01*
X113037131Y-87483362D01*
X113029937Y-87414862D01*
X112957990Y-87183093D01*
X112925812Y-87123819D01*
X112905820Y-87059402D01*
X112791979Y-86849668D01*
X112749666Y-86798779D01*
X112718315Y-86740493D01*
X112567544Y-86557757D01*
X112516656Y-86516218D01*
X112475120Y-86465334D01*
X112292384Y-86314563D01*
X112234102Y-86283214D01*
X112183213Y-86240901D01*
X111973480Y-86127061D01*
X111909062Y-86107068D01*
X111849786Y-86074890D01*
X111618016Y-86002943D01*
X111549517Y-85995749D01*
X111483654Y-85975603D01*
X111234812Y-85950513D01*
X111166094Y-85957121D01*
X111097376Y-85950513D01*
X110848535Y-85975603D01*
X110782673Y-85995749D01*
X110714171Y-86002943D01*
X110482402Y-86074890D01*
X110423126Y-86107069D01*
X110358710Y-86127061D01*
X110148976Y-86240901D01*
X110098089Y-86283213D01*
X110039807Y-86314561D01*
X109857069Y-86465333D01*
X109815529Y-86516221D01*
X109764643Y-86557759D01*
X109613872Y-86740495D01*
X109582522Y-86798779D01*
X109540210Y-86849667D01*
X109426370Y-87059402D01*
X109406378Y-87123818D01*
X109374199Y-87183094D01*
X109302252Y-87414862D01*
X109295058Y-87483363D01*
X109274912Y-87549225D01*
X109249822Y-87798067D01*
X81559146Y-87798067D01*
X81534056Y-87549226D01*
X81513910Y-87483364D01*
X81506716Y-87414862D01*
X81434769Y-87183093D01*
X81402591Y-87123819D01*
X81382599Y-87059402D01*
X81268758Y-86849668D01*
X81226447Y-86798781D01*
X81195096Y-86740495D01*
X81044325Y-86557759D01*
X80993438Y-86516220D01*
X80951900Y-86465334D01*
X80769164Y-86314563D01*
X80710880Y-86283213D01*
X80659992Y-86240901D01*
X80450257Y-86127061D01*
X80385841Y-86107069D01*
X80326565Y-86074890D01*
X80094797Y-86002943D01*
X80026296Y-85995749D01*
X79960434Y-85975603D01*
X79711592Y-85950513D01*
X79642874Y-85957121D01*
X79574156Y-85950513D01*
X79325315Y-85975603D01*
X79259453Y-85995749D01*
X79190951Y-86002943D01*
X78959182Y-86074890D01*
X78899908Y-86107068D01*
X78835491Y-86127060D01*
X78625757Y-86240901D01*
X78574870Y-86283212D01*
X78516584Y-86314563D01*
X78333848Y-86465334D01*
X78292309Y-86516221D01*
X78241423Y-86557759D01*
X78090652Y-86740495D01*
X78059302Y-86798779D01*
X78016990Y-86849667D01*
X77903150Y-87059402D01*
X77883158Y-87123818D01*
X77850979Y-87183094D01*
X77779032Y-87414862D01*
X77771838Y-87483363D01*
X77751692Y-87549225D01*
X77726602Y-87798067D01*
X75079501Y-87798067D01*
X74882336Y-87600902D01*
X74610405Y-87419203D01*
X74289639Y-87355399D01*
X72196400Y-87355400D01*
X71875635Y-87419204D01*
X71607054Y-87598664D01*
X71603703Y-87600903D01*
X71252046Y-87952560D01*
X70790000Y-87952560D01*
X70554683Y-87996838D01*
X70453729Y-88061800D01*
X70383600Y-88061800D01*
X70062834Y-88125604D01*
X69790903Y-88307303D01*
X69049389Y-89048817D01*
X69078991Y-88900000D01*
X68988788Y-88446520D01*
X68731913Y-88062078D01*
X68347471Y-87805203D01*
X67893991Y-87715000D01*
X66726009Y-87715000D01*
X66272529Y-87805203D01*
X65888503Y-88061800D01*
X62966600Y-88061800D01*
X62645835Y-88125604D01*
X62373903Y-88307303D01*
X61637303Y-89043903D01*
X61455604Y-89315834D01*
X61428541Y-89451890D01*
X61419931Y-89495175D01*
X61323584Y-89514340D01*
X60870365Y-89817172D01*
X60567533Y-90270391D01*
X60549965Y-90358713D01*
X60585341Y-90001824D01*
X60582011Y-89967793D01*
X60588682Y-89934255D01*
X60588682Y-86586359D01*
X63626802Y-86586359D01*
X63800446Y-87006612D01*
X64121697Y-87328423D01*
X64541646Y-87502801D01*
X64996359Y-87503198D01*
X65416612Y-87329554D01*
X65738423Y-87008303D01*
X65912801Y-86588354D01*
X65912802Y-86586359D01*
X66166802Y-86586359D01*
X66340446Y-87006612D01*
X66661697Y-87328423D01*
X67081646Y-87502801D01*
X67536359Y-87503198D01*
X67956612Y-87329554D01*
X68278423Y-87008303D01*
X68452801Y-86588354D01*
X68453198Y-86133641D01*
X68279554Y-85713388D01*
X67958303Y-85391577D01*
X67538354Y-85217199D01*
X67083641Y-85216802D01*
X66663388Y-85390446D01*
X66341577Y-85711697D01*
X66167199Y-86131646D01*
X66166802Y-86586359D01*
X65912802Y-86586359D01*
X65913198Y-86133641D01*
X65739554Y-85713388D01*
X65418303Y-85391577D01*
X64998354Y-85217199D01*
X64543641Y-85216802D01*
X64123388Y-85390446D01*
X63801577Y-85711697D01*
X63627199Y-86131646D01*
X63626802Y-86586359D01*
X60588682Y-86586359D01*
X60588682Y-85064659D01*
X68840142Y-85064659D01*
X68840142Y-85942907D01*
G36*
X100759721Y-101906397D02*
X101038138Y-102185300D01*
X101402093Y-102336428D01*
X101405037Y-102336431D01*
X102274271Y-103205665D01*
X102311838Y-103405317D01*
X102375678Y-103504528D01*
X102318569Y-103588110D01*
X102267560Y-103840000D01*
X102267560Y-104440000D01*
X102311838Y-104675317D01*
X102370178Y-104765980D01*
X102280000Y-104983690D01*
X102280000Y-105124250D01*
X102438750Y-105283000D01*
X103538000Y-105283000D01*
X103538000Y-105263000D01*
X103792000Y-105263000D01*
X103792000Y-105283000D01*
X104891250Y-105283000D01*
X105050000Y-105124250D01*
X105050000Y-104983690D01*
X104960194Y-104766878D01*
X105011431Y-104691890D01*
X105062440Y-104440000D01*
X105062440Y-103840000D01*
X105018162Y-103604683D01*
X104954322Y-103505472D01*
X105011431Y-103421890D01*
X105062440Y-103170000D01*
X105062440Y-102589748D01*
X105080530Y-102617861D01*
X105292730Y-102762851D01*
X105544620Y-102813860D01*
X105841800Y-102813860D01*
X105841800Y-103577040D01*
X105840700Y-103578138D01*
X105689572Y-103942093D01*
X105689228Y-104336178D01*
X105839721Y-104700397D01*
X106029418Y-104890426D01*
X105579303Y-105340541D01*
X105397604Y-105612472D01*
X105348229Y-105860697D01*
X105333800Y-105933238D01*
X105333800Y-106840806D01*
X105062806Y-107111800D01*
X105035750Y-107111800D01*
X105062440Y-106980000D01*
X105062440Y-106380000D01*
X105018162Y-106144683D01*
X104959822Y-106054020D01*
X105050000Y-105836310D01*
X105050000Y-105695750D01*
X104891250Y-105537000D01*
X103792000Y-105537000D01*
X103792000Y-105557000D01*
X103538000Y-105557000D01*
X103538000Y-105537000D01*
X102438750Y-105537000D01*
X102280000Y-105695750D01*
X102280000Y-105829606D01*
X101981001Y-105530607D01*
X101981001Y-105527855D01*
X101957558Y-105410000D01*
X101917197Y-105207089D01*
X101735498Y-104935158D01*
X100347643Y-103547303D01*
X100075712Y-103365604D01*
X99754946Y-103301800D01*
X99635750Y-103301800D01*
X99662440Y-103170000D01*
X99662440Y-102964270D01*
X100748199Y-101878511D01*
X100759721Y-101906397D01*
X100759721Y-101906397D01*
G37*
X100759721Y-101906397D02*
X101038138Y-102185300D01*
X101402093Y-102336428D01*
X101405037Y-102336431D01*
X102274271Y-103205665D01*
X102311838Y-103405317D01*
X102375678Y-103504528D01*
X102318569Y-103588110D01*
X102267560Y-103840000D01*
X102267560Y-104440000D01*
X102311838Y-104675317D01*
X102370178Y-104765980D01*
X102280000Y-104983690D01*
X102280000Y-105124250D01*
X102438750Y-105283000D01*
X103538000Y-105283000D01*
X103538000Y-105263000D01*
X103792000Y-105263000D01*
X103792000Y-105283000D01*
X104891250Y-105283000D01*
X105050000Y-105124250D01*
X105050000Y-104983690D01*
X104960194Y-104766878D01*
X105011431Y-104691890D01*
X105062440Y-104440000D01*
X105062440Y-103840000D01*
X105018162Y-103604683D01*
X104954322Y-103505472D01*
X105011431Y-103421890D01*
X105062440Y-103170000D01*
X105062440Y-102589748D01*
X105080530Y-102617861D01*
X105292730Y-102762851D01*
X105544620Y-102813860D01*
X105841800Y-102813860D01*
X105841800Y-103577040D01*
X105840700Y-103578138D01*
X105689572Y-103942093D01*
X105689228Y-104336178D01*
X105839721Y-104700397D01*
X106029418Y-104890426D01*
X105579303Y-105340541D01*
X105397604Y-105612472D01*
X105348229Y-105860697D01*
X105333800Y-105933238D01*
X105333800Y-106840806D01*
X105062806Y-107111800D01*
X105035750Y-107111800D01*
X105062440Y-106980000D01*
X105062440Y-106380000D01*
X105018162Y-106144683D01*
X104959822Y-106054020D01*
X105050000Y-105836310D01*
X105050000Y-105695750D01*
X104891250Y-105537000D01*
X103792000Y-105537000D01*
X103792000Y-105557000D01*
X103538000Y-105557000D01*
X103538000Y-105537000D01*
X102438750Y-105537000D01*
X102280000Y-105695750D01*
X102280000Y-105829606D01*
X101981001Y-105530607D01*
X101981001Y-105527855D01*
X101957558Y-105410000D01*
X101917197Y-105207089D01*
X101735498Y-104935158D01*
X100347643Y-103547303D01*
X100075712Y-103365604D01*
X99754946Y-103301800D01*
X99635750Y-103301800D01*
X99662440Y-103170000D01*
X99662440Y-102964270D01*
X100748199Y-101878511D01*
X100759721Y-101906397D01*
G36*
X114332560Y-103107954D02*
X114332560Y-103170000D01*
X114376838Y-103405317D01*
X114440678Y-103504528D01*
X114383569Y-103588110D01*
X114332560Y-103840000D01*
X114332560Y-104440000D01*
X114376838Y-104675317D01*
X114435178Y-104765980D01*
X114345000Y-104983690D01*
X114345000Y-105124250D01*
X114503748Y-105282998D01*
X114345000Y-105282998D01*
X114345000Y-105285606D01*
X112606697Y-103547303D01*
X112334766Y-103365604D01*
X112014000Y-103301800D01*
X111700750Y-103301800D01*
X111727440Y-103170000D01*
X111727440Y-102570000D01*
X111683162Y-102334683D01*
X111619322Y-102235472D01*
X111676431Y-102151890D01*
X111727440Y-101900000D01*
X111727440Y-101300000D01*
X111683162Y-101064683D01*
X111624822Y-100974020D01*
X111715000Y-100756310D01*
X111715000Y-100615750D01*
X111556252Y-100457002D01*
X111681608Y-100457002D01*
X114332560Y-103107954D01*
X114332560Y-103107954D01*
G37*
X114332560Y-103107954D02*
X114332560Y-103170000D01*
X114376838Y-103405317D01*
X114440678Y-103504528D01*
X114383569Y-103588110D01*
X114332560Y-103840000D01*
X114332560Y-104440000D01*
X114376838Y-104675317D01*
X114435178Y-104765980D01*
X114345000Y-104983690D01*
X114345000Y-105124250D01*
X114503748Y-105282998D01*
X114345000Y-105282998D01*
X114345000Y-105285606D01*
X112606697Y-103547303D01*
X112334766Y-103365604D01*
X112014000Y-103301800D01*
X111700750Y-103301800D01*
X111727440Y-103170000D01*
X111727440Y-102570000D01*
X111683162Y-102334683D01*
X111619322Y-102235472D01*
X111676431Y-102151890D01*
X111727440Y-101900000D01*
X111727440Y-101300000D01*
X111683162Y-101064683D01*
X111624822Y-100974020D01*
X111715000Y-100756310D01*
X111715000Y-100615750D01*
X111556252Y-100457002D01*
X111681608Y-100457002D01*
X114332560Y-103107954D01*
G36*
X103792000Y-100203000D02*
X103812000Y-100203000D01*
X103812000Y-100457000D01*
X103792000Y-100457000D01*
X103792000Y-101473000D01*
X103812000Y-101473000D01*
X103812000Y-101727000D01*
X103792000Y-101727000D01*
X103792000Y-101747000D01*
X103538000Y-101747000D01*
X103538000Y-101727000D01*
X103518000Y-101727000D01*
X103518000Y-101473000D01*
X103538000Y-101473000D01*
X103538000Y-100457000D01*
X103518000Y-100457000D01*
X103518000Y-100203000D01*
X103538000Y-100203000D01*
X103538000Y-100183000D01*
X103792000Y-100183000D01*
X103792000Y-100203000D01*
X103792000Y-100203000D01*
G37*
X103792000Y-100203000D02*
X103812000Y-100203000D01*
X103812000Y-100457000D01*
X103792000Y-100457000D01*
X103792000Y-101473000D01*
X103812000Y-101473000D01*
X103812000Y-101727000D01*
X103792000Y-101727000D01*
X103792000Y-101747000D01*
X103538000Y-101747000D01*
X103538000Y-101727000D01*
X103518000Y-101727000D01*
X103518000Y-101473000D01*
X103538000Y-101473000D01*
X103538000Y-100457000D01*
X103518000Y-100457000D01*
X103518000Y-100203000D01*
X103538000Y-100203000D01*
X103538000Y-100183000D01*
X103792000Y-100183000D01*
X103792000Y-100203000D01*
G36*
X110619606Y-99395000D02*
X110615750Y-99395000D01*
X110457000Y-99553750D01*
X110457000Y-100203000D01*
X110477000Y-100203000D01*
X110477000Y-100457000D01*
X110457000Y-100457000D01*
X110457000Y-100477000D01*
X110203000Y-100477000D01*
X110203000Y-100457000D01*
X109103750Y-100457000D01*
X109073610Y-100487140D01*
X108926630Y-100340160D01*
X108077000Y-100340160D01*
X108077000Y-100360160D01*
X107823000Y-100360160D01*
X107823000Y-100340160D01*
X107803000Y-100340160D01*
X107803000Y-100086160D01*
X107823000Y-100086160D01*
X107823000Y-100066160D01*
X108077000Y-100066160D01*
X108077000Y-100086160D01*
X108926630Y-100086160D01*
X108956770Y-100056020D01*
X109103750Y-100203000D01*
X110203000Y-100203000D01*
X110203000Y-99553750D01*
X110044250Y-99395000D01*
X109453691Y-99395000D01*
X109220302Y-99491673D01*
X109082253Y-99629721D01*
X108988707Y-99403882D01*
X108810079Y-99225253D01*
X108576690Y-99128580D01*
X108365774Y-99128580D01*
X108739154Y-98755200D01*
X109979806Y-98755200D01*
X110619606Y-99395000D01*
X110619606Y-99395000D01*
G37*
X110619606Y-99395000D02*
X110615750Y-99395000D01*
X110457000Y-99553750D01*
X110457000Y-100203000D01*
X110477000Y-100203000D01*
X110477000Y-100457000D01*
X110457000Y-100457000D01*
X110457000Y-100477000D01*
X110203000Y-100477000D01*
X110203000Y-100457000D01*
X109103750Y-100457000D01*
X109073610Y-100487140D01*
X108926630Y-100340160D01*
X108077000Y-100340160D01*
X108077000Y-100360160D01*
X107823000Y-100360160D01*
X107823000Y-100340160D01*
X107803000Y-100340160D01*
X107803000Y-100086160D01*
X107823000Y-100086160D01*
X107823000Y-100066160D01*
X108077000Y-100066160D01*
X108077000Y-100086160D01*
X108926630Y-100086160D01*
X108956770Y-100056020D01*
X109103750Y-100203000D01*
X110203000Y-100203000D01*
X110203000Y-99553750D01*
X110044250Y-99395000D01*
X109453691Y-99395000D01*
X109220302Y-99491673D01*
X109082253Y-99629721D01*
X108988707Y-99403882D01*
X108810079Y-99225253D01*
X108576690Y-99128580D01*
X108365774Y-99128580D01*
X108739154Y-98755200D01*
X109979806Y-98755200D01*
X110619606Y-99395000D01*
G36*
X72525910Y-89651441D02*
X72651800Y-89737458D01*
X72651800Y-89968041D01*
X72538559Y-90040910D01*
X72393569Y-90253110D01*
X72386809Y-90286490D01*
X72328327Y-90145301D01*
X72149698Y-89966673D01*
X71916309Y-89870000D01*
X71575750Y-89870000D01*
X71417000Y-90028750D01*
X71417000Y-90678000D01*
X71437000Y-90678000D01*
X71437000Y-90932000D01*
X71417000Y-90932000D01*
X71417000Y-90952000D01*
X71163000Y-90952000D01*
X71163000Y-90932000D01*
X70313750Y-90932000D01*
X70155000Y-91090750D01*
X70155000Y-91231310D01*
X70251673Y-91464699D01*
X70430302Y-91643327D01*
X70663691Y-91740000D01*
X70745733Y-91740000D01*
X70737139Y-91745530D01*
X70630208Y-91902029D01*
X70461414Y-91935604D01*
X70189483Y-92117303D01*
X68749303Y-93557483D01*
X68642495Y-93717331D01*
X68347471Y-93520203D01*
X67893991Y-93430000D01*
X66726009Y-93430000D01*
X66435917Y-93487703D01*
X63958061Y-91009847D01*
X63998807Y-90805000D01*
X63892467Y-90270391D01*
X63589635Y-89817172D01*
X63471445Y-89738200D01*
X65626900Y-89738200D01*
X65541009Y-90170000D01*
X65631212Y-90623480D01*
X65752499Y-90805000D01*
X65631212Y-90986520D01*
X65541009Y-91440000D01*
X65631212Y-91893480D01*
X65888087Y-92277922D01*
X66272529Y-92534797D01*
X66726009Y-92625000D01*
X67893991Y-92625000D01*
X68347471Y-92534797D01*
X68731913Y-92277922D01*
X68988788Y-91893480D01*
X69078991Y-91440000D01*
X68993100Y-91008200D01*
X69113600Y-91008200D01*
X69434366Y-90944396D01*
X69706297Y-90762697D01*
X70200747Y-90268247D01*
X70155000Y-90378690D01*
X70155000Y-90519250D01*
X70313750Y-90678000D01*
X71163000Y-90678000D01*
X71163000Y-90028750D01*
X71004250Y-89870000D01*
X70663691Y-89870000D01*
X70553246Y-89915748D01*
X70649921Y-89819073D01*
X70790000Y-89847440D01*
X71790000Y-89847440D01*
X72025317Y-89803162D01*
X72241441Y-89664090D01*
X72386431Y-89451890D01*
X72389081Y-89438803D01*
X72525910Y-89651441D01*
X72525910Y-89651441D01*
G37*
X72525910Y-89651441D02*
X72651800Y-89737458D01*
X72651800Y-89968041D01*
X72538559Y-90040910D01*
X72393569Y-90253110D01*
X72386809Y-90286490D01*
X72328327Y-90145301D01*
X72149698Y-89966673D01*
X71916309Y-89870000D01*
X71575750Y-89870000D01*
X71417000Y-90028750D01*
X71417000Y-90678000D01*
X71437000Y-90678000D01*
X71437000Y-90932000D01*
X71417000Y-90932000D01*
X71417000Y-90952000D01*
X71163000Y-90952000D01*
X71163000Y-90932000D01*
X70313750Y-90932000D01*
X70155000Y-91090750D01*
X70155000Y-91231310D01*
X70251673Y-91464699D01*
X70430302Y-91643327D01*
X70663691Y-91740000D01*
X70745733Y-91740000D01*
X70737139Y-91745530D01*
X70630208Y-91902029D01*
X70461414Y-91935604D01*
X70189483Y-92117303D01*
X68749303Y-93557483D01*
X68642495Y-93717331D01*
X68347471Y-93520203D01*
X67893991Y-93430000D01*
X66726009Y-93430000D01*
X66435917Y-93487703D01*
X63958061Y-91009847D01*
X63998807Y-90805000D01*
X63892467Y-90270391D01*
X63589635Y-89817172D01*
X63471445Y-89738200D01*
X65626900Y-89738200D01*
X65541009Y-90170000D01*
X65631212Y-90623480D01*
X65752499Y-90805000D01*
X65631212Y-90986520D01*
X65541009Y-91440000D01*
X65631212Y-91893480D01*
X65888087Y-92277922D01*
X66272529Y-92534797D01*
X66726009Y-92625000D01*
X67893991Y-92625000D01*
X68347471Y-92534797D01*
X68731913Y-92277922D01*
X68988788Y-91893480D01*
X69078991Y-91440000D01*
X68993100Y-91008200D01*
X69113600Y-91008200D01*
X69434366Y-90944396D01*
X69706297Y-90762697D01*
X70200747Y-90268247D01*
X70155000Y-90378690D01*
X70155000Y-90519250D01*
X70313750Y-90678000D01*
X71163000Y-90678000D01*
X71163000Y-90028750D01*
X71004250Y-89870000D01*
X70663691Y-89870000D01*
X70553246Y-89915748D01*
X70649921Y-89819073D01*
X70790000Y-89847440D01*
X71790000Y-89847440D01*
X72025317Y-89803162D01*
X72241441Y-89664090D01*
X72386431Y-89451890D01*
X72389081Y-89438803D01*
X72525910Y-89651441D01*
M02*
