%TF.GenerationSoftware,KiCad,Pcbnew,(2015-12-30 BZR 6409)-product*%
%TF.CreationDate,2016-01-04T10:25:45+01:00*%
%TF.ProjectId,transmitter,7472616E736D69747465722E6B696361,rev?*%
%TF.FileFunction,Soldermask,Bot*%
%FSLAX46Y46*%
G04 Gerber Fmt 4.6, Leading zero omitted, Abs format (unit mm)*
G04 Created by KiCad (PCBNEW (2015-12-30 BZR 6409)-product) date pon, 4 sty 2016, 10:25:45*
%MOMM*%
G01*
G04 APERTURE LIST*
%ADD10C,0.100000*%
%ADD11R,2.297380X2.297380*%
%ADD12R,1.748740X0.798780*%
%ADD13R,1.746200X0.798780*%
%ADD14C,1.197560*%
%ADD15R,1.400760X1.299160*%
%ADD16R,2.400000X2.300000*%
%ADD17C,2.300000*%
%ADD18O,2.600000X1.500000*%
%ADD19R,1.299160X1.400760*%
%ADD20R,3.092400X2.000200*%
%ADD21R,1.400000X0.650000*%
%ADD22R,1.924000X2.599640*%
%ADD23O,1.924000X2.599640*%
%ADD24R,2.899360X2.350720*%
%ADD25C,1.924000*%
%ADD26C,1.416000*%
%ADD27R,2.599640X1.924000*%
%ADD28O,2.599640X1.924000*%
%ADD29R,2.000200X3.092400*%
%ADD30C,1.720800*%
%ADD31R,1.900000X1.000000*%
%ADD32R,1.400000X1.000000*%
G04 APERTURE END LIST*
D10*
D11*
X138616000Y-99544120D03*
X138616000Y-101941880D03*
X138616000Y-104692700D03*
X138616000Y-96793300D03*
D12*
X135941380Y-99442520D03*
D13*
X135941380Y-100095300D03*
X135941380Y-100743000D03*
X135941380Y-101390700D03*
X135941380Y-102043480D03*
D14*
X136469700Y-102640380D03*
X136467160Y-98843080D03*
D15*
X107950000Y-107431840D03*
X107950000Y-105928160D03*
X106045000Y-101716840D03*
X106045000Y-100213160D03*
X95885000Y-106796840D03*
X95885000Y-105293160D03*
D16*
X60626000Y-105268000D03*
D17*
X60626000Y-107808000D03*
D18*
X67310000Y-97155000D03*
X67310000Y-95885000D03*
X67310000Y-94615000D03*
X67310000Y-88900000D03*
X67310000Y-90170000D03*
X67310000Y-91440000D03*
D19*
X130291840Y-112395000D03*
X128788160Y-112395000D03*
X130926840Y-106680000D03*
X129423160Y-106680000D03*
X124978160Y-112395000D03*
X126481840Y-112395000D03*
D15*
X93980000Y-106796840D03*
X93980000Y-105293160D03*
D19*
X71638160Y-92710000D03*
X73141840Y-92710000D03*
D15*
X75565000Y-90921840D03*
X75565000Y-89418160D03*
D20*
X72390000Y-97917000D03*
X72390000Y-95123000D03*
D21*
X129748100Y-108220000D03*
X129748100Y-108720000D03*
X129748100Y-109220000D03*
X129748100Y-109720000D03*
X129748100Y-110220000D03*
X125521900Y-110220000D03*
X125521900Y-109720000D03*
X125521900Y-109220000D03*
X125521900Y-108720000D03*
X125521900Y-108220000D03*
D22*
X122555000Y-107950000D03*
D23*
X120015000Y-107950000D03*
D16*
X60626000Y-97805000D03*
D17*
X60626000Y-100345000D03*
D15*
X95885000Y-101716840D03*
X95885000Y-100213160D03*
X107950000Y-101716840D03*
X107950000Y-100213160D03*
D24*
X132715000Y-97409000D03*
X132715000Y-94361000D03*
X72390000Y-104394000D03*
X72390000Y-101346000D03*
D25*
X133000000Y-111760000D03*
X133000000Y-109220000D03*
X133000000Y-106680000D03*
D16*
X66040000Y-101600000D03*
D17*
X66040000Y-104140000D03*
D22*
X127635000Y-116205000D03*
D23*
X125095000Y-116205000D03*
X122555000Y-116205000D03*
D26*
X99695000Y-111760000D03*
X102235000Y-111760000D03*
X123825000Y-119380000D03*
X126365000Y-119380000D03*
X118745000Y-100330000D03*
X118745000Y-102870000D03*
X123190000Y-111125000D03*
X120650000Y-111125000D03*
D22*
X106045000Y-111760000D03*
D23*
X108585000Y-111760000D03*
D26*
X99695000Y-97790000D03*
X102235000Y-97790000D03*
D27*
X62230000Y-93345000D03*
D28*
X62230000Y-90805000D03*
D22*
X66040000Y-113030000D03*
D23*
X68580000Y-113030000D03*
D26*
X67310000Y-86360000D03*
X64770000Y-86360000D03*
X55245000Y-105410000D03*
X55245000Y-107950000D03*
D27*
X76200000Y-94615000D03*
D28*
X76200000Y-97155000D03*
D29*
X65913000Y-109220000D03*
X68707000Y-109220000D03*
D30*
X62865000Y-117475000D03*
X73025000Y-117475000D03*
D25*
X129540000Y-89789000D03*
X127000000Y-94869000D03*
X129540000Y-102235000D03*
X124460000Y-89789000D03*
X121920000Y-94869000D03*
X124460000Y-102235000D03*
D31*
X110330000Y-107950000D03*
X110330000Y-106680000D03*
X110330000Y-105410000D03*
X110330000Y-104140000D03*
X110330000Y-102870000D03*
X110330000Y-101600000D03*
X110330000Y-100330000D03*
X115730000Y-100330000D03*
X115730000Y-101600000D03*
X115730000Y-102870000D03*
X115730000Y-104140000D03*
X115730000Y-105410000D03*
X115730000Y-106680000D03*
X115730000Y-107950000D03*
X98265000Y-107950000D03*
X98265000Y-106680000D03*
X98265000Y-105410000D03*
X98265000Y-104140000D03*
X98265000Y-102870000D03*
X98265000Y-101600000D03*
X98265000Y-100330000D03*
X103665000Y-100330000D03*
X103665000Y-101600000D03*
X103665000Y-102870000D03*
X103665000Y-104140000D03*
X103665000Y-105410000D03*
X103665000Y-106680000D03*
X103665000Y-107950000D03*
D32*
X73490000Y-88900000D03*
X71290000Y-88900000D03*
X71290000Y-90805000D03*
X73490000Y-90805000D03*
M02*
