%TF.GenerationSoftware,KiCad,Pcbnew,(2015-12-30 BZR 6409)-product*%
%TF.CreationDate,2016-01-04T10:25:45+01:00*%
%TF.ProjectId,transmitter,7472616E736D69747465722E6B696361,rev?*%
%TF.FileFunction,Legend,Bot*%
%FSLAX46Y46*%
G04 Gerber Fmt 4.6, Leading zero omitted, Abs format (unit mm)*
G04 Created by KiCad (PCBNEW (2015-12-30 BZR 6409)-product) date pon, 4 sty 2016, 10:25:45*
%MOMM*%
G01*
G04 APERTURE LIST*
%ADD10C,0.100000*%
%ADD11C,0.300000*%
%ADD12C,0.050800*%
%ADD13C,0.200660*%
%ADD14C,0.127000*%
%ADD15C,0.150000*%
%ADD16C,0.203200*%
%ADD17C,0.304800*%
%ADD18C,0.299720*%
%ADD19R,2.297380X2.297380*%
%ADD20R,1.748740X0.798780*%
%ADD21R,1.746200X0.798780*%
%ADD22C,1.197560*%
%ADD23R,1.400760X1.299160*%
%ADD24R,2.400000X2.300000*%
%ADD25C,2.300000*%
%ADD26O,2.600000X1.500000*%
%ADD27R,1.299160X1.400760*%
%ADD28R,3.092400X2.000200*%
%ADD29R,1.400000X0.650000*%
%ADD30R,1.924000X2.599640*%
%ADD31O,1.924000X2.599640*%
%ADD32R,2.899360X2.350720*%
%ADD33C,1.924000*%
%ADD34C,1.416000*%
%ADD35R,2.599640X1.924000*%
%ADD36O,2.599640X1.924000*%
%ADD37R,2.000200X3.092400*%
%ADD38C,1.720800*%
%ADD39R,1.900000X1.000000*%
%ADD40R,1.400000X1.000000*%
G04 APERTURE END LIST*
D10*
D11*
X122999428Y-114280143D02*
X121856571Y-114280143D01*
X130492428Y-116185143D02*
X129349571Y-116185143D01*
X129921000Y-116756571D02*
X129921000Y-115613714D01*
D12*
X137788952Y-111838619D02*
X137837333Y-111862810D01*
X137934095Y-111862810D01*
X137982476Y-111838619D01*
X138006667Y-111814429D01*
X138030857Y-111766048D01*
X138030857Y-111620905D01*
X138006667Y-111572524D01*
X137982476Y-111548333D01*
X137934095Y-111524143D01*
X137837333Y-111524143D01*
X137788952Y-111548333D01*
X137498666Y-111862810D02*
X137547047Y-111838619D01*
X137571238Y-111814429D01*
X137595428Y-111766048D01*
X137595428Y-111620905D01*
X137571238Y-111572524D01*
X137547047Y-111548333D01*
X137498666Y-111524143D01*
X137426095Y-111524143D01*
X137377714Y-111548333D01*
X137353523Y-111572524D01*
X137329333Y-111620905D01*
X137329333Y-111766048D01*
X137353523Y-111814429D01*
X137377714Y-111838619D01*
X137426095Y-111862810D01*
X137498666Y-111862810D01*
X137111619Y-111862810D02*
X137111619Y-111524143D01*
X137111619Y-111572524D02*
X137087428Y-111548333D01*
X137039047Y-111524143D01*
X136966476Y-111524143D01*
X136918095Y-111548333D01*
X136893904Y-111596714D01*
X136893904Y-111862810D01*
X136893904Y-111596714D02*
X136869714Y-111548333D01*
X136821333Y-111524143D01*
X136748761Y-111524143D01*
X136700381Y-111548333D01*
X136676190Y-111596714D01*
X136676190Y-111862810D01*
X136434286Y-111524143D02*
X136434286Y-112032143D01*
X136434286Y-111548333D02*
X136385905Y-111524143D01*
X136289143Y-111524143D01*
X136240762Y-111548333D01*
X136216571Y-111572524D01*
X136192381Y-111620905D01*
X136192381Y-111766048D01*
X136216571Y-111814429D01*
X136240762Y-111838619D01*
X136289143Y-111862810D01*
X136385905Y-111862810D01*
X136434286Y-111838619D01*
X135902095Y-111862810D02*
X135950476Y-111838619D01*
X135974667Y-111790238D01*
X135974667Y-111354810D01*
X135515048Y-111838619D02*
X135563429Y-111862810D01*
X135660191Y-111862810D01*
X135708572Y-111838619D01*
X135732762Y-111790238D01*
X135732762Y-111596714D01*
X135708572Y-111548333D01*
X135660191Y-111524143D01*
X135563429Y-111524143D01*
X135515048Y-111548333D01*
X135490857Y-111596714D01*
X135490857Y-111645095D01*
X135732762Y-111693476D01*
X135345714Y-111524143D02*
X135152190Y-111524143D01*
X135273143Y-111354810D02*
X135273143Y-111790238D01*
X135248952Y-111838619D01*
X135200571Y-111862810D01*
X135152190Y-111862810D01*
X134789333Y-111838619D02*
X134837714Y-111862810D01*
X134934476Y-111862810D01*
X134982857Y-111838619D01*
X135007047Y-111790238D01*
X135007047Y-111596714D01*
X134982857Y-111548333D01*
X134934476Y-111524143D01*
X134837714Y-111524143D01*
X134789333Y-111548333D01*
X134765142Y-111596714D01*
X134765142Y-111645095D01*
X135007047Y-111693476D01*
X138163905Y-106571143D02*
X138163905Y-107079143D01*
X138163905Y-106595333D02*
X138115524Y-106571143D01*
X138018762Y-106571143D01*
X137970381Y-106595333D01*
X137946190Y-106619524D01*
X137922000Y-106667905D01*
X137922000Y-106813048D01*
X137946190Y-106861429D01*
X137970381Y-106885619D01*
X138018762Y-106909810D01*
X138115524Y-106909810D01*
X138163905Y-106885619D01*
X137704286Y-106909810D02*
X137704286Y-106571143D01*
X137704286Y-106667905D02*
X137680095Y-106619524D01*
X137655905Y-106595333D01*
X137607524Y-106571143D01*
X137559143Y-106571143D01*
X137317238Y-106909810D02*
X137365619Y-106885619D01*
X137389810Y-106861429D01*
X137414000Y-106813048D01*
X137414000Y-106667905D01*
X137389810Y-106619524D01*
X137365619Y-106595333D01*
X137317238Y-106571143D01*
X137244667Y-106571143D01*
X137196286Y-106595333D01*
X137172095Y-106619524D01*
X137147905Y-106667905D01*
X137147905Y-106813048D01*
X137172095Y-106861429D01*
X137196286Y-106885619D01*
X137244667Y-106909810D01*
X137317238Y-106909810D01*
X136712476Y-106571143D02*
X136712476Y-106982381D01*
X136736667Y-107030762D01*
X136760857Y-107054952D01*
X136809238Y-107079143D01*
X136881810Y-107079143D01*
X136930191Y-107054952D01*
X136712476Y-106885619D02*
X136760857Y-106909810D01*
X136857619Y-106909810D01*
X136906000Y-106885619D01*
X136930191Y-106861429D01*
X136954381Y-106813048D01*
X136954381Y-106667905D01*
X136930191Y-106619524D01*
X136906000Y-106595333D01*
X136857619Y-106571143D01*
X136760857Y-106571143D01*
X136712476Y-106595333D01*
X136470572Y-106909810D02*
X136470572Y-106571143D01*
X136470572Y-106667905D02*
X136446381Y-106619524D01*
X136422191Y-106595333D01*
X136373810Y-106571143D01*
X136325429Y-106571143D01*
X135962572Y-106885619D02*
X136010953Y-106909810D01*
X136107715Y-106909810D01*
X136156096Y-106885619D01*
X136180286Y-106837238D01*
X136180286Y-106643714D01*
X136156096Y-106595333D01*
X136107715Y-106571143D01*
X136010953Y-106571143D01*
X135962572Y-106595333D01*
X135938381Y-106643714D01*
X135938381Y-106692095D01*
X136180286Y-106740476D01*
X135744857Y-106885619D02*
X135696476Y-106909810D01*
X135599714Y-106909810D01*
X135551333Y-106885619D01*
X135527143Y-106837238D01*
X135527143Y-106813048D01*
X135551333Y-106764667D01*
X135599714Y-106740476D01*
X135672286Y-106740476D01*
X135720667Y-106716286D01*
X135744857Y-106667905D01*
X135744857Y-106643714D01*
X135720667Y-106595333D01*
X135672286Y-106571143D01*
X135599714Y-106571143D01*
X135551333Y-106595333D01*
X135333619Y-106885619D02*
X135285238Y-106909810D01*
X135188476Y-106909810D01*
X135140095Y-106885619D01*
X135115905Y-106837238D01*
X135115905Y-106813048D01*
X135140095Y-106764667D01*
X135188476Y-106740476D01*
X135261048Y-106740476D01*
X135309429Y-106716286D01*
X135333619Y-106667905D01*
X135333619Y-106643714D01*
X135309429Y-106595333D01*
X135261048Y-106571143D01*
X135188476Y-106571143D01*
X135140095Y-106595333D01*
X82640714Y-110381143D02*
X82640714Y-110792381D01*
X82664905Y-110840762D01*
X82689095Y-110864952D01*
X82737476Y-110889143D01*
X82810048Y-110889143D01*
X82858429Y-110864952D01*
X82640714Y-110695619D02*
X82689095Y-110719810D01*
X82785857Y-110719810D01*
X82834238Y-110695619D01*
X82858429Y-110671429D01*
X82882619Y-110623048D01*
X82882619Y-110477905D01*
X82858429Y-110429524D01*
X82834238Y-110405333D01*
X82785857Y-110381143D01*
X82689095Y-110381143D01*
X82640714Y-110405333D01*
X82398810Y-110381143D02*
X82398810Y-110889143D01*
X82398810Y-110405333D02*
X82350429Y-110381143D01*
X82253667Y-110381143D01*
X82205286Y-110405333D01*
X82181095Y-110429524D01*
X82156905Y-110477905D01*
X82156905Y-110623048D01*
X82181095Y-110671429D01*
X82205286Y-110695619D01*
X82253667Y-110719810D01*
X82350429Y-110719810D01*
X82398810Y-110695619D01*
X81866619Y-110429524D02*
X81915000Y-110405333D01*
X81939191Y-110381143D01*
X81963381Y-110332762D01*
X81963381Y-110308571D01*
X81939191Y-110260190D01*
X81915000Y-110236000D01*
X81866619Y-110211810D01*
X81769857Y-110211810D01*
X81721476Y-110236000D01*
X81697286Y-110260190D01*
X81673095Y-110308571D01*
X81673095Y-110332762D01*
X81697286Y-110381143D01*
X81721476Y-110405333D01*
X81769857Y-110429524D01*
X81866619Y-110429524D01*
X81915000Y-110453714D01*
X81939191Y-110477905D01*
X81963381Y-110526286D01*
X81963381Y-110623048D01*
X81939191Y-110671429D01*
X81915000Y-110695619D01*
X81866619Y-110719810D01*
X81769857Y-110719810D01*
X81721476Y-110695619D01*
X81697286Y-110671429D01*
X81673095Y-110623048D01*
X81673095Y-110526286D01*
X81697286Y-110477905D01*
X81721476Y-110453714D01*
X81769857Y-110429524D01*
X81455381Y-110526286D02*
X81068333Y-110526286D01*
X80850619Y-110695619D02*
X80802238Y-110719810D01*
X80705476Y-110719810D01*
X80657095Y-110695619D01*
X80632905Y-110647238D01*
X80632905Y-110623048D01*
X80657095Y-110574667D01*
X80705476Y-110550476D01*
X80778048Y-110550476D01*
X80826429Y-110526286D01*
X80850619Y-110477905D01*
X80850619Y-110453714D01*
X80826429Y-110405333D01*
X80778048Y-110381143D01*
X80705476Y-110381143D01*
X80657095Y-110405333D01*
X80487762Y-110381143D02*
X80294238Y-110381143D01*
X80415191Y-110211810D02*
X80415191Y-110647238D01*
X80391000Y-110695619D01*
X80342619Y-110719810D01*
X80294238Y-110719810D01*
X80052333Y-110719810D02*
X80100714Y-110695619D01*
X80124905Y-110671429D01*
X80149095Y-110623048D01*
X80149095Y-110477905D01*
X80124905Y-110429524D01*
X80100714Y-110405333D01*
X80052333Y-110381143D01*
X79979762Y-110381143D01*
X79931381Y-110405333D01*
X79907190Y-110429524D01*
X79883000Y-110477905D01*
X79883000Y-110623048D01*
X79907190Y-110671429D01*
X79931381Y-110695619D01*
X79979762Y-110719810D01*
X80052333Y-110719810D01*
X79665286Y-110381143D02*
X79665286Y-110889143D01*
X79665286Y-110405333D02*
X79616905Y-110381143D01*
X79520143Y-110381143D01*
X79471762Y-110405333D01*
X79447571Y-110429524D01*
X79423381Y-110477905D01*
X79423381Y-110623048D01*
X79447571Y-110671429D01*
X79471762Y-110695619D01*
X79520143Y-110719810D01*
X79616905Y-110719810D01*
X79665286Y-110695619D01*
X79254048Y-110381143D02*
X79157286Y-110719810D01*
X79060524Y-110477905D01*
X78963762Y-110719810D01*
X78867000Y-110381143D01*
X78455762Y-110719810D02*
X78455762Y-110453714D01*
X78479953Y-110405333D01*
X78528334Y-110381143D01*
X78625096Y-110381143D01*
X78673477Y-110405333D01*
X78455762Y-110695619D02*
X78504143Y-110719810D01*
X78625096Y-110719810D01*
X78673477Y-110695619D01*
X78697667Y-110647238D01*
X78697667Y-110598857D01*
X78673477Y-110550476D01*
X78625096Y-110526286D01*
X78504143Y-110526286D01*
X78455762Y-110502095D01*
X78286429Y-110381143D02*
X78092905Y-110381143D01*
X78213858Y-110211810D02*
X78213858Y-110647238D01*
X78189667Y-110695619D01*
X78141286Y-110719810D01*
X78092905Y-110719810D01*
X77705857Y-110695619D02*
X77754238Y-110719810D01*
X77851000Y-110719810D01*
X77899381Y-110695619D01*
X77923572Y-110671429D01*
X77947762Y-110623048D01*
X77947762Y-110477905D01*
X77923572Y-110429524D01*
X77899381Y-110405333D01*
X77851000Y-110381143D01*
X77754238Y-110381143D01*
X77705857Y-110405333D01*
X77488143Y-110719810D02*
X77488143Y-110211810D01*
X77270428Y-110719810D02*
X77270428Y-110453714D01*
X77294619Y-110405333D01*
X77343000Y-110381143D01*
X77415571Y-110381143D01*
X77463952Y-110405333D01*
X77488143Y-110429524D01*
X76351190Y-110719810D02*
X76520523Y-110477905D01*
X76641476Y-110719810D02*
X76641476Y-110211810D01*
X76447952Y-110211810D01*
X76399571Y-110236000D01*
X76375380Y-110260190D01*
X76351190Y-110308571D01*
X76351190Y-110381143D01*
X76375380Y-110429524D01*
X76399571Y-110453714D01*
X76447952Y-110477905D01*
X76641476Y-110477905D01*
X76157666Y-110260190D02*
X76133476Y-110236000D01*
X76085095Y-110211810D01*
X75964142Y-110211810D01*
X75915761Y-110236000D01*
X75891571Y-110260190D01*
X75867380Y-110308571D01*
X75867380Y-110356952D01*
X75891571Y-110429524D01*
X76181857Y-110719810D01*
X75867380Y-110719810D01*
D11*
X54288571Y-96084286D02*
X54288571Y-96655715D01*
X55288571Y-96298572D02*
X54002857Y-96298572D01*
X53860000Y-96370000D01*
X53788571Y-96512858D01*
X53788571Y-96655715D01*
X55288571Y-97798572D02*
X54502857Y-97798572D01*
X54360000Y-97727143D01*
X54288571Y-97584286D01*
X54288571Y-97298572D01*
X54360000Y-97155715D01*
X55217143Y-97798572D02*
X55288571Y-97655715D01*
X55288571Y-97298572D01*
X55217143Y-97155715D01*
X55074286Y-97084286D01*
X54931429Y-97084286D01*
X54788571Y-97155715D01*
X54717143Y-97298572D01*
X54717143Y-97655715D01*
X54645714Y-97798572D01*
X55217143Y-99155715D02*
X55288571Y-99012858D01*
X55288571Y-98727144D01*
X55217143Y-98584286D01*
X55145714Y-98512858D01*
X55002857Y-98441429D01*
X54574286Y-98441429D01*
X54431429Y-98512858D01*
X54360000Y-98584286D01*
X54288571Y-98727144D01*
X54288571Y-99012858D01*
X54360000Y-99155715D01*
X55288571Y-99798572D02*
X54288571Y-99798572D01*
X53788571Y-99798572D02*
X53860000Y-99727143D01*
X53931429Y-99798572D01*
X53860000Y-99870000D01*
X53788571Y-99798572D01*
X53931429Y-99798572D01*
X54288571Y-100512858D02*
X55288571Y-100512858D01*
X54431429Y-100512858D02*
X54360000Y-100584286D01*
X54288571Y-100727144D01*
X54288571Y-100941429D01*
X54360000Y-101084286D01*
X54502857Y-101155715D01*
X55288571Y-101155715D01*
X54288571Y-102512858D02*
X55502857Y-102512858D01*
X55645714Y-102441429D01*
X55717143Y-102370001D01*
X55788571Y-102227144D01*
X55788571Y-102012858D01*
X55717143Y-101870001D01*
X55217143Y-102512858D02*
X55288571Y-102370001D01*
X55288571Y-102084287D01*
X55217143Y-101941429D01*
X55145714Y-101870001D01*
X55002857Y-101798572D01*
X54574286Y-101798572D01*
X54431429Y-101870001D01*
X54360000Y-101941429D01*
X54288571Y-102084287D01*
X54288571Y-102370001D01*
X54360000Y-102512858D01*
X55217143Y-104941429D02*
X55288571Y-104798572D01*
X55288571Y-104512858D01*
X55217143Y-104370001D01*
X55074286Y-104298572D01*
X54502857Y-104298572D01*
X54360000Y-104370001D01*
X54288571Y-104512858D01*
X54288571Y-104798572D01*
X54360000Y-104941429D01*
X54502857Y-105012858D01*
X54645714Y-105012858D01*
X54788571Y-104298572D01*
X55288571Y-106298572D02*
X54502857Y-106298572D01*
X54360000Y-106227143D01*
X54288571Y-106084286D01*
X54288571Y-105798572D01*
X54360000Y-105655715D01*
X55217143Y-106298572D02*
X55288571Y-106155715D01*
X55288571Y-105798572D01*
X55217143Y-105655715D01*
X55074286Y-105584286D01*
X54931429Y-105584286D01*
X54788571Y-105655715D01*
X54717143Y-105798572D01*
X54717143Y-106155715D01*
X54645714Y-106298572D01*
X55288571Y-107012858D02*
X54288571Y-107012858D01*
X54574286Y-107012858D02*
X54431429Y-107084286D01*
X54360000Y-107155715D01*
X54288571Y-107298572D01*
X54288571Y-107441429D01*
X54288571Y-107727143D02*
X54288571Y-108298572D01*
X53788571Y-107941429D02*
X55074286Y-107941429D01*
X55217143Y-108012857D01*
X55288571Y-108155715D01*
X55288571Y-108298572D01*
X55288571Y-108798572D02*
X53788571Y-108798572D01*
X55288571Y-109441429D02*
X54502857Y-109441429D01*
X54360000Y-109370000D01*
X54288571Y-109227143D01*
X54288571Y-109012858D01*
X54360000Y-108870000D01*
X54431429Y-108798572D01*
X132758571Y-100663571D02*
X132758571Y-99806428D01*
X132758571Y-100235000D02*
X131258571Y-100235000D01*
X131472857Y-100092143D01*
X131615714Y-99949285D01*
X131687143Y-99806428D01*
X132758571Y-101306428D02*
X131258571Y-101306428D01*
X132187143Y-101449285D02*
X132758571Y-101877856D01*
X131758571Y-101877856D02*
X132330000Y-101306428D01*
X132758571Y-102520714D02*
X131258571Y-102520714D01*
X131972857Y-102520714D02*
X131972857Y-103377857D01*
X132758571Y-103377857D02*
X131258571Y-103377857D01*
X131758571Y-103949286D02*
X131758571Y-104735000D01*
X132758571Y-103949286D01*
X132758571Y-104735000D01*
X118558571Y-86955715D02*
X118558571Y-87884286D01*
X119130000Y-87384286D01*
X119130000Y-87598572D01*
X119201429Y-87741429D01*
X119272857Y-87812858D01*
X119415714Y-87884286D01*
X119772857Y-87884286D01*
X119915714Y-87812858D01*
X119987143Y-87741429D01*
X120058571Y-87598572D01*
X120058571Y-87170000D01*
X119987143Y-87027143D01*
X119915714Y-86955715D01*
X119201429Y-88741429D02*
X119130000Y-88598571D01*
X119058571Y-88527143D01*
X118915714Y-88455714D01*
X118844286Y-88455714D01*
X118701429Y-88527143D01*
X118630000Y-88598571D01*
X118558571Y-88741429D01*
X118558571Y-89027143D01*
X118630000Y-89170000D01*
X118701429Y-89241429D01*
X118844286Y-89312857D01*
X118915714Y-89312857D01*
X119058571Y-89241429D01*
X119130000Y-89170000D01*
X119201429Y-89027143D01*
X119201429Y-88741429D01*
X119272857Y-88598571D01*
X119344286Y-88527143D01*
X119487143Y-88455714D01*
X119772857Y-88455714D01*
X119915714Y-88527143D01*
X119987143Y-88598571D01*
X120058571Y-88741429D01*
X120058571Y-89027143D01*
X119987143Y-89170000D01*
X119915714Y-89241429D01*
X119772857Y-89312857D01*
X119487143Y-89312857D01*
X119344286Y-89241429D01*
X119272857Y-89170000D01*
X119201429Y-89027143D01*
X120058571Y-89955714D02*
X118558571Y-89955714D01*
X119487143Y-90098571D02*
X120058571Y-90527142D01*
X119058571Y-90527142D02*
X119630000Y-89955714D01*
X120058571Y-91170000D02*
X118558571Y-91170000D01*
X119272857Y-91170000D02*
X119272857Y-92027143D01*
X120058571Y-92027143D02*
X118558571Y-92027143D01*
X119058571Y-92598572D02*
X119058571Y-93384286D01*
X120058571Y-92598572D01*
X120058571Y-93384286D01*
D13*
X140614980Y-96541840D02*
X140614980Y-104944160D01*
X140716580Y-96541840D02*
X140716580Y-104944160D01*
X140716580Y-104944160D02*
X140515920Y-104944160D01*
X140515920Y-104944160D02*
X140515920Y-96541840D01*
X140515920Y-96541840D02*
X140716580Y-96541840D01*
X140716580Y-96844100D02*
X135715320Y-96844100D01*
X135715320Y-96844100D02*
X135715320Y-104641900D01*
X135715320Y-104641900D02*
X140716580Y-104641900D01*
D14*
X108356400Y-107238800D02*
X107543600Y-107238800D01*
X107569000Y-106121200D02*
X108356400Y-106121200D01*
X107543600Y-105867200D02*
X107543600Y-107492800D01*
X107543600Y-107492800D02*
X108356400Y-107492800D01*
X108356400Y-107492800D02*
X108356400Y-105867200D01*
X108356400Y-105867200D02*
X107543600Y-105867200D01*
X106451400Y-101523800D02*
X105638600Y-101523800D01*
X105664000Y-100406200D02*
X106451400Y-100406200D01*
X105638600Y-100152200D02*
X105638600Y-101777800D01*
X105638600Y-101777800D02*
X106451400Y-101777800D01*
X106451400Y-101777800D02*
X106451400Y-100152200D01*
X106451400Y-100152200D02*
X105638600Y-100152200D01*
X96291400Y-106603800D02*
X95478600Y-106603800D01*
X95504000Y-105486200D02*
X96291400Y-105486200D01*
X95478600Y-105232200D02*
X95478600Y-106857800D01*
X95478600Y-106857800D02*
X96291400Y-106857800D01*
X96291400Y-106857800D02*
X96291400Y-105232200D01*
X96291400Y-105232200D02*
X95478600Y-105232200D01*
D15*
X62150904Y-104053112D02*
G75*
G02X59126000Y-104038000I-1524904J-2484888D01*
G01*
X62126000Y-104038000D02*
X59126000Y-104038000D01*
X63143936Y-106538000D02*
G75*
G03X63143936Y-106538000I-2517936J0D01*
G01*
D14*
X130098800Y-111988600D02*
X130098800Y-112801400D01*
X128981200Y-112776000D02*
X128981200Y-111988600D01*
X128727200Y-112801400D02*
X130352800Y-112801400D01*
X130352800Y-112801400D02*
X130352800Y-111988600D01*
X130352800Y-111988600D02*
X128727200Y-111988600D01*
X128727200Y-111988600D02*
X128727200Y-112801400D01*
X130733800Y-106273600D02*
X130733800Y-107086400D01*
X129616200Y-107061000D02*
X129616200Y-106273600D01*
X129362200Y-107086400D02*
X130987800Y-107086400D01*
X130987800Y-107086400D02*
X130987800Y-106273600D01*
X130987800Y-106273600D02*
X129362200Y-106273600D01*
X129362200Y-106273600D02*
X129362200Y-107086400D01*
X125171200Y-112801400D02*
X125171200Y-111988600D01*
X126288800Y-112014000D02*
X126288800Y-112801400D01*
X126542800Y-111988600D02*
X124917200Y-111988600D01*
X124917200Y-111988600D02*
X124917200Y-112801400D01*
X124917200Y-112801400D02*
X126542800Y-112801400D01*
X126542800Y-112801400D02*
X126542800Y-111988600D01*
X94386400Y-106603800D02*
X93573600Y-106603800D01*
X93599000Y-105486200D02*
X94386400Y-105486200D01*
X93573600Y-105232200D02*
X93573600Y-106857800D01*
X93573600Y-106857800D02*
X94386400Y-106857800D01*
X94386400Y-106857800D02*
X94386400Y-105232200D01*
X94386400Y-105232200D02*
X93573600Y-105232200D01*
X71831200Y-93116400D02*
X71831200Y-92303600D01*
X72948800Y-92329000D02*
X72948800Y-93116400D01*
X73202800Y-92303600D02*
X71577200Y-92303600D01*
X71577200Y-92303600D02*
X71577200Y-93116400D01*
X71577200Y-93116400D02*
X73202800Y-93116400D01*
X73202800Y-93116400D02*
X73202800Y-92303600D01*
X75971400Y-90728800D02*
X75158600Y-90728800D01*
X75184000Y-89611200D02*
X75971400Y-89611200D01*
X75158600Y-89357200D02*
X75158600Y-90982800D01*
X75158600Y-90982800D02*
X75971400Y-90982800D01*
X75971400Y-90982800D02*
X75971400Y-89357200D01*
X75971400Y-89357200D02*
X75158600Y-89357200D01*
X71145400Y-94919800D02*
X73634600Y-94919800D01*
X73634600Y-98120200D02*
X71145400Y-98120200D01*
X71145400Y-97663000D02*
X73634600Y-97663000D01*
X73634600Y-95377000D02*
X71145400Y-95377000D01*
X73634600Y-94919800D02*
X73634600Y-98120200D01*
X71145400Y-98120200D02*
X71145400Y-94919800D01*
D16*
X126235000Y-107820000D02*
X126235000Y-110620000D01*
X126235000Y-110620000D02*
X129035000Y-110620000D01*
X129035000Y-110620000D02*
X129035000Y-107820000D01*
X129035000Y-107820000D02*
X126235000Y-107820000D01*
X128135000Y-108420000D02*
G75*
G02X128735000Y-108420000I300000J0D01*
G01*
X128135000Y-108420000D02*
X128735000Y-108420000D01*
D17*
X121285000Y-106680000D02*
X121285000Y-109220000D01*
X121285000Y-109220000D02*
X123825000Y-106680000D01*
X123825000Y-109220000D02*
X121285000Y-106680000D01*
X118745000Y-109220000D02*
X123825000Y-109220000D01*
X123825000Y-106680000D02*
X118745000Y-106680000D01*
X123825000Y-109220000D02*
X123825000Y-106680000D01*
X118745000Y-106680000D02*
X118745000Y-109220000D01*
D15*
X62150904Y-96590112D02*
G75*
G02X59126000Y-96575000I-1524904J-2484888D01*
G01*
X62126000Y-96575000D02*
X59126000Y-96575000D01*
X63143936Y-99075000D02*
G75*
G03X63143936Y-99075000I-2517936J0D01*
G01*
D14*
X96291400Y-101523800D02*
X95478600Y-101523800D01*
X95504000Y-100406200D02*
X96291400Y-100406200D01*
X95478600Y-100152200D02*
X95478600Y-101777800D01*
X95478600Y-101777800D02*
X96291400Y-101777800D01*
X96291400Y-101777800D02*
X96291400Y-100152200D01*
X96291400Y-100152200D02*
X95478600Y-100152200D01*
X108356400Y-101523800D02*
X107543600Y-101523800D01*
X107569000Y-100406200D02*
X108356400Y-100406200D01*
X107543600Y-100152200D02*
X107543600Y-101777800D01*
X107543600Y-101777800D02*
X108356400Y-101777800D01*
X108356400Y-101777800D02*
X108356400Y-100152200D01*
X108356400Y-100152200D02*
X107543600Y-100152200D01*
X131318000Y-97091500D02*
X134112000Y-97091500D01*
X131318000Y-97663000D02*
X131318000Y-94107000D01*
X131318000Y-94107000D02*
X134112000Y-94107000D01*
X134112000Y-94107000D02*
X134112000Y-97663000D01*
X134112000Y-97663000D02*
X131318000Y-97663000D01*
X70993000Y-104076500D02*
X73787000Y-104076500D01*
X70993000Y-104648000D02*
X70993000Y-101092000D01*
X70993000Y-101092000D02*
X73787000Y-101092000D01*
X73787000Y-101092000D02*
X73787000Y-104648000D01*
X73787000Y-104648000D02*
X70993000Y-104648000D01*
D18*
X134508760Y-110530640D02*
G75*
G02X131689360Y-110728760I-1508760J1310640D01*
G01*
X131669040Y-107718860D02*
G75*
G02X134501140Y-107889040I1330960J-1501140D01*
G01*
X133000000Y-111218980D02*
G75*
G02X131001020Y-109220000I0J1998980D01*
G01*
X131001020Y-109220000D02*
G75*
G02X133000000Y-107221020I1998980J0D01*
G01*
X134300480Y-107718860D02*
X134300480Y-110721140D01*
X134501140Y-107919520D02*
X134501140Y-110520480D01*
X134501140Y-109220000D02*
G75*
G03X134501140Y-109220000I-1501140J0D01*
G01*
D15*
X67564904Y-100385112D02*
G75*
G02X64540000Y-100370000I-1524904J-2484888D01*
G01*
X67540000Y-100370000D02*
X64540000Y-100370000D01*
X68557936Y-102870000D02*
G75*
G03X68557936Y-102870000I-2517936J0D01*
G01*
D17*
X126365000Y-117475000D02*
X126365000Y-114935000D01*
X128905000Y-114935000D02*
X121285000Y-114935000D01*
X121285000Y-114935000D02*
X121285000Y-117475000D01*
X121285000Y-117475000D02*
X128905000Y-117475000D01*
X128905000Y-117475000D02*
X128905000Y-114935000D01*
D10*
X99695000Y-111760000D02*
X102235000Y-111760000D01*
X123825000Y-119380000D02*
X126365000Y-119380000D01*
X118745000Y-100330000D02*
X118745000Y-102870000D01*
X123190000Y-111125000D02*
X120650000Y-111125000D01*
D17*
X107315000Y-113030000D02*
X107315000Y-110490000D01*
X107315000Y-110490000D02*
X104775000Y-113030000D01*
X104775000Y-110490000D02*
X107315000Y-113030000D01*
X109855000Y-110490000D02*
X104775000Y-110490000D01*
X104775000Y-113030000D02*
X109855000Y-113030000D01*
X104775000Y-110490000D02*
X104775000Y-113030000D01*
X109855000Y-113030000D02*
X109855000Y-110490000D01*
D10*
X99695000Y-97790000D02*
X102235000Y-97790000D01*
D17*
X63500000Y-92075000D02*
X60960000Y-92075000D01*
X60960000Y-92075000D02*
X63500000Y-94615000D01*
X60960000Y-94615000D02*
X63500000Y-92075000D01*
X60960000Y-89535000D02*
X60960000Y-94615000D01*
X63500000Y-94615000D02*
X63500000Y-89535000D01*
X60960000Y-94615000D02*
X63500000Y-94615000D01*
X63500000Y-89535000D02*
X60960000Y-89535000D01*
X67310000Y-114300000D02*
X67310000Y-111760000D01*
X67310000Y-111760000D02*
X64770000Y-114300000D01*
X64770000Y-111760000D02*
X67310000Y-114300000D01*
X69850000Y-111760000D02*
X64770000Y-111760000D01*
X64770000Y-114300000D02*
X69850000Y-114300000D01*
X64770000Y-111760000D02*
X64770000Y-114300000D01*
X69850000Y-114300000D02*
X69850000Y-111760000D01*
D10*
X67310000Y-86360000D02*
X64770000Y-86360000D01*
X55245000Y-105410000D02*
X55245000Y-107950000D01*
D17*
X74930000Y-95885000D02*
X77470000Y-95885000D01*
X77470000Y-95885000D02*
X74930000Y-93345000D01*
X77470000Y-93345000D02*
X74930000Y-95885000D01*
X77470000Y-98425000D02*
X77470000Y-93345000D01*
X74930000Y-93345000D02*
X74930000Y-98425000D01*
X77470000Y-93345000D02*
X74930000Y-93345000D01*
X74930000Y-98425000D02*
X77470000Y-98425000D01*
D14*
X68910200Y-107975400D02*
X68910200Y-110464600D01*
X65709800Y-110464600D02*
X65709800Y-107975400D01*
X66167000Y-107975400D02*
X66167000Y-110464600D01*
X68453000Y-110464600D02*
X68453000Y-107975400D01*
X68910200Y-110464600D02*
X65709800Y-110464600D01*
X65709800Y-107975400D02*
X68910200Y-107975400D01*
D15*
X127000000Y-84963000D02*
X127254000Y-84709000D01*
X127254000Y-84709000D02*
X128270000Y-84709000D01*
X128270000Y-84709000D02*
X129286000Y-84709000D01*
X129286000Y-84709000D02*
X129540000Y-84963000D01*
X127000000Y-86360000D02*
X127000000Y-85090000D01*
X129540000Y-86360000D02*
X129540000Y-85090000D01*
X128270000Y-84836000D02*
X128270000Y-85344000D01*
X130302000Y-86487000D02*
X126238000Y-86487000D01*
X130302000Y-105283000D02*
X126238000Y-105283000D01*
X130302000Y-86487000D02*
X130302000Y-105283000D01*
X126238000Y-105283000D02*
X126238000Y-86487000D01*
X121920000Y-84963000D02*
X122174000Y-84709000D01*
X122174000Y-84709000D02*
X123190000Y-84709000D01*
X123190000Y-84709000D02*
X124206000Y-84709000D01*
X124206000Y-84709000D02*
X124460000Y-84963000D01*
X121920000Y-86360000D02*
X121920000Y-85090000D01*
X124460000Y-86360000D02*
X124460000Y-85090000D01*
X123190000Y-84836000D02*
X123190000Y-85344000D01*
X125222000Y-86487000D02*
X121158000Y-86487000D01*
X125222000Y-105283000D02*
X121158000Y-105283000D01*
X125222000Y-86487000D02*
X125222000Y-105283000D01*
X121158000Y-105283000D02*
X121158000Y-86487000D01*
X110955000Y-108590000D02*
X110955000Y-108475000D01*
X115105000Y-108590000D02*
X115105000Y-108475000D01*
X115105000Y-99690000D02*
X115105000Y-99805000D01*
X110955000Y-99690000D02*
X110955000Y-99805000D01*
X110955000Y-108590000D02*
X115105000Y-108590000D01*
X110955000Y-99690000D02*
X115105000Y-99690000D01*
X110955000Y-108475000D02*
X109580000Y-108475000D01*
X98890000Y-108590000D02*
X98890000Y-108475000D01*
X103040000Y-108590000D02*
X103040000Y-108475000D01*
X103040000Y-99690000D02*
X103040000Y-99805000D01*
X98890000Y-99690000D02*
X98890000Y-99805000D01*
X98890000Y-108590000D02*
X103040000Y-108590000D01*
X98890000Y-99690000D02*
X103040000Y-99690000D01*
X98890000Y-108475000D02*
X97515000Y-108475000D01*
X137286905Y-104862381D02*
X137286905Y-105671905D01*
X137239286Y-105767143D01*
X137191667Y-105814762D01*
X137096429Y-105862381D01*
X136905952Y-105862381D01*
X136810714Y-105814762D01*
X136763095Y-105767143D01*
X136715476Y-105671905D01*
X136715476Y-104862381D01*
X135715476Y-105862381D02*
X136286905Y-105862381D01*
X136001191Y-105862381D02*
X136001191Y-104862381D01*
X136096429Y-105005238D01*
X136191667Y-105100476D01*
X136286905Y-105148095D01*
X106783143Y-106513334D02*
X106830762Y-106465715D01*
X106878381Y-106322858D01*
X106878381Y-106227620D01*
X106830762Y-106084762D01*
X106735524Y-105989524D01*
X106640286Y-105941905D01*
X106449810Y-105894286D01*
X106306952Y-105894286D01*
X106116476Y-105941905D01*
X106021238Y-105989524D01*
X105926000Y-106084762D01*
X105878381Y-106227620D01*
X105878381Y-106322858D01*
X105926000Y-106465715D01*
X105973619Y-106513334D01*
X105973619Y-106894286D02*
X105926000Y-106941905D01*
X105878381Y-107037143D01*
X105878381Y-107275239D01*
X105926000Y-107370477D01*
X105973619Y-107418096D01*
X106068857Y-107465715D01*
X106164095Y-107465715D01*
X106306952Y-107418096D01*
X106878381Y-106846667D01*
X106878381Y-107465715D01*
X106402143Y-98258334D02*
X106449762Y-98210715D01*
X106497381Y-98067858D01*
X106497381Y-97972620D01*
X106449762Y-97829762D01*
X106354524Y-97734524D01*
X106259286Y-97686905D01*
X106068810Y-97639286D01*
X105925952Y-97639286D01*
X105735476Y-97686905D01*
X105640238Y-97734524D01*
X105545000Y-97829762D01*
X105497381Y-97972620D01*
X105497381Y-98067858D01*
X105545000Y-98210715D01*
X105592619Y-98258334D01*
X105497381Y-98591667D02*
X105497381Y-99210715D01*
X105878333Y-98877381D01*
X105878333Y-99020239D01*
X105925952Y-99115477D01*
X105973571Y-99163096D01*
X106068810Y-99210715D01*
X106306905Y-99210715D01*
X106402143Y-99163096D01*
X106449762Y-99115477D01*
X106497381Y-99020239D01*
X106497381Y-98734524D01*
X106449762Y-98639286D01*
X106402143Y-98591667D01*
X96242143Y-108418334D02*
X96289762Y-108370715D01*
X96337381Y-108227858D01*
X96337381Y-108132620D01*
X96289762Y-107989762D01*
X96194524Y-107894524D01*
X96099286Y-107846905D01*
X95908810Y-107799286D01*
X95765952Y-107799286D01*
X95575476Y-107846905D01*
X95480238Y-107894524D01*
X95385000Y-107989762D01*
X95337381Y-108132620D01*
X95337381Y-108227858D01*
X95385000Y-108370715D01*
X95432619Y-108418334D01*
X95670714Y-109275477D02*
X96337381Y-109275477D01*
X95289762Y-109037381D02*
X96004048Y-108799286D01*
X96004048Y-109418334D01*
X65142381Y-106053905D02*
X64142381Y-106053905D01*
X64142381Y-106292000D01*
X64190000Y-106434858D01*
X64285238Y-106530096D01*
X64380476Y-106577715D01*
X64570952Y-106625334D01*
X64713810Y-106625334D01*
X64904286Y-106577715D01*
X64999524Y-106530096D01*
X65094762Y-106434858D01*
X65142381Y-106292000D01*
X65142381Y-106053905D01*
X64475714Y-107482477D02*
X65142381Y-107482477D01*
X64094762Y-107244381D02*
X64809048Y-107006286D01*
X64809048Y-107625334D01*
X65952619Y-95789762D02*
X65905000Y-95694524D01*
X65809762Y-95599286D01*
X65666905Y-95456429D01*
X65619286Y-95361190D01*
X65619286Y-95265952D01*
X65857381Y-95313571D02*
X65809762Y-95218333D01*
X65714524Y-95123095D01*
X65524048Y-95075476D01*
X65190714Y-95075476D01*
X65000238Y-95123095D01*
X64905000Y-95218333D01*
X64857381Y-95313571D01*
X64857381Y-95504048D01*
X64905000Y-95599286D01*
X65000238Y-95694524D01*
X65190714Y-95742143D01*
X65524048Y-95742143D01*
X65714524Y-95694524D01*
X65809762Y-95599286D01*
X65857381Y-95504048D01*
X65857381Y-95313571D01*
X65857381Y-96694524D02*
X65857381Y-96123095D01*
X65857381Y-96408809D02*
X64857381Y-96408809D01*
X65000238Y-96313571D01*
X65095476Y-96218333D01*
X65143095Y-96123095D01*
X69762619Y-88804762D02*
X69715000Y-88709524D01*
X69619762Y-88614286D01*
X69476905Y-88471429D01*
X69429286Y-88376190D01*
X69429286Y-88280952D01*
X69667381Y-88328571D02*
X69619762Y-88233333D01*
X69524524Y-88138095D01*
X69334048Y-88090476D01*
X69000714Y-88090476D01*
X68810238Y-88138095D01*
X68715000Y-88233333D01*
X68667381Y-88328571D01*
X68667381Y-88519048D01*
X68715000Y-88614286D01*
X68810238Y-88709524D01*
X69000714Y-88757143D01*
X69334048Y-88757143D01*
X69524524Y-88709524D01*
X69619762Y-88614286D01*
X69667381Y-88519048D01*
X69667381Y-88328571D01*
X68762619Y-89138095D02*
X68715000Y-89185714D01*
X68667381Y-89280952D01*
X68667381Y-89519048D01*
X68715000Y-89614286D01*
X68762619Y-89661905D01*
X68857857Y-89709524D01*
X68953095Y-89709524D01*
X69095952Y-89661905D01*
X69667381Y-89090476D01*
X69667381Y-89709524D01*
X129706666Y-114244381D02*
X130040000Y-113768190D01*
X130278095Y-114244381D02*
X130278095Y-113244381D01*
X129897142Y-113244381D01*
X129801904Y-113292000D01*
X129754285Y-113339619D01*
X129706666Y-113434857D01*
X129706666Y-113577714D01*
X129754285Y-113672952D01*
X129801904Y-113720571D01*
X129897142Y-113768190D01*
X130278095Y-113768190D01*
X129325714Y-113339619D02*
X129278095Y-113292000D01*
X129182857Y-113244381D01*
X128944761Y-113244381D01*
X128849523Y-113292000D01*
X128801904Y-113339619D01*
X128754285Y-113434857D01*
X128754285Y-113530095D01*
X128801904Y-113672952D01*
X129373333Y-114244381D01*
X128754285Y-114244381D01*
X127801666Y-107132381D02*
X128135000Y-106656190D01*
X128373095Y-107132381D02*
X128373095Y-106132381D01*
X127992142Y-106132381D01*
X127896904Y-106180000D01*
X127849285Y-106227619D01*
X127801666Y-106322857D01*
X127801666Y-106465714D01*
X127849285Y-106560952D01*
X127896904Y-106608571D01*
X127992142Y-106656190D01*
X128373095Y-106656190D01*
X127468333Y-106132381D02*
X126849285Y-106132381D01*
X127182619Y-106513333D01*
X127039761Y-106513333D01*
X126944523Y-106560952D01*
X126896904Y-106608571D01*
X126849285Y-106703810D01*
X126849285Y-106941905D01*
X126896904Y-107037143D01*
X126944523Y-107084762D01*
X127039761Y-107132381D01*
X127325476Y-107132381D01*
X127420714Y-107084762D01*
X127468333Y-107037143D01*
X123356666Y-113482381D02*
X123690000Y-113006190D01*
X123928095Y-113482381D02*
X123928095Y-112482381D01*
X123547142Y-112482381D01*
X123451904Y-112530000D01*
X123404285Y-112577619D01*
X123356666Y-112672857D01*
X123356666Y-112815714D01*
X123404285Y-112910952D01*
X123451904Y-112958571D01*
X123547142Y-113006190D01*
X123928095Y-113006190D01*
X122499523Y-112815714D02*
X122499523Y-113482381D01*
X122737619Y-112434762D02*
X122975714Y-113149048D01*
X122356666Y-113149048D01*
X94432381Y-108418334D02*
X93956190Y-108085000D01*
X94432381Y-107846905D02*
X93432381Y-107846905D01*
X93432381Y-108227858D01*
X93480000Y-108323096D01*
X93527619Y-108370715D01*
X93622857Y-108418334D01*
X93765714Y-108418334D01*
X93860952Y-108370715D01*
X93908571Y-108323096D01*
X93956190Y-108227858D01*
X93956190Y-107846905D01*
X93432381Y-109323096D02*
X93432381Y-108846905D01*
X93908571Y-108799286D01*
X93860952Y-108846905D01*
X93813333Y-108942143D01*
X93813333Y-109180239D01*
X93860952Y-109275477D01*
X93908571Y-109323096D01*
X94003810Y-109370715D01*
X94241905Y-109370715D01*
X94337143Y-109323096D01*
X94384762Y-109275477D01*
X94432381Y-109180239D01*
X94432381Y-108942143D01*
X94384762Y-108846905D01*
X94337143Y-108799286D01*
X70016666Y-93162381D02*
X70350000Y-92686190D01*
X70588095Y-93162381D02*
X70588095Y-92162381D01*
X70207142Y-92162381D01*
X70111904Y-92210000D01*
X70064285Y-92257619D01*
X70016666Y-92352857D01*
X70016666Y-92495714D01*
X70064285Y-92590952D01*
X70111904Y-92638571D01*
X70207142Y-92686190D01*
X70588095Y-92686190D01*
X69159523Y-92162381D02*
X69350000Y-92162381D01*
X69445238Y-92210000D01*
X69492857Y-92257619D01*
X69588095Y-92400476D01*
X69635714Y-92590952D01*
X69635714Y-92971905D01*
X69588095Y-93067143D01*
X69540476Y-93114762D01*
X69445238Y-93162381D01*
X69254761Y-93162381D01*
X69159523Y-93114762D01*
X69111904Y-93067143D01*
X69064285Y-92971905D01*
X69064285Y-92733810D01*
X69111904Y-92638571D01*
X69159523Y-92590952D01*
X69254761Y-92543333D01*
X69445238Y-92543333D01*
X69540476Y-92590952D01*
X69588095Y-92638571D01*
X69635714Y-92733810D01*
X77922381Y-90003334D02*
X77446190Y-89670000D01*
X77922381Y-89431905D02*
X76922381Y-89431905D01*
X76922381Y-89812858D01*
X76970000Y-89908096D01*
X77017619Y-89955715D01*
X77112857Y-90003334D01*
X77255714Y-90003334D01*
X77350952Y-89955715D01*
X77398571Y-89908096D01*
X77446190Y-89812858D01*
X77446190Y-89431905D01*
X76922381Y-90336667D02*
X76922381Y-91003334D01*
X77922381Y-90574762D01*
X70937381Y-96353334D02*
X70461190Y-96020000D01*
X70937381Y-95781905D02*
X69937381Y-95781905D01*
X69937381Y-96162858D01*
X69985000Y-96258096D01*
X70032619Y-96305715D01*
X70127857Y-96353334D01*
X70270714Y-96353334D01*
X70365952Y-96305715D01*
X70413571Y-96258096D01*
X70461190Y-96162858D01*
X70461190Y-95781905D01*
X70365952Y-96924762D02*
X70318333Y-96829524D01*
X70270714Y-96781905D01*
X70175476Y-96734286D01*
X70127857Y-96734286D01*
X70032619Y-96781905D01*
X69985000Y-96829524D01*
X69937381Y-96924762D01*
X69937381Y-97115239D01*
X69985000Y-97210477D01*
X70032619Y-97258096D01*
X70127857Y-97305715D01*
X70175476Y-97305715D01*
X70270714Y-97258096D01*
X70318333Y-97210477D01*
X70365952Y-97115239D01*
X70365952Y-96924762D01*
X70413571Y-96829524D01*
X70461190Y-96781905D01*
X70556429Y-96734286D01*
X70746905Y-96734286D01*
X70842143Y-96781905D01*
X70889762Y-96829524D01*
X70937381Y-96924762D01*
X70937381Y-97115239D01*
X70889762Y-97210477D01*
X70842143Y-97258096D01*
X70746905Y-97305715D01*
X70556429Y-97305715D01*
X70461190Y-97258096D01*
X70413571Y-97210477D01*
X70365952Y-97115239D01*
X128666905Y-110712381D02*
X128666905Y-111521905D01*
X128619286Y-111617143D01*
X128571667Y-111664762D01*
X128476429Y-111712381D01*
X128285952Y-111712381D01*
X128190714Y-111664762D01*
X128143095Y-111617143D01*
X128095476Y-111521905D01*
X128095476Y-110712381D01*
X127666905Y-110807619D02*
X127619286Y-110760000D01*
X127524048Y-110712381D01*
X127285952Y-110712381D01*
X127190714Y-110760000D01*
X127143095Y-110807619D01*
X127095476Y-110902857D01*
X127095476Y-110998095D01*
X127143095Y-111140952D01*
X127714524Y-111712381D01*
X127095476Y-111712381D01*
X125499762Y-105346667D02*
X125547381Y-105489524D01*
X125547381Y-105727620D01*
X125499762Y-105822858D01*
X125452143Y-105870477D01*
X125356905Y-105918096D01*
X125261667Y-105918096D01*
X125166429Y-105870477D01*
X125118810Y-105822858D01*
X125071190Y-105727620D01*
X125023571Y-105537143D01*
X124975952Y-105441905D01*
X124928333Y-105394286D01*
X124833095Y-105346667D01*
X124737857Y-105346667D01*
X124642619Y-105394286D01*
X124595000Y-105441905D01*
X124547381Y-105537143D01*
X124547381Y-105775239D01*
X124595000Y-105918096D01*
X124547381Y-106251429D02*
X125547381Y-106489524D01*
X124833095Y-106680001D01*
X125547381Y-106870477D01*
X124547381Y-107108572D01*
X125547381Y-108013334D02*
X125547381Y-107441905D01*
X125547381Y-107727619D02*
X124547381Y-107727619D01*
X124690238Y-107632381D01*
X124785476Y-107537143D01*
X124833095Y-107441905D01*
X65142381Y-98321905D02*
X64142381Y-98321905D01*
X64142381Y-98560000D01*
X64190000Y-98702858D01*
X64285238Y-98798096D01*
X64380476Y-98845715D01*
X64570952Y-98893334D01*
X64713810Y-98893334D01*
X64904286Y-98845715D01*
X64999524Y-98798096D01*
X65094762Y-98702858D01*
X65142381Y-98560000D01*
X65142381Y-98321905D01*
X64142381Y-99226667D02*
X64142381Y-99893334D01*
X65142381Y-99464762D01*
X96242143Y-98258334D02*
X96289762Y-98210715D01*
X96337381Y-98067858D01*
X96337381Y-97972620D01*
X96289762Y-97829762D01*
X96194524Y-97734524D01*
X96099286Y-97686905D01*
X95908810Y-97639286D01*
X95765952Y-97639286D01*
X95575476Y-97686905D01*
X95480238Y-97734524D01*
X95385000Y-97829762D01*
X95337381Y-97972620D01*
X95337381Y-98067858D01*
X95385000Y-98210715D01*
X95432619Y-98258334D01*
X95337381Y-99163096D02*
X95337381Y-98686905D01*
X95813571Y-98639286D01*
X95765952Y-98686905D01*
X95718333Y-98782143D01*
X95718333Y-99020239D01*
X95765952Y-99115477D01*
X95813571Y-99163096D01*
X95908810Y-99210715D01*
X96146905Y-99210715D01*
X96242143Y-99163096D01*
X96289762Y-99115477D01*
X96337381Y-99020239D01*
X96337381Y-98782143D01*
X96289762Y-98686905D01*
X96242143Y-98639286D01*
X108307143Y-98258334D02*
X108354762Y-98210715D01*
X108402381Y-98067858D01*
X108402381Y-97972620D01*
X108354762Y-97829762D01*
X108259524Y-97734524D01*
X108164286Y-97686905D01*
X107973810Y-97639286D01*
X107830952Y-97639286D01*
X107640476Y-97686905D01*
X107545238Y-97734524D01*
X107450000Y-97829762D01*
X107402381Y-97972620D01*
X107402381Y-98067858D01*
X107450000Y-98210715D01*
X107497619Y-98258334D01*
X107402381Y-99115477D02*
X107402381Y-98925000D01*
X107450000Y-98829762D01*
X107497619Y-98782143D01*
X107640476Y-98686905D01*
X107830952Y-98639286D01*
X108211905Y-98639286D01*
X108307143Y-98686905D01*
X108354762Y-98734524D01*
X108402381Y-98829762D01*
X108402381Y-99020239D01*
X108354762Y-99115477D01*
X108307143Y-99163096D01*
X108211905Y-99210715D01*
X107973810Y-99210715D01*
X107878571Y-99163096D01*
X107830952Y-99115477D01*
X107783333Y-99020239D01*
X107783333Y-98829762D01*
X107830952Y-98734524D01*
X107878571Y-98686905D01*
X107973810Y-98639286D01*
X134977143Y-93813334D02*
X135024762Y-93765715D01*
X135072381Y-93622858D01*
X135072381Y-93527620D01*
X135024762Y-93384762D01*
X134929524Y-93289524D01*
X134834286Y-93241905D01*
X134643810Y-93194286D01*
X134500952Y-93194286D01*
X134310476Y-93241905D01*
X134215238Y-93289524D01*
X134120000Y-93384762D01*
X134072381Y-93527620D01*
X134072381Y-93622858D01*
X134120000Y-93765715D01*
X134167619Y-93813334D01*
X135072381Y-94765715D02*
X135072381Y-94194286D01*
X135072381Y-94480000D02*
X134072381Y-94480000D01*
X134215238Y-94384762D01*
X134310476Y-94289524D01*
X134358095Y-94194286D01*
X75287143Y-102703334D02*
X75334762Y-102655715D01*
X75382381Y-102512858D01*
X75382381Y-102417620D01*
X75334762Y-102274762D01*
X75239524Y-102179524D01*
X75144286Y-102131905D01*
X74953810Y-102084286D01*
X74810952Y-102084286D01*
X74620476Y-102131905D01*
X74525238Y-102179524D01*
X74430000Y-102274762D01*
X74382381Y-102417620D01*
X74382381Y-102512858D01*
X74430000Y-102655715D01*
X74477619Y-102703334D01*
X74382381Y-103036667D02*
X74382381Y-103703334D01*
X75382381Y-103274762D01*
X136342381Y-108481905D02*
X135342381Y-108481905D01*
X135342381Y-108720000D01*
X135390000Y-108862858D01*
X135485238Y-108958096D01*
X135580476Y-109005715D01*
X135770952Y-109053334D01*
X135913810Y-109053334D01*
X136104286Y-109005715D01*
X136199524Y-108958096D01*
X136294762Y-108862858D01*
X136342381Y-108720000D01*
X136342381Y-108481905D01*
X136342381Y-110005715D02*
X136342381Y-109434286D01*
X136342381Y-109720000D02*
X135342381Y-109720000D01*
X135485238Y-109624762D01*
X135580476Y-109529524D01*
X135628095Y-109434286D01*
X70556381Y-102385905D02*
X69556381Y-102385905D01*
X69556381Y-102624000D01*
X69604000Y-102766858D01*
X69699238Y-102862096D01*
X69794476Y-102909715D01*
X69984952Y-102957334D01*
X70127810Y-102957334D01*
X70318286Y-102909715D01*
X70413524Y-102862096D01*
X70508762Y-102766858D01*
X70556381Y-102624000D01*
X70556381Y-102385905D01*
X69651619Y-103338286D02*
X69604000Y-103385905D01*
X69556381Y-103481143D01*
X69556381Y-103719239D01*
X69604000Y-103814477D01*
X69651619Y-103862096D01*
X69746857Y-103909715D01*
X69842095Y-103909715D01*
X69984952Y-103862096D01*
X70556381Y-103290667D01*
X70556381Y-103909715D01*
X120753095Y-116657381D02*
X120753095Y-115657381D01*
X120372142Y-115657381D01*
X120276904Y-115705000D01*
X120229285Y-115752619D01*
X120181666Y-115847857D01*
X120181666Y-115990714D01*
X120229285Y-116085952D01*
X120276904Y-116133571D01*
X120372142Y-116181190D01*
X120753095Y-116181190D01*
X119229285Y-116657381D02*
X119800714Y-116657381D01*
X119515000Y-116657381D02*
X119515000Y-115657381D01*
X119610238Y-115800238D01*
X119705476Y-115895476D01*
X119800714Y-115943095D01*
X100433095Y-114117381D02*
X100433095Y-113117381D01*
X100052142Y-113117381D01*
X99956904Y-113165000D01*
X99909285Y-113212619D01*
X99861666Y-113307857D01*
X99861666Y-113450714D01*
X99909285Y-113545952D01*
X99956904Y-113593571D01*
X100052142Y-113641190D01*
X100433095Y-113641190D01*
X99480714Y-113212619D02*
X99433095Y-113165000D01*
X99337857Y-113117381D01*
X99099761Y-113117381D01*
X99004523Y-113165000D01*
X98956904Y-113212619D01*
X98909285Y-113307857D01*
X98909285Y-113403095D01*
X98956904Y-113545952D01*
X99528333Y-114117381D01*
X98909285Y-114117381D01*
X129008095Y-119832381D02*
X129008095Y-118832381D01*
X128627142Y-118832381D01*
X128531904Y-118880000D01*
X128484285Y-118927619D01*
X128436666Y-119022857D01*
X128436666Y-119165714D01*
X128484285Y-119260952D01*
X128531904Y-119308571D01*
X128627142Y-119356190D01*
X129008095Y-119356190D01*
X128103333Y-118832381D02*
X127484285Y-118832381D01*
X127817619Y-119213333D01*
X127674761Y-119213333D01*
X127579523Y-119260952D01*
X127531904Y-119308571D01*
X127484285Y-119403810D01*
X127484285Y-119641905D01*
X127531904Y-119737143D01*
X127579523Y-119784762D01*
X127674761Y-119832381D01*
X127960476Y-119832381D01*
X128055714Y-119784762D01*
X128103333Y-119737143D01*
X119197381Y-104036905D02*
X118197381Y-104036905D01*
X118197381Y-104417858D01*
X118245000Y-104513096D01*
X118292619Y-104560715D01*
X118387857Y-104608334D01*
X118530714Y-104608334D01*
X118625952Y-104560715D01*
X118673571Y-104513096D01*
X118721190Y-104417858D01*
X118721190Y-104036905D01*
X118530714Y-105465477D02*
X119197381Y-105465477D01*
X118149762Y-105227381D02*
X118864048Y-104989286D01*
X118864048Y-105608334D01*
X119483095Y-111577381D02*
X119483095Y-110577381D01*
X119102142Y-110577381D01*
X119006904Y-110625000D01*
X118959285Y-110672619D01*
X118911666Y-110767857D01*
X118911666Y-110910714D01*
X118959285Y-111005952D01*
X119006904Y-111053571D01*
X119102142Y-111101190D01*
X119483095Y-111101190D01*
X118006904Y-110577381D02*
X118483095Y-110577381D01*
X118530714Y-111053571D01*
X118483095Y-111005952D01*
X118387857Y-110958333D01*
X118149761Y-110958333D01*
X118054523Y-111005952D01*
X118006904Y-111053571D01*
X117959285Y-111148810D01*
X117959285Y-111386905D01*
X118006904Y-111482143D01*
X118054523Y-111529762D01*
X118149761Y-111577381D01*
X118387857Y-111577381D01*
X118483095Y-111529762D01*
X118530714Y-111482143D01*
X108053095Y-114371381D02*
X108053095Y-113371381D01*
X107672142Y-113371381D01*
X107576904Y-113419000D01*
X107529285Y-113466619D01*
X107481666Y-113561857D01*
X107481666Y-113704714D01*
X107529285Y-113799952D01*
X107576904Y-113847571D01*
X107672142Y-113895190D01*
X108053095Y-113895190D01*
X106624523Y-113371381D02*
X106815000Y-113371381D01*
X106910238Y-113419000D01*
X106957857Y-113466619D01*
X107053095Y-113609476D01*
X107100714Y-113799952D01*
X107100714Y-114180905D01*
X107053095Y-114276143D01*
X107005476Y-114323762D01*
X106910238Y-114371381D01*
X106719761Y-114371381D01*
X106624523Y-114323762D01*
X106576904Y-114276143D01*
X106529285Y-114180905D01*
X106529285Y-113942810D01*
X106576904Y-113847571D01*
X106624523Y-113799952D01*
X106719761Y-113752333D01*
X106910238Y-113752333D01*
X107005476Y-113799952D01*
X107053095Y-113847571D01*
X107100714Y-113942810D01*
X101703095Y-96972381D02*
X101703095Y-95972381D01*
X101322142Y-95972381D01*
X101226904Y-96020000D01*
X101179285Y-96067619D01*
X101131666Y-96162857D01*
X101131666Y-96305714D01*
X101179285Y-96400952D01*
X101226904Y-96448571D01*
X101322142Y-96496190D01*
X101703095Y-96496190D01*
X100798333Y-95972381D02*
X100131666Y-95972381D01*
X100560238Y-96972381D01*
X60777381Y-92606905D02*
X59777381Y-92606905D01*
X59777381Y-92987858D01*
X59825000Y-93083096D01*
X59872619Y-93130715D01*
X59967857Y-93178334D01*
X60110714Y-93178334D01*
X60205952Y-93130715D01*
X60253571Y-93083096D01*
X60301190Y-92987858D01*
X60301190Y-92606905D01*
X60205952Y-93749762D02*
X60158333Y-93654524D01*
X60110714Y-93606905D01*
X60015476Y-93559286D01*
X59967857Y-93559286D01*
X59872619Y-93606905D01*
X59825000Y-93654524D01*
X59777381Y-93749762D01*
X59777381Y-93940239D01*
X59825000Y-94035477D01*
X59872619Y-94083096D01*
X59967857Y-94130715D01*
X60015476Y-94130715D01*
X60110714Y-94083096D01*
X60158333Y-94035477D01*
X60205952Y-93940239D01*
X60205952Y-93749762D01*
X60253571Y-93654524D01*
X60301190Y-93606905D01*
X60396429Y-93559286D01*
X60586905Y-93559286D01*
X60682143Y-93606905D01*
X60729762Y-93654524D01*
X60777381Y-93749762D01*
X60777381Y-93940239D01*
X60729762Y-94035477D01*
X60682143Y-94083096D01*
X60586905Y-94130715D01*
X60396429Y-94130715D01*
X60301190Y-94083096D01*
X60253571Y-94035477D01*
X60205952Y-93940239D01*
X71858095Y-113482381D02*
X71858095Y-112482381D01*
X71477142Y-112482381D01*
X71381904Y-112530000D01*
X71334285Y-112577619D01*
X71286666Y-112672857D01*
X71286666Y-112815714D01*
X71334285Y-112910952D01*
X71381904Y-112958571D01*
X71477142Y-113006190D01*
X71858095Y-113006190D01*
X70810476Y-113482381D02*
X70620000Y-113482381D01*
X70524761Y-113434762D01*
X70477142Y-113387143D01*
X70381904Y-113244286D01*
X70334285Y-113053810D01*
X70334285Y-112672857D01*
X70381904Y-112577619D01*
X70429523Y-112530000D01*
X70524761Y-112482381D01*
X70715238Y-112482381D01*
X70810476Y-112530000D01*
X70858095Y-112577619D01*
X70905714Y-112672857D01*
X70905714Y-112910952D01*
X70858095Y-113006190D01*
X70810476Y-113053810D01*
X70715238Y-113101429D01*
X70524761Y-113101429D01*
X70429523Y-113053810D01*
X70381904Y-113006190D01*
X70334285Y-112910952D01*
X63444286Y-86812381D02*
X63444286Y-85812381D01*
X63063333Y-85812381D01*
X62968095Y-85860000D01*
X62920476Y-85907619D01*
X62872857Y-86002857D01*
X62872857Y-86145714D01*
X62920476Y-86240952D01*
X62968095Y-86288571D01*
X63063333Y-86336190D01*
X63444286Y-86336190D01*
X61920476Y-86812381D02*
X62491905Y-86812381D01*
X62206191Y-86812381D02*
X62206191Y-85812381D01*
X62301429Y-85955238D01*
X62396667Y-86050476D01*
X62491905Y-86098095D01*
X61301429Y-85812381D02*
X61206190Y-85812381D01*
X61110952Y-85860000D01*
X61063333Y-85907619D01*
X61015714Y-86002857D01*
X60968095Y-86193333D01*
X60968095Y-86431429D01*
X61015714Y-86621905D01*
X61063333Y-86717143D01*
X61110952Y-86764762D01*
X61206190Y-86812381D01*
X61301429Y-86812381D01*
X61396667Y-86764762D01*
X61444286Y-86717143D01*
X61491905Y-86621905D01*
X61539524Y-86431429D01*
X61539524Y-86193333D01*
X61491905Y-86002857D01*
X61444286Y-85907619D01*
X61396667Y-85860000D01*
X61301429Y-85812381D01*
X56967381Y-107370714D02*
X55967381Y-107370714D01*
X55967381Y-107751667D01*
X56015000Y-107846905D01*
X56062619Y-107894524D01*
X56157857Y-107942143D01*
X56300714Y-107942143D01*
X56395952Y-107894524D01*
X56443571Y-107846905D01*
X56491190Y-107751667D01*
X56491190Y-107370714D01*
X56967381Y-108894524D02*
X56967381Y-108323095D01*
X56967381Y-108608809D02*
X55967381Y-108608809D01*
X56110238Y-108513571D01*
X56205476Y-108418333D01*
X56253095Y-108323095D01*
X56967381Y-109846905D02*
X56967381Y-109275476D01*
X56967381Y-109561190D02*
X55967381Y-109561190D01*
X56110238Y-109465952D01*
X56205476Y-109370714D01*
X56253095Y-109275476D01*
X79192381Y-94670714D02*
X78192381Y-94670714D01*
X78192381Y-95051667D01*
X78240000Y-95146905D01*
X78287619Y-95194524D01*
X78382857Y-95242143D01*
X78525714Y-95242143D01*
X78620952Y-95194524D01*
X78668571Y-95146905D01*
X78716190Y-95051667D01*
X78716190Y-94670714D01*
X79192381Y-96194524D02*
X79192381Y-95623095D01*
X79192381Y-95908809D02*
X78192381Y-95908809D01*
X78335238Y-95813571D01*
X78430476Y-95718333D01*
X78478095Y-95623095D01*
X78287619Y-96575476D02*
X78240000Y-96623095D01*
X78192381Y-96718333D01*
X78192381Y-96956429D01*
X78240000Y-97051667D01*
X78287619Y-97099286D01*
X78382857Y-97146905D01*
X78478095Y-97146905D01*
X78620952Y-97099286D01*
X79192381Y-96527857D01*
X79192381Y-97146905D01*
X70651666Y-109672381D02*
X70985000Y-109196190D01*
X71223095Y-109672381D02*
X71223095Y-108672381D01*
X70842142Y-108672381D01*
X70746904Y-108720000D01*
X70699285Y-108767619D01*
X70651666Y-108862857D01*
X70651666Y-109005714D01*
X70699285Y-109100952D01*
X70746904Y-109148571D01*
X70842142Y-109196190D01*
X71223095Y-109196190D01*
X69699285Y-109672381D02*
X70270714Y-109672381D01*
X69985000Y-109672381D02*
X69985000Y-108672381D01*
X70080238Y-108815238D01*
X70175476Y-108910476D01*
X70270714Y-108958095D01*
X67135476Y-118062381D02*
X67468810Y-117586190D01*
X67706905Y-118062381D02*
X67706905Y-117062381D01*
X67325952Y-117062381D01*
X67230714Y-117110000D01*
X67183095Y-117157619D01*
X67135476Y-117252857D01*
X67135476Y-117395714D01*
X67183095Y-117490952D01*
X67230714Y-117538571D01*
X67325952Y-117586190D01*
X67706905Y-117586190D01*
X66659286Y-118062381D02*
X66468810Y-118062381D01*
X66373571Y-118014762D01*
X66325952Y-117967143D01*
X66230714Y-117824286D01*
X66183095Y-117633810D01*
X66183095Y-117252857D01*
X66230714Y-117157619D01*
X66278333Y-117110000D01*
X66373571Y-117062381D01*
X66564048Y-117062381D01*
X66659286Y-117110000D01*
X66706905Y-117157619D01*
X66754524Y-117252857D01*
X66754524Y-117490952D01*
X66706905Y-117586190D01*
X66659286Y-117633810D01*
X66564048Y-117681429D01*
X66373571Y-117681429D01*
X66278333Y-117633810D01*
X66230714Y-117586190D01*
X66183095Y-117490952D01*
X128722381Y-98464762D02*
X128246190Y-98131428D01*
X128722381Y-97893333D02*
X127722381Y-97893333D01*
X127722381Y-98274286D01*
X127770000Y-98369524D01*
X127817619Y-98417143D01*
X127912857Y-98464762D01*
X128055714Y-98464762D01*
X128150952Y-98417143D01*
X128198571Y-98369524D01*
X128246190Y-98274286D01*
X128246190Y-97893333D01*
X127722381Y-98750476D02*
X128722381Y-99083809D01*
X127722381Y-99417143D01*
X128722381Y-100274286D02*
X128722381Y-99702857D01*
X128722381Y-99988571D02*
X127722381Y-99988571D01*
X127865238Y-99893333D01*
X127960476Y-99798095D01*
X128008095Y-99702857D01*
X123642381Y-98464762D02*
X123166190Y-98131428D01*
X123642381Y-97893333D02*
X122642381Y-97893333D01*
X122642381Y-98274286D01*
X122690000Y-98369524D01*
X122737619Y-98417143D01*
X122832857Y-98464762D01*
X122975714Y-98464762D01*
X123070952Y-98417143D01*
X123118571Y-98369524D01*
X123166190Y-98274286D01*
X123166190Y-97893333D01*
X122642381Y-98750476D02*
X123642381Y-99083809D01*
X122642381Y-99417143D01*
X122737619Y-99702857D02*
X122690000Y-99750476D01*
X122642381Y-99845714D01*
X122642381Y-100083810D01*
X122690000Y-100179048D01*
X122737619Y-100226667D01*
X122832857Y-100274286D01*
X122928095Y-100274286D01*
X123070952Y-100226667D01*
X123642381Y-99655238D01*
X123642381Y-100274286D01*
X113791905Y-108967381D02*
X113791905Y-109776905D01*
X113744286Y-109872143D01*
X113696667Y-109919762D01*
X113601429Y-109967381D01*
X113410952Y-109967381D01*
X113315714Y-109919762D01*
X113268095Y-109872143D01*
X113220476Y-109776905D01*
X113220476Y-108967381D01*
X112839524Y-108967381D02*
X112220476Y-108967381D01*
X112553810Y-109348333D01*
X112410952Y-109348333D01*
X112315714Y-109395952D01*
X112268095Y-109443571D01*
X112220476Y-109538810D01*
X112220476Y-109776905D01*
X112268095Y-109872143D01*
X112315714Y-109919762D01*
X112410952Y-109967381D01*
X112696667Y-109967381D01*
X112791905Y-109919762D01*
X112839524Y-109872143D01*
X101726905Y-108967381D02*
X101726905Y-109776905D01*
X101679286Y-109872143D01*
X101631667Y-109919762D01*
X101536429Y-109967381D01*
X101345952Y-109967381D01*
X101250714Y-109919762D01*
X101203095Y-109872143D01*
X101155476Y-109776905D01*
X101155476Y-108967381D01*
X100250714Y-109300714D02*
X100250714Y-109967381D01*
X100488810Y-108919762D02*
X100726905Y-109634048D01*
X100107857Y-109634048D01*
X73051905Y-88072381D02*
X73051905Y-87072381D01*
X72813810Y-87072381D01*
X72670952Y-87120000D01*
X72575714Y-87215238D01*
X72528095Y-87310476D01*
X72480476Y-87500952D01*
X72480476Y-87643810D01*
X72528095Y-87834286D01*
X72575714Y-87929524D01*
X72670952Y-88024762D01*
X72813810Y-88072381D01*
X73051905Y-88072381D01*
X71575714Y-87072381D02*
X72051905Y-87072381D01*
X72099524Y-87548571D01*
X72051905Y-87500952D01*
X71956667Y-87453333D01*
X71718571Y-87453333D01*
X71623333Y-87500952D01*
X71575714Y-87548571D01*
X71528095Y-87643810D01*
X71528095Y-87881905D01*
X71575714Y-87977143D01*
X71623333Y-88024762D01*
X71718571Y-88072381D01*
X71956667Y-88072381D01*
X72051905Y-88024762D01*
X72099524Y-87977143D01*
X70246905Y-91392381D02*
X70246905Y-90392381D01*
X70008810Y-90392381D01*
X69865952Y-90440000D01*
X69770714Y-90535238D01*
X69723095Y-90630476D01*
X69675476Y-90820952D01*
X69675476Y-90963810D01*
X69723095Y-91154286D01*
X69770714Y-91249524D01*
X69865952Y-91344762D01*
X70008810Y-91392381D01*
X70246905Y-91392381D01*
X68818333Y-90392381D02*
X69008810Y-90392381D01*
X69104048Y-90440000D01*
X69151667Y-90487619D01*
X69246905Y-90630476D01*
X69294524Y-90820952D01*
X69294524Y-91201905D01*
X69246905Y-91297143D01*
X69199286Y-91344762D01*
X69104048Y-91392381D01*
X68913571Y-91392381D01*
X68818333Y-91344762D01*
X68770714Y-91297143D01*
X68723095Y-91201905D01*
X68723095Y-90963810D01*
X68770714Y-90868571D01*
X68818333Y-90820952D01*
X68913571Y-90773333D01*
X69104048Y-90773333D01*
X69199286Y-90820952D01*
X69246905Y-90868571D01*
X69294524Y-90963810D01*
%LPC*%
D19*
X138616000Y-99544120D03*
X138616000Y-101941880D03*
X138616000Y-104692700D03*
X138616000Y-96793300D03*
D20*
X135941380Y-99442520D03*
D21*
X135941380Y-100095300D03*
X135941380Y-100743000D03*
X135941380Y-101390700D03*
X135941380Y-102043480D03*
D22*
X136469700Y-102640380D03*
X136467160Y-98843080D03*
D23*
X107950000Y-107431840D03*
X107950000Y-105928160D03*
X106045000Y-101716840D03*
X106045000Y-100213160D03*
X95885000Y-106796840D03*
X95885000Y-105293160D03*
D24*
X60626000Y-105268000D03*
D25*
X60626000Y-107808000D03*
D26*
X67310000Y-97155000D03*
X67310000Y-95885000D03*
X67310000Y-94615000D03*
X67310000Y-88900000D03*
X67310000Y-90170000D03*
X67310000Y-91440000D03*
D27*
X130291840Y-112395000D03*
X128788160Y-112395000D03*
X130926840Y-106680000D03*
X129423160Y-106680000D03*
X124978160Y-112395000D03*
X126481840Y-112395000D03*
D23*
X93980000Y-106796840D03*
X93980000Y-105293160D03*
D27*
X71638160Y-92710000D03*
X73141840Y-92710000D03*
D23*
X75565000Y-90921840D03*
X75565000Y-89418160D03*
D28*
X72390000Y-97917000D03*
X72390000Y-95123000D03*
D29*
X129748100Y-108220000D03*
X129748100Y-108720000D03*
X129748100Y-109220000D03*
X129748100Y-109720000D03*
X129748100Y-110220000D03*
X125521900Y-110220000D03*
X125521900Y-109720000D03*
X125521900Y-109220000D03*
X125521900Y-108720000D03*
X125521900Y-108220000D03*
D30*
X122555000Y-107950000D03*
D31*
X120015000Y-107950000D03*
D24*
X60626000Y-97805000D03*
D25*
X60626000Y-100345000D03*
D23*
X95885000Y-101716840D03*
X95885000Y-100213160D03*
X107950000Y-101716840D03*
X107950000Y-100213160D03*
D32*
X132715000Y-97409000D03*
X132715000Y-94361000D03*
X72390000Y-104394000D03*
X72390000Y-101346000D03*
D33*
X133000000Y-111760000D03*
X133000000Y-109220000D03*
X133000000Y-106680000D03*
D24*
X66040000Y-101600000D03*
D25*
X66040000Y-104140000D03*
D30*
X127635000Y-116205000D03*
D31*
X125095000Y-116205000D03*
X122555000Y-116205000D03*
D34*
X99695000Y-111760000D03*
X102235000Y-111760000D03*
X123825000Y-119380000D03*
X126365000Y-119380000D03*
X118745000Y-100330000D03*
X118745000Y-102870000D03*
X123190000Y-111125000D03*
X120650000Y-111125000D03*
D30*
X106045000Y-111760000D03*
D31*
X108585000Y-111760000D03*
D34*
X99695000Y-97790000D03*
X102235000Y-97790000D03*
D35*
X62230000Y-93345000D03*
D36*
X62230000Y-90805000D03*
D30*
X66040000Y-113030000D03*
D31*
X68580000Y-113030000D03*
D34*
X67310000Y-86360000D03*
X64770000Y-86360000D03*
X55245000Y-105410000D03*
X55245000Y-107950000D03*
D35*
X76200000Y-94615000D03*
D36*
X76200000Y-97155000D03*
D37*
X65913000Y-109220000D03*
X68707000Y-109220000D03*
D38*
X62865000Y-117475000D03*
X73025000Y-117475000D03*
D33*
X129540000Y-89789000D03*
X127000000Y-94869000D03*
X129540000Y-102235000D03*
X124460000Y-89789000D03*
X121920000Y-94869000D03*
X124460000Y-102235000D03*
D39*
X110330000Y-107950000D03*
X110330000Y-106680000D03*
X110330000Y-105410000D03*
X110330000Y-104140000D03*
X110330000Y-102870000D03*
X110330000Y-101600000D03*
X110330000Y-100330000D03*
X115730000Y-100330000D03*
X115730000Y-101600000D03*
X115730000Y-102870000D03*
X115730000Y-104140000D03*
X115730000Y-105410000D03*
X115730000Y-106680000D03*
X115730000Y-107950000D03*
X98265000Y-107950000D03*
X98265000Y-106680000D03*
X98265000Y-105410000D03*
X98265000Y-104140000D03*
X98265000Y-102870000D03*
X98265000Y-101600000D03*
X98265000Y-100330000D03*
X103665000Y-100330000D03*
X103665000Y-101600000D03*
X103665000Y-102870000D03*
X103665000Y-104140000D03*
X103665000Y-105410000D03*
X103665000Y-106680000D03*
X103665000Y-107950000D03*
D40*
X73490000Y-88900000D03*
X71290000Y-88900000D03*
X71290000Y-90805000D03*
X73490000Y-90805000D03*
M02*
