M48
INCH,TZ
T1C0.014
T2C0.020
T3C0.030
T4C0.031
T5C0.032
T6C0.039
%
G90
G05
T1
X20950Y-40650
X21350Y-43750
X22250Y-39450
X22350Y-38100
X22550Y-36950
X22550Y-40450
X22700Y-43950
X24150Y-44250
X24950Y-45350
X25400Y-37150
X25400Y-38250
X25954Y-36646
X26950Y-39100
X27500Y-36050
X27500Y-39550
X27550Y-38550
X27550Y-41450
X27700Y-37200
X29000Y-43850
X30250Y-44400
X30300Y-36000
X30600Y-41600
X30800Y-36000
X31050Y-37000
X31200Y-39950
X31350Y-36000
X32000Y-37800
X32250Y-37000
X32300Y-35950
X32500Y-38600
X32500Y-41750
X32750Y-47050
X32800Y-33750
X33050Y-45750
X33100Y-40750
X33650Y-37050
X33700Y-35150
X33750Y-35950
X33900Y-38450
X34400Y-40300
X34550Y-33900
X34650Y-37000
X34650Y-45550
X34700Y-44550
X34850Y-46800
X34950Y-35850
X35050Y-41850
X35250Y-40600
X35400Y-35150
X35400Y-36950
X35550Y-43450
X35700Y-38150
X35850Y-44950
X36050Y-36900
X36100Y-35950
X36250Y-34000
X36300Y-42100
X36400Y-40250
X36850Y-34950
X37050Y-36950
X37100Y-38150
X37100Y-43950
X37100Y-46850
X37250Y-36000
X37900Y-45500
X37950Y-33900
X38000Y-37000
X38200Y-38900
X38200Y-46750
X38350Y-36000
X38600Y-38250
X38750Y-37450
X38900Y-35300
X39250Y-39550
X39300Y-36300
X39500Y-41700
X39550Y-45700
X39600Y-33950
X39850Y-36900
X39950Y-35700
X40000Y-39900
X40050Y-47050
X40600Y-37600
X40850Y-39110
X40950Y-38500
X41150Y-34150
X41150Y-38050
X41200Y-35550
X41200Y-45650
X42000Y-41000
X42050Y-47000
X42100Y-38050
X42150Y-34400
X42300Y-35750
X42650Y-45600
X42900Y-34800
X43031Y-38850
X43500Y-36150
X43650Y-38050
X44000Y-35700
X44000Y-41500
X44050Y-39800
X44100Y-42000
X44100Y-44850
X44462Y-40462
X44800Y-34050
X44900Y-43800
X45100Y-38650
X45100Y-46050
X45700Y-34350
X45700Y-44300
X46100Y-37500
X46200Y-39950
X46250Y-40950
X46288Y-38688
X46500Y-46700
X47400Y-38000
X47850Y-46800
X48000Y-40000
X48050Y-34500
X48800Y-36700
X48900Y-34550
X49900Y-43800
X50150Y-34500
X50750Y-36300
X50850Y-37650
X51000Y-43700
X51100Y-37000
X51100Y-38700
X51250Y-34450
X52800Y-40200
X53500Y-43650
X53700Y-42350
X54100Y-43000
T2
X21750Y-41500
X21750Y-42500
X25500Y-34000
X26500Y-34000
X39250Y-38500
X39250Y-44000
X40250Y-38500
X40250Y-44000
X46750Y-39500
X46750Y-40500
X47500Y-43750
X48500Y-43750
X48750Y-47000
X49750Y-47000
T3
X48000Y-37350
X49000Y-35350
X49000Y-40250
X50000Y-37350
X51000Y-35350
X51000Y-40250
X52362Y-42000
X52362Y-43000
X52362Y-44000
T4
X26500Y-35000
X26500Y-35500
X26500Y-36000
X26500Y-37250
X26500Y-37750
X26500Y-38250
T5
X24750Y-46250
X28750Y-46250
T6
X23869Y-38506
X23869Y-39506
X23869Y-41444
X23869Y-42444
X24500Y-35750
X24500Y-36750
X26000Y-40000
X26000Y-41000
X26000Y-44500
X27000Y-44500
X30000Y-37250
X30000Y-38250
X41750Y-44000
X42750Y-44000
X47250Y-42500
X48250Y-42500
X48250Y-45750
X49250Y-45750
X50250Y-45750
T0
M30
