%TF.GenerationSoftware,KiCad,Pcbnew,(2015-12-30 BZR 6409)-product*%
%TF.CreationDate,2016-01-04T10:25:45+01:00*%
%TF.ProjectId,transmitter,7472616E736D69747465722E6B696361,rev?*%
%TF.FileFunction,Legend,Top*%
%FSLAX46Y46*%
G04 Gerber Fmt 4.6, Leading zero omitted, Abs format (unit mm)*
G04 Created by KiCad (PCBNEW (2015-12-30 BZR 6409)-product) date pon, 4 sty 2016, 10:25:45*
%MOMM*%
G01*
G04 APERTURE LIST*
%ADD10C,0.100000*%
%ADD11C,0.300000*%
%ADD12C,0.381000*%
%ADD13C,0.152400*%
%ADD14C,1.197560*%
%ADD15R,2.400000X2.300000*%
%ADD16C,2.300000*%
%ADD17O,2.600000X1.500000*%
%ADD18R,1.924000X2.599640*%
%ADD19O,1.924000X2.599640*%
%ADD20C,1.924000*%
%ADD21C,1.416000*%
%ADD22R,2.599640X1.924000*%
%ADD23O,2.599640X1.924000*%
%ADD24C,1.720800*%
G04 APERTURE END LIST*
D10*
D11*
X54288571Y-108548572D02*
X54288571Y-107977143D01*
X55288571Y-108334286D02*
X54002857Y-108334286D01*
X53860000Y-108262858D01*
X53788571Y-108120000D01*
X53788571Y-107977143D01*
X55288571Y-106834286D02*
X54502857Y-106834286D01*
X54360000Y-106905715D01*
X54288571Y-107048572D01*
X54288571Y-107334286D01*
X54360000Y-107477143D01*
X55217143Y-106834286D02*
X55288571Y-106977143D01*
X55288571Y-107334286D01*
X55217143Y-107477143D01*
X55074286Y-107548572D01*
X54931429Y-107548572D01*
X54788571Y-107477143D01*
X54717143Y-107334286D01*
X54717143Y-106977143D01*
X54645714Y-106834286D01*
X55217143Y-105477143D02*
X55288571Y-105620000D01*
X55288571Y-105905714D01*
X55217143Y-106048572D01*
X55145714Y-106120000D01*
X55002857Y-106191429D01*
X54574286Y-106191429D01*
X54431429Y-106120000D01*
X54360000Y-106048572D01*
X54288571Y-105905714D01*
X54288571Y-105620000D01*
X54360000Y-105477143D01*
X55288571Y-104834286D02*
X54288571Y-104834286D01*
X53788571Y-104834286D02*
X53860000Y-104905715D01*
X53931429Y-104834286D01*
X53860000Y-104762858D01*
X53788571Y-104834286D01*
X53931429Y-104834286D01*
X54288571Y-104120000D02*
X55288571Y-104120000D01*
X54431429Y-104120000D02*
X54360000Y-104048572D01*
X54288571Y-103905714D01*
X54288571Y-103691429D01*
X54360000Y-103548572D01*
X54502857Y-103477143D01*
X55288571Y-103477143D01*
X54288571Y-102120000D02*
X55502857Y-102120000D01*
X55645714Y-102191429D01*
X55717143Y-102262857D01*
X55788571Y-102405714D01*
X55788571Y-102620000D01*
X55717143Y-102762857D01*
X55217143Y-102120000D02*
X55288571Y-102262857D01*
X55288571Y-102548571D01*
X55217143Y-102691429D01*
X55145714Y-102762857D01*
X55002857Y-102834286D01*
X54574286Y-102834286D01*
X54431429Y-102762857D01*
X54360000Y-102691429D01*
X54288571Y-102548571D01*
X54288571Y-102262857D01*
X54360000Y-102120000D01*
X55217143Y-100334286D02*
X55288571Y-100191429D01*
X55288571Y-99905714D01*
X55217143Y-99762857D01*
X55074286Y-99691429D01*
X55002857Y-99691429D01*
X54860000Y-99762857D01*
X54788571Y-99905714D01*
X54788571Y-100120000D01*
X54717143Y-100262857D01*
X54574286Y-100334286D01*
X54502857Y-100334286D01*
X54360000Y-100262857D01*
X54288571Y-100120000D01*
X54288571Y-99905714D01*
X54360000Y-99762857D01*
X55288571Y-99048571D02*
X53788571Y-99048571D01*
X54717143Y-98905714D02*
X55288571Y-98477143D01*
X54288571Y-98477143D02*
X54860000Y-99048571D01*
X54288571Y-97977142D02*
X55288571Y-97619999D01*
X54288571Y-97262857D02*
X55288571Y-97619999D01*
X55645714Y-97762857D01*
X55717143Y-97834285D01*
X55788571Y-97977142D01*
D12*
X67310000Y-98425000D02*
X67310000Y-93345000D01*
X67310000Y-98425000D02*
X66040000Y-97790000D01*
X66040000Y-97790000D02*
X66040000Y-93980000D01*
X66040000Y-93980000D02*
X67310000Y-93345000D01*
X67310000Y-98425000D02*
G75*
G03X69850000Y-95885000I0J2540000D01*
G01*
X69850000Y-95885000D02*
G75*
G03X67310000Y-93345000I-2540000J0D01*
G01*
X67310000Y-87630000D02*
X67310000Y-92710000D01*
X67310000Y-87630000D02*
X68580000Y-88265000D01*
X68580000Y-88265000D02*
X68580000Y-92075000D01*
X68580000Y-92075000D02*
X67310000Y-92710000D01*
X67310000Y-87630000D02*
G75*
G03X64770000Y-90170000I0J-2540000D01*
G01*
X64770000Y-90170000D02*
G75*
G03X67310000Y-92710000I2540000J0D01*
G01*
D13*
X65024000Y-116332000D02*
G75*
G03X64770000Y-116586000I0J-254000D01*
G01*
X65024000Y-118618000D02*
G75*
G02X64770000Y-118364000I0J254000D01*
G01*
X71120000Y-118364000D02*
G75*
G02X70866000Y-118618000I-254000J0D01*
G01*
X71120000Y-116586000D02*
G75*
G03X70866000Y-116332000I-254000J0D01*
G01*
X64770000Y-118364000D02*
X64770000Y-116586000D01*
X65024000Y-116332000D02*
X65405000Y-116332000D01*
X65532000Y-116459000D02*
X65405000Y-116332000D01*
X65024000Y-118618000D02*
X65405000Y-118618000D01*
X65532000Y-118491000D02*
X65405000Y-118618000D01*
X70358000Y-116459000D02*
X70485000Y-116332000D01*
X70358000Y-116459000D02*
X65532000Y-116459000D01*
X70358000Y-118491000D02*
X70485000Y-118618000D01*
X70358000Y-118491000D02*
X65532000Y-118491000D01*
X70866000Y-116332000D02*
X70485000Y-116332000D01*
X70866000Y-118618000D02*
X70485000Y-118618000D01*
X71120000Y-118364000D02*
X71120000Y-116586000D01*
D10*
G36*
X71120000Y-117779800D02*
X71983600Y-117779800D01*
X71983600Y-117170200D01*
X71120000Y-117170200D01*
X71120000Y-117779800D01*
G37*
G36*
X63906400Y-117779800D02*
X64770000Y-117779800D01*
X64770000Y-117170200D01*
X63906400Y-117170200D01*
X63906400Y-117779800D01*
G37*
%LPC*%
D14*
X136469700Y-102640380D03*
X136467160Y-98843080D03*
D15*
X60626000Y-105268000D03*
D16*
X60626000Y-107808000D03*
D17*
X67310000Y-97155000D03*
X67310000Y-95885000D03*
X67310000Y-94615000D03*
X67310000Y-88900000D03*
X67310000Y-90170000D03*
X67310000Y-91440000D03*
D18*
X122555000Y-107950000D03*
D19*
X120015000Y-107950000D03*
D15*
X60626000Y-97805000D03*
D16*
X60626000Y-100345000D03*
D20*
X133000000Y-111760000D03*
X133000000Y-109220000D03*
X133000000Y-106680000D03*
D15*
X66040000Y-101600000D03*
D16*
X66040000Y-104140000D03*
D18*
X127635000Y-116205000D03*
D19*
X125095000Y-116205000D03*
X122555000Y-116205000D03*
D21*
X99695000Y-111760000D03*
X102235000Y-111760000D03*
X123825000Y-119380000D03*
X126365000Y-119380000D03*
X118745000Y-100330000D03*
X118745000Y-102870000D03*
X123190000Y-111125000D03*
X120650000Y-111125000D03*
D18*
X106045000Y-111760000D03*
D19*
X108585000Y-111760000D03*
D21*
X99695000Y-97790000D03*
X102235000Y-97790000D03*
D22*
X62230000Y-93345000D03*
D23*
X62230000Y-90805000D03*
D18*
X66040000Y-113030000D03*
D19*
X68580000Y-113030000D03*
D21*
X67310000Y-86360000D03*
X64770000Y-86360000D03*
X55245000Y-105410000D03*
X55245000Y-107950000D03*
D22*
X76200000Y-94615000D03*
D23*
X76200000Y-97155000D03*
D24*
X62865000Y-117475000D03*
X73025000Y-117475000D03*
D20*
X129540000Y-89789000D03*
X127000000Y-94869000D03*
X129540000Y-102235000D03*
X124460000Y-89789000D03*
X121920000Y-94869000D03*
X124460000Y-102235000D03*
M02*
