%TF.GenerationSoftware,KiCad,Pcbnew,no-vcs-found-7613~57~ubuntu16.10.1*%
%TF.CreationDate,2017-03-07T09:53:51+01:00*%
%TF.ProjectId,gp8-clock,6770382D636C6F636B2E6B696361645F,rev?*%
%TF.FileFunction,Soldermask,Top*%
%TF.FilePolarity,Negative*%
%FSLAX46Y46*%
G04 Gerber Fmt 4.6, Leading zero omitted, Abs format (unit mm)*
G04 Created by KiCad (PCBNEW no-vcs-found-7613~57~ubuntu16.10.1) date Tue Mar  7 09:53:51 2017*
%MOMM*%
%LPD*%
G01*
G04 APERTURE LIST*
%ADD10C,0.100000*%
%ADD11C,6.000000*%
%ADD12R,1.750000X1.750000*%
%ADD13O,1.700000X2.200000*%
%ADD14R,1.700000X2.200000*%
%ADD15C,1.924000*%
%ADD16R,2.599640X1.924000*%
%ADD17O,2.599640X1.924000*%
%ADD18C,1.197560*%
%ADD19C,1.416000*%
%ADD20C,1.800000*%
%ADD21C,2.400000*%
%ADD22R,2.000000X1.800000*%
%ADD23R,1.924000X2.599640*%
%ADD24O,1.924000X2.599640*%
%ADD25C,2.398980*%
G04 APERTURE END LIST*
D10*
D11*
X169773600Y-124637800D03*
X169773600Y-80365600D03*
X133756400Y-80416400D03*
X133731000Y-124637800D03*
D12*
X190500000Y-125730000D03*
X190500000Y-79375000D03*
X139700000Y-79375000D03*
X164465000Y-79375000D03*
X164465000Y-125730000D03*
X113665000Y-125730000D03*
X139700000Y-125730000D03*
X113665000Y-79375000D03*
D13*
X183594000Y-81026000D03*
X181594000Y-81026000D03*
X179594000Y-81026000D03*
D14*
X177594000Y-81026000D03*
X151686000Y-81534000D03*
D13*
X153686000Y-81534000D03*
X155686000Y-81534000D03*
X157686000Y-81534000D03*
D15*
X155904000Y-90011000D03*
X153364000Y-90011000D03*
X150824000Y-90011000D03*
X148284000Y-90011000D03*
X145744000Y-90011000D03*
X143204000Y-90011000D03*
X140664000Y-90011000D03*
X138124000Y-90011000D03*
X135584000Y-90011000D03*
X133044000Y-90011000D03*
X130504000Y-90011000D03*
X127964000Y-90011000D03*
X125424000Y-90011000D03*
X122884000Y-90011000D03*
X120344000Y-90011000D03*
X117804000Y-90011000D03*
X173414000Y-101711000D03*
X173414000Y-104251000D03*
D16*
X103854000Y-104251000D03*
D17*
X103854000Y-101711000D03*
X103854000Y-99171000D03*
D18*
X200393300Y-104386380D03*
X200390760Y-100589080D03*
D16*
X178308000Y-100076000D03*
D17*
X178308000Y-102616000D03*
X178308000Y-105156000D03*
D19*
X150114000Y-93472000D03*
X152654000Y-93472000D03*
X192024000Y-105664000D03*
X194564000Y-105664000D03*
X192024000Y-108458000D03*
X194564000Y-108458000D03*
D20*
X176530000Y-109376000D03*
X176530000Y-112776000D03*
D21*
X186055000Y-115580160D03*
X186055000Y-123179840D03*
D22*
X180730000Y-92238000D03*
X172330000Y-92238000D03*
X172330000Y-94488000D03*
X172330000Y-96738000D03*
X180730000Y-96738000D03*
D23*
X183642000Y-106172000D03*
D24*
X186182000Y-106172000D03*
D25*
X145161000Y-106426000D03*
X150241000Y-106426000D03*
M02*
