%TF.GenerationSoftware,KiCad,Pcbnew,no-vcs-found-7613~57~ubuntu16.10.1*%
%TF.CreationDate,2017-03-07T09:53:51+01:00*%
%TF.ProjectId,gp8-clock,6770382D636C6F636B2E6B696361645F,rev?*%
%TF.FileFunction,Legend,Bot*%
%TF.FilePolarity,Positive*%
%FSLAX46Y46*%
G04 Gerber Fmt 4.6, Leading zero omitted, Abs format (unit mm)*
G04 Created by KiCad (PCBNEW no-vcs-found-7613~57~ubuntu16.10.1) date Tue Mar  7 09:53:51 2017*
%MOMM*%
%LPD*%
G01*
G04 APERTURE LIST*
%ADD10C,0.100000*%
%ADD11C,0.127000*%
%ADD12C,0.300000*%
%ADD13C,0.050800*%
%ADD14C,0.203200*%
%ADD15C,0.120000*%
%ADD16C,0.304800*%
%ADD17C,0.149860*%
%ADD18C,0.200660*%
%ADD19C,0.150000*%
%ADD20C,0.254000*%
%ADD21C,0.101600*%
%ADD22R,0.600000X1.300000*%
%ADD23R,1.299160X1.400760*%
%ADD24C,6.000000*%
%ADD25R,1.750000X1.750000*%
%ADD26O,1.700000X2.200000*%
%ADD27R,1.700000X2.200000*%
%ADD28R,1.400760X1.299160*%
%ADD29R,0.999440X1.400760*%
%ADD30C,1.924000*%
%ADD31R,1.898600X1.700480*%
%ADD32R,1.700480X1.898600*%
%ADD33R,1.400760X0.999440*%
%ADD34R,2.599640X1.924000*%
%ADD35O,2.599640X1.924000*%
%ADD36R,1.700480X0.699720*%
%ADD37R,0.699720X1.700480*%
%ADD38R,2.297380X2.297380*%
%ADD39R,1.748740X0.798780*%
%ADD40R,1.746200X0.798780*%
%ADD41C,1.197560*%
%ADD42R,1.400000X0.650000*%
%ADD43R,2.899360X2.350720*%
%ADD44C,1.416000*%
%ADD45C,1.800000*%
%ADD46C,2.400000*%
%ADD47R,1.924000X2.599640*%
%ADD48O,1.924000X2.599640*%
%ADD49C,2.398980*%
G04 APERTURE END LIST*
D10*
D11*
X183170285Y-79719714D02*
X183847619Y-79719714D01*
X183267047Y-79719714D02*
X183218666Y-79671333D01*
X183170285Y-79574571D01*
X183170285Y-79429428D01*
X183218666Y-79332666D01*
X183315428Y-79284285D01*
X183847619Y-79284285D01*
X183847619Y-78800476D02*
X183170285Y-78800476D01*
X183363809Y-78800476D02*
X183267047Y-78752095D01*
X183218666Y-78703714D01*
X183170285Y-78606952D01*
X183170285Y-78510190D01*
X183799238Y-78219904D02*
X183847619Y-78123142D01*
X183847619Y-77929619D01*
X183799238Y-77832857D01*
X183702476Y-77784476D01*
X183654095Y-77784476D01*
X183557333Y-77832857D01*
X183508952Y-77929619D01*
X183508952Y-78074761D01*
X183460571Y-78171523D01*
X183363809Y-78219904D01*
X183315428Y-78219904D01*
X183218666Y-78171523D01*
X183170285Y-78074761D01*
X183170285Y-77929619D01*
X183218666Y-77832857D01*
X183170285Y-77494190D02*
X183170285Y-77107142D01*
X182831619Y-77349047D02*
X183702476Y-77349047D01*
X183799238Y-77300666D01*
X183847619Y-77203904D01*
X183847619Y-77107142D01*
X181392285Y-79187523D02*
X182214761Y-79187523D01*
X182311523Y-79235904D01*
X182359904Y-79284285D01*
X182408285Y-79381047D01*
X182408285Y-79526190D01*
X182359904Y-79622952D01*
X182021238Y-79187523D02*
X182069619Y-79284285D01*
X182069619Y-79477809D01*
X182021238Y-79574571D01*
X181972857Y-79622952D01*
X181876095Y-79671333D01*
X181585809Y-79671333D01*
X181489047Y-79622952D01*
X181440666Y-79574571D01*
X181392285Y-79477809D01*
X181392285Y-79284285D01*
X181440666Y-79187523D01*
X181392285Y-78703714D02*
X182069619Y-78703714D01*
X181489047Y-78703714D02*
X181440666Y-78655333D01*
X181392285Y-78558571D01*
X181392285Y-78413428D01*
X181440666Y-78316666D01*
X181537428Y-78268285D01*
X182069619Y-78268285D01*
X182069619Y-77349047D02*
X181053619Y-77349047D01*
X182021238Y-77349047D02*
X182069619Y-77445809D01*
X182069619Y-77639333D01*
X182021238Y-77736095D01*
X181972857Y-77784476D01*
X181876095Y-77832857D01*
X181585809Y-77832857D01*
X181489047Y-77784476D01*
X181440666Y-77736095D01*
X181392285Y-77639333D01*
X181392285Y-77445809D01*
X181440666Y-77349047D01*
X180037619Y-78969809D02*
X179360285Y-78969809D01*
X179553809Y-78969809D02*
X179457047Y-78921428D01*
X179408666Y-78873047D01*
X179360285Y-78776285D01*
X179360285Y-78679523D01*
X180037619Y-78437619D02*
X179360285Y-77905428D01*
X179360285Y-78437619D02*
X180037619Y-77905428D01*
X177074285Y-79090761D02*
X177074285Y-78703714D01*
X176735619Y-78945619D02*
X177606476Y-78945619D01*
X177703238Y-78897238D01*
X177751619Y-78800476D01*
X177751619Y-78703714D01*
X177751619Y-78461809D02*
X177074285Y-77929619D01*
X177074285Y-78461809D02*
X177751619Y-77929619D01*
D12*
X125555428Y-96436571D02*
X126412571Y-96436571D01*
X125984000Y-96436571D02*
X125984000Y-94936571D01*
X126126857Y-95150857D01*
X126269714Y-95293714D01*
X126412571Y-95365142D01*
X180419428Y-101794571D02*
X181276571Y-101794571D01*
X180848000Y-103294571D02*
X180848000Y-101794571D01*
D11*
X158145238Y-79429428D02*
X158193619Y-79526190D01*
X158193619Y-79719714D01*
X158145238Y-79816476D01*
X158096857Y-79864857D01*
X158000095Y-79913238D01*
X157709809Y-79913238D01*
X157613047Y-79864857D01*
X157564666Y-79816476D01*
X157516285Y-79719714D01*
X157516285Y-79526190D01*
X157564666Y-79429428D01*
X158193619Y-78848857D02*
X158145238Y-78945619D01*
X158048476Y-78994000D01*
X157177619Y-78994000D01*
X158193619Y-78461809D02*
X157177619Y-78461809D01*
X157806571Y-78365047D02*
X158193619Y-78074761D01*
X157516285Y-78074761D02*
X157903333Y-78461809D01*
X155230285Y-79441523D02*
X156052761Y-79441523D01*
X156149523Y-79489904D01*
X156197904Y-79538285D01*
X156246285Y-79635047D01*
X156246285Y-79780190D01*
X156197904Y-79876952D01*
X155859238Y-79441523D02*
X155907619Y-79538285D01*
X155907619Y-79731809D01*
X155859238Y-79828571D01*
X155810857Y-79876952D01*
X155714095Y-79925333D01*
X155423809Y-79925333D01*
X155327047Y-79876952D01*
X155278666Y-79828571D01*
X155230285Y-79731809D01*
X155230285Y-79538285D01*
X155278666Y-79441523D01*
X155230285Y-78957714D02*
X155907619Y-78957714D01*
X155327047Y-78957714D02*
X155278666Y-78909333D01*
X155230285Y-78812571D01*
X155230285Y-78667428D01*
X155278666Y-78570666D01*
X155375428Y-78522285D01*
X155907619Y-78522285D01*
X155907619Y-77603047D02*
X154891619Y-77603047D01*
X155859238Y-77603047D02*
X155907619Y-77699809D01*
X155907619Y-77893333D01*
X155859238Y-77990095D01*
X155810857Y-78038476D01*
X155714095Y-78086857D01*
X155423809Y-78086857D01*
X155327047Y-78038476D01*
X155278666Y-77990095D01*
X155230285Y-77893333D01*
X155230285Y-77699809D01*
X155278666Y-77603047D01*
X153621619Y-79199619D02*
X152944285Y-79199619D01*
X152605619Y-79199619D02*
X152654000Y-79248000D01*
X152702380Y-79199619D01*
X152654000Y-79151238D01*
X152605619Y-79199619D01*
X152702380Y-79199619D01*
X153621619Y-78570666D02*
X153573238Y-78667428D01*
X153524857Y-78715809D01*
X153428095Y-78764190D01*
X153137809Y-78764190D01*
X153041047Y-78715809D01*
X152992666Y-78667428D01*
X152944285Y-78570666D01*
X152944285Y-78425523D01*
X152992666Y-78328761D01*
X153041047Y-78280380D01*
X153137809Y-78232000D01*
X153428095Y-78232000D01*
X153524857Y-78280380D01*
X153573238Y-78328761D01*
X153621619Y-78425523D01*
X153621619Y-78570666D01*
X150827619Y-79949523D02*
X150827619Y-79320571D01*
X151214666Y-79659238D01*
X151214666Y-79514095D01*
X151263047Y-79417333D01*
X151311428Y-79368952D01*
X151408190Y-79320571D01*
X151650095Y-79320571D01*
X151746857Y-79368952D01*
X151795238Y-79417333D01*
X151843619Y-79514095D01*
X151843619Y-79804380D01*
X151795238Y-79901142D01*
X151746857Y-79949523D01*
X151166285Y-78981904D02*
X151843619Y-78740000D01*
X151166285Y-78498095D01*
X150827619Y-78207809D02*
X150827619Y-77578857D01*
X151214666Y-77917523D01*
X151214666Y-77772380D01*
X151263047Y-77675619D01*
X151311428Y-77627238D01*
X151408190Y-77578857D01*
X151650095Y-77578857D01*
X151746857Y-77627238D01*
X151795238Y-77675619D01*
X151843619Y-77772380D01*
X151843619Y-78062666D01*
X151795238Y-78159428D01*
X151746857Y-78207809D01*
D12*
X180276571Y-98659142D02*
X181419428Y-98659142D01*
X180848000Y-99230571D02*
X180848000Y-98087714D01*
X180276571Y-106279142D02*
X181419428Y-106279142D01*
X126495000Y-80958571D02*
X125923571Y-80958571D01*
X126280714Y-81958571D02*
X126280714Y-80672857D01*
X126209285Y-80530000D01*
X126066428Y-80458571D01*
X125923571Y-80458571D01*
X124780714Y-81958571D02*
X124780714Y-81172857D01*
X124852142Y-81030000D01*
X124995000Y-80958571D01*
X125280714Y-80958571D01*
X125423571Y-81030000D01*
X124780714Y-81887142D02*
X124923571Y-81958571D01*
X125280714Y-81958571D01*
X125423571Y-81887142D01*
X125495000Y-81744285D01*
X125495000Y-81601428D01*
X125423571Y-81458571D01*
X125280714Y-81387142D01*
X124923571Y-81387142D01*
X124780714Y-81315714D01*
X123423571Y-81887142D02*
X123566428Y-81958571D01*
X123852142Y-81958571D01*
X123995000Y-81887142D01*
X124066428Y-81815714D01*
X124137857Y-81672857D01*
X124137857Y-81244285D01*
X124066428Y-81101428D01*
X123995000Y-81030000D01*
X123852142Y-80958571D01*
X123566428Y-80958571D01*
X123423571Y-81030000D01*
X122780714Y-81958571D02*
X122780714Y-80958571D01*
X122780714Y-80458571D02*
X122852142Y-80530000D01*
X122780714Y-80601428D01*
X122709285Y-80530000D01*
X122780714Y-80458571D01*
X122780714Y-80601428D01*
X122066428Y-80958571D02*
X122066428Y-81958571D01*
X122066428Y-81101428D02*
X121995000Y-81030000D01*
X121852142Y-80958571D01*
X121637857Y-80958571D01*
X121495000Y-81030000D01*
X121423571Y-81172857D01*
X121423571Y-81958571D01*
X120066428Y-80958571D02*
X120066428Y-82172857D01*
X120137857Y-82315714D01*
X120209285Y-82387142D01*
X120352142Y-82458571D01*
X120566428Y-82458571D01*
X120709285Y-82387142D01*
X120066428Y-81887142D02*
X120209285Y-81958571D01*
X120495000Y-81958571D01*
X120637857Y-81887142D01*
X120709285Y-81815714D01*
X120780714Y-81672857D01*
X120780714Y-81244285D01*
X120709285Y-81101428D01*
X120637857Y-81030000D01*
X120495000Y-80958571D01*
X120209285Y-80958571D01*
X120066428Y-81030000D01*
X117566428Y-80958571D02*
X117566428Y-82172857D01*
X117637857Y-82315714D01*
X117709285Y-82387142D01*
X117852142Y-82458571D01*
X118066428Y-82458571D01*
X118209285Y-82387142D01*
X117566428Y-81887142D02*
X117709285Y-81958571D01*
X117995000Y-81958571D01*
X118137857Y-81887142D01*
X118209285Y-81815714D01*
X118280714Y-81672857D01*
X118280714Y-81244285D01*
X118209285Y-81101428D01*
X118137857Y-81030000D01*
X117995000Y-80958571D01*
X117709285Y-80958571D01*
X117566428Y-81030000D01*
X116852142Y-81958571D02*
X116852142Y-80958571D01*
X116852142Y-81244285D02*
X116780714Y-81101428D01*
X116709285Y-81030000D01*
X116566428Y-80958571D01*
X116423571Y-80958571D01*
X115709285Y-81958571D02*
X115852142Y-81887142D01*
X115923571Y-81815714D01*
X115995000Y-81672857D01*
X115995000Y-81244285D01*
X115923571Y-81101428D01*
X115852142Y-81030000D01*
X115709285Y-80958571D01*
X115495000Y-80958571D01*
X115352142Y-81030000D01*
X115280714Y-81101428D01*
X115209285Y-81244285D01*
X115209285Y-81672857D01*
X115280714Y-81815714D01*
X115352142Y-81887142D01*
X115495000Y-81958571D01*
X115709285Y-81958571D01*
X113923571Y-80958571D02*
X113923571Y-81958571D01*
X114566428Y-80958571D02*
X114566428Y-81744285D01*
X114495000Y-81887142D01*
X114352142Y-81958571D01*
X114137857Y-81958571D01*
X113995000Y-81887142D01*
X113923571Y-81815714D01*
X113209285Y-80958571D02*
X113209285Y-81958571D01*
X113209285Y-81101428D02*
X113137857Y-81030000D01*
X112995000Y-80958571D01*
X112780714Y-80958571D01*
X112637857Y-81030000D01*
X112566428Y-81172857D01*
X112566428Y-81958571D01*
X111209285Y-81958571D02*
X111209285Y-80458571D01*
X111209285Y-81887142D02*
X111352142Y-81958571D01*
X111637857Y-81958571D01*
X111780714Y-81887142D01*
X111852142Y-81815714D01*
X111923571Y-81672857D01*
X111923571Y-81244285D01*
X111852142Y-81101428D01*
X111780714Y-81030000D01*
X111637857Y-80958571D01*
X111352142Y-80958571D01*
X111209285Y-81030000D01*
D13*
X121321285Y-86183409D02*
X121321285Y-85844742D01*
X121321285Y-85893123D02*
X121297095Y-85868933D01*
X121248714Y-85844742D01*
X121176142Y-85844742D01*
X121127761Y-85868933D01*
X121103571Y-85917314D01*
X121103571Y-86183409D01*
X121103571Y-85917314D02*
X121079380Y-85868933D01*
X121031000Y-85844742D01*
X120958428Y-85844742D01*
X120910047Y-85868933D01*
X120885857Y-85917314D01*
X120885857Y-86183409D01*
X120571380Y-86183409D02*
X120619761Y-86159219D01*
X120643952Y-86135028D01*
X120668142Y-86086647D01*
X120668142Y-85941504D01*
X120643952Y-85893123D01*
X120619761Y-85868933D01*
X120571380Y-85844742D01*
X120498809Y-85844742D01*
X120450428Y-85868933D01*
X120426238Y-85893123D01*
X120402047Y-85941504D01*
X120402047Y-86086647D01*
X120426238Y-86135028D01*
X120450428Y-86159219D01*
X120498809Y-86183409D01*
X120571380Y-86183409D01*
X120256904Y-85844742D02*
X120063380Y-85844742D01*
X120184333Y-85675409D02*
X120184333Y-86110838D01*
X120160142Y-86159219D01*
X120111761Y-86183409D01*
X120063380Y-86183409D01*
X119821476Y-86183409D02*
X119869857Y-86159219D01*
X119894047Y-86135028D01*
X119918238Y-86086647D01*
X119918238Y-85941504D01*
X119894047Y-85893123D01*
X119869857Y-85868933D01*
X119821476Y-85844742D01*
X119748904Y-85844742D01*
X119700523Y-85868933D01*
X119676333Y-85893123D01*
X119652142Y-85941504D01*
X119652142Y-86086647D01*
X119676333Y-86135028D01*
X119700523Y-86159219D01*
X119748904Y-86183409D01*
X119821476Y-86183409D01*
X119434428Y-85989885D02*
X119047380Y-85989885D01*
X118587761Y-85844742D02*
X118587761Y-86255980D01*
X118611952Y-86304361D01*
X118636142Y-86328552D01*
X118684523Y-86352742D01*
X118757095Y-86352742D01*
X118805476Y-86328552D01*
X118587761Y-86159219D02*
X118636142Y-86183409D01*
X118732904Y-86183409D01*
X118781285Y-86159219D01*
X118805476Y-86135028D01*
X118829666Y-86086647D01*
X118829666Y-85941504D01*
X118805476Y-85893123D01*
X118781285Y-85868933D01*
X118732904Y-85844742D01*
X118636142Y-85844742D01*
X118587761Y-85868933D01*
X118394238Y-85844742D02*
X118273285Y-86183409D01*
X118152333Y-85844742D02*
X118273285Y-86183409D01*
X118321666Y-86304361D01*
X118345857Y-86328552D01*
X118394238Y-86352742D01*
X117958809Y-86183409D02*
X117958809Y-85844742D01*
X117958809Y-85893123D02*
X117934619Y-85868933D01*
X117886238Y-85844742D01*
X117813666Y-85844742D01*
X117765285Y-85868933D01*
X117741095Y-85917314D01*
X117741095Y-86183409D01*
X117741095Y-85917314D02*
X117716904Y-85868933D01*
X117668523Y-85844742D01*
X117595952Y-85844742D01*
X117547571Y-85868933D01*
X117523380Y-85917314D01*
X117523380Y-86183409D01*
X117281476Y-86183409D02*
X117281476Y-85675409D01*
X117233095Y-85989885D02*
X117087952Y-86183409D01*
X117087952Y-85844742D02*
X117281476Y-86038266D01*
X116870238Y-86183409D02*
X116870238Y-85675409D01*
X116652523Y-86183409D02*
X116652523Y-85917314D01*
X116676714Y-85868933D01*
X116725095Y-85844742D01*
X116797666Y-85844742D01*
X116846047Y-85868933D01*
X116870238Y-85893123D01*
X116192904Y-86183409D02*
X116192904Y-85917314D01*
X116217095Y-85868933D01*
X116265476Y-85844742D01*
X116362238Y-85844742D01*
X116410619Y-85868933D01*
X116192904Y-86159219D02*
X116241285Y-86183409D01*
X116362238Y-86183409D01*
X116410619Y-86159219D01*
X116434809Y-86110838D01*
X116434809Y-86062457D01*
X116410619Y-86014076D01*
X116362238Y-85989885D01*
X116241285Y-85989885D01*
X116192904Y-85965695D01*
X115951000Y-85844742D02*
X115951000Y-86183409D01*
X115951000Y-85893123D02*
X115926809Y-85868933D01*
X115878428Y-85844742D01*
X115805857Y-85844742D01*
X115757476Y-85868933D01*
X115733285Y-85917314D01*
X115733285Y-86183409D01*
X115273666Y-86183409D02*
X115273666Y-85917314D01*
X115297857Y-85868933D01*
X115346238Y-85844742D01*
X115443000Y-85844742D01*
X115491380Y-85868933D01*
X115273666Y-86159219D02*
X115322047Y-86183409D01*
X115443000Y-86183409D01*
X115491380Y-86159219D01*
X115515571Y-86110838D01*
X115515571Y-86062457D01*
X115491380Y-86014076D01*
X115443000Y-85989885D01*
X115322047Y-85989885D01*
X115273666Y-85965695D01*
X114668904Y-86159219D02*
X114620523Y-86183409D01*
X114523761Y-86183409D01*
X114475380Y-86159219D01*
X114451190Y-86110838D01*
X114451190Y-86086647D01*
X114475380Y-86038266D01*
X114523761Y-86014076D01*
X114596333Y-86014076D01*
X114644714Y-85989885D01*
X114668904Y-85941504D01*
X114668904Y-85917314D01*
X114644714Y-85868933D01*
X114596333Y-85844742D01*
X114523761Y-85844742D01*
X114475380Y-85868933D01*
X114306047Y-85844742D02*
X114112523Y-85844742D01*
X114233476Y-85675409D02*
X114233476Y-86110838D01*
X114209285Y-86159219D01*
X114160904Y-86183409D01*
X114112523Y-86183409D01*
X113870619Y-86183409D02*
X113919000Y-86159219D01*
X113943190Y-86135028D01*
X113967380Y-86086647D01*
X113967380Y-85941504D01*
X113943190Y-85893123D01*
X113919000Y-85868933D01*
X113870619Y-85844742D01*
X113798047Y-85844742D01*
X113749666Y-85868933D01*
X113725476Y-85893123D01*
X113701285Y-85941504D01*
X113701285Y-86086647D01*
X113725476Y-86135028D01*
X113749666Y-86159219D01*
X113798047Y-86183409D01*
X113870619Y-86183409D01*
X113483571Y-85844742D02*
X113483571Y-86352742D01*
X113483571Y-85868933D02*
X113435190Y-85844742D01*
X113338428Y-85844742D01*
X113290047Y-85868933D01*
X113265857Y-85893123D01*
X113241666Y-85941504D01*
X113241666Y-86086647D01*
X113265857Y-86135028D01*
X113290047Y-86159219D01*
X113338428Y-86183409D01*
X113435190Y-86183409D01*
X113483571Y-86159219D01*
X113072333Y-85844742D02*
X112975571Y-86183409D01*
X112878809Y-85941504D01*
X112782047Y-86183409D01*
X112685285Y-85844742D01*
X112274047Y-86183409D02*
X112274047Y-85917314D01*
X112298238Y-85868933D01*
X112346619Y-85844742D01*
X112443380Y-85844742D01*
X112491761Y-85868933D01*
X112274047Y-86159219D02*
X112322428Y-86183409D01*
X112443380Y-86183409D01*
X112491761Y-86159219D01*
X112515952Y-86110838D01*
X112515952Y-86062457D01*
X112491761Y-86014076D01*
X112443380Y-85989885D01*
X112322428Y-85989885D01*
X112274047Y-85965695D01*
X112104714Y-85844742D02*
X111911190Y-85844742D01*
X112032142Y-85675409D02*
X112032142Y-86110838D01*
X112007952Y-86159219D01*
X111959571Y-86183409D01*
X111911190Y-86183409D01*
X111524142Y-86159219D02*
X111572523Y-86183409D01*
X111669285Y-86183409D01*
X111717666Y-86159219D01*
X111741857Y-86135028D01*
X111766047Y-86086647D01*
X111766047Y-85941504D01*
X111741857Y-85893123D01*
X111717666Y-85868933D01*
X111669285Y-85844742D01*
X111572523Y-85844742D01*
X111524142Y-85868933D01*
X111306428Y-86183409D02*
X111306428Y-85675409D01*
X111088714Y-86183409D02*
X111088714Y-85917314D01*
X111112904Y-85868933D01*
X111161285Y-85844742D01*
X111233857Y-85844742D01*
X111282238Y-85868933D01*
X111306428Y-85893123D01*
X120135952Y-86996209D02*
X120135952Y-86488209D01*
X120135952Y-86681733D02*
X120087571Y-86657542D01*
X119990809Y-86657542D01*
X119942428Y-86681733D01*
X119918238Y-86705923D01*
X119894047Y-86754304D01*
X119894047Y-86899447D01*
X119918238Y-86947828D01*
X119942428Y-86972019D01*
X119990809Y-86996209D01*
X120087571Y-86996209D01*
X120135952Y-86972019D01*
X119724714Y-86657542D02*
X119603761Y-86996209D01*
X119482809Y-86657542D02*
X119603761Y-86996209D01*
X119652142Y-87117161D01*
X119676333Y-87141352D01*
X119724714Y-87165542D01*
X118902238Y-86996209D02*
X118902238Y-86657542D01*
X118902238Y-86488209D02*
X118926428Y-86512400D01*
X118902238Y-86536590D01*
X118878047Y-86512400D01*
X118902238Y-86488209D01*
X118902238Y-86536590D01*
X118708714Y-86657542D02*
X118611952Y-86996209D01*
X118515190Y-86754304D01*
X118418428Y-86996209D01*
X118321666Y-86657542D01*
X117910428Y-86996209D02*
X117910428Y-86730114D01*
X117934619Y-86681733D01*
X117983000Y-86657542D01*
X118079761Y-86657542D01*
X118128142Y-86681733D01*
X117910428Y-86972019D02*
X117958809Y-86996209D01*
X118079761Y-86996209D01*
X118128142Y-86972019D01*
X118152333Y-86923638D01*
X118152333Y-86875257D01*
X118128142Y-86826876D01*
X118079761Y-86802685D01*
X117958809Y-86802685D01*
X117910428Y-86778495D01*
X117692714Y-86972019D02*
X117644333Y-86996209D01*
X117547571Y-86996209D01*
X117499190Y-86972019D01*
X117475000Y-86923638D01*
X117475000Y-86899447D01*
X117499190Y-86851066D01*
X117547571Y-86826876D01*
X117620142Y-86826876D01*
X117668523Y-86802685D01*
X117692714Y-86754304D01*
X117692714Y-86730114D01*
X117668523Y-86681733D01*
X117620142Y-86657542D01*
X117547571Y-86657542D01*
X117499190Y-86681733D01*
X117305666Y-86657542D02*
X117039571Y-86657542D01*
X117305666Y-86996209D01*
X117039571Y-86996209D01*
X116846047Y-86947828D02*
X116821857Y-86972019D01*
X116846047Y-86996209D01*
X116870238Y-86972019D01*
X116846047Y-86947828D01*
X116846047Y-86996209D01*
X116217095Y-86996209D02*
X116217095Y-86657542D01*
X116217095Y-86754304D02*
X116192904Y-86705923D01*
X116168714Y-86681733D01*
X116120333Y-86657542D01*
X116071952Y-86657542D01*
X115709095Y-86972019D02*
X115757476Y-86996209D01*
X115854238Y-86996209D01*
X115902619Y-86972019D01*
X115926809Y-86923638D01*
X115926809Y-86730114D01*
X115902619Y-86681733D01*
X115854238Y-86657542D01*
X115757476Y-86657542D01*
X115709095Y-86681733D01*
X115684904Y-86730114D01*
X115684904Y-86778495D01*
X115926809Y-86826876D01*
X115515571Y-86657542D02*
X115394619Y-86996209D01*
X115273666Y-86657542D01*
X115128523Y-86488209D02*
X114814047Y-86488209D01*
X114983380Y-86681733D01*
X114910809Y-86681733D01*
X114862428Y-86705923D01*
X114838238Y-86730114D01*
X114814047Y-86778495D01*
X114814047Y-86899447D01*
X114838238Y-86947828D01*
X114862428Y-86972019D01*
X114910809Y-86996209D01*
X115055952Y-86996209D01*
X115104333Y-86972019D01*
X115128523Y-86947828D01*
X114596333Y-86947828D02*
X114572142Y-86972019D01*
X114596333Y-86996209D01*
X114620523Y-86972019D01*
X114596333Y-86947828D01*
X114596333Y-86996209D01*
X113991571Y-86536590D02*
X113967380Y-86512400D01*
X113919000Y-86488209D01*
X113798047Y-86488209D01*
X113749666Y-86512400D01*
X113725476Y-86536590D01*
X113701285Y-86584971D01*
X113701285Y-86633352D01*
X113725476Y-86705923D01*
X114015761Y-86996209D01*
X113701285Y-86996209D01*
X113386809Y-86488209D02*
X113338428Y-86488209D01*
X113290047Y-86512400D01*
X113265857Y-86536590D01*
X113241666Y-86584971D01*
X113217476Y-86681733D01*
X113217476Y-86802685D01*
X113241666Y-86899447D01*
X113265857Y-86947828D01*
X113290047Y-86972019D01*
X113338428Y-86996209D01*
X113386809Y-86996209D01*
X113435190Y-86972019D01*
X113459380Y-86947828D01*
X113483571Y-86899447D01*
X113507761Y-86802685D01*
X113507761Y-86681733D01*
X113483571Y-86584971D01*
X113459380Y-86536590D01*
X113435190Y-86512400D01*
X113386809Y-86488209D01*
X112733666Y-86996209D02*
X113023952Y-86996209D01*
X112878809Y-86996209D02*
X112878809Y-86488209D01*
X112927190Y-86560780D01*
X112975571Y-86609161D01*
X113023952Y-86633352D01*
X112564333Y-86488209D02*
X112225666Y-86488209D01*
X112443380Y-86996209D01*
D14*
X132588000Y-101092000D02*
X132588000Y-101092000D01*
X132588000Y-101092000D02*
X132588000Y-101092000D01*
X132588000Y-101092000D02*
X132588000Y-101092000D01*
X132588000Y-101092000D02*
X132588000Y-101092000D01*
X132588000Y-101092000D02*
G75*
G03X132588000Y-101092000I0J0D01*
G01*
D11*
X167690800Y-85445600D02*
X167690800Y-86258400D01*
X166573200Y-86233000D02*
X166573200Y-85445600D01*
X166319200Y-86258400D02*
X167944800Y-86258400D01*
X167944800Y-86258400D02*
X167944800Y-85445600D01*
X167944800Y-85445600D02*
X166319200Y-85445600D01*
X166319200Y-85445600D02*
X166319200Y-86258400D01*
X166573200Y-88544400D02*
X166573200Y-87731600D01*
X167690800Y-87757000D02*
X167690800Y-88544400D01*
X167944800Y-87731600D02*
X166319200Y-87731600D01*
X166319200Y-87731600D02*
X166319200Y-88544400D01*
X166319200Y-88544400D02*
X167944800Y-88544400D01*
X167944800Y-88544400D02*
X167944800Y-87731600D01*
X185216800Y-96875600D02*
X185216800Y-97688400D01*
X184099200Y-97663000D02*
X184099200Y-96875600D01*
X183845200Y-97688400D02*
X185470800Y-97688400D01*
X185470800Y-97688400D02*
X185470800Y-96875600D01*
X185470800Y-96875600D02*
X183845200Y-96875600D01*
X183845200Y-96875600D02*
X183845200Y-97688400D01*
D15*
X189380000Y-124730000D02*
X189380000Y-124610000D01*
X189380000Y-124610000D02*
X191620000Y-124610000D01*
X191620000Y-124610000D02*
X191620000Y-124730000D01*
X191620000Y-124730000D02*
X189380000Y-124730000D01*
X189380000Y-125730000D02*
X189380000Y-126850000D01*
X189380000Y-126850000D02*
X190500000Y-126850000D01*
X189380000Y-80495000D02*
X190500000Y-80495000D01*
X189380000Y-79375000D02*
X189380000Y-80495000D01*
X191620000Y-78375000D02*
X189380000Y-78375000D01*
X191620000Y-78255000D02*
X191620000Y-78375000D01*
X189380000Y-78255000D02*
X191620000Y-78255000D01*
X189380000Y-78375000D02*
X189380000Y-78255000D01*
X138580000Y-78375000D02*
X138580000Y-78255000D01*
X138580000Y-78255000D02*
X140820000Y-78255000D01*
X140820000Y-78255000D02*
X140820000Y-78375000D01*
X140820000Y-78375000D02*
X138580000Y-78375000D01*
X138580000Y-79375000D02*
X138580000Y-80495000D01*
X138580000Y-80495000D02*
X139700000Y-80495000D01*
X163345000Y-80495000D02*
X164465000Y-80495000D01*
X163345000Y-79375000D02*
X163345000Y-80495000D01*
X165585000Y-78375000D02*
X163345000Y-78375000D01*
X165585000Y-78255000D02*
X165585000Y-78375000D01*
X163345000Y-78255000D02*
X165585000Y-78255000D01*
X163345000Y-78375000D02*
X163345000Y-78255000D01*
X163345000Y-124730000D02*
X163345000Y-124610000D01*
X163345000Y-124610000D02*
X165585000Y-124610000D01*
X165585000Y-124610000D02*
X165585000Y-124730000D01*
X165585000Y-124730000D02*
X163345000Y-124730000D01*
X163345000Y-125730000D02*
X163345000Y-126850000D01*
X163345000Y-126850000D02*
X164465000Y-126850000D01*
X112545000Y-126850000D02*
X113665000Y-126850000D01*
X112545000Y-125730000D02*
X112545000Y-126850000D01*
X114785000Y-124730000D02*
X112545000Y-124730000D01*
X114785000Y-124610000D02*
X114785000Y-124730000D01*
X112545000Y-124610000D02*
X114785000Y-124610000D01*
X112545000Y-124730000D02*
X112545000Y-124610000D01*
X138580000Y-124730000D02*
X138580000Y-124610000D01*
X138580000Y-124610000D02*
X140820000Y-124610000D01*
X140820000Y-124610000D02*
X140820000Y-124730000D01*
X140820000Y-124730000D02*
X138580000Y-124730000D01*
X138580000Y-125730000D02*
X138580000Y-126850000D01*
X138580000Y-126850000D02*
X139700000Y-126850000D01*
X112545000Y-80495000D02*
X113665000Y-80495000D01*
X112545000Y-79375000D02*
X112545000Y-80495000D01*
X114785000Y-78375000D02*
X112545000Y-78375000D01*
X114785000Y-78255000D02*
X114785000Y-78375000D01*
X112545000Y-78255000D02*
X114785000Y-78255000D01*
X112545000Y-78375000D02*
X112545000Y-78255000D01*
D16*
X178594000Y-82026000D02*
X178594000Y-80026000D01*
X176594000Y-80026000D02*
X176594000Y-82026000D01*
X176594000Y-82026000D02*
X184594000Y-82026000D01*
X184594000Y-80026000D02*
X176594000Y-80026000D01*
X184594000Y-82026000D02*
X184594000Y-80026000D01*
X158686000Y-82534000D02*
X158686000Y-80534000D01*
X158686000Y-80534000D02*
X150686000Y-80534000D01*
X150686000Y-82534000D02*
X158686000Y-82534000D01*
X150686000Y-80534000D02*
X150686000Y-82534000D01*
X152686000Y-82534000D02*
X152686000Y-80534000D01*
D11*
X189331600Y-110439200D02*
X190144400Y-110439200D01*
X190119000Y-111556800D02*
X189331600Y-111556800D01*
X190144400Y-111810800D02*
X190144400Y-110185200D01*
X190144400Y-110185200D02*
X189331600Y-110185200D01*
X189331600Y-110185200D02*
X189331600Y-111810800D01*
X189331600Y-111810800D02*
X190144400Y-111810800D01*
X182778400Y-111556800D02*
X181965600Y-111556800D01*
X181991000Y-110439200D02*
X182778400Y-110439200D01*
X181965600Y-110185200D02*
X181965600Y-111810800D01*
X181965600Y-111810800D02*
X182778400Y-111810800D01*
X182778400Y-111810800D02*
X182778400Y-110185200D01*
X182778400Y-110185200D02*
X181965600Y-110185200D01*
X185077100Y-110045500D02*
X184429400Y-110693200D01*
X184924700Y-110045500D02*
X184429400Y-110540800D01*
X186880500Y-111442500D02*
X186880500Y-112102900D01*
X184975500Y-111442500D02*
X184975500Y-112102900D01*
X185928000Y-110045500D02*
X185928000Y-109385100D01*
X186880500Y-110045500D02*
X186880500Y-109385100D01*
X184975500Y-110045500D02*
X184975500Y-109385100D01*
X184429400Y-111442500D02*
X187426600Y-111442500D01*
X187426600Y-111442500D02*
X187426600Y-110045500D01*
X187426600Y-110045500D02*
X184429400Y-110045500D01*
X184429400Y-110045500D02*
X184429400Y-111442500D01*
X109270800Y-98907600D02*
X109270800Y-99720400D01*
X108153200Y-99695000D02*
X108153200Y-98907600D01*
X107899200Y-99720400D02*
X109524800Y-99720400D01*
X109524800Y-99720400D02*
X109524800Y-98907600D01*
X109524800Y-98907600D02*
X107899200Y-98907600D01*
X107899200Y-98907600D02*
X107899200Y-99720400D01*
X164033200Y-106578400D02*
X164033200Y-105765600D01*
X165150800Y-105791000D02*
X165150800Y-106578400D01*
X165404800Y-105765600D02*
X163779200Y-105765600D01*
X163779200Y-105765600D02*
X163779200Y-106578400D01*
X163779200Y-106578400D02*
X165404800Y-106578400D01*
X165404800Y-106578400D02*
X165404800Y-105765600D01*
X145084800Y-101574600D02*
X145084800Y-102387400D01*
X143967200Y-102362000D02*
X143967200Y-101574600D01*
X143713200Y-102387400D02*
X145338800Y-102387400D01*
X145338800Y-102387400D02*
X145338800Y-101574600D01*
X145338800Y-101574600D02*
X143713200Y-101574600D01*
X143713200Y-101574600D02*
X143713200Y-102387400D01*
X150317200Y-102387400D02*
X150317200Y-101574600D01*
X151434800Y-101600000D02*
X151434800Y-102387400D01*
X151688800Y-101574600D02*
X150063200Y-101574600D01*
X150063200Y-101574600D02*
X150063200Y-102387400D01*
X150063200Y-102387400D02*
X151688800Y-102387400D01*
X151688800Y-102387400D02*
X151688800Y-101574600D01*
X164033200Y-108864400D02*
X164033200Y-108051600D01*
X165150800Y-108077000D02*
X165150800Y-108864400D01*
X165404800Y-108051600D02*
X163779200Y-108051600D01*
X163779200Y-108051600D02*
X163779200Y-108864400D01*
X163779200Y-108864400D02*
X165404800Y-108864400D01*
X165404800Y-108864400D02*
X165404800Y-108051600D01*
X148209000Y-97155000D02*
X146939000Y-97155000D01*
X148209000Y-98425000D02*
X146964400Y-98425000D01*
X148209000Y-98806000D02*
X148209000Y-96774000D01*
X148209000Y-96774000D02*
X146939000Y-96774000D01*
X146939000Y-96774000D02*
X146939000Y-98806000D01*
X146939000Y-98806000D02*
X148209000Y-98806000D01*
X149707600Y-97231200D02*
X150520400Y-97231200D01*
X150495000Y-98348800D02*
X149707600Y-98348800D01*
X150520400Y-98602800D02*
X150520400Y-96977200D01*
X150520400Y-96977200D02*
X149707600Y-96977200D01*
X149707600Y-96977200D02*
X149707600Y-98602800D01*
X149707600Y-98602800D02*
X150520400Y-98602800D01*
X151739600Y-97231200D02*
X152552400Y-97231200D01*
X152527000Y-98348800D02*
X151739600Y-98348800D01*
X152552400Y-98602800D02*
X152552400Y-96977200D01*
X152552400Y-96977200D02*
X151739600Y-96977200D01*
X151739600Y-96977200D02*
X151739600Y-98602800D01*
X151739600Y-98602800D02*
X152552400Y-98602800D01*
X155905200Y-111912400D02*
X155905200Y-111099600D01*
X157022800Y-111125000D02*
X157022800Y-111912400D01*
X157276800Y-111099600D02*
X155651200Y-111099600D01*
X155651200Y-111099600D02*
X155651200Y-111912400D01*
X155651200Y-111912400D02*
X157276800Y-111912400D01*
X157276800Y-111912400D02*
X157276800Y-111099600D01*
X155915360Y-109372400D02*
X155915360Y-108559600D01*
X157032960Y-108585000D02*
X157032960Y-109372400D01*
X157286960Y-108559600D02*
X155661360Y-108559600D01*
X155661360Y-108559600D02*
X155661360Y-109372400D01*
X155661360Y-109372400D02*
X157286960Y-109372400D01*
X157286960Y-109372400D02*
X157286960Y-108559600D01*
X156083000Y-105791000D02*
X156083000Y-107061000D01*
X157353000Y-105791000D02*
X157353000Y-107035600D01*
X157734000Y-105791000D02*
X155702000Y-105791000D01*
X155702000Y-105791000D02*
X155702000Y-107061000D01*
X155702000Y-107061000D02*
X157734000Y-107061000D01*
X157734000Y-107061000D02*
X157734000Y-105791000D01*
X170332400Y-95046800D02*
X169519600Y-95046800D01*
X169545000Y-93929200D02*
X170332400Y-93929200D01*
X169519600Y-93675200D02*
X169519600Y-95300800D01*
X169519600Y-95300800D02*
X170332400Y-95300800D01*
X170332400Y-95300800D02*
X170332400Y-93675200D01*
X170332400Y-93675200D02*
X169519600Y-93675200D01*
X162610800Y-87731600D02*
X162610800Y-88544400D01*
X161493200Y-88519000D02*
X161493200Y-87731600D01*
X161239200Y-88544400D02*
X162864800Y-88544400D01*
X162864800Y-88544400D02*
X162864800Y-87731600D01*
X162864800Y-87731600D02*
X161239200Y-87731600D01*
X161239200Y-87731600D02*
X161239200Y-88544400D01*
X162687000Y-91059000D02*
X162687000Y-89789000D01*
X161417000Y-91059000D02*
X161417000Y-89814400D01*
X161036000Y-91059000D02*
X163068000Y-91059000D01*
X163068000Y-91059000D02*
X163068000Y-89789000D01*
X163068000Y-89789000D02*
X161036000Y-89789000D01*
X161036000Y-89789000D02*
X161036000Y-91059000D01*
X169100500Y-103441500D02*
X168440100Y-103441500D01*
X169100500Y-105346500D02*
X168440100Y-105346500D01*
X170497500Y-104394000D02*
X171157900Y-104394000D01*
X170497500Y-105892600D02*
X170497500Y-102895400D01*
X170497500Y-102895400D02*
X169100500Y-102895400D01*
X169100500Y-102895400D02*
X169100500Y-105892600D01*
X169100500Y-105892600D02*
X170497500Y-105892600D01*
X159613600Y-106375200D02*
X160426400Y-106375200D01*
X160401000Y-107492800D02*
X159613600Y-107492800D01*
X160426400Y-107746800D02*
X160426400Y-106121200D01*
X160426400Y-106121200D02*
X159613600Y-106121200D01*
X159613600Y-106121200D02*
X159613600Y-107746800D01*
X159613600Y-107746800D02*
X160426400Y-107746800D01*
X169113200Y-108102400D02*
X169113200Y-107289600D01*
X170230800Y-107315000D02*
X170230800Y-108102400D01*
X170484800Y-107289600D02*
X168859200Y-107289600D01*
X168859200Y-107289600D02*
X168859200Y-108102400D01*
X168859200Y-108102400D02*
X170484800Y-108102400D01*
X170484800Y-108102400D02*
X170484800Y-107289600D01*
X173167040Y-99466400D02*
X173167040Y-98653600D01*
X174284640Y-98679000D02*
X174284640Y-99466400D01*
X174538640Y-98653600D02*
X172913040Y-98653600D01*
X172913040Y-98653600D02*
X172913040Y-99466400D01*
X172913040Y-99466400D02*
X174538640Y-99466400D01*
X174538640Y-99466400D02*
X174538640Y-98653600D01*
X109260640Y-101447600D02*
X109260640Y-102260400D01*
X108143040Y-102235000D02*
X108143040Y-101447600D01*
X107889040Y-102260400D02*
X109514640Y-102260400D01*
X109514640Y-102260400D02*
X109514640Y-101447600D01*
X109514640Y-101447600D02*
X107889040Y-101447600D01*
X107889040Y-101447600D02*
X107889040Y-102260400D01*
X147142200Y-102387400D02*
X147142200Y-101574600D01*
X148259800Y-101600000D02*
X148259800Y-102387400D01*
X148513800Y-101574600D02*
X146888200Y-101574600D01*
X146888200Y-101574600D02*
X146888200Y-102387400D01*
X146888200Y-102387400D02*
X148513800Y-102387400D01*
X148513800Y-102387400D02*
X148513800Y-101574600D01*
X191693800Y-99796600D02*
X191693800Y-100609400D01*
X190576200Y-100584000D02*
X190576200Y-99796600D01*
X190322200Y-100609400D02*
X191947800Y-100609400D01*
X191947800Y-100609400D02*
X191947800Y-99796600D01*
X191947800Y-99796600D02*
X190322200Y-99796600D01*
X190322200Y-99796600D02*
X190322200Y-100609400D01*
X191693800Y-101447600D02*
X191693800Y-102260400D01*
X190576200Y-102235000D02*
X190576200Y-101447600D01*
X190322200Y-102260400D02*
X191947800Y-102260400D01*
X191947800Y-102260400D02*
X191947800Y-101447600D01*
X191947800Y-101447600D02*
X190322200Y-101447600D01*
X190322200Y-101447600D02*
X190322200Y-102260400D01*
X175564800Y-115417600D02*
X175564800Y-116230400D01*
X174447200Y-116205000D02*
X174447200Y-115417600D01*
X174193200Y-116230400D02*
X175818800Y-116230400D01*
X175818800Y-116230400D02*
X175818800Y-115417600D01*
X175818800Y-115417600D02*
X174193200Y-115417600D01*
X174193200Y-115417600D02*
X174193200Y-116230400D01*
X174853600Y-122885200D02*
X175666400Y-122885200D01*
X175641000Y-124002800D02*
X174853600Y-124002800D01*
X175666400Y-124256800D02*
X175666400Y-122631200D01*
X175666400Y-122631200D02*
X174853600Y-122631200D01*
X174853600Y-122631200D02*
X174853600Y-124256800D01*
X174853600Y-124256800D02*
X175666400Y-124256800D01*
X184099200Y-103784400D02*
X184099200Y-102971600D01*
X185216800Y-102997000D02*
X185216800Y-103784400D01*
X185470800Y-102971600D02*
X183845200Y-102971600D01*
X183845200Y-102971600D02*
X183845200Y-103784400D01*
X183845200Y-103784400D02*
X185470800Y-103784400D01*
X185470800Y-103784400D02*
X185470800Y-102971600D01*
D16*
X102584000Y-102981000D02*
X105124000Y-102981000D01*
X105124000Y-105521000D02*
X105124000Y-97901000D01*
X105124000Y-97901000D02*
X102584000Y-97901000D01*
X102584000Y-97901000D02*
X102584000Y-105521000D01*
X102584000Y-105521000D02*
X105124000Y-105521000D01*
D17*
X155613100Y-102905560D02*
X155412440Y-102704900D01*
X155412440Y-102506780D02*
X155811220Y-102905560D01*
X156011880Y-102905560D02*
X155412440Y-102306120D01*
X155412440Y-102105460D02*
X156212540Y-102905560D01*
X155412440Y-101904800D02*
X155412440Y-102905560D01*
X155412440Y-102905560D02*
X156413200Y-102905560D01*
X156413200Y-102905560D02*
X155412440Y-101904800D01*
X156413200Y-94706440D02*
X155412440Y-94706440D01*
X155412440Y-94706440D02*
X155412440Y-95707200D01*
X163611560Y-95707200D02*
X163611560Y-94706440D01*
X163611560Y-94706440D02*
X162610800Y-94706440D01*
X162610800Y-102905560D02*
X163611560Y-102905560D01*
X163611560Y-102905560D02*
X163611560Y-101904800D01*
D11*
X157382981Y-101219000D02*
G75*
G03X157382981Y-101219000I-283981J0D01*
G01*
X156337000Y-95250000D02*
X155956000Y-95631000D01*
X155956000Y-95631000D02*
X155956000Y-101981000D01*
X155956000Y-101981000D02*
X156337000Y-102362000D01*
X156337000Y-102362000D02*
X162687000Y-102362000D01*
X162687000Y-102362000D02*
X163068000Y-101981000D01*
X163068000Y-101981000D02*
X163068000Y-95631000D01*
X163068000Y-95631000D02*
X162687000Y-95250000D01*
X162687000Y-95250000D02*
X156337000Y-95250000D01*
D18*
X204538580Y-98287840D02*
X204538580Y-106690160D01*
X204640180Y-98287840D02*
X204640180Y-106690160D01*
X204640180Y-106690160D02*
X204439520Y-106690160D01*
X204439520Y-106690160D02*
X204439520Y-98287840D01*
X204439520Y-98287840D02*
X204640180Y-98287840D01*
X204640180Y-98590100D02*
X199638920Y-98590100D01*
X199638920Y-98590100D02*
X199638920Y-106387900D01*
X199638920Y-106387900D02*
X204640180Y-106387900D01*
D14*
X183258000Y-99438000D02*
X183258000Y-102238000D01*
X183258000Y-102238000D02*
X186058000Y-102238000D01*
X186058000Y-102238000D02*
X186058000Y-99438000D01*
X186058000Y-99438000D02*
X183258000Y-99438000D01*
X185158000Y-100038000D02*
G75*
G02X185758000Y-100038000I300000J0D01*
G01*
X185158000Y-100038000D02*
X185758000Y-100038000D01*
D11*
X194437000Y-94297500D02*
X191643000Y-94297500D01*
X194437000Y-93726000D02*
X194437000Y-97282000D01*
X194437000Y-97282000D02*
X191643000Y-97282000D01*
X191643000Y-97282000D02*
X191643000Y-93726000D01*
X191643000Y-93726000D02*
X194437000Y-93726000D01*
D16*
X179578000Y-101346000D02*
X177038000Y-101346000D01*
X177038000Y-98806000D02*
X177038000Y-106426000D01*
X177038000Y-106426000D02*
X179578000Y-106426000D01*
X179578000Y-106426000D02*
X179578000Y-98806000D01*
X179578000Y-98806000D02*
X177038000Y-98806000D01*
D10*
X150114000Y-93472000D02*
X152654000Y-93472000D01*
X192024000Y-105664000D02*
X194564000Y-105664000D01*
X192024000Y-108458000D02*
X194564000Y-108458000D01*
D11*
X177609500Y-122491500D02*
X176949100Y-122491500D01*
X177609500Y-124396500D02*
X176949100Y-124396500D01*
X179006500Y-123444000D02*
X179666900Y-123444000D01*
X179006500Y-124942600D02*
X179006500Y-121945400D01*
X179006500Y-121945400D02*
X177609500Y-121945400D01*
X177609500Y-121945400D02*
X177609500Y-124942600D01*
X177609500Y-124942600D02*
X179006500Y-124942600D01*
X153263600Y-84531200D02*
X154076400Y-84531200D01*
X154051000Y-85648800D02*
X153263600Y-85648800D01*
X154076400Y-85902800D02*
X154076400Y-84277200D01*
X154076400Y-84277200D02*
X153263600Y-84277200D01*
X153263600Y-84277200D02*
X153263600Y-85902800D01*
X153263600Y-85902800D02*
X154076400Y-85902800D01*
X157581600Y-84531200D02*
X158394400Y-84531200D01*
X158369000Y-85648800D02*
X157581600Y-85648800D01*
X158394400Y-85902800D02*
X158394400Y-84277200D01*
X158394400Y-84277200D02*
X157581600Y-84277200D01*
X157581600Y-84277200D02*
X157581600Y-85902800D01*
X157581600Y-85902800D02*
X158394400Y-85902800D01*
D19*
X187055760Y-119380000D02*
G75*
G03X187055760Y-119380000I-1000760J0D01*
G01*
X192255140Y-119380000D02*
G75*
G03X192255140Y-119380000I-6200140J0D01*
G01*
D16*
X182372000Y-104902000D02*
X184912000Y-107442000D01*
X187452000Y-104902000D02*
X182372000Y-104902000D01*
X182372000Y-107442000D02*
X187452000Y-107442000D01*
X182372000Y-104902000D02*
X182372000Y-107442000D01*
X187452000Y-107442000D02*
X187452000Y-104902000D01*
D20*
X153289000Y-106426000D02*
G75*
G02X151003000Y-108712000I-2286000J0D01*
G01*
X144399000Y-104648000D02*
X151003000Y-104648000D01*
X151003000Y-108204000D02*
X144399000Y-108204000D01*
X151003000Y-104648000D02*
G75*
G02X152781000Y-106426000I0J-1778000D01*
G01*
X152781000Y-106426000D02*
G75*
G02X151003000Y-108204000I-1778000J0D01*
G01*
X142621000Y-106426000D02*
G75*
G02X144399000Y-104648000I1778000J0D01*
G01*
X144399000Y-108204000D02*
G75*
G02X142621000Y-106426000I0J1778000D01*
G01*
X151003000Y-104140000D02*
G75*
G02X153289000Y-106426000I0J-2286000D01*
G01*
X151003000Y-104140000D02*
X144399000Y-104140000D01*
X144399000Y-108712000D02*
X151003000Y-108712000D01*
X142113000Y-106426000D02*
G75*
G02X144399000Y-104140000I2286000J0D01*
G01*
X144399000Y-108712000D02*
G75*
G02X142113000Y-106426000I0J2286000D01*
G01*
D21*
X124762380Y-98498055D02*
X123939904Y-98498055D01*
X123843142Y-98449674D01*
X123794761Y-98401293D01*
X123746380Y-98304531D01*
X123746380Y-98111007D01*
X123794761Y-98014245D01*
X123843142Y-97965864D01*
X123939904Y-97917483D01*
X124762380Y-97917483D01*
X124762380Y-97530436D02*
X124762380Y-96853102D01*
X123746380Y-97288531D01*
X170095333Y-86311619D02*
X170434000Y-85827809D01*
X170675904Y-86311619D02*
X170675904Y-85295619D01*
X170288857Y-85295619D01*
X170192095Y-85344000D01*
X170143714Y-85392380D01*
X170095333Y-85489142D01*
X170095333Y-85634285D01*
X170143714Y-85731047D01*
X170192095Y-85779428D01*
X170288857Y-85827809D01*
X170675904Y-85827809D01*
X169176095Y-85295619D02*
X169659904Y-85295619D01*
X169708285Y-85779428D01*
X169659904Y-85731047D01*
X169563142Y-85682666D01*
X169321238Y-85682666D01*
X169224476Y-85731047D01*
X169176095Y-85779428D01*
X169127714Y-85876190D01*
X169127714Y-86118095D01*
X169176095Y-86214857D01*
X169224476Y-86263238D01*
X169321238Y-86311619D01*
X169563142Y-86311619D01*
X169659904Y-86263238D01*
X169708285Y-86214857D01*
X169841333Y-88597619D02*
X170180000Y-88113809D01*
X170421904Y-88597619D02*
X170421904Y-87581619D01*
X170034857Y-87581619D01*
X169938095Y-87630000D01*
X169889714Y-87678380D01*
X169841333Y-87775142D01*
X169841333Y-87920285D01*
X169889714Y-88017047D01*
X169938095Y-88065428D01*
X170034857Y-88113809D01*
X170421904Y-88113809D01*
X168970476Y-87920285D02*
X168970476Y-88597619D01*
X169212380Y-87533238D02*
X169454285Y-88258952D01*
X168825333Y-88258952D01*
X184827333Y-96217619D02*
X185166000Y-95733809D01*
X185407904Y-96217619D02*
X185407904Y-95201619D01*
X185020857Y-95201619D01*
X184924095Y-95250000D01*
X184875714Y-95298380D01*
X184827333Y-95395142D01*
X184827333Y-95540285D01*
X184875714Y-95637047D01*
X184924095Y-95685428D01*
X185020857Y-95733809D01*
X185407904Y-95733809D01*
X184440285Y-95298380D02*
X184391904Y-95250000D01*
X184295142Y-95201619D01*
X184053238Y-95201619D01*
X183956476Y-95250000D01*
X183908095Y-95298380D01*
X183859714Y-95395142D01*
X183859714Y-95491904D01*
X183908095Y-95637047D01*
X184488666Y-96217619D01*
X183859714Y-96217619D01*
X185879619Y-80276095D02*
X184863619Y-80276095D01*
X184863619Y-80663142D01*
X184912000Y-80759904D01*
X184960380Y-80808285D01*
X185057142Y-80856666D01*
X185202285Y-80856666D01*
X185299047Y-80808285D01*
X185347428Y-80759904D01*
X185395809Y-80663142D01*
X185395809Y-80276095D01*
X184863619Y-81727523D02*
X184863619Y-81534000D01*
X184912000Y-81437238D01*
X184960380Y-81388857D01*
X185105523Y-81292095D01*
X185299047Y-81243714D01*
X185686095Y-81243714D01*
X185782857Y-81292095D01*
X185831238Y-81340476D01*
X185879619Y-81437238D01*
X185879619Y-81630761D01*
X185831238Y-81727523D01*
X185782857Y-81775904D01*
X185686095Y-81824285D01*
X185444190Y-81824285D01*
X185347428Y-81775904D01*
X185299047Y-81727523D01*
X185250666Y-81630761D01*
X185250666Y-81437238D01*
X185299047Y-81340476D01*
X185347428Y-81292095D01*
X185444190Y-81243714D01*
X150355904Y-81993619D02*
X150355904Y-80977619D01*
X149968857Y-80977619D01*
X149872095Y-81026000D01*
X149823714Y-81074380D01*
X149775333Y-81171142D01*
X149775333Y-81316285D01*
X149823714Y-81413047D01*
X149872095Y-81461428D01*
X149968857Y-81509809D01*
X150355904Y-81509809D01*
X149436666Y-80977619D02*
X148807714Y-80977619D01*
X149146380Y-81364666D01*
X149001238Y-81364666D01*
X148904476Y-81413047D01*
X148856095Y-81461428D01*
X148807714Y-81558190D01*
X148807714Y-81800095D01*
X148856095Y-81896857D01*
X148904476Y-81945238D01*
X149001238Y-81993619D01*
X149291523Y-81993619D01*
X149388285Y-81945238D01*
X149436666Y-81896857D01*
X191614697Y-110344857D02*
X191663078Y-110296476D01*
X191711459Y-110151333D01*
X191711459Y-110054571D01*
X191663078Y-109909428D01*
X191566316Y-109812666D01*
X191469554Y-109764285D01*
X191276030Y-109715904D01*
X191130887Y-109715904D01*
X190937363Y-109764285D01*
X190840601Y-109812666D01*
X190743840Y-109909428D01*
X190695459Y-110054571D01*
X190695459Y-110151333D01*
X190743840Y-110296476D01*
X190792220Y-110344857D01*
X191711459Y-111312476D02*
X191711459Y-110731904D01*
X191711459Y-111022190D02*
X190695459Y-111022190D01*
X190840601Y-110925428D01*
X190937363Y-110828666D01*
X190985744Y-110731904D01*
X190695459Y-112183333D02*
X190695459Y-111989809D01*
X190743840Y-111893047D01*
X190792220Y-111844666D01*
X190937363Y-111747904D01*
X191130887Y-111699523D01*
X191517935Y-111699523D01*
X191614697Y-111747904D01*
X191663078Y-111796285D01*
X191711459Y-111893047D01*
X191711459Y-112086571D01*
X191663078Y-112183333D01*
X191614697Y-112231714D01*
X191517935Y-112280095D01*
X191276030Y-112280095D01*
X191179268Y-112231714D01*
X191130887Y-112183333D01*
X191082506Y-112086571D01*
X191082506Y-111893047D01*
X191130887Y-111796285D01*
X191179268Y-111747904D01*
X191276030Y-111699523D01*
X181464857Y-110598857D02*
X181513238Y-110550476D01*
X181561619Y-110405333D01*
X181561619Y-110308571D01*
X181513238Y-110163428D01*
X181416476Y-110066666D01*
X181319714Y-110018285D01*
X181126190Y-109969904D01*
X180981047Y-109969904D01*
X180787523Y-110018285D01*
X180690761Y-110066666D01*
X180594000Y-110163428D01*
X180545619Y-110308571D01*
X180545619Y-110405333D01*
X180594000Y-110550476D01*
X180642380Y-110598857D01*
X181561619Y-111566476D02*
X181561619Y-110985904D01*
X181561619Y-111276190D02*
X180545619Y-111276190D01*
X180690761Y-111179428D01*
X180787523Y-111082666D01*
X180835904Y-110985904D01*
X180545619Y-111905142D02*
X180545619Y-112582476D01*
X181561619Y-112147047D01*
X184416095Y-108155619D02*
X184416095Y-108978095D01*
X184367714Y-109074857D01*
X184319333Y-109123238D01*
X184222571Y-109171619D01*
X184029047Y-109171619D01*
X183932285Y-109123238D01*
X183883904Y-109074857D01*
X183835523Y-108978095D01*
X183835523Y-108155619D01*
X182916285Y-108155619D02*
X183109809Y-108155619D01*
X183206571Y-108204000D01*
X183254952Y-108252380D01*
X183351714Y-108397523D01*
X183400095Y-108591047D01*
X183400095Y-108978095D01*
X183351714Y-109074857D01*
X183303333Y-109123238D01*
X183206571Y-109171619D01*
X183013047Y-109171619D01*
X182916285Y-109123238D01*
X182867904Y-109074857D01*
X182819523Y-108978095D01*
X182819523Y-108736190D01*
X182867904Y-108639428D01*
X182916285Y-108591047D01*
X183013047Y-108542666D01*
X183206571Y-108542666D01*
X183303333Y-108591047D01*
X183351714Y-108639428D01*
X183400095Y-108736190D01*
X108881333Y-97898857D02*
X108929714Y-97947238D01*
X109074857Y-97995619D01*
X109171619Y-97995619D01*
X109316761Y-97947238D01*
X109413523Y-97850476D01*
X109461904Y-97753714D01*
X109510285Y-97560190D01*
X109510285Y-97415047D01*
X109461904Y-97221523D01*
X109413523Y-97124761D01*
X109316761Y-97028000D01*
X109171619Y-96979619D01*
X109074857Y-96979619D01*
X108929714Y-97028000D01*
X108881333Y-97076380D01*
X107913714Y-97995619D02*
X108494285Y-97995619D01*
X108204000Y-97995619D02*
X108204000Y-96979619D01*
X108300761Y-97124761D01*
X108397523Y-97221523D01*
X108494285Y-97269904D01*
X164888333Y-105010857D02*
X164936714Y-105059238D01*
X165081857Y-105107619D01*
X165178619Y-105107619D01*
X165323761Y-105059238D01*
X165420523Y-104962476D01*
X165468904Y-104865714D01*
X165517285Y-104672190D01*
X165517285Y-104527047D01*
X165468904Y-104333523D01*
X165420523Y-104236761D01*
X165323761Y-104140000D01*
X165178619Y-104091619D01*
X165081857Y-104091619D01*
X164936714Y-104140000D01*
X164888333Y-104188380D01*
X164501285Y-104188380D02*
X164452904Y-104140000D01*
X164356142Y-104091619D01*
X164114238Y-104091619D01*
X164017476Y-104140000D01*
X163969095Y-104188380D01*
X163920714Y-104285142D01*
X163920714Y-104381904D01*
X163969095Y-104527047D01*
X164549666Y-105107619D01*
X163920714Y-105107619D01*
X144949333Y-100946857D02*
X144997714Y-100995238D01*
X145142857Y-101043619D01*
X145239619Y-101043619D01*
X145384761Y-100995238D01*
X145481523Y-100898476D01*
X145529904Y-100801714D01*
X145578285Y-100608190D01*
X145578285Y-100463047D01*
X145529904Y-100269523D01*
X145481523Y-100172761D01*
X145384761Y-100076000D01*
X145239619Y-100027619D01*
X145142857Y-100027619D01*
X144997714Y-100076000D01*
X144949333Y-100124380D01*
X144610666Y-100027619D02*
X143981714Y-100027619D01*
X144320380Y-100414666D01*
X144175238Y-100414666D01*
X144078476Y-100463047D01*
X144030095Y-100511428D01*
X143981714Y-100608190D01*
X143981714Y-100850095D01*
X144030095Y-100946857D01*
X144078476Y-100995238D01*
X144175238Y-101043619D01*
X144465523Y-101043619D01*
X144562285Y-100995238D01*
X144610666Y-100946857D01*
X151045333Y-100946857D02*
X151093714Y-100995238D01*
X151238857Y-101043619D01*
X151335619Y-101043619D01*
X151480761Y-100995238D01*
X151577523Y-100898476D01*
X151625904Y-100801714D01*
X151674285Y-100608190D01*
X151674285Y-100463047D01*
X151625904Y-100269523D01*
X151577523Y-100172761D01*
X151480761Y-100076000D01*
X151335619Y-100027619D01*
X151238857Y-100027619D01*
X151093714Y-100076000D01*
X151045333Y-100124380D01*
X150174476Y-100366285D02*
X150174476Y-101043619D01*
X150416380Y-99979238D02*
X150658285Y-100704952D01*
X150029333Y-100704952D01*
X164761333Y-110598857D02*
X164809714Y-110647238D01*
X164954857Y-110695619D01*
X165051619Y-110695619D01*
X165196761Y-110647238D01*
X165293523Y-110550476D01*
X165341904Y-110453714D01*
X165390285Y-110260190D01*
X165390285Y-110115047D01*
X165341904Y-109921523D01*
X165293523Y-109824761D01*
X165196761Y-109728000D01*
X165051619Y-109679619D01*
X164954857Y-109679619D01*
X164809714Y-109728000D01*
X164761333Y-109776380D01*
X163842095Y-109679619D02*
X164325904Y-109679619D01*
X164374285Y-110163428D01*
X164325904Y-110115047D01*
X164229142Y-110066666D01*
X163987238Y-110066666D01*
X163890476Y-110115047D01*
X163842095Y-110163428D01*
X163793714Y-110260190D01*
X163793714Y-110502095D01*
X163842095Y-110598857D01*
X163890476Y-110647238D01*
X163987238Y-110695619D01*
X164229142Y-110695619D01*
X164325904Y-110647238D01*
X164374285Y-110598857D01*
X147743333Y-95358857D02*
X147791714Y-95407238D01*
X147936857Y-95455619D01*
X148033619Y-95455619D01*
X148178761Y-95407238D01*
X148275523Y-95310476D01*
X148323904Y-95213714D01*
X148372285Y-95020190D01*
X148372285Y-94875047D01*
X148323904Y-94681523D01*
X148275523Y-94584761D01*
X148178761Y-94488000D01*
X148033619Y-94439619D01*
X147936857Y-94439619D01*
X147791714Y-94488000D01*
X147743333Y-94536380D01*
X146872476Y-94439619D02*
X147066000Y-94439619D01*
X147162761Y-94488000D01*
X147211142Y-94536380D01*
X147307904Y-94681523D01*
X147356285Y-94875047D01*
X147356285Y-95262095D01*
X147307904Y-95358857D01*
X147259523Y-95407238D01*
X147162761Y-95455619D01*
X146969238Y-95455619D01*
X146872476Y-95407238D01*
X146824095Y-95358857D01*
X146775714Y-95262095D01*
X146775714Y-95020190D01*
X146824095Y-94923428D01*
X146872476Y-94875047D01*
X146969238Y-94826666D01*
X147162761Y-94826666D01*
X147259523Y-94875047D01*
X147307904Y-94923428D01*
X147356285Y-95020190D01*
X150476857Y-95080666D02*
X150525238Y-95032285D01*
X150573619Y-94887142D01*
X150573619Y-94790380D01*
X150525238Y-94645238D01*
X150428476Y-94548476D01*
X150331714Y-94500095D01*
X150138190Y-94451714D01*
X149993047Y-94451714D01*
X149799523Y-94500095D01*
X149702761Y-94548476D01*
X149606000Y-94645238D01*
X149557619Y-94790380D01*
X149557619Y-94887142D01*
X149606000Y-95032285D01*
X149654380Y-95080666D01*
X149557619Y-95419333D02*
X149557619Y-96096666D01*
X150573619Y-95661238D01*
X152508857Y-95080666D02*
X152557238Y-95032285D01*
X152605619Y-94887142D01*
X152605619Y-94790380D01*
X152557238Y-94645238D01*
X152460476Y-94548476D01*
X152363714Y-94500095D01*
X152170190Y-94451714D01*
X152025047Y-94451714D01*
X151831523Y-94500095D01*
X151734761Y-94548476D01*
X151638000Y-94645238D01*
X151589619Y-94790380D01*
X151589619Y-94887142D01*
X151638000Y-95032285D01*
X151686380Y-95080666D01*
X152025047Y-95661238D02*
X151976666Y-95564476D01*
X151928285Y-95516095D01*
X151831523Y-95467714D01*
X151783142Y-95467714D01*
X151686380Y-95516095D01*
X151638000Y-95564476D01*
X151589619Y-95661238D01*
X151589619Y-95854761D01*
X151638000Y-95951523D01*
X151686380Y-95999904D01*
X151783142Y-96048285D01*
X151831523Y-96048285D01*
X151928285Y-95999904D01*
X151976666Y-95951523D01*
X152025047Y-95854761D01*
X152025047Y-95661238D01*
X152073428Y-95564476D01*
X152121809Y-95516095D01*
X152218571Y-95467714D01*
X152412095Y-95467714D01*
X152508857Y-95516095D01*
X152557238Y-95564476D01*
X152605619Y-95661238D01*
X152605619Y-95854761D01*
X152557238Y-95951523D01*
X152508857Y-95999904D01*
X152412095Y-96048285D01*
X152218571Y-96048285D01*
X152121809Y-95999904D01*
X152073428Y-95951523D01*
X152025047Y-95854761D01*
X156633333Y-113392857D02*
X156681714Y-113441238D01*
X156826857Y-113489619D01*
X156923619Y-113489619D01*
X157068761Y-113441238D01*
X157165523Y-113344476D01*
X157213904Y-113247714D01*
X157262285Y-113054190D01*
X157262285Y-112909047D01*
X157213904Y-112715523D01*
X157165523Y-112618761D01*
X157068761Y-112522000D01*
X156923619Y-112473619D01*
X156826857Y-112473619D01*
X156681714Y-112522000D01*
X156633333Y-112570380D01*
X156149523Y-113489619D02*
X155956000Y-113489619D01*
X155859238Y-113441238D01*
X155810857Y-113392857D01*
X155714095Y-113247714D01*
X155665714Y-113054190D01*
X155665714Y-112667142D01*
X155714095Y-112570380D01*
X155762476Y-112522000D01*
X155859238Y-112473619D01*
X156052761Y-112473619D01*
X156149523Y-112522000D01*
X156197904Y-112570380D01*
X156246285Y-112667142D01*
X156246285Y-112909047D01*
X156197904Y-113005809D01*
X156149523Y-113054190D01*
X156052761Y-113102571D01*
X155859238Y-113102571D01*
X155762476Y-113054190D01*
X155714095Y-113005809D01*
X155665714Y-112909047D01*
X154540857Y-108820857D02*
X154589238Y-108772476D01*
X154637619Y-108627333D01*
X154637619Y-108530571D01*
X154589238Y-108385428D01*
X154492476Y-108288666D01*
X154395714Y-108240285D01*
X154202190Y-108191904D01*
X154057047Y-108191904D01*
X153863523Y-108240285D01*
X153766761Y-108288666D01*
X153670000Y-108385428D01*
X153621619Y-108530571D01*
X153621619Y-108627333D01*
X153670000Y-108772476D01*
X153718380Y-108820857D01*
X154637619Y-109788476D02*
X154637619Y-109207904D01*
X154637619Y-109498190D02*
X153621619Y-109498190D01*
X153766761Y-109401428D01*
X153863523Y-109304666D01*
X153911904Y-109207904D01*
X153621619Y-110417428D02*
X153621619Y-110514190D01*
X153670000Y-110610952D01*
X153718380Y-110659333D01*
X153815142Y-110707714D01*
X154008666Y-110756095D01*
X154250571Y-110756095D01*
X154444095Y-110707714D01*
X154540857Y-110659333D01*
X154589238Y-110610952D01*
X154637619Y-110514190D01*
X154637619Y-110417428D01*
X154589238Y-110320666D01*
X154540857Y-110272285D01*
X154444095Y-110223904D01*
X154250571Y-110175523D01*
X154008666Y-110175523D01*
X153815142Y-110223904D01*
X153718380Y-110272285D01*
X153670000Y-110320666D01*
X153621619Y-110417428D01*
X154540857Y-105264857D02*
X154589238Y-105216476D01*
X154637619Y-105071333D01*
X154637619Y-104974571D01*
X154589238Y-104829428D01*
X154492476Y-104732666D01*
X154395714Y-104684285D01*
X154202190Y-104635904D01*
X154057047Y-104635904D01*
X153863523Y-104684285D01*
X153766761Y-104732666D01*
X153670000Y-104829428D01*
X153621619Y-104974571D01*
X153621619Y-105071333D01*
X153670000Y-105216476D01*
X153718380Y-105264857D01*
X154637619Y-106232476D02*
X154637619Y-105651904D01*
X154637619Y-105942190D02*
X153621619Y-105942190D01*
X153766761Y-105845428D01*
X153863523Y-105748666D01*
X153911904Y-105651904D01*
X154637619Y-107200095D02*
X154637619Y-106619523D01*
X154637619Y-106909809D02*
X153621619Y-106909809D01*
X153766761Y-106813047D01*
X153863523Y-106716285D01*
X153911904Y-106619523D01*
X170161857Y-90913857D02*
X170210238Y-90865476D01*
X170258619Y-90720333D01*
X170258619Y-90623571D01*
X170210238Y-90478428D01*
X170113476Y-90381666D01*
X170016714Y-90333285D01*
X169823190Y-90284904D01*
X169678047Y-90284904D01*
X169484523Y-90333285D01*
X169387761Y-90381666D01*
X169291000Y-90478428D01*
X169242619Y-90623571D01*
X169242619Y-90720333D01*
X169291000Y-90865476D01*
X169339380Y-90913857D01*
X170258619Y-91881476D02*
X170258619Y-91300904D01*
X170258619Y-91591190D02*
X169242619Y-91591190D01*
X169387761Y-91494428D01*
X169484523Y-91397666D01*
X169532904Y-91300904D01*
X169339380Y-92268523D02*
X169291000Y-92316904D01*
X169242619Y-92413666D01*
X169242619Y-92655571D01*
X169291000Y-92752333D01*
X169339380Y-92800714D01*
X169436142Y-92849095D01*
X169532904Y-92849095D01*
X169678047Y-92800714D01*
X170258619Y-92220142D01*
X170258619Y-92849095D01*
X162705142Y-86976857D02*
X162753523Y-87025238D01*
X162898666Y-87073619D01*
X162995428Y-87073619D01*
X163140571Y-87025238D01*
X163237333Y-86928476D01*
X163285714Y-86831714D01*
X163334095Y-86638190D01*
X163334095Y-86493047D01*
X163285714Y-86299523D01*
X163237333Y-86202761D01*
X163140571Y-86106000D01*
X162995428Y-86057619D01*
X162898666Y-86057619D01*
X162753523Y-86106000D01*
X162705142Y-86154380D01*
X161737523Y-87073619D02*
X162318095Y-87073619D01*
X162027809Y-87073619D02*
X162027809Y-86057619D01*
X162124571Y-86202761D01*
X162221333Y-86299523D01*
X162318095Y-86347904D01*
X161398857Y-86057619D02*
X160769904Y-86057619D01*
X161108571Y-86444666D01*
X160963428Y-86444666D01*
X160866666Y-86493047D01*
X160818285Y-86541428D01*
X160769904Y-86638190D01*
X160769904Y-86880095D01*
X160818285Y-86976857D01*
X160866666Y-87025238D01*
X160963428Y-87073619D01*
X161253714Y-87073619D01*
X161350476Y-87025238D01*
X161398857Y-86976857D01*
X159366142Y-90786857D02*
X159414523Y-90835238D01*
X159559666Y-90883619D01*
X159656428Y-90883619D01*
X159801571Y-90835238D01*
X159898333Y-90738476D01*
X159946714Y-90641714D01*
X159995095Y-90448190D01*
X159995095Y-90303047D01*
X159946714Y-90109523D01*
X159898333Y-90012761D01*
X159801571Y-89916000D01*
X159656428Y-89867619D01*
X159559666Y-89867619D01*
X159414523Y-89916000D01*
X159366142Y-89964380D01*
X158398523Y-90883619D02*
X158979095Y-90883619D01*
X158688809Y-90883619D02*
X158688809Y-89867619D01*
X158785571Y-90012761D01*
X158882333Y-90109523D01*
X158979095Y-90157904D01*
X157527666Y-90206285D02*
X157527666Y-90883619D01*
X157769571Y-89819238D02*
X158011476Y-90544952D01*
X157382523Y-90544952D01*
X172006380Y-102519238D02*
X171958000Y-102422476D01*
X171861238Y-102325714D01*
X171716095Y-102180571D01*
X171667714Y-102083809D01*
X171667714Y-101987047D01*
X171909619Y-102035428D02*
X171861238Y-101938666D01*
X171764476Y-101841904D01*
X171570952Y-101793523D01*
X171232285Y-101793523D01*
X171038761Y-101841904D01*
X170942000Y-101938666D01*
X170893619Y-102035428D01*
X170893619Y-102228952D01*
X170942000Y-102325714D01*
X171038761Y-102422476D01*
X171232285Y-102470857D01*
X171570952Y-102470857D01*
X171764476Y-102422476D01*
X171861238Y-102325714D01*
X171909619Y-102228952D01*
X171909619Y-102035428D01*
X171909619Y-103438476D02*
X171909619Y-102857904D01*
X171909619Y-103148190D02*
X170893619Y-103148190D01*
X171038761Y-103051428D01*
X171135523Y-102954666D01*
X171183904Y-102857904D01*
X162257619Y-107018666D02*
X161773809Y-106680000D01*
X162257619Y-106438095D02*
X161241619Y-106438095D01*
X161241619Y-106825142D01*
X161290000Y-106921904D01*
X161338380Y-106970285D01*
X161435142Y-107018666D01*
X161580285Y-107018666D01*
X161677047Y-106970285D01*
X161725428Y-106921904D01*
X161773809Y-106825142D01*
X161773809Y-106438095D01*
X162257619Y-107986285D02*
X162257619Y-107405714D01*
X162257619Y-107696000D02*
X161241619Y-107696000D01*
X161386761Y-107599238D01*
X161483523Y-107502476D01*
X161531904Y-107405714D01*
X167428333Y-108155619D02*
X167767000Y-107671809D01*
X168008904Y-108155619D02*
X168008904Y-107139619D01*
X167621857Y-107139619D01*
X167525095Y-107188000D01*
X167476714Y-107236380D01*
X167428333Y-107333142D01*
X167428333Y-107478285D01*
X167476714Y-107575047D01*
X167525095Y-107623428D01*
X167621857Y-107671809D01*
X168008904Y-107671809D01*
X167089666Y-107139619D02*
X166460714Y-107139619D01*
X166799380Y-107526666D01*
X166654238Y-107526666D01*
X166557476Y-107575047D01*
X166509095Y-107623428D01*
X166460714Y-107720190D01*
X166460714Y-107962095D01*
X166509095Y-108058857D01*
X166557476Y-108107238D01*
X166654238Y-108155619D01*
X166944523Y-108155619D01*
X167041285Y-108107238D01*
X167089666Y-108058857D01*
X171365333Y-99519619D02*
X171704000Y-99035809D01*
X171945904Y-99519619D02*
X171945904Y-98503619D01*
X171558857Y-98503619D01*
X171462095Y-98552000D01*
X171413714Y-98600380D01*
X171365333Y-98697142D01*
X171365333Y-98842285D01*
X171413714Y-98939047D01*
X171462095Y-98987428D01*
X171558857Y-99035809D01*
X171945904Y-99035809D01*
X170881523Y-99519619D02*
X170688000Y-99519619D01*
X170591238Y-99471238D01*
X170542857Y-99422857D01*
X170446095Y-99277714D01*
X170397714Y-99084190D01*
X170397714Y-98697142D01*
X170446095Y-98600380D01*
X170494476Y-98552000D01*
X170591238Y-98503619D01*
X170784761Y-98503619D01*
X170881523Y-98552000D01*
X170929904Y-98600380D01*
X170978285Y-98697142D01*
X170978285Y-98939047D01*
X170929904Y-99035809D01*
X170881523Y-99084190D01*
X170784761Y-99132571D01*
X170591238Y-99132571D01*
X170494476Y-99084190D01*
X170446095Y-99035809D01*
X170397714Y-98939047D01*
X109365142Y-104345619D02*
X109703809Y-103861809D01*
X109945714Y-104345619D02*
X109945714Y-103329619D01*
X109558666Y-103329619D01*
X109461904Y-103378000D01*
X109413523Y-103426380D01*
X109365142Y-103523142D01*
X109365142Y-103668285D01*
X109413523Y-103765047D01*
X109461904Y-103813428D01*
X109558666Y-103861809D01*
X109945714Y-103861809D01*
X108397523Y-104345619D02*
X108978095Y-104345619D01*
X108687809Y-104345619D02*
X108687809Y-103329619D01*
X108784571Y-103474761D01*
X108881333Y-103571523D01*
X108978095Y-103619904D01*
X108058857Y-103329619D02*
X107429904Y-103329619D01*
X107768571Y-103716666D01*
X107623428Y-103716666D01*
X107526666Y-103765047D01*
X107478285Y-103813428D01*
X107429904Y-103910190D01*
X107429904Y-104152095D01*
X107478285Y-104248857D01*
X107526666Y-104297238D01*
X107623428Y-104345619D01*
X107913714Y-104345619D01*
X108010476Y-104297238D01*
X108058857Y-104248857D01*
X148354142Y-101043619D02*
X148692809Y-100559809D01*
X148934714Y-101043619D02*
X148934714Y-100027619D01*
X148547666Y-100027619D01*
X148450904Y-100076000D01*
X148402523Y-100124380D01*
X148354142Y-100221142D01*
X148354142Y-100366285D01*
X148402523Y-100463047D01*
X148450904Y-100511428D01*
X148547666Y-100559809D01*
X148934714Y-100559809D01*
X147967095Y-100124380D02*
X147918714Y-100076000D01*
X147821952Y-100027619D01*
X147580047Y-100027619D01*
X147483285Y-100076000D01*
X147434904Y-100124380D01*
X147386523Y-100221142D01*
X147386523Y-100317904D01*
X147434904Y-100463047D01*
X148015476Y-101043619D01*
X147386523Y-101043619D01*
X146999476Y-100124380D02*
X146951095Y-100076000D01*
X146854333Y-100027619D01*
X146612428Y-100027619D01*
X146515666Y-100076000D01*
X146467285Y-100124380D01*
X146418904Y-100221142D01*
X146418904Y-100317904D01*
X146467285Y-100463047D01*
X147047857Y-101043619D01*
X146418904Y-101043619D01*
X194582142Y-100789619D02*
X194920809Y-100305809D01*
X195162714Y-100789619D02*
X195162714Y-99773619D01*
X194775666Y-99773619D01*
X194678904Y-99822000D01*
X194630523Y-99870380D01*
X194582142Y-99967142D01*
X194582142Y-100112285D01*
X194630523Y-100209047D01*
X194678904Y-100257428D01*
X194775666Y-100305809D01*
X195162714Y-100305809D01*
X194195095Y-99870380D02*
X194146714Y-99822000D01*
X194049952Y-99773619D01*
X193808047Y-99773619D01*
X193711285Y-99822000D01*
X193662904Y-99870380D01*
X193614523Y-99967142D01*
X193614523Y-100063904D01*
X193662904Y-100209047D01*
X194243476Y-100789619D01*
X193614523Y-100789619D01*
X193275857Y-99773619D02*
X192646904Y-99773619D01*
X192985571Y-100160666D01*
X192840428Y-100160666D01*
X192743666Y-100209047D01*
X192695285Y-100257428D01*
X192646904Y-100354190D01*
X192646904Y-100596095D01*
X192695285Y-100692857D01*
X192743666Y-100741238D01*
X192840428Y-100789619D01*
X193130714Y-100789619D01*
X193227476Y-100741238D01*
X193275857Y-100692857D01*
X194582142Y-102440619D02*
X194920809Y-101956809D01*
X195162714Y-102440619D02*
X195162714Y-101424619D01*
X194775666Y-101424619D01*
X194678904Y-101473000D01*
X194630523Y-101521380D01*
X194582142Y-101618142D01*
X194582142Y-101763285D01*
X194630523Y-101860047D01*
X194678904Y-101908428D01*
X194775666Y-101956809D01*
X195162714Y-101956809D01*
X194195095Y-101521380D02*
X194146714Y-101473000D01*
X194049952Y-101424619D01*
X193808047Y-101424619D01*
X193711285Y-101473000D01*
X193662904Y-101521380D01*
X193614523Y-101618142D01*
X193614523Y-101714904D01*
X193662904Y-101860047D01*
X194243476Y-102440619D01*
X193614523Y-102440619D01*
X192743666Y-101763285D02*
X192743666Y-102440619D01*
X192985571Y-101376238D02*
X193227476Y-102101952D01*
X192598523Y-102101952D01*
X175659142Y-117807619D02*
X175997809Y-117323809D01*
X176239714Y-117807619D02*
X176239714Y-116791619D01*
X175852666Y-116791619D01*
X175755904Y-116840000D01*
X175707523Y-116888380D01*
X175659142Y-116985142D01*
X175659142Y-117130285D01*
X175707523Y-117227047D01*
X175755904Y-117275428D01*
X175852666Y-117323809D01*
X176239714Y-117323809D01*
X175272095Y-116888380D02*
X175223714Y-116840000D01*
X175126952Y-116791619D01*
X174885047Y-116791619D01*
X174788285Y-116840000D01*
X174739904Y-116888380D01*
X174691523Y-116985142D01*
X174691523Y-117081904D01*
X174739904Y-117227047D01*
X175320476Y-117807619D01*
X174691523Y-117807619D01*
X173820666Y-116791619D02*
X174014190Y-116791619D01*
X174110952Y-116840000D01*
X174159333Y-116888380D01*
X174256095Y-117033523D01*
X174304476Y-117227047D01*
X174304476Y-117614095D01*
X174256095Y-117710857D01*
X174207714Y-117759238D01*
X174110952Y-117807619D01*
X173917428Y-117807619D01*
X173820666Y-117759238D01*
X173772285Y-117710857D01*
X173723904Y-117614095D01*
X173723904Y-117372190D01*
X173772285Y-117275428D01*
X173820666Y-117227047D01*
X173917428Y-117178666D01*
X174110952Y-117178666D01*
X174207714Y-117227047D01*
X174256095Y-117275428D01*
X174304476Y-117372190D01*
X175973619Y-125838857D02*
X175489809Y-125500190D01*
X175973619Y-125258285D02*
X174957619Y-125258285D01*
X174957619Y-125645333D01*
X175006000Y-125742095D01*
X175054380Y-125790476D01*
X175151142Y-125838857D01*
X175296285Y-125838857D01*
X175393047Y-125790476D01*
X175441428Y-125742095D01*
X175489809Y-125645333D01*
X175489809Y-125258285D01*
X175054380Y-126225904D02*
X175006000Y-126274285D01*
X174957619Y-126371047D01*
X174957619Y-126612952D01*
X175006000Y-126709714D01*
X175054380Y-126758095D01*
X175151142Y-126806476D01*
X175247904Y-126806476D01*
X175393047Y-126758095D01*
X175973619Y-126177523D01*
X175973619Y-126806476D01*
X174957619Y-127145142D02*
X174957619Y-127822476D01*
X175973619Y-127387047D01*
X188359142Y-103837619D02*
X188697809Y-103353809D01*
X188939714Y-103837619D02*
X188939714Y-102821619D01*
X188552666Y-102821619D01*
X188455904Y-102870000D01*
X188407523Y-102918380D01*
X188359142Y-103015142D01*
X188359142Y-103160285D01*
X188407523Y-103257047D01*
X188455904Y-103305428D01*
X188552666Y-103353809D01*
X188939714Y-103353809D01*
X187972095Y-102918380D02*
X187923714Y-102870000D01*
X187826952Y-102821619D01*
X187585047Y-102821619D01*
X187488285Y-102870000D01*
X187439904Y-102918380D01*
X187391523Y-103015142D01*
X187391523Y-103111904D01*
X187439904Y-103257047D01*
X188020476Y-103837619D01*
X187391523Y-103837619D01*
X186810952Y-103257047D02*
X186907714Y-103208666D01*
X186956095Y-103160285D01*
X187004476Y-103063523D01*
X187004476Y-103015142D01*
X186956095Y-102918380D01*
X186907714Y-102870000D01*
X186810952Y-102821619D01*
X186617428Y-102821619D01*
X186520666Y-102870000D01*
X186472285Y-102918380D01*
X186423904Y-103015142D01*
X186423904Y-103063523D01*
X186472285Y-103160285D01*
X186520666Y-103208666D01*
X186617428Y-103257047D01*
X186810952Y-103257047D01*
X186907714Y-103305428D01*
X186956095Y-103353809D01*
X187004476Y-103450571D01*
X187004476Y-103644095D01*
X186956095Y-103740857D01*
X186907714Y-103789238D01*
X186810952Y-103837619D01*
X186617428Y-103837619D01*
X186520666Y-103789238D01*
X186472285Y-103740857D01*
X186423904Y-103644095D01*
X186423904Y-103450571D01*
X186472285Y-103353809D01*
X186520666Y-103305428D01*
X186617428Y-103257047D01*
X103583619Y-95491904D02*
X104406095Y-95491904D01*
X104502857Y-95540285D01*
X104551238Y-95588666D01*
X104599619Y-95685428D01*
X104599619Y-95878952D01*
X104551238Y-95975714D01*
X104502857Y-96024095D01*
X104406095Y-96072476D01*
X103583619Y-96072476D01*
X104599619Y-97088476D02*
X104599619Y-96507904D01*
X104599619Y-96798190D02*
X103583619Y-96798190D01*
X103728761Y-96701428D01*
X103825523Y-96604666D01*
X103873904Y-96507904D01*
X163273619Y-92697904D02*
X164096095Y-92697904D01*
X164192857Y-92746285D01*
X164241238Y-92794666D01*
X164289619Y-92891428D01*
X164289619Y-93084952D01*
X164241238Y-93181714D01*
X164192857Y-93230095D01*
X164096095Y-93278476D01*
X163273619Y-93278476D01*
X163273619Y-93665523D02*
X163273619Y-94294476D01*
X163660666Y-93955809D01*
X163660666Y-94100952D01*
X163709047Y-94197714D01*
X163757428Y-94246095D01*
X163854190Y-94294476D01*
X164096095Y-94294476D01*
X164192857Y-94246095D01*
X164241238Y-94197714D01*
X164289619Y-94100952D01*
X164289619Y-93810666D01*
X164241238Y-93713904D01*
X164192857Y-93665523D01*
X199932219Y-96623904D02*
X200754695Y-96623904D01*
X200851457Y-96672285D01*
X200899838Y-96720666D01*
X200948219Y-96817428D01*
X200948219Y-97010952D01*
X200899838Y-97107714D01*
X200851457Y-97156095D01*
X200754695Y-97204476D01*
X199932219Y-97204476D01*
X200270885Y-98123714D02*
X200948219Y-98123714D01*
X199883838Y-97881809D02*
X200609552Y-97639904D01*
X200609552Y-98268857D01*
X187906055Y-97995619D02*
X187906055Y-98818095D01*
X187857674Y-98914857D01*
X187809293Y-98963238D01*
X187712531Y-99011619D01*
X187519007Y-99011619D01*
X187422245Y-98963238D01*
X187373864Y-98914857D01*
X187325483Y-98818095D01*
X187325483Y-97995619D01*
X186357864Y-97995619D02*
X186841674Y-97995619D01*
X186890055Y-98479428D01*
X186841674Y-98431047D01*
X186744912Y-98382666D01*
X186503007Y-98382666D01*
X186406245Y-98431047D01*
X186357864Y-98479428D01*
X186309483Y-98576190D01*
X186309483Y-98818095D01*
X186357864Y-98914857D01*
X186406245Y-98963238D01*
X186503007Y-99011619D01*
X186744912Y-99011619D01*
X186841674Y-98963238D01*
X186890055Y-98914857D01*
X195688857Y-94850857D02*
X195737238Y-94802476D01*
X195785619Y-94657333D01*
X195785619Y-94560571D01*
X195737238Y-94415428D01*
X195640476Y-94318666D01*
X195543714Y-94270285D01*
X195350190Y-94221904D01*
X195205047Y-94221904D01*
X195011523Y-94270285D01*
X194914761Y-94318666D01*
X194818000Y-94415428D01*
X194769619Y-94560571D01*
X194769619Y-94657333D01*
X194818000Y-94802476D01*
X194866380Y-94850857D01*
X195785619Y-95818476D02*
X195785619Y-95237904D01*
X195785619Y-95528190D02*
X194769619Y-95528190D01*
X194914761Y-95431428D01*
X195011523Y-95334666D01*
X195059904Y-95237904D01*
X194769619Y-96737714D02*
X194769619Y-96253904D01*
X195253428Y-96205523D01*
X195205047Y-96253904D01*
X195156666Y-96350666D01*
X195156666Y-96592571D01*
X195205047Y-96689333D01*
X195253428Y-96737714D01*
X195350190Y-96786095D01*
X195592095Y-96786095D01*
X195688857Y-96737714D01*
X195737238Y-96689333D01*
X195785619Y-96592571D01*
X195785619Y-96350666D01*
X195737238Y-96253904D01*
X195688857Y-96205523D01*
X176608619Y-101866095D02*
X175592619Y-101866095D01*
X175592619Y-102253142D01*
X175641000Y-102349904D01*
X175689380Y-102398285D01*
X175786142Y-102446666D01*
X175931285Y-102446666D01*
X176028047Y-102398285D01*
X176076428Y-102349904D01*
X176124809Y-102253142D01*
X176124809Y-101866095D01*
X176608619Y-103414285D02*
X176608619Y-102833714D01*
X176608619Y-103124000D02*
X175592619Y-103124000D01*
X175737761Y-103027238D01*
X175834523Y-102930476D01*
X175882904Y-102833714D01*
X153149904Y-92661619D02*
X153149904Y-91645619D01*
X152762857Y-91645619D01*
X152666095Y-91694000D01*
X152617714Y-91742380D01*
X152569333Y-91839142D01*
X152569333Y-91984285D01*
X152617714Y-92081047D01*
X152666095Y-92129428D01*
X152762857Y-92177809D01*
X153149904Y-92177809D01*
X152182285Y-91742380D02*
X152133904Y-91694000D01*
X152037142Y-91645619D01*
X151795238Y-91645619D01*
X151698476Y-91694000D01*
X151650095Y-91742380D01*
X151601714Y-91839142D01*
X151601714Y-91935904D01*
X151650095Y-92081047D01*
X152230666Y-92661619D01*
X151601714Y-92661619D01*
X194043904Y-104599619D02*
X194043904Y-103583619D01*
X193656857Y-103583619D01*
X193560095Y-103632000D01*
X193511714Y-103680380D01*
X193463333Y-103777142D01*
X193463333Y-103922285D01*
X193511714Y-104019047D01*
X193560095Y-104067428D01*
X193656857Y-104115809D01*
X194043904Y-104115809D01*
X192592476Y-103922285D02*
X192592476Y-104599619D01*
X192834380Y-103535238D02*
X193076285Y-104260952D01*
X192447333Y-104260952D01*
X194043904Y-107393619D02*
X194043904Y-106377619D01*
X193656857Y-106377619D01*
X193560095Y-106426000D01*
X193511714Y-106474380D01*
X193463333Y-106571142D01*
X193463333Y-106716285D01*
X193511714Y-106813047D01*
X193560095Y-106861428D01*
X193656857Y-106909809D01*
X194043904Y-106909809D01*
X192544095Y-106377619D02*
X193027904Y-106377619D01*
X193076285Y-106861428D01*
X193027904Y-106813047D01*
X192931142Y-106764666D01*
X192689238Y-106764666D01*
X192592476Y-106813047D01*
X192544095Y-106861428D01*
X192495714Y-106958190D01*
X192495714Y-107200095D01*
X192544095Y-107296857D01*
X192592476Y-107345238D01*
X192689238Y-107393619D01*
X192931142Y-107393619D01*
X193027904Y-107345238D01*
X193076285Y-107296857D01*
X180388380Y-124871238D02*
X180340000Y-124774476D01*
X180243238Y-124677714D01*
X180098095Y-124532571D01*
X180049714Y-124435809D01*
X180049714Y-124339047D01*
X180291619Y-124387428D02*
X180243238Y-124290666D01*
X180146476Y-124193904D01*
X179952952Y-124145523D01*
X179614285Y-124145523D01*
X179420761Y-124193904D01*
X179324000Y-124290666D01*
X179275619Y-124387428D01*
X179275619Y-124580952D01*
X179324000Y-124677714D01*
X179420761Y-124774476D01*
X179614285Y-124822857D01*
X179952952Y-124822857D01*
X180146476Y-124774476D01*
X180243238Y-124677714D01*
X180291619Y-124580952D01*
X180291619Y-124387428D01*
X179275619Y-125161523D02*
X179275619Y-125790476D01*
X179662666Y-125451809D01*
X179662666Y-125596952D01*
X179711047Y-125693714D01*
X179759428Y-125742095D01*
X179856190Y-125790476D01*
X180098095Y-125790476D01*
X180194857Y-125742095D01*
X180243238Y-125693714D01*
X180291619Y-125596952D01*
X180291619Y-125306666D01*
X180243238Y-125209904D01*
X180194857Y-125161523D01*
X152605619Y-84436857D02*
X152121809Y-84098190D01*
X152605619Y-83856285D02*
X151589619Y-83856285D01*
X151589619Y-84243333D01*
X151638000Y-84340095D01*
X151686380Y-84388476D01*
X151783142Y-84436857D01*
X151928285Y-84436857D01*
X152025047Y-84388476D01*
X152073428Y-84340095D01*
X152121809Y-84243333D01*
X152121809Y-83856285D01*
X151589619Y-84775523D02*
X151589619Y-85404476D01*
X151976666Y-85065809D01*
X151976666Y-85210952D01*
X152025047Y-85307714D01*
X152073428Y-85356095D01*
X152170190Y-85404476D01*
X152412095Y-85404476D01*
X152508857Y-85356095D01*
X152557238Y-85307714D01*
X152605619Y-85210952D01*
X152605619Y-84920666D01*
X152557238Y-84823904D01*
X152508857Y-84775523D01*
X152605619Y-86372095D02*
X152605619Y-85791523D01*
X152605619Y-86081809D02*
X151589619Y-86081809D01*
X151734761Y-85985047D01*
X151831523Y-85888285D01*
X151879904Y-85791523D01*
X156923619Y-84436857D02*
X156439809Y-84098190D01*
X156923619Y-83856285D02*
X155907619Y-83856285D01*
X155907619Y-84243333D01*
X155956000Y-84340095D01*
X156004380Y-84388476D01*
X156101142Y-84436857D01*
X156246285Y-84436857D01*
X156343047Y-84388476D01*
X156391428Y-84340095D01*
X156439809Y-84243333D01*
X156439809Y-83856285D01*
X155907619Y-84775523D02*
X155907619Y-85404476D01*
X156294666Y-85065809D01*
X156294666Y-85210952D01*
X156343047Y-85307714D01*
X156391428Y-85356095D01*
X156488190Y-85404476D01*
X156730095Y-85404476D01*
X156826857Y-85356095D01*
X156875238Y-85307714D01*
X156923619Y-85210952D01*
X156923619Y-84920666D01*
X156875238Y-84823904D01*
X156826857Y-84775523D01*
X156004380Y-85791523D02*
X155956000Y-85839904D01*
X155907619Y-85936666D01*
X155907619Y-86178571D01*
X155956000Y-86275333D01*
X156004380Y-86323714D01*
X156101142Y-86372095D01*
X156197904Y-86372095D01*
X156343047Y-86323714D01*
X156923619Y-85743142D01*
X156923619Y-86372095D01*
X182021238Y-118351904D02*
X182069619Y-118497047D01*
X182069619Y-118738952D01*
X182021238Y-118835714D01*
X181972857Y-118884095D01*
X181876095Y-118932476D01*
X181779333Y-118932476D01*
X181682571Y-118884095D01*
X181634190Y-118835714D01*
X181585809Y-118738952D01*
X181537428Y-118545428D01*
X181489047Y-118448666D01*
X181440666Y-118400285D01*
X181343904Y-118351904D01*
X181247142Y-118351904D01*
X181150380Y-118400285D01*
X181102000Y-118448666D01*
X181053619Y-118545428D01*
X181053619Y-118787333D01*
X181102000Y-118932476D01*
X182069619Y-119367904D02*
X181053619Y-119367904D01*
X181053619Y-119754952D01*
X181102000Y-119851714D01*
X181150380Y-119900095D01*
X181247142Y-119948476D01*
X181392285Y-119948476D01*
X181489047Y-119900095D01*
X181537428Y-119851714D01*
X181585809Y-119754952D01*
X181585809Y-119367904D01*
X182069619Y-120916095D02*
X182069619Y-120335523D01*
X182069619Y-120625809D02*
X181053619Y-120625809D01*
X181198761Y-120529047D01*
X181295523Y-120432285D01*
X181343904Y-120335523D01*
X183587571Y-115182952D02*
X183587571Y-115957047D01*
X183974619Y-115570000D02*
X183200523Y-115570000D01*
X188879238Y-105071333D02*
X188927619Y-105216476D01*
X188927619Y-105458380D01*
X188879238Y-105555142D01*
X188830857Y-105603523D01*
X188734095Y-105651904D01*
X188637333Y-105651904D01*
X188540571Y-105603523D01*
X188492190Y-105555142D01*
X188443809Y-105458380D01*
X188395428Y-105264857D01*
X188347047Y-105168095D01*
X188298666Y-105119714D01*
X188201904Y-105071333D01*
X188105142Y-105071333D01*
X188008380Y-105119714D01*
X187960000Y-105168095D01*
X187911619Y-105264857D01*
X187911619Y-105506761D01*
X187960000Y-105651904D01*
X187911619Y-105990571D02*
X188927619Y-106232476D01*
X188201904Y-106426000D01*
X188927619Y-106619523D01*
X187911619Y-106861428D01*
X188008380Y-107200095D02*
X187960000Y-107248476D01*
X187911619Y-107345238D01*
X187911619Y-107587142D01*
X187960000Y-107683904D01*
X188008380Y-107732285D01*
X188105142Y-107780666D01*
X188201904Y-107780666D01*
X188347047Y-107732285D01*
X188927619Y-107151714D01*
X188927619Y-107780666D01*
X151359809Y-109957809D02*
X151359809Y-110441619D01*
X151698476Y-109425619D02*
X151359809Y-109957809D01*
X151021142Y-109425619D01*
X150150285Y-110441619D02*
X150730857Y-110441619D01*
X150440571Y-110441619D02*
X150440571Y-109425619D01*
X150537333Y-109570761D01*
X150634095Y-109667523D01*
X150730857Y-109715904D01*
%LPC*%
D22*
X125838000Y-97492000D03*
X126338000Y-97492000D03*
X126838000Y-97492000D03*
X127338000Y-97492000D03*
X127838000Y-97492000D03*
X128338000Y-97492000D03*
X128838000Y-97492000D03*
X129338000Y-97492000D03*
X129838000Y-97492000D03*
X130338000Y-97492000D03*
X130838000Y-97492000D03*
X131338000Y-97492000D03*
X131838000Y-97492000D03*
X132338000Y-97492000D03*
X132838000Y-97492000D03*
X133338000Y-97492000D03*
X133838000Y-97492000D03*
X134338000Y-97492000D03*
X134838000Y-97492000D03*
X135338000Y-97492000D03*
X135838000Y-97492000D03*
X136338000Y-97492000D03*
X136838000Y-97492000D03*
X137338000Y-97492000D03*
X137838000Y-97492000D03*
X138338000Y-97492000D03*
X138838000Y-97492000D03*
X139338000Y-97492000D03*
X139338000Y-104752000D03*
X138838000Y-104752000D03*
X138338000Y-104752000D03*
X137838000Y-104752000D03*
X137338000Y-104752000D03*
X136838000Y-104752000D03*
X136338000Y-104752000D03*
X135838000Y-104752000D03*
X135338000Y-104752000D03*
X134838000Y-104752000D03*
X134338000Y-104752000D03*
X133838000Y-104752000D03*
X133338000Y-104752000D03*
X132838000Y-104752000D03*
X132338000Y-104752000D03*
X131838000Y-104752000D03*
X131338000Y-104752000D03*
X130838000Y-104752000D03*
X130338000Y-104752000D03*
X129838000Y-104752000D03*
X129338000Y-104752000D03*
X128838000Y-104752000D03*
X128338000Y-104752000D03*
X127838000Y-104752000D03*
X127338000Y-104752000D03*
X126838000Y-104752000D03*
X126338000Y-104752000D03*
X125838000Y-104752000D03*
D23*
X167883840Y-85852000D03*
X166380160Y-85852000D03*
X166380160Y-88138000D03*
X167883840Y-88138000D03*
X185409840Y-97282000D03*
X183906160Y-97282000D03*
D24*
X169773600Y-124637800D03*
X169773600Y-80365600D03*
X133756400Y-80416400D03*
X133731000Y-124637800D03*
D25*
X190500000Y-125730000D03*
X190500000Y-79375000D03*
X139700000Y-79375000D03*
X164465000Y-79375000D03*
X164465000Y-125730000D03*
X113665000Y-125730000D03*
X139700000Y-125730000D03*
X113665000Y-79375000D03*
D26*
X183594000Y-81026000D03*
X181594000Y-81026000D03*
X179594000Y-81026000D03*
D27*
X177594000Y-81026000D03*
X151686000Y-81534000D03*
D26*
X153686000Y-81534000D03*
X155686000Y-81534000D03*
X157686000Y-81534000D03*
D28*
X189738000Y-110246160D03*
X189738000Y-111749840D03*
X182372000Y-111749840D03*
X182372000Y-110246160D03*
D29*
X184975500Y-109687360D03*
X186880500Y-109687360D03*
X185928000Y-109687360D03*
X186880500Y-111800640D03*
X184975500Y-111800640D03*
D30*
X155904000Y-90011000D03*
X153364000Y-90011000D03*
X150824000Y-90011000D03*
X148284000Y-90011000D03*
X145744000Y-90011000D03*
X143204000Y-90011000D03*
X140664000Y-90011000D03*
X138124000Y-90011000D03*
X135584000Y-90011000D03*
X133044000Y-90011000D03*
X130504000Y-90011000D03*
X127964000Y-90011000D03*
X125424000Y-90011000D03*
X122884000Y-90011000D03*
X120344000Y-90011000D03*
X117804000Y-90011000D03*
X173414000Y-101711000D03*
X173414000Y-104251000D03*
D23*
X109463840Y-99314000D03*
X107960160Y-99314000D03*
X163840160Y-106172000D03*
X165343840Y-106172000D03*
X145277840Y-101981000D03*
X143774160Y-101981000D03*
X150124160Y-101981000D03*
X151627840Y-101981000D03*
X163840160Y-108458000D03*
X165343840Y-108458000D03*
D31*
X147574000Y-96837500D03*
X147574000Y-98742500D03*
D28*
X150114000Y-97038160D03*
X150114000Y-98541840D03*
X152146000Y-97038160D03*
X152146000Y-98541840D03*
D23*
X155712160Y-111506000D03*
X157215840Y-111506000D03*
X155722320Y-108966000D03*
X157226000Y-108966000D03*
D32*
X155765500Y-106426000D03*
X157670500Y-106426000D03*
D28*
X169926000Y-95239840D03*
X169926000Y-93736160D03*
D23*
X162803840Y-88138000D03*
X161300160Y-88138000D03*
D32*
X163004500Y-90424000D03*
X161099500Y-90424000D03*
D33*
X168742360Y-105346500D03*
X170855640Y-104394000D03*
X168742360Y-103441500D03*
D28*
X160020000Y-106182160D03*
X160020000Y-107685840D03*
D23*
X168920160Y-107696000D03*
X170423840Y-107696000D03*
X172974000Y-99060000D03*
X174477680Y-99060000D03*
X109453680Y-101854000D03*
X107950000Y-101854000D03*
X146949160Y-101981000D03*
X148452840Y-101981000D03*
X191886840Y-100203000D03*
X190383160Y-100203000D03*
X191886840Y-101854000D03*
X190383160Y-101854000D03*
X175757840Y-115824000D03*
X174254160Y-115824000D03*
D28*
X175260000Y-122692160D03*
X175260000Y-124195840D03*
D23*
X183906160Y-103378000D03*
X185409840Y-103378000D03*
D34*
X103854000Y-104251000D03*
D35*
X103854000Y-101711000D03*
X103854000Y-99171000D03*
D36*
X155412440Y-100055680D03*
X155412440Y-99555300D03*
X155412440Y-99054920D03*
X155412440Y-98557080D03*
X155412440Y-98056700D03*
X155412440Y-101556820D03*
X155412440Y-101056440D03*
X155412440Y-100556060D03*
D37*
X156761180Y-94706440D03*
X157261560Y-94706440D03*
X157761940Y-94706440D03*
X158262320Y-94706440D03*
X158762700Y-94706440D03*
X159263080Y-94706440D03*
X159760920Y-94706440D03*
X160261300Y-94706440D03*
D36*
X163611560Y-96055180D03*
X163611560Y-96555560D03*
X163611560Y-97055940D03*
X163611560Y-97556320D03*
X163611560Y-98056700D03*
X163611560Y-98557080D03*
X163611560Y-99054920D03*
X163611560Y-99555300D03*
D37*
X162262820Y-102905560D03*
X161762440Y-102905560D03*
X161262060Y-102905560D03*
X160761680Y-102905560D03*
X160261300Y-102905560D03*
X159760920Y-102905560D03*
X159263080Y-102905560D03*
X158762700Y-102905560D03*
D36*
X155412440Y-97556320D03*
X155412440Y-97055940D03*
X155412440Y-96555560D03*
X155412440Y-96055180D03*
D37*
X160761680Y-94706440D03*
X161262060Y-94706440D03*
X161762440Y-94706440D03*
X162262820Y-94706440D03*
D36*
X163611560Y-100055680D03*
X163611560Y-100556060D03*
X163611560Y-101056440D03*
X163611560Y-101556820D03*
D37*
X158262320Y-102905560D03*
X157761940Y-102905560D03*
X157261560Y-102905560D03*
X156761180Y-102905560D03*
D38*
X202539600Y-101290120D03*
X202539600Y-103687880D03*
X202539600Y-106438700D03*
X202539600Y-98539300D03*
D39*
X199864980Y-101188520D03*
D40*
X199864980Y-101841300D03*
X199864980Y-102489000D03*
X199864980Y-103136700D03*
X199864980Y-103789480D03*
D41*
X200393300Y-104386380D03*
X200390760Y-100589080D03*
D42*
X186771100Y-99838000D03*
X186771100Y-100338000D03*
X186771100Y-100838000D03*
X186771100Y-101338000D03*
X186771100Y-101838000D03*
X182544900Y-101838000D03*
X182544900Y-101338000D03*
X182544900Y-100838000D03*
X182544900Y-100338000D03*
X182544900Y-99838000D03*
D43*
X193040000Y-93980000D03*
X193040000Y-97028000D03*
D34*
X178308000Y-100076000D03*
D35*
X178308000Y-102616000D03*
X178308000Y-105156000D03*
D44*
X150114000Y-93472000D03*
X152654000Y-93472000D03*
X192024000Y-105664000D03*
X194564000Y-105664000D03*
X192024000Y-108458000D03*
X194564000Y-108458000D03*
D33*
X177251360Y-124396500D03*
X179364640Y-123444000D03*
X177251360Y-122491500D03*
D45*
X176530000Y-109376000D03*
X176530000Y-112776000D03*
D28*
X153670000Y-84338160D03*
X153670000Y-85841840D03*
X157988000Y-84338160D03*
X157988000Y-85841840D03*
D46*
X186055000Y-115580160D03*
X186055000Y-123179840D03*
D47*
X183642000Y-106172000D03*
D48*
X186182000Y-106172000D03*
D49*
X145161000Y-106426000D03*
X150241000Y-106426000D03*
M02*
