%TF.GenerationSoftware,KiCad,Pcbnew,no-vcs-found-7613~57~ubuntu16.10.1*%
%TF.CreationDate,2017-03-07T09:53:51+01:00*%
%TF.ProjectId,gp8-clock,6770382D636C6F636B2E6B696361645F,rev?*%
%TF.FileFunction,Profile,NP*%
%FSLAX46Y46*%
G04 Gerber Fmt 4.6, Leading zero omitted, Abs format (unit mm)*
G04 Created by KiCad (PCBNEW no-vcs-found-7613~57~ubuntu16.10.1) date Tue Mar  7 09:53:51 2017*
%MOMM*%
%LPD*%
G01*
G04 APERTURE LIST*
%ADD10C,0.100000*%
G04 APERTURE END LIST*
D10*
X202300000Y-119500000D02*
X202300000Y-119600000D01*
X203800000Y-95000000D02*
X203800000Y-109900000D01*
X202300000Y-109900000D02*
X203800000Y-109900000D01*
X202300000Y-95000000D02*
X203800000Y-95000000D01*
X202300000Y-109900000D02*
X202300000Y-119500000D01*
X202300000Y-85400000D02*
X202300000Y-95000000D01*
X109965410Y-77101934D02*
X109965410Y-77101934D01*
X123937064Y-77101934D02*
X109965410Y-77101934D01*
X174342946Y-77101934D02*
X123937064Y-77101934D01*
X193523584Y-77101934D02*
X174342946Y-77101934D01*
X193523584Y-83658088D02*
X193523584Y-77101934D01*
X193562350Y-84004245D02*
X193523584Y-83658088D01*
X193673594Y-84326247D02*
X193562350Y-84004245D01*
X193849734Y-84617308D02*
X193673594Y-84326247D01*
X194083188Y-84870653D02*
X193849734Y-84617308D01*
X194366376Y-85079501D02*
X194083188Y-84870653D01*
X194691713Y-85237071D02*
X194366376Y-85079501D01*
X195051617Y-85336585D02*
X194691713Y-85237071D01*
X195438507Y-85371265D02*
X195051617Y-85336585D01*
X202242157Y-85371265D02*
X195438507Y-85371265D01*
X195438507Y-119590709D02*
X202242157Y-119590709D01*
X195051617Y-119625411D02*
X195438507Y-119590709D01*
X194691713Y-119724988D02*
X195051617Y-119625411D01*
X194366376Y-119882648D02*
X194691713Y-119724988D01*
X194083188Y-120091597D02*
X194366376Y-119882648D01*
X193849734Y-120345044D02*
X194083188Y-120091597D01*
X193673594Y-120636196D02*
X193849734Y-120345044D01*
X193562350Y-120958256D02*
X193673594Y-120636196D01*
X193523584Y-121304439D02*
X193562350Y-120958256D01*
X193523584Y-128050210D02*
X193523584Y-121304439D01*
X179565161Y-128050210D02*
X193523584Y-128050210D01*
X129159279Y-128050210D02*
X179565161Y-128050210D01*
X109965410Y-128050210D02*
X129159279Y-128050210D01*
X109965410Y-121253726D02*
X109965410Y-128050210D01*
X109926644Y-120907569D02*
X109965410Y-121253726D01*
X109815401Y-120585568D02*
X109926644Y-120907569D01*
X109639260Y-120294507D02*
X109815401Y-120585568D01*
X109405806Y-120041161D02*
X109639260Y-120294507D01*
X109122621Y-119832314D02*
X109405806Y-120041161D01*
X108797284Y-119674744D02*
X109122621Y-119832314D01*
X108437380Y-119575229D02*
X108797284Y-119674744D01*
X108050490Y-119540550D02*
X108437380Y-119575229D01*
X101495439Y-119540550D02*
X108050490Y-119540550D01*
X101495439Y-85472137D02*
X101495439Y-119540550D01*
X108050490Y-85472137D02*
X101495439Y-85472137D01*
X108437380Y-85437435D02*
X108050490Y-85472137D01*
X108797284Y-85337858D02*
X108437380Y-85437435D01*
X109122621Y-85180200D02*
X108797284Y-85337858D01*
X109405806Y-84971251D02*
X109122621Y-85180200D01*
X109639260Y-84717805D02*
X109405806Y-84971251D01*
X109815401Y-84426653D02*
X109639260Y-84717805D01*
X109926644Y-84104592D02*
X109815401Y-84426653D01*
X109965410Y-83758410D02*
X109926644Y-84104592D01*
X109965410Y-77101934D02*
X109965410Y-83758410D01*
M02*
