%TF.GenerationSoftware,KiCad,Pcbnew,no-vcs-found-7613~57~ubuntu16.10.1*%
%TF.CreationDate,2017-03-07T09:53:51+01:00*%
%TF.ProjectId,gp8-clock,6770382D636C6F636B2E6B696361645F,rev?*%
%TF.FileFunction,Copper,L2,Bot,Signal*%
%TF.FilePolarity,Positive*%
%FSLAX46Y46*%
G04 Gerber Fmt 4.6, Leading zero omitted, Abs format (unit mm)*
G04 Created by KiCad (PCBNEW no-vcs-found-7613~57~ubuntu16.10.1) date Tue Mar  7 09:53:51 2017*
%MOMM*%
%LPD*%
G01*
G04 APERTURE LIST*
%ADD10C,0.100000*%
%ADD11C,0.300000*%
%ADD12R,0.200000X0.900000*%
%ADD13R,0.899160X1.000760*%
%ADD14C,5.600000*%
%ADD15R,1.350000X1.350000*%
%ADD16O,1.300000X1.800000*%
%ADD17R,1.300000X1.800000*%
%ADD18R,1.000760X0.899160*%
%ADD19R,0.599440X1.000760*%
%ADD20C,1.524000*%
%ADD21R,1.498600X1.300480*%
%ADD22R,1.300480X1.498600*%
%ADD23R,1.000760X0.599440*%
%ADD24R,2.199640X1.524000*%
%ADD25O,2.199640X1.524000*%
%ADD26R,1.300480X0.299720*%
%ADD27R,0.299720X1.300480*%
%ADD28R,1.897380X1.897380*%
%ADD29R,1.348740X0.398780*%
%ADD30R,1.346200X0.398780*%
%ADD31R,1.000000X0.250000*%
%ADD32R,2.499360X1.950720*%
%ADD33C,1.016000*%
%ADD34C,1.400000*%
%ADD35C,2.000000*%
%ADD36R,1.524000X2.199640*%
%ADD37O,1.524000X2.199640*%
%ADD38C,1.998980*%
%ADD39C,0.609600*%
%ADD40C,0.203200*%
%ADD41C,0.406400*%
%ADD42C,0.254000*%
G04 APERTURE END LIST*
D10*
D11*
X123582142Y-85133571D02*
X123582142Y-83633571D01*
X123010714Y-84133571D02*
X122725000Y-85133571D01*
X122439285Y-84419285D01*
X122153571Y-85133571D01*
X121867857Y-84133571D01*
X120653571Y-85133571D02*
X120653571Y-84347857D01*
X120725000Y-84205000D01*
X120867857Y-84133571D01*
X121153571Y-84133571D01*
X121296428Y-84205000D01*
X120653571Y-85062142D02*
X120796428Y-85133571D01*
X121153571Y-85133571D01*
X121296428Y-85062142D01*
X121367857Y-84919285D01*
X121367857Y-84776428D01*
X121296428Y-84633571D01*
X121153571Y-84562142D01*
X120796428Y-84562142D01*
X120653571Y-84490714D01*
X120010714Y-85062142D02*
X119867857Y-85133571D01*
X119582142Y-85133571D01*
X119439285Y-85062142D01*
X119367857Y-84919285D01*
X119367857Y-84847857D01*
X119439285Y-84705000D01*
X119582142Y-84633571D01*
X119796428Y-84633571D01*
X119939285Y-84562142D01*
X120010714Y-84419285D01*
X120010714Y-84347857D01*
X119939285Y-84205000D01*
X119796428Y-84133571D01*
X119582142Y-84133571D01*
X119439285Y-84205000D01*
X118867857Y-84133571D02*
X118082142Y-84133571D01*
X118867857Y-85133571D01*
X118082142Y-85133571D01*
X116439285Y-83776428D02*
X116367857Y-83705000D01*
X116225000Y-83633571D01*
X115867857Y-83633571D01*
X115725000Y-83705000D01*
X115653571Y-83776428D01*
X115582142Y-83919285D01*
X115582142Y-84062142D01*
X115653571Y-84276428D01*
X116510714Y-85133571D01*
X115582142Y-85133571D01*
X114653571Y-83633571D02*
X114510714Y-83633571D01*
X114367857Y-83705000D01*
X114296428Y-83776428D01*
X114225000Y-83919285D01*
X114153571Y-84205000D01*
X114153571Y-84562142D01*
X114225000Y-84847857D01*
X114296428Y-84990714D01*
X114367857Y-85062142D01*
X114510714Y-85133571D01*
X114653571Y-85133571D01*
X114796428Y-85062142D01*
X114867857Y-84990714D01*
X114939285Y-84847857D01*
X115010714Y-84562142D01*
X115010714Y-84205000D01*
X114939285Y-83919285D01*
X114867857Y-83776428D01*
X114796428Y-83705000D01*
X114653571Y-83633571D01*
X112725000Y-85133571D02*
X113582142Y-85133571D01*
X113153571Y-85133571D02*
X113153571Y-83633571D01*
X113296428Y-83847857D01*
X113439285Y-83990714D01*
X113582142Y-84062142D01*
X112225000Y-83633571D02*
X111225000Y-83633571D01*
X111867857Y-85133571D01*
D12*
X125838000Y-97492000D03*
X126338000Y-97492000D03*
X126838000Y-97492000D03*
X127338000Y-97492000D03*
X127838000Y-97492000D03*
X128338000Y-97492000D03*
X128838000Y-97492000D03*
X129338000Y-97492000D03*
X129838000Y-97492000D03*
X130338000Y-97492000D03*
X130838000Y-97492000D03*
X131338000Y-97492000D03*
X131838000Y-97492000D03*
X132338000Y-97492000D03*
X132838000Y-97492000D03*
X133338000Y-97492000D03*
X133838000Y-97492000D03*
X134338000Y-97492000D03*
X134838000Y-97492000D03*
X135338000Y-97492000D03*
X135838000Y-97492000D03*
X136338000Y-97492000D03*
X136838000Y-97492000D03*
X137338000Y-97492000D03*
X137838000Y-97492000D03*
X138338000Y-97492000D03*
X138838000Y-97492000D03*
X139338000Y-97492000D03*
X139338000Y-104752000D03*
X138838000Y-104752000D03*
X138338000Y-104752000D03*
X137838000Y-104752000D03*
X137338000Y-104752000D03*
X136838000Y-104752000D03*
X136338000Y-104752000D03*
X135838000Y-104752000D03*
X135338000Y-104752000D03*
X134838000Y-104752000D03*
X134338000Y-104752000D03*
X133838000Y-104752000D03*
X133338000Y-104752000D03*
X132838000Y-104752000D03*
X132338000Y-104752000D03*
X131838000Y-104752000D03*
X131338000Y-104752000D03*
X130838000Y-104752000D03*
X130338000Y-104752000D03*
X129838000Y-104752000D03*
X129338000Y-104752000D03*
X128838000Y-104752000D03*
X128338000Y-104752000D03*
X127838000Y-104752000D03*
X127338000Y-104752000D03*
X126838000Y-104752000D03*
X126338000Y-104752000D03*
X125838000Y-104752000D03*
D13*
X167883840Y-85852000D03*
X166380160Y-85852000D03*
X166380160Y-88138000D03*
X167883840Y-88138000D03*
X185409840Y-97282000D03*
X183906160Y-97282000D03*
D14*
X169773600Y-124637800D03*
X169773600Y-80365600D03*
X133756400Y-80416400D03*
X133731000Y-124637800D03*
D15*
X190500000Y-125730000D03*
X190500000Y-79375000D03*
X139700000Y-79375000D03*
X164465000Y-79375000D03*
X164465000Y-125730000D03*
X113665000Y-125730000D03*
X139700000Y-125730000D03*
X113665000Y-79375000D03*
D16*
X183594000Y-81026000D03*
X181594000Y-81026000D03*
X179594000Y-81026000D03*
D17*
X177594000Y-81026000D03*
X151686000Y-81534000D03*
D16*
X153686000Y-81534000D03*
X155686000Y-81534000D03*
X157686000Y-81534000D03*
D18*
X189738000Y-110246160D03*
X189738000Y-111749840D03*
X182372000Y-111749840D03*
X182372000Y-110246160D03*
D19*
X184975500Y-109687360D03*
X186880500Y-109687360D03*
X185928000Y-109687360D03*
X186880500Y-111800640D03*
X184975500Y-111800640D03*
D20*
X155904000Y-90011000D03*
X153364000Y-90011000D03*
X150824000Y-90011000D03*
X148284000Y-90011000D03*
X145744000Y-90011000D03*
X143204000Y-90011000D03*
X140664000Y-90011000D03*
X138124000Y-90011000D03*
X135584000Y-90011000D03*
X133044000Y-90011000D03*
X130504000Y-90011000D03*
X127964000Y-90011000D03*
X125424000Y-90011000D03*
X122884000Y-90011000D03*
X120344000Y-90011000D03*
X117804000Y-90011000D03*
X173414000Y-101711000D03*
X173414000Y-104251000D03*
D13*
X109463840Y-99314000D03*
X107960160Y-99314000D03*
X163840160Y-106172000D03*
X165343840Y-106172000D03*
X145277840Y-101981000D03*
X143774160Y-101981000D03*
X150124160Y-101981000D03*
X151627840Y-101981000D03*
X163840160Y-108458000D03*
X165343840Y-108458000D03*
D21*
X147574000Y-96837500D03*
X147574000Y-98742500D03*
D18*
X150114000Y-97038160D03*
X150114000Y-98541840D03*
X152146000Y-97038160D03*
X152146000Y-98541840D03*
D13*
X155712160Y-111506000D03*
X157215840Y-111506000D03*
X155722320Y-108966000D03*
X157226000Y-108966000D03*
D22*
X155765500Y-106426000D03*
X157670500Y-106426000D03*
D18*
X169926000Y-95239840D03*
X169926000Y-93736160D03*
D13*
X162803840Y-88138000D03*
X161300160Y-88138000D03*
D22*
X163004500Y-90424000D03*
X161099500Y-90424000D03*
D23*
X168742360Y-105346500D03*
X170855640Y-104394000D03*
X168742360Y-103441500D03*
D18*
X160020000Y-106182160D03*
X160020000Y-107685840D03*
D13*
X168920160Y-107696000D03*
X170423840Y-107696000D03*
X172974000Y-99060000D03*
X174477680Y-99060000D03*
X109453680Y-101854000D03*
X107950000Y-101854000D03*
X146949160Y-101981000D03*
X148452840Y-101981000D03*
X191886840Y-100203000D03*
X190383160Y-100203000D03*
X191886840Y-101854000D03*
X190383160Y-101854000D03*
X175757840Y-115824000D03*
X174254160Y-115824000D03*
D18*
X175260000Y-122692160D03*
X175260000Y-124195840D03*
D13*
X183906160Y-103378000D03*
X185409840Y-103378000D03*
D24*
X103854000Y-104251000D03*
D25*
X103854000Y-101711000D03*
X103854000Y-99171000D03*
D26*
X155412440Y-100055680D03*
X155412440Y-99555300D03*
X155412440Y-99054920D03*
X155412440Y-98557080D03*
X155412440Y-98056700D03*
X155412440Y-101556820D03*
X155412440Y-101056440D03*
X155412440Y-100556060D03*
D27*
X156761180Y-94706440D03*
X157261560Y-94706440D03*
X157761940Y-94706440D03*
X158262320Y-94706440D03*
X158762700Y-94706440D03*
X159263080Y-94706440D03*
X159760920Y-94706440D03*
X160261300Y-94706440D03*
D26*
X163611560Y-96055180D03*
X163611560Y-96555560D03*
X163611560Y-97055940D03*
X163611560Y-97556320D03*
X163611560Y-98056700D03*
X163611560Y-98557080D03*
X163611560Y-99054920D03*
X163611560Y-99555300D03*
D27*
X162262820Y-102905560D03*
X161762440Y-102905560D03*
X161262060Y-102905560D03*
X160761680Y-102905560D03*
X160261300Y-102905560D03*
X159760920Y-102905560D03*
X159263080Y-102905560D03*
X158762700Y-102905560D03*
D26*
X155412440Y-97556320D03*
X155412440Y-97055940D03*
X155412440Y-96555560D03*
X155412440Y-96055180D03*
D27*
X160761680Y-94706440D03*
X161262060Y-94706440D03*
X161762440Y-94706440D03*
X162262820Y-94706440D03*
D26*
X163611560Y-100055680D03*
X163611560Y-100556060D03*
X163611560Y-101056440D03*
X163611560Y-101556820D03*
D27*
X158262320Y-102905560D03*
X157761940Y-102905560D03*
X157261560Y-102905560D03*
X156761180Y-102905560D03*
D28*
X202539600Y-101290120D03*
X202539600Y-103687880D03*
X202539600Y-106438700D03*
X202539600Y-98539300D03*
D29*
X199864980Y-101188520D03*
D30*
X199864980Y-101841300D03*
X199864980Y-102489000D03*
X199864980Y-103136700D03*
X199864980Y-103789480D03*
D31*
X186771100Y-99838000D03*
X186771100Y-100338000D03*
X186771100Y-100838000D03*
X186771100Y-101338000D03*
X186771100Y-101838000D03*
X182544900Y-101838000D03*
X182544900Y-101338000D03*
X182544900Y-100838000D03*
X182544900Y-100338000D03*
X182544900Y-99838000D03*
D32*
X193040000Y-93980000D03*
X193040000Y-97028000D03*
D24*
X178308000Y-100076000D03*
D25*
X178308000Y-102616000D03*
X178308000Y-105156000D03*
D33*
X150114000Y-93472000D03*
X152654000Y-93472000D03*
X192024000Y-105664000D03*
X194564000Y-105664000D03*
X192024000Y-108458000D03*
X194564000Y-108458000D03*
D23*
X177251360Y-124396500D03*
X179364640Y-123444000D03*
X177251360Y-122491500D03*
D34*
X176530000Y-109376000D03*
X176530000Y-112776000D03*
D18*
X153670000Y-84338160D03*
X153670000Y-85841840D03*
X157988000Y-84338160D03*
X157988000Y-85841840D03*
D35*
X186055000Y-115580160D03*
X186055000Y-123179840D03*
D36*
X183642000Y-106172000D03*
D37*
X186182000Y-106172000D03*
D38*
X145161000Y-106426000D03*
X150241000Y-106426000D03*
D39*
X180594000Y-106426000D03*
X175514000Y-107188000D03*
X174244000Y-107188000D03*
X172212000Y-107188000D03*
X172466000Y-108712000D03*
X109982000Y-87884000D03*
X106680000Y-87884000D03*
X103378000Y-90678000D03*
X105156000Y-94234000D03*
X108204000Y-95758000D03*
X109982000Y-93980000D03*
X112522000Y-96774000D03*
X112522000Y-93218000D03*
X115062000Y-96012000D03*
X117602000Y-98552000D03*
X118364000Y-95758000D03*
X116332000Y-93472000D03*
X115062000Y-88900000D03*
X118364000Y-88138000D03*
X122682000Y-87376000D03*
X127254000Y-87630000D03*
X133096000Y-86868000D03*
X136906000Y-86614000D03*
X139954000Y-86360000D03*
X171958000Y-115824000D03*
X165354000Y-118618000D03*
X160782000Y-117094000D03*
X155956000Y-116078000D03*
X151638000Y-112776000D03*
X148336000Y-112268000D03*
X144526000Y-112522000D03*
X141224000Y-113030000D03*
X137160000Y-112268000D03*
X133350000Y-112522000D03*
X130556000Y-111252000D03*
X128270000Y-109982000D03*
X123444000Y-108966000D03*
X123952000Y-105156000D03*
X123190000Y-103124000D03*
X120904000Y-105156000D03*
X116332000Y-105410000D03*
X116332000Y-102362000D03*
X119380000Y-102870000D03*
X119888000Y-100330000D03*
X120650000Y-97028000D03*
X123444000Y-96774000D03*
X125476000Y-99568000D03*
X129032000Y-99568000D03*
X135382000Y-99568000D03*
X137160000Y-95504000D03*
X142494000Y-95250000D03*
X143002000Y-86360000D03*
X160528000Y-80010000D03*
X160528000Y-84836000D03*
X162306000Y-82042000D03*
X163830000Y-85344000D03*
X164846000Y-82296000D03*
X171958000Y-85090000D03*
X174244000Y-82296000D03*
X179324000Y-83312000D03*
X178308000Y-84328000D03*
X177292000Y-85090000D03*
X175768000Y-87376000D03*
X178562000Y-88392000D03*
X179324000Y-87884000D03*
X182626000Y-84836000D03*
X197866000Y-94996004D03*
X151130000Y-99568000D03*
X151892000Y-100838000D03*
X170688000Y-92456000D03*
X161544000Y-97536000D03*
X162306000Y-99822000D03*
X159766000Y-96774000D03*
X156718000Y-98552000D03*
X158242000Y-109474000D03*
X158496000Y-111506000D03*
X197866000Y-103632000D03*
X111252000Y-102108000D03*
X113538000Y-105664000D03*
X164338000Y-88138000D03*
X151384000Y-103378000D03*
X159511996Y-104394000D03*
X165100000Y-103378000D03*
X170180000Y-96774000D03*
X169022861Y-89012861D03*
X174244000Y-89408000D03*
X178293861Y-108508811D03*
X167242659Y-105012659D03*
X153924000Y-96520000D03*
X165862000Y-99060000D03*
X190500000Y-99060000D03*
X166116000Y-99822000D03*
X189230000Y-100838000D03*
X153026755Y-100696749D03*
X161290000Y-111252000D03*
X181356000Y-100838000D03*
X156718000Y-99822000D03*
X157988000Y-99822000D03*
X161544000Y-108712000D03*
X162814000Y-110998000D03*
X165291105Y-100614490D03*
X162052000Y-92964000D03*
X160859081Y-100943358D03*
X159430458Y-92151190D03*
X153365190Y-98298000D03*
X172466000Y-89916000D03*
X153365190Y-101379482D03*
X155273187Y-103158686D03*
X159512000Y-101092000D03*
X154990810Y-102450925D03*
X158496000Y-100838000D03*
X157820370Y-105164883D03*
X125476000Y-96520000D03*
X124968000Y-94488000D03*
X122682000Y-99568000D03*
X125222000Y-102616000D03*
X156718000Y-92456000D03*
X164846000Y-92202000D03*
D40*
X107950000Y-101854000D02*
X107950000Y-101600000D01*
X108966000Y-99862640D02*
X109463840Y-99364800D01*
X107950000Y-101600000D02*
X108966000Y-100584000D01*
X108966000Y-100584000D02*
X108966000Y-99862640D01*
X109463840Y-99364800D02*
X109463840Y-99314000D01*
X103854000Y-101711000D02*
X107807000Y-101711000D01*
X107807000Y-101711000D02*
X107950000Y-101854000D01*
X180594000Y-106426000D02*
X179324000Y-105156000D01*
X179324000Y-105156000D02*
X178308000Y-105156000D01*
X174244000Y-107188000D02*
X175514000Y-107188000D01*
X172466000Y-108712000D02*
X172466000Y-107442000D01*
X172466000Y-107442000D02*
X172212000Y-107188000D01*
X106680000Y-87884000D02*
X109982000Y-87884000D01*
X105156000Y-94234000D02*
X105156000Y-92456000D01*
X105156000Y-92456000D02*
X103378000Y-90678000D01*
X109982000Y-93980000D02*
X108204000Y-95758000D01*
X112522000Y-93218000D02*
X112522000Y-96774000D01*
X117602000Y-98552000D02*
X115062000Y-96012000D01*
X116332000Y-93472000D02*
X118364000Y-95504000D01*
X118364000Y-95504000D02*
X118364000Y-95758000D01*
X118364000Y-88138000D02*
X115824000Y-88138000D01*
X115824000Y-88138000D02*
X115062000Y-88900000D01*
X127254000Y-87630000D02*
X122936000Y-87630000D01*
X122936000Y-87630000D02*
X122682000Y-87376000D01*
X136906000Y-86614000D02*
X133350000Y-86614000D01*
X133350000Y-86614000D02*
X133096000Y-86868000D01*
X143002000Y-86360000D02*
X139954000Y-86360000D01*
X171958000Y-115824000D02*
X174254160Y-115824000D01*
X160782000Y-117094000D02*
X163830000Y-117094000D01*
X163830000Y-117094000D02*
X165354000Y-118618000D01*
X151638000Y-112776000D02*
X152654000Y-112776000D01*
X152654000Y-112776000D02*
X155956000Y-116078000D01*
X144526000Y-112522000D02*
X148082000Y-112522000D01*
X148082000Y-112522000D02*
X148336000Y-112268000D01*
X137160000Y-112268000D02*
X137922000Y-113030000D01*
X137922000Y-113030000D02*
X141224000Y-113030000D01*
X130556000Y-111252000D02*
X131826000Y-112522000D01*
X131826000Y-112522000D02*
X133350000Y-112522000D01*
X123444000Y-108966000D02*
X127254000Y-108966000D01*
X127254000Y-108966000D02*
X128270000Y-109982000D01*
X123190000Y-103124000D02*
X123190000Y-104394000D01*
X123190000Y-104394000D02*
X123952000Y-105156000D01*
X116332000Y-105410000D02*
X120650000Y-105410000D01*
X120650000Y-105410000D02*
X120904000Y-105156000D01*
X119380000Y-102870000D02*
X118872000Y-102362000D01*
X118872000Y-102362000D02*
X116332000Y-102362000D01*
X120650000Y-97028000D02*
X119888000Y-97790000D01*
X119888000Y-97790000D02*
X119888000Y-100330000D01*
X125476000Y-99568000D02*
X125476000Y-98806000D01*
X125476000Y-98806000D02*
X123444000Y-96774000D01*
X135382000Y-99568000D02*
X129032000Y-99568000D01*
X142494000Y-95250000D02*
X137414000Y-95250000D01*
X137414000Y-95250000D02*
X137160000Y-95504000D01*
X146050000Y-80772000D02*
X146050000Y-83312000D01*
X146050000Y-83312000D02*
X143002000Y-86360000D01*
X159258000Y-78740000D02*
X148082000Y-78740000D01*
X148082000Y-78740000D02*
X146050000Y-80772000D01*
X160528000Y-80010000D02*
X159258000Y-78740000D01*
X162306000Y-82042000D02*
X162306000Y-83058000D01*
X162306000Y-83058000D02*
X160528000Y-84836000D01*
X164846000Y-82296000D02*
X163830000Y-83312000D01*
X163830000Y-83312000D02*
X163830000Y-85344000D01*
X174244000Y-82296000D02*
X174244000Y-82804000D01*
X174244000Y-82804000D02*
X171958000Y-85090000D01*
X178308000Y-84328000D02*
X179324000Y-83312000D01*
X175768000Y-87376000D02*
X175768000Y-86614000D01*
X175768000Y-86614000D02*
X177292000Y-85090000D01*
X179324000Y-87884000D02*
X179070000Y-87884000D01*
X179070000Y-87884000D02*
X178562000Y-88392000D01*
X190246000Y-84582000D02*
X182880000Y-84582000D01*
X182880000Y-84582000D02*
X182626000Y-84836000D01*
X197866000Y-92202000D02*
X190246000Y-84582000D01*
X197866000Y-94996004D02*
X197866000Y-92202000D01*
X196849996Y-93980000D02*
X197866000Y-94996004D01*
X193040000Y-93980000D02*
X196849996Y-93980000D01*
X150114000Y-98541840D02*
X152146000Y-98541840D01*
X147574000Y-98742500D02*
X149913340Y-98742500D01*
X149913340Y-98742500D02*
X150114000Y-98541840D01*
X151130000Y-99568000D02*
X151130000Y-99557840D01*
X151130000Y-99557840D02*
X152146000Y-98541840D01*
X151627840Y-101102160D02*
X151892000Y-100838000D01*
X151627840Y-101981000D02*
X151627840Y-101102160D01*
X161300160Y-88138000D02*
X161300160Y-90223340D01*
X161300160Y-90223340D02*
X161099500Y-90424000D01*
X143774160Y-101981000D02*
X129286000Y-101981000D01*
X129286000Y-101981000D02*
X129159000Y-101981000D01*
X129338000Y-104752000D02*
X129338000Y-102033000D01*
X129338000Y-102033000D02*
X129286000Y-101981000D01*
X129159000Y-102081000D02*
X128878000Y-102362000D01*
X128878000Y-102362000D02*
X128370000Y-102870000D01*
X128838000Y-104752000D02*
X128838000Y-102402000D01*
X128838000Y-102402000D02*
X128878000Y-102362000D01*
X128370000Y-102870000D02*
X127862000Y-103378000D01*
X128338000Y-104752000D02*
X128338000Y-102902000D01*
X128338000Y-102902000D02*
X128370000Y-102870000D01*
X127862000Y-103378000D02*
X127508000Y-103732000D01*
X127838000Y-104752000D02*
X127838000Y-103402000D01*
X127838000Y-103402000D02*
X127862000Y-103378000D01*
X127508000Y-103732000D02*
X126838000Y-104402000D01*
X127338000Y-104752000D02*
X127338000Y-103902000D01*
X127338000Y-103902000D02*
X127508000Y-103732000D01*
X129159000Y-101981000D02*
X129159000Y-102081000D01*
X126838000Y-104402000D02*
X126838000Y-104752000D01*
X169926000Y-93736160D02*
X169926000Y-93218000D01*
X169926000Y-93218000D02*
X170688000Y-92456000D01*
X161544000Y-97536000D02*
X161544000Y-97104948D01*
X161544000Y-97104948D02*
X161290000Y-96850948D01*
X161290000Y-96850948D02*
X161290000Y-96774000D01*
X163611560Y-101056440D02*
X163515041Y-100959921D01*
X163515041Y-100959921D02*
X162758119Y-100959921D01*
X162758119Y-100959921D02*
X162306000Y-100507802D01*
X162306000Y-100507802D02*
X162306000Y-99822000D01*
X161762440Y-94706440D02*
X161762440Y-95559880D01*
X161762440Y-95559880D02*
X161544000Y-95778320D01*
X161544000Y-95778320D02*
X161544000Y-96520000D01*
X161290000Y-96774000D02*
X161544000Y-96520000D01*
X159766000Y-96774000D02*
X161290000Y-96774000D01*
X155412440Y-98056700D02*
X156222700Y-98056700D01*
X156222700Y-98056700D02*
X156718000Y-98552000D01*
X157670500Y-106426000D02*
X157670500Y-108521500D01*
X157670500Y-108521500D02*
X157226000Y-108966000D01*
X158242000Y-109474000D02*
X157734000Y-109474000D01*
X157734000Y-109474000D02*
X157226000Y-108966000D01*
X157215840Y-111506000D02*
X158496000Y-111506000D01*
X165343840Y-108458000D02*
X165343840Y-106172000D01*
X168742360Y-103441500D02*
X166814500Y-103441500D01*
X166814500Y-103441500D02*
X165343840Y-104912160D01*
X165343840Y-104912160D02*
X165343840Y-106172000D01*
X199425380Y-103800480D02*
X198034480Y-103800480D01*
X198034480Y-103800480D02*
X197866000Y-103632000D01*
X157261560Y-102905560D02*
X157261560Y-106017060D01*
X157261560Y-106017060D02*
X157670500Y-106426000D01*
X177251360Y-122491500D02*
X177251360Y-118821200D01*
X174957740Y-116527580D02*
X174906940Y-116527580D01*
X177251360Y-118821200D02*
X174957740Y-116527580D01*
X174906940Y-116527580D02*
X174254160Y-115874800D01*
X174254160Y-115874800D02*
X174254160Y-115824000D01*
X185409840Y-103378000D02*
X186062620Y-103378000D01*
X186062620Y-103378000D02*
X186771100Y-102669520D01*
X186771100Y-102669520D02*
X186771100Y-101838000D01*
X162166301Y-95156019D02*
X162166301Y-98298000D01*
X162166301Y-98298000D02*
X162166301Y-99134671D01*
X157276802Y-98283774D02*
X162152075Y-98283774D01*
X162152075Y-98283774D02*
X162166301Y-98298000D01*
X162852109Y-101556820D02*
X163611560Y-101556820D01*
X161747198Y-100451909D02*
X162852109Y-101556820D01*
X161747198Y-99553774D02*
X161747198Y-100451909D01*
X162166301Y-99134671D02*
X161747198Y-99553774D01*
X163004500Y-94317820D02*
X162166301Y-95156019D01*
X157276802Y-98283774D02*
X156549348Y-97556320D01*
X157276801Y-100090225D02*
X157276802Y-98283774D01*
X156549348Y-97556320D02*
X155412440Y-97556320D01*
X156761180Y-100605846D02*
X157276801Y-100090225D01*
X156761180Y-102905560D02*
X156761180Y-100605846D01*
D41*
X111252000Y-102108000D02*
X109707680Y-102108000D01*
X109707680Y-102108000D02*
X109453680Y-101854000D01*
X126238000Y-106426000D02*
X114300000Y-106426000D01*
X114300000Y-106426000D02*
X113538000Y-105664000D01*
D40*
X164338000Y-88138000D02*
X162803840Y-88138000D01*
X155412440Y-97556320D02*
X155392120Y-97536000D01*
X155392120Y-97536000D02*
X154178000Y-97536000D01*
X154178000Y-97536000D02*
X153924000Y-97282000D01*
X153924000Y-97282000D02*
X152389840Y-97282000D01*
X152389840Y-97282000D02*
X152146000Y-97038160D01*
X150114000Y-97038160D02*
X147774660Y-97038160D01*
X147774660Y-97038160D02*
X147574000Y-96837500D01*
X152146000Y-97038160D02*
X150114000Y-97038160D01*
X163004500Y-90424000D02*
X163004500Y-94317820D01*
X163004500Y-94317820D02*
X162615880Y-94706440D01*
X162615880Y-94706440D02*
X162262820Y-94706440D01*
X162803840Y-88138000D02*
X162803840Y-90223340D01*
X162803840Y-90223340D02*
X163004500Y-90424000D01*
X163840160Y-106172000D02*
X163840160Y-101785420D01*
X163840160Y-101785420D02*
X163611560Y-101556820D01*
X156761180Y-102905560D02*
X156718000Y-102948740D01*
X156718000Y-104140000D02*
X155956000Y-104902000D01*
X156718000Y-102948740D02*
X156718000Y-104140000D01*
X155956000Y-104902000D02*
X155956000Y-106235500D01*
X155956000Y-106235500D02*
X155765500Y-106426000D01*
X155722320Y-108966000D02*
X155722320Y-106469180D01*
X155722320Y-106469180D02*
X155765500Y-106426000D01*
D41*
X163840160Y-108458000D02*
X162984180Y-108458000D01*
X162984180Y-108458000D02*
X161206180Y-110236000D01*
X161206180Y-110236000D02*
X133604000Y-110236000D01*
X133604000Y-110236000D02*
X129794000Y-106426000D01*
D40*
X155712160Y-111506000D02*
X155712160Y-108976160D01*
X155712160Y-108976160D02*
X155722320Y-108966000D01*
X129838000Y-104752000D02*
X129838000Y-105405200D01*
X129838000Y-105405200D02*
X129794000Y-105449200D01*
X129794000Y-105449200D02*
X129794000Y-106426000D01*
X126338000Y-104752000D02*
X126338000Y-105405200D01*
X126338000Y-105405200D02*
X126238000Y-105505200D01*
X126238000Y-105505200D02*
X126238000Y-106426000D01*
D41*
X129794000Y-106426000D02*
X126238000Y-106426000D01*
X163840160Y-108458000D02*
X163840160Y-106172000D01*
X176530000Y-109376000D02*
X164707360Y-109376000D01*
X164707360Y-109376000D02*
X163840160Y-108508800D01*
X163840160Y-108508800D02*
X163840160Y-108458000D01*
X182372000Y-111749840D02*
X178903840Y-111749840D01*
X178903840Y-111749840D02*
X176530000Y-109376000D01*
X184975500Y-111800640D02*
X182422800Y-111800640D01*
X182422800Y-111800640D02*
X182372000Y-111749840D01*
D40*
X155412440Y-99555300D02*
X153341178Y-99555300D01*
X153341178Y-99555300D02*
X152450802Y-100445676D01*
X152450802Y-100445676D02*
X152450802Y-102742250D01*
X152450802Y-102742250D02*
X151815052Y-103378000D01*
X151815052Y-103378000D02*
X151384000Y-103378000D01*
X145161000Y-106426000D02*
X145161000Y-102097840D01*
X145161000Y-102097840D02*
X145277840Y-101981000D01*
X148452840Y-101981000D02*
X150124160Y-101981000D01*
X150241000Y-106426000D02*
X150241000Y-102097840D01*
X150241000Y-102097840D02*
X150124160Y-101981000D01*
X158262320Y-102905560D02*
X158262320Y-103829372D01*
X158826948Y-104394000D02*
X159511996Y-104394000D01*
X158262320Y-103829372D02*
X158826948Y-104394000D01*
X170180000Y-96774000D02*
X170180000Y-98298000D01*
X170180000Y-98298000D02*
X165100000Y-103378000D01*
X170180000Y-96774000D02*
X170180000Y-95493840D01*
X170180000Y-95493840D02*
X169926000Y-95239840D01*
X186771100Y-100338000D02*
X187698000Y-100338000D01*
X187698000Y-100338000D02*
X187960000Y-100076000D01*
X186771100Y-99838000D02*
X187722000Y-99838000D01*
X187722000Y-99838000D02*
X187960000Y-100076000D01*
D41*
X188335920Y-100076000D02*
X187960000Y-100076000D01*
X193040000Y-97028000D02*
X191383920Y-97028000D01*
X191383920Y-97028000D02*
X188335920Y-100076000D01*
X199425380Y-101199520D02*
X195829760Y-101199520D01*
X195829760Y-101199520D02*
X193040000Y-98409760D01*
X193040000Y-98409760D02*
X193040000Y-97028000D01*
D40*
X170855640Y-104394000D02*
X173271000Y-104394000D01*
X173271000Y-104394000D02*
X173414000Y-104251000D01*
X173414000Y-101711000D02*
X173414000Y-99500000D01*
X173414000Y-99500000D02*
X172974000Y-99060000D01*
X170423840Y-107696000D02*
X170423840Y-107645200D01*
X170423840Y-107645200D02*
X168742360Y-105963720D01*
X168742360Y-105963720D02*
X168742360Y-105346500D01*
X168707901Y-89012861D02*
X169022861Y-89012861D01*
X167883840Y-88138000D02*
X167883840Y-88188800D01*
X167883840Y-88188800D02*
X168707901Y-89012861D01*
X186182000Y-107950000D02*
X185806080Y-107950000D01*
X174477680Y-99060000D02*
X174477680Y-89641680D01*
X174477680Y-89641680D02*
X174244000Y-89408000D01*
D41*
X186182000Y-106172000D02*
X186182000Y-107950000D01*
X186880500Y-108204000D02*
X186626500Y-107950000D01*
X186626500Y-107950000D02*
X185806080Y-107950000D01*
X185806080Y-107950000D02*
X184975500Y-108780580D01*
X184975500Y-108780580D02*
X184975500Y-109687360D01*
X186880500Y-108204000D02*
X186880500Y-109687360D01*
X186880500Y-109687360D02*
X187586620Y-109687360D01*
X187586620Y-109687360D02*
X188214000Y-110314740D01*
X188214000Y-110314740D02*
X188214000Y-114554000D01*
X188214000Y-114554000D02*
X187081160Y-114554000D01*
X187081160Y-114554000D02*
X186055000Y-115580160D01*
D40*
X186880500Y-109687360D02*
X189179200Y-109687360D01*
X189179200Y-109687360D02*
X189738000Y-110246160D01*
X174477680Y-104692630D02*
X178293861Y-108508811D01*
X174477680Y-99060000D02*
X174477680Y-104692630D01*
X168920160Y-106690160D02*
X167242659Y-105012659D01*
X168920160Y-107696000D02*
X168920160Y-106690160D01*
X153924000Y-96520000D02*
X155376880Y-96520000D01*
X155376880Y-96520000D02*
X155412440Y-96555560D01*
X148600162Y-100279198D02*
X151815804Y-100279198D01*
X146949160Y-101930200D02*
X148600162Y-100279198D01*
X146949160Y-101981000D02*
X146949160Y-101930200D01*
X153040082Y-99054920D02*
X155412440Y-99054920D01*
X151815804Y-100279198D02*
X153040082Y-99054920D01*
X199425380Y-101852300D02*
X193485340Y-101852300D01*
X193485340Y-101852300D02*
X191886840Y-100253800D01*
X191886840Y-100253800D02*
X191886840Y-100203000D01*
X165862000Y-99060000D02*
X165455611Y-99466389D01*
X165455611Y-99466389D02*
X163700471Y-99466389D01*
X163700471Y-99466389D02*
X163611560Y-99555300D01*
X190383160Y-100203000D02*
X190383160Y-99176840D01*
X190383160Y-99176840D02*
X190500000Y-99060000D01*
X199425380Y-102500000D02*
X192532840Y-102500000D01*
X192532840Y-102500000D02*
X191886840Y-101854000D01*
X166116000Y-99822000D02*
X165684948Y-99822000D01*
X165684948Y-99822000D02*
X165451268Y-100055680D01*
X165451268Y-100055680D02*
X163611560Y-100055680D01*
X190383160Y-101854000D02*
X190246000Y-101854000D01*
X190246000Y-101854000D02*
X189230000Y-100838000D01*
X153167444Y-100556060D02*
X153026755Y-100696749D01*
X155412440Y-100556060D02*
X153167444Y-100556060D01*
X163068000Y-109982000D02*
X162560000Y-109982000D01*
X162560000Y-109982000D02*
X161290000Y-111252000D01*
X166634160Y-113548160D02*
X163068000Y-109982000D01*
X175757840Y-113548160D02*
X166634160Y-113548160D01*
X175757840Y-115824000D02*
X175757840Y-113548160D01*
X175757840Y-113548160D02*
X176530000Y-112776000D01*
X183906160Y-103378000D02*
X183253380Y-103378000D01*
X183253380Y-103378000D02*
X182544900Y-102669520D01*
X182544900Y-102669520D02*
X182544900Y-101838000D01*
X119777000Y-104251000D02*
X103854000Y-104251000D01*
X122936000Y-101092000D02*
X119777000Y-104251000D01*
X138684000Y-101092000D02*
X122936000Y-101092000D01*
X144165319Y-95610681D02*
X138684000Y-101092000D01*
X159710119Y-95610681D02*
X144165319Y-95610681D01*
X159760920Y-94706440D02*
X159760920Y-95559880D01*
X159760920Y-95559880D02*
X159710119Y-95610681D01*
D41*
X180594000Y-100076000D02*
X180594000Y-102362000D01*
X180594000Y-102362000D02*
X183642000Y-105410000D01*
X183642000Y-105410000D02*
X183642000Y-106172000D01*
X180594000Y-100076000D02*
X181356000Y-100076000D01*
X178308000Y-100076000D02*
X180594000Y-100076000D01*
D40*
X182544900Y-100338000D02*
X181618000Y-100338000D01*
X181618000Y-100338000D02*
X181356000Y-100076000D01*
X182544900Y-99838000D02*
X181594000Y-99838000D01*
X181594000Y-99838000D02*
X181356000Y-100076000D01*
X181356000Y-100838000D02*
X182544900Y-100838000D01*
X183906160Y-97282000D02*
X183906160Y-100319840D01*
X183388000Y-100838000D02*
X182544900Y-100838000D01*
X183906160Y-100319840D02*
X183388000Y-100838000D01*
X153670000Y-84338160D02*
X153670000Y-81550000D01*
X153670000Y-81550000D02*
X153686000Y-81534000D01*
X157686000Y-81534000D02*
X157686000Y-84036160D01*
X157686000Y-84036160D02*
X157988000Y-84338160D01*
X177251360Y-124396500D02*
X175460660Y-124396500D01*
X175460660Y-124396500D02*
X175260000Y-124195840D01*
X179364640Y-123444000D02*
X185790840Y-123444000D01*
X185790840Y-123444000D02*
X186055000Y-123179840D01*
X156718000Y-99822000D02*
X156484320Y-100055680D01*
X156484320Y-100055680D02*
X155412440Y-100055680D01*
X160528000Y-99822000D02*
X157988000Y-99822000D01*
X162666681Y-101960681D02*
X160528000Y-99822000D01*
X161544000Y-108712000D02*
X162666681Y-107589319D01*
X162666681Y-107589319D02*
X162666681Y-101960681D01*
X175260000Y-122692160D02*
X174508160Y-122692160D01*
X174508160Y-122692160D02*
X162814000Y-110998000D01*
X153720800Y-85841840D02*
X158242000Y-90363040D01*
X158242000Y-90363040D02*
X158242000Y-92093733D01*
X153670000Y-85841840D02*
X153720800Y-85841840D01*
X161798000Y-92710000D02*
X162052000Y-92964000D01*
X158242000Y-92093733D02*
X158858267Y-92710000D01*
X158858267Y-92710000D02*
X161798000Y-92710000D01*
X165232675Y-100556060D02*
X165291105Y-100614490D01*
X163611560Y-100556060D02*
X165232675Y-100556060D01*
X161395347Y-101248157D02*
X161163880Y-101248157D01*
X162262820Y-102905560D02*
X162262820Y-102115630D01*
X161163880Y-101248157D02*
X160859081Y-100943358D01*
X162262820Y-102115630D02*
X161395347Y-101248157D01*
X159430458Y-87937078D02*
X159430458Y-92151190D01*
X157988000Y-85841840D02*
X157988000Y-86494620D01*
X157988000Y-86494620D02*
X159430458Y-87937078D01*
X160020000Y-106182160D02*
X160020000Y-105529380D01*
X160723580Y-104825800D02*
X160723580Y-104524540D01*
X160723580Y-104524540D02*
X160034225Y-103835185D01*
X160020000Y-105529380D02*
X160723580Y-104825800D01*
X160034225Y-103835185D02*
X158838885Y-103835185D01*
X158838885Y-103835185D02*
X158762700Y-103759000D01*
X158762700Y-103759000D02*
X158762700Y-102905560D01*
X155412440Y-98557080D02*
X153624270Y-98557080D01*
X153624270Y-98557080D02*
X153365190Y-98298000D01*
X173532802Y-88849198D02*
X172466000Y-89916000D01*
X176020802Y-88849198D02*
X173532802Y-88849198D01*
X183594000Y-81276000D02*
X176020802Y-88849198D01*
X183594000Y-81026000D02*
X183594000Y-81276000D01*
X153688232Y-101056440D02*
X153365190Y-101379482D01*
X155412440Y-101056440D02*
X153688232Y-101056440D01*
X192024000Y-108458000D02*
X191261999Y-107695999D01*
X191261999Y-107695999D02*
X191261999Y-105125699D01*
X191261999Y-105125699D02*
X187474300Y-101338000D01*
X187474300Y-101338000D02*
X186771100Y-101338000D01*
X164465001Y-98460561D02*
X163708079Y-98460561D01*
X163708079Y-98460561D02*
X163611560Y-98557080D01*
X177594000Y-81026000D02*
X177594000Y-81232000D01*
X177594000Y-81232000D02*
X165100000Y-93726000D01*
X165100000Y-93726000D02*
X165100000Y-97825562D01*
X165100000Y-97825562D02*
X164465001Y-98460561D01*
X179594000Y-81026000D02*
X179324000Y-81026000D01*
X178498001Y-81851999D02*
X178498001Y-82129201D01*
X179324000Y-81026000D02*
X178498001Y-81851999D01*
X178498001Y-82129201D02*
X178447201Y-82180001D01*
X164465000Y-99054920D02*
X163611560Y-99054920D01*
X178447201Y-82180001D02*
X178169999Y-82180001D01*
X178169999Y-82180001D02*
X166116000Y-94234000D01*
X166116000Y-94234000D02*
X166116000Y-97403920D01*
X166116000Y-97403920D02*
X164465000Y-99054920D01*
X154279611Y-106832389D02*
X154279611Y-104152262D01*
X131338000Y-105405200D02*
X135254411Y-109321611D01*
X154279611Y-104152262D02*
X155273187Y-103158686D01*
X151790389Y-109321611D02*
X154279611Y-106832389D01*
X131338000Y-104752000D02*
X131338000Y-105405200D01*
X135254411Y-109321611D02*
X151790389Y-109321611D01*
X159512000Y-101092000D02*
X159760920Y-101340920D01*
X159760920Y-101340920D02*
X159760920Y-102905560D01*
X153670011Y-106425989D02*
X153670011Y-103771724D01*
X153670011Y-103771724D02*
X154990810Y-102450925D01*
X131838000Y-105259202D02*
X135290798Y-108712000D01*
X131838000Y-104752000D02*
X131838000Y-105259202D01*
X151384000Y-108712000D02*
X153670011Y-106425989D01*
X135290798Y-108712000D02*
X151384000Y-108712000D01*
X158496000Y-100838000D02*
X158496000Y-101269052D01*
X158496000Y-101269052D02*
X159263080Y-102036132D01*
X159263080Y-102036132D02*
X159263080Y-102905560D01*
X157761940Y-102905560D02*
X157761940Y-105106453D01*
X157761940Y-105106453D02*
X157820370Y-105164883D01*
X192024000Y-105664000D02*
X192024000Y-104945580D01*
X192024000Y-104945580D02*
X187916420Y-100838000D01*
X187916420Y-100838000D02*
X186771100Y-100838000D01*
X125476000Y-96780000D02*
X125476000Y-96520000D01*
X125838000Y-97142000D02*
X125476000Y-96780000D01*
X125838000Y-97492000D02*
X125838000Y-97142000D01*
X122884000Y-90011000D02*
X122884000Y-92404000D01*
X122884000Y-92404000D02*
X124968000Y-94488000D01*
X126338000Y-96554974D02*
X126338000Y-97492000D01*
X124962569Y-95707199D02*
X125490225Y-95707199D01*
X120344000Y-91088630D02*
X124962569Y-95707199D01*
X120344000Y-90011000D02*
X120344000Y-91088630D01*
X125490225Y-95707199D02*
X126338000Y-96554974D01*
X125424000Y-90011000D02*
X126838000Y-91425000D01*
X126838000Y-91425000D02*
X126838000Y-97492000D01*
X127964000Y-90011000D02*
X127964000Y-91088630D01*
X127964000Y-91088630D02*
X127338000Y-91714630D01*
X127338000Y-91714630D02*
X127338000Y-97492000D01*
X130504000Y-90011000D02*
X127838000Y-92677000D01*
X127838000Y-92677000D02*
X127838000Y-97492000D01*
X133044000Y-90011000D02*
X128338000Y-94717000D01*
X128338000Y-94717000D02*
X128338000Y-97492000D01*
X134506370Y-90011000D02*
X135584000Y-90011000D01*
X128838000Y-97492000D02*
X128838000Y-95679370D01*
X128838000Y-95679370D02*
X134506370Y-90011000D01*
X129338000Y-96757637D02*
X129338000Y-97492000D01*
X135068636Y-91027001D02*
X129338000Y-96757637D01*
X138124000Y-90011000D02*
X137046370Y-90011000D01*
X136030369Y-91027001D02*
X135068636Y-91027001D01*
X137046370Y-90011000D02*
X136030369Y-91027001D01*
X129838000Y-96760547D02*
X135215935Y-91382612D01*
X139489055Y-91185945D02*
X140664000Y-90011000D01*
X129838000Y-97492000D02*
X129838000Y-96760547D01*
X136415647Y-91185945D02*
X139489055Y-91185945D01*
X136218979Y-91382612D02*
X136415647Y-91185945D01*
X135215935Y-91382612D02*
X136218979Y-91382612D01*
X141673444Y-91541556D02*
X143204000Y-90011000D01*
X136562945Y-91541556D02*
X141673444Y-91541556D01*
X136366278Y-91738222D02*
X136562945Y-91541556D01*
X135363234Y-91738222D02*
X136366278Y-91738222D01*
X130338000Y-97492000D02*
X130338000Y-96763456D01*
X130338000Y-96763456D02*
X135363234Y-91738222D01*
X130810000Y-97464000D02*
X130838000Y-97492000D01*
X145744000Y-90011000D02*
X143857833Y-91897167D01*
X136513576Y-92093833D02*
X135510532Y-92093833D01*
X143857833Y-91897167D02*
X136710243Y-91897167D01*
X136710243Y-91897167D02*
X136513576Y-92093833D01*
X135510532Y-92093833D02*
X130810000Y-96794365D01*
X130810000Y-96794365D02*
X130810000Y-97464000D01*
X131338000Y-97492000D02*
X131318000Y-97472000D01*
X131318000Y-97472000D02*
X131318000Y-96789274D01*
X131318000Y-96789274D02*
X135657830Y-92449444D01*
X135657830Y-92449444D02*
X136660874Y-92449444D01*
X136660874Y-92449444D02*
X136857541Y-92252778D01*
X136857541Y-92252778D02*
X146042222Y-92252778D01*
X146042222Y-92252778D02*
X148284000Y-90011000D01*
X148226612Y-92608388D02*
X150824000Y-90011000D01*
X137004838Y-92608388D02*
X148226612Y-92608388D01*
X136808173Y-92805053D02*
X137004838Y-92608388D01*
X135805130Y-92805053D02*
X136808173Y-92805053D01*
X131838000Y-96772183D02*
X135805130Y-92805053D01*
X131838000Y-97492000D02*
X131838000Y-96772183D01*
X152286370Y-90011000D02*
X153364000Y-90011000D01*
X136162134Y-93160664D02*
X146140165Y-93160651D01*
X135952428Y-93160664D02*
X136162134Y-93160664D01*
X132338000Y-96775092D02*
X135952428Y-93160664D01*
X132338000Y-97492000D02*
X132338000Y-96775092D01*
X149136719Y-93160651D02*
X152286370Y-90011000D01*
X146140165Y-93160651D02*
X149136719Y-93160651D01*
X132838000Y-96778000D02*
X135381999Y-94234001D01*
X135381999Y-94234001D02*
X150603369Y-94234001D01*
X150603369Y-94234001D02*
X154826370Y-90011000D01*
X154826370Y-90011000D02*
X155904000Y-90011000D01*
X132838000Y-97492000D02*
X132838000Y-96778000D01*
X122682000Y-99568000D02*
X122682000Y-94889000D01*
X122682000Y-94889000D02*
X117804000Y-90011000D01*
X125838000Y-104752000D02*
X125838000Y-103232000D01*
X125838000Y-103232000D02*
X125222000Y-102616000D01*
X156718000Y-92456000D02*
X156718000Y-94663260D01*
X156718000Y-94663260D02*
X156761180Y-94706440D01*
X166380160Y-88138000D02*
X166380160Y-90667840D01*
X166380160Y-90667840D02*
X164846000Y-92202000D01*
X166380160Y-88138000D02*
X166380160Y-85852000D01*
D42*
G36*
X130846046Y-78468088D02*
X130321997Y-79730139D01*
X130320805Y-81096666D01*
X130842650Y-82359629D01*
X131808088Y-83326754D01*
X133070139Y-83850803D01*
X134436666Y-83851995D01*
X135699629Y-83330150D01*
X136666754Y-82364712D01*
X137190803Y-81102661D01*
X137191995Y-79736134D01*
X136763874Y-78700000D01*
X138377560Y-78700000D01*
X138377560Y-80050000D01*
X138426843Y-80297765D01*
X138567191Y-80507809D01*
X138777235Y-80648157D01*
X139025000Y-80697440D01*
X140375000Y-80697440D01*
X140622765Y-80648157D01*
X140832809Y-80507809D01*
X140973157Y-80297765D01*
X141022440Y-80050000D01*
X141022440Y-78700000D01*
X163142560Y-78700000D01*
X163142560Y-80050000D01*
X163191843Y-80297765D01*
X163332191Y-80507809D01*
X163542235Y-80648157D01*
X163790000Y-80697440D01*
X165140000Y-80697440D01*
X165387765Y-80648157D01*
X165597809Y-80507809D01*
X165738157Y-80297765D01*
X165787440Y-80050000D01*
X165787440Y-78700000D01*
X165738157Y-78452235D01*
X165597809Y-78242191D01*
X165387765Y-78101843D01*
X165140000Y-78052560D01*
X163790000Y-78052560D01*
X163542235Y-78101843D01*
X163332191Y-78242191D01*
X163191843Y-78452235D01*
X163142560Y-78700000D01*
X141022440Y-78700000D01*
X140973157Y-78452235D01*
X140832809Y-78242191D01*
X140622765Y-78101843D01*
X140375000Y-78052560D01*
X139025000Y-78052560D01*
X138777235Y-78101843D01*
X138567191Y-78242191D01*
X138426843Y-78452235D01*
X138377560Y-78700000D01*
X136763874Y-78700000D01*
X136670150Y-78473171D01*
X135985110Y-77786934D01*
X167494701Y-77786934D01*
X166863246Y-78417288D01*
X166339197Y-79679339D01*
X166338005Y-81045866D01*
X166859850Y-82308829D01*
X167825288Y-83275954D01*
X169087339Y-83800003D01*
X170453866Y-83801195D01*
X171716829Y-83279350D01*
X172683954Y-82313912D01*
X173208003Y-81051861D01*
X173209195Y-79685334D01*
X172802064Y-78700000D01*
X189177560Y-78700000D01*
X189177560Y-80050000D01*
X189226843Y-80297765D01*
X189367191Y-80507809D01*
X189577235Y-80648157D01*
X189825000Y-80697440D01*
X191175000Y-80697440D01*
X191422765Y-80648157D01*
X191632809Y-80507809D01*
X191773157Y-80297765D01*
X191822440Y-80050000D01*
X191822440Y-78700000D01*
X191773157Y-78452235D01*
X191632809Y-78242191D01*
X191422765Y-78101843D01*
X191175000Y-78052560D01*
X189825000Y-78052560D01*
X189577235Y-78101843D01*
X189367191Y-78242191D01*
X189226843Y-78452235D01*
X189177560Y-78700000D01*
X172802064Y-78700000D01*
X172687350Y-78422371D01*
X172053021Y-77786934D01*
X192838584Y-77786934D01*
X192838584Y-83658088D01*
X192846107Y-83695906D01*
X192842840Y-83734324D01*
X192881606Y-84080481D01*
X192904593Y-84152769D01*
X192914899Y-84227924D01*
X193026143Y-84549926D01*
X193062795Y-84612625D01*
X193087551Y-84680900D01*
X193263691Y-84971960D01*
X193310126Y-85022758D01*
X193345995Y-85081497D01*
X193579448Y-85334842D01*
X193632446Y-85373474D01*
X193676616Y-85421946D01*
X193959804Y-85630794D01*
X194017205Y-85657754D01*
X194067788Y-85695999D01*
X194393125Y-85853569D01*
X194453459Y-85869276D01*
X194509159Y-85897298D01*
X194869064Y-85996812D01*
X194930936Y-86001362D01*
X194990460Y-86018850D01*
X195377350Y-86053529D01*
X195408136Y-86050224D01*
X195438507Y-86056265D01*
X201615000Y-86056265D01*
X201615000Y-95000000D01*
X201667143Y-95262138D01*
X201815632Y-95484368D01*
X202037862Y-95632857D01*
X202184000Y-95661926D01*
X202184000Y-96943170D01*
X201590910Y-96943170D01*
X201343145Y-96992453D01*
X201133101Y-97132801D01*
X200992753Y-97342845D01*
X200943470Y-97590610D01*
X200943470Y-99487990D01*
X200991041Y-99727146D01*
X200977114Y-99713195D01*
X200597294Y-99555480D01*
X200186031Y-99555121D01*
X199805936Y-99712173D01*
X199514875Y-100002726D01*
X199374125Y-100341690D01*
X199190610Y-100341690D01*
X199091922Y-100361320D01*
X196176954Y-100361320D01*
X194437109Y-98621475D01*
X194537445Y-98601517D01*
X194747489Y-98461169D01*
X194887837Y-98251125D01*
X194937120Y-98003360D01*
X194937120Y-96052640D01*
X194887837Y-95804875D01*
X194747489Y-95594831D01*
X194616500Y-95507306D01*
X194649379Y-95493687D01*
X194828007Y-95315058D01*
X194924680Y-95081669D01*
X194924680Y-94265750D01*
X194765930Y-94107000D01*
X193167000Y-94107000D01*
X193167000Y-94127000D01*
X192913000Y-94127000D01*
X192913000Y-94107000D01*
X191314070Y-94107000D01*
X191155320Y-94265750D01*
X191155320Y-95081669D01*
X191251993Y-95315058D01*
X191430621Y-95493687D01*
X191463500Y-95507306D01*
X191332511Y-95594831D01*
X191192163Y-95804875D01*
X191142880Y-96052640D01*
X191142880Y-96237746D01*
X191063154Y-96253604D01*
X190791223Y-96435303D01*
X188042952Y-99183574D01*
X188003885Y-99157470D01*
X187722000Y-99101400D01*
X187451282Y-99101400D01*
X187271100Y-99065560D01*
X186271100Y-99065560D01*
X186023335Y-99114843D01*
X185813291Y-99255191D01*
X185672943Y-99465235D01*
X185623660Y-99713000D01*
X185623660Y-99963000D01*
X185648524Y-100088000D01*
X185623660Y-100213000D01*
X185623660Y-100463000D01*
X185648524Y-100588000D01*
X185623660Y-100713000D01*
X185623660Y-100963000D01*
X185648524Y-101088000D01*
X185623660Y-101213000D01*
X185623660Y-101463000D01*
X185644317Y-101566853D01*
X185636100Y-101586691D01*
X185636100Y-101616750D01*
X185658747Y-101639397D01*
X185672943Y-101710765D01*
X185799721Y-101900500D01*
X185794850Y-101900500D01*
X185636100Y-102059250D01*
X185636100Y-102089309D01*
X185699604Y-102242620D01*
X185695590Y-102242620D01*
X185536840Y-102401370D01*
X185536840Y-103251000D01*
X186335670Y-103251000D01*
X186494420Y-103092250D01*
X186494420Y-102751310D01*
X186430917Y-102598000D01*
X186485350Y-102598000D01*
X186644100Y-102439250D01*
X186644100Y-102110440D01*
X186898100Y-102110440D01*
X186898100Y-102439250D01*
X187056850Y-102598000D01*
X187397410Y-102598000D01*
X187606134Y-102511544D01*
X190525399Y-105430809D01*
X190525399Y-107695999D01*
X190581469Y-107977884D01*
X190741144Y-108216854D01*
X190881088Y-108356798D01*
X190880802Y-108684359D01*
X191054446Y-109104612D01*
X191375697Y-109426423D01*
X191795646Y-109600801D01*
X192250359Y-109601198D01*
X192670612Y-109427554D01*
X192992423Y-109106303D01*
X193166801Y-108686354D01*
X193166802Y-108684359D01*
X193420802Y-108684359D01*
X193594446Y-109104612D01*
X193915697Y-109426423D01*
X194335646Y-109600801D01*
X194790359Y-109601198D01*
X195210612Y-109427554D01*
X195532423Y-109106303D01*
X195706801Y-108686354D01*
X195707198Y-108231641D01*
X195533554Y-107811388D01*
X195212303Y-107489577D01*
X194792354Y-107315199D01*
X194337641Y-107314802D01*
X193917388Y-107488446D01*
X193595577Y-107809697D01*
X193421199Y-108229646D01*
X193420802Y-108684359D01*
X193166802Y-108684359D01*
X193167198Y-108231641D01*
X192993554Y-107811388D01*
X192672303Y-107489577D01*
X192252354Y-107315199D01*
X191998599Y-107314977D01*
X191998599Y-106806978D01*
X192250359Y-106807198D01*
X192670612Y-106633554D01*
X192992423Y-106312303D01*
X193166801Y-105892354D01*
X193166802Y-105890359D01*
X193420802Y-105890359D01*
X193594446Y-106310612D01*
X193915697Y-106632423D01*
X194335646Y-106806801D01*
X194790359Y-106807198D01*
X195210612Y-106633554D01*
X195532423Y-106312303D01*
X195706801Y-105892354D01*
X195707198Y-105437641D01*
X195533554Y-105017388D01*
X195212303Y-104695577D01*
X194792354Y-104521199D01*
X194337641Y-104520802D01*
X193917388Y-104694446D01*
X193595577Y-105015697D01*
X193421199Y-105435646D01*
X193420802Y-105890359D01*
X193166802Y-105890359D01*
X193167198Y-105437641D01*
X192993554Y-105017388D01*
X192720469Y-104743827D01*
X192704530Y-104663695D01*
X192544855Y-104424725D01*
X191073967Y-102953837D01*
X191080505Y-102952537D01*
X191135000Y-102916124D01*
X191189495Y-102952537D01*
X191437260Y-103001820D01*
X191992950Y-103001820D01*
X192011985Y-103020855D01*
X192250955Y-103180530D01*
X192532840Y-103236600D01*
X198544440Y-103236600D01*
X198544440Y-103336090D01*
X198565635Y-103442645D01*
X198556880Y-103463781D01*
X198556880Y-103531035D01*
X198589756Y-103563911D01*
X198593723Y-103583855D01*
X198734071Y-103793899D01*
X198876661Y-103889175D01*
X198715630Y-103889175D01*
X198556880Y-104047925D01*
X198556880Y-104115179D01*
X198653553Y-104348568D01*
X198832181Y-104527197D01*
X199065570Y-104623870D01*
X199372878Y-104623870D01*
X199516393Y-104971204D01*
X199806946Y-105262265D01*
X200186766Y-105419980D01*
X200598029Y-105420339D01*
X200978124Y-105263287D01*
X200991155Y-105250279D01*
X200943470Y-105490010D01*
X200943470Y-107387390D01*
X200992753Y-107635155D01*
X201133101Y-107845199D01*
X201343145Y-107985547D01*
X201590910Y-108034830D01*
X202184000Y-108034830D01*
X202184000Y-109238074D01*
X202037862Y-109267143D01*
X201815632Y-109415632D01*
X201667143Y-109637862D01*
X201615000Y-109900000D01*
X201615000Y-118905709D01*
X195438507Y-118905709D01*
X195408119Y-118911754D01*
X195377312Y-118908448D01*
X194990422Y-118943150D01*
X194930865Y-118960651D01*
X194868956Y-118965214D01*
X194509052Y-119064791D01*
X194453342Y-119092829D01*
X194392987Y-119108556D01*
X194067650Y-119266216D01*
X194017069Y-119304477D01*
X193959677Y-119331449D01*
X193676488Y-119540398D01*
X193632334Y-119588874D01*
X193579355Y-119627509D01*
X193345901Y-119880956D01*
X193310054Y-119939686D01*
X193263642Y-119990473D01*
X193087502Y-120281624D01*
X193062764Y-120349876D01*
X193026130Y-120412553D01*
X192914887Y-120734613D01*
X192904587Y-120809749D01*
X192881605Y-120882025D01*
X192842839Y-121228208D01*
X192846106Y-121266624D01*
X192838584Y-121304439D01*
X192838584Y-127365210D01*
X171903495Y-127365210D01*
X172683954Y-126586112D01*
X173208003Y-125324061D01*
X173209195Y-123957534D01*
X172687350Y-122694571D01*
X171721912Y-121727446D01*
X170459861Y-121203397D01*
X169093334Y-121202205D01*
X167830371Y-121724050D01*
X166863246Y-122689488D01*
X166339197Y-123951539D01*
X166338005Y-125318066D01*
X166859850Y-126581029D01*
X167642663Y-127365210D01*
X135860895Y-127365210D01*
X136641354Y-126586112D01*
X137165403Y-125324061D01*
X137165637Y-125055000D01*
X138377560Y-125055000D01*
X138377560Y-126405000D01*
X138426843Y-126652765D01*
X138567191Y-126862809D01*
X138777235Y-127003157D01*
X139025000Y-127052440D01*
X140375000Y-127052440D01*
X140622765Y-127003157D01*
X140832809Y-126862809D01*
X140973157Y-126652765D01*
X141022440Y-126405000D01*
X141022440Y-125055000D01*
X163142560Y-125055000D01*
X163142560Y-126405000D01*
X163191843Y-126652765D01*
X163332191Y-126862809D01*
X163542235Y-127003157D01*
X163790000Y-127052440D01*
X165140000Y-127052440D01*
X165387765Y-127003157D01*
X165597809Y-126862809D01*
X165738157Y-126652765D01*
X165787440Y-126405000D01*
X165787440Y-125055000D01*
X165738157Y-124807235D01*
X165597809Y-124597191D01*
X165387765Y-124456843D01*
X165140000Y-124407560D01*
X163790000Y-124407560D01*
X163542235Y-124456843D01*
X163332191Y-124597191D01*
X163191843Y-124807235D01*
X163142560Y-125055000D01*
X141022440Y-125055000D01*
X140973157Y-124807235D01*
X140832809Y-124597191D01*
X140622765Y-124456843D01*
X140375000Y-124407560D01*
X139025000Y-124407560D01*
X138777235Y-124456843D01*
X138567191Y-124597191D01*
X138426843Y-124807235D01*
X138377560Y-125055000D01*
X137165637Y-125055000D01*
X137166595Y-123957534D01*
X136644750Y-122694571D01*
X135679312Y-121727446D01*
X134417261Y-121203397D01*
X133050734Y-121202205D01*
X131787771Y-121724050D01*
X130820646Y-122689488D01*
X130296597Y-123951539D01*
X130295405Y-125318066D01*
X130817250Y-126581029D01*
X131600063Y-127365210D01*
X110650410Y-127365210D01*
X110650410Y-125055000D01*
X112342560Y-125055000D01*
X112342560Y-126405000D01*
X112391843Y-126652765D01*
X112532191Y-126862809D01*
X112742235Y-127003157D01*
X112990000Y-127052440D01*
X114340000Y-127052440D01*
X114587765Y-127003157D01*
X114797809Y-126862809D01*
X114938157Y-126652765D01*
X114987440Y-126405000D01*
X114987440Y-125055000D01*
X114938157Y-124807235D01*
X114797809Y-124597191D01*
X114587765Y-124456843D01*
X114340000Y-124407560D01*
X112990000Y-124407560D01*
X112742235Y-124456843D01*
X112532191Y-124597191D01*
X112391843Y-124807235D01*
X112342560Y-125055000D01*
X110650410Y-125055000D01*
X110650410Y-121253726D01*
X110642887Y-121215908D01*
X110646154Y-121177490D01*
X110607388Y-120831333D01*
X110584401Y-120759044D01*
X110574095Y-120683891D01*
X110462852Y-120361890D01*
X110426200Y-120299190D01*
X110401443Y-120230914D01*
X110225302Y-119939853D01*
X110178867Y-119889055D01*
X110143000Y-119830319D01*
X109909546Y-119576973D01*
X109856553Y-119538344D01*
X109812380Y-119489869D01*
X109529195Y-119281022D01*
X109471793Y-119254062D01*
X109421208Y-119215815D01*
X109095872Y-119058246D01*
X109035538Y-119042539D01*
X108979840Y-119014518D01*
X108619935Y-118915003D01*
X108558062Y-118910453D01*
X108498535Y-118892964D01*
X108111645Y-118858285D01*
X108080857Y-118861591D01*
X108050490Y-118855550D01*
X102180439Y-118855550D01*
X102180439Y-105297306D01*
X102296371Y-105470809D01*
X102506415Y-105611157D01*
X102754180Y-105660440D01*
X104953820Y-105660440D01*
X105201585Y-105611157D01*
X105411629Y-105470809D01*
X105551977Y-105260765D01*
X105601260Y-105013000D01*
X105601260Y-104987600D01*
X112885342Y-104987600D01*
X112741741Y-105130951D01*
X112598363Y-105476242D01*
X112598037Y-105850118D01*
X112740812Y-106195659D01*
X113004951Y-106460259D01*
X113251058Y-106562452D01*
X113707303Y-107018697D01*
X113979235Y-107200396D01*
X114300000Y-107264200D01*
X129446806Y-107264200D01*
X133011303Y-110828697D01*
X133283235Y-111010396D01*
X133604000Y-111074200D01*
X154615140Y-111074200D01*
X154615140Y-112006380D01*
X154664423Y-112254145D01*
X154804771Y-112464189D01*
X155014815Y-112604537D01*
X155262580Y-112653820D01*
X156161740Y-112653820D01*
X156409505Y-112604537D01*
X156463654Y-112568355D01*
X156639951Y-112641380D01*
X156930090Y-112641380D01*
X157088840Y-112482630D01*
X157088840Y-111633000D01*
X157342840Y-111633000D01*
X157342840Y-112482630D01*
X157501590Y-112641380D01*
X157791729Y-112641380D01*
X158025118Y-112544707D01*
X158203747Y-112366079D01*
X158300420Y-112132690D01*
X158300420Y-111791750D01*
X158141670Y-111633000D01*
X157342840Y-111633000D01*
X157088840Y-111633000D01*
X157068840Y-111633000D01*
X157068840Y-111379000D01*
X157088840Y-111379000D01*
X157088840Y-111359000D01*
X157342840Y-111359000D01*
X157342840Y-111379000D01*
X158141670Y-111379000D01*
X158300420Y-111220250D01*
X158300420Y-111074200D01*
X160350354Y-111074200D01*
X160350037Y-111438118D01*
X160492812Y-111783659D01*
X160756951Y-112048259D01*
X161102242Y-112191637D01*
X161476118Y-112191963D01*
X161821659Y-112049188D01*
X162086259Y-111785049D01*
X162140752Y-111653815D01*
X162280951Y-111794259D01*
X162626242Y-111937637D01*
X162712002Y-111937712D01*
X173987305Y-123213015D01*
X174147671Y-123320169D01*
X174161463Y-123389505D01*
X174197876Y-123444000D01*
X174161463Y-123498495D01*
X174112180Y-123746260D01*
X174112180Y-124645420D01*
X174161463Y-124893185D01*
X174301811Y-125103229D01*
X174511855Y-125243577D01*
X174759620Y-125292860D01*
X175760380Y-125292860D01*
X176008145Y-125243577D01*
X176173484Y-125133100D01*
X176279187Y-125133100D01*
X176293171Y-125154029D01*
X176503215Y-125294377D01*
X176750980Y-125343660D01*
X177751740Y-125343660D01*
X177999505Y-125294377D01*
X178209549Y-125154029D01*
X178275718Y-125055000D01*
X189177560Y-125055000D01*
X189177560Y-126405000D01*
X189226843Y-126652765D01*
X189367191Y-126862809D01*
X189577235Y-127003157D01*
X189825000Y-127052440D01*
X191175000Y-127052440D01*
X191422765Y-127003157D01*
X191632809Y-126862809D01*
X191773157Y-126652765D01*
X191822440Y-126405000D01*
X191822440Y-125055000D01*
X191773157Y-124807235D01*
X191632809Y-124597191D01*
X191422765Y-124456843D01*
X191175000Y-124407560D01*
X189825000Y-124407560D01*
X189577235Y-124456843D01*
X189367191Y-124597191D01*
X189226843Y-124807235D01*
X189177560Y-125055000D01*
X178275718Y-125055000D01*
X178349897Y-124943985D01*
X178399180Y-124696220D01*
X178399180Y-124190647D01*
X178406451Y-124201529D01*
X178616495Y-124341877D01*
X178864260Y-124391160D01*
X179865020Y-124391160D01*
X180112785Y-124341877D01*
X180322829Y-124201529D01*
X180336813Y-124180600D01*
X184743791Y-124180600D01*
X185127637Y-124565118D01*
X185728352Y-124814556D01*
X186378795Y-124815124D01*
X186979943Y-124566734D01*
X187440278Y-124107203D01*
X187689716Y-123506488D01*
X187690284Y-122856045D01*
X187441894Y-122254897D01*
X186982363Y-121794562D01*
X186381648Y-121545124D01*
X185731205Y-121544556D01*
X185130057Y-121792946D01*
X184669722Y-122252477D01*
X184480822Y-122707400D01*
X180336813Y-122707400D01*
X180322829Y-122686471D01*
X180112785Y-122546123D01*
X179865020Y-122496840D01*
X178864260Y-122496840D01*
X178616495Y-122546123D01*
X178406451Y-122686471D01*
X178362195Y-122752705D01*
X178227990Y-122618500D01*
X177378360Y-122618500D01*
X177378360Y-123267470D01*
X177537110Y-123426220D01*
X177878050Y-123426220D01*
X178111439Y-123329547D01*
X178216820Y-123224165D01*
X178216820Y-123649853D01*
X178209549Y-123638971D01*
X177999505Y-123498623D01*
X177751740Y-123449340D01*
X176750980Y-123449340D01*
X176503215Y-123498623D01*
X176375533Y-123583938D01*
X176358537Y-123498495D01*
X176322124Y-123444000D01*
X176358537Y-123389505D01*
X176373917Y-123312183D01*
X176391281Y-123329547D01*
X176624670Y-123426220D01*
X176965610Y-123426220D01*
X177124360Y-123267470D01*
X177124360Y-122618500D01*
X177104360Y-122618500D01*
X177104360Y-122364500D01*
X177124360Y-122364500D01*
X177124360Y-121715530D01*
X177378360Y-121715530D01*
X177378360Y-122364500D01*
X178227990Y-122364500D01*
X178386740Y-122205750D01*
X178386740Y-122065471D01*
X178290067Y-121832082D01*
X178111439Y-121653453D01*
X177878050Y-121556780D01*
X177537110Y-121556780D01*
X177378360Y-121715530D01*
X177124360Y-121715530D01*
X176965610Y-121556780D01*
X176624670Y-121556780D01*
X176391281Y-121653453D01*
X176234922Y-121809813D01*
X176218189Y-121784771D01*
X176008145Y-121644423D01*
X175760380Y-121595140D01*
X174759620Y-121595140D01*
X174511855Y-121644423D01*
X174506027Y-121648317D01*
X168967460Y-116109750D01*
X173169580Y-116109750D01*
X173169580Y-116450690D01*
X173266253Y-116684079D01*
X173444882Y-116862707D01*
X173678271Y-116959380D01*
X173968410Y-116959380D01*
X174127160Y-116800630D01*
X174127160Y-115951000D01*
X173328330Y-115951000D01*
X173169580Y-116109750D01*
X168967460Y-116109750D01*
X168055020Y-115197310D01*
X173169580Y-115197310D01*
X173169580Y-115538250D01*
X173328330Y-115697000D01*
X174127160Y-115697000D01*
X174127160Y-114847370D01*
X173968410Y-114688620D01*
X173678271Y-114688620D01*
X173444882Y-114785293D01*
X173266253Y-114963921D01*
X173169580Y-115197310D01*
X168055020Y-115197310D01*
X167142470Y-114284760D01*
X175021240Y-114284760D01*
X175021240Y-114751693D01*
X175006346Y-114761645D01*
X174830049Y-114688620D01*
X174539910Y-114688620D01*
X174381160Y-114847370D01*
X174381160Y-115697000D01*
X174401160Y-115697000D01*
X174401160Y-115951000D01*
X174381160Y-115951000D01*
X174381160Y-116800630D01*
X174539910Y-116959380D01*
X174830049Y-116959380D01*
X175006346Y-116886355D01*
X175060495Y-116922537D01*
X175308260Y-116971820D01*
X176207420Y-116971820D01*
X176455185Y-116922537D01*
X176665229Y-116782189D01*
X176805577Y-116572145D01*
X176854860Y-116324380D01*
X176854860Y-115323620D01*
X176805577Y-115075855D01*
X176665229Y-114865811D01*
X176494440Y-114751693D01*
X176494440Y-114110970D01*
X176794383Y-114111231D01*
X177285229Y-113908418D01*
X177661098Y-113533204D01*
X177864768Y-113042713D01*
X177865231Y-112511617D01*
X177662418Y-112020771D01*
X177287204Y-111644902D01*
X176796713Y-111441232D01*
X176265617Y-111440769D01*
X175774771Y-111643582D01*
X175398902Y-112018796D01*
X175195232Y-112509287D01*
X175194968Y-112811560D01*
X166939270Y-112811560D01*
X163733530Y-109605820D01*
X163751786Y-109605820D01*
X164114663Y-109968697D01*
X164386594Y-110150396D01*
X164707360Y-110214200D01*
X175480408Y-110214200D01*
X175772796Y-110507098D01*
X176263287Y-110710768D01*
X176679737Y-110711131D01*
X178311143Y-112342537D01*
X178583075Y-112524236D01*
X178903840Y-112588040D01*
X181367580Y-112588040D01*
X181413811Y-112657229D01*
X181623855Y-112797577D01*
X181871620Y-112846860D01*
X182872380Y-112846860D01*
X183120145Y-112797577D01*
X183330189Y-112657229D01*
X183342476Y-112638840D01*
X184137796Y-112638840D01*
X184217971Y-112758829D01*
X184428015Y-112899177D01*
X184675780Y-112948460D01*
X185275220Y-112948460D01*
X185522985Y-112899177D01*
X185733029Y-112758829D01*
X185873377Y-112548785D01*
X185922660Y-112301020D01*
X185922660Y-111300260D01*
X185873377Y-111052495D01*
X185733029Y-110842451D01*
X185666795Y-110798195D01*
X185801000Y-110663990D01*
X185801000Y-110543824D01*
X185873377Y-110435505D01*
X185922660Y-110187740D01*
X185922660Y-109540360D01*
X185933340Y-109540360D01*
X185933340Y-110187740D01*
X185982623Y-110435505D01*
X186055000Y-110543824D01*
X186055000Y-110663990D01*
X186189205Y-110798195D01*
X186122971Y-110842451D01*
X185982623Y-111052495D01*
X185933340Y-111300260D01*
X185933340Y-112301020D01*
X185982623Y-112548785D01*
X186122971Y-112758829D01*
X186333015Y-112899177D01*
X186580780Y-112948460D01*
X187180220Y-112948460D01*
X187375800Y-112909557D01*
X187375800Y-113715800D01*
X187081160Y-113715800D01*
X186760395Y-113779604D01*
X186760393Y-113779605D01*
X186760394Y-113779605D01*
X186488463Y-113961303D01*
X186468329Y-113981437D01*
X186381648Y-113945444D01*
X185731205Y-113944876D01*
X185130057Y-114193266D01*
X184669722Y-114652797D01*
X184420284Y-115253512D01*
X184419716Y-115903955D01*
X184668106Y-116505103D01*
X185127637Y-116965438D01*
X185728352Y-117214876D01*
X186378795Y-117215444D01*
X186979943Y-116967054D01*
X187440278Y-116507523D01*
X187689716Y-115906808D01*
X187690165Y-115392200D01*
X188214000Y-115392200D01*
X188534765Y-115328396D01*
X188806697Y-115146697D01*
X188988396Y-114874765D01*
X189052200Y-114554000D01*
X189052200Y-112809936D01*
X189111310Y-112834420D01*
X189452250Y-112834420D01*
X189611000Y-112675670D01*
X189611000Y-111876840D01*
X189865000Y-111876840D01*
X189865000Y-112675670D01*
X190023750Y-112834420D01*
X190364690Y-112834420D01*
X190598079Y-112737747D01*
X190776707Y-112559118D01*
X190873380Y-112325729D01*
X190873380Y-112035590D01*
X190714630Y-111876840D01*
X189865000Y-111876840D01*
X189611000Y-111876840D01*
X189591000Y-111876840D01*
X189591000Y-111622840D01*
X189611000Y-111622840D01*
X189611000Y-111602840D01*
X189865000Y-111602840D01*
X189865000Y-111622840D01*
X190714630Y-111622840D01*
X190873380Y-111464090D01*
X190873380Y-111173951D01*
X190800355Y-110997654D01*
X190836537Y-110943505D01*
X190885820Y-110695740D01*
X190885820Y-109796580D01*
X190836537Y-109548815D01*
X190696189Y-109338771D01*
X190486145Y-109198423D01*
X190238380Y-109149140D01*
X189674066Y-109149140D01*
X189461085Y-109006830D01*
X189179200Y-108950760D01*
X187963952Y-108950760D01*
X187907386Y-108912964D01*
X187738373Y-108879345D01*
X187718700Y-108849903D01*
X187718700Y-108204000D01*
X187690098Y-108060206D01*
X187654896Y-107883234D01*
X187473197Y-107611303D01*
X187259430Y-107397536D01*
X187472660Y-107078416D01*
X187579000Y-106543807D01*
X187579000Y-105800193D01*
X187472660Y-105265584D01*
X187169828Y-104812365D01*
X186716609Y-104509533D01*
X186224232Y-104411593D01*
X186397747Y-104238079D01*
X186494420Y-104004690D01*
X186494420Y-103663750D01*
X186335670Y-103505000D01*
X185536840Y-103505000D01*
X185536840Y-104354630D01*
X185684385Y-104502175D01*
X185647391Y-104509533D01*
X185194172Y-104812365D01*
X185044358Y-105036577D01*
X185002157Y-104824415D01*
X184861809Y-104614371D01*
X184651765Y-104474023D01*
X184617475Y-104467202D01*
X184657654Y-104440355D01*
X184833951Y-104513380D01*
X185124090Y-104513380D01*
X185282840Y-104354630D01*
X185282840Y-103505000D01*
X185262840Y-103505000D01*
X185262840Y-103251000D01*
X185282840Y-103251000D01*
X185282840Y-102401370D01*
X185124090Y-102242620D01*
X184833951Y-102242620D01*
X184657654Y-102315645D01*
X184603505Y-102279463D01*
X184355740Y-102230180D01*
X183630084Y-102230180D01*
X183643057Y-102210765D01*
X183692340Y-101963000D01*
X183692340Y-101713000D01*
X183667476Y-101588000D01*
X183683043Y-101509738D01*
X183908855Y-101358855D01*
X184427015Y-100840695D01*
X184586690Y-100601725D01*
X184642760Y-100319840D01*
X184642760Y-98354307D01*
X184657654Y-98344355D01*
X184833951Y-98417380D01*
X185124090Y-98417380D01*
X185282840Y-98258630D01*
X185282840Y-97409000D01*
X185536840Y-97409000D01*
X185536840Y-98258630D01*
X185695590Y-98417380D01*
X185985729Y-98417380D01*
X186219118Y-98320707D01*
X186397747Y-98142079D01*
X186494420Y-97908690D01*
X186494420Y-97567750D01*
X186335670Y-97409000D01*
X185536840Y-97409000D01*
X185282840Y-97409000D01*
X185262840Y-97409000D01*
X185262840Y-97155000D01*
X185282840Y-97155000D01*
X185282840Y-96305370D01*
X185536840Y-96305370D01*
X185536840Y-97155000D01*
X186335670Y-97155000D01*
X186494420Y-96996250D01*
X186494420Y-96655310D01*
X186397747Y-96421921D01*
X186219118Y-96243293D01*
X185985729Y-96146620D01*
X185695590Y-96146620D01*
X185536840Y-96305370D01*
X185282840Y-96305370D01*
X185124090Y-96146620D01*
X184833951Y-96146620D01*
X184657654Y-96219645D01*
X184603505Y-96183463D01*
X184355740Y-96134180D01*
X183456580Y-96134180D01*
X183208815Y-96183463D01*
X182998771Y-96323811D01*
X182858423Y-96533855D01*
X182809140Y-96781620D01*
X182809140Y-97782380D01*
X182858423Y-98030145D01*
X182998771Y-98240189D01*
X183169560Y-98354307D01*
X183169560Y-99090356D01*
X183044900Y-99065560D01*
X182044900Y-99065560D01*
X181864718Y-99101400D01*
X181594000Y-99101400D01*
X181312115Y-99157470D01*
X181191893Y-99237800D01*
X180040103Y-99237800D01*
X180005977Y-99066235D01*
X179865629Y-98856191D01*
X179655585Y-98715843D01*
X179407820Y-98666560D01*
X177208180Y-98666560D01*
X176960415Y-98715843D01*
X176750371Y-98856191D01*
X176610023Y-99066235D01*
X176560740Y-99314000D01*
X176560740Y-100838000D01*
X176610023Y-101085765D01*
X176750371Y-101295809D01*
X176960415Y-101436157D01*
X177172577Y-101478358D01*
X176948365Y-101628172D01*
X176645533Y-102081391D01*
X176539193Y-102616000D01*
X176645533Y-103150609D01*
X176948365Y-103603828D01*
X177383606Y-103894647D01*
X177318239Y-103913941D01*
X176892550Y-104257974D01*
X176630920Y-104738723D01*
X176615960Y-104812930D01*
X176738460Y-105029000D01*
X178181000Y-105029000D01*
X178181000Y-105009000D01*
X178435000Y-105009000D01*
X178435000Y-105029000D01*
X179877540Y-105029000D01*
X180000040Y-104812930D01*
X179985080Y-104738723D01*
X179723450Y-104257974D01*
X179297761Y-103913941D01*
X179232394Y-103894647D01*
X179667635Y-103603828D01*
X179970467Y-103150609D01*
X180008087Y-102961481D01*
X182232560Y-105185954D01*
X182232560Y-107271820D01*
X182281843Y-107519585D01*
X182422191Y-107729629D01*
X182632235Y-107869977D01*
X182880000Y-107919260D01*
X184404000Y-107919260D01*
X184651765Y-107869977D01*
X184799268Y-107771418D01*
X184382803Y-108187883D01*
X184201104Y-108459814D01*
X184156043Y-108686354D01*
X184137300Y-108780580D01*
X184137300Y-108849903D01*
X184077623Y-108939215D01*
X184028340Y-109186980D01*
X184028340Y-110187740D01*
X184077623Y-110435505D01*
X184217971Y-110645549D01*
X184365312Y-110744000D01*
X184217971Y-110842451D01*
X184137796Y-110962440D01*
X183449228Y-110962440D01*
X183507380Y-110822049D01*
X183507380Y-110531910D01*
X183348630Y-110373160D01*
X182499000Y-110373160D01*
X182499000Y-110393160D01*
X182245000Y-110393160D01*
X182245000Y-110373160D01*
X181395370Y-110373160D01*
X181236620Y-110531910D01*
X181236620Y-110822049D01*
X181273730Y-110911640D01*
X179251034Y-110911640D01*
X178009665Y-109670271D01*
X181236620Y-109670271D01*
X181236620Y-109960410D01*
X181395370Y-110119160D01*
X182245000Y-110119160D01*
X182245000Y-109320330D01*
X182499000Y-109320330D01*
X182499000Y-110119160D01*
X183348630Y-110119160D01*
X183507380Y-109960410D01*
X183507380Y-109670271D01*
X183410707Y-109436882D01*
X183232079Y-109258253D01*
X182998690Y-109161580D01*
X182657750Y-109161580D01*
X182499000Y-109320330D01*
X182245000Y-109320330D01*
X182086250Y-109161580D01*
X181745310Y-109161580D01*
X181511921Y-109258253D01*
X181333293Y-109436882D01*
X181236620Y-109670271D01*
X178009665Y-109670271D01*
X177864870Y-109525476D01*
X177865025Y-109348343D01*
X178106103Y-109448448D01*
X178479979Y-109448774D01*
X178825520Y-109305999D01*
X179090120Y-109041860D01*
X179233498Y-108696569D01*
X179233824Y-108322693D01*
X179091049Y-107977152D01*
X178826910Y-107712552D01*
X178481619Y-107569174D01*
X178395859Y-107569099D01*
X176325830Y-105499070D01*
X176615960Y-105499070D01*
X176630920Y-105573277D01*
X176892550Y-106054026D01*
X177318239Y-106398059D01*
X177843180Y-106553000D01*
X178181000Y-106553000D01*
X178181000Y-105283000D01*
X178435000Y-105283000D01*
X178435000Y-106553000D01*
X178772820Y-106553000D01*
X179297761Y-106398059D01*
X179723450Y-106054026D01*
X179985080Y-105573277D01*
X180000040Y-105499070D01*
X179877540Y-105283000D01*
X178435000Y-105283000D01*
X178181000Y-105283000D01*
X176738460Y-105283000D01*
X176615960Y-105499070D01*
X176325830Y-105499070D01*
X175214280Y-104387520D01*
X175214280Y-100132307D01*
X175385069Y-100018189D01*
X175525417Y-99808145D01*
X175574700Y-99560380D01*
X175574700Y-98559620D01*
X175525417Y-98311855D01*
X175385069Y-98101811D01*
X175214280Y-97987693D01*
X175214280Y-92878331D01*
X191155320Y-92878331D01*
X191155320Y-93694250D01*
X191314070Y-93853000D01*
X192913000Y-93853000D01*
X192913000Y-92528390D01*
X193167000Y-92528390D01*
X193167000Y-93853000D01*
X194765930Y-93853000D01*
X194924680Y-93694250D01*
X194924680Y-92878331D01*
X194828007Y-92644942D01*
X194649379Y-92466313D01*
X194415990Y-92369640D01*
X193325750Y-92369640D01*
X193167000Y-92528390D01*
X192913000Y-92528390D01*
X192754250Y-92369640D01*
X191664010Y-92369640D01*
X191430621Y-92466313D01*
X191251993Y-92644942D01*
X191155320Y-92878331D01*
X175214280Y-92878331D01*
X175214280Y-89641680D01*
X175203164Y-89585798D01*
X176020802Y-89585798D01*
X176302687Y-89529728D01*
X176541657Y-89370053D01*
X183365992Y-82545718D01*
X183594000Y-82591072D01*
X184085748Y-82493257D01*
X184502632Y-82214704D01*
X184781185Y-81797820D01*
X184879000Y-81306072D01*
X184879000Y-80745928D01*
X184781185Y-80254180D01*
X184502632Y-79837296D01*
X184085748Y-79558743D01*
X183594000Y-79460928D01*
X183102252Y-79558743D01*
X182685368Y-79837296D01*
X182588432Y-79982371D01*
X182452370Y-79803814D01*
X182014991Y-79549333D01*
X181919471Y-79532901D01*
X181721000Y-79656933D01*
X181721000Y-80899000D01*
X181741000Y-80899000D01*
X181741000Y-81153000D01*
X181721000Y-81153000D01*
X181721000Y-81173000D01*
X181467000Y-81173000D01*
X181467000Y-81153000D01*
X181447000Y-81153000D01*
X181447000Y-80899000D01*
X181467000Y-80899000D01*
X181467000Y-79656933D01*
X181268529Y-79532901D01*
X181173009Y-79549333D01*
X180735630Y-79803814D01*
X180599568Y-79982371D01*
X180502632Y-79837296D01*
X180085748Y-79558743D01*
X179594000Y-79460928D01*
X179102252Y-79558743D01*
X178774851Y-79777505D01*
X178701809Y-79668191D01*
X178491765Y-79527843D01*
X178244000Y-79478560D01*
X176944000Y-79478560D01*
X176696235Y-79527843D01*
X176486191Y-79668191D01*
X176345843Y-79878235D01*
X176296560Y-80126000D01*
X176296560Y-81487730D01*
X169561794Y-88222496D01*
X169555910Y-88216602D01*
X169210619Y-88073224D01*
X168980860Y-88073024D01*
X168980860Y-87637620D01*
X168931577Y-87389855D01*
X168791229Y-87179811D01*
X168581185Y-87039463D01*
X168333420Y-86990180D01*
X167434260Y-86990180D01*
X167186495Y-87039463D01*
X167132000Y-87075876D01*
X167116760Y-87065693D01*
X167116760Y-86924307D01*
X167131654Y-86914355D01*
X167307951Y-86987380D01*
X167598090Y-86987380D01*
X167756840Y-86828630D01*
X167756840Y-85979000D01*
X168010840Y-85979000D01*
X168010840Y-86828630D01*
X168169590Y-86987380D01*
X168459729Y-86987380D01*
X168693118Y-86890707D01*
X168871747Y-86712079D01*
X168968420Y-86478690D01*
X168968420Y-86137750D01*
X168809670Y-85979000D01*
X168010840Y-85979000D01*
X167756840Y-85979000D01*
X167736840Y-85979000D01*
X167736840Y-85725000D01*
X167756840Y-85725000D01*
X167756840Y-84875370D01*
X168010840Y-84875370D01*
X168010840Y-85725000D01*
X168809670Y-85725000D01*
X168968420Y-85566250D01*
X168968420Y-85225310D01*
X168871747Y-84991921D01*
X168693118Y-84813293D01*
X168459729Y-84716620D01*
X168169590Y-84716620D01*
X168010840Y-84875370D01*
X167756840Y-84875370D01*
X167598090Y-84716620D01*
X167307951Y-84716620D01*
X167131654Y-84789645D01*
X167077505Y-84753463D01*
X166829740Y-84704180D01*
X165930580Y-84704180D01*
X165682815Y-84753463D01*
X165472771Y-84893811D01*
X165332423Y-85103855D01*
X165283140Y-85351620D01*
X165283140Y-86352380D01*
X165332423Y-86600145D01*
X165472771Y-86810189D01*
X165643560Y-86924307D01*
X165643560Y-87065693D01*
X165472771Y-87179811D01*
X165332423Y-87389855D01*
X165283140Y-87637620D01*
X165283140Y-88638380D01*
X165332423Y-88886145D01*
X165472771Y-89096189D01*
X165643560Y-89210307D01*
X165643560Y-90362730D01*
X164744179Y-91262111D01*
X164659882Y-91262037D01*
X164314341Y-91404812D01*
X164162428Y-91556460D01*
X164252897Y-91421065D01*
X164302180Y-91173300D01*
X164302180Y-89674700D01*
X164252897Y-89426935D01*
X164112549Y-89216891D01*
X163902505Y-89076543D01*
X163745256Y-89045265D01*
X163816284Y-88938965D01*
X164150242Y-89077637D01*
X164524118Y-89077963D01*
X164869659Y-88935188D01*
X165134259Y-88671049D01*
X165277637Y-88325758D01*
X165277963Y-87951882D01*
X165135188Y-87606341D01*
X164871049Y-87341741D01*
X164525758Y-87198363D01*
X164151882Y-87198037D01*
X163816110Y-87336775D01*
X163711229Y-87179811D01*
X163501185Y-87039463D01*
X163253420Y-86990180D01*
X162354260Y-86990180D01*
X162106495Y-87039463D01*
X162052346Y-87075645D01*
X161876049Y-87002620D01*
X161585910Y-87002620D01*
X161427160Y-87161370D01*
X161427160Y-88011000D01*
X161447160Y-88011000D01*
X161447160Y-88265000D01*
X161427160Y-88265000D01*
X161427160Y-88285000D01*
X161173160Y-88285000D01*
X161173160Y-88265000D01*
X160374330Y-88265000D01*
X160215580Y-88423750D01*
X160215580Y-88764690D01*
X160312253Y-88998079D01*
X160353874Y-89039700D01*
X160322951Y-89039700D01*
X160167058Y-89104273D01*
X160167058Y-87937078D01*
X160110988Y-87655193D01*
X160014849Y-87511310D01*
X160215580Y-87511310D01*
X160215580Y-87852250D01*
X160374330Y-88011000D01*
X161173160Y-88011000D01*
X161173160Y-87161370D01*
X161014410Y-87002620D01*
X160724271Y-87002620D01*
X160490882Y-87099293D01*
X160312253Y-87277921D01*
X160215580Y-87511310D01*
X160014849Y-87511310D01*
X159951313Y-87416223D01*
X159081626Y-86546536D01*
X159086537Y-86539185D01*
X159135820Y-86291420D01*
X159135820Y-85392260D01*
X159086537Y-85144495D01*
X159050124Y-85090000D01*
X159086537Y-85035505D01*
X159135820Y-84787740D01*
X159135820Y-83888580D01*
X159086537Y-83640815D01*
X158946189Y-83430771D01*
X158736145Y-83290423D01*
X158488380Y-83241140D01*
X158422600Y-83241140D01*
X158422600Y-82837652D01*
X158594632Y-82722704D01*
X158873185Y-82305820D01*
X158971000Y-81814072D01*
X158971000Y-81253928D01*
X158873185Y-80762180D01*
X158594632Y-80345296D01*
X158177748Y-80066743D01*
X157686000Y-79968928D01*
X157194252Y-80066743D01*
X156777368Y-80345296D01*
X156680432Y-80490371D01*
X156544370Y-80311814D01*
X156106991Y-80057333D01*
X156011471Y-80040901D01*
X155813000Y-80164933D01*
X155813000Y-81407000D01*
X155833000Y-81407000D01*
X155833000Y-81661000D01*
X155813000Y-81661000D01*
X155813000Y-82903067D01*
X156011471Y-83027099D01*
X156106991Y-83010667D01*
X156544370Y-82756186D01*
X156680432Y-82577629D01*
X156777368Y-82722704D01*
X156949400Y-82837652D01*
X156949400Y-83551114D01*
X156889463Y-83640815D01*
X156840180Y-83888580D01*
X156840180Y-84787740D01*
X156889463Y-85035505D01*
X156925876Y-85090000D01*
X156889463Y-85144495D01*
X156840180Y-85392260D01*
X156840180Y-86291420D01*
X156889463Y-86539185D01*
X157029811Y-86749229D01*
X157239855Y-86889577D01*
X157404967Y-86922420D01*
X157467145Y-87015475D01*
X158693858Y-88242188D01*
X158693858Y-89773188D01*
X154817820Y-85897150D01*
X154817820Y-85392260D01*
X154768537Y-85144495D01*
X154732124Y-85090000D01*
X154768537Y-85035505D01*
X154817820Y-84787740D01*
X154817820Y-83888580D01*
X154768537Y-83640815D01*
X154628189Y-83430771D01*
X154418145Y-83290423D01*
X154406600Y-83288127D01*
X154406600Y-82848343D01*
X154594632Y-82722704D01*
X154691568Y-82577629D01*
X154827630Y-82756186D01*
X155265009Y-83010667D01*
X155360529Y-83027099D01*
X155559000Y-82903067D01*
X155559000Y-81661000D01*
X155539000Y-81661000D01*
X155539000Y-81407000D01*
X155559000Y-81407000D01*
X155559000Y-80164933D01*
X155360529Y-80040901D01*
X155265009Y-80057333D01*
X154827630Y-80311814D01*
X154691568Y-80490371D01*
X154594632Y-80345296D01*
X154177748Y-80066743D01*
X153686000Y-79968928D01*
X153194252Y-80066743D01*
X152866851Y-80285505D01*
X152793809Y-80176191D01*
X152583765Y-80035843D01*
X152336000Y-79986560D01*
X151036000Y-79986560D01*
X150788235Y-80035843D01*
X150578191Y-80176191D01*
X150437843Y-80386235D01*
X150388560Y-80634000D01*
X150388560Y-82434000D01*
X150437843Y-82681765D01*
X150578191Y-82891809D01*
X150788235Y-83032157D01*
X151036000Y-83081440D01*
X152336000Y-83081440D01*
X152583765Y-83032157D01*
X152793809Y-82891809D01*
X152866851Y-82782495D01*
X152933400Y-82826961D01*
X152933400Y-83288127D01*
X152921855Y-83290423D01*
X152711811Y-83430771D01*
X152571463Y-83640815D01*
X152522180Y-83888580D01*
X152522180Y-84787740D01*
X152571463Y-85035505D01*
X152607876Y-85090000D01*
X152571463Y-85144495D01*
X152522180Y-85392260D01*
X152522180Y-86291420D01*
X152571463Y-86539185D01*
X152711811Y-86749229D01*
X152921855Y-86889577D01*
X153169620Y-86938860D01*
X153776110Y-86938860D01*
X155502564Y-88665314D01*
X155113697Y-88825990D01*
X154720371Y-89218630D01*
X154685585Y-89302404D01*
X154590579Y-89321301D01*
X154549010Y-89220697D01*
X154156370Y-88827371D01*
X153643100Y-88614243D01*
X153087339Y-88613758D01*
X152573697Y-88825990D01*
X152180371Y-89218630D01*
X152145585Y-89302404D01*
X152050579Y-89321301D01*
X152009010Y-89220697D01*
X151616370Y-88827371D01*
X151103100Y-88614243D01*
X150547339Y-88613758D01*
X150033697Y-88825990D01*
X149640371Y-89218630D01*
X149554051Y-89426512D01*
X149469010Y-89220697D01*
X149076370Y-88827371D01*
X148563100Y-88614243D01*
X148007339Y-88613758D01*
X147493697Y-88825990D01*
X147100371Y-89218630D01*
X147014051Y-89426512D01*
X146929010Y-89220697D01*
X146536370Y-88827371D01*
X146023100Y-88614243D01*
X145467339Y-88613758D01*
X144953697Y-88825990D01*
X144560371Y-89218630D01*
X144474051Y-89426512D01*
X144389010Y-89220697D01*
X143996370Y-88827371D01*
X143483100Y-88614243D01*
X142927339Y-88613758D01*
X142413697Y-88825990D01*
X142020371Y-89218630D01*
X141934051Y-89426512D01*
X141849010Y-89220697D01*
X141456370Y-88827371D01*
X140943100Y-88614243D01*
X140387339Y-88613758D01*
X139873697Y-88825990D01*
X139480371Y-89218630D01*
X139394051Y-89426512D01*
X139309010Y-89220697D01*
X138916370Y-88827371D01*
X138403100Y-88614243D01*
X137847339Y-88613758D01*
X137333697Y-88825990D01*
X136940371Y-89218630D01*
X136905585Y-89302404D01*
X136810579Y-89321301D01*
X136769010Y-89220697D01*
X136376370Y-88827371D01*
X135863100Y-88614243D01*
X135307339Y-88613758D01*
X134793697Y-88825990D01*
X134400371Y-89218630D01*
X134365585Y-89302404D01*
X134270579Y-89321301D01*
X134229010Y-89220697D01*
X133836370Y-88827371D01*
X133323100Y-88614243D01*
X132767339Y-88613758D01*
X132253697Y-88825990D01*
X131860371Y-89218630D01*
X131774051Y-89426512D01*
X131689010Y-89220697D01*
X131296370Y-88827371D01*
X130783100Y-88614243D01*
X130227339Y-88613758D01*
X129713697Y-88825990D01*
X129320371Y-89218630D01*
X129234051Y-89426512D01*
X129149010Y-89220697D01*
X128756370Y-88827371D01*
X128243100Y-88614243D01*
X127687339Y-88613758D01*
X127173697Y-88825990D01*
X126780371Y-89218630D01*
X126694051Y-89426512D01*
X126609010Y-89220697D01*
X126216370Y-88827371D01*
X125703100Y-88614243D01*
X125147339Y-88613758D01*
X124633697Y-88825990D01*
X124240371Y-89218630D01*
X124154051Y-89426512D01*
X124069010Y-89220697D01*
X123676370Y-88827371D01*
X123163100Y-88614243D01*
X122607339Y-88613758D01*
X122093697Y-88825990D01*
X121700371Y-89218630D01*
X121614051Y-89426512D01*
X121529010Y-89220697D01*
X121136370Y-88827371D01*
X120623100Y-88614243D01*
X120067339Y-88613758D01*
X119553697Y-88825990D01*
X119160371Y-89218630D01*
X119074051Y-89426512D01*
X118989010Y-89220697D01*
X118596370Y-88827371D01*
X118083100Y-88614243D01*
X117527339Y-88613758D01*
X117013697Y-88825990D01*
X116620371Y-89218630D01*
X116407243Y-89731900D01*
X116406758Y-90287661D01*
X116618990Y-90801303D01*
X117011630Y-91194629D01*
X117524900Y-91407757D01*
X118080661Y-91408242D01*
X118136472Y-91385182D01*
X121945400Y-95194110D01*
X121945400Y-98975396D01*
X121885741Y-99034951D01*
X121742363Y-99380242D01*
X121742037Y-99754118D01*
X121884812Y-100099659D01*
X122148951Y-100364259D01*
X122494242Y-100507637D01*
X122510170Y-100507651D01*
X122451457Y-100546882D01*
X122415145Y-100571145D01*
X119471890Y-103514400D01*
X105601260Y-103514400D01*
X105601260Y-103489000D01*
X105551977Y-103241235D01*
X105411629Y-103031191D01*
X105201585Y-102890843D01*
X104989423Y-102848642D01*
X105213635Y-102698828D01*
X105381501Y-102447600D01*
X106871522Y-102447600D01*
X106902263Y-102602145D01*
X107042611Y-102812189D01*
X107252655Y-102952537D01*
X107500420Y-103001820D01*
X108399580Y-103001820D01*
X108647345Y-102952537D01*
X108701840Y-102916124D01*
X108756335Y-102952537D01*
X109004100Y-103001820D01*
X109903260Y-103001820D01*
X110151025Y-102952537D01*
X110160509Y-102946200D01*
X110819956Y-102946200D01*
X111064242Y-103047637D01*
X111438118Y-103047963D01*
X111783659Y-102905188D01*
X112048259Y-102641049D01*
X112191637Y-102295758D01*
X112191963Y-101921882D01*
X112049188Y-101576341D01*
X111785049Y-101311741D01*
X111439758Y-101168363D01*
X111065882Y-101168037D01*
X110819597Y-101269800D01*
X110534027Y-101269800D01*
X110501417Y-101105855D01*
X110361069Y-100895811D01*
X110151025Y-100755463D01*
X109903260Y-100706180D01*
X109678297Y-100706180D01*
X109702600Y-100584000D01*
X109702600Y-100461820D01*
X109913420Y-100461820D01*
X110161185Y-100412537D01*
X110371229Y-100272189D01*
X110511577Y-100062145D01*
X110560860Y-99814380D01*
X110560860Y-98813620D01*
X110511577Y-98565855D01*
X110371229Y-98355811D01*
X110161185Y-98215463D01*
X109913420Y-98166180D01*
X109014260Y-98166180D01*
X108766495Y-98215463D01*
X108712346Y-98251645D01*
X108536049Y-98178620D01*
X108245910Y-98178620D01*
X108087160Y-98337370D01*
X108087160Y-99187000D01*
X108107160Y-99187000D01*
X108107160Y-99441000D01*
X108087160Y-99441000D01*
X108087160Y-100290630D01*
X108152410Y-100355880D01*
X107802110Y-100706180D01*
X107500420Y-100706180D01*
X107252655Y-100755463D01*
X107042611Y-100895811D01*
X106990099Y-100974400D01*
X105381501Y-100974400D01*
X105213635Y-100723172D01*
X104778394Y-100432353D01*
X104843761Y-100413059D01*
X105269450Y-100069026D01*
X105524836Y-99599750D01*
X106875580Y-99599750D01*
X106875580Y-99940690D01*
X106972253Y-100174079D01*
X107150882Y-100352707D01*
X107384271Y-100449380D01*
X107674410Y-100449380D01*
X107833160Y-100290630D01*
X107833160Y-99441000D01*
X107034330Y-99441000D01*
X106875580Y-99599750D01*
X105524836Y-99599750D01*
X105531080Y-99588277D01*
X105546040Y-99514070D01*
X105423540Y-99298000D01*
X103981000Y-99298000D01*
X103981000Y-99318000D01*
X103727000Y-99318000D01*
X103727000Y-99298000D01*
X103707000Y-99298000D01*
X103707000Y-99044000D01*
X103727000Y-99044000D01*
X103727000Y-97774000D01*
X103981000Y-97774000D01*
X103981000Y-99044000D01*
X105423540Y-99044000D01*
X105546040Y-98827930D01*
X105531080Y-98753723D01*
X105494938Y-98687310D01*
X106875580Y-98687310D01*
X106875580Y-99028250D01*
X107034330Y-99187000D01*
X107833160Y-99187000D01*
X107833160Y-98337370D01*
X107674410Y-98178620D01*
X107384271Y-98178620D01*
X107150882Y-98275293D01*
X106972253Y-98453921D01*
X106875580Y-98687310D01*
X105494938Y-98687310D01*
X105269450Y-98272974D01*
X104843761Y-97928941D01*
X104318820Y-97774000D01*
X103981000Y-97774000D01*
X103727000Y-97774000D01*
X103389180Y-97774000D01*
X102864239Y-97928941D01*
X102438550Y-98272974D01*
X102180439Y-98747257D01*
X102180439Y-86157137D01*
X108050490Y-86157137D01*
X108080878Y-86151092D01*
X108111685Y-86154398D01*
X108498575Y-86119696D01*
X108558132Y-86102195D01*
X108620041Y-86097632D01*
X108979945Y-85998055D01*
X109035655Y-85970017D01*
X109096007Y-85954291D01*
X109421344Y-85796633D01*
X109471924Y-85758373D01*
X109529324Y-85731397D01*
X109812508Y-85522448D01*
X109856659Y-85473974D01*
X109909638Y-85435340D01*
X110143091Y-85181894D01*
X110178935Y-85123168D01*
X110225351Y-85072378D01*
X110225715Y-85071776D01*
X110225715Y-86485000D01*
X124724286Y-86485000D01*
X124724286Y-82665000D01*
X110650410Y-82665000D01*
X110650410Y-78700000D01*
X112342560Y-78700000D01*
X112342560Y-80050000D01*
X112391843Y-80297765D01*
X112532191Y-80507809D01*
X112742235Y-80648157D01*
X112990000Y-80697440D01*
X114340000Y-80697440D01*
X114587765Y-80648157D01*
X114797809Y-80507809D01*
X114938157Y-80297765D01*
X114987440Y-80050000D01*
X114987440Y-78700000D01*
X114938157Y-78452235D01*
X114797809Y-78242191D01*
X114587765Y-78101843D01*
X114340000Y-78052560D01*
X112990000Y-78052560D01*
X112742235Y-78101843D01*
X112532191Y-78242191D01*
X112391843Y-78452235D01*
X112342560Y-78700000D01*
X110650410Y-78700000D01*
X110650410Y-77786934D01*
X131528390Y-77786934D01*
X130846046Y-78468088D01*
X130846046Y-78468088D01*
G37*
X130846046Y-78468088D02*
X130321997Y-79730139D01*
X130320805Y-81096666D01*
X130842650Y-82359629D01*
X131808088Y-83326754D01*
X133070139Y-83850803D01*
X134436666Y-83851995D01*
X135699629Y-83330150D01*
X136666754Y-82364712D01*
X137190803Y-81102661D01*
X137191995Y-79736134D01*
X136763874Y-78700000D01*
X138377560Y-78700000D01*
X138377560Y-80050000D01*
X138426843Y-80297765D01*
X138567191Y-80507809D01*
X138777235Y-80648157D01*
X139025000Y-80697440D01*
X140375000Y-80697440D01*
X140622765Y-80648157D01*
X140832809Y-80507809D01*
X140973157Y-80297765D01*
X141022440Y-80050000D01*
X141022440Y-78700000D01*
X163142560Y-78700000D01*
X163142560Y-80050000D01*
X163191843Y-80297765D01*
X163332191Y-80507809D01*
X163542235Y-80648157D01*
X163790000Y-80697440D01*
X165140000Y-80697440D01*
X165387765Y-80648157D01*
X165597809Y-80507809D01*
X165738157Y-80297765D01*
X165787440Y-80050000D01*
X165787440Y-78700000D01*
X165738157Y-78452235D01*
X165597809Y-78242191D01*
X165387765Y-78101843D01*
X165140000Y-78052560D01*
X163790000Y-78052560D01*
X163542235Y-78101843D01*
X163332191Y-78242191D01*
X163191843Y-78452235D01*
X163142560Y-78700000D01*
X141022440Y-78700000D01*
X140973157Y-78452235D01*
X140832809Y-78242191D01*
X140622765Y-78101843D01*
X140375000Y-78052560D01*
X139025000Y-78052560D01*
X138777235Y-78101843D01*
X138567191Y-78242191D01*
X138426843Y-78452235D01*
X138377560Y-78700000D01*
X136763874Y-78700000D01*
X136670150Y-78473171D01*
X135985110Y-77786934D01*
X167494701Y-77786934D01*
X166863246Y-78417288D01*
X166339197Y-79679339D01*
X166338005Y-81045866D01*
X166859850Y-82308829D01*
X167825288Y-83275954D01*
X169087339Y-83800003D01*
X170453866Y-83801195D01*
X171716829Y-83279350D01*
X172683954Y-82313912D01*
X173208003Y-81051861D01*
X173209195Y-79685334D01*
X172802064Y-78700000D01*
X189177560Y-78700000D01*
X189177560Y-80050000D01*
X189226843Y-80297765D01*
X189367191Y-80507809D01*
X189577235Y-80648157D01*
X189825000Y-80697440D01*
X191175000Y-80697440D01*
X191422765Y-80648157D01*
X191632809Y-80507809D01*
X191773157Y-80297765D01*
X191822440Y-80050000D01*
X191822440Y-78700000D01*
X191773157Y-78452235D01*
X191632809Y-78242191D01*
X191422765Y-78101843D01*
X191175000Y-78052560D01*
X189825000Y-78052560D01*
X189577235Y-78101843D01*
X189367191Y-78242191D01*
X189226843Y-78452235D01*
X189177560Y-78700000D01*
X172802064Y-78700000D01*
X172687350Y-78422371D01*
X172053021Y-77786934D01*
X192838584Y-77786934D01*
X192838584Y-83658088D01*
X192846107Y-83695906D01*
X192842840Y-83734324D01*
X192881606Y-84080481D01*
X192904593Y-84152769D01*
X192914899Y-84227924D01*
X193026143Y-84549926D01*
X193062795Y-84612625D01*
X193087551Y-84680900D01*
X193263691Y-84971960D01*
X193310126Y-85022758D01*
X193345995Y-85081497D01*
X193579448Y-85334842D01*
X193632446Y-85373474D01*
X193676616Y-85421946D01*
X193959804Y-85630794D01*
X194017205Y-85657754D01*
X194067788Y-85695999D01*
X194393125Y-85853569D01*
X194453459Y-85869276D01*
X194509159Y-85897298D01*
X194869064Y-85996812D01*
X194930936Y-86001362D01*
X194990460Y-86018850D01*
X195377350Y-86053529D01*
X195408136Y-86050224D01*
X195438507Y-86056265D01*
X201615000Y-86056265D01*
X201615000Y-95000000D01*
X201667143Y-95262138D01*
X201815632Y-95484368D01*
X202037862Y-95632857D01*
X202184000Y-95661926D01*
X202184000Y-96943170D01*
X201590910Y-96943170D01*
X201343145Y-96992453D01*
X201133101Y-97132801D01*
X200992753Y-97342845D01*
X200943470Y-97590610D01*
X200943470Y-99487990D01*
X200991041Y-99727146D01*
X200977114Y-99713195D01*
X200597294Y-99555480D01*
X200186031Y-99555121D01*
X199805936Y-99712173D01*
X199514875Y-100002726D01*
X199374125Y-100341690D01*
X199190610Y-100341690D01*
X199091922Y-100361320D01*
X196176954Y-100361320D01*
X194437109Y-98621475D01*
X194537445Y-98601517D01*
X194747489Y-98461169D01*
X194887837Y-98251125D01*
X194937120Y-98003360D01*
X194937120Y-96052640D01*
X194887837Y-95804875D01*
X194747489Y-95594831D01*
X194616500Y-95507306D01*
X194649379Y-95493687D01*
X194828007Y-95315058D01*
X194924680Y-95081669D01*
X194924680Y-94265750D01*
X194765930Y-94107000D01*
X193167000Y-94107000D01*
X193167000Y-94127000D01*
X192913000Y-94127000D01*
X192913000Y-94107000D01*
X191314070Y-94107000D01*
X191155320Y-94265750D01*
X191155320Y-95081669D01*
X191251993Y-95315058D01*
X191430621Y-95493687D01*
X191463500Y-95507306D01*
X191332511Y-95594831D01*
X191192163Y-95804875D01*
X191142880Y-96052640D01*
X191142880Y-96237746D01*
X191063154Y-96253604D01*
X190791223Y-96435303D01*
X188042952Y-99183574D01*
X188003885Y-99157470D01*
X187722000Y-99101400D01*
X187451282Y-99101400D01*
X187271100Y-99065560D01*
X186271100Y-99065560D01*
X186023335Y-99114843D01*
X185813291Y-99255191D01*
X185672943Y-99465235D01*
X185623660Y-99713000D01*
X185623660Y-99963000D01*
X185648524Y-100088000D01*
X185623660Y-100213000D01*
X185623660Y-100463000D01*
X185648524Y-100588000D01*
X185623660Y-100713000D01*
X185623660Y-100963000D01*
X185648524Y-101088000D01*
X185623660Y-101213000D01*
X185623660Y-101463000D01*
X185644317Y-101566853D01*
X185636100Y-101586691D01*
X185636100Y-101616750D01*
X185658747Y-101639397D01*
X185672943Y-101710765D01*
X185799721Y-101900500D01*
X185794850Y-101900500D01*
X185636100Y-102059250D01*
X185636100Y-102089309D01*
X185699604Y-102242620D01*
X185695590Y-102242620D01*
X185536840Y-102401370D01*
X185536840Y-103251000D01*
X186335670Y-103251000D01*
X186494420Y-103092250D01*
X186494420Y-102751310D01*
X186430917Y-102598000D01*
X186485350Y-102598000D01*
X186644100Y-102439250D01*
X186644100Y-102110440D01*
X186898100Y-102110440D01*
X186898100Y-102439250D01*
X187056850Y-102598000D01*
X187397410Y-102598000D01*
X187606134Y-102511544D01*
X190525399Y-105430809D01*
X190525399Y-107695999D01*
X190581469Y-107977884D01*
X190741144Y-108216854D01*
X190881088Y-108356798D01*
X190880802Y-108684359D01*
X191054446Y-109104612D01*
X191375697Y-109426423D01*
X191795646Y-109600801D01*
X192250359Y-109601198D01*
X192670612Y-109427554D01*
X192992423Y-109106303D01*
X193166801Y-108686354D01*
X193166802Y-108684359D01*
X193420802Y-108684359D01*
X193594446Y-109104612D01*
X193915697Y-109426423D01*
X194335646Y-109600801D01*
X194790359Y-109601198D01*
X195210612Y-109427554D01*
X195532423Y-109106303D01*
X195706801Y-108686354D01*
X195707198Y-108231641D01*
X195533554Y-107811388D01*
X195212303Y-107489577D01*
X194792354Y-107315199D01*
X194337641Y-107314802D01*
X193917388Y-107488446D01*
X193595577Y-107809697D01*
X193421199Y-108229646D01*
X193420802Y-108684359D01*
X193166802Y-108684359D01*
X193167198Y-108231641D01*
X192993554Y-107811388D01*
X192672303Y-107489577D01*
X192252354Y-107315199D01*
X191998599Y-107314977D01*
X191998599Y-106806978D01*
X192250359Y-106807198D01*
X192670612Y-106633554D01*
X192992423Y-106312303D01*
X193166801Y-105892354D01*
X193166802Y-105890359D01*
X193420802Y-105890359D01*
X193594446Y-106310612D01*
X193915697Y-106632423D01*
X194335646Y-106806801D01*
X194790359Y-106807198D01*
X195210612Y-106633554D01*
X195532423Y-106312303D01*
X195706801Y-105892354D01*
X195707198Y-105437641D01*
X195533554Y-105017388D01*
X195212303Y-104695577D01*
X194792354Y-104521199D01*
X194337641Y-104520802D01*
X193917388Y-104694446D01*
X193595577Y-105015697D01*
X193421199Y-105435646D01*
X193420802Y-105890359D01*
X193166802Y-105890359D01*
X193167198Y-105437641D01*
X192993554Y-105017388D01*
X192720469Y-104743827D01*
X192704530Y-104663695D01*
X192544855Y-104424725D01*
X191073967Y-102953837D01*
X191080505Y-102952537D01*
X191135000Y-102916124D01*
X191189495Y-102952537D01*
X191437260Y-103001820D01*
X191992950Y-103001820D01*
X192011985Y-103020855D01*
X192250955Y-103180530D01*
X192532840Y-103236600D01*
X198544440Y-103236600D01*
X198544440Y-103336090D01*
X198565635Y-103442645D01*
X198556880Y-103463781D01*
X198556880Y-103531035D01*
X198589756Y-103563911D01*
X198593723Y-103583855D01*
X198734071Y-103793899D01*
X198876661Y-103889175D01*
X198715630Y-103889175D01*
X198556880Y-104047925D01*
X198556880Y-104115179D01*
X198653553Y-104348568D01*
X198832181Y-104527197D01*
X199065570Y-104623870D01*
X199372878Y-104623870D01*
X199516393Y-104971204D01*
X199806946Y-105262265D01*
X200186766Y-105419980D01*
X200598029Y-105420339D01*
X200978124Y-105263287D01*
X200991155Y-105250279D01*
X200943470Y-105490010D01*
X200943470Y-107387390D01*
X200992753Y-107635155D01*
X201133101Y-107845199D01*
X201343145Y-107985547D01*
X201590910Y-108034830D01*
X202184000Y-108034830D01*
X202184000Y-109238074D01*
X202037862Y-109267143D01*
X201815632Y-109415632D01*
X201667143Y-109637862D01*
X201615000Y-109900000D01*
X201615000Y-118905709D01*
X195438507Y-118905709D01*
X195408119Y-118911754D01*
X195377312Y-118908448D01*
X194990422Y-118943150D01*
X194930865Y-118960651D01*
X194868956Y-118965214D01*
X194509052Y-119064791D01*
X194453342Y-119092829D01*
X194392987Y-119108556D01*
X194067650Y-119266216D01*
X194017069Y-119304477D01*
X193959677Y-119331449D01*
X193676488Y-119540398D01*
X193632334Y-119588874D01*
X193579355Y-119627509D01*
X193345901Y-119880956D01*
X193310054Y-119939686D01*
X193263642Y-119990473D01*
X193087502Y-120281624D01*
X193062764Y-120349876D01*
X193026130Y-120412553D01*
X192914887Y-120734613D01*
X192904587Y-120809749D01*
X192881605Y-120882025D01*
X192842839Y-121228208D01*
X192846106Y-121266624D01*
X192838584Y-121304439D01*
X192838584Y-127365210D01*
X171903495Y-127365210D01*
X172683954Y-126586112D01*
X173208003Y-125324061D01*
X173209195Y-123957534D01*
X172687350Y-122694571D01*
X171721912Y-121727446D01*
X170459861Y-121203397D01*
X169093334Y-121202205D01*
X167830371Y-121724050D01*
X166863246Y-122689488D01*
X166339197Y-123951539D01*
X166338005Y-125318066D01*
X166859850Y-126581029D01*
X167642663Y-127365210D01*
X135860895Y-127365210D01*
X136641354Y-126586112D01*
X137165403Y-125324061D01*
X137165637Y-125055000D01*
X138377560Y-125055000D01*
X138377560Y-126405000D01*
X138426843Y-126652765D01*
X138567191Y-126862809D01*
X138777235Y-127003157D01*
X139025000Y-127052440D01*
X140375000Y-127052440D01*
X140622765Y-127003157D01*
X140832809Y-126862809D01*
X140973157Y-126652765D01*
X141022440Y-126405000D01*
X141022440Y-125055000D01*
X163142560Y-125055000D01*
X163142560Y-126405000D01*
X163191843Y-126652765D01*
X163332191Y-126862809D01*
X163542235Y-127003157D01*
X163790000Y-127052440D01*
X165140000Y-127052440D01*
X165387765Y-127003157D01*
X165597809Y-126862809D01*
X165738157Y-126652765D01*
X165787440Y-126405000D01*
X165787440Y-125055000D01*
X165738157Y-124807235D01*
X165597809Y-124597191D01*
X165387765Y-124456843D01*
X165140000Y-124407560D01*
X163790000Y-124407560D01*
X163542235Y-124456843D01*
X163332191Y-124597191D01*
X163191843Y-124807235D01*
X163142560Y-125055000D01*
X141022440Y-125055000D01*
X140973157Y-124807235D01*
X140832809Y-124597191D01*
X140622765Y-124456843D01*
X140375000Y-124407560D01*
X139025000Y-124407560D01*
X138777235Y-124456843D01*
X138567191Y-124597191D01*
X138426843Y-124807235D01*
X138377560Y-125055000D01*
X137165637Y-125055000D01*
X137166595Y-123957534D01*
X136644750Y-122694571D01*
X135679312Y-121727446D01*
X134417261Y-121203397D01*
X133050734Y-121202205D01*
X131787771Y-121724050D01*
X130820646Y-122689488D01*
X130296597Y-123951539D01*
X130295405Y-125318066D01*
X130817250Y-126581029D01*
X131600063Y-127365210D01*
X110650410Y-127365210D01*
X110650410Y-125055000D01*
X112342560Y-125055000D01*
X112342560Y-126405000D01*
X112391843Y-126652765D01*
X112532191Y-126862809D01*
X112742235Y-127003157D01*
X112990000Y-127052440D01*
X114340000Y-127052440D01*
X114587765Y-127003157D01*
X114797809Y-126862809D01*
X114938157Y-126652765D01*
X114987440Y-126405000D01*
X114987440Y-125055000D01*
X114938157Y-124807235D01*
X114797809Y-124597191D01*
X114587765Y-124456843D01*
X114340000Y-124407560D01*
X112990000Y-124407560D01*
X112742235Y-124456843D01*
X112532191Y-124597191D01*
X112391843Y-124807235D01*
X112342560Y-125055000D01*
X110650410Y-125055000D01*
X110650410Y-121253726D01*
X110642887Y-121215908D01*
X110646154Y-121177490D01*
X110607388Y-120831333D01*
X110584401Y-120759044D01*
X110574095Y-120683891D01*
X110462852Y-120361890D01*
X110426200Y-120299190D01*
X110401443Y-120230914D01*
X110225302Y-119939853D01*
X110178867Y-119889055D01*
X110143000Y-119830319D01*
X109909546Y-119576973D01*
X109856553Y-119538344D01*
X109812380Y-119489869D01*
X109529195Y-119281022D01*
X109471793Y-119254062D01*
X109421208Y-119215815D01*
X109095872Y-119058246D01*
X109035538Y-119042539D01*
X108979840Y-119014518D01*
X108619935Y-118915003D01*
X108558062Y-118910453D01*
X108498535Y-118892964D01*
X108111645Y-118858285D01*
X108080857Y-118861591D01*
X108050490Y-118855550D01*
X102180439Y-118855550D01*
X102180439Y-105297306D01*
X102296371Y-105470809D01*
X102506415Y-105611157D01*
X102754180Y-105660440D01*
X104953820Y-105660440D01*
X105201585Y-105611157D01*
X105411629Y-105470809D01*
X105551977Y-105260765D01*
X105601260Y-105013000D01*
X105601260Y-104987600D01*
X112885342Y-104987600D01*
X112741741Y-105130951D01*
X112598363Y-105476242D01*
X112598037Y-105850118D01*
X112740812Y-106195659D01*
X113004951Y-106460259D01*
X113251058Y-106562452D01*
X113707303Y-107018697D01*
X113979235Y-107200396D01*
X114300000Y-107264200D01*
X129446806Y-107264200D01*
X133011303Y-110828697D01*
X133283235Y-111010396D01*
X133604000Y-111074200D01*
X154615140Y-111074200D01*
X154615140Y-112006380D01*
X154664423Y-112254145D01*
X154804771Y-112464189D01*
X155014815Y-112604537D01*
X155262580Y-112653820D01*
X156161740Y-112653820D01*
X156409505Y-112604537D01*
X156463654Y-112568355D01*
X156639951Y-112641380D01*
X156930090Y-112641380D01*
X157088840Y-112482630D01*
X157088840Y-111633000D01*
X157342840Y-111633000D01*
X157342840Y-112482630D01*
X157501590Y-112641380D01*
X157791729Y-112641380D01*
X158025118Y-112544707D01*
X158203747Y-112366079D01*
X158300420Y-112132690D01*
X158300420Y-111791750D01*
X158141670Y-111633000D01*
X157342840Y-111633000D01*
X157088840Y-111633000D01*
X157068840Y-111633000D01*
X157068840Y-111379000D01*
X157088840Y-111379000D01*
X157088840Y-111359000D01*
X157342840Y-111359000D01*
X157342840Y-111379000D01*
X158141670Y-111379000D01*
X158300420Y-111220250D01*
X158300420Y-111074200D01*
X160350354Y-111074200D01*
X160350037Y-111438118D01*
X160492812Y-111783659D01*
X160756951Y-112048259D01*
X161102242Y-112191637D01*
X161476118Y-112191963D01*
X161821659Y-112049188D01*
X162086259Y-111785049D01*
X162140752Y-111653815D01*
X162280951Y-111794259D01*
X162626242Y-111937637D01*
X162712002Y-111937712D01*
X173987305Y-123213015D01*
X174147671Y-123320169D01*
X174161463Y-123389505D01*
X174197876Y-123444000D01*
X174161463Y-123498495D01*
X174112180Y-123746260D01*
X174112180Y-124645420D01*
X174161463Y-124893185D01*
X174301811Y-125103229D01*
X174511855Y-125243577D01*
X174759620Y-125292860D01*
X175760380Y-125292860D01*
X176008145Y-125243577D01*
X176173484Y-125133100D01*
X176279187Y-125133100D01*
X176293171Y-125154029D01*
X176503215Y-125294377D01*
X176750980Y-125343660D01*
X177751740Y-125343660D01*
X177999505Y-125294377D01*
X178209549Y-125154029D01*
X178275718Y-125055000D01*
X189177560Y-125055000D01*
X189177560Y-126405000D01*
X189226843Y-126652765D01*
X189367191Y-126862809D01*
X189577235Y-127003157D01*
X189825000Y-127052440D01*
X191175000Y-127052440D01*
X191422765Y-127003157D01*
X191632809Y-126862809D01*
X191773157Y-126652765D01*
X191822440Y-126405000D01*
X191822440Y-125055000D01*
X191773157Y-124807235D01*
X191632809Y-124597191D01*
X191422765Y-124456843D01*
X191175000Y-124407560D01*
X189825000Y-124407560D01*
X189577235Y-124456843D01*
X189367191Y-124597191D01*
X189226843Y-124807235D01*
X189177560Y-125055000D01*
X178275718Y-125055000D01*
X178349897Y-124943985D01*
X178399180Y-124696220D01*
X178399180Y-124190647D01*
X178406451Y-124201529D01*
X178616495Y-124341877D01*
X178864260Y-124391160D01*
X179865020Y-124391160D01*
X180112785Y-124341877D01*
X180322829Y-124201529D01*
X180336813Y-124180600D01*
X184743791Y-124180600D01*
X185127637Y-124565118D01*
X185728352Y-124814556D01*
X186378795Y-124815124D01*
X186979943Y-124566734D01*
X187440278Y-124107203D01*
X187689716Y-123506488D01*
X187690284Y-122856045D01*
X187441894Y-122254897D01*
X186982363Y-121794562D01*
X186381648Y-121545124D01*
X185731205Y-121544556D01*
X185130057Y-121792946D01*
X184669722Y-122252477D01*
X184480822Y-122707400D01*
X180336813Y-122707400D01*
X180322829Y-122686471D01*
X180112785Y-122546123D01*
X179865020Y-122496840D01*
X178864260Y-122496840D01*
X178616495Y-122546123D01*
X178406451Y-122686471D01*
X178362195Y-122752705D01*
X178227990Y-122618500D01*
X177378360Y-122618500D01*
X177378360Y-123267470D01*
X177537110Y-123426220D01*
X177878050Y-123426220D01*
X178111439Y-123329547D01*
X178216820Y-123224165D01*
X178216820Y-123649853D01*
X178209549Y-123638971D01*
X177999505Y-123498623D01*
X177751740Y-123449340D01*
X176750980Y-123449340D01*
X176503215Y-123498623D01*
X176375533Y-123583938D01*
X176358537Y-123498495D01*
X176322124Y-123444000D01*
X176358537Y-123389505D01*
X176373917Y-123312183D01*
X176391281Y-123329547D01*
X176624670Y-123426220D01*
X176965610Y-123426220D01*
X177124360Y-123267470D01*
X177124360Y-122618500D01*
X177104360Y-122618500D01*
X177104360Y-122364500D01*
X177124360Y-122364500D01*
X177124360Y-121715530D01*
X177378360Y-121715530D01*
X177378360Y-122364500D01*
X178227990Y-122364500D01*
X178386740Y-122205750D01*
X178386740Y-122065471D01*
X178290067Y-121832082D01*
X178111439Y-121653453D01*
X177878050Y-121556780D01*
X177537110Y-121556780D01*
X177378360Y-121715530D01*
X177124360Y-121715530D01*
X176965610Y-121556780D01*
X176624670Y-121556780D01*
X176391281Y-121653453D01*
X176234922Y-121809813D01*
X176218189Y-121784771D01*
X176008145Y-121644423D01*
X175760380Y-121595140D01*
X174759620Y-121595140D01*
X174511855Y-121644423D01*
X174506027Y-121648317D01*
X168967460Y-116109750D01*
X173169580Y-116109750D01*
X173169580Y-116450690D01*
X173266253Y-116684079D01*
X173444882Y-116862707D01*
X173678271Y-116959380D01*
X173968410Y-116959380D01*
X174127160Y-116800630D01*
X174127160Y-115951000D01*
X173328330Y-115951000D01*
X173169580Y-116109750D01*
X168967460Y-116109750D01*
X168055020Y-115197310D01*
X173169580Y-115197310D01*
X173169580Y-115538250D01*
X173328330Y-115697000D01*
X174127160Y-115697000D01*
X174127160Y-114847370D01*
X173968410Y-114688620D01*
X173678271Y-114688620D01*
X173444882Y-114785293D01*
X173266253Y-114963921D01*
X173169580Y-115197310D01*
X168055020Y-115197310D01*
X167142470Y-114284760D01*
X175021240Y-114284760D01*
X175021240Y-114751693D01*
X175006346Y-114761645D01*
X174830049Y-114688620D01*
X174539910Y-114688620D01*
X174381160Y-114847370D01*
X174381160Y-115697000D01*
X174401160Y-115697000D01*
X174401160Y-115951000D01*
X174381160Y-115951000D01*
X174381160Y-116800630D01*
X174539910Y-116959380D01*
X174830049Y-116959380D01*
X175006346Y-116886355D01*
X175060495Y-116922537D01*
X175308260Y-116971820D01*
X176207420Y-116971820D01*
X176455185Y-116922537D01*
X176665229Y-116782189D01*
X176805577Y-116572145D01*
X176854860Y-116324380D01*
X176854860Y-115323620D01*
X176805577Y-115075855D01*
X176665229Y-114865811D01*
X176494440Y-114751693D01*
X176494440Y-114110970D01*
X176794383Y-114111231D01*
X177285229Y-113908418D01*
X177661098Y-113533204D01*
X177864768Y-113042713D01*
X177865231Y-112511617D01*
X177662418Y-112020771D01*
X177287204Y-111644902D01*
X176796713Y-111441232D01*
X176265617Y-111440769D01*
X175774771Y-111643582D01*
X175398902Y-112018796D01*
X175195232Y-112509287D01*
X175194968Y-112811560D01*
X166939270Y-112811560D01*
X163733530Y-109605820D01*
X163751786Y-109605820D01*
X164114663Y-109968697D01*
X164386594Y-110150396D01*
X164707360Y-110214200D01*
X175480408Y-110214200D01*
X175772796Y-110507098D01*
X176263287Y-110710768D01*
X176679737Y-110711131D01*
X178311143Y-112342537D01*
X178583075Y-112524236D01*
X178903840Y-112588040D01*
X181367580Y-112588040D01*
X181413811Y-112657229D01*
X181623855Y-112797577D01*
X181871620Y-112846860D01*
X182872380Y-112846860D01*
X183120145Y-112797577D01*
X183330189Y-112657229D01*
X183342476Y-112638840D01*
X184137796Y-112638840D01*
X184217971Y-112758829D01*
X184428015Y-112899177D01*
X184675780Y-112948460D01*
X185275220Y-112948460D01*
X185522985Y-112899177D01*
X185733029Y-112758829D01*
X185873377Y-112548785D01*
X185922660Y-112301020D01*
X185922660Y-111300260D01*
X185873377Y-111052495D01*
X185733029Y-110842451D01*
X185666795Y-110798195D01*
X185801000Y-110663990D01*
X185801000Y-110543824D01*
X185873377Y-110435505D01*
X185922660Y-110187740D01*
X185922660Y-109540360D01*
X185933340Y-109540360D01*
X185933340Y-110187740D01*
X185982623Y-110435505D01*
X186055000Y-110543824D01*
X186055000Y-110663990D01*
X186189205Y-110798195D01*
X186122971Y-110842451D01*
X185982623Y-111052495D01*
X185933340Y-111300260D01*
X185933340Y-112301020D01*
X185982623Y-112548785D01*
X186122971Y-112758829D01*
X186333015Y-112899177D01*
X186580780Y-112948460D01*
X187180220Y-112948460D01*
X187375800Y-112909557D01*
X187375800Y-113715800D01*
X187081160Y-113715800D01*
X186760395Y-113779604D01*
X186760393Y-113779605D01*
X186760394Y-113779605D01*
X186488463Y-113961303D01*
X186468329Y-113981437D01*
X186381648Y-113945444D01*
X185731205Y-113944876D01*
X185130057Y-114193266D01*
X184669722Y-114652797D01*
X184420284Y-115253512D01*
X184419716Y-115903955D01*
X184668106Y-116505103D01*
X185127637Y-116965438D01*
X185728352Y-117214876D01*
X186378795Y-117215444D01*
X186979943Y-116967054D01*
X187440278Y-116507523D01*
X187689716Y-115906808D01*
X187690165Y-115392200D01*
X188214000Y-115392200D01*
X188534765Y-115328396D01*
X188806697Y-115146697D01*
X188988396Y-114874765D01*
X189052200Y-114554000D01*
X189052200Y-112809936D01*
X189111310Y-112834420D01*
X189452250Y-112834420D01*
X189611000Y-112675670D01*
X189611000Y-111876840D01*
X189865000Y-111876840D01*
X189865000Y-112675670D01*
X190023750Y-112834420D01*
X190364690Y-112834420D01*
X190598079Y-112737747D01*
X190776707Y-112559118D01*
X190873380Y-112325729D01*
X190873380Y-112035590D01*
X190714630Y-111876840D01*
X189865000Y-111876840D01*
X189611000Y-111876840D01*
X189591000Y-111876840D01*
X189591000Y-111622840D01*
X189611000Y-111622840D01*
X189611000Y-111602840D01*
X189865000Y-111602840D01*
X189865000Y-111622840D01*
X190714630Y-111622840D01*
X190873380Y-111464090D01*
X190873380Y-111173951D01*
X190800355Y-110997654D01*
X190836537Y-110943505D01*
X190885820Y-110695740D01*
X190885820Y-109796580D01*
X190836537Y-109548815D01*
X190696189Y-109338771D01*
X190486145Y-109198423D01*
X190238380Y-109149140D01*
X189674066Y-109149140D01*
X189461085Y-109006830D01*
X189179200Y-108950760D01*
X187963952Y-108950760D01*
X187907386Y-108912964D01*
X187738373Y-108879345D01*
X187718700Y-108849903D01*
X187718700Y-108204000D01*
X187690098Y-108060206D01*
X187654896Y-107883234D01*
X187473197Y-107611303D01*
X187259430Y-107397536D01*
X187472660Y-107078416D01*
X187579000Y-106543807D01*
X187579000Y-105800193D01*
X187472660Y-105265584D01*
X187169828Y-104812365D01*
X186716609Y-104509533D01*
X186224232Y-104411593D01*
X186397747Y-104238079D01*
X186494420Y-104004690D01*
X186494420Y-103663750D01*
X186335670Y-103505000D01*
X185536840Y-103505000D01*
X185536840Y-104354630D01*
X185684385Y-104502175D01*
X185647391Y-104509533D01*
X185194172Y-104812365D01*
X185044358Y-105036577D01*
X185002157Y-104824415D01*
X184861809Y-104614371D01*
X184651765Y-104474023D01*
X184617475Y-104467202D01*
X184657654Y-104440355D01*
X184833951Y-104513380D01*
X185124090Y-104513380D01*
X185282840Y-104354630D01*
X185282840Y-103505000D01*
X185262840Y-103505000D01*
X185262840Y-103251000D01*
X185282840Y-103251000D01*
X185282840Y-102401370D01*
X185124090Y-102242620D01*
X184833951Y-102242620D01*
X184657654Y-102315645D01*
X184603505Y-102279463D01*
X184355740Y-102230180D01*
X183630084Y-102230180D01*
X183643057Y-102210765D01*
X183692340Y-101963000D01*
X183692340Y-101713000D01*
X183667476Y-101588000D01*
X183683043Y-101509738D01*
X183908855Y-101358855D01*
X184427015Y-100840695D01*
X184586690Y-100601725D01*
X184642760Y-100319840D01*
X184642760Y-98354307D01*
X184657654Y-98344355D01*
X184833951Y-98417380D01*
X185124090Y-98417380D01*
X185282840Y-98258630D01*
X185282840Y-97409000D01*
X185536840Y-97409000D01*
X185536840Y-98258630D01*
X185695590Y-98417380D01*
X185985729Y-98417380D01*
X186219118Y-98320707D01*
X186397747Y-98142079D01*
X186494420Y-97908690D01*
X186494420Y-97567750D01*
X186335670Y-97409000D01*
X185536840Y-97409000D01*
X185282840Y-97409000D01*
X185262840Y-97409000D01*
X185262840Y-97155000D01*
X185282840Y-97155000D01*
X185282840Y-96305370D01*
X185536840Y-96305370D01*
X185536840Y-97155000D01*
X186335670Y-97155000D01*
X186494420Y-96996250D01*
X186494420Y-96655310D01*
X186397747Y-96421921D01*
X186219118Y-96243293D01*
X185985729Y-96146620D01*
X185695590Y-96146620D01*
X185536840Y-96305370D01*
X185282840Y-96305370D01*
X185124090Y-96146620D01*
X184833951Y-96146620D01*
X184657654Y-96219645D01*
X184603505Y-96183463D01*
X184355740Y-96134180D01*
X183456580Y-96134180D01*
X183208815Y-96183463D01*
X182998771Y-96323811D01*
X182858423Y-96533855D01*
X182809140Y-96781620D01*
X182809140Y-97782380D01*
X182858423Y-98030145D01*
X182998771Y-98240189D01*
X183169560Y-98354307D01*
X183169560Y-99090356D01*
X183044900Y-99065560D01*
X182044900Y-99065560D01*
X181864718Y-99101400D01*
X181594000Y-99101400D01*
X181312115Y-99157470D01*
X181191893Y-99237800D01*
X180040103Y-99237800D01*
X180005977Y-99066235D01*
X179865629Y-98856191D01*
X179655585Y-98715843D01*
X179407820Y-98666560D01*
X177208180Y-98666560D01*
X176960415Y-98715843D01*
X176750371Y-98856191D01*
X176610023Y-99066235D01*
X176560740Y-99314000D01*
X176560740Y-100838000D01*
X176610023Y-101085765D01*
X176750371Y-101295809D01*
X176960415Y-101436157D01*
X177172577Y-101478358D01*
X176948365Y-101628172D01*
X176645533Y-102081391D01*
X176539193Y-102616000D01*
X176645533Y-103150609D01*
X176948365Y-103603828D01*
X177383606Y-103894647D01*
X177318239Y-103913941D01*
X176892550Y-104257974D01*
X176630920Y-104738723D01*
X176615960Y-104812930D01*
X176738460Y-105029000D01*
X178181000Y-105029000D01*
X178181000Y-105009000D01*
X178435000Y-105009000D01*
X178435000Y-105029000D01*
X179877540Y-105029000D01*
X180000040Y-104812930D01*
X179985080Y-104738723D01*
X179723450Y-104257974D01*
X179297761Y-103913941D01*
X179232394Y-103894647D01*
X179667635Y-103603828D01*
X179970467Y-103150609D01*
X180008087Y-102961481D01*
X182232560Y-105185954D01*
X182232560Y-107271820D01*
X182281843Y-107519585D01*
X182422191Y-107729629D01*
X182632235Y-107869977D01*
X182880000Y-107919260D01*
X184404000Y-107919260D01*
X184651765Y-107869977D01*
X184799268Y-107771418D01*
X184382803Y-108187883D01*
X184201104Y-108459814D01*
X184156043Y-108686354D01*
X184137300Y-108780580D01*
X184137300Y-108849903D01*
X184077623Y-108939215D01*
X184028340Y-109186980D01*
X184028340Y-110187740D01*
X184077623Y-110435505D01*
X184217971Y-110645549D01*
X184365312Y-110744000D01*
X184217971Y-110842451D01*
X184137796Y-110962440D01*
X183449228Y-110962440D01*
X183507380Y-110822049D01*
X183507380Y-110531910D01*
X183348630Y-110373160D01*
X182499000Y-110373160D01*
X182499000Y-110393160D01*
X182245000Y-110393160D01*
X182245000Y-110373160D01*
X181395370Y-110373160D01*
X181236620Y-110531910D01*
X181236620Y-110822049D01*
X181273730Y-110911640D01*
X179251034Y-110911640D01*
X178009665Y-109670271D01*
X181236620Y-109670271D01*
X181236620Y-109960410D01*
X181395370Y-110119160D01*
X182245000Y-110119160D01*
X182245000Y-109320330D01*
X182499000Y-109320330D01*
X182499000Y-110119160D01*
X183348630Y-110119160D01*
X183507380Y-109960410D01*
X183507380Y-109670271D01*
X183410707Y-109436882D01*
X183232079Y-109258253D01*
X182998690Y-109161580D01*
X182657750Y-109161580D01*
X182499000Y-109320330D01*
X182245000Y-109320330D01*
X182086250Y-109161580D01*
X181745310Y-109161580D01*
X181511921Y-109258253D01*
X181333293Y-109436882D01*
X181236620Y-109670271D01*
X178009665Y-109670271D01*
X177864870Y-109525476D01*
X177865025Y-109348343D01*
X178106103Y-109448448D01*
X178479979Y-109448774D01*
X178825520Y-109305999D01*
X179090120Y-109041860D01*
X179233498Y-108696569D01*
X179233824Y-108322693D01*
X179091049Y-107977152D01*
X178826910Y-107712552D01*
X178481619Y-107569174D01*
X178395859Y-107569099D01*
X176325830Y-105499070D01*
X176615960Y-105499070D01*
X176630920Y-105573277D01*
X176892550Y-106054026D01*
X177318239Y-106398059D01*
X177843180Y-106553000D01*
X178181000Y-106553000D01*
X178181000Y-105283000D01*
X178435000Y-105283000D01*
X178435000Y-106553000D01*
X178772820Y-106553000D01*
X179297761Y-106398059D01*
X179723450Y-106054026D01*
X179985080Y-105573277D01*
X180000040Y-105499070D01*
X179877540Y-105283000D01*
X178435000Y-105283000D01*
X178181000Y-105283000D01*
X176738460Y-105283000D01*
X176615960Y-105499070D01*
X176325830Y-105499070D01*
X175214280Y-104387520D01*
X175214280Y-100132307D01*
X175385069Y-100018189D01*
X175525417Y-99808145D01*
X175574700Y-99560380D01*
X175574700Y-98559620D01*
X175525417Y-98311855D01*
X175385069Y-98101811D01*
X175214280Y-97987693D01*
X175214280Y-92878331D01*
X191155320Y-92878331D01*
X191155320Y-93694250D01*
X191314070Y-93853000D01*
X192913000Y-93853000D01*
X192913000Y-92528390D01*
X193167000Y-92528390D01*
X193167000Y-93853000D01*
X194765930Y-93853000D01*
X194924680Y-93694250D01*
X194924680Y-92878331D01*
X194828007Y-92644942D01*
X194649379Y-92466313D01*
X194415990Y-92369640D01*
X193325750Y-92369640D01*
X193167000Y-92528390D01*
X192913000Y-92528390D01*
X192754250Y-92369640D01*
X191664010Y-92369640D01*
X191430621Y-92466313D01*
X191251993Y-92644942D01*
X191155320Y-92878331D01*
X175214280Y-92878331D01*
X175214280Y-89641680D01*
X175203164Y-89585798D01*
X176020802Y-89585798D01*
X176302687Y-89529728D01*
X176541657Y-89370053D01*
X183365992Y-82545718D01*
X183594000Y-82591072D01*
X184085748Y-82493257D01*
X184502632Y-82214704D01*
X184781185Y-81797820D01*
X184879000Y-81306072D01*
X184879000Y-80745928D01*
X184781185Y-80254180D01*
X184502632Y-79837296D01*
X184085748Y-79558743D01*
X183594000Y-79460928D01*
X183102252Y-79558743D01*
X182685368Y-79837296D01*
X182588432Y-79982371D01*
X182452370Y-79803814D01*
X182014991Y-79549333D01*
X181919471Y-79532901D01*
X181721000Y-79656933D01*
X181721000Y-80899000D01*
X181741000Y-80899000D01*
X181741000Y-81153000D01*
X181721000Y-81153000D01*
X181721000Y-81173000D01*
X181467000Y-81173000D01*
X181467000Y-81153000D01*
X181447000Y-81153000D01*
X181447000Y-80899000D01*
X181467000Y-80899000D01*
X181467000Y-79656933D01*
X181268529Y-79532901D01*
X181173009Y-79549333D01*
X180735630Y-79803814D01*
X180599568Y-79982371D01*
X180502632Y-79837296D01*
X180085748Y-79558743D01*
X179594000Y-79460928D01*
X179102252Y-79558743D01*
X178774851Y-79777505D01*
X178701809Y-79668191D01*
X178491765Y-79527843D01*
X178244000Y-79478560D01*
X176944000Y-79478560D01*
X176696235Y-79527843D01*
X176486191Y-79668191D01*
X176345843Y-79878235D01*
X176296560Y-80126000D01*
X176296560Y-81487730D01*
X169561794Y-88222496D01*
X169555910Y-88216602D01*
X169210619Y-88073224D01*
X168980860Y-88073024D01*
X168980860Y-87637620D01*
X168931577Y-87389855D01*
X168791229Y-87179811D01*
X168581185Y-87039463D01*
X168333420Y-86990180D01*
X167434260Y-86990180D01*
X167186495Y-87039463D01*
X167132000Y-87075876D01*
X167116760Y-87065693D01*
X167116760Y-86924307D01*
X167131654Y-86914355D01*
X167307951Y-86987380D01*
X167598090Y-86987380D01*
X167756840Y-86828630D01*
X167756840Y-85979000D01*
X168010840Y-85979000D01*
X168010840Y-86828630D01*
X168169590Y-86987380D01*
X168459729Y-86987380D01*
X168693118Y-86890707D01*
X168871747Y-86712079D01*
X168968420Y-86478690D01*
X168968420Y-86137750D01*
X168809670Y-85979000D01*
X168010840Y-85979000D01*
X167756840Y-85979000D01*
X167736840Y-85979000D01*
X167736840Y-85725000D01*
X167756840Y-85725000D01*
X167756840Y-84875370D01*
X168010840Y-84875370D01*
X168010840Y-85725000D01*
X168809670Y-85725000D01*
X168968420Y-85566250D01*
X168968420Y-85225310D01*
X168871747Y-84991921D01*
X168693118Y-84813293D01*
X168459729Y-84716620D01*
X168169590Y-84716620D01*
X168010840Y-84875370D01*
X167756840Y-84875370D01*
X167598090Y-84716620D01*
X167307951Y-84716620D01*
X167131654Y-84789645D01*
X167077505Y-84753463D01*
X166829740Y-84704180D01*
X165930580Y-84704180D01*
X165682815Y-84753463D01*
X165472771Y-84893811D01*
X165332423Y-85103855D01*
X165283140Y-85351620D01*
X165283140Y-86352380D01*
X165332423Y-86600145D01*
X165472771Y-86810189D01*
X165643560Y-86924307D01*
X165643560Y-87065693D01*
X165472771Y-87179811D01*
X165332423Y-87389855D01*
X165283140Y-87637620D01*
X165283140Y-88638380D01*
X165332423Y-88886145D01*
X165472771Y-89096189D01*
X165643560Y-89210307D01*
X165643560Y-90362730D01*
X164744179Y-91262111D01*
X164659882Y-91262037D01*
X164314341Y-91404812D01*
X164162428Y-91556460D01*
X164252897Y-91421065D01*
X164302180Y-91173300D01*
X164302180Y-89674700D01*
X164252897Y-89426935D01*
X164112549Y-89216891D01*
X163902505Y-89076543D01*
X163745256Y-89045265D01*
X163816284Y-88938965D01*
X164150242Y-89077637D01*
X164524118Y-89077963D01*
X164869659Y-88935188D01*
X165134259Y-88671049D01*
X165277637Y-88325758D01*
X165277963Y-87951882D01*
X165135188Y-87606341D01*
X164871049Y-87341741D01*
X164525758Y-87198363D01*
X164151882Y-87198037D01*
X163816110Y-87336775D01*
X163711229Y-87179811D01*
X163501185Y-87039463D01*
X163253420Y-86990180D01*
X162354260Y-86990180D01*
X162106495Y-87039463D01*
X162052346Y-87075645D01*
X161876049Y-87002620D01*
X161585910Y-87002620D01*
X161427160Y-87161370D01*
X161427160Y-88011000D01*
X161447160Y-88011000D01*
X161447160Y-88265000D01*
X161427160Y-88265000D01*
X161427160Y-88285000D01*
X161173160Y-88285000D01*
X161173160Y-88265000D01*
X160374330Y-88265000D01*
X160215580Y-88423750D01*
X160215580Y-88764690D01*
X160312253Y-88998079D01*
X160353874Y-89039700D01*
X160322951Y-89039700D01*
X160167058Y-89104273D01*
X160167058Y-87937078D01*
X160110988Y-87655193D01*
X160014849Y-87511310D01*
X160215580Y-87511310D01*
X160215580Y-87852250D01*
X160374330Y-88011000D01*
X161173160Y-88011000D01*
X161173160Y-87161370D01*
X161014410Y-87002620D01*
X160724271Y-87002620D01*
X160490882Y-87099293D01*
X160312253Y-87277921D01*
X160215580Y-87511310D01*
X160014849Y-87511310D01*
X159951313Y-87416223D01*
X159081626Y-86546536D01*
X159086537Y-86539185D01*
X159135820Y-86291420D01*
X159135820Y-85392260D01*
X159086537Y-85144495D01*
X159050124Y-85090000D01*
X159086537Y-85035505D01*
X159135820Y-84787740D01*
X159135820Y-83888580D01*
X159086537Y-83640815D01*
X158946189Y-83430771D01*
X158736145Y-83290423D01*
X158488380Y-83241140D01*
X158422600Y-83241140D01*
X158422600Y-82837652D01*
X158594632Y-82722704D01*
X158873185Y-82305820D01*
X158971000Y-81814072D01*
X158971000Y-81253928D01*
X158873185Y-80762180D01*
X158594632Y-80345296D01*
X158177748Y-80066743D01*
X157686000Y-79968928D01*
X157194252Y-80066743D01*
X156777368Y-80345296D01*
X156680432Y-80490371D01*
X156544370Y-80311814D01*
X156106991Y-80057333D01*
X156011471Y-80040901D01*
X155813000Y-80164933D01*
X155813000Y-81407000D01*
X155833000Y-81407000D01*
X155833000Y-81661000D01*
X155813000Y-81661000D01*
X155813000Y-82903067D01*
X156011471Y-83027099D01*
X156106991Y-83010667D01*
X156544370Y-82756186D01*
X156680432Y-82577629D01*
X156777368Y-82722704D01*
X156949400Y-82837652D01*
X156949400Y-83551114D01*
X156889463Y-83640815D01*
X156840180Y-83888580D01*
X156840180Y-84787740D01*
X156889463Y-85035505D01*
X156925876Y-85090000D01*
X156889463Y-85144495D01*
X156840180Y-85392260D01*
X156840180Y-86291420D01*
X156889463Y-86539185D01*
X157029811Y-86749229D01*
X157239855Y-86889577D01*
X157404967Y-86922420D01*
X157467145Y-87015475D01*
X158693858Y-88242188D01*
X158693858Y-89773188D01*
X154817820Y-85897150D01*
X154817820Y-85392260D01*
X154768537Y-85144495D01*
X154732124Y-85090000D01*
X154768537Y-85035505D01*
X154817820Y-84787740D01*
X154817820Y-83888580D01*
X154768537Y-83640815D01*
X154628189Y-83430771D01*
X154418145Y-83290423D01*
X154406600Y-83288127D01*
X154406600Y-82848343D01*
X154594632Y-82722704D01*
X154691568Y-82577629D01*
X154827630Y-82756186D01*
X155265009Y-83010667D01*
X155360529Y-83027099D01*
X155559000Y-82903067D01*
X155559000Y-81661000D01*
X155539000Y-81661000D01*
X155539000Y-81407000D01*
X155559000Y-81407000D01*
X155559000Y-80164933D01*
X155360529Y-80040901D01*
X155265009Y-80057333D01*
X154827630Y-80311814D01*
X154691568Y-80490371D01*
X154594632Y-80345296D01*
X154177748Y-80066743D01*
X153686000Y-79968928D01*
X153194252Y-80066743D01*
X152866851Y-80285505D01*
X152793809Y-80176191D01*
X152583765Y-80035843D01*
X152336000Y-79986560D01*
X151036000Y-79986560D01*
X150788235Y-80035843D01*
X150578191Y-80176191D01*
X150437843Y-80386235D01*
X150388560Y-80634000D01*
X150388560Y-82434000D01*
X150437843Y-82681765D01*
X150578191Y-82891809D01*
X150788235Y-83032157D01*
X151036000Y-83081440D01*
X152336000Y-83081440D01*
X152583765Y-83032157D01*
X152793809Y-82891809D01*
X152866851Y-82782495D01*
X152933400Y-82826961D01*
X152933400Y-83288127D01*
X152921855Y-83290423D01*
X152711811Y-83430771D01*
X152571463Y-83640815D01*
X152522180Y-83888580D01*
X152522180Y-84787740D01*
X152571463Y-85035505D01*
X152607876Y-85090000D01*
X152571463Y-85144495D01*
X152522180Y-85392260D01*
X152522180Y-86291420D01*
X152571463Y-86539185D01*
X152711811Y-86749229D01*
X152921855Y-86889577D01*
X153169620Y-86938860D01*
X153776110Y-86938860D01*
X155502564Y-88665314D01*
X155113697Y-88825990D01*
X154720371Y-89218630D01*
X154685585Y-89302404D01*
X154590579Y-89321301D01*
X154549010Y-89220697D01*
X154156370Y-88827371D01*
X153643100Y-88614243D01*
X153087339Y-88613758D01*
X152573697Y-88825990D01*
X152180371Y-89218630D01*
X152145585Y-89302404D01*
X152050579Y-89321301D01*
X152009010Y-89220697D01*
X151616370Y-88827371D01*
X151103100Y-88614243D01*
X150547339Y-88613758D01*
X150033697Y-88825990D01*
X149640371Y-89218630D01*
X149554051Y-89426512D01*
X149469010Y-89220697D01*
X149076370Y-88827371D01*
X148563100Y-88614243D01*
X148007339Y-88613758D01*
X147493697Y-88825990D01*
X147100371Y-89218630D01*
X147014051Y-89426512D01*
X146929010Y-89220697D01*
X146536370Y-88827371D01*
X146023100Y-88614243D01*
X145467339Y-88613758D01*
X144953697Y-88825990D01*
X144560371Y-89218630D01*
X144474051Y-89426512D01*
X144389010Y-89220697D01*
X143996370Y-88827371D01*
X143483100Y-88614243D01*
X142927339Y-88613758D01*
X142413697Y-88825990D01*
X142020371Y-89218630D01*
X141934051Y-89426512D01*
X141849010Y-89220697D01*
X141456370Y-88827371D01*
X140943100Y-88614243D01*
X140387339Y-88613758D01*
X139873697Y-88825990D01*
X139480371Y-89218630D01*
X139394051Y-89426512D01*
X139309010Y-89220697D01*
X138916370Y-88827371D01*
X138403100Y-88614243D01*
X137847339Y-88613758D01*
X137333697Y-88825990D01*
X136940371Y-89218630D01*
X136905585Y-89302404D01*
X136810579Y-89321301D01*
X136769010Y-89220697D01*
X136376370Y-88827371D01*
X135863100Y-88614243D01*
X135307339Y-88613758D01*
X134793697Y-88825990D01*
X134400371Y-89218630D01*
X134365585Y-89302404D01*
X134270579Y-89321301D01*
X134229010Y-89220697D01*
X133836370Y-88827371D01*
X133323100Y-88614243D01*
X132767339Y-88613758D01*
X132253697Y-88825990D01*
X131860371Y-89218630D01*
X131774051Y-89426512D01*
X131689010Y-89220697D01*
X131296370Y-88827371D01*
X130783100Y-88614243D01*
X130227339Y-88613758D01*
X129713697Y-88825990D01*
X129320371Y-89218630D01*
X129234051Y-89426512D01*
X129149010Y-89220697D01*
X128756370Y-88827371D01*
X128243100Y-88614243D01*
X127687339Y-88613758D01*
X127173697Y-88825990D01*
X126780371Y-89218630D01*
X126694051Y-89426512D01*
X126609010Y-89220697D01*
X126216370Y-88827371D01*
X125703100Y-88614243D01*
X125147339Y-88613758D01*
X124633697Y-88825990D01*
X124240371Y-89218630D01*
X124154051Y-89426512D01*
X124069010Y-89220697D01*
X123676370Y-88827371D01*
X123163100Y-88614243D01*
X122607339Y-88613758D01*
X122093697Y-88825990D01*
X121700371Y-89218630D01*
X121614051Y-89426512D01*
X121529010Y-89220697D01*
X121136370Y-88827371D01*
X120623100Y-88614243D01*
X120067339Y-88613758D01*
X119553697Y-88825990D01*
X119160371Y-89218630D01*
X119074051Y-89426512D01*
X118989010Y-89220697D01*
X118596370Y-88827371D01*
X118083100Y-88614243D01*
X117527339Y-88613758D01*
X117013697Y-88825990D01*
X116620371Y-89218630D01*
X116407243Y-89731900D01*
X116406758Y-90287661D01*
X116618990Y-90801303D01*
X117011630Y-91194629D01*
X117524900Y-91407757D01*
X118080661Y-91408242D01*
X118136472Y-91385182D01*
X121945400Y-95194110D01*
X121945400Y-98975396D01*
X121885741Y-99034951D01*
X121742363Y-99380242D01*
X121742037Y-99754118D01*
X121884812Y-100099659D01*
X122148951Y-100364259D01*
X122494242Y-100507637D01*
X122510170Y-100507651D01*
X122451457Y-100546882D01*
X122415145Y-100571145D01*
X119471890Y-103514400D01*
X105601260Y-103514400D01*
X105601260Y-103489000D01*
X105551977Y-103241235D01*
X105411629Y-103031191D01*
X105201585Y-102890843D01*
X104989423Y-102848642D01*
X105213635Y-102698828D01*
X105381501Y-102447600D01*
X106871522Y-102447600D01*
X106902263Y-102602145D01*
X107042611Y-102812189D01*
X107252655Y-102952537D01*
X107500420Y-103001820D01*
X108399580Y-103001820D01*
X108647345Y-102952537D01*
X108701840Y-102916124D01*
X108756335Y-102952537D01*
X109004100Y-103001820D01*
X109903260Y-103001820D01*
X110151025Y-102952537D01*
X110160509Y-102946200D01*
X110819956Y-102946200D01*
X111064242Y-103047637D01*
X111438118Y-103047963D01*
X111783659Y-102905188D01*
X112048259Y-102641049D01*
X112191637Y-102295758D01*
X112191963Y-101921882D01*
X112049188Y-101576341D01*
X111785049Y-101311741D01*
X111439758Y-101168363D01*
X111065882Y-101168037D01*
X110819597Y-101269800D01*
X110534027Y-101269800D01*
X110501417Y-101105855D01*
X110361069Y-100895811D01*
X110151025Y-100755463D01*
X109903260Y-100706180D01*
X109678297Y-100706180D01*
X109702600Y-100584000D01*
X109702600Y-100461820D01*
X109913420Y-100461820D01*
X110161185Y-100412537D01*
X110371229Y-100272189D01*
X110511577Y-100062145D01*
X110560860Y-99814380D01*
X110560860Y-98813620D01*
X110511577Y-98565855D01*
X110371229Y-98355811D01*
X110161185Y-98215463D01*
X109913420Y-98166180D01*
X109014260Y-98166180D01*
X108766495Y-98215463D01*
X108712346Y-98251645D01*
X108536049Y-98178620D01*
X108245910Y-98178620D01*
X108087160Y-98337370D01*
X108087160Y-99187000D01*
X108107160Y-99187000D01*
X108107160Y-99441000D01*
X108087160Y-99441000D01*
X108087160Y-100290630D01*
X108152410Y-100355880D01*
X107802110Y-100706180D01*
X107500420Y-100706180D01*
X107252655Y-100755463D01*
X107042611Y-100895811D01*
X106990099Y-100974400D01*
X105381501Y-100974400D01*
X105213635Y-100723172D01*
X104778394Y-100432353D01*
X104843761Y-100413059D01*
X105269450Y-100069026D01*
X105524836Y-99599750D01*
X106875580Y-99599750D01*
X106875580Y-99940690D01*
X106972253Y-100174079D01*
X107150882Y-100352707D01*
X107384271Y-100449380D01*
X107674410Y-100449380D01*
X107833160Y-100290630D01*
X107833160Y-99441000D01*
X107034330Y-99441000D01*
X106875580Y-99599750D01*
X105524836Y-99599750D01*
X105531080Y-99588277D01*
X105546040Y-99514070D01*
X105423540Y-99298000D01*
X103981000Y-99298000D01*
X103981000Y-99318000D01*
X103727000Y-99318000D01*
X103727000Y-99298000D01*
X103707000Y-99298000D01*
X103707000Y-99044000D01*
X103727000Y-99044000D01*
X103727000Y-97774000D01*
X103981000Y-97774000D01*
X103981000Y-99044000D01*
X105423540Y-99044000D01*
X105546040Y-98827930D01*
X105531080Y-98753723D01*
X105494938Y-98687310D01*
X106875580Y-98687310D01*
X106875580Y-99028250D01*
X107034330Y-99187000D01*
X107833160Y-99187000D01*
X107833160Y-98337370D01*
X107674410Y-98178620D01*
X107384271Y-98178620D01*
X107150882Y-98275293D01*
X106972253Y-98453921D01*
X106875580Y-98687310D01*
X105494938Y-98687310D01*
X105269450Y-98272974D01*
X104843761Y-97928941D01*
X104318820Y-97774000D01*
X103981000Y-97774000D01*
X103727000Y-97774000D01*
X103389180Y-97774000D01*
X102864239Y-97928941D01*
X102438550Y-98272974D01*
X102180439Y-98747257D01*
X102180439Y-86157137D01*
X108050490Y-86157137D01*
X108080878Y-86151092D01*
X108111685Y-86154398D01*
X108498575Y-86119696D01*
X108558132Y-86102195D01*
X108620041Y-86097632D01*
X108979945Y-85998055D01*
X109035655Y-85970017D01*
X109096007Y-85954291D01*
X109421344Y-85796633D01*
X109471924Y-85758373D01*
X109529324Y-85731397D01*
X109812508Y-85522448D01*
X109856659Y-85473974D01*
X109909638Y-85435340D01*
X110143091Y-85181894D01*
X110178935Y-85123168D01*
X110225351Y-85072378D01*
X110225715Y-85071776D01*
X110225715Y-86485000D01*
X124724286Y-86485000D01*
X124724286Y-82665000D01*
X110650410Y-82665000D01*
X110650410Y-78700000D01*
X112342560Y-78700000D01*
X112342560Y-80050000D01*
X112391843Y-80297765D01*
X112532191Y-80507809D01*
X112742235Y-80648157D01*
X112990000Y-80697440D01*
X114340000Y-80697440D01*
X114587765Y-80648157D01*
X114797809Y-80507809D01*
X114938157Y-80297765D01*
X114987440Y-80050000D01*
X114987440Y-78700000D01*
X114938157Y-78452235D01*
X114797809Y-78242191D01*
X114587765Y-78101843D01*
X114340000Y-78052560D01*
X112990000Y-78052560D01*
X112742235Y-78101843D01*
X112532191Y-78242191D01*
X112391843Y-78452235D01*
X112342560Y-78700000D01*
X110650410Y-78700000D01*
X110650410Y-77786934D01*
X131528390Y-77786934D01*
X130846046Y-78468088D01*
G36*
X161612580Y-104203240D02*
X161912300Y-104203240D01*
X161930081Y-104199703D01*
X161930081Y-107284209D01*
X161442179Y-107772111D01*
X161357882Y-107772037D01*
X161073381Y-107889591D01*
X160996630Y-107812840D01*
X160147000Y-107812840D01*
X160147000Y-108611670D01*
X160305750Y-108770420D01*
X160604148Y-108770420D01*
X160604037Y-108898118D01*
X160746812Y-109243659D01*
X160879853Y-109376933D01*
X160858986Y-109397800D01*
X158310580Y-109397800D01*
X158310580Y-109251750D01*
X158151830Y-109093000D01*
X157353000Y-109093000D01*
X157353000Y-109113000D01*
X157099000Y-109113000D01*
X157099000Y-109093000D01*
X157079000Y-109093000D01*
X157079000Y-108839000D01*
X157099000Y-108839000D01*
X157099000Y-107989370D01*
X157353000Y-107989370D01*
X157353000Y-108839000D01*
X158151830Y-108839000D01*
X158310580Y-108680250D01*
X158310580Y-108339310D01*
X158213907Y-108105921D01*
X158079576Y-107971590D01*
X158884620Y-107971590D01*
X158884620Y-108261729D01*
X158981293Y-108495118D01*
X159159921Y-108673747D01*
X159393310Y-108770420D01*
X159734250Y-108770420D01*
X159893000Y-108611670D01*
X159893000Y-107812840D01*
X159043370Y-107812840D01*
X158884620Y-107971590D01*
X158079576Y-107971590D01*
X158035278Y-107927293D01*
X157801889Y-107830620D01*
X157511750Y-107830620D01*
X157353000Y-107989370D01*
X157099000Y-107989370D01*
X156940250Y-107830620D01*
X156650111Y-107830620D01*
X156473814Y-107903645D01*
X156458920Y-107893693D01*
X156458920Y-107814151D01*
X156663505Y-107773457D01*
X156717654Y-107737275D01*
X156893951Y-107810300D01*
X157384750Y-107810300D01*
X157543500Y-107651550D01*
X157543500Y-106553000D01*
X157523500Y-106553000D01*
X157523500Y-106299000D01*
X157543500Y-106299000D01*
X157543500Y-106279000D01*
X157797500Y-106279000D01*
X157797500Y-106299000D01*
X157817500Y-106299000D01*
X157817500Y-106553000D01*
X157797500Y-106553000D01*
X157797500Y-107651550D01*
X157956250Y-107810300D01*
X158447049Y-107810300D01*
X158680438Y-107713627D01*
X158859067Y-107534999D01*
X158906065Y-107421535D01*
X159043370Y-107558840D01*
X159893000Y-107558840D01*
X159893000Y-107538840D01*
X160147000Y-107538840D01*
X160147000Y-107558840D01*
X160996630Y-107558840D01*
X161155380Y-107400090D01*
X161155380Y-107109951D01*
X161082355Y-106933654D01*
X161118537Y-106879505D01*
X161167820Y-106631740D01*
X161167820Y-105732580D01*
X161118537Y-105484815D01*
X161113626Y-105477464D01*
X161244435Y-105346655D01*
X161404110Y-105107685D01*
X161460180Y-104825800D01*
X161460180Y-104524540D01*
X161404110Y-104242655D01*
X161377774Y-104203240D01*
X161411920Y-104203240D01*
X161512250Y-104183283D01*
X161612580Y-104203240D01*
X161612580Y-104203240D01*
G37*
X161612580Y-104203240D02*
X161912300Y-104203240D01*
X161930081Y-104199703D01*
X161930081Y-107284209D01*
X161442179Y-107772111D01*
X161357882Y-107772037D01*
X161073381Y-107889591D01*
X160996630Y-107812840D01*
X160147000Y-107812840D01*
X160147000Y-108611670D01*
X160305750Y-108770420D01*
X160604148Y-108770420D01*
X160604037Y-108898118D01*
X160746812Y-109243659D01*
X160879853Y-109376933D01*
X160858986Y-109397800D01*
X158310580Y-109397800D01*
X158310580Y-109251750D01*
X158151830Y-109093000D01*
X157353000Y-109093000D01*
X157353000Y-109113000D01*
X157099000Y-109113000D01*
X157099000Y-109093000D01*
X157079000Y-109093000D01*
X157079000Y-108839000D01*
X157099000Y-108839000D01*
X157099000Y-107989370D01*
X157353000Y-107989370D01*
X157353000Y-108839000D01*
X158151830Y-108839000D01*
X158310580Y-108680250D01*
X158310580Y-108339310D01*
X158213907Y-108105921D01*
X158079576Y-107971590D01*
X158884620Y-107971590D01*
X158884620Y-108261729D01*
X158981293Y-108495118D01*
X159159921Y-108673747D01*
X159393310Y-108770420D01*
X159734250Y-108770420D01*
X159893000Y-108611670D01*
X159893000Y-107812840D01*
X159043370Y-107812840D01*
X158884620Y-107971590D01*
X158079576Y-107971590D01*
X158035278Y-107927293D01*
X157801889Y-107830620D01*
X157511750Y-107830620D01*
X157353000Y-107989370D01*
X157099000Y-107989370D01*
X156940250Y-107830620D01*
X156650111Y-107830620D01*
X156473814Y-107903645D01*
X156458920Y-107893693D01*
X156458920Y-107814151D01*
X156663505Y-107773457D01*
X156717654Y-107737275D01*
X156893951Y-107810300D01*
X157384750Y-107810300D01*
X157543500Y-107651550D01*
X157543500Y-106553000D01*
X157523500Y-106553000D01*
X157523500Y-106299000D01*
X157543500Y-106299000D01*
X157543500Y-106279000D01*
X157797500Y-106279000D01*
X157797500Y-106299000D01*
X157817500Y-106299000D01*
X157817500Y-106553000D01*
X157797500Y-106553000D01*
X157797500Y-107651550D01*
X157956250Y-107810300D01*
X158447049Y-107810300D01*
X158680438Y-107713627D01*
X158859067Y-107534999D01*
X158906065Y-107421535D01*
X159043370Y-107558840D01*
X159893000Y-107558840D01*
X159893000Y-107538840D01*
X160147000Y-107538840D01*
X160147000Y-107558840D01*
X160996630Y-107558840D01*
X161155380Y-107400090D01*
X161155380Y-107109951D01*
X161082355Y-106933654D01*
X161118537Y-106879505D01*
X161167820Y-106631740D01*
X161167820Y-105732580D01*
X161118537Y-105484815D01*
X161113626Y-105477464D01*
X161244435Y-105346655D01*
X161404110Y-105107685D01*
X161460180Y-104825800D01*
X161460180Y-104524540D01*
X161404110Y-104242655D01*
X161377774Y-104203240D01*
X161411920Y-104203240D01*
X161512250Y-104183283D01*
X161612580Y-104203240D01*
G36*
X171526037Y-90102118D02*
X171668812Y-90447659D01*
X171932951Y-90712259D01*
X172278242Y-90855637D01*
X172652118Y-90855963D01*
X172997659Y-90713188D01*
X173262259Y-90449049D01*
X173405637Y-90103758D01*
X173405712Y-90017998D01*
X173465415Y-89958295D01*
X173710951Y-90204259D01*
X173741080Y-90216770D01*
X173741080Y-97987693D01*
X173725840Y-97997876D01*
X173671345Y-97961463D01*
X173423580Y-97912180D01*
X172524420Y-97912180D01*
X172276655Y-97961463D01*
X172066611Y-98101811D01*
X171926263Y-98311855D01*
X171876980Y-98559620D01*
X171876980Y-99560380D01*
X171926263Y-99808145D01*
X172066611Y-100018189D01*
X172276655Y-100158537D01*
X172524420Y-100207820D01*
X172677400Y-100207820D01*
X172677400Y-100503800D01*
X172623697Y-100525990D01*
X172230371Y-100918630D01*
X172017243Y-101431900D01*
X172016758Y-101987661D01*
X172228990Y-102501303D01*
X172621630Y-102894629D01*
X172829512Y-102980949D01*
X172623697Y-103065990D01*
X172230371Y-103458630D01*
X172147835Y-103657400D01*
X171827813Y-103657400D01*
X171813829Y-103636471D01*
X171603785Y-103496123D01*
X171356020Y-103446840D01*
X170355260Y-103446840D01*
X170107495Y-103496123D01*
X169897451Y-103636471D01*
X169853195Y-103702705D01*
X169718990Y-103568500D01*
X168869360Y-103568500D01*
X168869360Y-104217470D01*
X169028110Y-104376220D01*
X169369050Y-104376220D01*
X169602439Y-104279547D01*
X169707820Y-104174165D01*
X169707820Y-104599853D01*
X169700549Y-104588971D01*
X169490505Y-104448623D01*
X169242740Y-104399340D01*
X168241980Y-104399340D01*
X168005321Y-104446414D01*
X167775708Y-104216400D01*
X167430417Y-104073022D01*
X167056541Y-104072696D01*
X166711000Y-104215471D01*
X166446400Y-104479610D01*
X166303022Y-104824901D01*
X166302696Y-105198777D01*
X166445471Y-105544318D01*
X166709610Y-105808918D01*
X167054901Y-105952296D01*
X167140661Y-105952371D01*
X167978056Y-106789766D01*
X167872423Y-106947855D01*
X167823140Y-107195620D01*
X167823140Y-108196380D01*
X167872423Y-108444145D01*
X167935002Y-108537800D01*
X165196840Y-108537800D01*
X165196840Y-108331000D01*
X165216840Y-108331000D01*
X165216840Y-107481370D01*
X165470840Y-107481370D01*
X165470840Y-108331000D01*
X166269670Y-108331000D01*
X166428420Y-108172250D01*
X166428420Y-107831310D01*
X166331747Y-107597921D01*
X166153118Y-107419293D01*
X165919729Y-107322620D01*
X165629590Y-107322620D01*
X165470840Y-107481370D01*
X165216840Y-107481370D01*
X165058090Y-107322620D01*
X164767951Y-107322620D01*
X164678360Y-107359730D01*
X164678360Y-107270270D01*
X164767951Y-107307380D01*
X165058090Y-107307380D01*
X165216840Y-107148630D01*
X165216840Y-106299000D01*
X165470840Y-106299000D01*
X165470840Y-107148630D01*
X165629590Y-107307380D01*
X165919729Y-107307380D01*
X166153118Y-107210707D01*
X166331747Y-107032079D01*
X166428420Y-106798690D01*
X166428420Y-106457750D01*
X166269670Y-106299000D01*
X165470840Y-106299000D01*
X165216840Y-106299000D01*
X165196840Y-106299000D01*
X165196840Y-106045000D01*
X165216840Y-106045000D01*
X165216840Y-105195370D01*
X165470840Y-105195370D01*
X165470840Y-106045000D01*
X166269670Y-106045000D01*
X166428420Y-105886250D01*
X166428420Y-105545310D01*
X166331747Y-105311921D01*
X166153118Y-105133293D01*
X165919729Y-105036620D01*
X165629590Y-105036620D01*
X165470840Y-105195370D01*
X165216840Y-105195370D01*
X165058090Y-105036620D01*
X164767951Y-105036620D01*
X164591654Y-105109645D01*
X164576760Y-105099693D01*
X164576760Y-104178332D01*
X164912242Y-104317637D01*
X165286118Y-104317963D01*
X165631659Y-104175188D01*
X165896259Y-103911049D01*
X165972579Y-103727250D01*
X167606980Y-103727250D01*
X167606980Y-103867529D01*
X167703653Y-104100918D01*
X167882281Y-104279547D01*
X168115670Y-104376220D01*
X168456610Y-104376220D01*
X168615360Y-104217470D01*
X168615360Y-103568500D01*
X167765730Y-103568500D01*
X167606980Y-103727250D01*
X165972579Y-103727250D01*
X166039637Y-103565758D01*
X166039712Y-103479998D01*
X166504239Y-103015471D01*
X167606980Y-103015471D01*
X167606980Y-103155750D01*
X167765730Y-103314500D01*
X168615360Y-103314500D01*
X168615360Y-102665530D01*
X168869360Y-102665530D01*
X168869360Y-103314500D01*
X169718990Y-103314500D01*
X169877740Y-103155750D01*
X169877740Y-103015471D01*
X169781067Y-102782082D01*
X169602439Y-102603453D01*
X169369050Y-102506780D01*
X169028110Y-102506780D01*
X168869360Y-102665530D01*
X168615360Y-102665530D01*
X168456610Y-102506780D01*
X168115670Y-102506780D01*
X167882281Y-102603453D01*
X167703653Y-102782082D01*
X167606980Y-103015471D01*
X166504239Y-103015471D01*
X170700855Y-98818855D01*
X170860530Y-98579885D01*
X170916600Y-98298000D01*
X170916600Y-97366604D01*
X170976259Y-97307049D01*
X171119637Y-96961758D01*
X171119963Y-96587882D01*
X170977188Y-96242341D01*
X170916600Y-96181647D01*
X170916600Y-96098723D01*
X171024537Y-95937185D01*
X171073820Y-95689420D01*
X171073820Y-94790260D01*
X171024537Y-94542495D01*
X170988355Y-94488346D01*
X171061380Y-94312049D01*
X171061380Y-94021910D01*
X170902630Y-93863160D01*
X170053000Y-93863160D01*
X170053000Y-93883160D01*
X169799000Y-93883160D01*
X169799000Y-93863160D01*
X168949370Y-93863160D01*
X168790620Y-94021910D01*
X168790620Y-94312049D01*
X168863645Y-94488346D01*
X168827463Y-94542495D01*
X168778180Y-94790260D01*
X168778180Y-95689420D01*
X168827463Y-95937185D01*
X168967811Y-96147229D01*
X169177855Y-96287577D01*
X169350149Y-96321848D01*
X169240363Y-96586242D01*
X169240037Y-96960118D01*
X169382812Y-97305659D01*
X169443400Y-97366353D01*
X169443400Y-97992890D01*
X164998179Y-102438111D01*
X164913882Y-102438037D01*
X164576760Y-102577333D01*
X164576760Y-102259938D01*
X164719609Y-102164489D01*
X164859957Y-101954445D01*
X164909240Y-101706680D01*
X164909240Y-101473526D01*
X165103347Y-101554127D01*
X165477223Y-101554453D01*
X165822764Y-101411678D01*
X166087364Y-101147539D01*
X166230742Y-100802248D01*
X166230777Y-100761901D01*
X166302118Y-100761963D01*
X166647659Y-100619188D01*
X166912259Y-100355049D01*
X167055637Y-100009758D01*
X167055963Y-99635882D01*
X166913188Y-99290341D01*
X166801697Y-99178656D01*
X166801963Y-98873882D01*
X166659188Y-98528341D01*
X166395049Y-98263741D01*
X166326396Y-98235234D01*
X166636855Y-97924775D01*
X166669078Y-97876550D01*
X166796530Y-97685805D01*
X166852600Y-97403920D01*
X166852600Y-94539110D01*
X168231439Y-93160271D01*
X168790620Y-93160271D01*
X168790620Y-93450410D01*
X168949370Y-93609160D01*
X169799000Y-93609160D01*
X169799000Y-92810330D01*
X170053000Y-92810330D01*
X170053000Y-93609160D01*
X170902630Y-93609160D01*
X171061380Y-93450410D01*
X171061380Y-93160271D01*
X170964707Y-92926882D01*
X170786079Y-92748253D01*
X170552690Y-92651580D01*
X170211750Y-92651580D01*
X170053000Y-92810330D01*
X169799000Y-92810330D01*
X169640250Y-92651580D01*
X169299310Y-92651580D01*
X169065921Y-92748253D01*
X168887293Y-92926882D01*
X168790620Y-93160271D01*
X168231439Y-93160271D01*
X171526243Y-89865467D01*
X171526037Y-90102118D01*
X171526037Y-90102118D01*
G37*
X171526037Y-90102118D02*
X171668812Y-90447659D01*
X171932951Y-90712259D01*
X172278242Y-90855637D01*
X172652118Y-90855963D01*
X172997659Y-90713188D01*
X173262259Y-90449049D01*
X173405637Y-90103758D01*
X173405712Y-90017998D01*
X173465415Y-89958295D01*
X173710951Y-90204259D01*
X173741080Y-90216770D01*
X173741080Y-97987693D01*
X173725840Y-97997876D01*
X173671345Y-97961463D01*
X173423580Y-97912180D01*
X172524420Y-97912180D01*
X172276655Y-97961463D01*
X172066611Y-98101811D01*
X171926263Y-98311855D01*
X171876980Y-98559620D01*
X171876980Y-99560380D01*
X171926263Y-99808145D01*
X172066611Y-100018189D01*
X172276655Y-100158537D01*
X172524420Y-100207820D01*
X172677400Y-100207820D01*
X172677400Y-100503800D01*
X172623697Y-100525990D01*
X172230371Y-100918630D01*
X172017243Y-101431900D01*
X172016758Y-101987661D01*
X172228990Y-102501303D01*
X172621630Y-102894629D01*
X172829512Y-102980949D01*
X172623697Y-103065990D01*
X172230371Y-103458630D01*
X172147835Y-103657400D01*
X171827813Y-103657400D01*
X171813829Y-103636471D01*
X171603785Y-103496123D01*
X171356020Y-103446840D01*
X170355260Y-103446840D01*
X170107495Y-103496123D01*
X169897451Y-103636471D01*
X169853195Y-103702705D01*
X169718990Y-103568500D01*
X168869360Y-103568500D01*
X168869360Y-104217470D01*
X169028110Y-104376220D01*
X169369050Y-104376220D01*
X169602439Y-104279547D01*
X169707820Y-104174165D01*
X169707820Y-104599853D01*
X169700549Y-104588971D01*
X169490505Y-104448623D01*
X169242740Y-104399340D01*
X168241980Y-104399340D01*
X168005321Y-104446414D01*
X167775708Y-104216400D01*
X167430417Y-104073022D01*
X167056541Y-104072696D01*
X166711000Y-104215471D01*
X166446400Y-104479610D01*
X166303022Y-104824901D01*
X166302696Y-105198777D01*
X166445471Y-105544318D01*
X166709610Y-105808918D01*
X167054901Y-105952296D01*
X167140661Y-105952371D01*
X167978056Y-106789766D01*
X167872423Y-106947855D01*
X167823140Y-107195620D01*
X167823140Y-108196380D01*
X167872423Y-108444145D01*
X167935002Y-108537800D01*
X165196840Y-108537800D01*
X165196840Y-108331000D01*
X165216840Y-108331000D01*
X165216840Y-107481370D01*
X165470840Y-107481370D01*
X165470840Y-108331000D01*
X166269670Y-108331000D01*
X166428420Y-108172250D01*
X166428420Y-107831310D01*
X166331747Y-107597921D01*
X166153118Y-107419293D01*
X165919729Y-107322620D01*
X165629590Y-107322620D01*
X165470840Y-107481370D01*
X165216840Y-107481370D01*
X165058090Y-107322620D01*
X164767951Y-107322620D01*
X164678360Y-107359730D01*
X164678360Y-107270270D01*
X164767951Y-107307380D01*
X165058090Y-107307380D01*
X165216840Y-107148630D01*
X165216840Y-106299000D01*
X165470840Y-106299000D01*
X165470840Y-107148630D01*
X165629590Y-107307380D01*
X165919729Y-107307380D01*
X166153118Y-107210707D01*
X166331747Y-107032079D01*
X166428420Y-106798690D01*
X166428420Y-106457750D01*
X166269670Y-106299000D01*
X165470840Y-106299000D01*
X165216840Y-106299000D01*
X165196840Y-106299000D01*
X165196840Y-106045000D01*
X165216840Y-106045000D01*
X165216840Y-105195370D01*
X165470840Y-105195370D01*
X165470840Y-106045000D01*
X166269670Y-106045000D01*
X166428420Y-105886250D01*
X166428420Y-105545310D01*
X166331747Y-105311921D01*
X166153118Y-105133293D01*
X165919729Y-105036620D01*
X165629590Y-105036620D01*
X165470840Y-105195370D01*
X165216840Y-105195370D01*
X165058090Y-105036620D01*
X164767951Y-105036620D01*
X164591654Y-105109645D01*
X164576760Y-105099693D01*
X164576760Y-104178332D01*
X164912242Y-104317637D01*
X165286118Y-104317963D01*
X165631659Y-104175188D01*
X165896259Y-103911049D01*
X165972579Y-103727250D01*
X167606980Y-103727250D01*
X167606980Y-103867529D01*
X167703653Y-104100918D01*
X167882281Y-104279547D01*
X168115670Y-104376220D01*
X168456610Y-104376220D01*
X168615360Y-104217470D01*
X168615360Y-103568500D01*
X167765730Y-103568500D01*
X167606980Y-103727250D01*
X165972579Y-103727250D01*
X166039637Y-103565758D01*
X166039712Y-103479998D01*
X166504239Y-103015471D01*
X167606980Y-103015471D01*
X167606980Y-103155750D01*
X167765730Y-103314500D01*
X168615360Y-103314500D01*
X168615360Y-102665530D01*
X168869360Y-102665530D01*
X168869360Y-103314500D01*
X169718990Y-103314500D01*
X169877740Y-103155750D01*
X169877740Y-103015471D01*
X169781067Y-102782082D01*
X169602439Y-102603453D01*
X169369050Y-102506780D01*
X169028110Y-102506780D01*
X168869360Y-102665530D01*
X168615360Y-102665530D01*
X168456610Y-102506780D01*
X168115670Y-102506780D01*
X167882281Y-102603453D01*
X167703653Y-102782082D01*
X167606980Y-103015471D01*
X166504239Y-103015471D01*
X170700855Y-98818855D01*
X170860530Y-98579885D01*
X170916600Y-98298000D01*
X170916600Y-97366604D01*
X170976259Y-97307049D01*
X171119637Y-96961758D01*
X171119963Y-96587882D01*
X170977188Y-96242341D01*
X170916600Y-96181647D01*
X170916600Y-96098723D01*
X171024537Y-95937185D01*
X171073820Y-95689420D01*
X171073820Y-94790260D01*
X171024537Y-94542495D01*
X170988355Y-94488346D01*
X171061380Y-94312049D01*
X171061380Y-94021910D01*
X170902630Y-93863160D01*
X170053000Y-93863160D01*
X170053000Y-93883160D01*
X169799000Y-93883160D01*
X169799000Y-93863160D01*
X168949370Y-93863160D01*
X168790620Y-94021910D01*
X168790620Y-94312049D01*
X168863645Y-94488346D01*
X168827463Y-94542495D01*
X168778180Y-94790260D01*
X168778180Y-95689420D01*
X168827463Y-95937185D01*
X168967811Y-96147229D01*
X169177855Y-96287577D01*
X169350149Y-96321848D01*
X169240363Y-96586242D01*
X169240037Y-96960118D01*
X169382812Y-97305659D01*
X169443400Y-97366353D01*
X169443400Y-97992890D01*
X164998179Y-102438111D01*
X164913882Y-102438037D01*
X164576760Y-102577333D01*
X164576760Y-102259938D01*
X164719609Y-102164489D01*
X164859957Y-101954445D01*
X164909240Y-101706680D01*
X164909240Y-101473526D01*
X165103347Y-101554127D01*
X165477223Y-101554453D01*
X165822764Y-101411678D01*
X166087364Y-101147539D01*
X166230742Y-100802248D01*
X166230777Y-100761901D01*
X166302118Y-100761963D01*
X166647659Y-100619188D01*
X166912259Y-100355049D01*
X167055637Y-100009758D01*
X167055963Y-99635882D01*
X166913188Y-99290341D01*
X166801697Y-99178656D01*
X166801963Y-98873882D01*
X166659188Y-98528341D01*
X166395049Y-98263741D01*
X166326396Y-98235234D01*
X166636855Y-97924775D01*
X166669078Y-97876550D01*
X166796530Y-97685805D01*
X166852600Y-97403920D01*
X166852600Y-94539110D01*
X168231439Y-93160271D01*
X168790620Y-93160271D01*
X168790620Y-93450410D01*
X168949370Y-93609160D01*
X169799000Y-93609160D01*
X169799000Y-92810330D01*
X170053000Y-92810330D01*
X170053000Y-93609160D01*
X170902630Y-93609160D01*
X171061380Y-93450410D01*
X171061380Y-93160271D01*
X170964707Y-92926882D01*
X170786079Y-92748253D01*
X170552690Y-92651580D01*
X170211750Y-92651580D01*
X170053000Y-92810330D01*
X169799000Y-92810330D01*
X169640250Y-92651580D01*
X169299310Y-92651580D01*
X169065921Y-92748253D01*
X168887293Y-92926882D01*
X168790620Y-93160271D01*
X168231439Y-93160271D01*
X171526243Y-89865467D01*
X171526037Y-90102118D01*
G36*
X172621630Y-105434629D02*
X173134900Y-105647757D01*
X173690661Y-105648242D01*
X174186646Y-105443306D01*
X176784561Y-108041221D01*
X176265617Y-108040769D01*
X175774771Y-108243582D01*
X175480039Y-108537800D01*
X171408998Y-108537800D01*
X171471577Y-108444145D01*
X171520860Y-108196380D01*
X171520860Y-107195620D01*
X171471577Y-106947855D01*
X171331229Y-106737811D01*
X171121185Y-106597463D01*
X170873420Y-106548180D01*
X170368530Y-106548180D01*
X169790203Y-105969853D01*
X169840897Y-105893985D01*
X169890180Y-105646220D01*
X169890180Y-105140647D01*
X169897451Y-105151529D01*
X170107495Y-105291877D01*
X170355260Y-105341160D01*
X171356020Y-105341160D01*
X171603785Y-105291877D01*
X171813829Y-105151529D01*
X171827813Y-105130600D01*
X172318131Y-105130600D01*
X172621630Y-105434629D01*
X172621630Y-105434629D01*
G37*
X172621630Y-105434629D02*
X173134900Y-105647757D01*
X173690661Y-105648242D01*
X174186646Y-105443306D01*
X176784561Y-108041221D01*
X176265617Y-108040769D01*
X175774771Y-108243582D01*
X175480039Y-108537800D01*
X171408998Y-108537800D01*
X171471577Y-108444145D01*
X171520860Y-108196380D01*
X171520860Y-107195620D01*
X171471577Y-106947855D01*
X171331229Y-106737811D01*
X171121185Y-106597463D01*
X170873420Y-106548180D01*
X170368530Y-106548180D01*
X169790203Y-105969853D01*
X169840897Y-105893985D01*
X169890180Y-105646220D01*
X169890180Y-105140647D01*
X169897451Y-105151529D01*
X170107495Y-105291877D01*
X170355260Y-105341160D01*
X171356020Y-105341160D01*
X171603785Y-105291877D01*
X171813829Y-105151529D01*
X171827813Y-105130600D01*
X172318131Y-105130600D01*
X172621630Y-105434629D01*
G36*
X146177260Y-97487740D02*
X146226543Y-97735505D01*
X146262725Y-97789654D01*
X146189700Y-97965951D01*
X146189700Y-98456750D01*
X146348450Y-98615500D01*
X147447000Y-98615500D01*
X147447000Y-98595500D01*
X147701000Y-98595500D01*
X147701000Y-98615500D01*
X148799550Y-98615500D01*
X148958300Y-98456750D01*
X148958300Y-97965951D01*
X148885275Y-97789654D01*
X148895227Y-97774760D01*
X149041693Y-97774760D01*
X149051645Y-97789654D01*
X148978620Y-97965951D01*
X148978620Y-98256090D01*
X149137370Y-98414840D01*
X149987000Y-98414840D01*
X149987000Y-98394840D01*
X150241000Y-98394840D01*
X150241000Y-98414840D01*
X151090630Y-98414840D01*
X151130000Y-98375470D01*
X151169370Y-98414840D01*
X152019000Y-98414840D01*
X152019000Y-98394840D01*
X152273000Y-98394840D01*
X152273000Y-98414840D01*
X152293000Y-98414840D01*
X152293000Y-98668840D01*
X152273000Y-98668840D01*
X152273000Y-98688840D01*
X152019000Y-98688840D01*
X152019000Y-98668840D01*
X151169370Y-98668840D01*
X151130000Y-98708210D01*
X151090630Y-98668840D01*
X150241000Y-98668840D01*
X150241000Y-98688840D01*
X149987000Y-98688840D01*
X149987000Y-98668840D01*
X149137370Y-98668840D01*
X148978620Y-98827590D01*
X148978620Y-99117729D01*
X149075293Y-99351118D01*
X149253921Y-99529747D01*
X149284946Y-99542598D01*
X148948546Y-99542598D01*
X148958300Y-99519049D01*
X148958300Y-99028250D01*
X148799550Y-98869500D01*
X147701000Y-98869500D01*
X147701000Y-99868990D01*
X147834830Y-100002820D01*
X147004470Y-100833180D01*
X146499580Y-100833180D01*
X146251815Y-100882463D01*
X146113500Y-100974883D01*
X145975185Y-100882463D01*
X145727420Y-100833180D01*
X144828260Y-100833180D01*
X144580495Y-100882463D01*
X144526346Y-100918645D01*
X144350049Y-100845620D01*
X144059910Y-100845620D01*
X143901160Y-101004370D01*
X143901160Y-101854000D01*
X143921160Y-101854000D01*
X143921160Y-102108000D01*
X143901160Y-102108000D01*
X143901160Y-102957630D01*
X144059910Y-103116380D01*
X144350049Y-103116380D01*
X144424400Y-103085583D01*
X144424400Y-104961835D01*
X144236345Y-105039538D01*
X143776154Y-105498927D01*
X143526794Y-106099453D01*
X143526226Y-106749694D01*
X143774538Y-107350655D01*
X144233927Y-107810846D01*
X144630217Y-107975400D01*
X135595908Y-107975400D01*
X133464648Y-105844140D01*
X133588000Y-105819603D01*
X133738000Y-105849440D01*
X133938000Y-105849440D01*
X134088000Y-105819603D01*
X134238000Y-105849440D01*
X134438000Y-105849440D01*
X134588000Y-105819603D01*
X134738000Y-105849440D01*
X134938000Y-105849440D01*
X135088000Y-105819603D01*
X135238000Y-105849440D01*
X135438000Y-105849440D01*
X135588000Y-105819603D01*
X135738000Y-105849440D01*
X135938000Y-105849440D01*
X136088000Y-105819603D01*
X136238000Y-105849440D01*
X136438000Y-105849440D01*
X136588000Y-105819603D01*
X136738000Y-105849440D01*
X136938000Y-105849440D01*
X137088000Y-105819603D01*
X137238000Y-105849440D01*
X137438000Y-105849440D01*
X137588000Y-105819603D01*
X137738000Y-105849440D01*
X137938000Y-105849440D01*
X138088000Y-105819603D01*
X138238000Y-105849440D01*
X138438000Y-105849440D01*
X138588000Y-105819603D01*
X138738000Y-105849440D01*
X138938000Y-105849440D01*
X139088000Y-105819603D01*
X139238000Y-105849440D01*
X139438000Y-105849440D01*
X139685765Y-105800157D01*
X139895809Y-105659809D01*
X140036157Y-105449765D01*
X140085440Y-105202000D01*
X140085440Y-104302000D01*
X140036157Y-104054235D01*
X139895809Y-103844191D01*
X139685765Y-103703843D01*
X139438000Y-103654560D01*
X139238000Y-103654560D01*
X139088000Y-103684397D01*
X138938000Y-103654560D01*
X138738000Y-103654560D01*
X138588000Y-103684397D01*
X138438000Y-103654560D01*
X138238000Y-103654560D01*
X138088000Y-103684397D01*
X137938000Y-103654560D01*
X137738000Y-103654560D01*
X137588000Y-103684397D01*
X137438000Y-103654560D01*
X137238000Y-103654560D01*
X137088000Y-103684397D01*
X136938000Y-103654560D01*
X136738000Y-103654560D01*
X136588000Y-103684397D01*
X136438000Y-103654560D01*
X136238000Y-103654560D01*
X136088000Y-103684397D01*
X135938000Y-103654560D01*
X135738000Y-103654560D01*
X135588000Y-103684397D01*
X135438000Y-103654560D01*
X135238000Y-103654560D01*
X135088000Y-103684397D01*
X134938000Y-103654560D01*
X134738000Y-103654560D01*
X134588000Y-103684397D01*
X134438000Y-103654560D01*
X134238000Y-103654560D01*
X134088000Y-103684397D01*
X133938000Y-103654560D01*
X133738000Y-103654560D01*
X133588000Y-103684397D01*
X133438000Y-103654560D01*
X133238000Y-103654560D01*
X133088000Y-103684397D01*
X132938000Y-103654560D01*
X132738000Y-103654560D01*
X132588000Y-103684397D01*
X132438000Y-103654560D01*
X132238000Y-103654560D01*
X132088000Y-103684397D01*
X131938000Y-103654560D01*
X131738000Y-103654560D01*
X131588000Y-103684397D01*
X131438000Y-103654560D01*
X131238000Y-103654560D01*
X131088000Y-103684397D01*
X130938000Y-103654560D01*
X130738000Y-103654560D01*
X130588000Y-103684397D01*
X130438000Y-103654560D01*
X130238000Y-103654560D01*
X130088000Y-103684397D01*
X129938000Y-103654560D01*
X129738000Y-103654560D01*
X129600369Y-103681936D01*
X129564310Y-103667000D01*
X129546750Y-103667000D01*
X129514792Y-103698958D01*
X129490235Y-103703843D01*
X129338953Y-103804927D01*
X129297699Y-103763673D01*
X129175170Y-103712920D01*
X129129250Y-103667000D01*
X129111690Y-103667000D01*
X129088000Y-103676813D01*
X129064310Y-103667000D01*
X129046750Y-103667000D01*
X129000830Y-103712920D01*
X128878301Y-103763673D01*
X128838000Y-103803974D01*
X128797699Y-103763673D01*
X128675170Y-103712920D01*
X128629250Y-103667000D01*
X128611690Y-103667000D01*
X128588000Y-103676813D01*
X128564310Y-103667000D01*
X128546750Y-103667000D01*
X128500830Y-103712920D01*
X128378301Y-103763673D01*
X128338000Y-103803974D01*
X128297699Y-103763673D01*
X128175170Y-103712920D01*
X128129250Y-103667000D01*
X128111690Y-103667000D01*
X128088000Y-103676813D01*
X128064310Y-103667000D01*
X128046750Y-103667000D01*
X128000830Y-103712920D01*
X127878301Y-103763673D01*
X127838000Y-103803974D01*
X127797699Y-103763673D01*
X127675170Y-103712920D01*
X127629250Y-103667000D01*
X127611690Y-103667000D01*
X127588000Y-103676813D01*
X127564310Y-103667000D01*
X127546750Y-103667000D01*
X127500830Y-103712920D01*
X127378301Y-103763673D01*
X127338000Y-103803974D01*
X127297699Y-103763673D01*
X127175170Y-103712920D01*
X127129250Y-103667000D01*
X127111690Y-103667000D01*
X127088000Y-103676813D01*
X127064310Y-103667000D01*
X127046750Y-103667000D01*
X127000830Y-103712920D01*
X126878301Y-103763673D01*
X126837047Y-103804927D01*
X126685765Y-103703843D01*
X126661208Y-103698958D01*
X126629250Y-103667000D01*
X126611690Y-103667000D01*
X126575631Y-103681936D01*
X126574600Y-103681731D01*
X126574600Y-103232005D01*
X126574601Y-103232000D01*
X126520025Y-102957630D01*
X126518530Y-102950115D01*
X126358855Y-102711145D01*
X126161889Y-102514179D01*
X126161963Y-102429882D01*
X126094559Y-102266750D01*
X142689580Y-102266750D01*
X142689580Y-102607690D01*
X142786253Y-102841079D01*
X142964882Y-103019707D01*
X143198271Y-103116380D01*
X143488410Y-103116380D01*
X143647160Y-102957630D01*
X143647160Y-102108000D01*
X142848330Y-102108000D01*
X142689580Y-102266750D01*
X126094559Y-102266750D01*
X126019188Y-102084341D01*
X125763893Y-101828600D01*
X138684000Y-101828600D01*
X138965885Y-101772530D01*
X139204855Y-101612855D01*
X139463400Y-101354310D01*
X142689580Y-101354310D01*
X142689580Y-101695250D01*
X142848330Y-101854000D01*
X143647160Y-101854000D01*
X143647160Y-101004370D01*
X143488410Y-100845620D01*
X143198271Y-100845620D01*
X142964882Y-100942293D01*
X142786253Y-101120921D01*
X142689580Y-101354310D01*
X139463400Y-101354310D01*
X141789460Y-99028250D01*
X146189700Y-99028250D01*
X146189700Y-99519049D01*
X146286373Y-99752438D01*
X146465001Y-99931067D01*
X146698390Y-100027740D01*
X147288250Y-100027740D01*
X147447000Y-99868990D01*
X147447000Y-98869500D01*
X146348450Y-98869500D01*
X146189700Y-99028250D01*
X141789460Y-99028250D01*
X144470429Y-96347281D01*
X146177260Y-96347281D01*
X146177260Y-97487740D01*
X146177260Y-97487740D01*
G37*
X146177260Y-97487740D02*
X146226543Y-97735505D01*
X146262725Y-97789654D01*
X146189700Y-97965951D01*
X146189700Y-98456750D01*
X146348450Y-98615500D01*
X147447000Y-98615500D01*
X147447000Y-98595500D01*
X147701000Y-98595500D01*
X147701000Y-98615500D01*
X148799550Y-98615500D01*
X148958300Y-98456750D01*
X148958300Y-97965951D01*
X148885275Y-97789654D01*
X148895227Y-97774760D01*
X149041693Y-97774760D01*
X149051645Y-97789654D01*
X148978620Y-97965951D01*
X148978620Y-98256090D01*
X149137370Y-98414840D01*
X149987000Y-98414840D01*
X149987000Y-98394840D01*
X150241000Y-98394840D01*
X150241000Y-98414840D01*
X151090630Y-98414840D01*
X151130000Y-98375470D01*
X151169370Y-98414840D01*
X152019000Y-98414840D01*
X152019000Y-98394840D01*
X152273000Y-98394840D01*
X152273000Y-98414840D01*
X152293000Y-98414840D01*
X152293000Y-98668840D01*
X152273000Y-98668840D01*
X152273000Y-98688840D01*
X152019000Y-98688840D01*
X152019000Y-98668840D01*
X151169370Y-98668840D01*
X151130000Y-98708210D01*
X151090630Y-98668840D01*
X150241000Y-98668840D01*
X150241000Y-98688840D01*
X149987000Y-98688840D01*
X149987000Y-98668840D01*
X149137370Y-98668840D01*
X148978620Y-98827590D01*
X148978620Y-99117729D01*
X149075293Y-99351118D01*
X149253921Y-99529747D01*
X149284946Y-99542598D01*
X148948546Y-99542598D01*
X148958300Y-99519049D01*
X148958300Y-99028250D01*
X148799550Y-98869500D01*
X147701000Y-98869500D01*
X147701000Y-99868990D01*
X147834830Y-100002820D01*
X147004470Y-100833180D01*
X146499580Y-100833180D01*
X146251815Y-100882463D01*
X146113500Y-100974883D01*
X145975185Y-100882463D01*
X145727420Y-100833180D01*
X144828260Y-100833180D01*
X144580495Y-100882463D01*
X144526346Y-100918645D01*
X144350049Y-100845620D01*
X144059910Y-100845620D01*
X143901160Y-101004370D01*
X143901160Y-101854000D01*
X143921160Y-101854000D01*
X143921160Y-102108000D01*
X143901160Y-102108000D01*
X143901160Y-102957630D01*
X144059910Y-103116380D01*
X144350049Y-103116380D01*
X144424400Y-103085583D01*
X144424400Y-104961835D01*
X144236345Y-105039538D01*
X143776154Y-105498927D01*
X143526794Y-106099453D01*
X143526226Y-106749694D01*
X143774538Y-107350655D01*
X144233927Y-107810846D01*
X144630217Y-107975400D01*
X135595908Y-107975400D01*
X133464648Y-105844140D01*
X133588000Y-105819603D01*
X133738000Y-105849440D01*
X133938000Y-105849440D01*
X134088000Y-105819603D01*
X134238000Y-105849440D01*
X134438000Y-105849440D01*
X134588000Y-105819603D01*
X134738000Y-105849440D01*
X134938000Y-105849440D01*
X135088000Y-105819603D01*
X135238000Y-105849440D01*
X135438000Y-105849440D01*
X135588000Y-105819603D01*
X135738000Y-105849440D01*
X135938000Y-105849440D01*
X136088000Y-105819603D01*
X136238000Y-105849440D01*
X136438000Y-105849440D01*
X136588000Y-105819603D01*
X136738000Y-105849440D01*
X136938000Y-105849440D01*
X137088000Y-105819603D01*
X137238000Y-105849440D01*
X137438000Y-105849440D01*
X137588000Y-105819603D01*
X137738000Y-105849440D01*
X137938000Y-105849440D01*
X138088000Y-105819603D01*
X138238000Y-105849440D01*
X138438000Y-105849440D01*
X138588000Y-105819603D01*
X138738000Y-105849440D01*
X138938000Y-105849440D01*
X139088000Y-105819603D01*
X139238000Y-105849440D01*
X139438000Y-105849440D01*
X139685765Y-105800157D01*
X139895809Y-105659809D01*
X140036157Y-105449765D01*
X140085440Y-105202000D01*
X140085440Y-104302000D01*
X140036157Y-104054235D01*
X139895809Y-103844191D01*
X139685765Y-103703843D01*
X139438000Y-103654560D01*
X139238000Y-103654560D01*
X139088000Y-103684397D01*
X138938000Y-103654560D01*
X138738000Y-103654560D01*
X138588000Y-103684397D01*
X138438000Y-103654560D01*
X138238000Y-103654560D01*
X138088000Y-103684397D01*
X137938000Y-103654560D01*
X137738000Y-103654560D01*
X137588000Y-103684397D01*
X137438000Y-103654560D01*
X137238000Y-103654560D01*
X137088000Y-103684397D01*
X136938000Y-103654560D01*
X136738000Y-103654560D01*
X136588000Y-103684397D01*
X136438000Y-103654560D01*
X136238000Y-103654560D01*
X136088000Y-103684397D01*
X135938000Y-103654560D01*
X135738000Y-103654560D01*
X135588000Y-103684397D01*
X135438000Y-103654560D01*
X135238000Y-103654560D01*
X135088000Y-103684397D01*
X134938000Y-103654560D01*
X134738000Y-103654560D01*
X134588000Y-103684397D01*
X134438000Y-103654560D01*
X134238000Y-103654560D01*
X134088000Y-103684397D01*
X133938000Y-103654560D01*
X133738000Y-103654560D01*
X133588000Y-103684397D01*
X133438000Y-103654560D01*
X133238000Y-103654560D01*
X133088000Y-103684397D01*
X132938000Y-103654560D01*
X132738000Y-103654560D01*
X132588000Y-103684397D01*
X132438000Y-103654560D01*
X132238000Y-103654560D01*
X132088000Y-103684397D01*
X131938000Y-103654560D01*
X131738000Y-103654560D01*
X131588000Y-103684397D01*
X131438000Y-103654560D01*
X131238000Y-103654560D01*
X131088000Y-103684397D01*
X130938000Y-103654560D01*
X130738000Y-103654560D01*
X130588000Y-103684397D01*
X130438000Y-103654560D01*
X130238000Y-103654560D01*
X130088000Y-103684397D01*
X129938000Y-103654560D01*
X129738000Y-103654560D01*
X129600369Y-103681936D01*
X129564310Y-103667000D01*
X129546750Y-103667000D01*
X129514792Y-103698958D01*
X129490235Y-103703843D01*
X129338953Y-103804927D01*
X129297699Y-103763673D01*
X129175170Y-103712920D01*
X129129250Y-103667000D01*
X129111690Y-103667000D01*
X129088000Y-103676813D01*
X129064310Y-103667000D01*
X129046750Y-103667000D01*
X129000830Y-103712920D01*
X128878301Y-103763673D01*
X128838000Y-103803974D01*
X128797699Y-103763673D01*
X128675170Y-103712920D01*
X128629250Y-103667000D01*
X128611690Y-103667000D01*
X128588000Y-103676813D01*
X128564310Y-103667000D01*
X128546750Y-103667000D01*
X128500830Y-103712920D01*
X128378301Y-103763673D01*
X128338000Y-103803974D01*
X128297699Y-103763673D01*
X128175170Y-103712920D01*
X128129250Y-103667000D01*
X128111690Y-103667000D01*
X128088000Y-103676813D01*
X128064310Y-103667000D01*
X128046750Y-103667000D01*
X128000830Y-103712920D01*
X127878301Y-103763673D01*
X127838000Y-103803974D01*
X127797699Y-103763673D01*
X127675170Y-103712920D01*
X127629250Y-103667000D01*
X127611690Y-103667000D01*
X127588000Y-103676813D01*
X127564310Y-103667000D01*
X127546750Y-103667000D01*
X127500830Y-103712920D01*
X127378301Y-103763673D01*
X127338000Y-103803974D01*
X127297699Y-103763673D01*
X127175170Y-103712920D01*
X127129250Y-103667000D01*
X127111690Y-103667000D01*
X127088000Y-103676813D01*
X127064310Y-103667000D01*
X127046750Y-103667000D01*
X127000830Y-103712920D01*
X126878301Y-103763673D01*
X126837047Y-103804927D01*
X126685765Y-103703843D01*
X126661208Y-103698958D01*
X126629250Y-103667000D01*
X126611690Y-103667000D01*
X126575631Y-103681936D01*
X126574600Y-103681731D01*
X126574600Y-103232005D01*
X126574601Y-103232000D01*
X126520025Y-102957630D01*
X126518530Y-102950115D01*
X126358855Y-102711145D01*
X126161889Y-102514179D01*
X126161963Y-102429882D01*
X126094559Y-102266750D01*
X142689580Y-102266750D01*
X142689580Y-102607690D01*
X142786253Y-102841079D01*
X142964882Y-103019707D01*
X143198271Y-103116380D01*
X143488410Y-103116380D01*
X143647160Y-102957630D01*
X143647160Y-102108000D01*
X142848330Y-102108000D01*
X142689580Y-102266750D01*
X126094559Y-102266750D01*
X126019188Y-102084341D01*
X125763893Y-101828600D01*
X138684000Y-101828600D01*
X138965885Y-101772530D01*
X139204855Y-101612855D01*
X139463400Y-101354310D01*
X142689580Y-101354310D01*
X142689580Y-101695250D01*
X142848330Y-101854000D01*
X143647160Y-101854000D01*
X143647160Y-101004370D01*
X143488410Y-100845620D01*
X143198271Y-100845620D01*
X142964882Y-100942293D01*
X142786253Y-101120921D01*
X142689580Y-101354310D01*
X139463400Y-101354310D01*
X141789460Y-99028250D01*
X146189700Y-99028250D01*
X146189700Y-99519049D01*
X146286373Y-99752438D01*
X146465001Y-99931067D01*
X146698390Y-100027740D01*
X147288250Y-100027740D01*
X147447000Y-99868990D01*
X147447000Y-98869500D01*
X146348450Y-98869500D01*
X146189700Y-99028250D01*
X141789460Y-99028250D01*
X144470429Y-96347281D01*
X146177260Y-96347281D01*
X146177260Y-97487740D01*
G36*
X124425741Y-102082951D02*
X124282363Y-102428242D01*
X124282037Y-102802118D01*
X124424812Y-103147659D01*
X124688951Y-103412259D01*
X125034242Y-103555637D01*
X125101400Y-103555696D01*
X125101400Y-104247503D01*
X125090560Y-104302000D01*
X125090560Y-105202000D01*
X125139843Y-105449765D01*
X125232076Y-105587800D01*
X114647194Y-105587800D01*
X114436199Y-105376805D01*
X114335188Y-105132341D01*
X114190699Y-104987600D01*
X119777000Y-104987600D01*
X120058885Y-104931530D01*
X120297855Y-104771855D01*
X123241110Y-101828600D01*
X124680536Y-101828600D01*
X124425741Y-102082951D01*
X124425741Y-102082951D01*
G37*
X124425741Y-102082951D02*
X124282363Y-102428242D01*
X124282037Y-102802118D01*
X124424812Y-103147659D01*
X124688951Y-103412259D01*
X125034242Y-103555637D01*
X125101400Y-103555696D01*
X125101400Y-104247503D01*
X125090560Y-104302000D01*
X125090560Y-105202000D01*
X125139843Y-105449765D01*
X125232076Y-105587800D01*
X114647194Y-105587800D01*
X114436199Y-105376805D01*
X114335188Y-105132341D01*
X114190699Y-104987600D01*
X119777000Y-104987600D01*
X120058885Y-104931530D01*
X120297855Y-104771855D01*
X123241110Y-101828600D01*
X124680536Y-101828600D01*
X124425741Y-102082951D01*
G36*
X128938000Y-104879000D02*
X127238000Y-104879000D01*
X127238000Y-104625000D01*
X128938000Y-104625000D01*
X128938000Y-104879000D01*
X128938000Y-104879000D01*
G37*
X128938000Y-104879000D02*
X127238000Y-104879000D01*
X127238000Y-104625000D01*
X128938000Y-104625000D01*
X128938000Y-104879000D01*
G36*
X151714202Y-102128000D02*
X151500840Y-102128000D01*
X151500840Y-102108000D01*
X151480840Y-102108000D01*
X151480840Y-101854000D01*
X151500840Y-101854000D01*
X151500840Y-101834000D01*
X151714202Y-101834000D01*
X151714202Y-102128000D01*
X151714202Y-102128000D01*
G37*
X151714202Y-102128000D02*
X151500840Y-102128000D01*
X151500840Y-102108000D01*
X151480840Y-102108000D01*
X151480840Y-101854000D01*
X151500840Y-101854000D01*
X151500840Y-101834000D01*
X151714202Y-101834000D01*
X151714202Y-102128000D01*
G36*
X143747396Y-95021049D02*
X143644464Y-95089826D01*
X138378890Y-100355400D01*
X123223464Y-100355400D01*
X123478259Y-100101049D01*
X123621637Y-99755758D01*
X123621963Y-99381882D01*
X123479188Y-99036341D01*
X123418600Y-98975647D01*
X123418600Y-95204940D01*
X124441714Y-96228054D01*
X124549672Y-96300190D01*
X124536363Y-96332242D01*
X124536037Y-96706118D01*
X124678812Y-97051659D01*
X124942951Y-97316259D01*
X124990146Y-97335856D01*
X125090560Y-97436270D01*
X125090560Y-97942000D01*
X125139843Y-98189765D01*
X125280191Y-98399809D01*
X125490235Y-98540157D01*
X125738000Y-98589440D01*
X125938000Y-98589440D01*
X126088000Y-98559603D01*
X126238000Y-98589440D01*
X126438000Y-98589440D01*
X126588000Y-98559603D01*
X126738000Y-98589440D01*
X126938000Y-98589440D01*
X127088000Y-98559603D01*
X127238000Y-98589440D01*
X127438000Y-98589440D01*
X127588000Y-98559603D01*
X127738000Y-98589440D01*
X127938000Y-98589440D01*
X128088000Y-98559603D01*
X128238000Y-98589440D01*
X128438000Y-98589440D01*
X128588000Y-98559603D01*
X128738000Y-98589440D01*
X128938000Y-98589440D01*
X129088000Y-98559603D01*
X129238000Y-98589440D01*
X129438000Y-98589440D01*
X129588000Y-98559603D01*
X129738000Y-98589440D01*
X129938000Y-98589440D01*
X130088000Y-98559603D01*
X130238000Y-98589440D01*
X130438000Y-98589440D01*
X130588000Y-98559603D01*
X130738000Y-98589440D01*
X130938000Y-98589440D01*
X131088000Y-98559603D01*
X131238000Y-98589440D01*
X131438000Y-98589440D01*
X131588000Y-98559603D01*
X131738000Y-98589440D01*
X131938000Y-98589440D01*
X132088000Y-98559603D01*
X132238000Y-98589440D01*
X132438000Y-98589440D01*
X132588000Y-98559603D01*
X132738000Y-98589440D01*
X132938000Y-98589440D01*
X133088000Y-98559603D01*
X133238000Y-98589440D01*
X133438000Y-98589440D01*
X133588000Y-98559603D01*
X133738000Y-98589440D01*
X133938000Y-98589440D01*
X134088000Y-98559603D01*
X134238000Y-98589440D01*
X134438000Y-98589440D01*
X134588000Y-98559603D01*
X134738000Y-98589440D01*
X134938000Y-98589440D01*
X135088000Y-98559603D01*
X135238000Y-98589440D01*
X135438000Y-98589440D01*
X135588000Y-98559603D01*
X135738000Y-98589440D01*
X135938000Y-98589440D01*
X136088000Y-98559603D01*
X136238000Y-98589440D01*
X136438000Y-98589440D01*
X136588000Y-98559603D01*
X136738000Y-98589440D01*
X136938000Y-98589440D01*
X137088000Y-98559603D01*
X137238000Y-98589440D01*
X137438000Y-98589440D01*
X137588000Y-98559603D01*
X137738000Y-98589440D01*
X137938000Y-98589440D01*
X138088000Y-98559603D01*
X138238000Y-98589440D01*
X138438000Y-98589440D01*
X138588000Y-98559603D01*
X138738000Y-98589440D01*
X138938000Y-98589440D01*
X139088000Y-98559603D01*
X139238000Y-98589440D01*
X139438000Y-98589440D01*
X139685765Y-98540157D01*
X139895809Y-98399809D01*
X140036157Y-98189765D01*
X140085440Y-97942000D01*
X140085440Y-97042000D01*
X140036157Y-96794235D01*
X139895809Y-96584191D01*
X139685765Y-96443843D01*
X139438000Y-96394560D01*
X139238000Y-96394560D01*
X139088000Y-96424397D01*
X138938000Y-96394560D01*
X138738000Y-96394560D01*
X138588000Y-96424397D01*
X138438000Y-96394560D01*
X138238000Y-96394560D01*
X138088000Y-96424397D01*
X137938000Y-96394560D01*
X137738000Y-96394560D01*
X137588000Y-96424397D01*
X137438000Y-96394560D01*
X137238000Y-96394560D01*
X137088000Y-96424397D01*
X136938000Y-96394560D01*
X136738000Y-96394560D01*
X136588000Y-96424397D01*
X136438000Y-96394560D01*
X136238000Y-96394560D01*
X136088000Y-96424397D01*
X135938000Y-96394560D01*
X135738000Y-96394560D01*
X135588000Y-96424397D01*
X135438000Y-96394560D01*
X135238000Y-96394560D01*
X135088000Y-96424397D01*
X134938000Y-96394560D01*
X134738000Y-96394560D01*
X134588000Y-96424397D01*
X134438000Y-96394560D01*
X134263150Y-96394560D01*
X135687109Y-94970601D01*
X143822896Y-94970601D01*
X143747396Y-95021049D01*
X143747396Y-95021049D01*
G37*
X143747396Y-95021049D02*
X143644464Y-95089826D01*
X138378890Y-100355400D01*
X123223464Y-100355400D01*
X123478259Y-100101049D01*
X123621637Y-99755758D01*
X123621963Y-99381882D01*
X123479188Y-99036341D01*
X123418600Y-98975647D01*
X123418600Y-95204940D01*
X124441714Y-96228054D01*
X124549672Y-96300190D01*
X124536363Y-96332242D01*
X124536037Y-96706118D01*
X124678812Y-97051659D01*
X124942951Y-97316259D01*
X124990146Y-97335856D01*
X125090560Y-97436270D01*
X125090560Y-97942000D01*
X125139843Y-98189765D01*
X125280191Y-98399809D01*
X125490235Y-98540157D01*
X125738000Y-98589440D01*
X125938000Y-98589440D01*
X126088000Y-98559603D01*
X126238000Y-98589440D01*
X126438000Y-98589440D01*
X126588000Y-98559603D01*
X126738000Y-98589440D01*
X126938000Y-98589440D01*
X127088000Y-98559603D01*
X127238000Y-98589440D01*
X127438000Y-98589440D01*
X127588000Y-98559603D01*
X127738000Y-98589440D01*
X127938000Y-98589440D01*
X128088000Y-98559603D01*
X128238000Y-98589440D01*
X128438000Y-98589440D01*
X128588000Y-98559603D01*
X128738000Y-98589440D01*
X128938000Y-98589440D01*
X129088000Y-98559603D01*
X129238000Y-98589440D01*
X129438000Y-98589440D01*
X129588000Y-98559603D01*
X129738000Y-98589440D01*
X129938000Y-98589440D01*
X130088000Y-98559603D01*
X130238000Y-98589440D01*
X130438000Y-98589440D01*
X130588000Y-98559603D01*
X130738000Y-98589440D01*
X130938000Y-98589440D01*
X131088000Y-98559603D01*
X131238000Y-98589440D01*
X131438000Y-98589440D01*
X131588000Y-98559603D01*
X131738000Y-98589440D01*
X131938000Y-98589440D01*
X132088000Y-98559603D01*
X132238000Y-98589440D01*
X132438000Y-98589440D01*
X132588000Y-98559603D01*
X132738000Y-98589440D01*
X132938000Y-98589440D01*
X133088000Y-98559603D01*
X133238000Y-98589440D01*
X133438000Y-98589440D01*
X133588000Y-98559603D01*
X133738000Y-98589440D01*
X133938000Y-98589440D01*
X134088000Y-98559603D01*
X134238000Y-98589440D01*
X134438000Y-98589440D01*
X134588000Y-98559603D01*
X134738000Y-98589440D01*
X134938000Y-98589440D01*
X135088000Y-98559603D01*
X135238000Y-98589440D01*
X135438000Y-98589440D01*
X135588000Y-98559603D01*
X135738000Y-98589440D01*
X135938000Y-98589440D01*
X136088000Y-98559603D01*
X136238000Y-98589440D01*
X136438000Y-98589440D01*
X136588000Y-98559603D01*
X136738000Y-98589440D01*
X136938000Y-98589440D01*
X137088000Y-98559603D01*
X137238000Y-98589440D01*
X137438000Y-98589440D01*
X137588000Y-98559603D01*
X137738000Y-98589440D01*
X137938000Y-98589440D01*
X138088000Y-98559603D01*
X138238000Y-98589440D01*
X138438000Y-98589440D01*
X138588000Y-98559603D01*
X138738000Y-98589440D01*
X138938000Y-98589440D01*
X139088000Y-98559603D01*
X139238000Y-98589440D01*
X139438000Y-98589440D01*
X139685765Y-98540157D01*
X139895809Y-98399809D01*
X140036157Y-98189765D01*
X140085440Y-97942000D01*
X140085440Y-97042000D01*
X140036157Y-96794235D01*
X139895809Y-96584191D01*
X139685765Y-96443843D01*
X139438000Y-96394560D01*
X139238000Y-96394560D01*
X139088000Y-96424397D01*
X138938000Y-96394560D01*
X138738000Y-96394560D01*
X138588000Y-96424397D01*
X138438000Y-96394560D01*
X138238000Y-96394560D01*
X138088000Y-96424397D01*
X137938000Y-96394560D01*
X137738000Y-96394560D01*
X137588000Y-96424397D01*
X137438000Y-96394560D01*
X137238000Y-96394560D01*
X137088000Y-96424397D01*
X136938000Y-96394560D01*
X136738000Y-96394560D01*
X136588000Y-96424397D01*
X136438000Y-96394560D01*
X136238000Y-96394560D01*
X136088000Y-96424397D01*
X135938000Y-96394560D01*
X135738000Y-96394560D01*
X135588000Y-96424397D01*
X135438000Y-96394560D01*
X135238000Y-96394560D01*
X135088000Y-96424397D01*
X134938000Y-96394560D01*
X134738000Y-96394560D01*
X134588000Y-96424397D01*
X134438000Y-96394560D01*
X134263150Y-96394560D01*
X135687109Y-94970601D01*
X143822896Y-94970601D01*
X143747396Y-95021049D01*
G36*
X161112200Y-96004120D02*
X161411920Y-96004120D01*
X161429701Y-96000583D01*
X161429701Y-97547174D01*
X157581912Y-97547174D01*
X157070203Y-97035465D01*
X156831233Y-96875790D01*
X156698858Y-96849459D01*
X156690163Y-96805750D01*
X156710120Y-96705420D01*
X156710120Y-96405700D01*
X156698500Y-96347281D01*
X159710119Y-96347281D01*
X159992004Y-96291211D01*
X160230974Y-96131536D01*
X160281775Y-96080735D01*
X160332968Y-96004120D01*
X160411160Y-96004120D01*
X160511490Y-95984163D01*
X160611820Y-96004120D01*
X160911540Y-96004120D01*
X161011870Y-95984163D01*
X161112200Y-96004120D01*
X161112200Y-96004120D01*
G37*
X161112200Y-96004120D02*
X161411920Y-96004120D01*
X161429701Y-96000583D01*
X161429701Y-97547174D01*
X157581912Y-97547174D01*
X157070203Y-97035465D01*
X156831233Y-96875790D01*
X156698858Y-96849459D01*
X156690163Y-96805750D01*
X156710120Y-96705420D01*
X156710120Y-96405700D01*
X156698500Y-96347281D01*
X159710119Y-96347281D01*
X159992004Y-96291211D01*
X160230974Y-96131536D01*
X160281775Y-96080735D01*
X160332968Y-96004120D01*
X160411160Y-96004120D01*
X160511490Y-95984163D01*
X160611820Y-96004120D01*
X160911540Y-96004120D01*
X161011870Y-95984163D01*
X161112200Y-96004120D01*
G36*
X161226500Y-90297000D02*
X161246500Y-90297000D01*
X161246500Y-90551000D01*
X161226500Y-90551000D01*
X161226500Y-91649550D01*
X161385250Y-91808300D01*
X161876049Y-91808300D01*
X162052346Y-91735275D01*
X162106495Y-91771457D01*
X162267900Y-91803562D01*
X162267900Y-92036049D01*
X162239758Y-92024363D01*
X162053393Y-92024200D01*
X161798000Y-91973400D01*
X160370414Y-91973400D01*
X160370421Y-91965072D01*
X160302070Y-91799651D01*
X160322951Y-91808300D01*
X160813750Y-91808300D01*
X160972500Y-91649550D01*
X160972500Y-90551000D01*
X160952500Y-90551000D01*
X160952500Y-90297000D01*
X160972500Y-90297000D01*
X160972500Y-90277000D01*
X161226500Y-90277000D01*
X161226500Y-90297000D01*
X161226500Y-90297000D01*
G37*
X161226500Y-90297000D02*
X161246500Y-90297000D01*
X161246500Y-90551000D01*
X161226500Y-90551000D01*
X161226500Y-91649550D01*
X161385250Y-91808300D01*
X161876049Y-91808300D01*
X162052346Y-91735275D01*
X162106495Y-91771457D01*
X162267900Y-91803562D01*
X162267900Y-92036049D01*
X162239758Y-92024363D01*
X162053393Y-92024200D01*
X161798000Y-91973400D01*
X160370414Y-91973400D01*
X160370421Y-91965072D01*
X160302070Y-91799651D01*
X160322951Y-91808300D01*
X160813750Y-91808300D01*
X160972500Y-91649550D01*
X160972500Y-90551000D01*
X160952500Y-90551000D01*
X160952500Y-90297000D01*
X160972500Y-90297000D01*
X160972500Y-90277000D01*
X161226500Y-90277000D01*
X161226500Y-90297000D01*
G36*
X180735630Y-82248186D02*
X181173009Y-82502667D01*
X181268529Y-82519099D01*
X181376943Y-82451347D01*
X175715692Y-88112598D01*
X173532802Y-88112598D01*
X173250917Y-88168668D01*
X173166911Y-88224799D01*
X178482039Y-82909671D01*
X178729086Y-82860531D01*
X178968056Y-82700856D01*
X179018856Y-82650056D01*
X179121118Y-82497010D01*
X179594000Y-82591072D01*
X180085748Y-82493257D01*
X180502632Y-82214704D01*
X180599568Y-82069629D01*
X180735630Y-82248186D01*
X180735630Y-82248186D01*
G37*
X180735630Y-82248186D02*
X181173009Y-82502667D01*
X181268529Y-82519099D01*
X181376943Y-82451347D01*
X175715692Y-88112598D01*
X173532802Y-88112598D01*
X173250917Y-88168668D01*
X173166911Y-88224799D01*
X178482039Y-82909671D01*
X178729086Y-82860531D01*
X178968056Y-82700856D01*
X179018856Y-82650056D01*
X179121118Y-82497010D01*
X179594000Y-82591072D01*
X180085748Y-82493257D01*
X180502632Y-82214704D01*
X180599568Y-82069629D01*
X180735630Y-82248186D01*
M02*
