%TF.GenerationSoftware,KiCad,Pcbnew,no-vcs-found-7613~57~ubuntu16.10.1*%
%TF.CreationDate,2017-03-07T09:53:51+01:00*%
%TF.ProjectId,gp8-clock,6770382D636C6F636B2E6B696361645F,rev?*%
%TF.FileFunction,Soldermask,Bot*%
%TF.FilePolarity,Negative*%
%FSLAX46Y46*%
G04 Gerber Fmt 4.6, Leading zero omitted, Abs format (unit mm)*
G04 Created by KiCad (PCBNEW no-vcs-found-7613~57~ubuntu16.10.1) date Tue Mar  7 09:53:51 2017*
%MOMM*%
%LPD*%
G01*
G04 APERTURE LIST*
%ADD10C,0.100000*%
%ADD11R,0.600000X1.300000*%
%ADD12R,1.299160X1.400760*%
%ADD13C,6.000000*%
%ADD14R,1.750000X1.750000*%
%ADD15O,1.700000X2.200000*%
%ADD16R,1.700000X2.200000*%
%ADD17R,1.400760X1.299160*%
%ADD18R,0.999440X1.400760*%
%ADD19C,1.924000*%
%ADD20R,1.898600X1.700480*%
%ADD21R,1.700480X1.898600*%
%ADD22R,1.400760X0.999440*%
%ADD23R,2.599640X1.924000*%
%ADD24O,2.599640X1.924000*%
%ADD25R,1.700480X0.699720*%
%ADD26R,0.699720X1.700480*%
%ADD27R,2.297380X2.297380*%
%ADD28R,1.748740X0.798780*%
%ADD29R,1.746200X0.798780*%
%ADD30C,1.197560*%
%ADD31R,1.400000X0.650000*%
%ADD32R,2.899360X2.350720*%
%ADD33C,1.416000*%
%ADD34C,1.800000*%
%ADD35C,2.400000*%
%ADD36R,1.924000X2.599640*%
%ADD37O,1.924000X2.599640*%
%ADD38C,2.398980*%
G04 APERTURE END LIST*
D10*
D11*
X125838000Y-97492000D03*
X126338000Y-97492000D03*
X126838000Y-97492000D03*
X127338000Y-97492000D03*
X127838000Y-97492000D03*
X128338000Y-97492000D03*
X128838000Y-97492000D03*
X129338000Y-97492000D03*
X129838000Y-97492000D03*
X130338000Y-97492000D03*
X130838000Y-97492000D03*
X131338000Y-97492000D03*
X131838000Y-97492000D03*
X132338000Y-97492000D03*
X132838000Y-97492000D03*
X133338000Y-97492000D03*
X133838000Y-97492000D03*
X134338000Y-97492000D03*
X134838000Y-97492000D03*
X135338000Y-97492000D03*
X135838000Y-97492000D03*
X136338000Y-97492000D03*
X136838000Y-97492000D03*
X137338000Y-97492000D03*
X137838000Y-97492000D03*
X138338000Y-97492000D03*
X138838000Y-97492000D03*
X139338000Y-97492000D03*
X139338000Y-104752000D03*
X138838000Y-104752000D03*
X138338000Y-104752000D03*
X137838000Y-104752000D03*
X137338000Y-104752000D03*
X136838000Y-104752000D03*
X136338000Y-104752000D03*
X135838000Y-104752000D03*
X135338000Y-104752000D03*
X134838000Y-104752000D03*
X134338000Y-104752000D03*
X133838000Y-104752000D03*
X133338000Y-104752000D03*
X132838000Y-104752000D03*
X132338000Y-104752000D03*
X131838000Y-104752000D03*
X131338000Y-104752000D03*
X130838000Y-104752000D03*
X130338000Y-104752000D03*
X129838000Y-104752000D03*
X129338000Y-104752000D03*
X128838000Y-104752000D03*
X128338000Y-104752000D03*
X127838000Y-104752000D03*
X127338000Y-104752000D03*
X126838000Y-104752000D03*
X126338000Y-104752000D03*
X125838000Y-104752000D03*
D12*
X167883840Y-85852000D03*
X166380160Y-85852000D03*
X166380160Y-88138000D03*
X167883840Y-88138000D03*
X185409840Y-97282000D03*
X183906160Y-97282000D03*
D13*
X169773600Y-124637800D03*
X169773600Y-80365600D03*
X133756400Y-80416400D03*
X133731000Y-124637800D03*
D14*
X190500000Y-125730000D03*
X190500000Y-79375000D03*
X139700000Y-79375000D03*
X164465000Y-79375000D03*
X164465000Y-125730000D03*
X113665000Y-125730000D03*
X139700000Y-125730000D03*
X113665000Y-79375000D03*
D15*
X183594000Y-81026000D03*
X181594000Y-81026000D03*
X179594000Y-81026000D03*
D16*
X177594000Y-81026000D03*
X151686000Y-81534000D03*
D15*
X153686000Y-81534000D03*
X155686000Y-81534000D03*
X157686000Y-81534000D03*
D17*
X189738000Y-110246160D03*
X189738000Y-111749840D03*
X182372000Y-111749840D03*
X182372000Y-110246160D03*
D18*
X184975500Y-109687360D03*
X186880500Y-109687360D03*
X185928000Y-109687360D03*
X186880500Y-111800640D03*
X184975500Y-111800640D03*
D19*
X155904000Y-90011000D03*
X153364000Y-90011000D03*
X150824000Y-90011000D03*
X148284000Y-90011000D03*
X145744000Y-90011000D03*
X143204000Y-90011000D03*
X140664000Y-90011000D03*
X138124000Y-90011000D03*
X135584000Y-90011000D03*
X133044000Y-90011000D03*
X130504000Y-90011000D03*
X127964000Y-90011000D03*
X125424000Y-90011000D03*
X122884000Y-90011000D03*
X120344000Y-90011000D03*
X117804000Y-90011000D03*
X173414000Y-101711000D03*
X173414000Y-104251000D03*
D12*
X109463840Y-99314000D03*
X107960160Y-99314000D03*
X163840160Y-106172000D03*
X165343840Y-106172000D03*
X145277840Y-101981000D03*
X143774160Y-101981000D03*
X150124160Y-101981000D03*
X151627840Y-101981000D03*
X163840160Y-108458000D03*
X165343840Y-108458000D03*
D20*
X147574000Y-96837500D03*
X147574000Y-98742500D03*
D17*
X150114000Y-97038160D03*
X150114000Y-98541840D03*
X152146000Y-97038160D03*
X152146000Y-98541840D03*
D12*
X155712160Y-111506000D03*
X157215840Y-111506000D03*
X155722320Y-108966000D03*
X157226000Y-108966000D03*
D21*
X155765500Y-106426000D03*
X157670500Y-106426000D03*
D17*
X169926000Y-95239840D03*
X169926000Y-93736160D03*
D12*
X162803840Y-88138000D03*
X161300160Y-88138000D03*
D21*
X163004500Y-90424000D03*
X161099500Y-90424000D03*
D22*
X168742360Y-105346500D03*
X170855640Y-104394000D03*
X168742360Y-103441500D03*
D17*
X160020000Y-106182160D03*
X160020000Y-107685840D03*
D12*
X168920160Y-107696000D03*
X170423840Y-107696000D03*
X172974000Y-99060000D03*
X174477680Y-99060000D03*
X109453680Y-101854000D03*
X107950000Y-101854000D03*
X146949160Y-101981000D03*
X148452840Y-101981000D03*
X191886840Y-100203000D03*
X190383160Y-100203000D03*
X191886840Y-101854000D03*
X190383160Y-101854000D03*
X175757840Y-115824000D03*
X174254160Y-115824000D03*
D17*
X175260000Y-122692160D03*
X175260000Y-124195840D03*
D12*
X183906160Y-103378000D03*
X185409840Y-103378000D03*
D23*
X103854000Y-104251000D03*
D24*
X103854000Y-101711000D03*
X103854000Y-99171000D03*
D25*
X155412440Y-100055680D03*
X155412440Y-99555300D03*
X155412440Y-99054920D03*
X155412440Y-98557080D03*
X155412440Y-98056700D03*
X155412440Y-101556820D03*
X155412440Y-101056440D03*
X155412440Y-100556060D03*
D26*
X156761180Y-94706440D03*
X157261560Y-94706440D03*
X157761940Y-94706440D03*
X158262320Y-94706440D03*
X158762700Y-94706440D03*
X159263080Y-94706440D03*
X159760920Y-94706440D03*
X160261300Y-94706440D03*
D25*
X163611560Y-96055180D03*
X163611560Y-96555560D03*
X163611560Y-97055940D03*
X163611560Y-97556320D03*
X163611560Y-98056700D03*
X163611560Y-98557080D03*
X163611560Y-99054920D03*
X163611560Y-99555300D03*
D26*
X162262820Y-102905560D03*
X161762440Y-102905560D03*
X161262060Y-102905560D03*
X160761680Y-102905560D03*
X160261300Y-102905560D03*
X159760920Y-102905560D03*
X159263080Y-102905560D03*
X158762700Y-102905560D03*
D25*
X155412440Y-97556320D03*
X155412440Y-97055940D03*
X155412440Y-96555560D03*
X155412440Y-96055180D03*
D26*
X160761680Y-94706440D03*
X161262060Y-94706440D03*
X161762440Y-94706440D03*
X162262820Y-94706440D03*
D25*
X163611560Y-100055680D03*
X163611560Y-100556060D03*
X163611560Y-101056440D03*
X163611560Y-101556820D03*
D26*
X158262320Y-102905560D03*
X157761940Y-102905560D03*
X157261560Y-102905560D03*
X156761180Y-102905560D03*
D27*
X202539600Y-101290120D03*
X202539600Y-103687880D03*
X202539600Y-106438700D03*
X202539600Y-98539300D03*
D28*
X199864980Y-101188520D03*
D29*
X199864980Y-101841300D03*
X199864980Y-102489000D03*
X199864980Y-103136700D03*
X199864980Y-103789480D03*
D30*
X200393300Y-104386380D03*
X200390760Y-100589080D03*
D31*
X186771100Y-99838000D03*
X186771100Y-100338000D03*
X186771100Y-100838000D03*
X186771100Y-101338000D03*
X186771100Y-101838000D03*
X182544900Y-101838000D03*
X182544900Y-101338000D03*
X182544900Y-100838000D03*
X182544900Y-100338000D03*
X182544900Y-99838000D03*
D32*
X193040000Y-93980000D03*
X193040000Y-97028000D03*
D23*
X178308000Y-100076000D03*
D24*
X178308000Y-102616000D03*
X178308000Y-105156000D03*
D33*
X150114000Y-93472000D03*
X152654000Y-93472000D03*
X192024000Y-105664000D03*
X194564000Y-105664000D03*
X192024000Y-108458000D03*
X194564000Y-108458000D03*
D22*
X177251360Y-124396500D03*
X179364640Y-123444000D03*
X177251360Y-122491500D03*
D34*
X176530000Y-109376000D03*
X176530000Y-112776000D03*
D17*
X153670000Y-84338160D03*
X153670000Y-85841840D03*
X157988000Y-84338160D03*
X157988000Y-85841840D03*
D35*
X186055000Y-115580160D03*
X186055000Y-123179840D03*
D36*
X183642000Y-106172000D03*
D37*
X186182000Y-106172000D03*
D38*
X145161000Y-106426000D03*
X150241000Y-106426000D03*
M02*
