M48
INCH,TZ
T1C0.012
T2C0.020
T3C0.028
T4C0.030
T5C0.031
T6C0.032
T7C0.039
T8C0.126
%
G90
G05
T1
X40700Y-35700
X41400Y-37100
X42000Y-34600
X42600Y-37700
X43300Y-34600
X43300Y-37000
X43800Y-40200
X44300Y-36700
X44300Y-38100
X44700Y-41600
X45300Y-35000
X45300Y-37800
X45800Y-36800
X45800Y-40300
X45800Y-41500
X46300Y-38800
X46600Y-34700
X46600Y-37700
X47000Y-40500
X47200Y-39500
X47500Y-38200
X47600Y-41400
X48300Y-34400
X48300Y-39200
X48500Y-40600
X48600Y-38100
X48600Y-42900
X48800Y-41400
X49200Y-37200
X49300Y-40400
X49400Y-38000
X49400Y-39200
X50100Y-34500
X50500Y-43300
X50800Y-39200
X51400Y-43800
X52400Y-34200
X52500Y-44300
X53300Y-39200
X53900Y-34100
X54000Y-37600
X54000Y-44200
X55100Y-34000
X55600Y-44500
X56100Y-37500
X56300Y-34000
X56900Y-44300
X58400Y-44200
X59500Y-39200
X59600Y-40700
X59700Y-44400
X59800Y-39700
X60247Y-39644
X60380Y-38700
X60380Y-39913
X60600Y-38000
X61020Y-40335
X61131Y-40614
X61400Y-45700
X61700Y-36400
X61700Y-38800
X61700Y-39300
X62134Y-41403
X62200Y-39300
X62300Y-43100
X62400Y-39700
X62400Y-43900
X62768Y-36280
X62800Y-41100
X62800Y-39800
X62900Y-38100
X63200Y-31500
X63200Y-33400
X63300Y-46100
X63330Y-39741
X63500Y-43800
X63600Y-38400
X63600Y-42800
X63800Y-36600
X63900Y-32300
X63900Y-39300
X64100Y-43700
X64500Y-33600
X64700Y-34700
X64900Y-32400
X64900Y-36300
X65000Y-40700
X65075Y-39612
X65100Y-46700
X65300Y-39000
X65400Y-39300
X65844Y-41344
X66544Y-35044
X67000Y-38100
X67200Y-36400
X67700Y-33500
X67700Y-45600
X67800Y-42200
X67900Y-35400
X67900Y-42800
X68600Y-32400
X68600Y-35200
X68600Y-42200
X69100Y-42200
X69200Y-34400
X69800Y-33500
X70194Y-42720
X70200Y-33200
X70300Y-34800
X70600Y-32800
X70600Y-34600
X71100Y-41900
X71400Y-39700
X71900Y-33400
X74500Y-39700
X75000Y-39000
X77900Y-37400
X77900Y-40800
T2
X59100Y-36800
X60100Y-36800
X75600Y-41600
X75600Y-42700
X76600Y-41600
X76600Y-42700
T3
X69500Y-43061
X69500Y-44400
T4
X46380Y-35437
X47380Y-35437
X48380Y-35437
X49380Y-35437
X50380Y-35437
X51380Y-35437
X52380Y-35437
X53380Y-35437
X54380Y-35437
X55380Y-35437
X56380Y-35437
X57380Y-35437
X58380Y-35437
X59380Y-35437
X60380Y-35437
X61380Y-35437
X68273Y-40044
X68273Y-41044
T5
X44750Y-31250
X44750Y-49500
X55000Y-31250
X55000Y-49500
X59719Y-32100
X60506Y-32100
X61294Y-32100
X62081Y-32100
X64750Y-31250
X64750Y-49500
X69919Y-31900
X70706Y-31900
X71494Y-31900
X72281Y-31900
X75000Y-31250
X75000Y-49500
T6
X57150Y-41900
X59150Y-41900
T7
X40887Y-39044
X40887Y-40044
X40887Y-41044
X70200Y-39400
X70200Y-40400
X70200Y-41400
X72300Y-41800
X73250Y-45504
X73250Y-48496
X73300Y-41800
T8
X52650Y-49070
X52660Y-31660
X66840Y-31640
X66840Y-49070
T0
M30
