%TF.GenerationSoftware,KiCad,Pcbnew,no-vcs-found-7613~57~ubuntu16.10.1*%
%TF.CreationDate,2017-03-07T09:53:51+01:00*%
%TF.ProjectId,gp8-clock,6770382D636C6F636B2E6B696361645F,rev?*%
%TF.FileFunction,Legend,Top*%
%TF.FilePolarity,Positive*%
%FSLAX46Y46*%
G04 Gerber Fmt 4.6, Leading zero omitted, Abs format (unit mm)*
G04 Created by KiCad (PCBNEW no-vcs-found-7613~57~ubuntu16.10.1) date Tue Mar  7 09:53:51 2017*
%MOMM*%
%LPD*%
G01*
G04 APERTURE LIST*
%ADD10C,0.100000*%
%ADD11C,0.300000*%
%ADD12C,0.203200*%
%ADD13C,0.101600*%
%ADD14C,6.000000*%
%ADD15R,1.750000X1.750000*%
%ADD16O,1.700000X2.200000*%
%ADD17R,1.700000X2.200000*%
%ADD18C,1.924000*%
%ADD19R,2.599640X1.924000*%
%ADD20O,2.599640X1.924000*%
%ADD21C,1.197560*%
%ADD22C,1.416000*%
%ADD23C,1.800000*%
%ADD24C,2.400000*%
%ADD25R,2.000000X1.800000*%
%ADD26R,1.924000X2.599640*%
%ADD27O,1.924000X2.599640*%
%ADD28C,2.398980*%
G04 APERTURE END LIST*
D10*
D11*
X112431428Y-80958571D02*
X113002857Y-80958571D01*
X112645714Y-81958571D02*
X112645714Y-80672857D01*
X112717142Y-80530000D01*
X112860000Y-80458571D01*
X113002857Y-80458571D01*
X114145714Y-81958571D02*
X114145714Y-81172857D01*
X114074285Y-81030000D01*
X113931428Y-80958571D01*
X113645714Y-80958571D01*
X113502857Y-81030000D01*
X114145714Y-81887142D02*
X114002857Y-81958571D01*
X113645714Y-81958571D01*
X113502857Y-81887142D01*
X113431428Y-81744285D01*
X113431428Y-81601428D01*
X113502857Y-81458571D01*
X113645714Y-81387142D01*
X114002857Y-81387142D01*
X114145714Y-81315714D01*
X115502857Y-81887142D02*
X115360000Y-81958571D01*
X115074285Y-81958571D01*
X114931428Y-81887142D01*
X114860000Y-81815714D01*
X114788571Y-81672857D01*
X114788571Y-81244285D01*
X114860000Y-81101428D01*
X114931428Y-81030000D01*
X115074285Y-80958571D01*
X115360000Y-80958571D01*
X115502857Y-81030000D01*
X116145714Y-81958571D02*
X116145714Y-80958571D01*
X116145714Y-80458571D02*
X116074285Y-80530000D01*
X116145714Y-80601428D01*
X116217142Y-80530000D01*
X116145714Y-80458571D01*
X116145714Y-80601428D01*
X116860000Y-80958571D02*
X116860000Y-81958571D01*
X116860000Y-81101428D02*
X116931428Y-81030000D01*
X117074285Y-80958571D01*
X117288571Y-80958571D01*
X117431428Y-81030000D01*
X117502857Y-81172857D01*
X117502857Y-81958571D01*
X118860000Y-80958571D02*
X118860000Y-82172857D01*
X118788571Y-82315714D01*
X118717142Y-82387142D01*
X118574285Y-82458571D01*
X118360000Y-82458571D01*
X118217142Y-82387142D01*
X118860000Y-81887142D02*
X118717142Y-81958571D01*
X118431428Y-81958571D01*
X118288571Y-81887142D01*
X118217142Y-81815714D01*
X118145714Y-81672857D01*
X118145714Y-81244285D01*
X118217142Y-81101428D01*
X118288571Y-81030000D01*
X118431428Y-80958571D01*
X118717142Y-80958571D01*
X118860000Y-81030000D01*
X120645714Y-81887142D02*
X120788571Y-81958571D01*
X121074285Y-81958571D01*
X121217142Y-81887142D01*
X121288571Y-81744285D01*
X121288571Y-81672857D01*
X121217142Y-81530000D01*
X121074285Y-81458571D01*
X120860000Y-81458571D01*
X120717142Y-81387142D01*
X120645714Y-81244285D01*
X120645714Y-81172857D01*
X120717142Y-81030000D01*
X120860000Y-80958571D01*
X121074285Y-80958571D01*
X121217142Y-81030000D01*
X121931428Y-81958571D02*
X121931428Y-80458571D01*
X122074285Y-81387142D02*
X122502857Y-81958571D01*
X122502857Y-80958571D02*
X121931428Y-81530000D01*
X123002857Y-80958571D02*
X123360000Y-81958571D01*
X123717142Y-80958571D02*
X123360000Y-81958571D01*
X123217142Y-82315714D01*
X123145714Y-82387142D01*
X123002857Y-82458571D01*
D10*
X166064000Y-90011000D02*
X107644000Y-90011000D01*
X107644000Y-90011000D02*
X107644000Y-115011000D01*
X166064000Y-115011000D02*
X107644000Y-115011000D01*
X166064000Y-90011000D02*
X166064000Y-115011000D01*
X167374000Y-92411000D02*
X166374000Y-92411000D01*
X166374000Y-92411000D02*
X168374000Y-93411000D01*
X168374000Y-93411000D02*
X166374000Y-93411000D01*
X166374000Y-93411000D02*
X169374000Y-94411000D01*
X169374000Y-94411000D02*
X166374000Y-94411000D01*
X166374000Y-94411000D02*
X170374000Y-95411000D01*
X170374000Y-95411000D02*
X166374000Y-95411000D01*
X166374000Y-95411000D02*
X170374000Y-96411000D01*
X170374000Y-96411000D02*
X166374000Y-96411000D01*
X166374000Y-96411000D02*
X170374000Y-97411000D01*
X170374000Y-97411000D02*
X166374000Y-97411000D01*
X166374000Y-97411000D02*
X170374000Y-98411000D01*
X170374000Y-98411000D02*
X166374000Y-98411000D01*
X166374000Y-98411000D02*
X170374000Y-99411000D01*
X170374000Y-99411000D02*
X166374000Y-99411000D01*
X166374000Y-99411000D02*
X170374000Y-100411000D01*
X170374000Y-100411000D02*
X166374000Y-100411000D01*
X166374000Y-100411000D02*
X170374000Y-101411000D01*
X170374000Y-101411000D02*
X166374000Y-101411000D01*
X166374000Y-101411000D02*
X170374000Y-102411000D01*
X170374000Y-102411000D02*
X166374000Y-102411000D01*
X166374000Y-102411000D02*
X170374000Y-103411000D01*
X170374000Y-103411000D02*
X166374000Y-103411000D01*
X166374000Y-103411000D02*
X170374000Y-104411000D01*
X170374000Y-104411000D02*
X166374000Y-104411000D01*
X166374000Y-104411000D02*
X170374000Y-105411000D01*
X170374000Y-105411000D02*
X166374000Y-105411000D01*
X166374000Y-105411000D02*
X170374000Y-106411000D01*
X170374000Y-106411000D02*
X166374000Y-106411000D01*
X166374000Y-106411000D02*
X170374000Y-107411000D01*
X170374000Y-107411000D02*
X166374000Y-107411000D01*
X166374000Y-107411000D02*
X170374000Y-108411000D01*
X170374000Y-108411000D02*
X166374000Y-108411000D01*
X166374000Y-108411000D02*
X170374000Y-109411000D01*
X170374000Y-109411000D02*
X166374000Y-109411000D01*
X166374000Y-109411000D02*
X170374000Y-110411000D01*
X170374000Y-110411000D02*
X166374000Y-110411000D01*
X166374000Y-110411000D02*
X169374000Y-111411000D01*
X169374000Y-111411000D02*
X166374000Y-111411000D01*
X166374000Y-111411000D02*
X168374000Y-112411000D01*
X168374000Y-112411000D02*
X166374000Y-112411000D01*
X166374000Y-112411000D02*
X167374000Y-113411000D01*
X167374000Y-113411000D02*
X166374000Y-113411000D01*
X172374000Y-106411000D02*
X174374000Y-106411000D01*
X173374000Y-98411000D02*
X173374000Y-100411000D01*
X172374000Y-99411000D02*
X174374000Y-99411000D01*
X166374000Y-91411000D02*
X166374000Y-114411000D01*
X166374000Y-91411000D02*
X170374000Y-95411000D01*
X166374000Y-114411000D02*
X170374000Y-110411000D01*
X170374000Y-110411000D02*
X170374000Y-105411000D01*
X170374000Y-95411000D02*
X170374000Y-105411000D01*
X107374000Y-114411000D02*
X166374000Y-114411000D01*
X107374000Y-91411000D02*
X166374000Y-91411000D01*
X107374000Y-114411000D02*
X107374000Y-91411000D01*
D12*
X175030000Y-109643400D02*
X175030000Y-112508600D01*
X175030000Y-112508600D02*
X175705000Y-112508600D01*
X177355000Y-112508600D02*
X178030000Y-112508600D01*
X178030000Y-112508600D02*
X178030000Y-109643400D01*
X178030000Y-109643400D02*
X177355000Y-109643400D01*
X175705000Y-109643400D02*
X175030000Y-109643400D01*
X177473199Y-110671801D02*
G75*
G02X177944700Y-110200200I471551J50D01*
G01*
X177473200Y-110671800D02*
X177473200Y-111749700D01*
X177136300Y-111749700D02*
G75*
G03X177473200Y-111749700I168450J0D01*
G01*
X177136300Y-111749700D02*
X177136300Y-110873900D01*
X176799500Y-110873900D02*
G75*
G02X177136300Y-110873900I168400J0D01*
G01*
X176799500Y-110873900D02*
X176799500Y-111278100D01*
X176462600Y-111278100D02*
G75*
G03X176799500Y-111278100I168450J0D01*
G01*
X176462600Y-111278100D02*
X176462600Y-110873900D01*
X176125800Y-110873900D02*
G75*
G02X176462600Y-110873900I168400J0D01*
G01*
X176125800Y-110873900D02*
X176125800Y-111210700D01*
X175789000Y-111210700D02*
G75*
G03X176125800Y-111210700I168400J0D01*
G01*
X175789000Y-111210700D02*
X175789000Y-110402300D01*
X175452100Y-110402300D02*
G75*
G02X175789000Y-110402300I168450J0D01*
G01*
X175452100Y-110402300D02*
X175452100Y-111682300D01*
X175115300Y-111951800D02*
G75*
G03X175452100Y-111682300I60576J269500D01*
G01*
X179630000Y-111076000D02*
G75*
G03X179630000Y-111076000I-3100000J0D01*
G01*
X179080000Y-111076000D02*
G75*
G03X179080000Y-111076000I-2550000J0D01*
G01*
D13*
X179290600Y-97486100D02*
X173769400Y-97486100D01*
X173769400Y-97486100D02*
X173769400Y-95482400D01*
X173769400Y-95482400D02*
X173353800Y-95482400D01*
X173353800Y-95482400D02*
X173353800Y-93508400D01*
X173353800Y-93508400D02*
X173769400Y-93508400D01*
X173769400Y-93508400D02*
X173769400Y-91489900D01*
X173769400Y-91489900D02*
X179290600Y-91489900D01*
X179290600Y-91489900D02*
X179290600Y-93152200D01*
X179290600Y-93152200D02*
X179409400Y-93271000D01*
X179409400Y-93271000D02*
X179409400Y-95690200D01*
X179409400Y-95690200D02*
X179290600Y-95809000D01*
X179290600Y-95809000D02*
X179290600Y-97486100D01*
X173813900Y-91727400D02*
X175461400Y-91727400D01*
X175461400Y-91727400D02*
X175461400Y-91831300D01*
X175461400Y-91831300D02*
X177613500Y-91831300D01*
X177613500Y-91831300D02*
X177613500Y-91549300D01*
X177658000Y-91727400D02*
X179231200Y-91727400D01*
X175461400Y-91727400D02*
X175461400Y-91534500D01*
X173813900Y-97248600D02*
X175461400Y-97248600D01*
X175461400Y-97248600D02*
X175461400Y-97144700D01*
X175461400Y-97144700D02*
X177613500Y-97144700D01*
X177613500Y-97144700D02*
X177613500Y-97426700D01*
X177658000Y-97248600D02*
X179231200Y-97248600D01*
X175461400Y-97248600D02*
X175461400Y-97441600D01*
X177806400Y-94488000D02*
G75*
G03X177806400Y-94488000I-1276400J0D01*
G01*
X178177500Y-94488000D02*
G75*
G03X178177500Y-94488000I-1647500J0D01*
G01*
D10*
G36*
X179854600Y-96165100D02*
X179305500Y-96165100D01*
X179305500Y-96922100D01*
X179854600Y-96922100D01*
X179854600Y-96165100D01*
G37*
G36*
X179854600Y-92053900D02*
X179320300Y-92053900D01*
X179320300Y-92825700D01*
X179854600Y-92825700D01*
X179854600Y-92053900D01*
G37*
G36*
X173739700Y-96165100D02*
X173205400Y-96165100D01*
X173205400Y-96922100D01*
X173739700Y-96922100D01*
X173739700Y-96165100D01*
G37*
G36*
X173339000Y-94117000D02*
X173205400Y-94117000D01*
X173205400Y-94873900D01*
X173339000Y-94873900D01*
X173339000Y-94117000D01*
G37*
G36*
X173754500Y-92068800D02*
X173205400Y-92068800D01*
X173205400Y-92825700D01*
X173754500Y-92825700D01*
X173754500Y-92068800D01*
G37*
D13*
X110477904Y-112981619D02*
X110477904Y-113804095D01*
X110526285Y-113900857D01*
X110574666Y-113949238D01*
X110671428Y-113997619D01*
X110864952Y-113997619D01*
X110961714Y-113949238D01*
X111010095Y-113900857D01*
X111058476Y-113804095D01*
X111058476Y-112981619D01*
X111493904Y-113078380D02*
X111542285Y-113030000D01*
X111639047Y-112981619D01*
X111880952Y-112981619D01*
X111977714Y-113030000D01*
X112026095Y-113078380D01*
X112074476Y-113175142D01*
X112074476Y-113271904D01*
X112026095Y-113417047D01*
X111445523Y-113997619D01*
X112074476Y-113997619D01*
X108216095Y-113997619D02*
X108216095Y-112981619D01*
X108458000Y-112981619D01*
X108603142Y-113030000D01*
X108699904Y-113126761D01*
X108748285Y-113223523D01*
X108796666Y-113417047D01*
X108796666Y-113562190D01*
X108748285Y-113755714D01*
X108699904Y-113852476D01*
X108603142Y-113949238D01*
X108458000Y-113997619D01*
X108216095Y-113997619D01*
X109764285Y-113997619D02*
X109183714Y-113997619D01*
X109474000Y-113997619D02*
X109474000Y-112981619D01*
X109377238Y-113126761D01*
X109280476Y-113223523D01*
X109183714Y-113271904D01*
X173179619Y-111633483D02*
X172695809Y-111972150D01*
X173179619Y-112214055D02*
X172163619Y-112214055D01*
X172163619Y-111827007D01*
X172212000Y-111730245D01*
X172260380Y-111681864D01*
X172357142Y-111633483D01*
X172502285Y-111633483D01*
X172599047Y-111681864D01*
X172647428Y-111730245D01*
X172695809Y-111827007D01*
X172695809Y-112214055D01*
X172260380Y-111246436D02*
X172212000Y-111198055D01*
X172163619Y-111101293D01*
X172163619Y-110859388D01*
X172212000Y-110762626D01*
X172260380Y-110714245D01*
X172357142Y-110665864D01*
X172453904Y-110665864D01*
X172599047Y-110714245D01*
X173179619Y-111294817D01*
X173179619Y-110665864D01*
X172163619Y-109746626D02*
X172163619Y-110230436D01*
X172647428Y-110278817D01*
X172599047Y-110230436D01*
X172550666Y-110133674D01*
X172550666Y-109891769D01*
X172599047Y-109795007D01*
X172647428Y-109746626D01*
X172744190Y-109698245D01*
X172986095Y-109698245D01*
X173082857Y-109746626D01*
X173131238Y-109795007D01*
X173179619Y-109891769D01*
X173179619Y-110133674D01*
X173131238Y-110230436D01*
X173082857Y-110278817D01*
X179329563Y-97566238D02*
X179474706Y-97614619D01*
X179716611Y-97614619D01*
X179813373Y-97566238D01*
X179861754Y-97517857D01*
X179910135Y-97421095D01*
X179910135Y-97324333D01*
X179861754Y-97227571D01*
X179813373Y-97179190D01*
X179716611Y-97130809D01*
X179523087Y-97082428D01*
X179426325Y-97034047D01*
X179377944Y-96985666D01*
X179329563Y-96888904D01*
X179329563Y-96792142D01*
X179377944Y-96695380D01*
X179426325Y-96647000D01*
X179523087Y-96598619D01*
X179764992Y-96598619D01*
X179910135Y-96647000D01*
X180248801Y-96598619D02*
X180490706Y-97614619D01*
X180684230Y-96888904D01*
X180877754Y-97614619D01*
X181119659Y-96598619D01*
X182038897Y-97614619D02*
X181458325Y-97614619D01*
X181748611Y-97614619D02*
X181748611Y-96598619D01*
X181651849Y-96743761D01*
X181555087Y-96840523D01*
X181458325Y-96888904D01*
%LPC*%
D14*
X169773600Y-124637800D03*
X169773600Y-80365600D03*
X133756400Y-80416400D03*
X133731000Y-124637800D03*
D15*
X190500000Y-125730000D03*
X190500000Y-79375000D03*
X139700000Y-79375000D03*
X164465000Y-79375000D03*
X164465000Y-125730000D03*
X113665000Y-125730000D03*
X139700000Y-125730000D03*
X113665000Y-79375000D03*
D16*
X183594000Y-81026000D03*
X181594000Y-81026000D03*
X179594000Y-81026000D03*
D17*
X177594000Y-81026000D03*
X151686000Y-81534000D03*
D16*
X153686000Y-81534000D03*
X155686000Y-81534000D03*
X157686000Y-81534000D03*
D18*
X155904000Y-90011000D03*
X153364000Y-90011000D03*
X150824000Y-90011000D03*
X148284000Y-90011000D03*
X145744000Y-90011000D03*
X143204000Y-90011000D03*
X140664000Y-90011000D03*
X138124000Y-90011000D03*
X135584000Y-90011000D03*
X133044000Y-90011000D03*
X130504000Y-90011000D03*
X127964000Y-90011000D03*
X125424000Y-90011000D03*
X122884000Y-90011000D03*
X120344000Y-90011000D03*
X117804000Y-90011000D03*
X173414000Y-101711000D03*
X173414000Y-104251000D03*
D19*
X103854000Y-104251000D03*
D20*
X103854000Y-101711000D03*
X103854000Y-99171000D03*
D21*
X200393300Y-104386380D03*
X200390760Y-100589080D03*
D19*
X178308000Y-100076000D03*
D20*
X178308000Y-102616000D03*
X178308000Y-105156000D03*
D22*
X150114000Y-93472000D03*
X152654000Y-93472000D03*
X192024000Y-105664000D03*
X194564000Y-105664000D03*
X192024000Y-108458000D03*
X194564000Y-108458000D03*
D23*
X176530000Y-109376000D03*
X176530000Y-112776000D03*
D24*
X186055000Y-115580160D03*
X186055000Y-123179840D03*
D25*
X180730000Y-92238000D03*
X172330000Y-92238000D03*
X172330000Y-94488000D03*
X172330000Y-96738000D03*
X180730000Y-96738000D03*
D26*
X183642000Y-106172000D03*
D27*
X186182000Y-106172000D03*
D28*
X145161000Y-106426000D03*
X150241000Y-106426000D03*
M02*
