%TF.GenerationSoftware,KiCad,Pcbnew,0.201511041201+6297~30~ubuntu15.04.1-product*%
%TF.CreationDate,2015-11-12T00:10:28+01:00*%
%TF.ProjectId,transmitter,7472616E736D69747465722E6B696361,rev?*%
%TF.FileFunction,Legend,Top*%
%FSLAX46Y46*%
G04 Gerber Fmt 4.6, Leading zero omitted, Abs format (unit mm)*
G04 Created by KiCad (PCBNEW 0.201511041201+6297~30~ubuntu15.04.1-product) date czw, 12 lis 2015, 00:10:28*
%MOMM*%
G01*
G04 APERTURE LIST*
%ADD10C,0.100000*%
%ADD11C,0.299720*%
%ADD12C,0.150000*%
%ADD13C,1.197560*%
%ADD14C,2.398980*%
%ADD15R,2.400000X2.300000*%
%ADD16C,2.300000*%
%ADD17R,1.349960X1.898600*%
%ADD18O,1.349960X1.898600*%
%ADD19O,2.600000X1.500000*%
%ADD20C,1.924000*%
%ADD21R,1.924000X2.599640*%
%ADD22O,1.924000X2.599640*%
G04 APERTURE END LIST*
D10*
D11*
X133588760Y-107909360D02*
G75*
G03X130769360Y-107711240I-1508760J-1310640D01*
G01*
X130749040Y-110721140D02*
G75*
G03X133581140Y-110550960I1330960J1501140D01*
G01*
X132080000Y-107221020D02*
G75*
G03X130081020Y-109220000I0J-1998980D01*
G01*
X130081020Y-109220000D02*
G75*
G03X132080000Y-111218980I1998980J0D01*
G01*
X133380480Y-110721140D02*
X133380480Y-107718860D01*
X133581140Y-110520480D02*
X133581140Y-107919520D01*
X133581140Y-109220000D02*
G75*
G03X133581140Y-109220000I-1501140J0D01*
G01*
X133588760Y-101559360D02*
G75*
G03X130769360Y-101361240I-1508760J-1310640D01*
G01*
X130749040Y-104371140D02*
G75*
G03X133581140Y-104200960I1330960J1501140D01*
G01*
X132080000Y-100871020D02*
G75*
G03X130081020Y-102870000I0J-1998980D01*
G01*
X130081020Y-102870000D02*
G75*
G03X132080000Y-104868980I1998980J0D01*
G01*
X133380480Y-104371140D02*
X133380480Y-101368860D01*
X133581140Y-104170480D02*
X133581140Y-101569520D01*
X133581140Y-102870000D02*
G75*
G03X133581140Y-102870000I-1501140J0D01*
G01*
X133588760Y-95209360D02*
G75*
G03X130769360Y-95011240I-1508760J-1310640D01*
G01*
X130749040Y-98021140D02*
G75*
G03X133581140Y-97850960I1330960J1501140D01*
G01*
X132080000Y-94521020D02*
G75*
G03X130081020Y-96520000I0J-1998980D01*
G01*
X130081020Y-96520000D02*
G75*
G03X132080000Y-98518980I1998980J0D01*
G01*
X133380480Y-98021140D02*
X133380480Y-95018860D01*
X133581140Y-97820480D02*
X133581140Y-95219520D01*
X133581140Y-96520000D02*
G75*
G03X133581140Y-96520000I-1501140J0D01*
G01*
D12*
X136032381Y-109958095D02*
X135032381Y-109958095D01*
X135032381Y-109720000D01*
X135080000Y-109577142D01*
X135175238Y-109481904D01*
X135270476Y-109434285D01*
X135460952Y-109386666D01*
X135603810Y-109386666D01*
X135794286Y-109434285D01*
X135889524Y-109481904D01*
X135984762Y-109577142D01*
X136032381Y-109720000D01*
X136032381Y-109958095D01*
X136032381Y-108434285D02*
X136032381Y-109005714D01*
X136032381Y-108720000D02*
X135032381Y-108720000D01*
X135175238Y-108815238D01*
X135270476Y-108910476D01*
X135318095Y-109005714D01*
X136032381Y-103608095D02*
X135032381Y-103608095D01*
X135032381Y-103370000D01*
X135080000Y-103227142D01*
X135175238Y-103131904D01*
X135270476Y-103084285D01*
X135460952Y-103036666D01*
X135603810Y-103036666D01*
X135794286Y-103084285D01*
X135889524Y-103131904D01*
X135984762Y-103227142D01*
X136032381Y-103370000D01*
X136032381Y-103608095D01*
X135127619Y-102655714D02*
X135080000Y-102608095D01*
X135032381Y-102512857D01*
X135032381Y-102274761D01*
X135080000Y-102179523D01*
X135127619Y-102131904D01*
X135222857Y-102084285D01*
X135318095Y-102084285D01*
X135460952Y-102131904D01*
X136032381Y-102703333D01*
X136032381Y-102084285D01*
X136032381Y-97258095D02*
X135032381Y-97258095D01*
X135032381Y-97020000D01*
X135080000Y-96877142D01*
X135175238Y-96781904D01*
X135270476Y-96734285D01*
X135460952Y-96686666D01*
X135603810Y-96686666D01*
X135794286Y-96734285D01*
X135889524Y-96781904D01*
X135984762Y-96877142D01*
X136032381Y-97020000D01*
X136032381Y-97258095D01*
X135032381Y-96353333D02*
X135032381Y-95734285D01*
X135413333Y-96067619D01*
X135413333Y-95924761D01*
X135460952Y-95829523D01*
X135508571Y-95781904D01*
X135603810Y-95734285D01*
X135841905Y-95734285D01*
X135937143Y-95781904D01*
X135984762Y-95829523D01*
X136032381Y-95924761D01*
X136032381Y-96210476D01*
X135984762Y-96305714D01*
X135937143Y-96353333D01*
%LPC*%
D13*
X138569700Y-104640380D03*
X138567160Y-100843080D03*
D14*
X130810000Y-109220000D03*
X133350000Y-109220000D03*
X130810000Y-102870000D03*
X133350000Y-102870000D03*
X130810000Y-96520000D03*
X133350000Y-96520000D03*
D15*
X55626000Y-105268000D03*
D16*
X55626000Y-107808000D03*
D17*
X119400320Y-111125000D03*
D18*
X120650000Y-111125000D03*
X121899680Y-111125000D03*
D19*
X66675000Y-109220000D03*
X66675000Y-110490000D03*
X66675000Y-111760000D03*
X74295000Y-111760000D03*
X74295000Y-110490000D03*
X74295000Y-109220000D03*
D20*
X102235000Y-90170000D03*
X99695000Y-90170000D03*
X104775000Y-90170000D03*
X91440000Y-90170000D03*
X88900000Y-90170000D03*
X93980000Y-90170000D03*
X80645000Y-104140000D03*
X83185000Y-104140000D03*
X78105000Y-104140000D03*
D21*
X121920000Y-116205000D03*
D22*
X119380000Y-116205000D03*
D15*
X55626000Y-97805000D03*
D16*
X55626000Y-100345000D03*
M02*
