%TF.GenerationSoftware,KiCad,Pcbnew,0.201511041201+6297~30~ubuntu15.04.1-product*%
%TF.CreationDate,2015-11-12T00:10:28+01:00*%
%TF.ProjectId,transmitter,7472616E736D69747465722E6B696361,rev?*%
%TF.FileFunction,Copper,L1,Top,Signal*%
%FSLAX46Y46*%
G04 Gerber Fmt 4.6, Leading zero omitted, Abs format (unit mm)*
G04 Created by KiCad (PCBNEW 0.201511041201+6297~30~ubuntu15.04.1-product) date czw, 12 lis 2015, 00:10:28*
%MOMM*%
G01*
G04 APERTURE LIST*
%ADD10C,0.100000*%
%ADD11C,1.998980*%
%ADD12R,2.000000X1.900000*%
%ADD13C,1.900000*%
%ADD14R,0.949960X1.498600*%
%ADD15O,0.949960X1.498600*%
%ADD16O,2.200000X1.100000*%
%ADD17C,1.524000*%
%ADD18R,1.524000X2.199640*%
%ADD19O,1.524000X2.199640*%
%ADD20C,0.711200*%
%ADD21C,0.203200*%
%ADD22C,0.406400*%
%ADD23C,0.254000*%
G04 APERTURE END LIST*
D10*
D11*
X130810000Y-109220000D03*
X133350000Y-109220000D03*
X130810000Y-102870000D03*
X133350000Y-102870000D03*
X130810000Y-96520000D03*
X133350000Y-96520000D03*
D12*
X55626000Y-105268000D03*
D13*
X55626000Y-107808000D03*
D14*
X119400320Y-111125000D03*
D15*
X120650000Y-111125000D03*
X121899680Y-111125000D03*
D16*
X66675000Y-109220000D03*
X66675000Y-110490000D03*
X66675000Y-111760000D03*
X74295000Y-111760000D03*
X74295000Y-110490000D03*
X74295000Y-109220000D03*
D17*
X102235000Y-90170000D03*
X99695000Y-90170000D03*
X104775000Y-90170000D03*
X91440000Y-90170000D03*
X88900000Y-90170000D03*
X93980000Y-90170000D03*
X80645000Y-104140000D03*
X83185000Y-104140000D03*
X78105000Y-104140000D03*
D18*
X121920000Y-116205000D03*
D19*
X119380000Y-116205000D03*
D12*
X55626000Y-97805000D03*
D13*
X55626000Y-100345000D03*
D20*
X55880000Y-112268000D03*
X104648000Y-85979000D03*
X97536000Y-86614000D03*
X93853000Y-85979000D03*
X88773000Y-86106000D03*
X85217000Y-85852000D03*
X83566000Y-92075000D03*
X83439000Y-87757000D03*
X81026000Y-95123000D03*
X80645000Y-91186000D03*
X77089000Y-95758000D03*
X75565000Y-88138000D03*
X73787000Y-92329000D03*
X72517000Y-87884000D03*
X71120000Y-92837000D03*
X68072000Y-88138000D03*
X67691000Y-91567000D03*
X62230000Y-87630000D03*
X134874000Y-99314000D03*
X136398000Y-99441000D03*
X136398000Y-95631000D03*
X133731000Y-93218000D03*
X129413000Y-93726000D03*
X128397000Y-88773000D03*
X125603000Y-93472000D03*
X124714000Y-86233000D03*
X121666000Y-91948000D03*
X120142000Y-88519000D03*
X116332000Y-94361000D03*
X116078000Y-89535000D03*
X111125000Y-93345000D03*
X116586000Y-98044000D03*
X113030000Y-100330000D03*
X117348000Y-103378000D03*
X112522000Y-104521000D03*
X116586000Y-107696000D03*
X113665000Y-108331000D03*
X115824000Y-110744000D03*
X112776000Y-111125000D03*
X130302000Y-112649000D03*
X129921000Y-117983000D03*
X128524000Y-114173000D03*
X126365000Y-119888000D03*
X124841000Y-117094000D03*
X123190000Y-119888000D03*
X122555000Y-118491000D03*
X119761000Y-118745000D03*
X115824000Y-118237000D03*
X114681000Y-116078000D03*
X112649000Y-120142000D03*
X108839000Y-120015000D03*
X106426000Y-115951000D03*
X104521000Y-119507000D03*
X102235000Y-115189000D03*
X100584000Y-119888000D03*
X98679000Y-115062000D03*
X96012000Y-114427000D03*
X96520000Y-117983000D03*
X92964000Y-119507000D03*
X91821000Y-115570000D03*
X89789000Y-118999000D03*
X88519000Y-116332000D03*
X86360000Y-119761000D03*
X85471000Y-116459000D03*
X82931000Y-117729000D03*
X82931000Y-119888000D03*
X77724000Y-119761000D03*
X76581000Y-117094000D03*
X74803000Y-118110000D03*
X71501000Y-115824000D03*
X70739000Y-117729000D03*
X68961000Y-114935000D03*
X67183000Y-117729000D03*
X66929000Y-114681000D03*
X65024000Y-117983000D03*
X63373000Y-114046000D03*
X63627000Y-116967000D03*
X61087000Y-115951000D03*
X61214000Y-112649000D03*
X59182000Y-112649000D03*
X58166000Y-110363000D03*
X56134000Y-109982000D03*
X54356000Y-110490000D03*
X53467000Y-99060000D03*
X53213000Y-95123000D03*
X54864000Y-94107000D03*
X57658000Y-94234000D03*
X59309000Y-95631000D03*
X59055000Y-97663000D03*
X58928000Y-100330000D03*
X60706000Y-99949000D03*
X61722000Y-101727000D03*
X61214000Y-103251000D03*
X59690000Y-101600000D03*
X59563000Y-104013000D03*
X63246000Y-107188000D03*
X64262000Y-110363000D03*
X62865000Y-109474000D03*
X60960000Y-106045000D03*
X62738000Y-103251000D03*
X63373000Y-105410000D03*
X64643000Y-103251000D03*
X65151000Y-107442000D03*
X66294000Y-105537000D03*
X67691000Y-107442000D03*
X69342000Y-105791000D03*
X69596000Y-108077000D03*
X69215000Y-110109000D03*
X70485000Y-110490000D03*
X71501000Y-112141000D03*
X77470000Y-113538000D03*
X80772000Y-113284000D03*
X82169000Y-111887000D03*
X82677000Y-109093000D03*
X84455000Y-110998000D03*
X86233000Y-112903000D03*
X86106000Y-109347000D03*
X91948000Y-110998000D03*
X84709000Y-98933000D03*
X62865000Y-95631000D03*
X64389000Y-95123000D03*
X65913000Y-95123000D03*
X68199000Y-95250000D03*
X68707000Y-99060000D03*
X67310000Y-98933000D03*
X65913000Y-99822000D03*
X64770000Y-100711000D03*
X63373000Y-99949000D03*
X73914000Y-102489000D03*
X74168000Y-100965000D03*
X72390000Y-98425000D03*
X70612000Y-98679000D03*
X83185000Y-98044000D03*
X83058000Y-99568000D03*
X82423000Y-101219000D03*
X89789000Y-109220000D03*
X111506000Y-98679000D03*
X111506000Y-97282000D03*
X110363000Y-96139000D03*
X109093000Y-96139000D03*
X95885000Y-96139000D03*
X97282000Y-96647000D03*
X97409000Y-98044000D03*
X97282000Y-99441000D03*
X95758000Y-99695000D03*
X90551000Y-105791000D03*
X91694000Y-105791000D03*
X95250000Y-110744000D03*
X96520000Y-109982000D03*
X97028000Y-108712000D03*
X97155000Y-107315000D03*
X100076000Y-106680000D03*
X101219000Y-109347000D03*
X103505000Y-109220000D03*
X106680000Y-109474000D03*
X105537000Y-109601000D03*
X106299000Y-111887000D03*
X108204000Y-111633000D03*
X110109000Y-110236000D03*
X111125000Y-109728000D03*
X111252000Y-108077000D03*
X110998000Y-106426000D03*
X109728000Y-105410000D03*
X108712000Y-105410000D03*
X107696000Y-105791000D03*
X96647000Y-105283000D03*
X95377000Y-105410000D03*
X94234000Y-105791000D03*
X125931931Y-104174291D03*
X135382000Y-104174291D03*
X136652000Y-103378000D03*
X136652000Y-104902000D03*
X124206000Y-100838000D03*
X125095000Y-101981000D03*
X122809000Y-98044000D03*
X121285000Y-98044000D03*
X120904000Y-94869000D03*
X122174000Y-94869000D03*
X123698000Y-95250000D03*
X122555000Y-102108000D03*
X123698000Y-96520000D03*
X119634000Y-98806000D03*
X99822000Y-108458000D03*
X105537000Y-105156000D03*
X93345000Y-109347000D03*
X92837000Y-113538000D03*
X103505000Y-96393000D03*
X89535000Y-96520000D03*
D21*
X56134000Y-109982000D02*
X56134000Y-112014000D01*
X56134000Y-112014000D02*
X55880000Y-112268000D01*
X97536000Y-86614000D02*
X98171000Y-85979000D01*
X98171000Y-85979000D02*
X104648000Y-85979000D01*
X88773000Y-86106000D02*
X93726000Y-86106000D01*
X93726000Y-86106000D02*
X93853000Y-85979000D01*
X83566000Y-92075000D02*
X85217000Y-90424000D01*
X85217000Y-90424000D02*
X85217000Y-85852000D01*
X81026000Y-95123000D02*
X81026000Y-90170000D01*
X81026000Y-90170000D02*
X83439000Y-87757000D01*
X77089000Y-95758000D02*
X77089000Y-94742000D01*
X77089000Y-94742000D02*
X80645000Y-91186000D01*
X73787000Y-92329000D02*
X73787000Y-89916000D01*
X73787000Y-89916000D02*
X75565000Y-88138000D01*
X71120000Y-92837000D02*
X71120000Y-89281000D01*
X71120000Y-89281000D02*
X72517000Y-87884000D01*
X67691000Y-91567000D02*
X67691000Y-88519000D01*
X67691000Y-88519000D02*
X68072000Y-88138000D01*
X62865000Y-95631000D02*
X62865000Y-88265000D01*
X62865000Y-88265000D02*
X62230000Y-87630000D01*
X134874000Y-99314000D02*
X134874000Y-101600000D01*
X134874000Y-101600000D02*
X136652000Y-103378000D01*
X136398000Y-95631000D02*
X136398000Y-99441000D01*
X129413000Y-93726000D02*
X129921000Y-93218000D01*
X129921000Y-93218000D02*
X133731000Y-93218000D01*
X125603000Y-93472000D02*
X128397000Y-90678000D01*
X128397000Y-90678000D02*
X128397000Y-88773000D01*
X121666000Y-91948000D02*
X124714000Y-88900000D01*
X124714000Y-88900000D02*
X124714000Y-86233000D01*
X116332000Y-94361000D02*
X120142000Y-90551000D01*
X120142000Y-90551000D02*
X120142000Y-88519000D01*
X111125000Y-93345000D02*
X112268000Y-93345000D01*
X112268000Y-93345000D02*
X116078000Y-89535000D01*
X113030000Y-100330000D02*
X114300000Y-100330000D01*
X114300000Y-100330000D02*
X116586000Y-98044000D01*
X112522000Y-104521000D02*
X116205000Y-104521000D01*
X116205000Y-104521000D02*
X117348000Y-103378000D01*
X113665000Y-108331000D02*
X115951000Y-108331000D01*
X115951000Y-108331000D02*
X116586000Y-107696000D01*
X112776000Y-111125000D02*
X113157000Y-110744000D01*
X113157000Y-110744000D02*
X115824000Y-110744000D01*
X129921000Y-117983000D02*
X130302000Y-117602000D01*
X130302000Y-117602000D02*
X130302000Y-112649000D01*
X126365000Y-119888000D02*
X128524000Y-117729000D01*
X128524000Y-117729000D02*
X128524000Y-114173000D01*
X123190000Y-119888000D02*
X124841000Y-118237000D01*
X124841000Y-118237000D02*
X124841000Y-117094000D01*
X119761000Y-118745000D02*
X122301000Y-118745000D01*
X122301000Y-118745000D02*
X122555000Y-118491000D01*
X114681000Y-116078000D02*
X114681000Y-117094000D01*
X114681000Y-117094000D02*
X115824000Y-118237000D01*
X108839000Y-120015000D02*
X112522000Y-120015000D01*
X112522000Y-120015000D02*
X112649000Y-120142000D01*
X104521000Y-119507000D02*
X106426000Y-117602000D01*
X106426000Y-117602000D02*
X106426000Y-115951000D01*
X100584000Y-119888000D02*
X102235000Y-118237000D01*
X102235000Y-118237000D02*
X102235000Y-115189000D01*
X96012000Y-114427000D02*
X96647000Y-115062000D01*
X96647000Y-115062000D02*
X98679000Y-115062000D01*
X92964000Y-119507000D02*
X94996000Y-119507000D01*
X94996000Y-119507000D02*
X96520000Y-117983000D01*
X89789000Y-118999000D02*
X89789000Y-117602000D01*
X89789000Y-117602000D02*
X91821000Y-115570000D01*
X86360000Y-119761000D02*
X86360000Y-118491000D01*
X86360000Y-118491000D02*
X88519000Y-116332000D01*
X82931000Y-117729000D02*
X84201000Y-117729000D01*
X84201000Y-117729000D02*
X85471000Y-116459000D01*
X77724000Y-119761000D02*
X82804000Y-119761000D01*
X82804000Y-119761000D02*
X82931000Y-119888000D01*
X74803000Y-118110000D02*
X75565000Y-118110000D01*
X75565000Y-118110000D02*
X76581000Y-117094000D01*
X70739000Y-117729000D02*
X71501000Y-116967000D01*
X71501000Y-116967000D02*
X71501000Y-115824000D01*
X67183000Y-117729000D02*
X68961000Y-115951000D01*
X68961000Y-115951000D02*
X68961000Y-114935000D01*
X65024000Y-117983000D02*
X65024000Y-116586000D01*
X65024000Y-116586000D02*
X66929000Y-114681000D01*
X63627000Y-116967000D02*
X63627000Y-114300000D01*
X63627000Y-114300000D02*
X63373000Y-114046000D01*
X61214000Y-112649000D02*
X61214000Y-115824000D01*
X61214000Y-115824000D02*
X61087000Y-115951000D01*
X58166000Y-110363000D02*
X58166000Y-111633000D01*
X58166000Y-111633000D02*
X59182000Y-112649000D01*
X53467000Y-99060000D02*
X53467000Y-109601000D01*
X53467000Y-109601000D02*
X54356000Y-110490000D01*
X54864000Y-94107000D02*
X54229000Y-94107000D01*
X54229000Y-94107000D02*
X53213000Y-95123000D01*
X59309000Y-95631000D02*
X57912000Y-94234000D01*
X57912000Y-94234000D02*
X57658000Y-94234000D01*
X58928000Y-100330000D02*
X58928000Y-97790000D01*
X58928000Y-97790000D02*
X59055000Y-97663000D01*
X61722000Y-101727000D02*
X61722000Y-100965000D01*
X61722000Y-100965000D02*
X60706000Y-99949000D01*
X59690000Y-101600000D02*
X61214000Y-103124000D01*
X61214000Y-103124000D02*
X61214000Y-103251000D01*
X63246000Y-107188000D02*
X62738000Y-107188000D01*
X62738000Y-107188000D02*
X59563000Y-104013000D01*
X62865000Y-109474000D02*
X63373000Y-109474000D01*
X63373000Y-109474000D02*
X64262000Y-110363000D01*
X62738000Y-103251000D02*
X62738000Y-104267000D01*
X62738000Y-104267000D02*
X60960000Y-106045000D01*
X64643000Y-103251000D02*
X64643000Y-104140000D01*
X64643000Y-104140000D02*
X63373000Y-105410000D01*
X66294000Y-105537000D02*
X66294000Y-106299000D01*
X66294000Y-106299000D02*
X65151000Y-107442000D01*
X69342000Y-105791000D02*
X67691000Y-107442000D01*
X69215000Y-110109000D02*
X69596000Y-109728000D01*
X69596000Y-109728000D02*
X69596000Y-108077000D01*
X71501000Y-112141000D02*
X71501000Y-111506000D01*
X71501000Y-111506000D02*
X70485000Y-110490000D01*
X80772000Y-113284000D02*
X77724000Y-113284000D01*
X77724000Y-113284000D02*
X77470000Y-113538000D01*
X82677000Y-109093000D02*
X82677000Y-111379000D01*
X82677000Y-111379000D02*
X82169000Y-111887000D01*
X86233000Y-112903000D02*
X84455000Y-111125000D01*
X84455000Y-111125000D02*
X84455000Y-110998000D01*
X91948000Y-110998000D02*
X87757000Y-110998000D01*
X87757000Y-110998000D02*
X86106000Y-109347000D01*
X89789000Y-109220000D02*
X91567000Y-110998000D01*
X91567000Y-110998000D02*
X91948000Y-110998000D01*
X84353401Y-98577401D02*
X84709000Y-98933000D01*
X83820000Y-98044000D02*
X84353401Y-98577401D01*
X83185000Y-98044000D02*
X83820000Y-98044000D01*
X62865000Y-95631000D02*
X63373000Y-96139000D01*
X63373000Y-96139000D02*
X63373000Y-99949000D01*
X65913000Y-95123000D02*
X64389000Y-95123000D01*
X68707000Y-99060000D02*
X68199000Y-98552000D01*
X68199000Y-98552000D02*
X68199000Y-95250000D01*
X65913000Y-99822000D02*
X66421000Y-99822000D01*
X66421000Y-99822000D02*
X67310000Y-98933000D01*
X63373000Y-99949000D02*
X64008000Y-99949000D01*
X64008000Y-99949000D02*
X64770000Y-100711000D01*
X74168000Y-100965000D02*
X74168000Y-102235000D01*
X74168000Y-102235000D02*
X73914000Y-102489000D01*
X70612000Y-98679000D02*
X72136000Y-98679000D01*
X72136000Y-98679000D02*
X72390000Y-98425000D01*
X82423000Y-101219000D02*
X82423000Y-100203000D01*
X82423000Y-100203000D02*
X83058000Y-99568000D01*
X111506000Y-97282000D02*
X111506000Y-98679000D01*
X109093000Y-96139000D02*
X110363000Y-96139000D01*
X97282000Y-96647000D02*
X96393000Y-96647000D01*
X96393000Y-96647000D02*
X95885000Y-96139000D01*
X97282000Y-99441000D02*
X97282000Y-98171000D01*
X97282000Y-98171000D02*
X97409000Y-98044000D01*
X90551000Y-105791000D02*
X90551000Y-104902000D01*
X90551000Y-104902000D02*
X95758000Y-99695000D01*
X95250000Y-110744000D02*
X95250000Y-109093000D01*
X95250000Y-109093000D02*
X91948000Y-105791000D01*
X91948000Y-105791000D02*
X91694000Y-105791000D01*
X97028000Y-108712000D02*
X97028000Y-109474000D01*
X97028000Y-109474000D02*
X96520000Y-109982000D01*
X100076000Y-106680000D02*
X99441000Y-107315000D01*
X99441000Y-107315000D02*
X97155000Y-107315000D01*
X103505000Y-109220000D02*
X101346000Y-109220000D01*
X101346000Y-109220000D02*
X101219000Y-109347000D01*
X105537000Y-109601000D02*
X106553000Y-109601000D01*
X106553000Y-109601000D02*
X106680000Y-109474000D01*
X108204000Y-111633000D02*
X106553000Y-111633000D01*
X106553000Y-111633000D02*
X106299000Y-111887000D01*
X111125000Y-109728000D02*
X110617000Y-109728000D01*
X110617000Y-109728000D02*
X110109000Y-110236000D01*
X110998000Y-106426000D02*
X110998000Y-107823000D01*
X110998000Y-107823000D02*
X111252000Y-108077000D01*
X108712000Y-105410000D02*
X109728000Y-105410000D01*
X96647000Y-105283000D02*
X97434401Y-104495599D01*
X97434401Y-104495599D02*
X106400599Y-104495599D01*
X106400599Y-104495599D02*
X107696000Y-105791000D01*
X94234000Y-105791000D02*
X94996000Y-105791000D01*
X94996000Y-105791000D02*
X95377000Y-105410000D01*
X120650000Y-111125000D02*
X120650000Y-109456222D01*
X120650000Y-109456222D02*
X125931931Y-104174291D01*
X136652000Y-104902000D02*
X136652000Y-103378000D01*
X122555000Y-102108000D02*
X123825000Y-102108000D01*
X123850401Y-102082599D02*
X123825000Y-102108000D01*
X123825000Y-102108000D02*
X124968000Y-102108000D01*
X124206000Y-100838000D02*
X123850401Y-101193599D01*
X123850401Y-101193599D02*
X123850401Y-102082599D01*
X124968000Y-102108000D02*
X125095000Y-101981000D01*
X122809000Y-98044000D02*
X122809000Y-97409000D01*
X122809000Y-97409000D02*
X123698000Y-96520000D01*
X120904000Y-94869000D02*
X120904000Y-97663000D01*
X120904000Y-97663000D02*
X121285000Y-98044000D01*
X123698000Y-95250000D02*
X122555000Y-95250000D01*
X122555000Y-95250000D02*
X122174000Y-94869000D01*
X123698000Y-96520000D02*
X120942606Y-96520000D01*
X120942606Y-96520000D02*
X118973599Y-98489007D01*
X118973599Y-98489007D02*
X118973599Y-99122993D01*
X118973599Y-99122993D02*
X121958606Y-102108000D01*
X121958606Y-102108000D02*
X122555000Y-102108000D01*
D22*
X133350000Y-99441000D02*
X133350000Y-102870000D01*
X133350000Y-96520000D02*
X133350000Y-99441000D01*
X133350000Y-99441000D02*
X120269000Y-99441000D01*
X120269000Y-99441000D02*
X119634000Y-98806000D01*
X133350000Y-109220000D02*
X133350000Y-107806508D01*
X133350000Y-107806508D02*
X133350000Y-102870000D01*
X105537000Y-105156000D02*
X102235000Y-108458000D01*
X102235000Y-108458000D02*
X99822000Y-108458000D01*
X55626000Y-105268000D02*
X55626000Y-103911600D01*
X55626000Y-103911600D02*
X57033201Y-102504399D01*
X57033201Y-99162201D02*
X55676000Y-97805000D01*
X57033201Y-102504399D02*
X57033201Y-99162201D01*
X55676000Y-97805000D02*
X55626000Y-97805000D01*
X74295000Y-111760000D02*
X75801400Y-111760000D01*
X75801400Y-111760000D02*
X78105000Y-109456400D01*
X78105000Y-109456400D02*
X78105000Y-105217630D01*
X78105000Y-105217630D02*
X78105000Y-104140000D01*
X93345000Y-109849894D02*
X93345000Y-109347000D01*
X93345000Y-113030000D02*
X93345000Y-109849894D01*
X92837000Y-113538000D02*
X93345000Y-113030000D01*
X99695000Y-90170000D02*
X99695000Y-92583000D01*
X99695000Y-92583000D02*
X103505000Y-96393000D01*
X88900000Y-90170000D02*
X88900000Y-95885000D01*
X88900000Y-95885000D02*
X89535000Y-96520000D01*
D23*
G36*
X68840142Y-85942907D02*
X68892285Y-86205045D01*
X69040774Y-86427275D01*
X69263004Y-86575764D01*
X69525142Y-86627907D01*
X72055773Y-86627907D01*
X72317911Y-86575764D01*
X72501155Y-86453325D01*
X72684399Y-86575764D01*
X72946537Y-86627907D01*
X75476614Y-86627907D01*
X75738752Y-86575764D01*
X75960982Y-86427275D01*
X76109471Y-86205045D01*
X76161614Y-85942907D01*
X76161614Y-85064659D01*
X114597074Y-85064659D01*
X114597074Y-85942907D01*
X114649217Y-86205045D01*
X114797706Y-86427275D01*
X115019936Y-86575764D01*
X115282074Y-86627907D01*
X117812154Y-86627907D01*
X118074292Y-86575764D01*
X118257536Y-86453325D01*
X118440780Y-86575764D01*
X118702918Y-86627907D01*
X121232995Y-86627907D01*
X121495133Y-86575764D01*
X121717363Y-86427275D01*
X121865852Y-86205045D01*
X121917995Y-85942907D01*
X121917995Y-85064659D01*
X130241115Y-85064659D01*
X130241115Y-89934255D01*
X130247869Y-89968210D01*
X130244540Y-90002669D01*
X130288637Y-90441987D01*
X130308673Y-90507595D01*
X130315752Y-90575829D01*
X130441981Y-90984281D01*
X130474165Y-91043746D01*
X130494157Y-91108336D01*
X130694247Y-91477649D01*
X130736499Y-91528545D01*
X130767786Y-91586831D01*
X131032923Y-91908741D01*
X131084271Y-91950729D01*
X131126271Y-92002073D01*
X131447629Y-92266657D01*
X131505866Y-92297904D01*
X131556715Y-92340117D01*
X131926027Y-92540207D01*
X131990744Y-92560238D01*
X132050331Y-92592459D01*
X132459334Y-92718688D01*
X132527395Y-92725723D01*
X132592842Y-92745719D01*
X133031610Y-92789815D01*
X133066111Y-92786486D01*
X133100109Y-92793249D01*
X137758039Y-92793249D01*
X137758039Y-97215258D01*
X137810182Y-97477396D01*
X137958671Y-97699626D01*
X138180901Y-97848115D01*
X138303000Y-97872402D01*
X138303000Y-99833677D01*
X137982336Y-99966173D01*
X137691275Y-100256726D01*
X137533560Y-100636546D01*
X137533201Y-101047809D01*
X137690253Y-101427904D01*
X137980806Y-101718965D01*
X138303000Y-101852752D01*
X138303000Y-103632027D01*
X137984876Y-103763473D01*
X137693815Y-104054026D01*
X137536100Y-104433846D01*
X137535741Y-104845109D01*
X137692793Y-105225204D01*
X137983346Y-105516265D01*
X138303000Y-105648997D01*
X138303000Y-107676679D01*
X138180901Y-107700966D01*
X137958671Y-107849455D01*
X137810182Y-108071685D01*
X137758039Y-108333823D01*
X137758039Y-112834103D01*
X133100109Y-112834103D01*
X133066111Y-112840866D01*
X133031610Y-112837537D01*
X132592842Y-112881633D01*
X132527396Y-112901628D01*
X132459332Y-112908664D01*
X132050330Y-113034894D01*
X131990742Y-113067116D01*
X131926027Y-113087146D01*
X131556715Y-113287236D01*
X131505598Y-113329672D01*
X131447088Y-113361142D01*
X131125730Y-113626278D01*
X131084185Y-113677172D01*
X131033291Y-113718717D01*
X130768154Y-114040075D01*
X130736683Y-114098585D01*
X130694247Y-114149703D01*
X130494157Y-114519016D01*
X130474165Y-114583606D01*
X130441981Y-114643071D01*
X130315752Y-115051523D01*
X130308673Y-115119757D01*
X130288637Y-115185365D01*
X130244540Y-115624684D01*
X130247869Y-115659143D01*
X130241115Y-115693098D01*
X130241115Y-120484422D01*
X121917995Y-120484422D01*
X121917995Y-119547745D01*
X121865852Y-119285607D01*
X121717363Y-119063377D01*
X121495133Y-118914888D01*
X121232995Y-118862745D01*
X118702918Y-118862745D01*
X118440780Y-118914888D01*
X118257536Y-119037327D01*
X118074292Y-118914888D01*
X117812154Y-118862745D01*
X115282074Y-118862745D01*
X115019936Y-118914888D01*
X114797706Y-119063377D01*
X114649217Y-119285607D01*
X114597074Y-119547745D01*
X114597074Y-120484422D01*
X76161614Y-120484422D01*
X76161614Y-119547745D01*
X76109471Y-119285607D01*
X75960982Y-119063377D01*
X75738752Y-118914888D01*
X75476614Y-118862745D01*
X72946537Y-118862745D01*
X72684399Y-118914888D01*
X72501155Y-119037327D01*
X72317911Y-118914888D01*
X72055773Y-118862745D01*
X69525142Y-118862745D01*
X69263004Y-118914888D01*
X69040774Y-119063377D01*
X68892285Y-119285607D01*
X68840142Y-119547745D01*
X68840142Y-120484422D01*
X60588682Y-120484422D01*
X60588682Y-117660980D01*
X77726602Y-117660980D01*
X77733210Y-117729698D01*
X77726602Y-117798416D01*
X77751692Y-118047258D01*
X77771838Y-118113120D01*
X77779032Y-118181621D01*
X77850979Y-118413389D01*
X77883158Y-118472665D01*
X77903150Y-118537081D01*
X78016990Y-118746816D01*
X78059302Y-118797704D01*
X78090652Y-118855988D01*
X78241423Y-119038724D01*
X78292309Y-119080262D01*
X78333848Y-119131149D01*
X78516584Y-119281920D01*
X78574870Y-119313271D01*
X78625757Y-119355582D01*
X78835491Y-119469423D01*
X78899908Y-119489415D01*
X78959182Y-119521593D01*
X79190951Y-119593540D01*
X79259453Y-119600734D01*
X79325315Y-119620880D01*
X79574156Y-119645970D01*
X79642874Y-119639362D01*
X79711592Y-119645970D01*
X79960434Y-119620880D01*
X80026296Y-119600734D01*
X80094797Y-119593540D01*
X80326565Y-119521593D01*
X80385841Y-119489414D01*
X80450257Y-119469422D01*
X80659992Y-119355582D01*
X80710880Y-119313270D01*
X80769164Y-119281920D01*
X80951900Y-119131149D01*
X80993438Y-119080263D01*
X81044325Y-119038724D01*
X81195096Y-118855988D01*
X81226447Y-118797702D01*
X81268758Y-118746815D01*
X81382599Y-118537081D01*
X81402591Y-118472664D01*
X81434769Y-118413390D01*
X81506716Y-118181621D01*
X81513910Y-118113119D01*
X81534056Y-118047257D01*
X81559146Y-117798416D01*
X81552538Y-117729698D01*
X81559146Y-117660980D01*
X109249822Y-117660980D01*
X109256430Y-117729698D01*
X109249822Y-117798416D01*
X109274912Y-118047258D01*
X109295058Y-118113120D01*
X109302252Y-118181621D01*
X109374199Y-118413389D01*
X109406378Y-118472665D01*
X109426370Y-118537081D01*
X109540210Y-118746816D01*
X109582522Y-118797704D01*
X109613872Y-118855988D01*
X109764643Y-119038724D01*
X109815529Y-119080262D01*
X109857069Y-119131150D01*
X110039807Y-119281922D01*
X110098089Y-119313270D01*
X110148976Y-119355582D01*
X110358710Y-119469422D01*
X110423126Y-119489414D01*
X110482402Y-119521593D01*
X110714171Y-119593540D01*
X110782673Y-119600734D01*
X110848535Y-119620880D01*
X111097376Y-119645970D01*
X111166094Y-119639362D01*
X111234812Y-119645970D01*
X111483654Y-119620880D01*
X111549517Y-119600734D01*
X111618016Y-119593540D01*
X111849786Y-119521593D01*
X111909062Y-119489415D01*
X111973480Y-119469422D01*
X112183213Y-119355582D01*
X112234102Y-119313269D01*
X112292384Y-119281920D01*
X112475120Y-119131149D01*
X112516656Y-119080265D01*
X112567544Y-119038726D01*
X112718315Y-118855990D01*
X112749666Y-118797704D01*
X112791979Y-118746815D01*
X112905820Y-118537081D01*
X112925812Y-118472664D01*
X112957990Y-118413390D01*
X113029937Y-118181621D01*
X113037131Y-118113121D01*
X113057278Y-118047255D01*
X113082367Y-117798413D01*
X113075759Y-117729698D01*
X113082367Y-117660983D01*
X113057278Y-117412141D01*
X113037131Y-117346275D01*
X113029937Y-117277775D01*
X112957990Y-117046006D01*
X112925812Y-116986732D01*
X112905820Y-116922315D01*
X112791979Y-116712581D01*
X112749666Y-116661692D01*
X112718315Y-116603406D01*
X112567544Y-116420670D01*
X112516657Y-116379131D01*
X112475121Y-116328248D01*
X112292386Y-116177476D01*
X112234102Y-116146126D01*
X112183213Y-116103813D01*
X111973480Y-115989973D01*
X111909061Y-115969980D01*
X111849783Y-115937801D01*
X111618013Y-115865855D01*
X111549515Y-115858661D01*
X111483654Y-115838516D01*
X111430861Y-115833193D01*
X117983000Y-115833193D01*
X117983000Y-116576807D01*
X118089340Y-117111416D01*
X118392172Y-117564635D01*
X118845391Y-117867467D01*
X119380000Y-117973807D01*
X119914609Y-117867467D01*
X120367828Y-117564635D01*
X120517343Y-117340870D01*
X120554838Y-117540137D01*
X120693910Y-117756261D01*
X120906110Y-117901251D01*
X121158000Y-117952260D01*
X122682000Y-117952260D01*
X122917317Y-117907982D01*
X123133441Y-117768910D01*
X123278431Y-117556710D01*
X123329440Y-117304820D01*
X123329440Y-115105180D01*
X123285162Y-114869863D01*
X123146090Y-114653739D01*
X122933890Y-114508749D01*
X122682000Y-114457740D01*
X121158000Y-114457740D01*
X120922683Y-114502018D01*
X120706559Y-114641090D01*
X120561569Y-114853290D01*
X120517740Y-115069724D01*
X120367828Y-114845365D01*
X119914609Y-114542533D01*
X119380000Y-114436193D01*
X118845391Y-114542533D01*
X118392172Y-114845365D01*
X118089340Y-115298584D01*
X117983000Y-115833193D01*
X111430861Y-115833193D01*
X111234812Y-115813426D01*
X111166094Y-115820034D01*
X111097376Y-115813426D01*
X110848535Y-115838516D01*
X110782675Y-115858661D01*
X110714174Y-115865855D01*
X110482405Y-115937801D01*
X110423127Y-115969980D01*
X110358710Y-115989973D01*
X110148976Y-116103813D01*
X110098087Y-116146126D01*
X110039805Y-116177475D01*
X109857068Y-116328247D01*
X109815530Y-116379134D01*
X109764643Y-116420672D01*
X109613872Y-116603408D01*
X109582522Y-116661692D01*
X109540210Y-116712580D01*
X109426370Y-116922315D01*
X109406378Y-116986731D01*
X109374199Y-117046007D01*
X109302252Y-117277775D01*
X109295058Y-117346276D01*
X109274912Y-117412138D01*
X109249822Y-117660980D01*
X81559146Y-117660980D01*
X81534056Y-117412139D01*
X81513910Y-117346277D01*
X81506716Y-117277775D01*
X81434769Y-117046006D01*
X81402591Y-116986732D01*
X81382599Y-116922315D01*
X81268758Y-116712581D01*
X81226447Y-116661694D01*
X81195096Y-116603408D01*
X81044325Y-116420672D01*
X80993439Y-116379133D01*
X80951901Y-116328248D01*
X80769166Y-116177476D01*
X80710880Y-116146125D01*
X80659992Y-116103813D01*
X80450257Y-115989973D01*
X80385842Y-115969981D01*
X80326563Y-115937801D01*
X80094794Y-115865855D01*
X80026294Y-115858661D01*
X79960434Y-115838516D01*
X79711592Y-115813426D01*
X79642874Y-115820034D01*
X79574156Y-115813426D01*
X79325315Y-115838516D01*
X79259455Y-115858661D01*
X79190954Y-115865855D01*
X78959185Y-115937801D01*
X78899909Y-115969979D01*
X78835491Y-115989972D01*
X78625757Y-116103813D01*
X78574868Y-116146126D01*
X78516582Y-116177477D01*
X78333846Y-116328248D01*
X78292307Y-116379136D01*
X78241423Y-116420672D01*
X78090652Y-116603408D01*
X78059302Y-116661692D01*
X78016990Y-116712580D01*
X77903150Y-116922315D01*
X77883158Y-116986731D01*
X77850979Y-117046007D01*
X77779032Y-117277775D01*
X77771838Y-117346276D01*
X77751692Y-117412138D01*
X77726602Y-117660980D01*
X60588682Y-117660980D01*
X60588682Y-115693098D01*
X60582011Y-115659560D01*
X60585341Y-115625529D01*
X60541794Y-115186210D01*
X60521596Y-115119776D01*
X60514345Y-115050717D01*
X60387565Y-114642266D01*
X60355696Y-114583555D01*
X60336015Y-114519710D01*
X60136474Y-114150397D01*
X60093849Y-114098932D01*
X60062195Y-114040079D01*
X59809815Y-113734178D01*
X91846228Y-113734178D01*
X91996721Y-114098397D01*
X92275138Y-114377300D01*
X92639093Y-114528428D01*
X93033178Y-114528772D01*
X93397397Y-114378279D01*
X93676300Y-114099862D01*
X93827428Y-113735907D01*
X93827431Y-113732963D01*
X93937697Y-113622697D01*
X94019899Y-113499673D01*
X94119396Y-113350765D01*
X94183200Y-113030000D01*
X94183200Y-110375700D01*
X118277900Y-110375700D01*
X118277900Y-111874300D01*
X118322178Y-112109617D01*
X118461250Y-112325741D01*
X118673450Y-112470731D01*
X118925340Y-112521740D01*
X119875300Y-112521740D01*
X120110617Y-112477462D01*
X120222833Y-112405253D01*
X120352065Y-112468568D01*
X120523000Y-112342034D01*
X120523000Y-111252000D01*
X120522740Y-111252000D01*
X120522740Y-110998000D01*
X120523000Y-110998000D01*
X120523000Y-109907966D01*
X120777000Y-109907966D01*
X120777000Y-110998000D01*
X120789700Y-110998000D01*
X120789700Y-111252000D01*
X120777000Y-111252000D01*
X120777000Y-112342034D01*
X120947935Y-112468568D01*
X121266344Y-112312569D01*
X121474909Y-112451928D01*
X121899680Y-112536420D01*
X122324451Y-112451928D01*
X122684554Y-112211314D01*
X122925168Y-111851211D01*
X123009660Y-111426440D01*
X123009660Y-110823560D01*
X122925168Y-110398789D01*
X122684554Y-110038686D01*
X122324451Y-109798072D01*
X121899680Y-109713580D01*
X121474909Y-109798072D01*
X121266344Y-109937431D01*
X120947935Y-109781432D01*
X120777000Y-109907966D01*
X120523000Y-109907966D01*
X120352065Y-109781432D01*
X120222942Y-109844694D01*
X120127190Y-109779269D01*
X119875300Y-109728260D01*
X118925340Y-109728260D01*
X118690023Y-109772538D01*
X118473899Y-109911610D01*
X118328909Y-110123810D01*
X118277900Y-110375700D01*
X94183200Y-110375700D01*
X94183200Y-109909960D01*
X94184300Y-109908862D01*
X94335428Y-109544907D01*
X94335772Y-109150822D01*
X94185279Y-108786603D01*
X94053085Y-108654178D01*
X98831228Y-108654178D01*
X98981721Y-109018397D01*
X99260138Y-109297300D01*
X99624093Y-109448428D01*
X100018178Y-109448772D01*
X100382397Y-109298279D01*
X100384480Y-109296200D01*
X102235000Y-109296200D01*
X102555766Y-109232396D01*
X102827697Y-109050697D01*
X105731623Y-106146771D01*
X105733178Y-106146772D01*
X106097397Y-105996279D01*
X106376300Y-105717862D01*
X106527428Y-105353907D01*
X106527772Y-104959822D01*
X106377279Y-104595603D01*
X106098862Y-104316700D01*
X105734907Y-104165572D01*
X105340822Y-104165228D01*
X104976603Y-104315721D01*
X104697700Y-104594138D01*
X104546572Y-104958093D01*
X104546569Y-104961037D01*
X101887806Y-107619800D01*
X100384960Y-107619800D01*
X100383862Y-107618700D01*
X100019907Y-107467572D01*
X99625822Y-107467228D01*
X99261603Y-107617721D01*
X98982700Y-107896138D01*
X98831572Y-108260093D01*
X98831228Y-108654178D01*
X94053085Y-108654178D01*
X93906862Y-108507700D01*
X93542907Y-108356572D01*
X93148822Y-108356228D01*
X92784603Y-108506721D01*
X92505700Y-108785138D01*
X92354572Y-109149093D01*
X92354228Y-109543178D01*
X92504721Y-109907397D01*
X92506800Y-109909480D01*
X92506800Y-112602605D01*
X92276603Y-112697721D01*
X91997700Y-112976138D01*
X91846572Y-113340093D01*
X91846228Y-113734178D01*
X59809815Y-113734178D01*
X59797062Y-113718721D01*
X59745947Y-113676994D01*
X59704174Y-113625910D01*
X59382263Y-113360774D01*
X59323975Y-113329487D01*
X59273081Y-113287236D01*
X58903768Y-113087146D01*
X58839179Y-113067154D01*
X58779715Y-113034971D01*
X58371264Y-112908741D01*
X58303030Y-112901661D01*
X58237420Y-112881625D01*
X57798101Y-112837528D01*
X57763642Y-112840857D01*
X57729687Y-112834103D01*
X52949389Y-112834103D01*
X52949389Y-96855000D01*
X53978560Y-96855000D01*
X53978560Y-98755000D01*
X54022838Y-98990317D01*
X54161910Y-99206441D01*
X54374110Y-99351431D01*
X54377192Y-99352055D01*
X54283086Y-99445997D01*
X54041276Y-100028341D01*
X54040725Y-100658893D01*
X54281519Y-101241657D01*
X54726997Y-101687914D01*
X55309341Y-101929724D01*
X55939893Y-101930275D01*
X56195001Y-101824866D01*
X56195001Y-102157205D01*
X55033303Y-103318903D01*
X54851604Y-103590834D01*
X54835746Y-103670560D01*
X54626000Y-103670560D01*
X54390683Y-103714838D01*
X54174559Y-103853910D01*
X54029569Y-104066110D01*
X53978560Y-104318000D01*
X53978560Y-106218000D01*
X54022838Y-106453317D01*
X54161910Y-106669441D01*
X54374110Y-106814431D01*
X54377192Y-106815055D01*
X54283086Y-106908997D01*
X54041276Y-107491341D01*
X54040725Y-108121893D01*
X54281519Y-108704657D01*
X54726997Y-109150914D01*
X55309341Y-109392724D01*
X55939893Y-109393275D01*
X56359249Y-109220000D01*
X64906009Y-109220000D01*
X64996212Y-109673480D01*
X65117499Y-109855000D01*
X64996212Y-110036520D01*
X64906009Y-110490000D01*
X64996212Y-110943480D01*
X65117499Y-111125000D01*
X64996212Y-111306520D01*
X64906009Y-111760000D01*
X64996212Y-112213480D01*
X65253087Y-112597922D01*
X65637529Y-112854797D01*
X66091009Y-112945000D01*
X67258991Y-112945000D01*
X67712471Y-112854797D01*
X68096913Y-112597922D01*
X68353788Y-112213480D01*
X68443991Y-111760000D01*
X68353788Y-111306520D01*
X68232501Y-111125000D01*
X68353788Y-110943480D01*
X68443991Y-110490000D01*
X68353788Y-110036520D01*
X68232501Y-109855000D01*
X68353788Y-109673480D01*
X68443991Y-109220000D01*
X72526009Y-109220000D01*
X72616212Y-109673480D01*
X72737499Y-109855000D01*
X72616212Y-110036520D01*
X72526009Y-110490000D01*
X72616212Y-110943480D01*
X72737499Y-111125000D01*
X72616212Y-111306520D01*
X72526009Y-111760000D01*
X72616212Y-112213480D01*
X72873087Y-112597922D01*
X73257529Y-112854797D01*
X73711009Y-112945000D01*
X74878991Y-112945000D01*
X75332471Y-112854797D01*
X75716497Y-112598200D01*
X75801400Y-112598200D01*
X76122166Y-112534396D01*
X76394097Y-112352697D01*
X78697697Y-110049097D01*
X78879396Y-109777166D01*
X78943200Y-109456400D01*
X78943200Y-105277197D01*
X79100458Y-105120213D01*
X79844392Y-105120213D01*
X79913857Y-105362397D01*
X80437302Y-105549144D01*
X80992368Y-105521362D01*
X81376143Y-105362397D01*
X81445608Y-105120213D01*
X82384392Y-105120213D01*
X82453857Y-105362397D01*
X82977302Y-105549144D01*
X83532368Y-105521362D01*
X83916143Y-105362397D01*
X83985608Y-105120213D01*
X83185000Y-104319605D01*
X82384392Y-105120213D01*
X81445608Y-105120213D01*
X80645000Y-104319605D01*
X79844392Y-105120213D01*
X79100458Y-105120213D01*
X79288629Y-104932370D01*
X79368395Y-104740273D01*
X79422603Y-104871143D01*
X79664787Y-104940608D01*
X80465395Y-104140000D01*
X80824605Y-104140000D01*
X81625213Y-104940608D01*
X81867397Y-104871143D01*
X81911453Y-104747656D01*
X81962603Y-104871143D01*
X82204787Y-104940608D01*
X83005395Y-104140000D01*
X83364605Y-104140000D01*
X84165213Y-104940608D01*
X84407397Y-104871143D01*
X84594144Y-104347698D01*
X84566362Y-103792632D01*
X84407397Y-103408857D01*
X84165213Y-103339392D01*
X83364605Y-104140000D01*
X83005395Y-104140000D01*
X82204787Y-103339392D01*
X81962603Y-103408857D01*
X81918547Y-103532344D01*
X81867397Y-103408857D01*
X81625213Y-103339392D01*
X80824605Y-104140000D01*
X80465395Y-104140000D01*
X79664787Y-103339392D01*
X79422603Y-103408857D01*
X79372491Y-103549318D01*
X79290010Y-103349697D01*
X79100432Y-103159787D01*
X79844392Y-103159787D01*
X80645000Y-103960395D01*
X81445608Y-103159787D01*
X82384392Y-103159787D01*
X83185000Y-103960395D01*
X83985608Y-103159787D01*
X83916143Y-102917603D01*
X83392698Y-102730856D01*
X82837632Y-102758638D01*
X82453857Y-102917603D01*
X82384392Y-103159787D01*
X81445608Y-103159787D01*
X81376143Y-102917603D01*
X80852698Y-102730856D01*
X80297632Y-102758638D01*
X79913857Y-102917603D01*
X79844392Y-103159787D01*
X79100432Y-103159787D01*
X78897370Y-102956371D01*
X78384100Y-102743243D01*
X77828339Y-102742758D01*
X77314697Y-102954990D01*
X76921371Y-103347630D01*
X76708243Y-103860900D01*
X76707758Y-104416661D01*
X76919990Y-104930303D01*
X77266800Y-105277719D01*
X77266800Y-109109206D01*
X76034461Y-110341545D01*
X75973788Y-110036520D01*
X75852501Y-109855000D01*
X75973788Y-109673480D01*
X76063991Y-109220000D01*
X75973788Y-108766520D01*
X75716913Y-108382078D01*
X75332471Y-108125203D01*
X74878991Y-108035000D01*
X73711009Y-108035000D01*
X73257529Y-108125203D01*
X72873087Y-108382078D01*
X72616212Y-108766520D01*
X72526009Y-109220000D01*
X68443991Y-109220000D01*
X68353788Y-108766520D01*
X68096913Y-108382078D01*
X67712471Y-108125203D01*
X67258991Y-108035000D01*
X66091009Y-108035000D01*
X65637529Y-108125203D01*
X65253087Y-108382078D01*
X64996212Y-108766520D01*
X64906009Y-109220000D01*
X56359249Y-109220000D01*
X56522657Y-109152481D01*
X56968914Y-108707003D01*
X57210724Y-108124659D01*
X57211275Y-107494107D01*
X56970481Y-106911343D01*
X56872971Y-106813663D01*
X57077441Y-106682090D01*
X57222431Y-106469890D01*
X57273440Y-106218000D01*
X57273440Y-104318000D01*
X57229162Y-104082683D01*
X57090090Y-103866559D01*
X56951280Y-103771714D01*
X57625898Y-103097096D01*
X57807597Y-102825164D01*
X57871401Y-102504399D01*
X57871401Y-99162201D01*
X57840508Y-99006890D01*
X57839571Y-99002178D01*
X118643228Y-99002178D01*
X118793721Y-99366397D01*
X119072138Y-99645300D01*
X119436093Y-99796428D01*
X119439037Y-99796431D01*
X119676303Y-100033697D01*
X119948235Y-100215396D01*
X120269000Y-100279200D01*
X132511800Y-100279200D01*
X132511800Y-101447816D01*
X132425345Y-101483538D01*
X132079801Y-101828480D01*
X131737073Y-101485154D01*
X131136547Y-101235794D01*
X130486306Y-101235226D01*
X129885345Y-101483538D01*
X129425154Y-101942927D01*
X129175794Y-102543453D01*
X129175226Y-103193694D01*
X129423538Y-103794655D01*
X129882927Y-104254846D01*
X130483453Y-104504206D01*
X131133694Y-104504774D01*
X131734655Y-104256462D01*
X132080199Y-103911520D01*
X132422927Y-104254846D01*
X132511800Y-104291749D01*
X132511800Y-107797816D01*
X132425345Y-107833538D01*
X132079801Y-108178480D01*
X131737073Y-107835154D01*
X131136547Y-107585794D01*
X130486306Y-107585226D01*
X129885345Y-107833538D01*
X129425154Y-108292927D01*
X129175794Y-108893453D01*
X129175226Y-109543694D01*
X129423538Y-110144655D01*
X129882927Y-110604846D01*
X130483453Y-110854206D01*
X131133694Y-110854774D01*
X131734655Y-110606462D01*
X132080199Y-110261520D01*
X132422927Y-110604846D01*
X133023453Y-110854206D01*
X133673694Y-110854774D01*
X134274655Y-110606462D01*
X134734846Y-110147073D01*
X134984206Y-109546547D01*
X134984774Y-108896306D01*
X134736462Y-108295345D01*
X134277073Y-107835154D01*
X134188200Y-107798251D01*
X134188200Y-104292184D01*
X134274655Y-104256462D01*
X134734846Y-103797073D01*
X134984206Y-103196547D01*
X134984774Y-102546306D01*
X134736462Y-101945345D01*
X134277073Y-101485154D01*
X134188200Y-101448251D01*
X134188200Y-97942184D01*
X134274655Y-97906462D01*
X134734846Y-97447073D01*
X134984206Y-96846547D01*
X134984774Y-96196306D01*
X134736462Y-95595345D01*
X134277073Y-95135154D01*
X133676547Y-94885794D01*
X133026306Y-94885226D01*
X132425345Y-95133538D01*
X132079801Y-95478480D01*
X131737073Y-95135154D01*
X131136547Y-94885794D01*
X130486306Y-94885226D01*
X129885345Y-95133538D01*
X129425154Y-95592927D01*
X129175794Y-96193453D01*
X129175226Y-96843694D01*
X129423538Y-97444655D01*
X129882927Y-97904846D01*
X130483453Y-98154206D01*
X131133694Y-98154774D01*
X131734655Y-97906462D01*
X132080199Y-97561520D01*
X132422927Y-97904846D01*
X132511800Y-97941749D01*
X132511800Y-98602800D01*
X120621871Y-98602800D01*
X120474279Y-98245603D01*
X120195862Y-97966700D01*
X119831907Y-97815572D01*
X119437822Y-97815228D01*
X119073603Y-97965721D01*
X118794700Y-98244138D01*
X118643572Y-98608093D01*
X118643228Y-99002178D01*
X57839571Y-99002178D01*
X57807597Y-98841435D01*
X57625898Y-98569504D01*
X57273440Y-98217046D01*
X57273440Y-96855000D01*
X57229162Y-96619683D01*
X57090090Y-96403559D01*
X56877890Y-96258569D01*
X56626000Y-96207560D01*
X54626000Y-96207560D01*
X54390683Y-96251838D01*
X54174559Y-96390910D01*
X54029569Y-96603110D01*
X53978560Y-96855000D01*
X52949389Y-96855000D01*
X52949389Y-92793249D01*
X57729687Y-92793249D01*
X57763642Y-92786495D01*
X57798101Y-92789824D01*
X58237420Y-92745727D01*
X58303028Y-92725691D01*
X58371262Y-92718612D01*
X58779713Y-92592383D01*
X58839178Y-92560199D01*
X58903768Y-92540207D01*
X59273081Y-92340117D01*
X59323709Y-92298088D01*
X59381722Y-92267024D01*
X59703633Y-92002440D01*
X59745858Y-91950910D01*
X59797430Y-91908738D01*
X60062563Y-91586827D01*
X60094033Y-91528198D01*
X60136474Y-91476955D01*
X60336015Y-91107642D01*
X60355696Y-91043797D01*
X60387565Y-90985086D01*
X60514345Y-90576635D01*
X60521596Y-90507576D01*
X60540116Y-90446661D01*
X87502758Y-90446661D01*
X87714990Y-90960303D01*
X88061800Y-91307719D01*
X88061800Y-95885000D01*
X88125604Y-96205766D01*
X88307303Y-96477697D01*
X88544229Y-96714623D01*
X88544228Y-96716178D01*
X88694721Y-97080397D01*
X88973138Y-97359300D01*
X89337093Y-97510428D01*
X89731178Y-97510772D01*
X90095397Y-97360279D01*
X90374300Y-97081862D01*
X90525428Y-96717907D01*
X90525772Y-96323822D01*
X90375279Y-95959603D01*
X90096862Y-95680700D01*
X89738200Y-95531770D01*
X89738200Y-91307197D01*
X90083629Y-90962370D01*
X90169949Y-90754488D01*
X90254990Y-90960303D01*
X90647630Y-91353629D01*
X91160900Y-91566757D01*
X91716661Y-91567242D01*
X92230303Y-91355010D01*
X92623629Y-90962370D01*
X92709949Y-90754488D01*
X92794990Y-90960303D01*
X93187630Y-91353629D01*
X93700900Y-91566757D01*
X94256661Y-91567242D01*
X94770303Y-91355010D01*
X95163629Y-90962370D01*
X95376757Y-90449100D01*
X95376759Y-90446661D01*
X98297758Y-90446661D01*
X98509990Y-90960303D01*
X98856800Y-91307719D01*
X98856800Y-92583000D01*
X98920604Y-92903766D01*
X99102303Y-93175697D01*
X102514229Y-96587623D01*
X102514228Y-96589178D01*
X102664721Y-96953397D01*
X102943138Y-97232300D01*
X103307093Y-97383428D01*
X103701178Y-97383772D01*
X104065397Y-97233279D01*
X104344300Y-96954862D01*
X104495428Y-96590907D01*
X104495772Y-96196822D01*
X104345279Y-95832603D01*
X104066862Y-95553700D01*
X103702907Y-95402572D01*
X103699963Y-95402569D01*
X100533200Y-92235806D01*
X100533200Y-91307197D01*
X100878629Y-90962370D01*
X100964949Y-90754488D01*
X101049990Y-90960303D01*
X101442630Y-91353629D01*
X101955900Y-91566757D01*
X102511661Y-91567242D01*
X103025303Y-91355010D01*
X103418629Y-90962370D01*
X103504949Y-90754488D01*
X103589990Y-90960303D01*
X103982630Y-91353629D01*
X104495900Y-91566757D01*
X105051661Y-91567242D01*
X105565303Y-91355010D01*
X105958629Y-90962370D01*
X106171757Y-90449100D01*
X106172242Y-89893339D01*
X105960010Y-89379697D01*
X105567370Y-88986371D01*
X105054100Y-88773243D01*
X104498339Y-88772758D01*
X103984697Y-88984990D01*
X103591371Y-89377630D01*
X103505051Y-89585512D01*
X103420010Y-89379697D01*
X103027370Y-88986371D01*
X102514100Y-88773243D01*
X101958339Y-88772758D01*
X101444697Y-88984990D01*
X101051371Y-89377630D01*
X100965051Y-89585512D01*
X100880010Y-89379697D01*
X100487370Y-88986371D01*
X99974100Y-88773243D01*
X99418339Y-88772758D01*
X98904697Y-88984990D01*
X98511371Y-89377630D01*
X98298243Y-89890900D01*
X98297758Y-90446661D01*
X95376759Y-90446661D01*
X95377242Y-89893339D01*
X95165010Y-89379697D01*
X94772370Y-88986371D01*
X94259100Y-88773243D01*
X93703339Y-88772758D01*
X93189697Y-88984990D01*
X92796371Y-89377630D01*
X92710051Y-89585512D01*
X92625010Y-89379697D01*
X92232370Y-88986371D01*
X91719100Y-88773243D01*
X91163339Y-88772758D01*
X90649697Y-88984990D01*
X90256371Y-89377630D01*
X90170051Y-89585512D01*
X90085010Y-89379697D01*
X89692370Y-88986371D01*
X89179100Y-88773243D01*
X88623339Y-88772758D01*
X88109697Y-88984990D01*
X87716371Y-89377630D01*
X87503243Y-89890900D01*
X87502758Y-90446661D01*
X60540116Y-90446661D01*
X60541794Y-90441142D01*
X60585341Y-90001824D01*
X60582011Y-89967793D01*
X60588682Y-89934255D01*
X60588682Y-87798067D01*
X77726602Y-87798067D01*
X77733210Y-87866785D01*
X77726602Y-87935503D01*
X77751692Y-88184345D01*
X77771838Y-88250208D01*
X77779032Y-88318707D01*
X77850979Y-88550477D01*
X77883157Y-88609753D01*
X77903150Y-88674171D01*
X78016990Y-88883904D01*
X78059303Y-88934793D01*
X78090652Y-88993075D01*
X78241423Y-89175811D01*
X78292307Y-89217347D01*
X78333846Y-89268235D01*
X78516582Y-89419006D01*
X78574868Y-89450357D01*
X78625757Y-89492670D01*
X78835491Y-89606511D01*
X78899908Y-89626503D01*
X78959182Y-89658681D01*
X79190951Y-89730628D01*
X79259451Y-89737822D01*
X79325317Y-89757969D01*
X79574159Y-89783058D01*
X79642874Y-89776450D01*
X79711590Y-89783058D01*
X79960431Y-89757969D01*
X80026297Y-89737822D01*
X80094797Y-89730628D01*
X80326565Y-89658681D01*
X80385841Y-89626502D01*
X80450257Y-89606510D01*
X80659992Y-89492670D01*
X80710880Y-89450358D01*
X80769166Y-89419007D01*
X80951901Y-89268235D01*
X80993439Y-89217350D01*
X81044325Y-89175811D01*
X81195096Y-88993075D01*
X81226445Y-88934794D01*
X81268758Y-88883904D01*
X81382598Y-88674170D01*
X81402591Y-88609753D01*
X81434769Y-88550477D01*
X81506716Y-88318707D01*
X81513910Y-88250207D01*
X81534056Y-88184344D01*
X81559146Y-87935503D01*
X81552538Y-87866785D01*
X81559146Y-87798067D01*
X109249822Y-87798067D01*
X109256430Y-87866785D01*
X109249822Y-87935503D01*
X109274912Y-88184345D01*
X109295058Y-88250208D01*
X109302252Y-88318707D01*
X109374199Y-88550477D01*
X109406377Y-88609753D01*
X109426370Y-88674171D01*
X109540210Y-88883904D01*
X109582523Y-88934793D01*
X109613872Y-88993075D01*
X109764643Y-89175811D01*
X109815530Y-89217349D01*
X109857068Y-89268236D01*
X110039805Y-89419008D01*
X110098087Y-89450357D01*
X110148976Y-89492670D01*
X110358710Y-89606510D01*
X110423126Y-89626502D01*
X110482402Y-89658681D01*
X110714171Y-89730628D01*
X110782671Y-89737822D01*
X110848537Y-89757969D01*
X111097379Y-89783058D01*
X111166094Y-89776450D01*
X111234810Y-89783058D01*
X111483651Y-89757969D01*
X111549518Y-89737822D01*
X111618016Y-89730628D01*
X111849786Y-89658681D01*
X111909062Y-89626503D01*
X111973480Y-89606510D01*
X112183213Y-89492670D01*
X112234102Y-89450357D01*
X112292386Y-89419007D01*
X112475121Y-89268235D01*
X112516657Y-89217352D01*
X112567544Y-89175813D01*
X112718315Y-88993077D01*
X112749664Y-88934795D01*
X112791979Y-88883904D01*
X112905819Y-88674170D01*
X112925812Y-88609753D01*
X112957990Y-88550477D01*
X113029937Y-88318707D01*
X113037131Y-88250209D01*
X113057278Y-88184342D01*
X113082367Y-87935500D01*
X113075759Y-87866785D01*
X113082367Y-87798070D01*
X113057278Y-87549228D01*
X113037131Y-87483362D01*
X113029937Y-87414862D01*
X112957990Y-87183093D01*
X112925812Y-87123819D01*
X112905820Y-87059402D01*
X112791979Y-86849668D01*
X112749666Y-86798779D01*
X112718315Y-86740493D01*
X112567544Y-86557757D01*
X112516656Y-86516218D01*
X112475120Y-86465334D01*
X112292384Y-86314563D01*
X112234102Y-86283214D01*
X112183213Y-86240901D01*
X111973480Y-86127061D01*
X111909062Y-86107068D01*
X111849786Y-86074890D01*
X111618016Y-86002943D01*
X111549517Y-85995749D01*
X111483654Y-85975603D01*
X111234812Y-85950513D01*
X111166094Y-85957121D01*
X111097376Y-85950513D01*
X110848535Y-85975603D01*
X110782673Y-85995749D01*
X110714171Y-86002943D01*
X110482402Y-86074890D01*
X110423126Y-86107069D01*
X110358710Y-86127061D01*
X110148976Y-86240901D01*
X110098089Y-86283213D01*
X110039807Y-86314561D01*
X109857069Y-86465333D01*
X109815529Y-86516221D01*
X109764643Y-86557759D01*
X109613872Y-86740495D01*
X109582522Y-86798779D01*
X109540210Y-86849667D01*
X109426370Y-87059402D01*
X109406378Y-87123818D01*
X109374199Y-87183094D01*
X109302252Y-87414862D01*
X109295058Y-87483363D01*
X109274912Y-87549225D01*
X109249822Y-87798067D01*
X81559146Y-87798067D01*
X81534056Y-87549226D01*
X81513910Y-87483364D01*
X81506716Y-87414862D01*
X81434769Y-87183093D01*
X81402591Y-87123819D01*
X81382599Y-87059402D01*
X81268758Y-86849668D01*
X81226447Y-86798781D01*
X81195096Y-86740495D01*
X81044325Y-86557759D01*
X80993438Y-86516220D01*
X80951900Y-86465334D01*
X80769164Y-86314563D01*
X80710880Y-86283213D01*
X80659992Y-86240901D01*
X80450257Y-86127061D01*
X80385841Y-86107069D01*
X80326565Y-86074890D01*
X80094797Y-86002943D01*
X80026296Y-85995749D01*
X79960434Y-85975603D01*
X79711592Y-85950513D01*
X79642874Y-85957121D01*
X79574156Y-85950513D01*
X79325315Y-85975603D01*
X79259453Y-85995749D01*
X79190951Y-86002943D01*
X78959182Y-86074890D01*
X78899908Y-86107068D01*
X78835491Y-86127060D01*
X78625757Y-86240901D01*
X78574870Y-86283212D01*
X78516584Y-86314563D01*
X78333848Y-86465334D01*
X78292309Y-86516221D01*
X78241423Y-86557759D01*
X78090652Y-86740495D01*
X78059302Y-86798779D01*
X78016990Y-86849667D01*
X77903150Y-87059402D01*
X77883158Y-87123818D01*
X77850979Y-87183094D01*
X77779032Y-87414862D01*
X77771838Y-87483363D01*
X77751692Y-87549225D01*
X77726602Y-87798067D01*
X60588682Y-87798067D01*
X60588682Y-85064659D01*
X68840142Y-85064659D01*
X68840142Y-85942907D01*
X68840142Y-85942907D01*
G37*
X68840142Y-85942907D02*
X68892285Y-86205045D01*
X69040774Y-86427275D01*
X69263004Y-86575764D01*
X69525142Y-86627907D01*
X72055773Y-86627907D01*
X72317911Y-86575764D01*
X72501155Y-86453325D01*
X72684399Y-86575764D01*
X72946537Y-86627907D01*
X75476614Y-86627907D01*
X75738752Y-86575764D01*
X75960982Y-86427275D01*
X76109471Y-86205045D01*
X76161614Y-85942907D01*
X76161614Y-85064659D01*
X114597074Y-85064659D01*
X114597074Y-85942907D01*
X114649217Y-86205045D01*
X114797706Y-86427275D01*
X115019936Y-86575764D01*
X115282074Y-86627907D01*
X117812154Y-86627907D01*
X118074292Y-86575764D01*
X118257536Y-86453325D01*
X118440780Y-86575764D01*
X118702918Y-86627907D01*
X121232995Y-86627907D01*
X121495133Y-86575764D01*
X121717363Y-86427275D01*
X121865852Y-86205045D01*
X121917995Y-85942907D01*
X121917995Y-85064659D01*
X130241115Y-85064659D01*
X130241115Y-89934255D01*
X130247869Y-89968210D01*
X130244540Y-90002669D01*
X130288637Y-90441987D01*
X130308673Y-90507595D01*
X130315752Y-90575829D01*
X130441981Y-90984281D01*
X130474165Y-91043746D01*
X130494157Y-91108336D01*
X130694247Y-91477649D01*
X130736499Y-91528545D01*
X130767786Y-91586831D01*
X131032923Y-91908741D01*
X131084271Y-91950729D01*
X131126271Y-92002073D01*
X131447629Y-92266657D01*
X131505866Y-92297904D01*
X131556715Y-92340117D01*
X131926027Y-92540207D01*
X131990744Y-92560238D01*
X132050331Y-92592459D01*
X132459334Y-92718688D01*
X132527395Y-92725723D01*
X132592842Y-92745719D01*
X133031610Y-92789815D01*
X133066111Y-92786486D01*
X133100109Y-92793249D01*
X137758039Y-92793249D01*
X137758039Y-97215258D01*
X137810182Y-97477396D01*
X137958671Y-97699626D01*
X138180901Y-97848115D01*
X138303000Y-97872402D01*
X138303000Y-99833677D01*
X137982336Y-99966173D01*
X137691275Y-100256726D01*
X137533560Y-100636546D01*
X137533201Y-101047809D01*
X137690253Y-101427904D01*
X137980806Y-101718965D01*
X138303000Y-101852752D01*
X138303000Y-103632027D01*
X137984876Y-103763473D01*
X137693815Y-104054026D01*
X137536100Y-104433846D01*
X137535741Y-104845109D01*
X137692793Y-105225204D01*
X137983346Y-105516265D01*
X138303000Y-105648997D01*
X138303000Y-107676679D01*
X138180901Y-107700966D01*
X137958671Y-107849455D01*
X137810182Y-108071685D01*
X137758039Y-108333823D01*
X137758039Y-112834103D01*
X133100109Y-112834103D01*
X133066111Y-112840866D01*
X133031610Y-112837537D01*
X132592842Y-112881633D01*
X132527396Y-112901628D01*
X132459332Y-112908664D01*
X132050330Y-113034894D01*
X131990742Y-113067116D01*
X131926027Y-113087146D01*
X131556715Y-113287236D01*
X131505598Y-113329672D01*
X131447088Y-113361142D01*
X131125730Y-113626278D01*
X131084185Y-113677172D01*
X131033291Y-113718717D01*
X130768154Y-114040075D01*
X130736683Y-114098585D01*
X130694247Y-114149703D01*
X130494157Y-114519016D01*
X130474165Y-114583606D01*
X130441981Y-114643071D01*
X130315752Y-115051523D01*
X130308673Y-115119757D01*
X130288637Y-115185365D01*
X130244540Y-115624684D01*
X130247869Y-115659143D01*
X130241115Y-115693098D01*
X130241115Y-120484422D01*
X121917995Y-120484422D01*
X121917995Y-119547745D01*
X121865852Y-119285607D01*
X121717363Y-119063377D01*
X121495133Y-118914888D01*
X121232995Y-118862745D01*
X118702918Y-118862745D01*
X118440780Y-118914888D01*
X118257536Y-119037327D01*
X118074292Y-118914888D01*
X117812154Y-118862745D01*
X115282074Y-118862745D01*
X115019936Y-118914888D01*
X114797706Y-119063377D01*
X114649217Y-119285607D01*
X114597074Y-119547745D01*
X114597074Y-120484422D01*
X76161614Y-120484422D01*
X76161614Y-119547745D01*
X76109471Y-119285607D01*
X75960982Y-119063377D01*
X75738752Y-118914888D01*
X75476614Y-118862745D01*
X72946537Y-118862745D01*
X72684399Y-118914888D01*
X72501155Y-119037327D01*
X72317911Y-118914888D01*
X72055773Y-118862745D01*
X69525142Y-118862745D01*
X69263004Y-118914888D01*
X69040774Y-119063377D01*
X68892285Y-119285607D01*
X68840142Y-119547745D01*
X68840142Y-120484422D01*
X60588682Y-120484422D01*
X60588682Y-117660980D01*
X77726602Y-117660980D01*
X77733210Y-117729698D01*
X77726602Y-117798416D01*
X77751692Y-118047258D01*
X77771838Y-118113120D01*
X77779032Y-118181621D01*
X77850979Y-118413389D01*
X77883158Y-118472665D01*
X77903150Y-118537081D01*
X78016990Y-118746816D01*
X78059302Y-118797704D01*
X78090652Y-118855988D01*
X78241423Y-119038724D01*
X78292309Y-119080262D01*
X78333848Y-119131149D01*
X78516584Y-119281920D01*
X78574870Y-119313271D01*
X78625757Y-119355582D01*
X78835491Y-119469423D01*
X78899908Y-119489415D01*
X78959182Y-119521593D01*
X79190951Y-119593540D01*
X79259453Y-119600734D01*
X79325315Y-119620880D01*
X79574156Y-119645970D01*
X79642874Y-119639362D01*
X79711592Y-119645970D01*
X79960434Y-119620880D01*
X80026296Y-119600734D01*
X80094797Y-119593540D01*
X80326565Y-119521593D01*
X80385841Y-119489414D01*
X80450257Y-119469422D01*
X80659992Y-119355582D01*
X80710880Y-119313270D01*
X80769164Y-119281920D01*
X80951900Y-119131149D01*
X80993438Y-119080263D01*
X81044325Y-119038724D01*
X81195096Y-118855988D01*
X81226447Y-118797702D01*
X81268758Y-118746815D01*
X81382599Y-118537081D01*
X81402591Y-118472664D01*
X81434769Y-118413390D01*
X81506716Y-118181621D01*
X81513910Y-118113119D01*
X81534056Y-118047257D01*
X81559146Y-117798416D01*
X81552538Y-117729698D01*
X81559146Y-117660980D01*
X109249822Y-117660980D01*
X109256430Y-117729698D01*
X109249822Y-117798416D01*
X109274912Y-118047258D01*
X109295058Y-118113120D01*
X109302252Y-118181621D01*
X109374199Y-118413389D01*
X109406378Y-118472665D01*
X109426370Y-118537081D01*
X109540210Y-118746816D01*
X109582522Y-118797704D01*
X109613872Y-118855988D01*
X109764643Y-119038724D01*
X109815529Y-119080262D01*
X109857069Y-119131150D01*
X110039807Y-119281922D01*
X110098089Y-119313270D01*
X110148976Y-119355582D01*
X110358710Y-119469422D01*
X110423126Y-119489414D01*
X110482402Y-119521593D01*
X110714171Y-119593540D01*
X110782673Y-119600734D01*
X110848535Y-119620880D01*
X111097376Y-119645970D01*
X111166094Y-119639362D01*
X111234812Y-119645970D01*
X111483654Y-119620880D01*
X111549517Y-119600734D01*
X111618016Y-119593540D01*
X111849786Y-119521593D01*
X111909062Y-119489415D01*
X111973480Y-119469422D01*
X112183213Y-119355582D01*
X112234102Y-119313269D01*
X112292384Y-119281920D01*
X112475120Y-119131149D01*
X112516656Y-119080265D01*
X112567544Y-119038726D01*
X112718315Y-118855990D01*
X112749666Y-118797704D01*
X112791979Y-118746815D01*
X112905820Y-118537081D01*
X112925812Y-118472664D01*
X112957990Y-118413390D01*
X113029937Y-118181621D01*
X113037131Y-118113121D01*
X113057278Y-118047255D01*
X113082367Y-117798413D01*
X113075759Y-117729698D01*
X113082367Y-117660983D01*
X113057278Y-117412141D01*
X113037131Y-117346275D01*
X113029937Y-117277775D01*
X112957990Y-117046006D01*
X112925812Y-116986732D01*
X112905820Y-116922315D01*
X112791979Y-116712581D01*
X112749666Y-116661692D01*
X112718315Y-116603406D01*
X112567544Y-116420670D01*
X112516657Y-116379131D01*
X112475121Y-116328248D01*
X112292386Y-116177476D01*
X112234102Y-116146126D01*
X112183213Y-116103813D01*
X111973480Y-115989973D01*
X111909061Y-115969980D01*
X111849783Y-115937801D01*
X111618013Y-115865855D01*
X111549515Y-115858661D01*
X111483654Y-115838516D01*
X111430861Y-115833193D01*
X117983000Y-115833193D01*
X117983000Y-116576807D01*
X118089340Y-117111416D01*
X118392172Y-117564635D01*
X118845391Y-117867467D01*
X119380000Y-117973807D01*
X119914609Y-117867467D01*
X120367828Y-117564635D01*
X120517343Y-117340870D01*
X120554838Y-117540137D01*
X120693910Y-117756261D01*
X120906110Y-117901251D01*
X121158000Y-117952260D01*
X122682000Y-117952260D01*
X122917317Y-117907982D01*
X123133441Y-117768910D01*
X123278431Y-117556710D01*
X123329440Y-117304820D01*
X123329440Y-115105180D01*
X123285162Y-114869863D01*
X123146090Y-114653739D01*
X122933890Y-114508749D01*
X122682000Y-114457740D01*
X121158000Y-114457740D01*
X120922683Y-114502018D01*
X120706559Y-114641090D01*
X120561569Y-114853290D01*
X120517740Y-115069724D01*
X120367828Y-114845365D01*
X119914609Y-114542533D01*
X119380000Y-114436193D01*
X118845391Y-114542533D01*
X118392172Y-114845365D01*
X118089340Y-115298584D01*
X117983000Y-115833193D01*
X111430861Y-115833193D01*
X111234812Y-115813426D01*
X111166094Y-115820034D01*
X111097376Y-115813426D01*
X110848535Y-115838516D01*
X110782675Y-115858661D01*
X110714174Y-115865855D01*
X110482405Y-115937801D01*
X110423127Y-115969980D01*
X110358710Y-115989973D01*
X110148976Y-116103813D01*
X110098087Y-116146126D01*
X110039805Y-116177475D01*
X109857068Y-116328247D01*
X109815530Y-116379134D01*
X109764643Y-116420672D01*
X109613872Y-116603408D01*
X109582522Y-116661692D01*
X109540210Y-116712580D01*
X109426370Y-116922315D01*
X109406378Y-116986731D01*
X109374199Y-117046007D01*
X109302252Y-117277775D01*
X109295058Y-117346276D01*
X109274912Y-117412138D01*
X109249822Y-117660980D01*
X81559146Y-117660980D01*
X81534056Y-117412139D01*
X81513910Y-117346277D01*
X81506716Y-117277775D01*
X81434769Y-117046006D01*
X81402591Y-116986732D01*
X81382599Y-116922315D01*
X81268758Y-116712581D01*
X81226447Y-116661694D01*
X81195096Y-116603408D01*
X81044325Y-116420672D01*
X80993439Y-116379133D01*
X80951901Y-116328248D01*
X80769166Y-116177476D01*
X80710880Y-116146125D01*
X80659992Y-116103813D01*
X80450257Y-115989973D01*
X80385842Y-115969981D01*
X80326563Y-115937801D01*
X80094794Y-115865855D01*
X80026294Y-115858661D01*
X79960434Y-115838516D01*
X79711592Y-115813426D01*
X79642874Y-115820034D01*
X79574156Y-115813426D01*
X79325315Y-115838516D01*
X79259455Y-115858661D01*
X79190954Y-115865855D01*
X78959185Y-115937801D01*
X78899909Y-115969979D01*
X78835491Y-115989972D01*
X78625757Y-116103813D01*
X78574868Y-116146126D01*
X78516582Y-116177477D01*
X78333846Y-116328248D01*
X78292307Y-116379136D01*
X78241423Y-116420672D01*
X78090652Y-116603408D01*
X78059302Y-116661692D01*
X78016990Y-116712580D01*
X77903150Y-116922315D01*
X77883158Y-116986731D01*
X77850979Y-117046007D01*
X77779032Y-117277775D01*
X77771838Y-117346276D01*
X77751692Y-117412138D01*
X77726602Y-117660980D01*
X60588682Y-117660980D01*
X60588682Y-115693098D01*
X60582011Y-115659560D01*
X60585341Y-115625529D01*
X60541794Y-115186210D01*
X60521596Y-115119776D01*
X60514345Y-115050717D01*
X60387565Y-114642266D01*
X60355696Y-114583555D01*
X60336015Y-114519710D01*
X60136474Y-114150397D01*
X60093849Y-114098932D01*
X60062195Y-114040079D01*
X59809815Y-113734178D01*
X91846228Y-113734178D01*
X91996721Y-114098397D01*
X92275138Y-114377300D01*
X92639093Y-114528428D01*
X93033178Y-114528772D01*
X93397397Y-114378279D01*
X93676300Y-114099862D01*
X93827428Y-113735907D01*
X93827431Y-113732963D01*
X93937697Y-113622697D01*
X94019899Y-113499673D01*
X94119396Y-113350765D01*
X94183200Y-113030000D01*
X94183200Y-110375700D01*
X118277900Y-110375700D01*
X118277900Y-111874300D01*
X118322178Y-112109617D01*
X118461250Y-112325741D01*
X118673450Y-112470731D01*
X118925340Y-112521740D01*
X119875300Y-112521740D01*
X120110617Y-112477462D01*
X120222833Y-112405253D01*
X120352065Y-112468568D01*
X120523000Y-112342034D01*
X120523000Y-111252000D01*
X120522740Y-111252000D01*
X120522740Y-110998000D01*
X120523000Y-110998000D01*
X120523000Y-109907966D01*
X120777000Y-109907966D01*
X120777000Y-110998000D01*
X120789700Y-110998000D01*
X120789700Y-111252000D01*
X120777000Y-111252000D01*
X120777000Y-112342034D01*
X120947935Y-112468568D01*
X121266344Y-112312569D01*
X121474909Y-112451928D01*
X121899680Y-112536420D01*
X122324451Y-112451928D01*
X122684554Y-112211314D01*
X122925168Y-111851211D01*
X123009660Y-111426440D01*
X123009660Y-110823560D01*
X122925168Y-110398789D01*
X122684554Y-110038686D01*
X122324451Y-109798072D01*
X121899680Y-109713580D01*
X121474909Y-109798072D01*
X121266344Y-109937431D01*
X120947935Y-109781432D01*
X120777000Y-109907966D01*
X120523000Y-109907966D01*
X120352065Y-109781432D01*
X120222942Y-109844694D01*
X120127190Y-109779269D01*
X119875300Y-109728260D01*
X118925340Y-109728260D01*
X118690023Y-109772538D01*
X118473899Y-109911610D01*
X118328909Y-110123810D01*
X118277900Y-110375700D01*
X94183200Y-110375700D01*
X94183200Y-109909960D01*
X94184300Y-109908862D01*
X94335428Y-109544907D01*
X94335772Y-109150822D01*
X94185279Y-108786603D01*
X94053085Y-108654178D01*
X98831228Y-108654178D01*
X98981721Y-109018397D01*
X99260138Y-109297300D01*
X99624093Y-109448428D01*
X100018178Y-109448772D01*
X100382397Y-109298279D01*
X100384480Y-109296200D01*
X102235000Y-109296200D01*
X102555766Y-109232396D01*
X102827697Y-109050697D01*
X105731623Y-106146771D01*
X105733178Y-106146772D01*
X106097397Y-105996279D01*
X106376300Y-105717862D01*
X106527428Y-105353907D01*
X106527772Y-104959822D01*
X106377279Y-104595603D01*
X106098862Y-104316700D01*
X105734907Y-104165572D01*
X105340822Y-104165228D01*
X104976603Y-104315721D01*
X104697700Y-104594138D01*
X104546572Y-104958093D01*
X104546569Y-104961037D01*
X101887806Y-107619800D01*
X100384960Y-107619800D01*
X100383862Y-107618700D01*
X100019907Y-107467572D01*
X99625822Y-107467228D01*
X99261603Y-107617721D01*
X98982700Y-107896138D01*
X98831572Y-108260093D01*
X98831228Y-108654178D01*
X94053085Y-108654178D01*
X93906862Y-108507700D01*
X93542907Y-108356572D01*
X93148822Y-108356228D01*
X92784603Y-108506721D01*
X92505700Y-108785138D01*
X92354572Y-109149093D01*
X92354228Y-109543178D01*
X92504721Y-109907397D01*
X92506800Y-109909480D01*
X92506800Y-112602605D01*
X92276603Y-112697721D01*
X91997700Y-112976138D01*
X91846572Y-113340093D01*
X91846228Y-113734178D01*
X59809815Y-113734178D01*
X59797062Y-113718721D01*
X59745947Y-113676994D01*
X59704174Y-113625910D01*
X59382263Y-113360774D01*
X59323975Y-113329487D01*
X59273081Y-113287236D01*
X58903768Y-113087146D01*
X58839179Y-113067154D01*
X58779715Y-113034971D01*
X58371264Y-112908741D01*
X58303030Y-112901661D01*
X58237420Y-112881625D01*
X57798101Y-112837528D01*
X57763642Y-112840857D01*
X57729687Y-112834103D01*
X52949389Y-112834103D01*
X52949389Y-96855000D01*
X53978560Y-96855000D01*
X53978560Y-98755000D01*
X54022838Y-98990317D01*
X54161910Y-99206441D01*
X54374110Y-99351431D01*
X54377192Y-99352055D01*
X54283086Y-99445997D01*
X54041276Y-100028341D01*
X54040725Y-100658893D01*
X54281519Y-101241657D01*
X54726997Y-101687914D01*
X55309341Y-101929724D01*
X55939893Y-101930275D01*
X56195001Y-101824866D01*
X56195001Y-102157205D01*
X55033303Y-103318903D01*
X54851604Y-103590834D01*
X54835746Y-103670560D01*
X54626000Y-103670560D01*
X54390683Y-103714838D01*
X54174559Y-103853910D01*
X54029569Y-104066110D01*
X53978560Y-104318000D01*
X53978560Y-106218000D01*
X54022838Y-106453317D01*
X54161910Y-106669441D01*
X54374110Y-106814431D01*
X54377192Y-106815055D01*
X54283086Y-106908997D01*
X54041276Y-107491341D01*
X54040725Y-108121893D01*
X54281519Y-108704657D01*
X54726997Y-109150914D01*
X55309341Y-109392724D01*
X55939893Y-109393275D01*
X56359249Y-109220000D01*
X64906009Y-109220000D01*
X64996212Y-109673480D01*
X65117499Y-109855000D01*
X64996212Y-110036520D01*
X64906009Y-110490000D01*
X64996212Y-110943480D01*
X65117499Y-111125000D01*
X64996212Y-111306520D01*
X64906009Y-111760000D01*
X64996212Y-112213480D01*
X65253087Y-112597922D01*
X65637529Y-112854797D01*
X66091009Y-112945000D01*
X67258991Y-112945000D01*
X67712471Y-112854797D01*
X68096913Y-112597922D01*
X68353788Y-112213480D01*
X68443991Y-111760000D01*
X68353788Y-111306520D01*
X68232501Y-111125000D01*
X68353788Y-110943480D01*
X68443991Y-110490000D01*
X68353788Y-110036520D01*
X68232501Y-109855000D01*
X68353788Y-109673480D01*
X68443991Y-109220000D01*
X72526009Y-109220000D01*
X72616212Y-109673480D01*
X72737499Y-109855000D01*
X72616212Y-110036520D01*
X72526009Y-110490000D01*
X72616212Y-110943480D01*
X72737499Y-111125000D01*
X72616212Y-111306520D01*
X72526009Y-111760000D01*
X72616212Y-112213480D01*
X72873087Y-112597922D01*
X73257529Y-112854797D01*
X73711009Y-112945000D01*
X74878991Y-112945000D01*
X75332471Y-112854797D01*
X75716497Y-112598200D01*
X75801400Y-112598200D01*
X76122166Y-112534396D01*
X76394097Y-112352697D01*
X78697697Y-110049097D01*
X78879396Y-109777166D01*
X78943200Y-109456400D01*
X78943200Y-105277197D01*
X79100458Y-105120213D01*
X79844392Y-105120213D01*
X79913857Y-105362397D01*
X80437302Y-105549144D01*
X80992368Y-105521362D01*
X81376143Y-105362397D01*
X81445608Y-105120213D01*
X82384392Y-105120213D01*
X82453857Y-105362397D01*
X82977302Y-105549144D01*
X83532368Y-105521362D01*
X83916143Y-105362397D01*
X83985608Y-105120213D01*
X83185000Y-104319605D01*
X82384392Y-105120213D01*
X81445608Y-105120213D01*
X80645000Y-104319605D01*
X79844392Y-105120213D01*
X79100458Y-105120213D01*
X79288629Y-104932370D01*
X79368395Y-104740273D01*
X79422603Y-104871143D01*
X79664787Y-104940608D01*
X80465395Y-104140000D01*
X80824605Y-104140000D01*
X81625213Y-104940608D01*
X81867397Y-104871143D01*
X81911453Y-104747656D01*
X81962603Y-104871143D01*
X82204787Y-104940608D01*
X83005395Y-104140000D01*
X83364605Y-104140000D01*
X84165213Y-104940608D01*
X84407397Y-104871143D01*
X84594144Y-104347698D01*
X84566362Y-103792632D01*
X84407397Y-103408857D01*
X84165213Y-103339392D01*
X83364605Y-104140000D01*
X83005395Y-104140000D01*
X82204787Y-103339392D01*
X81962603Y-103408857D01*
X81918547Y-103532344D01*
X81867397Y-103408857D01*
X81625213Y-103339392D01*
X80824605Y-104140000D01*
X80465395Y-104140000D01*
X79664787Y-103339392D01*
X79422603Y-103408857D01*
X79372491Y-103549318D01*
X79290010Y-103349697D01*
X79100432Y-103159787D01*
X79844392Y-103159787D01*
X80645000Y-103960395D01*
X81445608Y-103159787D01*
X82384392Y-103159787D01*
X83185000Y-103960395D01*
X83985608Y-103159787D01*
X83916143Y-102917603D01*
X83392698Y-102730856D01*
X82837632Y-102758638D01*
X82453857Y-102917603D01*
X82384392Y-103159787D01*
X81445608Y-103159787D01*
X81376143Y-102917603D01*
X80852698Y-102730856D01*
X80297632Y-102758638D01*
X79913857Y-102917603D01*
X79844392Y-103159787D01*
X79100432Y-103159787D01*
X78897370Y-102956371D01*
X78384100Y-102743243D01*
X77828339Y-102742758D01*
X77314697Y-102954990D01*
X76921371Y-103347630D01*
X76708243Y-103860900D01*
X76707758Y-104416661D01*
X76919990Y-104930303D01*
X77266800Y-105277719D01*
X77266800Y-109109206D01*
X76034461Y-110341545D01*
X75973788Y-110036520D01*
X75852501Y-109855000D01*
X75973788Y-109673480D01*
X76063991Y-109220000D01*
X75973788Y-108766520D01*
X75716913Y-108382078D01*
X75332471Y-108125203D01*
X74878991Y-108035000D01*
X73711009Y-108035000D01*
X73257529Y-108125203D01*
X72873087Y-108382078D01*
X72616212Y-108766520D01*
X72526009Y-109220000D01*
X68443991Y-109220000D01*
X68353788Y-108766520D01*
X68096913Y-108382078D01*
X67712471Y-108125203D01*
X67258991Y-108035000D01*
X66091009Y-108035000D01*
X65637529Y-108125203D01*
X65253087Y-108382078D01*
X64996212Y-108766520D01*
X64906009Y-109220000D01*
X56359249Y-109220000D01*
X56522657Y-109152481D01*
X56968914Y-108707003D01*
X57210724Y-108124659D01*
X57211275Y-107494107D01*
X56970481Y-106911343D01*
X56872971Y-106813663D01*
X57077441Y-106682090D01*
X57222431Y-106469890D01*
X57273440Y-106218000D01*
X57273440Y-104318000D01*
X57229162Y-104082683D01*
X57090090Y-103866559D01*
X56951280Y-103771714D01*
X57625898Y-103097096D01*
X57807597Y-102825164D01*
X57871401Y-102504399D01*
X57871401Y-99162201D01*
X57840508Y-99006890D01*
X57839571Y-99002178D01*
X118643228Y-99002178D01*
X118793721Y-99366397D01*
X119072138Y-99645300D01*
X119436093Y-99796428D01*
X119439037Y-99796431D01*
X119676303Y-100033697D01*
X119948235Y-100215396D01*
X120269000Y-100279200D01*
X132511800Y-100279200D01*
X132511800Y-101447816D01*
X132425345Y-101483538D01*
X132079801Y-101828480D01*
X131737073Y-101485154D01*
X131136547Y-101235794D01*
X130486306Y-101235226D01*
X129885345Y-101483538D01*
X129425154Y-101942927D01*
X129175794Y-102543453D01*
X129175226Y-103193694D01*
X129423538Y-103794655D01*
X129882927Y-104254846D01*
X130483453Y-104504206D01*
X131133694Y-104504774D01*
X131734655Y-104256462D01*
X132080199Y-103911520D01*
X132422927Y-104254846D01*
X132511800Y-104291749D01*
X132511800Y-107797816D01*
X132425345Y-107833538D01*
X132079801Y-108178480D01*
X131737073Y-107835154D01*
X131136547Y-107585794D01*
X130486306Y-107585226D01*
X129885345Y-107833538D01*
X129425154Y-108292927D01*
X129175794Y-108893453D01*
X129175226Y-109543694D01*
X129423538Y-110144655D01*
X129882927Y-110604846D01*
X130483453Y-110854206D01*
X131133694Y-110854774D01*
X131734655Y-110606462D01*
X132080199Y-110261520D01*
X132422927Y-110604846D01*
X133023453Y-110854206D01*
X133673694Y-110854774D01*
X134274655Y-110606462D01*
X134734846Y-110147073D01*
X134984206Y-109546547D01*
X134984774Y-108896306D01*
X134736462Y-108295345D01*
X134277073Y-107835154D01*
X134188200Y-107798251D01*
X134188200Y-104292184D01*
X134274655Y-104256462D01*
X134734846Y-103797073D01*
X134984206Y-103196547D01*
X134984774Y-102546306D01*
X134736462Y-101945345D01*
X134277073Y-101485154D01*
X134188200Y-101448251D01*
X134188200Y-97942184D01*
X134274655Y-97906462D01*
X134734846Y-97447073D01*
X134984206Y-96846547D01*
X134984774Y-96196306D01*
X134736462Y-95595345D01*
X134277073Y-95135154D01*
X133676547Y-94885794D01*
X133026306Y-94885226D01*
X132425345Y-95133538D01*
X132079801Y-95478480D01*
X131737073Y-95135154D01*
X131136547Y-94885794D01*
X130486306Y-94885226D01*
X129885345Y-95133538D01*
X129425154Y-95592927D01*
X129175794Y-96193453D01*
X129175226Y-96843694D01*
X129423538Y-97444655D01*
X129882927Y-97904846D01*
X130483453Y-98154206D01*
X131133694Y-98154774D01*
X131734655Y-97906462D01*
X132080199Y-97561520D01*
X132422927Y-97904846D01*
X132511800Y-97941749D01*
X132511800Y-98602800D01*
X120621871Y-98602800D01*
X120474279Y-98245603D01*
X120195862Y-97966700D01*
X119831907Y-97815572D01*
X119437822Y-97815228D01*
X119073603Y-97965721D01*
X118794700Y-98244138D01*
X118643572Y-98608093D01*
X118643228Y-99002178D01*
X57839571Y-99002178D01*
X57807597Y-98841435D01*
X57625898Y-98569504D01*
X57273440Y-98217046D01*
X57273440Y-96855000D01*
X57229162Y-96619683D01*
X57090090Y-96403559D01*
X56877890Y-96258569D01*
X56626000Y-96207560D01*
X54626000Y-96207560D01*
X54390683Y-96251838D01*
X54174559Y-96390910D01*
X54029569Y-96603110D01*
X53978560Y-96855000D01*
X52949389Y-96855000D01*
X52949389Y-92793249D01*
X57729687Y-92793249D01*
X57763642Y-92786495D01*
X57798101Y-92789824D01*
X58237420Y-92745727D01*
X58303028Y-92725691D01*
X58371262Y-92718612D01*
X58779713Y-92592383D01*
X58839178Y-92560199D01*
X58903768Y-92540207D01*
X59273081Y-92340117D01*
X59323709Y-92298088D01*
X59381722Y-92267024D01*
X59703633Y-92002440D01*
X59745858Y-91950910D01*
X59797430Y-91908738D01*
X60062563Y-91586827D01*
X60094033Y-91528198D01*
X60136474Y-91476955D01*
X60336015Y-91107642D01*
X60355696Y-91043797D01*
X60387565Y-90985086D01*
X60514345Y-90576635D01*
X60521596Y-90507576D01*
X60540116Y-90446661D01*
X87502758Y-90446661D01*
X87714990Y-90960303D01*
X88061800Y-91307719D01*
X88061800Y-95885000D01*
X88125604Y-96205766D01*
X88307303Y-96477697D01*
X88544229Y-96714623D01*
X88544228Y-96716178D01*
X88694721Y-97080397D01*
X88973138Y-97359300D01*
X89337093Y-97510428D01*
X89731178Y-97510772D01*
X90095397Y-97360279D01*
X90374300Y-97081862D01*
X90525428Y-96717907D01*
X90525772Y-96323822D01*
X90375279Y-95959603D01*
X90096862Y-95680700D01*
X89738200Y-95531770D01*
X89738200Y-91307197D01*
X90083629Y-90962370D01*
X90169949Y-90754488D01*
X90254990Y-90960303D01*
X90647630Y-91353629D01*
X91160900Y-91566757D01*
X91716661Y-91567242D01*
X92230303Y-91355010D01*
X92623629Y-90962370D01*
X92709949Y-90754488D01*
X92794990Y-90960303D01*
X93187630Y-91353629D01*
X93700900Y-91566757D01*
X94256661Y-91567242D01*
X94770303Y-91355010D01*
X95163629Y-90962370D01*
X95376757Y-90449100D01*
X95376759Y-90446661D01*
X98297758Y-90446661D01*
X98509990Y-90960303D01*
X98856800Y-91307719D01*
X98856800Y-92583000D01*
X98920604Y-92903766D01*
X99102303Y-93175697D01*
X102514229Y-96587623D01*
X102514228Y-96589178D01*
X102664721Y-96953397D01*
X102943138Y-97232300D01*
X103307093Y-97383428D01*
X103701178Y-97383772D01*
X104065397Y-97233279D01*
X104344300Y-96954862D01*
X104495428Y-96590907D01*
X104495772Y-96196822D01*
X104345279Y-95832603D01*
X104066862Y-95553700D01*
X103702907Y-95402572D01*
X103699963Y-95402569D01*
X100533200Y-92235806D01*
X100533200Y-91307197D01*
X100878629Y-90962370D01*
X100964949Y-90754488D01*
X101049990Y-90960303D01*
X101442630Y-91353629D01*
X101955900Y-91566757D01*
X102511661Y-91567242D01*
X103025303Y-91355010D01*
X103418629Y-90962370D01*
X103504949Y-90754488D01*
X103589990Y-90960303D01*
X103982630Y-91353629D01*
X104495900Y-91566757D01*
X105051661Y-91567242D01*
X105565303Y-91355010D01*
X105958629Y-90962370D01*
X106171757Y-90449100D01*
X106172242Y-89893339D01*
X105960010Y-89379697D01*
X105567370Y-88986371D01*
X105054100Y-88773243D01*
X104498339Y-88772758D01*
X103984697Y-88984990D01*
X103591371Y-89377630D01*
X103505051Y-89585512D01*
X103420010Y-89379697D01*
X103027370Y-88986371D01*
X102514100Y-88773243D01*
X101958339Y-88772758D01*
X101444697Y-88984990D01*
X101051371Y-89377630D01*
X100965051Y-89585512D01*
X100880010Y-89379697D01*
X100487370Y-88986371D01*
X99974100Y-88773243D01*
X99418339Y-88772758D01*
X98904697Y-88984990D01*
X98511371Y-89377630D01*
X98298243Y-89890900D01*
X98297758Y-90446661D01*
X95376759Y-90446661D01*
X95377242Y-89893339D01*
X95165010Y-89379697D01*
X94772370Y-88986371D01*
X94259100Y-88773243D01*
X93703339Y-88772758D01*
X93189697Y-88984990D01*
X92796371Y-89377630D01*
X92710051Y-89585512D01*
X92625010Y-89379697D01*
X92232370Y-88986371D01*
X91719100Y-88773243D01*
X91163339Y-88772758D01*
X90649697Y-88984990D01*
X90256371Y-89377630D01*
X90170051Y-89585512D01*
X90085010Y-89379697D01*
X89692370Y-88986371D01*
X89179100Y-88773243D01*
X88623339Y-88772758D01*
X88109697Y-88984990D01*
X87716371Y-89377630D01*
X87503243Y-89890900D01*
X87502758Y-90446661D01*
X60540116Y-90446661D01*
X60541794Y-90441142D01*
X60585341Y-90001824D01*
X60582011Y-89967793D01*
X60588682Y-89934255D01*
X60588682Y-87798067D01*
X77726602Y-87798067D01*
X77733210Y-87866785D01*
X77726602Y-87935503D01*
X77751692Y-88184345D01*
X77771838Y-88250208D01*
X77779032Y-88318707D01*
X77850979Y-88550477D01*
X77883157Y-88609753D01*
X77903150Y-88674171D01*
X78016990Y-88883904D01*
X78059303Y-88934793D01*
X78090652Y-88993075D01*
X78241423Y-89175811D01*
X78292307Y-89217347D01*
X78333846Y-89268235D01*
X78516582Y-89419006D01*
X78574868Y-89450357D01*
X78625757Y-89492670D01*
X78835491Y-89606511D01*
X78899908Y-89626503D01*
X78959182Y-89658681D01*
X79190951Y-89730628D01*
X79259451Y-89737822D01*
X79325317Y-89757969D01*
X79574159Y-89783058D01*
X79642874Y-89776450D01*
X79711590Y-89783058D01*
X79960431Y-89757969D01*
X80026297Y-89737822D01*
X80094797Y-89730628D01*
X80326565Y-89658681D01*
X80385841Y-89626502D01*
X80450257Y-89606510D01*
X80659992Y-89492670D01*
X80710880Y-89450358D01*
X80769166Y-89419007D01*
X80951901Y-89268235D01*
X80993439Y-89217350D01*
X81044325Y-89175811D01*
X81195096Y-88993075D01*
X81226445Y-88934794D01*
X81268758Y-88883904D01*
X81382598Y-88674170D01*
X81402591Y-88609753D01*
X81434769Y-88550477D01*
X81506716Y-88318707D01*
X81513910Y-88250207D01*
X81534056Y-88184344D01*
X81559146Y-87935503D01*
X81552538Y-87866785D01*
X81559146Y-87798067D01*
X109249822Y-87798067D01*
X109256430Y-87866785D01*
X109249822Y-87935503D01*
X109274912Y-88184345D01*
X109295058Y-88250208D01*
X109302252Y-88318707D01*
X109374199Y-88550477D01*
X109406377Y-88609753D01*
X109426370Y-88674171D01*
X109540210Y-88883904D01*
X109582523Y-88934793D01*
X109613872Y-88993075D01*
X109764643Y-89175811D01*
X109815530Y-89217349D01*
X109857068Y-89268236D01*
X110039805Y-89419008D01*
X110098087Y-89450357D01*
X110148976Y-89492670D01*
X110358710Y-89606510D01*
X110423126Y-89626502D01*
X110482402Y-89658681D01*
X110714171Y-89730628D01*
X110782671Y-89737822D01*
X110848537Y-89757969D01*
X111097379Y-89783058D01*
X111166094Y-89776450D01*
X111234810Y-89783058D01*
X111483651Y-89757969D01*
X111549518Y-89737822D01*
X111618016Y-89730628D01*
X111849786Y-89658681D01*
X111909062Y-89626503D01*
X111973480Y-89606510D01*
X112183213Y-89492670D01*
X112234102Y-89450357D01*
X112292386Y-89419007D01*
X112475121Y-89268235D01*
X112516657Y-89217352D01*
X112567544Y-89175813D01*
X112718315Y-88993077D01*
X112749664Y-88934795D01*
X112791979Y-88883904D01*
X112905819Y-88674170D01*
X112925812Y-88609753D01*
X112957990Y-88550477D01*
X113029937Y-88318707D01*
X113037131Y-88250209D01*
X113057278Y-88184342D01*
X113082367Y-87935500D01*
X113075759Y-87866785D01*
X113082367Y-87798070D01*
X113057278Y-87549228D01*
X113037131Y-87483362D01*
X113029937Y-87414862D01*
X112957990Y-87183093D01*
X112925812Y-87123819D01*
X112905820Y-87059402D01*
X112791979Y-86849668D01*
X112749666Y-86798779D01*
X112718315Y-86740493D01*
X112567544Y-86557757D01*
X112516656Y-86516218D01*
X112475120Y-86465334D01*
X112292384Y-86314563D01*
X112234102Y-86283214D01*
X112183213Y-86240901D01*
X111973480Y-86127061D01*
X111909062Y-86107068D01*
X111849786Y-86074890D01*
X111618016Y-86002943D01*
X111549517Y-85995749D01*
X111483654Y-85975603D01*
X111234812Y-85950513D01*
X111166094Y-85957121D01*
X111097376Y-85950513D01*
X110848535Y-85975603D01*
X110782673Y-85995749D01*
X110714171Y-86002943D01*
X110482402Y-86074890D01*
X110423126Y-86107069D01*
X110358710Y-86127061D01*
X110148976Y-86240901D01*
X110098089Y-86283213D01*
X110039807Y-86314561D01*
X109857069Y-86465333D01*
X109815529Y-86516221D01*
X109764643Y-86557759D01*
X109613872Y-86740495D01*
X109582522Y-86798779D01*
X109540210Y-86849667D01*
X109426370Y-87059402D01*
X109406378Y-87123818D01*
X109374199Y-87183094D01*
X109302252Y-87414862D01*
X109295058Y-87483363D01*
X109274912Y-87549225D01*
X109249822Y-87798067D01*
X81559146Y-87798067D01*
X81534056Y-87549226D01*
X81513910Y-87483364D01*
X81506716Y-87414862D01*
X81434769Y-87183093D01*
X81402591Y-87123819D01*
X81382599Y-87059402D01*
X81268758Y-86849668D01*
X81226447Y-86798781D01*
X81195096Y-86740495D01*
X81044325Y-86557759D01*
X80993438Y-86516220D01*
X80951900Y-86465334D01*
X80769164Y-86314563D01*
X80710880Y-86283213D01*
X80659992Y-86240901D01*
X80450257Y-86127061D01*
X80385841Y-86107069D01*
X80326565Y-86074890D01*
X80094797Y-86002943D01*
X80026296Y-85995749D01*
X79960434Y-85975603D01*
X79711592Y-85950513D01*
X79642874Y-85957121D01*
X79574156Y-85950513D01*
X79325315Y-85975603D01*
X79259453Y-85995749D01*
X79190951Y-86002943D01*
X78959182Y-86074890D01*
X78899908Y-86107068D01*
X78835491Y-86127060D01*
X78625757Y-86240901D01*
X78574870Y-86283212D01*
X78516584Y-86314563D01*
X78333848Y-86465334D01*
X78292309Y-86516221D01*
X78241423Y-86557759D01*
X78090652Y-86740495D01*
X78059302Y-86798779D01*
X78016990Y-86849667D01*
X77903150Y-87059402D01*
X77883158Y-87123818D01*
X77850979Y-87183094D01*
X77779032Y-87414862D01*
X77771838Y-87483363D01*
X77751692Y-87549225D01*
X77726602Y-87798067D01*
X60588682Y-87798067D01*
X60588682Y-85064659D01*
X68840142Y-85064659D01*
X68840142Y-85942907D01*
M02*
