%TF.GenerationSoftware,KiCad,Pcbnew,0.201511041201+6297~30~ubuntu15.04.1-product*%
%TF.CreationDate,2015-11-12T00:10:28+01:00*%
%TF.ProjectId,transmitter,7472616E736D69747465722E6B696361,rev?*%
%TF.FileFunction,Profile,NP*%
%FSLAX46Y46*%
G04 Gerber Fmt 4.6, Leading zero omitted, Abs format (unit mm)*
G04 Created by KiCad (PCBNEW 0.201511041201+6297~30~ubuntu15.04.1-product) date czw, 12 lis 2015, 00:10:28*
%MOMM*%
G01*
G04 APERTURE LIST*
%ADD10C,0.100000*%
G04 APERTURE END LIST*
D10*
X112375733Y-117480857D02*
X112400822Y-117729698D01*
X112303786Y-117249088D02*
X112375733Y-117480857D01*
X112189946Y-117039354D02*
X112303786Y-117249088D01*
X112039174Y-116856618D02*
X112189946Y-117039354D01*
X111856438Y-116705846D02*
X112039174Y-116856618D01*
X111646705Y-116592006D02*
X111856438Y-116705846D01*
X111414935Y-116520060D02*
X111646705Y-116592006D01*
X111166094Y-116494970D02*
X111414935Y-116520060D01*
X110917253Y-116520060D02*
X111166094Y-116494970D01*
X110685484Y-116592006D02*
X110917253Y-116520060D01*
X110475751Y-116705846D02*
X110685484Y-116592006D01*
X110293014Y-116856618D02*
X110475751Y-116705846D01*
X110142243Y-117039354D02*
X110293014Y-116856618D01*
X110028403Y-117249088D02*
X110142243Y-117039354D01*
X109956456Y-117480857D02*
X110028403Y-117249088D01*
X109931366Y-117729698D02*
X109956456Y-117480857D01*
X109956456Y-117978539D02*
X109931366Y-117729698D01*
X110028403Y-118210308D02*
X109956456Y-117978539D01*
X110142243Y-118420042D02*
X110028403Y-118210308D01*
X110293014Y-118602778D02*
X110142243Y-118420042D01*
X110475751Y-118753549D02*
X110293014Y-118602778D01*
X110685484Y-118867389D02*
X110475751Y-118753549D01*
X110917253Y-118939336D02*
X110685484Y-118867389D01*
X111166094Y-118964426D02*
X110917253Y-118939336D01*
X111414935Y-118939336D02*
X111166094Y-118964426D01*
X111646705Y-118867389D02*
X111414935Y-118939336D01*
X111856438Y-118753549D02*
X111646705Y-118867389D01*
X112039174Y-118602778D02*
X111856438Y-118753549D01*
X112189946Y-118420042D02*
X112039174Y-118602778D01*
X112303786Y-118210308D02*
X112189946Y-118420042D01*
X112375733Y-117978539D02*
X112303786Y-118210308D01*
X112400822Y-117729698D02*
X112375733Y-117978539D01*
X80852512Y-117480857D02*
X80877602Y-117729698D01*
X80780565Y-117249088D02*
X80852512Y-117480857D01*
X80666725Y-117039354D02*
X80780565Y-117249088D01*
X80515954Y-116856618D02*
X80666725Y-117039354D01*
X80333218Y-116705846D02*
X80515954Y-116856618D01*
X80123484Y-116592006D02*
X80333218Y-116705846D01*
X79891715Y-116520060D02*
X80123484Y-116592006D01*
X79642874Y-116494970D02*
X79891715Y-116520060D01*
X79394033Y-116520060D02*
X79642874Y-116494970D01*
X79162264Y-116592006D02*
X79394033Y-116520060D01*
X78952530Y-116705846D02*
X79162264Y-116592006D01*
X78769794Y-116856618D02*
X78952530Y-116705846D01*
X78619023Y-117039354D02*
X78769794Y-116856618D01*
X78505183Y-117249088D02*
X78619023Y-117039354D01*
X78433236Y-117480857D02*
X78505183Y-117249088D01*
X78408146Y-117729698D02*
X78433236Y-117480857D01*
X78433236Y-117978539D02*
X78408146Y-117729698D01*
X78505183Y-118210308D02*
X78433236Y-117978539D01*
X78619023Y-118420042D02*
X78505183Y-118210308D01*
X78769794Y-118602778D02*
X78619023Y-118420042D01*
X78952530Y-118753549D02*
X78769794Y-118602778D01*
X79162264Y-118867389D02*
X78952530Y-118753549D01*
X79394033Y-118939336D02*
X79162264Y-118867389D01*
X79642874Y-118964426D02*
X79394033Y-118939336D01*
X79891715Y-118939336D02*
X79642874Y-118964426D01*
X80123484Y-118867389D02*
X79891715Y-118939336D01*
X80333218Y-118753549D02*
X80123484Y-118867389D01*
X80515954Y-118602778D02*
X80333218Y-118753549D01*
X80666725Y-118420042D02*
X80515954Y-118602778D01*
X80780565Y-118210308D02*
X80666725Y-118420042D01*
X80852512Y-117978539D02*
X80780565Y-118210308D01*
X80877602Y-117729698D02*
X80852512Y-117978539D01*
X112375733Y-87617944D02*
X112400822Y-87866785D01*
X112303786Y-87386175D02*
X112375733Y-87617944D01*
X112189946Y-87176441D02*
X112303786Y-87386175D01*
X112039174Y-86993705D02*
X112189946Y-87176441D01*
X111856438Y-86842934D02*
X112039174Y-86993705D01*
X111646705Y-86729094D02*
X111856438Y-86842934D01*
X111414935Y-86657147D02*
X111646705Y-86729094D01*
X111166094Y-86632057D02*
X111414935Y-86657147D01*
X110917253Y-86657147D02*
X111166094Y-86632057D01*
X110685484Y-86729094D02*
X110917253Y-86657147D01*
X110475751Y-86842934D02*
X110685484Y-86729094D01*
X110293014Y-86993705D02*
X110475751Y-86842934D01*
X110142243Y-87176441D02*
X110293014Y-86993705D01*
X110028403Y-87386175D02*
X110142243Y-87176441D01*
X109956456Y-87617944D02*
X110028403Y-87386175D01*
X109931366Y-87866785D02*
X109956456Y-87617944D01*
X109956456Y-88115626D02*
X109931366Y-87866785D01*
X110028403Y-88347396D02*
X109956456Y-88115626D01*
X110142243Y-88557129D02*
X110028403Y-88347396D01*
X110293014Y-88739865D02*
X110142243Y-88557129D01*
X110475751Y-88890637D02*
X110293014Y-88739865D01*
X110685484Y-89004477D02*
X110475751Y-88890637D01*
X110917253Y-89076424D02*
X110685484Y-89004477D01*
X111166094Y-89101513D02*
X110917253Y-89076424D01*
X111414935Y-89076424D02*
X111166094Y-89101513D01*
X111646705Y-89004477D02*
X111414935Y-89076424D01*
X111856438Y-88890637D02*
X111646705Y-89004477D01*
X112039174Y-88739865D02*
X111856438Y-88890637D01*
X112189946Y-88557129D02*
X112039174Y-88739865D01*
X112303786Y-88347396D02*
X112189946Y-88557129D01*
X112375733Y-88115626D02*
X112303786Y-88347396D01*
X112400822Y-87866785D02*
X112375733Y-88115626D01*
X80852512Y-87617944D02*
X80877602Y-87866785D01*
X80780565Y-87386175D02*
X80852512Y-87617944D01*
X80666725Y-87176441D02*
X80780565Y-87386175D01*
X80515954Y-86993705D02*
X80666725Y-87176441D01*
X80333218Y-86842934D02*
X80515954Y-86993705D01*
X80123484Y-86729094D02*
X80333218Y-86842934D01*
X79891715Y-86657147D02*
X80123484Y-86729094D01*
X79642874Y-86632057D02*
X79891715Y-86657147D01*
X79394033Y-86657147D02*
X79642874Y-86632057D01*
X79162264Y-86729094D02*
X79394033Y-86657147D01*
X78952530Y-86842934D02*
X79162264Y-86729094D01*
X78769794Y-86993705D02*
X78952530Y-86842934D01*
X78619023Y-87176441D02*
X78769794Y-86993705D01*
X78505183Y-87386175D02*
X78619023Y-87176441D01*
X78433236Y-87617944D02*
X78505183Y-87386175D01*
X78408146Y-87866785D02*
X78433236Y-87617944D01*
X78433236Y-88115626D02*
X78408146Y-87866785D01*
X78505183Y-88347396D02*
X78433236Y-88115626D01*
X78619023Y-88557129D02*
X78505183Y-88347396D01*
X78769794Y-88739865D02*
X78619023Y-88557129D01*
X78952530Y-88890637D02*
X78769794Y-88739865D01*
X79162264Y-89004477D02*
X78952530Y-88890637D01*
X79394033Y-89076424D02*
X79162264Y-89004477D01*
X79642874Y-89101513D02*
X79394033Y-89076424D01*
X79891715Y-89076424D02*
X79642874Y-89101513D01*
X80123484Y-89004477D02*
X79891715Y-89076424D01*
X80333218Y-88890637D02*
X80123484Y-89004477D01*
X80515954Y-88739865D02*
X80333218Y-88890637D01*
X80666725Y-88557129D02*
X80515954Y-88739865D01*
X80780565Y-88347396D02*
X80666725Y-88557129D01*
X80852512Y-88115626D02*
X80780565Y-88347396D01*
X80877602Y-87866785D02*
X80852512Y-88115626D01*
X59903682Y-84379659D02*
X59903682Y-84379659D01*
X69525142Y-84379659D02*
X59903682Y-84379659D01*
X69525142Y-85942907D02*
X69525142Y-84379659D01*
X72055773Y-85942907D02*
X69525142Y-85942907D01*
X72055773Y-84379659D02*
X72055773Y-85942907D01*
X72946537Y-84379659D02*
X72055773Y-84379659D01*
X72946537Y-85942907D02*
X72946537Y-84379659D01*
X75476614Y-85942907D02*
X72946537Y-85942907D01*
X75476614Y-84379659D02*
X75476614Y-85942907D01*
X115282074Y-84379659D02*
X75476614Y-84379659D01*
X115282074Y-85942907D02*
X115282074Y-84379659D01*
X117812154Y-85942907D02*
X115282074Y-85942907D01*
X117812154Y-84379659D02*
X117812154Y-85942907D01*
X118702918Y-84379659D02*
X117812154Y-84379659D01*
X118702918Y-85942907D02*
X118702918Y-84379659D01*
X121232995Y-85942907D02*
X118702918Y-85942907D01*
X121232995Y-84379659D02*
X121232995Y-85942907D01*
X130926115Y-84379659D02*
X121232995Y-84379659D01*
X130926115Y-89934255D02*
X130926115Y-84379659D01*
X130970212Y-90373573D02*
X130926115Y-89934255D01*
X131096441Y-90782025D02*
X130970212Y-90373573D01*
X131296531Y-91151338D02*
X131096441Y-90782025D01*
X131561668Y-91473249D02*
X131296531Y-91151338D01*
X131883026Y-91737833D02*
X131561668Y-91473249D01*
X132252339Y-91937923D02*
X131883026Y-91737833D01*
X132661341Y-92064152D02*
X132252339Y-91937923D01*
X133100109Y-92108249D02*
X132661341Y-92064152D01*
X138443039Y-92108249D02*
X133100109Y-92108249D01*
X138443039Y-97215258D02*
X138443039Y-92108249D01*
X142401315Y-97215258D02*
X138443039Y-97215258D01*
X142401315Y-108333823D02*
X142401315Y-97215258D01*
X138443039Y-108333823D02*
X142401315Y-108333823D01*
X138443039Y-113519103D02*
X138443039Y-108333823D01*
X133100109Y-113519103D02*
X138443039Y-113519103D01*
X132661341Y-113563200D02*
X133100109Y-113519103D01*
X132252339Y-113689430D02*
X132661341Y-113563200D01*
X131883026Y-113889520D02*
X132252339Y-113689430D01*
X131561668Y-114154656D02*
X131883026Y-113889520D01*
X131296531Y-114476014D02*
X131561668Y-114154656D01*
X131096441Y-114845327D02*
X131296531Y-114476014D01*
X130970212Y-115253779D02*
X131096441Y-114845327D01*
X130926115Y-115693098D02*
X130970212Y-115253779D01*
X130926115Y-121169422D02*
X130926115Y-115693098D01*
X121232995Y-121169422D02*
X130926115Y-121169422D01*
X121232995Y-119547745D02*
X121232995Y-121169422D01*
X118702918Y-119547745D02*
X121232995Y-119547745D01*
X118702918Y-121169422D02*
X118702918Y-119547745D01*
X117812154Y-121169422D02*
X118702918Y-121169422D01*
X117812154Y-119547745D02*
X117812154Y-121169422D01*
X115282074Y-119547745D02*
X117812154Y-119547745D01*
X115282074Y-121169422D02*
X115282074Y-119547745D01*
X75476614Y-121169422D02*
X115282074Y-121169422D01*
X75476614Y-119547745D02*
X75476614Y-121169422D01*
X72946537Y-119547745D02*
X75476614Y-119547745D01*
X72946537Y-121169422D02*
X72946537Y-119547745D01*
X72055773Y-121169422D02*
X72946537Y-121169422D01*
X72055773Y-119547745D02*
X72055773Y-121169422D01*
X69525142Y-119547745D02*
X72055773Y-119547745D01*
X69525142Y-121169422D02*
X69525142Y-119547745D01*
X59903682Y-121169422D02*
X69525142Y-121169422D01*
X59903682Y-115693098D02*
X59903682Y-121169422D01*
X59860135Y-115253779D02*
X59903682Y-115693098D01*
X59733355Y-114845327D02*
X59860135Y-115253779D01*
X59533815Y-114476014D02*
X59733355Y-114845327D01*
X59268682Y-114154656D02*
X59533815Y-114476014D01*
X58946771Y-113889520D02*
X59268682Y-114154656D01*
X58577457Y-113689430D02*
X58946771Y-113889520D01*
X58169006Y-113563200D02*
X58577457Y-113689430D01*
X57729687Y-113519103D02*
X58169006Y-113563200D01*
X52264389Y-113519103D02*
X57729687Y-113519103D01*
X52264389Y-92108249D02*
X52264389Y-113519103D01*
X57729687Y-92108249D02*
X52264389Y-92108249D01*
X58169006Y-92064152D02*
X57729687Y-92108249D01*
X58577457Y-91937923D02*
X58169006Y-92064152D01*
X58946771Y-91737833D02*
X58577457Y-91937923D01*
X59268682Y-91473249D02*
X58946771Y-91737833D01*
X59533815Y-91151338D02*
X59268682Y-91473249D01*
X59733355Y-90782025D02*
X59533815Y-91151338D01*
X59860135Y-90373573D02*
X59733355Y-90782025D01*
X59903682Y-89934255D02*
X59860135Y-90373573D01*
X59903682Y-84379659D02*
X59903682Y-89934255D01*
M02*
