%TF.GenerationSoftware,KiCad,Pcbnew,0.201511041201+6297~30~ubuntu15.04.1-product*%
%TF.CreationDate,2015-11-12T00:10:28+01:00*%
%TF.ProjectId,transmitter,7472616E736D69747465722E6B696361,rev?*%
%TF.FileFunction,Soldermask,Bot*%
%FSLAX46Y46*%
G04 Gerber Fmt 4.6, Leading zero omitted, Abs format (unit mm)*
G04 Created by KiCad (PCBNEW 0.201511041201+6297~30~ubuntu15.04.1-product) date czw, 12 lis 2015, 00:10:28*
%MOMM*%
G01*
G04 APERTURE LIST*
%ADD10C,0.100000*%
%ADD11R,2.297380X2.297380*%
%ADD12R,1.748740X0.798780*%
%ADD13R,1.746200X0.798780*%
%ADD14C,1.197560*%
%ADD15R,2.350720X1.901140*%
%ADD16R,1.400760X1.299160*%
%ADD17R,1.299160X1.400760*%
%ADD18C,2.398980*%
%ADD19R,2.400000X2.300000*%
%ADD20C,2.300000*%
%ADD21R,1.800000X2.200000*%
%ADD22R,1.349960X1.898600*%
%ADD23O,1.349960X1.898600*%
%ADD24O,2.600000X1.500000*%
%ADD25R,2.000200X3.092400*%
%ADD26C,1.924000*%
%ADD27R,0.650000X1.400000*%
%ADD28R,0.951180X1.830020*%
%ADD29R,1.924000X2.599640*%
%ADD30O,1.924000X2.599640*%
G04 APERTURE END LIST*
D10*
D11*
X140716000Y-101544120D03*
X140716000Y-103941880D03*
X140716000Y-106692700D03*
X140716000Y-98793300D03*
D12*
X138041380Y-101442520D03*
D13*
X138041380Y-102095300D03*
X138041380Y-102743000D03*
X138041380Y-103390700D03*
X138041380Y-104043480D03*
D14*
X138569700Y-104640380D03*
X138567160Y-100843080D03*
D15*
X122024140Y-96520000D03*
X119275860Y-96520000D03*
D16*
X102235000Y-95366840D03*
X102235000Y-93863160D03*
D17*
X98308160Y-110490000D03*
X99811840Y-110490000D03*
D16*
X88265000Y-95366840D03*
X88265000Y-93863160D03*
D18*
X130810000Y-109220000D03*
X133350000Y-109220000D03*
X130810000Y-102870000D03*
X133350000Y-102870000D03*
X130810000Y-96520000D03*
X133350000Y-96520000D03*
D19*
X55626000Y-105268000D03*
D20*
X55626000Y-107808000D03*
D21*
X68150000Y-103505000D03*
X71550000Y-103505000D03*
X71550000Y-100965000D03*
X68150000Y-100965000D03*
D22*
X119400320Y-111125000D03*
D23*
X120650000Y-111125000D03*
X121899680Y-111125000D03*
D24*
X66675000Y-109220000D03*
X66675000Y-110490000D03*
X66675000Y-111760000D03*
X74295000Y-111760000D03*
X74295000Y-110490000D03*
X74295000Y-109220000D03*
D17*
X128386840Y-109220000D03*
X126883160Y-109220000D03*
X128386840Y-102870000D03*
X126883160Y-102870000D03*
X128386840Y-96520000D03*
X126883160Y-96520000D03*
D16*
X123825000Y-103621840D03*
X123825000Y-102118160D03*
X91440000Y-93863160D03*
X91440000Y-95366840D03*
D17*
X73289160Y-114681000D03*
X74792840Y-114681000D03*
D16*
X80010000Y-109103160D03*
X80010000Y-110606840D03*
D25*
X80772000Y-99695000D03*
X77978000Y-99695000D03*
D26*
X102235000Y-90170000D03*
X99695000Y-90170000D03*
X104775000Y-90170000D03*
X91440000Y-90170000D03*
X88900000Y-90170000D03*
X93980000Y-90170000D03*
X80645000Y-104140000D03*
X83185000Y-104140000D03*
X78105000Y-104140000D03*
D27*
X119650000Y-100756900D03*
X120150000Y-100756900D03*
X120650000Y-100756900D03*
X121150000Y-100756900D03*
X121650000Y-100756900D03*
X121650000Y-104983100D03*
X121150000Y-104983100D03*
X120650000Y-104983100D03*
X120150000Y-104983100D03*
X119650000Y-104983100D03*
D28*
X102235000Y-98059240D03*
X103505000Y-98059240D03*
X104775000Y-98059240D03*
X106045000Y-98059240D03*
X107315000Y-98059240D03*
X108585000Y-98059240D03*
X109855000Y-98059240D03*
X109855000Y-107680760D03*
X108585000Y-107680760D03*
X107315000Y-107680760D03*
X106045000Y-107680760D03*
X104775000Y-107680760D03*
X103505000Y-107680760D03*
X102235000Y-107680760D03*
X88265000Y-98059240D03*
X89535000Y-98059240D03*
X90805000Y-98059240D03*
X92075000Y-98059240D03*
X93345000Y-98059240D03*
X94615000Y-98059240D03*
X95885000Y-98059240D03*
X95885000Y-107680760D03*
X94615000Y-107680760D03*
X93345000Y-107680760D03*
X92075000Y-107680760D03*
X90805000Y-107680760D03*
X89535000Y-107680760D03*
X88265000Y-107680760D03*
D29*
X121920000Y-116205000D03*
D30*
X119380000Y-116205000D03*
D19*
X55626000Y-97805000D03*
D20*
X55626000Y-100345000D03*
D17*
X88529160Y-110490000D03*
X90032840Y-110490000D03*
X102753160Y-110490000D03*
X104256840Y-110490000D03*
D15*
X65128140Y-97790000D03*
X62379860Y-97790000D03*
M02*
