M48
INCH,TZ
T1C0.014
T2C0.025
T3C0.031
T4C0.032
T5C0.032
T6C0.039
%
G90
G05
T1
X20950Y-37450
X21050Y-39000
X21400Y-43500
X21600Y-37050
X22000Y-44200
X22100Y-43300
X22700Y-37100
X22900Y-43450
X23200Y-39500
X23250Y-38450
X23300Y-44350
X23350Y-37650
X23450Y-40950
X23500Y-40000
X23900Y-39350
X24000Y-41750
X24050Y-45650
X24100Y-40650
X24100Y-44350
X24300Y-40050
X24500Y-34500
X24700Y-40650
X24750Y-37650
X24750Y-43100
X24900Y-42200
X24950Y-39350
X24950Y-41500
X24950Y-44900
X25050Y-46050
X25300Y-43450
X25350Y-37450
X25450Y-40650
X25500Y-39650
X25600Y-46450
X25650Y-42300
X25950Y-37450
X25950Y-39300
X26100Y-41550
X26350Y-45150
X26450Y-46350
X26500Y-38950
X26650Y-36050
X26650Y-42300
X26800Y-34700
X26850Y-37500
X27050Y-39000
X27150Y-45250
X27250Y-43350
X27300Y-41650
X27400Y-42550
X27750Y-43500
X27800Y-38850
X27850Y-46350
X28000Y-36550
X28150Y-44150
X28150Y-45600
X28500Y-38750
X28550Y-34600
X29050Y-36350
X29100Y-40350
X29200Y-39750
X29450Y-46500
X29750Y-34700
X30150Y-46100
X30350Y-37700
X30500Y-44700
X30600Y-47150
X31750Y-35900
X31800Y-44600
X31900Y-37450
X32350Y-44050
X32450Y-39850
X32550Y-42950
X32650Y-46350
X32650Y-47200
X32700Y-39200
X32750Y-38600
X32850Y-34550
X32900Y-36250
X33250Y-43700
X33350Y-38950
X33550Y-33800
X33650Y-45850
X33900Y-43050
X33950Y-44450
X34000Y-47150
X34850Y-45800
X34950Y-33900
X35250Y-38000
X35350Y-43000
X35350Y-46850
X35650Y-41650
X36100Y-41650
X36150Y-45500
X36200Y-43700
X36550Y-44700
X36600Y-47050
X36750Y-43050
X36950Y-33850
X37100Y-41650
X37500Y-43600
X37550Y-41500
X37700Y-39250
X37750Y-37850
X37800Y-45050
X38000Y-43300
X38000Y-46450
X38050Y-41450
X38200Y-42800
X38250Y-42250
X38300Y-38050
X38300Y-39150
X38350Y-38600
X38400Y-34100
X38850Y-45300
X39300Y-42700
X39400Y-42000
X39600Y-47200
X39850Y-43050
X40250Y-45350
X40750Y-37950
X40750Y-43000
X41150Y-47050
X41200Y-33850
X41550Y-41400
X41550Y-43150
X41850Y-44050
X41900Y-45650
X42000Y-43100
X42400Y-41650
X42600Y-43950
X42800Y-41500
X42850Y-47250
X42950Y-37850
X43200Y-41500
X43350Y-43400
X43450Y-37850
X43700Y-41900
X43750Y-36750
X43750Y-43200
X43800Y-42550
X43900Y-38300
X43900Y-38850
X44300Y-41150
X44350Y-47300
X44400Y-43750
X44500Y-39500
X44750Y-42650
X45150Y-45700
X45600Y-43600
X45600Y-46550
X45700Y-35250
X45800Y-37150
X45900Y-38600
X45900Y-42400
X46200Y-40700
X47100Y-38900
X47150Y-46750
X47300Y-34850
X47600Y-37350
X47750Y-38600
X47900Y-36200
X48100Y-37350
X48250Y-40200
X48250Y-46650
X48350Y-38600
X48500Y-47200
X48700Y-37500
X48700Y-38000
X48900Y-39700
X49100Y-33950
X49150Y-46100
X49250Y-40150
X49450Y-36800
X49580Y-41014
X49750Y-47200
X50550Y-34950
X50600Y-44950
X50950Y-36900
X51150Y-46450
X51300Y-44350
X52650Y-36700
X53100Y-39100
X53300Y-41014
X53700Y-37650
X53700Y-39150
X53800Y-40700
X53800Y-41300
T2
X47008Y-43750
X47500Y-43750
X47992Y-43750
T3
X26250Y-43000
X26250Y-43500
X26250Y-44000
X29250Y-43000
X29250Y-43500
X29250Y-44000
T4
X51500Y-38000
X51500Y-40500
X51500Y-43000
X52500Y-38000
X52500Y-40500
X52500Y-43000
T5
X30750Y-41000
X31750Y-41000
X32750Y-41000
X35000Y-35500
X36000Y-35500
X37000Y-35500
X39250Y-35500
X40250Y-35500
X41250Y-35500
T6
X21900Y-38506
X21900Y-39506
X21900Y-41444
X21900Y-42444
X47000Y-45750
X48000Y-45750
T0
M30
