%TF.GenerationSoftware,KiCad,Pcbnew,0.201511041201+6297~30~ubuntu15.04.1-product*%
%TF.CreationDate,2015-11-12T00:09:16+01:00*%
%TF.ProjectId,gp8-clock,6770382D636C6F636B2E6B696361645F,rev?*%
%TF.FileFunction,Soldermask,Top*%
%FSLAX46Y46*%
G04 Gerber Fmt 4.6, Leading zero omitted, Abs format (unit mm)*
G04 Created by KiCad (PCBNEW 0.201511041201+6297~30~ubuntu15.04.1-product) date czw, 12 lis 2015, 00:09:16*
%MOMM*%
G01*
G04 APERTURE LIST*
%ADD10C,0.100000*%
%ADD11C,2.398980*%
%ADD12R,1.898600X1.349960*%
%ADD13O,1.898600X1.349960*%
%ADD14R,2.599640X1.924000*%
%ADD15O,2.599640X1.924000*%
%ADD16C,1.197560*%
%ADD17C,1.924000*%
%ADD18C,1.400760*%
%ADD19R,1.924000X2.599640*%
%ADD20O,1.924000X2.599640*%
G04 APERTURE END LIST*
D10*
D11*
X174854000Y-93441000D03*
X174854000Y-95981000D03*
X182354000Y-93441000D03*
X182354000Y-95981000D03*
X174854000Y-86941000D03*
X174854000Y-89481000D03*
X182354000Y-86941000D03*
X182354000Y-89481000D03*
D12*
X179705000Y-99715320D03*
D13*
X179705000Y-100965000D03*
X179705000Y-102214680D03*
D11*
X172603560Y-109959800D03*
X177104440Y-116462200D03*
X177104440Y-109959800D03*
X172603560Y-116462200D03*
D14*
X103854000Y-104251000D03*
D15*
X103854000Y-101711000D03*
X103854000Y-99171000D03*
D16*
X201453700Y-104397380D03*
X201451160Y-100600080D03*
D17*
X155904000Y-90011000D03*
X153364000Y-90011000D03*
X150824000Y-90011000D03*
X148284000Y-90011000D03*
X145744000Y-90011000D03*
X143204000Y-90011000D03*
X140664000Y-90011000D03*
X138124000Y-90011000D03*
X135584000Y-90011000D03*
X133044000Y-90011000D03*
X130504000Y-90011000D03*
X127964000Y-90011000D03*
X125424000Y-90011000D03*
X122884000Y-90011000D03*
X120344000Y-90011000D03*
X117804000Y-90011000D03*
X173414000Y-101711000D03*
X173414000Y-104251000D03*
D18*
X121539000Y-102349300D03*
X121539000Y-100850700D03*
D19*
X183624000Y-113211000D03*
D20*
X181084000Y-113211000D03*
M02*
