M48
INCH,TZ
T1C0.012
T2C0.014
T3C0.024
T4C0.025
T5C0.030
T6C0.032
T7C0.039
%
G90
G05
T1
X42900Y-43650
X42950Y-37800
X42950Y-41900
X43050Y-36550
X43250Y-39044
X43350Y-43600
X43600Y-37200
X43622Y-38504
X43750Y-42000
X44000Y-40500
X44250Y-36450
X44350Y-40650
X44400Y-38500
X44700Y-43700
X45050Y-37000
X45250Y-38200
X45250Y-42450
X45550Y-36500
X45600Y-41800
X45600Y-43550
X45650Y-42450
X45850Y-38750
X45900Y-44350
X46000Y-33600
X46250Y-34550
X46300Y-38250
X46300Y-39150
X46300Y-44150
X46750Y-43800
X47000Y-34750
X47100Y-33500
X47350Y-40800
X47564Y-34370
X47750Y-36100
X47750Y-38200
X48000Y-40750
X48050Y-33600
X48100Y-41250
X48200Y-45850
X48450Y-41953
X48500Y-38200
X48600Y-44800
X48650Y-36050
X48650Y-46500
X48850Y-39900
X48877Y-34726
X49000Y-33900
X49000Y-42900
X49150Y-38100
X49250Y-40450
X49250Y-43100
X49344Y-39712
X49632Y-40200
X49700Y-45950
X49800Y-34700
X49898Y-37551
X50250Y-33900
X50400Y-40450
X50400Y-44950
X50450Y-43250
X50600Y-46100
X50650Y-36100
X50750Y-34750
X50900Y-44250
X50950Y-37600
X51050Y-33950
X51500Y-38300
X51600Y-44600
X51750Y-34700
X51800Y-37650
X51800Y-45750
X51910Y-41260
X52000Y-34000
X52150Y-33350
X52150Y-39050
X52300Y-38500
X52300Y-42350
X52850Y-44750
X53135Y-40982
X53138Y-41282
X53181Y-40037
X53200Y-44350
X53254Y-40457
X53264Y-38197
X53300Y-37600
X53481Y-40060
X53527Y-40582
X53550Y-44350
X53556Y-38268
X53560Y-39392
X53620Y-37700
X53700Y-42900
X53750Y-44950
X53773Y-39603
X53850Y-42600
X53851Y-38214
X54100Y-44300
X54134Y-38311
X54150Y-37550
X54300Y-42900
X54350Y-33450
X54450Y-46550
X54521Y-38276
X54550Y-34500
X54677Y-37527
X54950Y-40750
X55000Y-40450
X55043Y-40046
X55050Y-33400
X55100Y-38250
X55100Y-46650
X55204Y-39780
X55209Y-39284
X55300Y-40200
X55375Y-39533
X55400Y-34500
X55560Y-42787
X55900Y-42050
X56250Y-41700
X56650Y-34800
X56750Y-46600
X56950Y-33400
X57150Y-45950
X57200Y-44650
X57650Y-46550
X57850Y-34300
X58150Y-44450
X58200Y-33500
X58600Y-44450
X58700Y-36100
X58900Y-34700
X58900Y-46550
X59550Y-36000
X59700Y-43100
X60200Y-33550
X60250Y-39850
X60250Y-40400
X60350Y-42800
X60450Y-46550
X60500Y-43900
X60600Y-38300
X60700Y-36050
X60750Y-44450
X61000Y-39300
X61150Y-34800
X61150Y-38750
X61150Y-43400
X61500Y-46500
X61550Y-33850
X62000Y-44150
X62100Y-45550
X62600Y-39400
X62650Y-33650
X62650Y-41950
X62750Y-35050
X63000Y-36600
X63050Y-45900
X63150Y-39400
X63300Y-35450
X63350Y-38900
X63400Y-41400
X63550Y-34350
X63650Y-42650
X63850Y-33500
X63900Y-46400
X64200Y-35050
X64250Y-38500
X64400Y-34150
X64450Y-40050
X64600Y-37000
X64650Y-43000
X64700Y-44650
X64900Y-42450
X65350Y-43350
X65400Y-40200
X65500Y-37100
X65550Y-35300
X65550Y-38450
X65550Y-44650
X65950Y-43950
X66050Y-35750
X66400Y-43500
X66500Y-40250
X66600Y-35000
X66600Y-37050
X66600Y-38450
X66650Y-46150
X66950Y-33950
X67000Y-42350
X67300Y-41650
X67300Y-46900
X67550Y-44750
X67800Y-36650
X67900Y-42150
X68500Y-42650
X69000Y-46950
X69100Y-41700
X69450Y-42350
X69750Y-33850
X69750Y-36000
X70050Y-34450
X70150Y-41900
X70400Y-33700
X70450Y-42600
X70900Y-38200
X71050Y-41600
X71100Y-42400
X72450Y-41700
X72750Y-33650
X72750Y-40200
X72900Y-35350
X72900Y-42400
X73000Y-36700
X73000Y-37650
X73050Y-40150
X73450Y-40650
X73650Y-38400
X73750Y-40350
X73800Y-36650
X73950Y-37350
X73950Y-42400
X73950Y-43400
X74000Y-41600
X74050Y-40000
X74400Y-36304
X74550Y-37950
X74600Y-37050
X74600Y-41200
X74800Y-42300
X74800Y-43400
X75100Y-37100
X75100Y-37450
X75100Y-37750
X75200Y-36750
X75200Y-41000
X75500Y-43500
X75650Y-40750
X75650Y-42700
X75700Y-41900
X76600Y-41850
T2
X43189Y-40669
X44764Y-37551
X45200Y-40600
X46450Y-42000
X46700Y-36100
X47550Y-41950
X47850Y-41750
X48800Y-40550
X49700Y-36100
X51250Y-40900
X51600Y-41050
X51700Y-36050
X52750Y-36400
X52850Y-42550
X53750Y-36200
X54300Y-41550
X54900Y-42950
X54950Y-36400
X55300Y-41250
X55450Y-38300
X55750Y-43250
X55850Y-36250
X56900Y-36400
X57575Y-40660
X57850Y-36400
X58000Y-42400
X59650Y-41000
X61850Y-36400
X62650Y-40900
X63000Y-37950
X63700Y-37000
X64450Y-41400
X67300Y-37500
X67300Y-38583
X72400Y-39900
T3
X47850Y-39705
X47850Y-40295
T4
X70750Y-39258
X70750Y-39750
X70750Y-40242
T5
X46380Y-35437
X47380Y-35437
X48380Y-35437
X49380Y-35437
X50380Y-35437
X51380Y-35437
X52380Y-35437
X53380Y-35437
X54380Y-35437
X55380Y-35437
X56380Y-35437
X57380Y-35437
X58380Y-35437
X59380Y-35437
X60380Y-35437
X61380Y-35437
X68273Y-40044
X68273Y-41044
T6
X68840Y-34229
X68840Y-35229
X68840Y-36788
X68840Y-37788
X71793Y-34229
X71793Y-35229
X71793Y-36788
X71793Y-37788
T7
X40887Y-39044
X40887Y-40044
X40887Y-41044
X67954Y-43291
X67954Y-45851
X69726Y-43291
X69726Y-45851
X71293Y-44571
X72293Y-44571
T0
M30
