%TF.GenerationSoftware,KiCad,Pcbnew,0.201511041201+6297~30~ubuntu15.04.1-product*%
%TF.CreationDate,2015-11-12T00:09:16+01:00*%
%TF.ProjectId,gp8-clock,6770382D636C6F636B2E6B696361645F,rev?*%
%TF.FileFunction,Copper,L1,Top,Signal*%
%FSLAX46Y46*%
G04 Gerber Fmt 4.6, Leading zero omitted, Abs format (unit mm)*
G04 Created by KiCad (PCBNEW 0.201511041201+6297~30~ubuntu15.04.1-product) date czw, 12 lis 2015, 00:09:16*
%MOMM*%
G01*
G04 APERTURE LIST*
%ADD10C,0.100000*%
%ADD11C,1.998980*%
%ADD12R,1.498600X0.949960*%
%ADD13O,1.498600X0.949960*%
%ADD14R,2.199640X1.524000*%
%ADD15O,2.199640X1.524000*%
%ADD16C,1.524000*%
%ADD17C,1.000760*%
%ADD18R,1.524000X2.199640*%
%ADD19O,1.524000X2.199640*%
%ADD20C,0.609600*%
%ADD21C,0.711200*%
%ADD22C,0.152400*%
%ADD23C,0.203200*%
%ADD24C,0.406400*%
%ADD25C,0.254000*%
G04 APERTURE END LIST*
D10*
D11*
X174854000Y-93441000D03*
X174854000Y-95981000D03*
X182354000Y-93441000D03*
X182354000Y-95981000D03*
X174854000Y-86941000D03*
X174854000Y-89481000D03*
X182354000Y-86941000D03*
X182354000Y-89481000D03*
D12*
X179705000Y-99715320D03*
D13*
X179705000Y-100965000D03*
X179705000Y-102214680D03*
D11*
X172603560Y-109959800D03*
X177104440Y-116462200D03*
X177104440Y-109959800D03*
X172603560Y-116462200D03*
D14*
X103854000Y-104251000D03*
D15*
X103854000Y-101711000D03*
X103854000Y-99171000D03*
D16*
X155904000Y-90011000D03*
X153364000Y-90011000D03*
X150824000Y-90011000D03*
X148284000Y-90011000D03*
X145744000Y-90011000D03*
X143204000Y-90011000D03*
X140664000Y-90011000D03*
X138124000Y-90011000D03*
X135584000Y-90011000D03*
X133044000Y-90011000D03*
X130504000Y-90011000D03*
X127964000Y-90011000D03*
X125424000Y-90011000D03*
X122884000Y-90011000D03*
X120344000Y-90011000D03*
X117804000Y-90011000D03*
X173414000Y-101711000D03*
X173414000Y-104251000D03*
D17*
X121539000Y-102349300D03*
X121539000Y-100850700D03*
D18*
X183624000Y-113211000D03*
D19*
X181084000Y-113211000D03*
D20*
X136194780Y-95758000D03*
X120813295Y-87299783D03*
X124148005Y-88204854D03*
X110800000Y-97800000D03*
X109854000Y-99171000D03*
X192151000Y-103505000D03*
X166116000Y-102108000D03*
X163703000Y-101727000D03*
X160401000Y-100076000D03*
X159004000Y-100076000D03*
X160909000Y-98806000D03*
X163195000Y-97790000D03*
X166497000Y-97663000D03*
X169164000Y-97663000D03*
X164084000Y-93980000D03*
X166370000Y-94234000D03*
X169164000Y-94107000D03*
X172212000Y-93091000D03*
X177165000Y-91440000D03*
X177165000Y-85979000D03*
X177927000Y-87503000D03*
X178816000Y-85598000D03*
X184785000Y-85471000D03*
X185166000Y-89789000D03*
X185420000Y-93218000D03*
X185420000Y-95631000D03*
X187071000Y-97536000D03*
X187833000Y-94869000D03*
X187452000Y-93091000D03*
X188976000Y-92212909D03*
X189484000Y-94107000D03*
X189357000Y-96393000D03*
X194564000Y-106299000D03*
X192151000Y-108458000D03*
X192278000Y-106426000D03*
X191770000Y-110490000D03*
X189992000Y-110236000D03*
X189992000Y-107442000D03*
X191008000Y-104140000D03*
X189484000Y-104648000D03*
X187833000Y-107696000D03*
X187833000Y-110236000D03*
X187960000Y-105664000D03*
X185166000Y-107696000D03*
X184023000Y-105918000D03*
X180594000Y-107696000D03*
X180467000Y-105664000D03*
X178943000Y-108204000D03*
X178181000Y-106426000D03*
X176403000Y-107569000D03*
X175514000Y-105918000D03*
X173990000Y-108331000D03*
X172466000Y-107061000D03*
X154305000Y-112903000D03*
X148844000Y-112903000D03*
X147701000Y-112903000D03*
X145288000Y-113411000D03*
X145161000Y-116713000D03*
X116840000Y-85344000D03*
X117475000Y-87757000D03*
X119380000Y-88265000D03*
X119634000Y-85090000D03*
X122047000Y-85344000D03*
X124460000Y-86106000D03*
X126492000Y-88138000D03*
X127635000Y-86106000D03*
X128905000Y-88265000D03*
X129667000Y-86233000D03*
X131445000Y-88138000D03*
X132080000Y-86360000D03*
X132461000Y-84709000D03*
X138049000Y-84963000D03*
X138557000Y-87630000D03*
X140716000Y-87630000D03*
X139827000Y-84836000D03*
X143891000Y-88392000D03*
X144653000Y-84836000D03*
X146939000Y-87122000D03*
X147828000Y-85090000D03*
X149606000Y-88138000D03*
X152908000Y-85217000D03*
X155321000Y-88392000D03*
X156337000Y-85979000D03*
X159131000Y-85471000D03*
X159385000Y-89027000D03*
X160020000Y-92964000D03*
X160782000Y-90043000D03*
X161417000Y-87249000D03*
X162179000Y-85090000D03*
X163576000Y-86741000D03*
X163068000Y-89027000D03*
X166497000Y-89662000D03*
X170053000Y-86233000D03*
X169164000Y-88900000D03*
X109093000Y-96012000D03*
X109347000Y-92837000D03*
X110744000Y-94488000D03*
X112395000Y-92583000D03*
X114427000Y-93980000D03*
X115697000Y-92710000D03*
X111760000Y-102870000D03*
X112649000Y-103251000D03*
X111125000Y-106680000D03*
X109093000Y-106426000D03*
X108966000Y-110871000D03*
X110109000Y-110744000D03*
X113538000Y-110998000D03*
X115824000Y-110617000D03*
X117602000Y-112141000D03*
X118745000Y-111252000D03*
X122428000Y-116459000D03*
X123571000Y-118110000D03*
X123444000Y-113792000D03*
X126238000Y-116713000D03*
X128016000Y-114173000D03*
X128524000Y-117094000D03*
X131572000Y-116205000D03*
X131064000Y-113284000D03*
X134239000Y-113665000D03*
X136525000Y-114173000D03*
X138303000Y-118237000D03*
X139954000Y-118491000D03*
X144145000Y-118364000D03*
X146431000Y-118237000D03*
X149606000Y-118237000D03*
X153543000Y-118237000D03*
X138878322Y-95317322D03*
X137541000Y-95377000D03*
X135382000Y-95504000D03*
X131572000Y-95631000D03*
X132842000Y-97790000D03*
X130810000Y-97282000D03*
X129413000Y-95504000D03*
X123190000Y-97028000D03*
X124841000Y-96774000D03*
X121285000Y-97028000D03*
X117602000Y-97155000D03*
X167513000Y-111633000D03*
X164211000Y-109220000D03*
X141122413Y-108678957D03*
X153035000Y-101219000D03*
X154940000Y-99822000D03*
X155321000Y-98425000D03*
X153924000Y-97282000D03*
X151638000Y-109474000D03*
X153289000Y-108712000D03*
X155321000Y-110236000D03*
X153670000Y-111506000D03*
X157734000Y-115697000D03*
X156210000Y-118110000D03*
X157480000Y-112141000D03*
X160147000Y-116586000D03*
X162306000Y-117856000D03*
X164338000Y-113411000D03*
X164846000Y-107823000D03*
X161036000Y-105156000D03*
X159131000Y-106553000D03*
X161671000Y-108331000D03*
X165989000Y-110109000D03*
X166497000Y-113411000D03*
X169291000Y-117221000D03*
X170942000Y-119126000D03*
X175260000Y-119253000D03*
X170942000Y-105791000D03*
X170180000Y-107569000D03*
X168656000Y-110490000D03*
X168910000Y-102235000D03*
X186563000Y-103251000D03*
X184785000Y-102108000D03*
X185547000Y-101981000D03*
X187325000Y-102489000D03*
X167767000Y-90805000D03*
X188087000Y-101600000D03*
X191008000Y-93345000D03*
X190754000Y-94234000D03*
X190754000Y-95123000D03*
X190754000Y-95885000D03*
X141986000Y-106807000D03*
X142875000Y-105918000D03*
X171577000Y-113665000D03*
X136779000Y-108204000D03*
X136398000Y-108966000D03*
X137414000Y-112522000D03*
X136017000Y-112649000D03*
X135128000Y-112649000D03*
X129286000Y-112395000D03*
X116586000Y-112649000D03*
X114935000Y-107823000D03*
X115951000Y-107823000D03*
X115824000Y-106172000D03*
X112776000Y-97790000D03*
X114935000Y-97028000D03*
X116459000Y-98425000D03*
X117602000Y-99441000D03*
X121920000Y-103505000D03*
X120269000Y-103632000D03*
D21*
X140462000Y-104775000D03*
X170942000Y-95250000D03*
X170942000Y-98000040D03*
X159131000Y-103886000D03*
X146239542Y-103276420D03*
X137922000Y-105537006D03*
X147320000Y-107696000D03*
X130175000Y-103886000D03*
X114808000Y-103124000D03*
D20*
X132461000Y-99187000D03*
D21*
X151511000Y-104140000D03*
X140843000Y-97282000D03*
X123952000Y-102997000D03*
D20*
X125095000Y-109474000D03*
X122174000Y-104775000D03*
X123063000Y-106560622D03*
D21*
X141605000Y-109855000D03*
D20*
X125095000Y-102743000D03*
X124079000Y-101346000D03*
X126065692Y-102108333D03*
X125333065Y-100867877D03*
D21*
X120777000Y-106553000D03*
X117983000Y-106680000D03*
X118618000Y-91694000D03*
D20*
X135959750Y-103077548D03*
X121285000Y-91694000D03*
X135080622Y-101695022D03*
X139700000Y-102742987D03*
D21*
X163703000Y-105156000D03*
D20*
X123571000Y-91567000D03*
X135840513Y-101751836D03*
D21*
X126238000Y-91694000D03*
D20*
X136041617Y-100055701D03*
X128651000Y-91694000D03*
X136582823Y-100592131D03*
D21*
X131318000Y-91566996D03*
D20*
X135290911Y-97021474D03*
X136031263Y-97201866D03*
D21*
X133985000Y-92456000D03*
X136525000Y-91947992D03*
D20*
X136780416Y-97062471D03*
X137501303Y-97309421D03*
D21*
X139573000Y-92456000D03*
X141859000Y-92075000D03*
D20*
X138483720Y-97220650D03*
X139954000Y-97155000D03*
D21*
X144526000Y-92456000D03*
D20*
X140231142Y-99780367D03*
D21*
X146939000Y-92456000D03*
D20*
X149098000Y-91694000D03*
X140653113Y-100414877D03*
X151256994Y-91440000D03*
X140219052Y-101041178D03*
X154178000Y-91567000D03*
X139808580Y-101715948D03*
X140462000Y-102108000D03*
D21*
X157099000Y-92456000D03*
D20*
X139573000Y-103505000D03*
D21*
X161798000Y-93980000D03*
X160020000Y-96393000D03*
D20*
X153035000Y-102616000D03*
X137922000Y-108966000D03*
D21*
X139446000Y-109093000D03*
D20*
X180086000Y-97028000D03*
D21*
X183896000Y-101346000D03*
D20*
X124460000Y-108966000D03*
D21*
X121539000Y-106045000D03*
X113700000Y-95378747D03*
X109700000Y-103300000D03*
D20*
X126740116Y-95378747D03*
X135266214Y-102761844D03*
X132842000Y-107568992D03*
X128143000Y-109855000D03*
X134970251Y-104855980D03*
X131851360Y-104800420D03*
X134962637Y-104094006D03*
D21*
X131064000Y-104267000D03*
D20*
X128016000Y-102743000D03*
D21*
X134239000Y-108077000D03*
D22*
X135382000Y-95504000D02*
X135940780Y-95504000D01*
X135940780Y-95504000D02*
X136194780Y-95758000D01*
X122047000Y-86103849D02*
X123792406Y-87849255D01*
X120813295Y-86796889D02*
X120813295Y-87299783D01*
X122047000Y-85344000D02*
X122047000Y-86103849D01*
X119634000Y-85090000D02*
X120813295Y-86269295D01*
X120813295Y-86269295D02*
X120813295Y-86796889D01*
X123792406Y-87849255D02*
X124148005Y-88204854D01*
X110800000Y-98225000D02*
X110800000Y-97800000D01*
X109854000Y-99171000D02*
X110800000Y-98225000D01*
X192151000Y-103505000D02*
X190754000Y-102108000D01*
X170053000Y-86233000D02*
X170053000Y-86995000D01*
X167386000Y-89662000D02*
X166497000Y-89662000D01*
X170053000Y-86995000D02*
X167386000Y-89662000D01*
X166116000Y-102108000D02*
X168783000Y-102108000D01*
X168783000Y-102108000D02*
X168910000Y-102235000D01*
X160401000Y-100076000D02*
X162052000Y-100076000D01*
X162052000Y-100076000D02*
X163703000Y-101727000D01*
X160909000Y-98806000D02*
X160274000Y-98806000D01*
X160274000Y-98806000D02*
X159004000Y-100076000D01*
X166497000Y-97663000D02*
X163322000Y-97663000D01*
X163322000Y-97663000D02*
X163195000Y-97790000D01*
X166370000Y-94234000D02*
X166370000Y-94869000D01*
X166370000Y-94869000D02*
X169164000Y-97663000D01*
X164084000Y-93980000D02*
X163068000Y-92964000D01*
X163068000Y-92964000D02*
X163068000Y-89027000D01*
X169164000Y-94107000D02*
X166497000Y-94107000D01*
X166497000Y-94107000D02*
X166370000Y-94234000D01*
X177165000Y-91440000D02*
X173863000Y-91440000D01*
X173863000Y-91440000D02*
X172212000Y-93091000D01*
X177927000Y-87503000D02*
X177927000Y-86741000D01*
X177927000Y-86741000D02*
X177165000Y-85979000D01*
X184785000Y-85471000D02*
X178943000Y-85471000D01*
X178943000Y-85471000D02*
X178816000Y-85598000D01*
X185420000Y-93218000D02*
X185420000Y-90043000D01*
X185420000Y-90043000D02*
X185166000Y-89789000D01*
X187071000Y-97536000D02*
X185420000Y-95885000D01*
X185420000Y-95885000D02*
X185420000Y-95631000D01*
X187452000Y-93091000D02*
X187452000Y-94488000D01*
X187452000Y-94488000D02*
X187833000Y-94869000D01*
X181764515Y-92212909D02*
X188976000Y-92212909D01*
X188976000Y-92212909D02*
X189875909Y-92212909D01*
X189484000Y-94107000D02*
X189484000Y-92720909D01*
X189484000Y-92720909D02*
X188976000Y-92212909D01*
X194564000Y-106299000D02*
X189357000Y-101092000D01*
X189357000Y-101092000D02*
X189357000Y-96393000D01*
X192278000Y-106426000D02*
X192278000Y-108331000D01*
X192278000Y-108331000D02*
X192151000Y-108458000D01*
X189992000Y-110236000D02*
X191516000Y-110236000D01*
X191516000Y-110236000D02*
X191770000Y-110490000D01*
X191008000Y-104140000D02*
X189992000Y-105156000D01*
X189992000Y-105156000D02*
X189992000Y-107442000D01*
X187833000Y-107696000D02*
X187833000Y-106299000D01*
X187833000Y-106299000D02*
X189484000Y-104648000D01*
X187960000Y-105664000D02*
X187960000Y-110109000D01*
X187960000Y-110109000D02*
X187833000Y-110236000D01*
X184023000Y-105918000D02*
X184023000Y-106553000D01*
X184023000Y-106553000D02*
X185166000Y-107696000D01*
X180467000Y-105664000D02*
X180467000Y-106680000D01*
X180467000Y-106680000D02*
X180594000Y-106807000D01*
X180594000Y-106807000D02*
X180594000Y-107696000D01*
X178181000Y-106426000D02*
X178181000Y-107442000D01*
X178181000Y-107442000D02*
X178943000Y-108204000D01*
X175514000Y-105918000D02*
X175514000Y-106680000D01*
X175514000Y-106680000D02*
X176403000Y-107569000D01*
X172466000Y-107061000D02*
X173736000Y-108331000D01*
X173736000Y-108331000D02*
X173990000Y-108331000D01*
X148844000Y-112903000D02*
X154305000Y-112903000D01*
X145288000Y-113411000D02*
X145796000Y-112903000D01*
X145796000Y-112903000D02*
X147701000Y-112903000D01*
X144145000Y-118364000D02*
X144145000Y-117729000D01*
X144145000Y-117729000D02*
X145161000Y-116713000D01*
X138303000Y-118237000D02*
X138176000Y-118110000D01*
X138176000Y-118110000D02*
X138176000Y-115824000D01*
X138176000Y-115824000D02*
X136525000Y-114173000D01*
X116840000Y-85344000D02*
X116840000Y-85775052D01*
X116840000Y-85775052D02*
X116332000Y-86283052D01*
X116332000Y-86283052D02*
X116332000Y-91643948D01*
X116332000Y-91643948D02*
X115697000Y-92278948D01*
X115697000Y-92278948D02*
X115697000Y-92710000D01*
X119380000Y-88265000D02*
X117983000Y-88265000D01*
X117983000Y-88265000D02*
X117475000Y-87757000D01*
X126492000Y-88138000D02*
X124460000Y-86106000D01*
X128905000Y-88265000D02*
X127635000Y-86995000D01*
X127635000Y-86995000D02*
X127635000Y-86106000D01*
X131445000Y-88138000D02*
X129667000Y-86360000D01*
X129667000Y-86360000D02*
X129667000Y-86233000D01*
X132461000Y-84709000D02*
X132080000Y-85090000D01*
X132080000Y-85090000D02*
X132080000Y-86360000D01*
X138557000Y-87630000D02*
X138557000Y-85471000D01*
X138557000Y-85471000D02*
X138049000Y-84963000D01*
X139827000Y-84836000D02*
X140716000Y-85725000D01*
X140716000Y-85725000D02*
X140716000Y-87630000D01*
X144653000Y-84836000D02*
X143891000Y-85598000D01*
X143891000Y-85598000D02*
X143891000Y-88392000D01*
X147828000Y-85090000D02*
X147828000Y-86233000D01*
X147828000Y-86233000D02*
X146939000Y-87122000D01*
X152908000Y-85217000D02*
X149987000Y-88138000D01*
X149987000Y-88138000D02*
X149606000Y-88138000D01*
X156337000Y-85979000D02*
X156337000Y-87376000D01*
X156337000Y-87376000D02*
X155321000Y-88392000D01*
X159385000Y-89027000D02*
X159385000Y-85725000D01*
X159385000Y-85725000D02*
X159131000Y-85471000D01*
X160782000Y-90043000D02*
X160782000Y-92202000D01*
X160782000Y-92202000D02*
X160020000Y-92964000D01*
X162179000Y-85090000D02*
X162179000Y-86487000D01*
X162179000Y-86487000D02*
X161417000Y-87249000D01*
X163068000Y-89027000D02*
X163068000Y-87249000D01*
X163068000Y-87249000D02*
X163576000Y-86741000D01*
X167767000Y-90805000D02*
X167767000Y-90297000D01*
X167767000Y-90297000D02*
X169164000Y-88900000D01*
X109093000Y-96012000D02*
X109854000Y-96773000D01*
X109854000Y-96773000D02*
X109854000Y-99171000D01*
X110744000Y-94488000D02*
X109347000Y-93091000D01*
X109347000Y-93091000D02*
X109347000Y-92837000D01*
X114427000Y-93980000D02*
X113030000Y-92583000D01*
X113030000Y-92583000D02*
X112395000Y-92583000D01*
X111760000Y-102870000D02*
X115697000Y-98933000D01*
X115697000Y-98933000D02*
X115697000Y-92710000D01*
X111125000Y-106680000D02*
X112649000Y-105156000D01*
X112649000Y-105156000D02*
X112649000Y-103251000D01*
X108966000Y-110871000D02*
X108966000Y-106553000D01*
X108966000Y-106553000D02*
X109093000Y-106426000D01*
X113538000Y-110998000D02*
X110363000Y-110998000D01*
X110363000Y-110998000D02*
X110109000Y-110744000D01*
X117602000Y-112141000D02*
X116078000Y-110617000D01*
X116078000Y-110617000D02*
X115824000Y-110617000D01*
X122428000Y-116459000D02*
X118745000Y-112776000D01*
X118745000Y-112776000D02*
X118745000Y-111252000D01*
X123444000Y-113792000D02*
X123444000Y-117983000D01*
X123444000Y-117983000D02*
X123571000Y-118110000D01*
X128016000Y-114173000D02*
X126238000Y-115951000D01*
X126238000Y-115951000D02*
X126238000Y-116713000D01*
X131572000Y-116205000D02*
X130683000Y-117094000D01*
X130683000Y-117094000D02*
X128524000Y-117094000D01*
X134239000Y-113665000D02*
X133858000Y-113284000D01*
X133858000Y-113284000D02*
X131064000Y-113284000D01*
X144145000Y-118364000D02*
X140081000Y-118364000D01*
X140081000Y-118364000D02*
X139954000Y-118491000D01*
X149606000Y-118237000D02*
X146431000Y-118237000D01*
X156210000Y-118110000D02*
X153670000Y-118110000D01*
X153670000Y-118110000D02*
X153543000Y-118237000D01*
X137541000Y-95377000D02*
X138818644Y-95377000D01*
X138818644Y-95377000D02*
X138878322Y-95317322D01*
X132842000Y-97790000D02*
X131572000Y-96520000D01*
X131572000Y-96520000D02*
X131572000Y-95631000D01*
X129413000Y-95504000D02*
X130810000Y-96901000D01*
X130810000Y-96901000D02*
X130810000Y-97282000D01*
X124841000Y-96774000D02*
X123444000Y-96774000D01*
X123444000Y-96774000D02*
X123190000Y-97028000D01*
X117602000Y-97155000D02*
X121158000Y-97155000D01*
X121158000Y-97155000D02*
X121285000Y-97028000D01*
X167944052Y-111633000D02*
X167513000Y-111633000D01*
X168579799Y-111582201D02*
X168529000Y-111633000D01*
X168656000Y-110490000D02*
X168656000Y-111506000D01*
X168656000Y-111506000D02*
X168579799Y-111582201D01*
X168529000Y-111633000D02*
X167944052Y-111633000D01*
X164515799Y-108915201D02*
X164211000Y-109220000D01*
X164846000Y-107823000D02*
X164846000Y-108585000D01*
X164846000Y-108585000D02*
X164515799Y-108915201D01*
X140817614Y-108374158D02*
X141122413Y-108678957D01*
X140647456Y-108204000D02*
X140817614Y-108374158D01*
X136779000Y-108204000D02*
X140647456Y-108204000D01*
X154940000Y-99822000D02*
X153543000Y-101219000D01*
X153543000Y-101219000D02*
X153035000Y-101219000D01*
X153924000Y-97282000D02*
X155067000Y-98425000D01*
X155067000Y-98425000D02*
X155321000Y-98425000D01*
X153289000Y-108712000D02*
X152527000Y-109474000D01*
X152527000Y-109474000D02*
X151638000Y-109474000D01*
X153670000Y-111506000D02*
X154940000Y-110236000D01*
X154940000Y-110236000D02*
X155321000Y-110236000D01*
X156210000Y-118110000D02*
X156210000Y-117221000D01*
X156210000Y-117221000D02*
X157734000Y-115697000D01*
X160147000Y-116586000D02*
X160147000Y-114808000D01*
X160147000Y-114808000D02*
X157480000Y-112141000D01*
X164338000Y-113411000D02*
X164338000Y-115824000D01*
X164338000Y-115824000D02*
X162306000Y-117856000D01*
X159131000Y-106553000D02*
X159639000Y-106553000D01*
X159639000Y-106553000D02*
X161036000Y-105156000D01*
X165989000Y-110109000D02*
X163449000Y-110109000D01*
X163449000Y-110109000D02*
X161671000Y-108331000D01*
X169291000Y-117221000D02*
X169291000Y-116205000D01*
X169291000Y-116205000D02*
X166497000Y-113411000D01*
X175260000Y-119253000D02*
X171069000Y-119253000D01*
X171069000Y-119253000D02*
X170942000Y-119126000D01*
X170180000Y-107569000D02*
X170180000Y-106553000D01*
X170180000Y-106553000D02*
X170942000Y-105791000D01*
X178803300Y-100965000D02*
X178558699Y-100720399D01*
X178558699Y-100720399D02*
X170424601Y-100720399D01*
X170424601Y-100720399D02*
X168910000Y-102235000D01*
X184785000Y-102108000D02*
X185928000Y-103251000D01*
X185928000Y-103251000D02*
X186563000Y-103251000D01*
X187325000Y-102489000D02*
X186055000Y-102489000D01*
X186055000Y-102489000D02*
X185547000Y-101981000D01*
X181764515Y-92212909D02*
X169174909Y-92212909D01*
X169174909Y-92212909D02*
X167767000Y-90805000D01*
X179705000Y-100965000D02*
X178803300Y-100965000D01*
X178803300Y-100965000D02*
X178727099Y-100888799D01*
X178727099Y-95250325D02*
X181764515Y-92212909D01*
X178727099Y-100888799D02*
X178727099Y-95250325D01*
X189875909Y-92212909D02*
X190703201Y-93040201D01*
X190703201Y-93040201D02*
X191008000Y-93345000D01*
X190754000Y-102108000D02*
X188595000Y-102108000D01*
X188595000Y-102108000D02*
X188087000Y-101600000D01*
X190754000Y-94234000D02*
X190754000Y-93599000D01*
X190754000Y-93599000D02*
X191008000Y-93345000D01*
X190754000Y-102108000D02*
X190754000Y-95885000D01*
X142875000Y-105918000D02*
X141986000Y-106807000D01*
X171577000Y-113665000D02*
X172720000Y-113665000D01*
X172720000Y-113665000D02*
X175517200Y-116462200D01*
X175517200Y-116462200D02*
X177104440Y-116462200D01*
X136398000Y-108966000D02*
X136398000Y-108585000D01*
X136398000Y-108585000D02*
X136779000Y-108204000D01*
X136017000Y-112649000D02*
X137287000Y-112649000D01*
X137287000Y-112649000D02*
X137414000Y-112522000D01*
X129286000Y-112395000D02*
X134874000Y-112395000D01*
X134874000Y-112395000D02*
X135128000Y-112649000D01*
X114935000Y-107823000D02*
X114935000Y-110998000D01*
X114935000Y-110998000D02*
X116586000Y-112649000D01*
X115824000Y-106172000D02*
X115824000Y-107696000D01*
X115824000Y-107696000D02*
X115951000Y-107823000D01*
X114935000Y-97028000D02*
X113538000Y-97028000D01*
X113538000Y-97028000D02*
X112776000Y-97790000D01*
X117602000Y-99441000D02*
X116586000Y-98425000D01*
X116586000Y-98425000D02*
X116459000Y-98425000D01*
X120269000Y-103632000D02*
X121793000Y-103632000D01*
X121793000Y-103632000D02*
X121920000Y-103505000D01*
D23*
X146050000Y-103835201D02*
X141401799Y-103835201D01*
X140766799Y-104470201D02*
X140462000Y-104775000D01*
X141401799Y-103835201D02*
X140766799Y-104470201D01*
X138557004Y-104902002D02*
X140030948Y-104902002D01*
X140334998Y-104902002D02*
X140462000Y-104775000D01*
X140030948Y-104902002D02*
X140334998Y-104902002D01*
X139954002Y-104902002D02*
X140030948Y-104902002D01*
X139148179Y-104096179D02*
X139954002Y-104902002D01*
X137922000Y-105537006D02*
X138557004Y-104902002D01*
X140538201Y-97586799D02*
X140843000Y-97282000D01*
X139148179Y-104096179D02*
X138912598Y-103860598D01*
X138912598Y-103860598D02*
X138912598Y-99212402D01*
X138912598Y-99212402D02*
X140538201Y-97586799D01*
X170942000Y-98000040D02*
X170942000Y-95250000D01*
X159131000Y-103886000D02*
X158826201Y-103581201D01*
X158826201Y-103581201D02*
X152069799Y-103581201D01*
X152069799Y-103581201D02*
X151815799Y-103835201D01*
X151815799Y-103835201D02*
X151511000Y-104140000D01*
X146050000Y-103835201D02*
X146111813Y-103835201D01*
X146111813Y-103835201D02*
X146239542Y-103707472D01*
X146239542Y-103707472D02*
X146239542Y-103276420D01*
X131897853Y-106039905D02*
X137419101Y-106039905D01*
X137617201Y-105841805D02*
X137922000Y-105537006D01*
X137419101Y-106039905D02*
X137617201Y-105841805D01*
X130175000Y-104317052D02*
X131897853Y-106039905D01*
X130175000Y-103886000D02*
X130175000Y-104317052D01*
X147320000Y-103835201D02*
X146050000Y-103835201D01*
X151206201Y-103835201D02*
X147320000Y-103835201D01*
X147320000Y-107264948D02*
X147320000Y-103835201D01*
X147320000Y-107696000D02*
X147320000Y-107264948D01*
X126441201Y-103682799D02*
X126441201Y-103340405D01*
X126441201Y-103340405D02*
X127699007Y-102082599D01*
X127699007Y-102082599D02*
X128371599Y-102082599D01*
X128371599Y-102082599D02*
X129870201Y-103581201D01*
X129870201Y-103581201D02*
X130175000Y-103886000D01*
X126441201Y-105486201D02*
X126441201Y-103682799D01*
X126441201Y-103682799D02*
X126492000Y-103632000D01*
X130175000Y-103759000D02*
X130175000Y-103886000D01*
X122174000Y-104775000D02*
X116459000Y-104775000D01*
X116459000Y-104775000D02*
X114808000Y-103124000D01*
X135768103Y-100716103D02*
X139148179Y-104096179D01*
X132461000Y-99187000D02*
X133990103Y-100716103D01*
X133990103Y-100716103D02*
X135768103Y-100716103D01*
X124137421Y-105486201D02*
X122885201Y-105486201D01*
X122885201Y-105486201D02*
X122174000Y-104775000D01*
X126441201Y-105486201D02*
X124137421Y-105486201D01*
X124137421Y-105486201D02*
X123063000Y-106560622D01*
X126441201Y-105486201D02*
X126441201Y-108127799D01*
X126441201Y-108127799D02*
X125095000Y-109474000D01*
X126441201Y-105486201D02*
X124256799Y-103301799D01*
X124256799Y-103301799D02*
X123952000Y-102997000D01*
X151511000Y-104140000D02*
X151206201Y-103835201D01*
X123952000Y-102997000D02*
X122174000Y-104775000D01*
X125095000Y-109474000D02*
X125095000Y-109042948D01*
D22*
X125095000Y-109042948D02*
X124993401Y-108941349D01*
X124993401Y-108941349D02*
X124993401Y-108491023D01*
D23*
X124993401Y-108491023D02*
X123367799Y-106865421D01*
X123367799Y-106865421D02*
X123063000Y-106560622D01*
X123063000Y-106560622D02*
X123063000Y-105664000D01*
X141605000Y-109855000D02*
X142519401Y-108940599D01*
X170168360Y-112395000D02*
X171604071Y-110959289D01*
D22*
X142519401Y-108940599D02*
X152270967Y-108940599D01*
X152270967Y-108940599D02*
X153032967Y-108178599D01*
D23*
X171604071Y-110959289D02*
X172603560Y-109959800D01*
D22*
X153032967Y-108178599D02*
X159105599Y-108178599D01*
D23*
X159105599Y-108178599D02*
X163322000Y-112395000D01*
X163322000Y-112395000D02*
X170168360Y-112395000D01*
X182354000Y-89481000D02*
X174854000Y-89481000D01*
X124079000Y-101346000D02*
X125095000Y-102362000D01*
X125095000Y-102362000D02*
X125095000Y-102743000D01*
X126065692Y-102108333D02*
X125333065Y-101375706D01*
X125333065Y-101375706D02*
X125333065Y-101298929D01*
X125333065Y-101298929D02*
X125333065Y-100867877D01*
X117983000Y-106680000D02*
X120650000Y-106680000D01*
X120650000Y-106680000D02*
X120777000Y-106553000D01*
D22*
X118618000Y-92075000D02*
X118618000Y-91694000D01*
X118999000Y-92456000D02*
X118618000Y-92075000D01*
X123063000Y-92456000D02*
X118999000Y-92456000D01*
X133989347Y-103382347D02*
X123063000Y-92456000D01*
D23*
X133989347Y-103382347D02*
X135654951Y-103382347D01*
X135654951Y-103382347D02*
X135959750Y-103077548D01*
X122732066Y-91694000D02*
X121716052Y-91694000D01*
X122960646Y-91922580D02*
X122732066Y-91694000D01*
X121716052Y-91694000D02*
X121285000Y-91694000D01*
D22*
X126996150Y-94845345D02*
X125883411Y-94845345D01*
D23*
X135080622Y-101695022D02*
X133718827Y-101695022D01*
D22*
X127273518Y-95249713D02*
X127273518Y-95122713D01*
X127273518Y-95122713D02*
X126996150Y-94845345D01*
X133718827Y-101695022D02*
X127273518Y-95249713D01*
X125883411Y-94845345D02*
X122960646Y-91922580D01*
D23*
X140131052Y-102742987D02*
X139700000Y-102742987D01*
D22*
X140893067Y-102742987D02*
X140131052Y-102742987D01*
X141553456Y-102082598D02*
X140893067Y-102742987D01*
X160629598Y-102082598D02*
X141553456Y-102082598D01*
D23*
X163703000Y-105156000D02*
X160629598Y-102082598D01*
X123875799Y-91871799D02*
X123571000Y-91567000D01*
X124375281Y-92371281D02*
X123875799Y-91871799D01*
X124953153Y-92371281D02*
X124375281Y-92371281D01*
D22*
X127578329Y-95123457D02*
X127578329Y-94996457D01*
X133616492Y-101161620D02*
X127578329Y-95123457D01*
X135336656Y-101161620D02*
X133616492Y-101161620D01*
D23*
X135840513Y-101751836D02*
X135840513Y-101665477D01*
D22*
X127578329Y-94996457D02*
X124953153Y-92371281D01*
X135840513Y-101665477D02*
X135336656Y-101161620D01*
X129696758Y-92684599D02*
X127228599Y-92684599D01*
X135736818Y-98724659D02*
X129696758Y-92684599D01*
X135736818Y-99750902D02*
X135736818Y-98724659D01*
X126593599Y-92049599D02*
X126238000Y-91694000D01*
X127228599Y-92684599D02*
X126593599Y-92049599D01*
D23*
X135736818Y-99750902D02*
X136041617Y-100055701D01*
X129082052Y-91694000D02*
X128651000Y-91694000D01*
X129437647Y-91922580D02*
X129209067Y-91694000D01*
X129209067Y-91694000D02*
X129082052Y-91694000D01*
D22*
X136582823Y-99067756D02*
X129437647Y-91922580D01*
X136582823Y-100592131D02*
X136582823Y-99067756D01*
D23*
X131318000Y-92069890D02*
X131318000Y-91566996D01*
X131318000Y-93048563D02*
X131318000Y-92069890D01*
X135290911Y-97021474D02*
X131318000Y-93048563D01*
X133985000Y-92456000D02*
X133985000Y-94869000D01*
D22*
X133985000Y-94869000D02*
X135886814Y-96770814D01*
D23*
X136031263Y-96770814D02*
X136031263Y-97201866D01*
X135886814Y-96770814D02*
X136031263Y-96770814D01*
D22*
X136525000Y-92450886D02*
X136525000Y-91947992D01*
X136779000Y-97061055D02*
X136779000Y-92704886D01*
X136779000Y-92704886D02*
X136525000Y-92450886D01*
D23*
X136779000Y-97061055D02*
X136780416Y-97062471D01*
X137501303Y-96878369D02*
X137501303Y-97309421D01*
D22*
X138071631Y-96878369D02*
X137501303Y-96878369D01*
X139573000Y-95377000D02*
X138071631Y-96878369D01*
D23*
X139573000Y-92456000D02*
X139573000Y-95377000D01*
D22*
X141859000Y-93802934D02*
X141859000Y-92577894D01*
X138788519Y-96873415D02*
X141859000Y-93802934D01*
X141859000Y-92577894D02*
X141859000Y-92075000D01*
D23*
X138788519Y-96915851D02*
X138483720Y-97220650D01*
X138788519Y-96873415D02*
X138788519Y-96915851D01*
D22*
X143637000Y-93472000D02*
X140258799Y-96850201D01*
X143637000Y-92456000D02*
X143637000Y-93472000D01*
X140258799Y-96850201D02*
X139954000Y-97155000D01*
D23*
X144526000Y-92456000D02*
X143637000Y-92456000D01*
X140535941Y-99475568D02*
X140231142Y-99780367D01*
X146939000Y-93072509D02*
X140535941Y-99475568D01*
X146939000Y-92456000D02*
X146939000Y-93072509D01*
X149098000Y-91969990D02*
X149098000Y-91694000D01*
X140653113Y-100414877D02*
X149098000Y-91969990D01*
X150825942Y-91440000D02*
X151256994Y-91440000D01*
X150521867Y-91440000D02*
X150825942Y-91440000D01*
X150344098Y-91617769D02*
X150521867Y-91440000D01*
D22*
X140650104Y-101041178D02*
X140700904Y-100990378D01*
X140700904Y-100990378D02*
X140971489Y-100990378D01*
X140219052Y-101041178D02*
X140650104Y-101041178D01*
X140971489Y-100990378D02*
X150344098Y-91617769D01*
X153781209Y-91922580D02*
X153822420Y-91922580D01*
X153822420Y-91922580D02*
X153873201Y-91871799D01*
D23*
X153873201Y-91871799D02*
X154178000Y-91567000D01*
D22*
X139808580Y-101715948D02*
X139949930Y-101574598D01*
X140843744Y-101295189D02*
X141097745Y-101295189D01*
X140564335Y-101574598D02*
X140843744Y-101295189D01*
X139949930Y-101574598D02*
X140564335Y-101574598D01*
X150241744Y-92151189D02*
X153552600Y-92151189D01*
X153552600Y-92151189D02*
X153781209Y-91922580D01*
X141097745Y-101295189D02*
X150241744Y-92151189D01*
X150368000Y-92456000D02*
X141224000Y-101600000D01*
X140970000Y-101600000D02*
X140462000Y-102108000D01*
X157099000Y-92456000D02*
X150368000Y-92456000D01*
X141224000Y-101600000D02*
X140970000Y-101600000D01*
D23*
X140004052Y-103505000D02*
X139573000Y-103505000D01*
X140588998Y-103505000D02*
X140004052Y-103505000D01*
D22*
X153035000Y-102616000D02*
X141477998Y-102616000D01*
X141477998Y-102616000D02*
X140588998Y-103505000D01*
D23*
X160020000Y-96393000D02*
X161798000Y-94615000D01*
X161798000Y-94615000D02*
X161798000Y-93980000D01*
X138049000Y-109093000D02*
X137922000Y-108966000D01*
X139446000Y-109093000D02*
X138049000Y-109093000D01*
X180086000Y-97536000D02*
X180086000Y-97028000D01*
X183896000Y-101346000D02*
X180086000Y-97536000D01*
X121539000Y-106045000D02*
X124460000Y-108966000D01*
X109700000Y-103300000D02*
X111333401Y-101666599D01*
D22*
X111333401Y-101666599D02*
X111333401Y-97745346D01*
X111333401Y-97745346D02*
X113700000Y-95378747D01*
D23*
X127044915Y-95683546D02*
X126740116Y-95378747D01*
X134123213Y-102761844D02*
X127044915Y-95683546D01*
X135266214Y-102761844D02*
X134123213Y-102761844D01*
X132537201Y-107873791D02*
X132842000Y-107568992D01*
X130555992Y-109855000D02*
X132537201Y-107873791D01*
X128143000Y-109855000D02*
X130555992Y-109855000D01*
X134914691Y-104800420D02*
X134970251Y-104855980D01*
X131851360Y-104800420D02*
X134914691Y-104800420D01*
D22*
X131064000Y-104267000D02*
X134789643Y-104267000D01*
D23*
X134789643Y-104267000D02*
X134962637Y-104094006D01*
X128016000Y-102743000D02*
X128016000Y-103174052D01*
X128016000Y-103174052D02*
X131699000Y-106857052D01*
X133934201Y-107772201D02*
X134239000Y-108077000D01*
X131699000Y-106857052D02*
X133019052Y-106857052D01*
X133019052Y-106857052D02*
X133934201Y-107772201D01*
D24*
X179705000Y-99715320D02*
X179979320Y-99715320D01*
X179979320Y-99715320D02*
X183362599Y-103098599D01*
X183362599Y-103098599D02*
X183362599Y-111443379D01*
X183362599Y-111443379D02*
X183624000Y-111704780D01*
X183624000Y-111704780D02*
X183624000Y-113211000D01*
D25*
G36*
X123252064Y-78319017D02*
X123304207Y-78581155D01*
X123452696Y-78803385D01*
X123674926Y-78951874D01*
X123937064Y-79004017D01*
X125757177Y-79004017D01*
X126019315Y-78951874D01*
X126241545Y-78803385D01*
X126390034Y-78581155D01*
X126442177Y-78319017D01*
X126442177Y-77786934D01*
X126653615Y-77786934D01*
X126653615Y-78319017D01*
X126705758Y-78581155D01*
X126854247Y-78803385D01*
X127076477Y-78951874D01*
X127338615Y-79004017D01*
X129159279Y-79004017D01*
X129421417Y-78951874D01*
X129643647Y-78803385D01*
X129792136Y-78581155D01*
X129844279Y-78319017D01*
X129844279Y-77786934D01*
X173657946Y-77786934D01*
X173657946Y-78319017D01*
X173710089Y-78581155D01*
X173858578Y-78803385D01*
X174080808Y-78951874D01*
X174342946Y-79004017D01*
X176163059Y-79004017D01*
X176425197Y-78951874D01*
X176647427Y-78803385D01*
X176795916Y-78581155D01*
X176848059Y-78319017D01*
X176848059Y-77786934D01*
X177059495Y-77786934D01*
X177059495Y-78319017D01*
X177111638Y-78581155D01*
X177260127Y-78803385D01*
X177482357Y-78951874D01*
X177744495Y-79004017D01*
X179565161Y-79004017D01*
X179827299Y-78951874D01*
X180049529Y-78803385D01*
X180198018Y-78581155D01*
X180250161Y-78319017D01*
X180250161Y-77786934D01*
X192838584Y-77786934D01*
X192838584Y-83658088D01*
X192846107Y-83695906D01*
X192842840Y-83734324D01*
X192881606Y-84080481D01*
X192904593Y-84152769D01*
X192914899Y-84227924D01*
X193026143Y-84549926D01*
X193062795Y-84612625D01*
X193087551Y-84680900D01*
X193263691Y-84971960D01*
X193310126Y-85022758D01*
X193345995Y-85081497D01*
X193579448Y-85334842D01*
X193632446Y-85373474D01*
X193676616Y-85421946D01*
X193959804Y-85630794D01*
X194017205Y-85657754D01*
X194067788Y-85695999D01*
X194393125Y-85853569D01*
X194453459Y-85869276D01*
X194509159Y-85897298D01*
X194869064Y-85996812D01*
X194930936Y-86001362D01*
X194990460Y-86018850D01*
X195377350Y-86053529D01*
X195408136Y-86050224D01*
X195438507Y-86056265D01*
X201615000Y-86056265D01*
X201615000Y-95000000D01*
X201667143Y-95262138D01*
X201815632Y-95484368D01*
X202037862Y-95632857D01*
X202184000Y-95661926D01*
X202184000Y-99870937D01*
X202037514Y-99724195D01*
X201657694Y-99566480D01*
X201246431Y-99566121D01*
X200866336Y-99723173D01*
X200575275Y-100013726D01*
X200417560Y-100393546D01*
X200417201Y-100804809D01*
X200574253Y-101184904D01*
X200864806Y-101475965D01*
X201244626Y-101633680D01*
X201655889Y-101634039D01*
X202035984Y-101476987D01*
X202184000Y-101329229D01*
X202184000Y-103665693D01*
X202040054Y-103521495D01*
X201660234Y-103363780D01*
X201248971Y-103363421D01*
X200868876Y-103520473D01*
X200577815Y-103811026D01*
X200420100Y-104190846D01*
X200419741Y-104602109D01*
X200576793Y-104982204D01*
X200867346Y-105273265D01*
X201247166Y-105430980D01*
X201658429Y-105431339D01*
X202038524Y-105274287D01*
X202184000Y-105129065D01*
X202184000Y-109238074D01*
X202037862Y-109267143D01*
X201815632Y-109415632D01*
X201667143Y-109637862D01*
X201615000Y-109900000D01*
X201615000Y-118905709D01*
X195438507Y-118905709D01*
X195408119Y-118911754D01*
X195377312Y-118908448D01*
X194990422Y-118943150D01*
X194930865Y-118960651D01*
X194868956Y-118965214D01*
X194509052Y-119064791D01*
X194453342Y-119092829D01*
X194392987Y-119108556D01*
X194067650Y-119266216D01*
X194017069Y-119304477D01*
X193959677Y-119331449D01*
X193676488Y-119540398D01*
X193632334Y-119588874D01*
X193579355Y-119627509D01*
X193345901Y-119880956D01*
X193310054Y-119939686D01*
X193263642Y-119990473D01*
X193087502Y-120281624D01*
X193062764Y-120349876D01*
X193026130Y-120412553D01*
X192914887Y-120734613D01*
X192904587Y-120809749D01*
X192881605Y-120882025D01*
X192842839Y-121228208D01*
X192846106Y-121266624D01*
X192838584Y-121304439D01*
X192838584Y-127365210D01*
X180250161Y-127365210D01*
X180250161Y-126688158D01*
X180198018Y-126426020D01*
X180049529Y-126203790D01*
X179827299Y-126055301D01*
X179565161Y-126003158D01*
X177744495Y-126003158D01*
X177482357Y-126055301D01*
X177260127Y-126203790D01*
X177111638Y-126426020D01*
X177059495Y-126688158D01*
X177059495Y-127365210D01*
X176848059Y-127365210D01*
X176848059Y-126688158D01*
X176795916Y-126426020D01*
X176647427Y-126203790D01*
X176425197Y-126055301D01*
X176163059Y-126003158D01*
X174342946Y-126003158D01*
X174080808Y-126055301D01*
X173858578Y-126203790D01*
X173710089Y-126426020D01*
X173657946Y-126688158D01*
X173657946Y-127365210D01*
X129844279Y-127365210D01*
X129844279Y-126688158D01*
X129792136Y-126426020D01*
X129643647Y-126203790D01*
X129421417Y-126055301D01*
X129159279Y-126003158D01*
X127338615Y-126003158D01*
X127076477Y-126055301D01*
X126854247Y-126203790D01*
X126705758Y-126426020D01*
X126653615Y-126688158D01*
X126653615Y-127365210D01*
X126442177Y-127365210D01*
X126442177Y-126688158D01*
X126390034Y-126426020D01*
X126241545Y-126203790D01*
X126019315Y-126055301D01*
X125757177Y-126003158D01*
X123937064Y-126003158D01*
X123674926Y-126055301D01*
X123452696Y-126203790D01*
X123304207Y-126426020D01*
X123252064Y-126688158D01*
X123252064Y-127365210D01*
X110650410Y-127365210D01*
X110650410Y-124557889D01*
X131856057Y-124557889D01*
X131862665Y-124626561D01*
X131856057Y-124695233D01*
X131880751Y-124940315D01*
X131900899Y-125006200D01*
X131908095Y-125074722D01*
X131978955Y-125302992D01*
X132011135Y-125362272D01*
X132031128Y-125426689D01*
X132143250Y-125633256D01*
X132185562Y-125684144D01*
X132216911Y-125742426D01*
X132365405Y-125922403D01*
X132416294Y-125963943D01*
X132457830Y-126014827D01*
X132637806Y-126163321D01*
X132696088Y-126194670D01*
X132746977Y-126236983D01*
X132953543Y-126349104D01*
X133017961Y-126369097D01*
X133077239Y-126401276D01*
X133305508Y-126472136D01*
X133374030Y-126479332D01*
X133439914Y-126499480D01*
X133684996Y-126524175D01*
X133753670Y-126517567D01*
X133822344Y-126524175D01*
X134067426Y-126499480D01*
X134133310Y-126479332D01*
X134201831Y-126472136D01*
X134430101Y-126401276D01*
X134489380Y-126369096D01*
X134553795Y-126349104D01*
X134760362Y-126236983D01*
X134811249Y-126194672D01*
X134869537Y-126163320D01*
X135049512Y-126014826D01*
X135091051Y-125963939D01*
X135141933Y-125922404D01*
X135290428Y-125742428D01*
X135321779Y-125684142D01*
X135364092Y-125633253D01*
X135476213Y-125426686D01*
X135496205Y-125362271D01*
X135528385Y-125302992D01*
X135599245Y-125074723D01*
X135606441Y-125006201D01*
X135626589Y-124940317D01*
X135651284Y-124695235D01*
X135647955Y-124660644D01*
X135654735Y-124626561D01*
X135647955Y-124592478D01*
X135651283Y-124557889D01*
X167889781Y-124557889D01*
X167896389Y-124626561D01*
X167889781Y-124695233D01*
X167914475Y-124940315D01*
X167934623Y-125006200D01*
X167941819Y-125074722D01*
X168012679Y-125302992D01*
X168044859Y-125362271D01*
X168064851Y-125426686D01*
X168176972Y-125633255D01*
X168219286Y-125684145D01*
X168250635Y-125742428D01*
X168399129Y-125922405D01*
X168450018Y-125963946D01*
X168491557Y-126014832D01*
X168671533Y-126163323D01*
X168729815Y-126194672D01*
X168780705Y-126236985D01*
X168987274Y-126349106D01*
X169051690Y-126369098D01*
X169110966Y-126401276D01*
X169339235Y-126472136D01*
X169407757Y-126479332D01*
X169473641Y-126499480D01*
X169718723Y-126524175D01*
X169787397Y-126517567D01*
X169856071Y-126524175D01*
X170101153Y-126499480D01*
X170167037Y-126479332D01*
X170235558Y-126472136D01*
X170463828Y-126401276D01*
X170523106Y-126369097D01*
X170587524Y-126349104D01*
X170794089Y-126236983D01*
X170844977Y-126194671D01*
X170903261Y-126163321D01*
X171083238Y-126014827D01*
X171124778Y-125963938D01*
X171175662Y-125922402D01*
X171324156Y-125742426D01*
X171355505Y-125684144D01*
X171397817Y-125633256D01*
X171509939Y-125426688D01*
X171529931Y-125362273D01*
X171562112Y-125302992D01*
X171632972Y-125074723D01*
X171640168Y-125006201D01*
X171660316Y-124940317D01*
X171685011Y-124695235D01*
X171681682Y-124660644D01*
X171688462Y-124626561D01*
X171681682Y-124592478D01*
X171685011Y-124557887D01*
X171660316Y-124312805D01*
X171640167Y-124246918D01*
X171632971Y-124178398D01*
X171562111Y-123950130D01*
X171529932Y-123890852D01*
X171509939Y-123826435D01*
X171397817Y-123619867D01*
X171355505Y-123568979D01*
X171324156Y-123510697D01*
X171175662Y-123330721D01*
X171124778Y-123289185D01*
X171083238Y-123238296D01*
X170903261Y-123089802D01*
X170844978Y-123058452D01*
X170794092Y-123016142D01*
X170587526Y-122904020D01*
X170523109Y-122884027D01*
X170463828Y-122851846D01*
X170235558Y-122780986D01*
X170167036Y-122773790D01*
X170101151Y-122753642D01*
X169856069Y-122728948D01*
X169787397Y-122735556D01*
X169718725Y-122728948D01*
X169473643Y-122753642D01*
X169407759Y-122773789D01*
X169339241Y-122780985D01*
X169110971Y-122851843D01*
X169051695Y-122884021D01*
X168987274Y-122904014D01*
X168780705Y-123016135D01*
X168729815Y-123058448D01*
X168671530Y-123089799D01*
X168491554Y-123238293D01*
X168450018Y-123289177D01*
X168399129Y-123330717D01*
X168250635Y-123510694D01*
X168219285Y-123568979D01*
X168176972Y-123619868D01*
X168064850Y-123826438D01*
X168044858Y-123890853D01*
X168012679Y-123950130D01*
X167941820Y-124178399D01*
X167934624Y-124246919D01*
X167914475Y-124312807D01*
X167889781Y-124557889D01*
X135651283Y-124557889D01*
X135651284Y-124557887D01*
X135626589Y-124312805D01*
X135606440Y-124246918D01*
X135599244Y-124178398D01*
X135528384Y-123950130D01*
X135496206Y-123890854D01*
X135476213Y-123826437D01*
X135364092Y-123619870D01*
X135321779Y-123568981D01*
X135290428Y-123510695D01*
X135141933Y-123330719D01*
X135091051Y-123289184D01*
X135049512Y-123238297D01*
X134869537Y-123089803D01*
X134811252Y-123058453D01*
X134760365Y-123016141D01*
X134553798Y-122904019D01*
X134489381Y-122884026D01*
X134430101Y-122851846D01*
X134201831Y-122780986D01*
X134133309Y-122773790D01*
X134067424Y-122753642D01*
X133822342Y-122728948D01*
X133753670Y-122735556D01*
X133684998Y-122728948D01*
X133439916Y-122753642D01*
X133374032Y-122773790D01*
X133305508Y-122780986D01*
X133077239Y-122851846D01*
X133017961Y-122884025D01*
X132953541Y-122904019D01*
X132746975Y-123016142D01*
X132696089Y-123058452D01*
X132637806Y-123089802D01*
X132457830Y-123238296D01*
X132416294Y-123289180D01*
X132365405Y-123330720D01*
X132216911Y-123510697D01*
X132185562Y-123568979D01*
X132143250Y-123619867D01*
X132031128Y-123826434D01*
X132011136Y-123890851D01*
X131978955Y-123950130D01*
X131908096Y-124178399D01*
X131900900Y-124246919D01*
X131880751Y-124312807D01*
X131856057Y-124557889D01*
X110650410Y-124557889D01*
X110650410Y-121253726D01*
X110642887Y-121215908D01*
X110646154Y-121177490D01*
X110607388Y-120831333D01*
X110584401Y-120759044D01*
X110574095Y-120683891D01*
X110462852Y-120361890D01*
X110426200Y-120299190D01*
X110401443Y-120230914D01*
X110225302Y-119939853D01*
X110178867Y-119889055D01*
X110143000Y-119830319D01*
X109909546Y-119576973D01*
X109856553Y-119538344D01*
X109812380Y-119489869D01*
X109529195Y-119281022D01*
X109471793Y-119254062D01*
X109421208Y-119215815D01*
X109095872Y-119058246D01*
X109035538Y-119042539D01*
X108979840Y-119014518D01*
X108619935Y-118915003D01*
X108558062Y-118910453D01*
X108498535Y-118892964D01*
X108111645Y-118858285D01*
X108080857Y-118861591D01*
X108050490Y-118855550D01*
X102180439Y-118855550D01*
X102180439Y-116785894D01*
X170968786Y-116785894D01*
X171217098Y-117386855D01*
X171676487Y-117847046D01*
X172277013Y-118096406D01*
X172927254Y-118096974D01*
X173528215Y-117848662D01*
X173762923Y-117614363D01*
X176131883Y-117614363D01*
X176230482Y-117881165D01*
X176840022Y-118107601D01*
X177489817Y-118083541D01*
X177978398Y-117881165D01*
X178076997Y-117614363D01*
X177104440Y-116641805D01*
X176131883Y-117614363D01*
X173762923Y-117614363D01*
X173988406Y-117389273D01*
X174237766Y-116788747D01*
X174238282Y-116197782D01*
X175459039Y-116197782D01*
X175483099Y-116847577D01*
X175685475Y-117336158D01*
X175952277Y-117434757D01*
X176924835Y-116462200D01*
X177284045Y-116462200D01*
X178256603Y-117434757D01*
X178523405Y-117336158D01*
X178749841Y-116726618D01*
X178725781Y-116076823D01*
X178523405Y-115588242D01*
X178256603Y-115489643D01*
X177284045Y-116462200D01*
X176924835Y-116462200D01*
X175952277Y-115489643D01*
X175685475Y-115588242D01*
X175459039Y-116197782D01*
X174238282Y-116197782D01*
X174238334Y-116138506D01*
X173990022Y-115537545D01*
X173762911Y-115310037D01*
X176131883Y-115310037D01*
X177104440Y-116282595D01*
X178076997Y-115310037D01*
X177978398Y-115043235D01*
X177368858Y-114816799D01*
X176719063Y-114840859D01*
X176230482Y-115043235D01*
X176131883Y-115310037D01*
X173762911Y-115310037D01*
X173530633Y-115077354D01*
X172930107Y-114827994D01*
X172279866Y-114827426D01*
X171678905Y-115075738D01*
X171218714Y-115535127D01*
X170969354Y-116135653D01*
X170968786Y-116785894D01*
X102180439Y-116785894D01*
X102180439Y-105294039D01*
X102290090Y-105464441D01*
X102502290Y-105609431D01*
X102754180Y-105660440D01*
X104953820Y-105660440D01*
X105189137Y-105616162D01*
X105405261Y-105477090D01*
X105550251Y-105264890D01*
X105601260Y-105013000D01*
X105601260Y-103496178D01*
X108709228Y-103496178D01*
X108859721Y-103860397D01*
X109138138Y-104139300D01*
X109502093Y-104290428D01*
X109896178Y-104290772D01*
X110260397Y-104140279D01*
X110539300Y-103861862D01*
X110690428Y-103497907D01*
X110690556Y-103351154D01*
X110721532Y-103320178D01*
X113817228Y-103320178D01*
X113967721Y-103684397D01*
X114246138Y-103963300D01*
X114610093Y-104114428D01*
X114756846Y-104114556D01*
X115938145Y-105295855D01*
X116177115Y-105455530D01*
X116459000Y-105511600D01*
X120687881Y-105511600D01*
X120666828Y-105562303D01*
X120580822Y-105562228D01*
X120216603Y-105712721D01*
X119985521Y-105943400D01*
X118647383Y-105943400D01*
X118544862Y-105840700D01*
X118180907Y-105689572D01*
X117786822Y-105689228D01*
X117422603Y-105839721D01*
X117143700Y-106118138D01*
X116992572Y-106482093D01*
X116992228Y-106876178D01*
X117142721Y-107240397D01*
X117421138Y-107519300D01*
X117785093Y-107670428D01*
X118179178Y-107670772D01*
X118543397Y-107520279D01*
X118647257Y-107416600D01*
X120273659Y-107416600D01*
X120579093Y-107543428D01*
X120973178Y-107543772D01*
X121337397Y-107393279D01*
X121591705Y-107139415D01*
X123520111Y-109067821D01*
X123520037Y-109152118D01*
X123662812Y-109497659D01*
X123926951Y-109762259D01*
X124253220Y-109897738D01*
X124297812Y-110005659D01*
X124561951Y-110270259D01*
X124907242Y-110413637D01*
X125281118Y-110413963D01*
X125626659Y-110271188D01*
X125891259Y-110007049D01*
X126034637Y-109661758D01*
X126034712Y-109575998D01*
X126962056Y-108648654D01*
X126969578Y-108637397D01*
X127121731Y-108409684D01*
X127177801Y-108127799D01*
X127177801Y-103887385D01*
X127228600Y-103632000D01*
X127222414Y-103600902D01*
X127348251Y-103475065D01*
X127495145Y-103694907D01*
X131178145Y-107377907D01*
X131417115Y-107537582D01*
X131459189Y-107545951D01*
X131699000Y-107593653D01*
X131699005Y-107593652D01*
X131775630Y-107593652D01*
X130250882Y-109118400D01*
X128735604Y-109118400D01*
X128676049Y-109058741D01*
X128330758Y-108915363D01*
X127956882Y-108915037D01*
X127611341Y-109057812D01*
X127346741Y-109321951D01*
X127203363Y-109667242D01*
X127203037Y-110041118D01*
X127345812Y-110386659D01*
X127609951Y-110651259D01*
X127955242Y-110794637D01*
X128329118Y-110794963D01*
X128674659Y-110652188D01*
X128735353Y-110591600D01*
X130555992Y-110591600D01*
X130837877Y-110535530D01*
X131076847Y-110375855D01*
X132300584Y-109152118D01*
X136982037Y-109152118D01*
X137124812Y-109497659D01*
X137388951Y-109762259D01*
X137734242Y-109905637D01*
X138108118Y-109905963D01*
X138292930Y-109829600D01*
X138781617Y-109829600D01*
X138884138Y-109932300D01*
X139248093Y-110083428D01*
X139642178Y-110083772D01*
X140006397Y-109933279D01*
X140285300Y-109654862D01*
X140436428Y-109290907D01*
X140436772Y-108896822D01*
X140286279Y-108532603D01*
X140007862Y-108253700D01*
X139643907Y-108102572D01*
X139249822Y-108102228D01*
X138885603Y-108252721D01*
X138781743Y-108356400D01*
X138641383Y-108356400D01*
X138455049Y-108169741D01*
X138109758Y-108026363D01*
X137735882Y-108026037D01*
X137390341Y-108168812D01*
X137125741Y-108432951D01*
X136982363Y-108778242D01*
X136982037Y-109152118D01*
X132300584Y-109152118D01*
X132943821Y-108508881D01*
X133028118Y-108508955D01*
X133299344Y-108396887D01*
X133398721Y-108637397D01*
X133677138Y-108916300D01*
X134041093Y-109067428D01*
X134435178Y-109067772D01*
X134799397Y-108917279D01*
X135078300Y-108638862D01*
X135229428Y-108274907D01*
X135229772Y-107880822D01*
X135079279Y-107516603D01*
X134800862Y-107237700D01*
X134436907Y-107086572D01*
X134290154Y-107086444D01*
X133980215Y-106776505D01*
X137419101Y-106776505D01*
X137700986Y-106720435D01*
X137939956Y-106560760D01*
X137973065Y-106527651D01*
X138118178Y-106527778D01*
X138482397Y-106377285D01*
X138761300Y-106098868D01*
X138912428Y-105734913D01*
X138912512Y-105638602D01*
X139958663Y-105638602D01*
X140264093Y-105765428D01*
X140658178Y-105765772D01*
X141022397Y-105615279D01*
X141301300Y-105336862D01*
X141452428Y-104972907D01*
X141452556Y-104826154D01*
X141706909Y-104571801D01*
X146583400Y-104571801D01*
X146583400Y-107031617D01*
X146480700Y-107134138D01*
X146329572Y-107498093D01*
X146329228Y-107892178D01*
X146468566Y-108229399D01*
X142647096Y-108229399D01*
X142519401Y-108203999D01*
X142237516Y-108260069D01*
X141998546Y-108419744D01*
X141553935Y-108864355D01*
X141408822Y-108864228D01*
X141044603Y-109014721D01*
X140765700Y-109293138D01*
X140614572Y-109657093D01*
X140614228Y-110051178D01*
X140764721Y-110415397D01*
X141043138Y-110694300D01*
X141407093Y-110845428D01*
X141801178Y-110845772D01*
X142165397Y-110695279D01*
X142444300Y-110416862D01*
X142595428Y-110052907D01*
X142595556Y-109906154D01*
X142849911Y-109651799D01*
X152270967Y-109651799D01*
X152543132Y-109597662D01*
X152773861Y-109443493D01*
X153327556Y-108889799D01*
X158775089Y-108889799D01*
X162801145Y-112915855D01*
X163040115Y-113075530D01*
X163322000Y-113131600D01*
X170168360Y-113131600D01*
X170450245Y-113075530D01*
X170689215Y-112915855D01*
X172089095Y-111515975D01*
X172277013Y-111594006D01*
X172927254Y-111594574D01*
X173528215Y-111346262D01*
X173988406Y-110886873D01*
X174237766Y-110286347D01*
X174237768Y-110283494D01*
X175469666Y-110283494D01*
X175717978Y-110884455D01*
X176177367Y-111344646D01*
X176777893Y-111594006D01*
X177428134Y-111594574D01*
X178029095Y-111346262D01*
X178489286Y-110886873D01*
X178738646Y-110286347D01*
X178739214Y-109636106D01*
X178490902Y-109035145D01*
X178031513Y-108574954D01*
X177430987Y-108325594D01*
X176780746Y-108325026D01*
X176179785Y-108573338D01*
X175719594Y-109032727D01*
X175470234Y-109633253D01*
X175469666Y-110283494D01*
X174237768Y-110283494D01*
X174238334Y-109636106D01*
X173990022Y-109035145D01*
X173530633Y-108574954D01*
X172930107Y-108325594D01*
X172279866Y-108325026D01*
X171678905Y-108573338D01*
X171218714Y-109032727D01*
X170969354Y-109633253D01*
X170968786Y-110283494D01*
X171047545Y-110474105D01*
X169863250Y-111658400D01*
X163627110Y-111658400D01*
X159626454Y-107657744D01*
X159387484Y-107498069D01*
X159105599Y-107441999D01*
X158977904Y-107467399D01*
X153032967Y-107467399D01*
X152760802Y-107521536D01*
X152530073Y-107675704D01*
X151976379Y-108229399D01*
X148171119Y-108229399D01*
X148310428Y-107893907D01*
X148310772Y-107499822D01*
X148160279Y-107135603D01*
X148056600Y-107031743D01*
X148056600Y-104571801D01*
X150617586Y-104571801D01*
X150670721Y-104700397D01*
X150949138Y-104979300D01*
X151313093Y-105130428D01*
X151707178Y-105130772D01*
X152071397Y-104980279D01*
X152350300Y-104701862D01*
X152501428Y-104337907D01*
X152501446Y-104317801D01*
X158237586Y-104317801D01*
X158290721Y-104446397D01*
X158569138Y-104725300D01*
X158933093Y-104876428D01*
X159327178Y-104876772D01*
X159691397Y-104726279D01*
X159970300Y-104447862D01*
X160121428Y-104083907D01*
X160121772Y-103689822D01*
X159971279Y-103325603D01*
X159692862Y-103046700D01*
X159328907Y-102895572D01*
X159081365Y-102895356D01*
X158826201Y-102844601D01*
X153957677Y-102844601D01*
X153974637Y-102803758D01*
X153974646Y-102793798D01*
X160299088Y-102793798D01*
X162712355Y-105207065D01*
X162712228Y-105352178D01*
X162862721Y-105716397D01*
X163141138Y-105995300D01*
X163505093Y-106146428D01*
X163899178Y-106146772D01*
X164263397Y-105996279D01*
X164542300Y-105717862D01*
X164693428Y-105353907D01*
X164693772Y-104959822D01*
X164543279Y-104595603D01*
X164264862Y-104316700D01*
X163900907Y-104165572D01*
X163754154Y-104165444D01*
X161576371Y-101987661D01*
X172016758Y-101987661D01*
X172228990Y-102501303D01*
X172621630Y-102894629D01*
X172829512Y-102980949D01*
X172623697Y-103065990D01*
X172230371Y-103458630D01*
X172017243Y-103971900D01*
X172016758Y-104527661D01*
X172228990Y-105041303D01*
X172621630Y-105434629D01*
X173134900Y-105647757D01*
X173690661Y-105648242D01*
X174204303Y-105436010D01*
X174597629Y-105043370D01*
X174810757Y-104530100D01*
X174811242Y-103974339D01*
X174599010Y-103460697D01*
X174206370Y-103067371D01*
X173998488Y-102981051D01*
X174204303Y-102896010D01*
X174597629Y-102503370D01*
X174717503Y-102214680D01*
X178293580Y-102214680D01*
X178378072Y-102639451D01*
X178618686Y-102999554D01*
X178978789Y-103240168D01*
X179403560Y-103324660D01*
X180006440Y-103324660D01*
X180431211Y-103240168D01*
X180791314Y-102999554D01*
X181031928Y-102639451D01*
X181116420Y-102214680D01*
X181072504Y-101993898D01*
X182524399Y-103445793D01*
X182524399Y-111443379D01*
X182547404Y-111559033D01*
X182410559Y-111647090D01*
X182265569Y-111859290D01*
X182221740Y-112075724D01*
X182071828Y-111851365D01*
X181618609Y-111548533D01*
X181084000Y-111442193D01*
X180549391Y-111548533D01*
X180096172Y-111851365D01*
X179793340Y-112304584D01*
X179687000Y-112839193D01*
X179687000Y-113582807D01*
X179793340Y-114117416D01*
X180096172Y-114570635D01*
X180549391Y-114873467D01*
X181084000Y-114979807D01*
X181618609Y-114873467D01*
X182071828Y-114570635D01*
X182221343Y-114346870D01*
X182258838Y-114546137D01*
X182397910Y-114762261D01*
X182610110Y-114907251D01*
X182862000Y-114958260D01*
X184386000Y-114958260D01*
X184621317Y-114913982D01*
X184837441Y-114774910D01*
X184982431Y-114562710D01*
X185033440Y-114310820D01*
X185033440Y-112111180D01*
X184989162Y-111875863D01*
X184850090Y-111659739D01*
X184637890Y-111514749D01*
X184415440Y-111469702D01*
X184398396Y-111384015D01*
X184216697Y-111112083D01*
X184200799Y-111096185D01*
X184200799Y-103098599D01*
X184171162Y-102949602D01*
X184136995Y-102777833D01*
X183955296Y-102505902D01*
X183785899Y-102336505D01*
X184092178Y-102336772D01*
X184456397Y-102186279D01*
X184735300Y-101907862D01*
X184886428Y-101543907D01*
X184886772Y-101149822D01*
X184736279Y-100785603D01*
X184457862Y-100506700D01*
X184093907Y-100355572D01*
X183947154Y-100355444D01*
X180961625Y-97369915D01*
X181025637Y-97215758D01*
X181025856Y-96964075D01*
X181426927Y-97365846D01*
X182027453Y-97615206D01*
X182677694Y-97615774D01*
X183278655Y-97367462D01*
X183738846Y-96908073D01*
X183988206Y-96307547D01*
X183988774Y-95657306D01*
X183740462Y-95056345D01*
X183395520Y-94710801D01*
X183738846Y-94368073D01*
X183988206Y-93767547D01*
X183988774Y-93117306D01*
X183740462Y-92516345D01*
X183281073Y-92056154D01*
X182680547Y-91806794D01*
X182030306Y-91806226D01*
X181429345Y-92054538D01*
X180969154Y-92513927D01*
X180719794Y-93114453D01*
X180719226Y-93764694D01*
X180967538Y-94365655D01*
X181312480Y-94711199D01*
X180969154Y-95053927D01*
X180719794Y-95654453D01*
X180719226Y-96304694D01*
X180738542Y-96351443D01*
X180619049Y-96231741D01*
X180273758Y-96088363D01*
X179899882Y-96088037D01*
X179554341Y-96230812D01*
X179289741Y-96494951D01*
X179146363Y-96840242D01*
X179146037Y-97214118D01*
X179288812Y-97559659D01*
X179370354Y-97641343D01*
X179405470Y-97817885D01*
X179565145Y-98056855D01*
X180101190Y-98592900D01*
X178955700Y-98592900D01*
X178720383Y-98637178D01*
X178504259Y-98776250D01*
X178359269Y-98988450D01*
X178308260Y-99240340D01*
X178308260Y-100190300D01*
X178352538Y-100425617D01*
X178424747Y-100537833D01*
X178361432Y-100667065D01*
X178487966Y-100838000D01*
X179578000Y-100838000D01*
X179578000Y-100837740D01*
X179832000Y-100837740D01*
X179832000Y-100838000D01*
X179852000Y-100838000D01*
X179852000Y-101092000D01*
X179832000Y-101092000D01*
X179832000Y-101104700D01*
X179578000Y-101104700D01*
X179578000Y-101092000D01*
X178487966Y-101092000D01*
X178361432Y-101262935D01*
X178517431Y-101581344D01*
X178378072Y-101789909D01*
X178293580Y-102214680D01*
X174717503Y-102214680D01*
X174810757Y-101990100D01*
X174811242Y-101434339D01*
X174599010Y-100920697D01*
X174206370Y-100527371D01*
X173693100Y-100314243D01*
X173137339Y-100313758D01*
X172623697Y-100525990D01*
X172230371Y-100918630D01*
X172017243Y-101431900D01*
X172016758Y-101987661D01*
X161576371Y-101987661D01*
X161150453Y-101561743D01*
X160911483Y-101402068D01*
X160629598Y-101345998D01*
X160501903Y-101371398D01*
X142458390Y-101371398D01*
X147240610Y-96589178D01*
X159029228Y-96589178D01*
X159179721Y-96953397D01*
X159458138Y-97232300D01*
X159822093Y-97383428D01*
X160216178Y-97383772D01*
X160580397Y-97233279D01*
X160859300Y-96954862D01*
X161010428Y-96590907D01*
X161010556Y-96444154D01*
X162008532Y-95446178D01*
X169951228Y-95446178D01*
X170101721Y-95810397D01*
X170205400Y-95914257D01*
X170205400Y-97335657D01*
X170102700Y-97438178D01*
X169951572Y-97802133D01*
X169951228Y-98196218D01*
X170101721Y-98560437D01*
X170380138Y-98839340D01*
X170744093Y-98990468D01*
X171138178Y-98990812D01*
X171502397Y-98840319D01*
X171781300Y-98561902D01*
X171932428Y-98197947D01*
X171932772Y-97803862D01*
X171782279Y-97439643D01*
X171678600Y-97335783D01*
X171678600Y-95914383D01*
X171781300Y-95811862D01*
X171932428Y-95447907D01*
X171932772Y-95053822D01*
X171782279Y-94689603D01*
X171503862Y-94410700D01*
X171139907Y-94259572D01*
X170745822Y-94259228D01*
X170381603Y-94409721D01*
X170102700Y-94688138D01*
X169951572Y-95052093D01*
X169951228Y-95446178D01*
X162008532Y-95446178D01*
X162318855Y-95135855D01*
X162371982Y-95056345D01*
X162478530Y-94896885D01*
X162527307Y-94651663D01*
X162637300Y-94541862D01*
X162788428Y-94177907D01*
X162788772Y-93783822D01*
X162780869Y-93764694D01*
X173219226Y-93764694D01*
X173467538Y-94365655D01*
X173812480Y-94711199D01*
X173469154Y-95053927D01*
X173219794Y-95654453D01*
X173219226Y-96304694D01*
X173467538Y-96905655D01*
X173926927Y-97365846D01*
X174527453Y-97615206D01*
X175177694Y-97615774D01*
X175778655Y-97367462D01*
X176238846Y-96908073D01*
X176488206Y-96307547D01*
X176488774Y-95657306D01*
X176240462Y-95056345D01*
X175895520Y-94710801D01*
X176238846Y-94368073D01*
X176488206Y-93767547D01*
X176488774Y-93117306D01*
X176240462Y-92516345D01*
X175781073Y-92056154D01*
X175180547Y-91806794D01*
X174530306Y-91806226D01*
X173929345Y-92054538D01*
X173469154Y-92513927D01*
X173219794Y-93114453D01*
X173219226Y-93764694D01*
X162780869Y-93764694D01*
X162638279Y-93419603D01*
X162359862Y-93140700D01*
X161995907Y-92989572D01*
X161601822Y-92989228D01*
X161237603Y-93139721D01*
X160958700Y-93418138D01*
X160807572Y-93782093D01*
X160807228Y-94176178D01*
X160920639Y-94450651D01*
X159968935Y-95402355D01*
X159823822Y-95402228D01*
X159459603Y-95552721D01*
X159180700Y-95831138D01*
X159029572Y-96195093D01*
X159029228Y-96589178D01*
X147240610Y-96589178D01*
X150662588Y-93167200D01*
X156409261Y-93167200D01*
X156537138Y-93295300D01*
X156901093Y-93446428D01*
X157295178Y-93446772D01*
X157659397Y-93296279D01*
X157938300Y-93017862D01*
X158089428Y-92653907D01*
X158089772Y-92259822D01*
X157939279Y-91895603D01*
X157660862Y-91616700D01*
X157296907Y-91465572D01*
X156902822Y-91465228D01*
X156538603Y-91615721D01*
X156409299Y-91744800D01*
X155117646Y-91744800D01*
X155117963Y-91380882D01*
X154991126Y-91073915D01*
X155111630Y-91194629D01*
X155624900Y-91407757D01*
X156180661Y-91408242D01*
X156694303Y-91196010D01*
X157087629Y-90803370D01*
X157300757Y-90290100D01*
X157301242Y-89734339D01*
X157089010Y-89220697D01*
X156696370Y-88827371D01*
X156183100Y-88614243D01*
X155627339Y-88613758D01*
X155113697Y-88825990D01*
X154720371Y-89218630D01*
X154634051Y-89426512D01*
X154549010Y-89220697D01*
X154156370Y-88827371D01*
X153643100Y-88614243D01*
X153087339Y-88613758D01*
X152573697Y-88825990D01*
X152180371Y-89218630D01*
X152094051Y-89426512D01*
X152009010Y-89220697D01*
X151616370Y-88827371D01*
X151103100Y-88614243D01*
X150547339Y-88613758D01*
X150033697Y-88825990D01*
X149640371Y-89218630D01*
X149554051Y-89426512D01*
X149469010Y-89220697D01*
X149076370Y-88827371D01*
X148563100Y-88614243D01*
X148007339Y-88613758D01*
X147493697Y-88825990D01*
X147100371Y-89218630D01*
X147014051Y-89426512D01*
X146929010Y-89220697D01*
X146536370Y-88827371D01*
X146023100Y-88614243D01*
X145467339Y-88613758D01*
X144953697Y-88825990D01*
X144560371Y-89218630D01*
X144474051Y-89426512D01*
X144389010Y-89220697D01*
X143996370Y-88827371D01*
X143483100Y-88614243D01*
X142927339Y-88613758D01*
X142413697Y-88825990D01*
X142020371Y-89218630D01*
X141934051Y-89426512D01*
X141849010Y-89220697D01*
X141456370Y-88827371D01*
X140943100Y-88614243D01*
X140387339Y-88613758D01*
X139873697Y-88825990D01*
X139480371Y-89218630D01*
X139394051Y-89426512D01*
X139309010Y-89220697D01*
X138916370Y-88827371D01*
X138403100Y-88614243D01*
X137847339Y-88613758D01*
X137333697Y-88825990D01*
X136940371Y-89218630D01*
X136854051Y-89426512D01*
X136769010Y-89220697D01*
X136376370Y-88827371D01*
X135863100Y-88614243D01*
X135307339Y-88613758D01*
X134793697Y-88825990D01*
X134400371Y-89218630D01*
X134314051Y-89426512D01*
X134229010Y-89220697D01*
X133836370Y-88827371D01*
X133323100Y-88614243D01*
X132767339Y-88613758D01*
X132253697Y-88825990D01*
X131860371Y-89218630D01*
X131774051Y-89426512D01*
X131689010Y-89220697D01*
X131296370Y-88827371D01*
X130783100Y-88614243D01*
X130227339Y-88613758D01*
X129713697Y-88825990D01*
X129320371Y-89218630D01*
X129234051Y-89426512D01*
X129149010Y-89220697D01*
X128756370Y-88827371D01*
X128243100Y-88614243D01*
X127687339Y-88613758D01*
X127173697Y-88825990D01*
X126780371Y-89218630D01*
X126694051Y-89426512D01*
X126609010Y-89220697D01*
X126216370Y-88827371D01*
X125703100Y-88614243D01*
X125147339Y-88613758D01*
X124633697Y-88825990D01*
X124240371Y-89218630D01*
X124154051Y-89426512D01*
X124069010Y-89220697D01*
X123676370Y-88827371D01*
X123163100Y-88614243D01*
X122607339Y-88613758D01*
X122093697Y-88825990D01*
X121700371Y-89218630D01*
X121614051Y-89426512D01*
X121529010Y-89220697D01*
X121136370Y-88827371D01*
X120623100Y-88614243D01*
X120067339Y-88613758D01*
X119553697Y-88825990D01*
X119160371Y-89218630D01*
X119074051Y-89426512D01*
X118989010Y-89220697D01*
X118596370Y-88827371D01*
X118083100Y-88614243D01*
X117527339Y-88613758D01*
X117013697Y-88825990D01*
X116620371Y-89218630D01*
X116407243Y-89731900D01*
X116406758Y-90287661D01*
X116618990Y-90801303D01*
X117011630Y-91194629D01*
X117524900Y-91407757D01*
X117664202Y-91407879D01*
X117627572Y-91496093D01*
X117627228Y-91890178D01*
X117777721Y-92254397D01*
X118056138Y-92533300D01*
X118096511Y-92550064D01*
X118115106Y-92577894D01*
X118496105Y-92958894D01*
X118630305Y-93048563D01*
X118726836Y-93113063D01*
X118999000Y-93167200D01*
X122768412Y-93167200D01*
X133157012Y-103555800D01*
X131753739Y-103555800D01*
X131625862Y-103427700D01*
X131261907Y-103276572D01*
X130966076Y-103276314D01*
X130736862Y-103046700D01*
X130372907Y-102895572D01*
X130226154Y-102895444D01*
X128892454Y-101561744D01*
X128653484Y-101402069D01*
X128371599Y-101345999D01*
X127699007Y-101345999D01*
X127417122Y-101402069D01*
X127178152Y-101561744D01*
X126950695Y-101789201D01*
X126862880Y-101576674D01*
X126598741Y-101312074D01*
X126253450Y-101168696D01*
X126225765Y-101168672D01*
X126272702Y-101055635D01*
X126273028Y-100681759D01*
X126130253Y-100336218D01*
X125866114Y-100071618D01*
X125520823Y-99928240D01*
X125146947Y-99927914D01*
X124801406Y-100070689D01*
X124536806Y-100334828D01*
X124471756Y-100491486D01*
X124266758Y-100406363D01*
X123892882Y-100406037D01*
X123547341Y-100548812D01*
X123282741Y-100812951D01*
X123139363Y-101158242D01*
X123139037Y-101532118D01*
X123281812Y-101877659D01*
X123511099Y-102107346D01*
X123391603Y-102156721D01*
X123112700Y-102435138D01*
X122961572Y-102799093D01*
X122961444Y-102945846D01*
X122072179Y-103835111D01*
X121987882Y-103835037D01*
X121642341Y-103977812D01*
X121581647Y-104038400D01*
X116764110Y-104038400D01*
X115798645Y-103072935D01*
X115798772Y-102927822D01*
X115648279Y-102563603D01*
X115369862Y-102284700D01*
X115005907Y-102133572D01*
X114611822Y-102133228D01*
X114247603Y-102283721D01*
X113968700Y-102562138D01*
X113817572Y-102926093D01*
X113817228Y-103320178D01*
X110721532Y-103320178D01*
X111854256Y-102187454D01*
X112013931Y-101948483D01*
X112070001Y-101666599D01*
X112044601Y-101538904D01*
X112044601Y-101075550D01*
X120403424Y-101075550D01*
X120575911Y-101493001D01*
X120682630Y-101599906D01*
X120577033Y-101705319D01*
X120403818Y-102122468D01*
X120403424Y-102574150D01*
X120575911Y-102991601D01*
X120895019Y-103311267D01*
X121312168Y-103484482D01*
X121763850Y-103484876D01*
X122181301Y-103312389D01*
X122500967Y-102993281D01*
X122674182Y-102576132D01*
X122674576Y-102124450D01*
X122502089Y-101706999D01*
X122395370Y-101600094D01*
X122500967Y-101494681D01*
X122674182Y-101077532D01*
X122674576Y-100625850D01*
X122502089Y-100208399D01*
X122182981Y-99888733D01*
X121765832Y-99715518D01*
X121314150Y-99715124D01*
X120896699Y-99887611D01*
X120577033Y-100206719D01*
X120403818Y-100623868D01*
X120403424Y-101075550D01*
X112044601Y-101075550D01*
X112044601Y-98039934D01*
X113715175Y-96369361D01*
X113896178Y-96369519D01*
X114260397Y-96219026D01*
X114539300Y-95940609D01*
X114690428Y-95576654D01*
X114690772Y-95182569D01*
X114540279Y-94818350D01*
X114261862Y-94539447D01*
X113897907Y-94388319D01*
X113503822Y-94387975D01*
X113139603Y-94538468D01*
X112860700Y-94816885D01*
X112709572Y-95180840D01*
X112709413Y-95363546D01*
X110830507Y-97242452D01*
X110676338Y-97473181D01*
X110640679Y-97652451D01*
X110622201Y-97745346D01*
X110622201Y-101336089D01*
X109648935Y-102309355D01*
X109503822Y-102309228D01*
X109139603Y-102459721D01*
X108860700Y-102738138D01*
X108709572Y-103102093D01*
X108709228Y-103496178D01*
X105601260Y-103496178D01*
X105601260Y-103489000D01*
X105556982Y-103253683D01*
X105417910Y-103037559D01*
X105205710Y-102892569D01*
X104989276Y-102848740D01*
X105213635Y-102698828D01*
X105516467Y-102245609D01*
X105622807Y-101711000D01*
X105516467Y-101176391D01*
X105213635Y-100723172D01*
X104778394Y-100432353D01*
X104843761Y-100413059D01*
X105269450Y-100069026D01*
X105531080Y-99588277D01*
X105546040Y-99514070D01*
X105423540Y-99298000D01*
X103981000Y-99298000D01*
X103981000Y-99318000D01*
X103727000Y-99318000D01*
X103727000Y-99298000D01*
X103707000Y-99298000D01*
X103707000Y-99044000D01*
X103727000Y-99044000D01*
X103727000Y-97774000D01*
X103981000Y-97774000D01*
X103981000Y-99044000D01*
X105423540Y-99044000D01*
X105546040Y-98827930D01*
X105531080Y-98753723D01*
X105269450Y-98272974D01*
X104843761Y-97928941D01*
X104318820Y-97774000D01*
X103981000Y-97774000D01*
X103727000Y-97774000D01*
X103389180Y-97774000D01*
X102864239Y-97928941D01*
X102438550Y-98272974D01*
X102180439Y-98747257D01*
X102180439Y-87264694D01*
X173219226Y-87264694D01*
X173467538Y-87865655D01*
X173812480Y-88211199D01*
X173469154Y-88553927D01*
X173219794Y-89154453D01*
X173219226Y-89804694D01*
X173467538Y-90405655D01*
X173926927Y-90865846D01*
X174527453Y-91115206D01*
X175177694Y-91115774D01*
X175778655Y-90867462D01*
X176238846Y-90408073D01*
X176317937Y-90217600D01*
X180889835Y-90217600D01*
X180967538Y-90405655D01*
X181426927Y-90865846D01*
X182027453Y-91115206D01*
X182677694Y-91115774D01*
X183278655Y-90867462D01*
X183738846Y-90408073D01*
X183988206Y-89807547D01*
X183988774Y-89157306D01*
X183740462Y-88556345D01*
X183395520Y-88210801D01*
X183738846Y-87868073D01*
X183988206Y-87267547D01*
X183988774Y-86617306D01*
X183740462Y-86016345D01*
X183281073Y-85556154D01*
X182680547Y-85306794D01*
X182030306Y-85306226D01*
X181429345Y-85554538D01*
X180969154Y-86013927D01*
X180719794Y-86614453D01*
X180719226Y-87264694D01*
X180967538Y-87865655D01*
X181312480Y-88211199D01*
X180969154Y-88553927D01*
X180890063Y-88744400D01*
X176318165Y-88744400D01*
X176240462Y-88556345D01*
X175895520Y-88210801D01*
X176238846Y-87868073D01*
X176488206Y-87267547D01*
X176488774Y-86617306D01*
X176240462Y-86016345D01*
X175781073Y-85556154D01*
X175180547Y-85306794D01*
X174530306Y-85306226D01*
X173929345Y-85554538D01*
X173469154Y-86013927D01*
X173219794Y-86614453D01*
X173219226Y-87264694D01*
X102180439Y-87264694D01*
X102180439Y-86157137D01*
X108050490Y-86157137D01*
X108080878Y-86151092D01*
X108111685Y-86154398D01*
X108498575Y-86119696D01*
X108558132Y-86102195D01*
X108620041Y-86097632D01*
X108979945Y-85998055D01*
X109035655Y-85970017D01*
X109096007Y-85954291D01*
X109421344Y-85796633D01*
X109471924Y-85758373D01*
X109529324Y-85731397D01*
X109812508Y-85522448D01*
X109856659Y-85473974D01*
X109909638Y-85435340D01*
X110143091Y-85181894D01*
X110178935Y-85123168D01*
X110225351Y-85072378D01*
X110401492Y-84781226D01*
X110426231Y-84712970D01*
X110462865Y-84650293D01*
X110574108Y-84328232D01*
X110584407Y-84253098D01*
X110607389Y-84180823D01*
X110646155Y-83834641D01*
X110642888Y-83796225D01*
X110650410Y-83758410D01*
X110650410Y-80309469D01*
X131856057Y-80309469D01*
X131862665Y-80378141D01*
X131856057Y-80446813D01*
X131880751Y-80691895D01*
X131900899Y-80757780D01*
X131908095Y-80826302D01*
X131978955Y-81054572D01*
X132011135Y-81113852D01*
X132031128Y-81178269D01*
X132143250Y-81384836D01*
X132185562Y-81435724D01*
X132216911Y-81494006D01*
X132365405Y-81673983D01*
X132416294Y-81715523D01*
X132457830Y-81766407D01*
X132637806Y-81914901D01*
X132696088Y-81946250D01*
X132746977Y-81988563D01*
X132953543Y-82100684D01*
X133017961Y-82120677D01*
X133077239Y-82152856D01*
X133305508Y-82223716D01*
X133374030Y-82230912D01*
X133439914Y-82251060D01*
X133684996Y-82275755D01*
X133753670Y-82269147D01*
X133822344Y-82275755D01*
X134067426Y-82251060D01*
X134133310Y-82230912D01*
X134201831Y-82223716D01*
X134430101Y-82152856D01*
X134489380Y-82120676D01*
X134553795Y-82100684D01*
X134760362Y-81988563D01*
X134811249Y-81946252D01*
X134869537Y-81914900D01*
X135049512Y-81766406D01*
X135091051Y-81715519D01*
X135141933Y-81673984D01*
X135290428Y-81494008D01*
X135321779Y-81435722D01*
X135364092Y-81384833D01*
X135476213Y-81178266D01*
X135496205Y-81113851D01*
X135528385Y-81054572D01*
X135599245Y-80826303D01*
X135606441Y-80757781D01*
X135626589Y-80691897D01*
X135651284Y-80446815D01*
X135647955Y-80412224D01*
X135654735Y-80378141D01*
X135647955Y-80344058D01*
X135651283Y-80309469D01*
X167889781Y-80309469D01*
X167896389Y-80378141D01*
X167889781Y-80446813D01*
X167914475Y-80691895D01*
X167934623Y-80757780D01*
X167941819Y-80826302D01*
X168012679Y-81054572D01*
X168044858Y-81113850D01*
X168064850Y-81178265D01*
X168176972Y-81384835D01*
X168219284Y-81435724D01*
X168250636Y-81494011D01*
X168399130Y-81673986D01*
X168450018Y-81715526D01*
X168491557Y-81766412D01*
X168671533Y-81914903D01*
X168729815Y-81946252D01*
X168780705Y-81988565D01*
X168987274Y-82100686D01*
X169051690Y-82120678D01*
X169110966Y-82152856D01*
X169339235Y-82223716D01*
X169407757Y-82230912D01*
X169473641Y-82251060D01*
X169718723Y-82275755D01*
X169787397Y-82269147D01*
X169856071Y-82275755D01*
X170101153Y-82251060D01*
X170167037Y-82230912D01*
X170235558Y-82223716D01*
X170463828Y-82152856D01*
X170523106Y-82120677D01*
X170587524Y-82100684D01*
X170794089Y-81988563D01*
X170844977Y-81946251D01*
X170903261Y-81914901D01*
X171083238Y-81766407D01*
X171124778Y-81715518D01*
X171175662Y-81673982D01*
X171324156Y-81494006D01*
X171355505Y-81435724D01*
X171397817Y-81384836D01*
X171509939Y-81178268D01*
X171529931Y-81113853D01*
X171562112Y-81054572D01*
X171632972Y-80826303D01*
X171640168Y-80757781D01*
X171660316Y-80691897D01*
X171685011Y-80446815D01*
X171681682Y-80412224D01*
X171688462Y-80378141D01*
X171681682Y-80344058D01*
X171685011Y-80309467D01*
X171660316Y-80064385D01*
X171640167Y-79998498D01*
X171632971Y-79929978D01*
X171562111Y-79701710D01*
X171529932Y-79642432D01*
X171509939Y-79578015D01*
X171397817Y-79371447D01*
X171355505Y-79320559D01*
X171324156Y-79262277D01*
X171175662Y-79082301D01*
X171124778Y-79040765D01*
X171083238Y-78989876D01*
X170903261Y-78841382D01*
X170844977Y-78810032D01*
X170794089Y-78767720D01*
X170587524Y-78655599D01*
X170523107Y-78635607D01*
X170463831Y-78603428D01*
X170235561Y-78532567D01*
X170167038Y-78525370D01*
X170101151Y-78505222D01*
X169856069Y-78480528D01*
X169787397Y-78487136D01*
X169718725Y-78480528D01*
X169473643Y-78505222D01*
X169407759Y-78525369D01*
X169339241Y-78532565D01*
X169110971Y-78603423D01*
X169051695Y-78635601D01*
X168987274Y-78655594D01*
X168780705Y-78767715D01*
X168729815Y-78810028D01*
X168671530Y-78841379D01*
X168491554Y-78989873D01*
X168450018Y-79040757D01*
X168399129Y-79082297D01*
X168250635Y-79262274D01*
X168219285Y-79320559D01*
X168176972Y-79371448D01*
X168064850Y-79578018D01*
X168044858Y-79642433D01*
X168012679Y-79701710D01*
X167941820Y-79929979D01*
X167934624Y-79998499D01*
X167914475Y-80064387D01*
X167889781Y-80309469D01*
X135651283Y-80309469D01*
X135651284Y-80309467D01*
X135626589Y-80064385D01*
X135606440Y-79998498D01*
X135599244Y-79929978D01*
X135528384Y-79701710D01*
X135496206Y-79642434D01*
X135476213Y-79578017D01*
X135364092Y-79371450D01*
X135321779Y-79320561D01*
X135290428Y-79262275D01*
X135141933Y-79082299D01*
X135091051Y-79040764D01*
X135049512Y-78989877D01*
X134869537Y-78841383D01*
X134811249Y-78810031D01*
X134760362Y-78767720D01*
X134553795Y-78655599D01*
X134489381Y-78635607D01*
X134430104Y-78603428D01*
X134201834Y-78532567D01*
X134133311Y-78525370D01*
X134067424Y-78505222D01*
X133822342Y-78480528D01*
X133753670Y-78487136D01*
X133684998Y-78480528D01*
X133439916Y-78505222D01*
X133374029Y-78525370D01*
X133305506Y-78532567D01*
X133077236Y-78603428D01*
X133017960Y-78635607D01*
X132953543Y-78655599D01*
X132746977Y-78767720D01*
X132696088Y-78810033D01*
X132637806Y-78841382D01*
X132457830Y-78989876D01*
X132416294Y-79040760D01*
X132365405Y-79082300D01*
X132216911Y-79262277D01*
X132185562Y-79320559D01*
X132143250Y-79371447D01*
X132031128Y-79578014D01*
X132011136Y-79642431D01*
X131978955Y-79701710D01*
X131908096Y-79929979D01*
X131900900Y-79998499D01*
X131880751Y-80064387D01*
X131856057Y-80309469D01*
X110650410Y-80309469D01*
X110650410Y-77786934D01*
X123252064Y-77786934D01*
X123252064Y-78319017D01*
X123252064Y-78319017D01*
G37*
X123252064Y-78319017D02*
X123304207Y-78581155D01*
X123452696Y-78803385D01*
X123674926Y-78951874D01*
X123937064Y-79004017D01*
X125757177Y-79004017D01*
X126019315Y-78951874D01*
X126241545Y-78803385D01*
X126390034Y-78581155D01*
X126442177Y-78319017D01*
X126442177Y-77786934D01*
X126653615Y-77786934D01*
X126653615Y-78319017D01*
X126705758Y-78581155D01*
X126854247Y-78803385D01*
X127076477Y-78951874D01*
X127338615Y-79004017D01*
X129159279Y-79004017D01*
X129421417Y-78951874D01*
X129643647Y-78803385D01*
X129792136Y-78581155D01*
X129844279Y-78319017D01*
X129844279Y-77786934D01*
X173657946Y-77786934D01*
X173657946Y-78319017D01*
X173710089Y-78581155D01*
X173858578Y-78803385D01*
X174080808Y-78951874D01*
X174342946Y-79004017D01*
X176163059Y-79004017D01*
X176425197Y-78951874D01*
X176647427Y-78803385D01*
X176795916Y-78581155D01*
X176848059Y-78319017D01*
X176848059Y-77786934D01*
X177059495Y-77786934D01*
X177059495Y-78319017D01*
X177111638Y-78581155D01*
X177260127Y-78803385D01*
X177482357Y-78951874D01*
X177744495Y-79004017D01*
X179565161Y-79004017D01*
X179827299Y-78951874D01*
X180049529Y-78803385D01*
X180198018Y-78581155D01*
X180250161Y-78319017D01*
X180250161Y-77786934D01*
X192838584Y-77786934D01*
X192838584Y-83658088D01*
X192846107Y-83695906D01*
X192842840Y-83734324D01*
X192881606Y-84080481D01*
X192904593Y-84152769D01*
X192914899Y-84227924D01*
X193026143Y-84549926D01*
X193062795Y-84612625D01*
X193087551Y-84680900D01*
X193263691Y-84971960D01*
X193310126Y-85022758D01*
X193345995Y-85081497D01*
X193579448Y-85334842D01*
X193632446Y-85373474D01*
X193676616Y-85421946D01*
X193959804Y-85630794D01*
X194017205Y-85657754D01*
X194067788Y-85695999D01*
X194393125Y-85853569D01*
X194453459Y-85869276D01*
X194509159Y-85897298D01*
X194869064Y-85996812D01*
X194930936Y-86001362D01*
X194990460Y-86018850D01*
X195377350Y-86053529D01*
X195408136Y-86050224D01*
X195438507Y-86056265D01*
X201615000Y-86056265D01*
X201615000Y-95000000D01*
X201667143Y-95262138D01*
X201815632Y-95484368D01*
X202037862Y-95632857D01*
X202184000Y-95661926D01*
X202184000Y-99870937D01*
X202037514Y-99724195D01*
X201657694Y-99566480D01*
X201246431Y-99566121D01*
X200866336Y-99723173D01*
X200575275Y-100013726D01*
X200417560Y-100393546D01*
X200417201Y-100804809D01*
X200574253Y-101184904D01*
X200864806Y-101475965D01*
X201244626Y-101633680D01*
X201655889Y-101634039D01*
X202035984Y-101476987D01*
X202184000Y-101329229D01*
X202184000Y-103665693D01*
X202040054Y-103521495D01*
X201660234Y-103363780D01*
X201248971Y-103363421D01*
X200868876Y-103520473D01*
X200577815Y-103811026D01*
X200420100Y-104190846D01*
X200419741Y-104602109D01*
X200576793Y-104982204D01*
X200867346Y-105273265D01*
X201247166Y-105430980D01*
X201658429Y-105431339D01*
X202038524Y-105274287D01*
X202184000Y-105129065D01*
X202184000Y-109238074D01*
X202037862Y-109267143D01*
X201815632Y-109415632D01*
X201667143Y-109637862D01*
X201615000Y-109900000D01*
X201615000Y-118905709D01*
X195438507Y-118905709D01*
X195408119Y-118911754D01*
X195377312Y-118908448D01*
X194990422Y-118943150D01*
X194930865Y-118960651D01*
X194868956Y-118965214D01*
X194509052Y-119064791D01*
X194453342Y-119092829D01*
X194392987Y-119108556D01*
X194067650Y-119266216D01*
X194017069Y-119304477D01*
X193959677Y-119331449D01*
X193676488Y-119540398D01*
X193632334Y-119588874D01*
X193579355Y-119627509D01*
X193345901Y-119880956D01*
X193310054Y-119939686D01*
X193263642Y-119990473D01*
X193087502Y-120281624D01*
X193062764Y-120349876D01*
X193026130Y-120412553D01*
X192914887Y-120734613D01*
X192904587Y-120809749D01*
X192881605Y-120882025D01*
X192842839Y-121228208D01*
X192846106Y-121266624D01*
X192838584Y-121304439D01*
X192838584Y-127365210D01*
X180250161Y-127365210D01*
X180250161Y-126688158D01*
X180198018Y-126426020D01*
X180049529Y-126203790D01*
X179827299Y-126055301D01*
X179565161Y-126003158D01*
X177744495Y-126003158D01*
X177482357Y-126055301D01*
X177260127Y-126203790D01*
X177111638Y-126426020D01*
X177059495Y-126688158D01*
X177059495Y-127365210D01*
X176848059Y-127365210D01*
X176848059Y-126688158D01*
X176795916Y-126426020D01*
X176647427Y-126203790D01*
X176425197Y-126055301D01*
X176163059Y-126003158D01*
X174342946Y-126003158D01*
X174080808Y-126055301D01*
X173858578Y-126203790D01*
X173710089Y-126426020D01*
X173657946Y-126688158D01*
X173657946Y-127365210D01*
X129844279Y-127365210D01*
X129844279Y-126688158D01*
X129792136Y-126426020D01*
X129643647Y-126203790D01*
X129421417Y-126055301D01*
X129159279Y-126003158D01*
X127338615Y-126003158D01*
X127076477Y-126055301D01*
X126854247Y-126203790D01*
X126705758Y-126426020D01*
X126653615Y-126688158D01*
X126653615Y-127365210D01*
X126442177Y-127365210D01*
X126442177Y-126688158D01*
X126390034Y-126426020D01*
X126241545Y-126203790D01*
X126019315Y-126055301D01*
X125757177Y-126003158D01*
X123937064Y-126003158D01*
X123674926Y-126055301D01*
X123452696Y-126203790D01*
X123304207Y-126426020D01*
X123252064Y-126688158D01*
X123252064Y-127365210D01*
X110650410Y-127365210D01*
X110650410Y-124557889D01*
X131856057Y-124557889D01*
X131862665Y-124626561D01*
X131856057Y-124695233D01*
X131880751Y-124940315D01*
X131900899Y-125006200D01*
X131908095Y-125074722D01*
X131978955Y-125302992D01*
X132011135Y-125362272D01*
X132031128Y-125426689D01*
X132143250Y-125633256D01*
X132185562Y-125684144D01*
X132216911Y-125742426D01*
X132365405Y-125922403D01*
X132416294Y-125963943D01*
X132457830Y-126014827D01*
X132637806Y-126163321D01*
X132696088Y-126194670D01*
X132746977Y-126236983D01*
X132953543Y-126349104D01*
X133017961Y-126369097D01*
X133077239Y-126401276D01*
X133305508Y-126472136D01*
X133374030Y-126479332D01*
X133439914Y-126499480D01*
X133684996Y-126524175D01*
X133753670Y-126517567D01*
X133822344Y-126524175D01*
X134067426Y-126499480D01*
X134133310Y-126479332D01*
X134201831Y-126472136D01*
X134430101Y-126401276D01*
X134489380Y-126369096D01*
X134553795Y-126349104D01*
X134760362Y-126236983D01*
X134811249Y-126194672D01*
X134869537Y-126163320D01*
X135049512Y-126014826D01*
X135091051Y-125963939D01*
X135141933Y-125922404D01*
X135290428Y-125742428D01*
X135321779Y-125684142D01*
X135364092Y-125633253D01*
X135476213Y-125426686D01*
X135496205Y-125362271D01*
X135528385Y-125302992D01*
X135599245Y-125074723D01*
X135606441Y-125006201D01*
X135626589Y-124940317D01*
X135651284Y-124695235D01*
X135647955Y-124660644D01*
X135654735Y-124626561D01*
X135647955Y-124592478D01*
X135651283Y-124557889D01*
X167889781Y-124557889D01*
X167896389Y-124626561D01*
X167889781Y-124695233D01*
X167914475Y-124940315D01*
X167934623Y-125006200D01*
X167941819Y-125074722D01*
X168012679Y-125302992D01*
X168044859Y-125362271D01*
X168064851Y-125426686D01*
X168176972Y-125633255D01*
X168219286Y-125684145D01*
X168250635Y-125742428D01*
X168399129Y-125922405D01*
X168450018Y-125963946D01*
X168491557Y-126014832D01*
X168671533Y-126163323D01*
X168729815Y-126194672D01*
X168780705Y-126236985D01*
X168987274Y-126349106D01*
X169051690Y-126369098D01*
X169110966Y-126401276D01*
X169339235Y-126472136D01*
X169407757Y-126479332D01*
X169473641Y-126499480D01*
X169718723Y-126524175D01*
X169787397Y-126517567D01*
X169856071Y-126524175D01*
X170101153Y-126499480D01*
X170167037Y-126479332D01*
X170235558Y-126472136D01*
X170463828Y-126401276D01*
X170523106Y-126369097D01*
X170587524Y-126349104D01*
X170794089Y-126236983D01*
X170844977Y-126194671D01*
X170903261Y-126163321D01*
X171083238Y-126014827D01*
X171124778Y-125963938D01*
X171175662Y-125922402D01*
X171324156Y-125742426D01*
X171355505Y-125684144D01*
X171397817Y-125633256D01*
X171509939Y-125426688D01*
X171529931Y-125362273D01*
X171562112Y-125302992D01*
X171632972Y-125074723D01*
X171640168Y-125006201D01*
X171660316Y-124940317D01*
X171685011Y-124695235D01*
X171681682Y-124660644D01*
X171688462Y-124626561D01*
X171681682Y-124592478D01*
X171685011Y-124557887D01*
X171660316Y-124312805D01*
X171640167Y-124246918D01*
X171632971Y-124178398D01*
X171562111Y-123950130D01*
X171529932Y-123890852D01*
X171509939Y-123826435D01*
X171397817Y-123619867D01*
X171355505Y-123568979D01*
X171324156Y-123510697D01*
X171175662Y-123330721D01*
X171124778Y-123289185D01*
X171083238Y-123238296D01*
X170903261Y-123089802D01*
X170844978Y-123058452D01*
X170794092Y-123016142D01*
X170587526Y-122904020D01*
X170523109Y-122884027D01*
X170463828Y-122851846D01*
X170235558Y-122780986D01*
X170167036Y-122773790D01*
X170101151Y-122753642D01*
X169856069Y-122728948D01*
X169787397Y-122735556D01*
X169718725Y-122728948D01*
X169473643Y-122753642D01*
X169407759Y-122773789D01*
X169339241Y-122780985D01*
X169110971Y-122851843D01*
X169051695Y-122884021D01*
X168987274Y-122904014D01*
X168780705Y-123016135D01*
X168729815Y-123058448D01*
X168671530Y-123089799D01*
X168491554Y-123238293D01*
X168450018Y-123289177D01*
X168399129Y-123330717D01*
X168250635Y-123510694D01*
X168219285Y-123568979D01*
X168176972Y-123619868D01*
X168064850Y-123826438D01*
X168044858Y-123890853D01*
X168012679Y-123950130D01*
X167941820Y-124178399D01*
X167934624Y-124246919D01*
X167914475Y-124312807D01*
X167889781Y-124557889D01*
X135651283Y-124557889D01*
X135651284Y-124557887D01*
X135626589Y-124312805D01*
X135606440Y-124246918D01*
X135599244Y-124178398D01*
X135528384Y-123950130D01*
X135496206Y-123890854D01*
X135476213Y-123826437D01*
X135364092Y-123619870D01*
X135321779Y-123568981D01*
X135290428Y-123510695D01*
X135141933Y-123330719D01*
X135091051Y-123289184D01*
X135049512Y-123238297D01*
X134869537Y-123089803D01*
X134811252Y-123058453D01*
X134760365Y-123016141D01*
X134553798Y-122904019D01*
X134489381Y-122884026D01*
X134430101Y-122851846D01*
X134201831Y-122780986D01*
X134133309Y-122773790D01*
X134067424Y-122753642D01*
X133822342Y-122728948D01*
X133753670Y-122735556D01*
X133684998Y-122728948D01*
X133439916Y-122753642D01*
X133374032Y-122773790D01*
X133305508Y-122780986D01*
X133077239Y-122851846D01*
X133017961Y-122884025D01*
X132953541Y-122904019D01*
X132746975Y-123016142D01*
X132696089Y-123058452D01*
X132637806Y-123089802D01*
X132457830Y-123238296D01*
X132416294Y-123289180D01*
X132365405Y-123330720D01*
X132216911Y-123510697D01*
X132185562Y-123568979D01*
X132143250Y-123619867D01*
X132031128Y-123826434D01*
X132011136Y-123890851D01*
X131978955Y-123950130D01*
X131908096Y-124178399D01*
X131900900Y-124246919D01*
X131880751Y-124312807D01*
X131856057Y-124557889D01*
X110650410Y-124557889D01*
X110650410Y-121253726D01*
X110642887Y-121215908D01*
X110646154Y-121177490D01*
X110607388Y-120831333D01*
X110584401Y-120759044D01*
X110574095Y-120683891D01*
X110462852Y-120361890D01*
X110426200Y-120299190D01*
X110401443Y-120230914D01*
X110225302Y-119939853D01*
X110178867Y-119889055D01*
X110143000Y-119830319D01*
X109909546Y-119576973D01*
X109856553Y-119538344D01*
X109812380Y-119489869D01*
X109529195Y-119281022D01*
X109471793Y-119254062D01*
X109421208Y-119215815D01*
X109095872Y-119058246D01*
X109035538Y-119042539D01*
X108979840Y-119014518D01*
X108619935Y-118915003D01*
X108558062Y-118910453D01*
X108498535Y-118892964D01*
X108111645Y-118858285D01*
X108080857Y-118861591D01*
X108050490Y-118855550D01*
X102180439Y-118855550D01*
X102180439Y-116785894D01*
X170968786Y-116785894D01*
X171217098Y-117386855D01*
X171676487Y-117847046D01*
X172277013Y-118096406D01*
X172927254Y-118096974D01*
X173528215Y-117848662D01*
X173762923Y-117614363D01*
X176131883Y-117614363D01*
X176230482Y-117881165D01*
X176840022Y-118107601D01*
X177489817Y-118083541D01*
X177978398Y-117881165D01*
X178076997Y-117614363D01*
X177104440Y-116641805D01*
X176131883Y-117614363D01*
X173762923Y-117614363D01*
X173988406Y-117389273D01*
X174237766Y-116788747D01*
X174238282Y-116197782D01*
X175459039Y-116197782D01*
X175483099Y-116847577D01*
X175685475Y-117336158D01*
X175952277Y-117434757D01*
X176924835Y-116462200D01*
X177284045Y-116462200D01*
X178256603Y-117434757D01*
X178523405Y-117336158D01*
X178749841Y-116726618D01*
X178725781Y-116076823D01*
X178523405Y-115588242D01*
X178256603Y-115489643D01*
X177284045Y-116462200D01*
X176924835Y-116462200D01*
X175952277Y-115489643D01*
X175685475Y-115588242D01*
X175459039Y-116197782D01*
X174238282Y-116197782D01*
X174238334Y-116138506D01*
X173990022Y-115537545D01*
X173762911Y-115310037D01*
X176131883Y-115310037D01*
X177104440Y-116282595D01*
X178076997Y-115310037D01*
X177978398Y-115043235D01*
X177368858Y-114816799D01*
X176719063Y-114840859D01*
X176230482Y-115043235D01*
X176131883Y-115310037D01*
X173762911Y-115310037D01*
X173530633Y-115077354D01*
X172930107Y-114827994D01*
X172279866Y-114827426D01*
X171678905Y-115075738D01*
X171218714Y-115535127D01*
X170969354Y-116135653D01*
X170968786Y-116785894D01*
X102180439Y-116785894D01*
X102180439Y-105294039D01*
X102290090Y-105464441D01*
X102502290Y-105609431D01*
X102754180Y-105660440D01*
X104953820Y-105660440D01*
X105189137Y-105616162D01*
X105405261Y-105477090D01*
X105550251Y-105264890D01*
X105601260Y-105013000D01*
X105601260Y-103496178D01*
X108709228Y-103496178D01*
X108859721Y-103860397D01*
X109138138Y-104139300D01*
X109502093Y-104290428D01*
X109896178Y-104290772D01*
X110260397Y-104140279D01*
X110539300Y-103861862D01*
X110690428Y-103497907D01*
X110690556Y-103351154D01*
X110721532Y-103320178D01*
X113817228Y-103320178D01*
X113967721Y-103684397D01*
X114246138Y-103963300D01*
X114610093Y-104114428D01*
X114756846Y-104114556D01*
X115938145Y-105295855D01*
X116177115Y-105455530D01*
X116459000Y-105511600D01*
X120687881Y-105511600D01*
X120666828Y-105562303D01*
X120580822Y-105562228D01*
X120216603Y-105712721D01*
X119985521Y-105943400D01*
X118647383Y-105943400D01*
X118544862Y-105840700D01*
X118180907Y-105689572D01*
X117786822Y-105689228D01*
X117422603Y-105839721D01*
X117143700Y-106118138D01*
X116992572Y-106482093D01*
X116992228Y-106876178D01*
X117142721Y-107240397D01*
X117421138Y-107519300D01*
X117785093Y-107670428D01*
X118179178Y-107670772D01*
X118543397Y-107520279D01*
X118647257Y-107416600D01*
X120273659Y-107416600D01*
X120579093Y-107543428D01*
X120973178Y-107543772D01*
X121337397Y-107393279D01*
X121591705Y-107139415D01*
X123520111Y-109067821D01*
X123520037Y-109152118D01*
X123662812Y-109497659D01*
X123926951Y-109762259D01*
X124253220Y-109897738D01*
X124297812Y-110005659D01*
X124561951Y-110270259D01*
X124907242Y-110413637D01*
X125281118Y-110413963D01*
X125626659Y-110271188D01*
X125891259Y-110007049D01*
X126034637Y-109661758D01*
X126034712Y-109575998D01*
X126962056Y-108648654D01*
X126969578Y-108637397D01*
X127121731Y-108409684D01*
X127177801Y-108127799D01*
X127177801Y-103887385D01*
X127228600Y-103632000D01*
X127222414Y-103600902D01*
X127348251Y-103475065D01*
X127495145Y-103694907D01*
X131178145Y-107377907D01*
X131417115Y-107537582D01*
X131459189Y-107545951D01*
X131699000Y-107593653D01*
X131699005Y-107593652D01*
X131775630Y-107593652D01*
X130250882Y-109118400D01*
X128735604Y-109118400D01*
X128676049Y-109058741D01*
X128330758Y-108915363D01*
X127956882Y-108915037D01*
X127611341Y-109057812D01*
X127346741Y-109321951D01*
X127203363Y-109667242D01*
X127203037Y-110041118D01*
X127345812Y-110386659D01*
X127609951Y-110651259D01*
X127955242Y-110794637D01*
X128329118Y-110794963D01*
X128674659Y-110652188D01*
X128735353Y-110591600D01*
X130555992Y-110591600D01*
X130837877Y-110535530D01*
X131076847Y-110375855D01*
X132300584Y-109152118D01*
X136982037Y-109152118D01*
X137124812Y-109497659D01*
X137388951Y-109762259D01*
X137734242Y-109905637D01*
X138108118Y-109905963D01*
X138292930Y-109829600D01*
X138781617Y-109829600D01*
X138884138Y-109932300D01*
X139248093Y-110083428D01*
X139642178Y-110083772D01*
X140006397Y-109933279D01*
X140285300Y-109654862D01*
X140436428Y-109290907D01*
X140436772Y-108896822D01*
X140286279Y-108532603D01*
X140007862Y-108253700D01*
X139643907Y-108102572D01*
X139249822Y-108102228D01*
X138885603Y-108252721D01*
X138781743Y-108356400D01*
X138641383Y-108356400D01*
X138455049Y-108169741D01*
X138109758Y-108026363D01*
X137735882Y-108026037D01*
X137390341Y-108168812D01*
X137125741Y-108432951D01*
X136982363Y-108778242D01*
X136982037Y-109152118D01*
X132300584Y-109152118D01*
X132943821Y-108508881D01*
X133028118Y-108508955D01*
X133299344Y-108396887D01*
X133398721Y-108637397D01*
X133677138Y-108916300D01*
X134041093Y-109067428D01*
X134435178Y-109067772D01*
X134799397Y-108917279D01*
X135078300Y-108638862D01*
X135229428Y-108274907D01*
X135229772Y-107880822D01*
X135079279Y-107516603D01*
X134800862Y-107237700D01*
X134436907Y-107086572D01*
X134290154Y-107086444D01*
X133980215Y-106776505D01*
X137419101Y-106776505D01*
X137700986Y-106720435D01*
X137939956Y-106560760D01*
X137973065Y-106527651D01*
X138118178Y-106527778D01*
X138482397Y-106377285D01*
X138761300Y-106098868D01*
X138912428Y-105734913D01*
X138912512Y-105638602D01*
X139958663Y-105638602D01*
X140264093Y-105765428D01*
X140658178Y-105765772D01*
X141022397Y-105615279D01*
X141301300Y-105336862D01*
X141452428Y-104972907D01*
X141452556Y-104826154D01*
X141706909Y-104571801D01*
X146583400Y-104571801D01*
X146583400Y-107031617D01*
X146480700Y-107134138D01*
X146329572Y-107498093D01*
X146329228Y-107892178D01*
X146468566Y-108229399D01*
X142647096Y-108229399D01*
X142519401Y-108203999D01*
X142237516Y-108260069D01*
X141998546Y-108419744D01*
X141553935Y-108864355D01*
X141408822Y-108864228D01*
X141044603Y-109014721D01*
X140765700Y-109293138D01*
X140614572Y-109657093D01*
X140614228Y-110051178D01*
X140764721Y-110415397D01*
X141043138Y-110694300D01*
X141407093Y-110845428D01*
X141801178Y-110845772D01*
X142165397Y-110695279D01*
X142444300Y-110416862D01*
X142595428Y-110052907D01*
X142595556Y-109906154D01*
X142849911Y-109651799D01*
X152270967Y-109651799D01*
X152543132Y-109597662D01*
X152773861Y-109443493D01*
X153327556Y-108889799D01*
X158775089Y-108889799D01*
X162801145Y-112915855D01*
X163040115Y-113075530D01*
X163322000Y-113131600D01*
X170168360Y-113131600D01*
X170450245Y-113075530D01*
X170689215Y-112915855D01*
X172089095Y-111515975D01*
X172277013Y-111594006D01*
X172927254Y-111594574D01*
X173528215Y-111346262D01*
X173988406Y-110886873D01*
X174237766Y-110286347D01*
X174237768Y-110283494D01*
X175469666Y-110283494D01*
X175717978Y-110884455D01*
X176177367Y-111344646D01*
X176777893Y-111594006D01*
X177428134Y-111594574D01*
X178029095Y-111346262D01*
X178489286Y-110886873D01*
X178738646Y-110286347D01*
X178739214Y-109636106D01*
X178490902Y-109035145D01*
X178031513Y-108574954D01*
X177430987Y-108325594D01*
X176780746Y-108325026D01*
X176179785Y-108573338D01*
X175719594Y-109032727D01*
X175470234Y-109633253D01*
X175469666Y-110283494D01*
X174237768Y-110283494D01*
X174238334Y-109636106D01*
X173990022Y-109035145D01*
X173530633Y-108574954D01*
X172930107Y-108325594D01*
X172279866Y-108325026D01*
X171678905Y-108573338D01*
X171218714Y-109032727D01*
X170969354Y-109633253D01*
X170968786Y-110283494D01*
X171047545Y-110474105D01*
X169863250Y-111658400D01*
X163627110Y-111658400D01*
X159626454Y-107657744D01*
X159387484Y-107498069D01*
X159105599Y-107441999D01*
X158977904Y-107467399D01*
X153032967Y-107467399D01*
X152760802Y-107521536D01*
X152530073Y-107675704D01*
X151976379Y-108229399D01*
X148171119Y-108229399D01*
X148310428Y-107893907D01*
X148310772Y-107499822D01*
X148160279Y-107135603D01*
X148056600Y-107031743D01*
X148056600Y-104571801D01*
X150617586Y-104571801D01*
X150670721Y-104700397D01*
X150949138Y-104979300D01*
X151313093Y-105130428D01*
X151707178Y-105130772D01*
X152071397Y-104980279D01*
X152350300Y-104701862D01*
X152501428Y-104337907D01*
X152501446Y-104317801D01*
X158237586Y-104317801D01*
X158290721Y-104446397D01*
X158569138Y-104725300D01*
X158933093Y-104876428D01*
X159327178Y-104876772D01*
X159691397Y-104726279D01*
X159970300Y-104447862D01*
X160121428Y-104083907D01*
X160121772Y-103689822D01*
X159971279Y-103325603D01*
X159692862Y-103046700D01*
X159328907Y-102895572D01*
X159081365Y-102895356D01*
X158826201Y-102844601D01*
X153957677Y-102844601D01*
X153974637Y-102803758D01*
X153974646Y-102793798D01*
X160299088Y-102793798D01*
X162712355Y-105207065D01*
X162712228Y-105352178D01*
X162862721Y-105716397D01*
X163141138Y-105995300D01*
X163505093Y-106146428D01*
X163899178Y-106146772D01*
X164263397Y-105996279D01*
X164542300Y-105717862D01*
X164693428Y-105353907D01*
X164693772Y-104959822D01*
X164543279Y-104595603D01*
X164264862Y-104316700D01*
X163900907Y-104165572D01*
X163754154Y-104165444D01*
X161576371Y-101987661D01*
X172016758Y-101987661D01*
X172228990Y-102501303D01*
X172621630Y-102894629D01*
X172829512Y-102980949D01*
X172623697Y-103065990D01*
X172230371Y-103458630D01*
X172017243Y-103971900D01*
X172016758Y-104527661D01*
X172228990Y-105041303D01*
X172621630Y-105434629D01*
X173134900Y-105647757D01*
X173690661Y-105648242D01*
X174204303Y-105436010D01*
X174597629Y-105043370D01*
X174810757Y-104530100D01*
X174811242Y-103974339D01*
X174599010Y-103460697D01*
X174206370Y-103067371D01*
X173998488Y-102981051D01*
X174204303Y-102896010D01*
X174597629Y-102503370D01*
X174717503Y-102214680D01*
X178293580Y-102214680D01*
X178378072Y-102639451D01*
X178618686Y-102999554D01*
X178978789Y-103240168D01*
X179403560Y-103324660D01*
X180006440Y-103324660D01*
X180431211Y-103240168D01*
X180791314Y-102999554D01*
X181031928Y-102639451D01*
X181116420Y-102214680D01*
X181072504Y-101993898D01*
X182524399Y-103445793D01*
X182524399Y-111443379D01*
X182547404Y-111559033D01*
X182410559Y-111647090D01*
X182265569Y-111859290D01*
X182221740Y-112075724D01*
X182071828Y-111851365D01*
X181618609Y-111548533D01*
X181084000Y-111442193D01*
X180549391Y-111548533D01*
X180096172Y-111851365D01*
X179793340Y-112304584D01*
X179687000Y-112839193D01*
X179687000Y-113582807D01*
X179793340Y-114117416D01*
X180096172Y-114570635D01*
X180549391Y-114873467D01*
X181084000Y-114979807D01*
X181618609Y-114873467D01*
X182071828Y-114570635D01*
X182221343Y-114346870D01*
X182258838Y-114546137D01*
X182397910Y-114762261D01*
X182610110Y-114907251D01*
X182862000Y-114958260D01*
X184386000Y-114958260D01*
X184621317Y-114913982D01*
X184837441Y-114774910D01*
X184982431Y-114562710D01*
X185033440Y-114310820D01*
X185033440Y-112111180D01*
X184989162Y-111875863D01*
X184850090Y-111659739D01*
X184637890Y-111514749D01*
X184415440Y-111469702D01*
X184398396Y-111384015D01*
X184216697Y-111112083D01*
X184200799Y-111096185D01*
X184200799Y-103098599D01*
X184171162Y-102949602D01*
X184136995Y-102777833D01*
X183955296Y-102505902D01*
X183785899Y-102336505D01*
X184092178Y-102336772D01*
X184456397Y-102186279D01*
X184735300Y-101907862D01*
X184886428Y-101543907D01*
X184886772Y-101149822D01*
X184736279Y-100785603D01*
X184457862Y-100506700D01*
X184093907Y-100355572D01*
X183947154Y-100355444D01*
X180961625Y-97369915D01*
X181025637Y-97215758D01*
X181025856Y-96964075D01*
X181426927Y-97365846D01*
X182027453Y-97615206D01*
X182677694Y-97615774D01*
X183278655Y-97367462D01*
X183738846Y-96908073D01*
X183988206Y-96307547D01*
X183988774Y-95657306D01*
X183740462Y-95056345D01*
X183395520Y-94710801D01*
X183738846Y-94368073D01*
X183988206Y-93767547D01*
X183988774Y-93117306D01*
X183740462Y-92516345D01*
X183281073Y-92056154D01*
X182680547Y-91806794D01*
X182030306Y-91806226D01*
X181429345Y-92054538D01*
X180969154Y-92513927D01*
X180719794Y-93114453D01*
X180719226Y-93764694D01*
X180967538Y-94365655D01*
X181312480Y-94711199D01*
X180969154Y-95053927D01*
X180719794Y-95654453D01*
X180719226Y-96304694D01*
X180738542Y-96351443D01*
X180619049Y-96231741D01*
X180273758Y-96088363D01*
X179899882Y-96088037D01*
X179554341Y-96230812D01*
X179289741Y-96494951D01*
X179146363Y-96840242D01*
X179146037Y-97214118D01*
X179288812Y-97559659D01*
X179370354Y-97641343D01*
X179405470Y-97817885D01*
X179565145Y-98056855D01*
X180101190Y-98592900D01*
X178955700Y-98592900D01*
X178720383Y-98637178D01*
X178504259Y-98776250D01*
X178359269Y-98988450D01*
X178308260Y-99240340D01*
X178308260Y-100190300D01*
X178352538Y-100425617D01*
X178424747Y-100537833D01*
X178361432Y-100667065D01*
X178487966Y-100838000D01*
X179578000Y-100838000D01*
X179578000Y-100837740D01*
X179832000Y-100837740D01*
X179832000Y-100838000D01*
X179852000Y-100838000D01*
X179852000Y-101092000D01*
X179832000Y-101092000D01*
X179832000Y-101104700D01*
X179578000Y-101104700D01*
X179578000Y-101092000D01*
X178487966Y-101092000D01*
X178361432Y-101262935D01*
X178517431Y-101581344D01*
X178378072Y-101789909D01*
X178293580Y-102214680D01*
X174717503Y-102214680D01*
X174810757Y-101990100D01*
X174811242Y-101434339D01*
X174599010Y-100920697D01*
X174206370Y-100527371D01*
X173693100Y-100314243D01*
X173137339Y-100313758D01*
X172623697Y-100525990D01*
X172230371Y-100918630D01*
X172017243Y-101431900D01*
X172016758Y-101987661D01*
X161576371Y-101987661D01*
X161150453Y-101561743D01*
X160911483Y-101402068D01*
X160629598Y-101345998D01*
X160501903Y-101371398D01*
X142458390Y-101371398D01*
X147240610Y-96589178D01*
X159029228Y-96589178D01*
X159179721Y-96953397D01*
X159458138Y-97232300D01*
X159822093Y-97383428D01*
X160216178Y-97383772D01*
X160580397Y-97233279D01*
X160859300Y-96954862D01*
X161010428Y-96590907D01*
X161010556Y-96444154D01*
X162008532Y-95446178D01*
X169951228Y-95446178D01*
X170101721Y-95810397D01*
X170205400Y-95914257D01*
X170205400Y-97335657D01*
X170102700Y-97438178D01*
X169951572Y-97802133D01*
X169951228Y-98196218D01*
X170101721Y-98560437D01*
X170380138Y-98839340D01*
X170744093Y-98990468D01*
X171138178Y-98990812D01*
X171502397Y-98840319D01*
X171781300Y-98561902D01*
X171932428Y-98197947D01*
X171932772Y-97803862D01*
X171782279Y-97439643D01*
X171678600Y-97335783D01*
X171678600Y-95914383D01*
X171781300Y-95811862D01*
X171932428Y-95447907D01*
X171932772Y-95053822D01*
X171782279Y-94689603D01*
X171503862Y-94410700D01*
X171139907Y-94259572D01*
X170745822Y-94259228D01*
X170381603Y-94409721D01*
X170102700Y-94688138D01*
X169951572Y-95052093D01*
X169951228Y-95446178D01*
X162008532Y-95446178D01*
X162318855Y-95135855D01*
X162371982Y-95056345D01*
X162478530Y-94896885D01*
X162527307Y-94651663D01*
X162637300Y-94541862D01*
X162788428Y-94177907D01*
X162788772Y-93783822D01*
X162780869Y-93764694D01*
X173219226Y-93764694D01*
X173467538Y-94365655D01*
X173812480Y-94711199D01*
X173469154Y-95053927D01*
X173219794Y-95654453D01*
X173219226Y-96304694D01*
X173467538Y-96905655D01*
X173926927Y-97365846D01*
X174527453Y-97615206D01*
X175177694Y-97615774D01*
X175778655Y-97367462D01*
X176238846Y-96908073D01*
X176488206Y-96307547D01*
X176488774Y-95657306D01*
X176240462Y-95056345D01*
X175895520Y-94710801D01*
X176238846Y-94368073D01*
X176488206Y-93767547D01*
X176488774Y-93117306D01*
X176240462Y-92516345D01*
X175781073Y-92056154D01*
X175180547Y-91806794D01*
X174530306Y-91806226D01*
X173929345Y-92054538D01*
X173469154Y-92513927D01*
X173219794Y-93114453D01*
X173219226Y-93764694D01*
X162780869Y-93764694D01*
X162638279Y-93419603D01*
X162359862Y-93140700D01*
X161995907Y-92989572D01*
X161601822Y-92989228D01*
X161237603Y-93139721D01*
X160958700Y-93418138D01*
X160807572Y-93782093D01*
X160807228Y-94176178D01*
X160920639Y-94450651D01*
X159968935Y-95402355D01*
X159823822Y-95402228D01*
X159459603Y-95552721D01*
X159180700Y-95831138D01*
X159029572Y-96195093D01*
X159029228Y-96589178D01*
X147240610Y-96589178D01*
X150662588Y-93167200D01*
X156409261Y-93167200D01*
X156537138Y-93295300D01*
X156901093Y-93446428D01*
X157295178Y-93446772D01*
X157659397Y-93296279D01*
X157938300Y-93017862D01*
X158089428Y-92653907D01*
X158089772Y-92259822D01*
X157939279Y-91895603D01*
X157660862Y-91616700D01*
X157296907Y-91465572D01*
X156902822Y-91465228D01*
X156538603Y-91615721D01*
X156409299Y-91744800D01*
X155117646Y-91744800D01*
X155117963Y-91380882D01*
X154991126Y-91073915D01*
X155111630Y-91194629D01*
X155624900Y-91407757D01*
X156180661Y-91408242D01*
X156694303Y-91196010D01*
X157087629Y-90803370D01*
X157300757Y-90290100D01*
X157301242Y-89734339D01*
X157089010Y-89220697D01*
X156696370Y-88827371D01*
X156183100Y-88614243D01*
X155627339Y-88613758D01*
X155113697Y-88825990D01*
X154720371Y-89218630D01*
X154634051Y-89426512D01*
X154549010Y-89220697D01*
X154156370Y-88827371D01*
X153643100Y-88614243D01*
X153087339Y-88613758D01*
X152573697Y-88825990D01*
X152180371Y-89218630D01*
X152094051Y-89426512D01*
X152009010Y-89220697D01*
X151616370Y-88827371D01*
X151103100Y-88614243D01*
X150547339Y-88613758D01*
X150033697Y-88825990D01*
X149640371Y-89218630D01*
X149554051Y-89426512D01*
X149469010Y-89220697D01*
X149076370Y-88827371D01*
X148563100Y-88614243D01*
X148007339Y-88613758D01*
X147493697Y-88825990D01*
X147100371Y-89218630D01*
X147014051Y-89426512D01*
X146929010Y-89220697D01*
X146536370Y-88827371D01*
X146023100Y-88614243D01*
X145467339Y-88613758D01*
X144953697Y-88825990D01*
X144560371Y-89218630D01*
X144474051Y-89426512D01*
X144389010Y-89220697D01*
X143996370Y-88827371D01*
X143483100Y-88614243D01*
X142927339Y-88613758D01*
X142413697Y-88825990D01*
X142020371Y-89218630D01*
X141934051Y-89426512D01*
X141849010Y-89220697D01*
X141456370Y-88827371D01*
X140943100Y-88614243D01*
X140387339Y-88613758D01*
X139873697Y-88825990D01*
X139480371Y-89218630D01*
X139394051Y-89426512D01*
X139309010Y-89220697D01*
X138916370Y-88827371D01*
X138403100Y-88614243D01*
X137847339Y-88613758D01*
X137333697Y-88825990D01*
X136940371Y-89218630D01*
X136854051Y-89426512D01*
X136769010Y-89220697D01*
X136376370Y-88827371D01*
X135863100Y-88614243D01*
X135307339Y-88613758D01*
X134793697Y-88825990D01*
X134400371Y-89218630D01*
X134314051Y-89426512D01*
X134229010Y-89220697D01*
X133836370Y-88827371D01*
X133323100Y-88614243D01*
X132767339Y-88613758D01*
X132253697Y-88825990D01*
X131860371Y-89218630D01*
X131774051Y-89426512D01*
X131689010Y-89220697D01*
X131296370Y-88827371D01*
X130783100Y-88614243D01*
X130227339Y-88613758D01*
X129713697Y-88825990D01*
X129320371Y-89218630D01*
X129234051Y-89426512D01*
X129149010Y-89220697D01*
X128756370Y-88827371D01*
X128243100Y-88614243D01*
X127687339Y-88613758D01*
X127173697Y-88825990D01*
X126780371Y-89218630D01*
X126694051Y-89426512D01*
X126609010Y-89220697D01*
X126216370Y-88827371D01*
X125703100Y-88614243D01*
X125147339Y-88613758D01*
X124633697Y-88825990D01*
X124240371Y-89218630D01*
X124154051Y-89426512D01*
X124069010Y-89220697D01*
X123676370Y-88827371D01*
X123163100Y-88614243D01*
X122607339Y-88613758D01*
X122093697Y-88825990D01*
X121700371Y-89218630D01*
X121614051Y-89426512D01*
X121529010Y-89220697D01*
X121136370Y-88827371D01*
X120623100Y-88614243D01*
X120067339Y-88613758D01*
X119553697Y-88825990D01*
X119160371Y-89218630D01*
X119074051Y-89426512D01*
X118989010Y-89220697D01*
X118596370Y-88827371D01*
X118083100Y-88614243D01*
X117527339Y-88613758D01*
X117013697Y-88825990D01*
X116620371Y-89218630D01*
X116407243Y-89731900D01*
X116406758Y-90287661D01*
X116618990Y-90801303D01*
X117011630Y-91194629D01*
X117524900Y-91407757D01*
X117664202Y-91407879D01*
X117627572Y-91496093D01*
X117627228Y-91890178D01*
X117777721Y-92254397D01*
X118056138Y-92533300D01*
X118096511Y-92550064D01*
X118115106Y-92577894D01*
X118496105Y-92958894D01*
X118630305Y-93048563D01*
X118726836Y-93113063D01*
X118999000Y-93167200D01*
X122768412Y-93167200D01*
X133157012Y-103555800D01*
X131753739Y-103555800D01*
X131625862Y-103427700D01*
X131261907Y-103276572D01*
X130966076Y-103276314D01*
X130736862Y-103046700D01*
X130372907Y-102895572D01*
X130226154Y-102895444D01*
X128892454Y-101561744D01*
X128653484Y-101402069D01*
X128371599Y-101345999D01*
X127699007Y-101345999D01*
X127417122Y-101402069D01*
X127178152Y-101561744D01*
X126950695Y-101789201D01*
X126862880Y-101576674D01*
X126598741Y-101312074D01*
X126253450Y-101168696D01*
X126225765Y-101168672D01*
X126272702Y-101055635D01*
X126273028Y-100681759D01*
X126130253Y-100336218D01*
X125866114Y-100071618D01*
X125520823Y-99928240D01*
X125146947Y-99927914D01*
X124801406Y-100070689D01*
X124536806Y-100334828D01*
X124471756Y-100491486D01*
X124266758Y-100406363D01*
X123892882Y-100406037D01*
X123547341Y-100548812D01*
X123282741Y-100812951D01*
X123139363Y-101158242D01*
X123139037Y-101532118D01*
X123281812Y-101877659D01*
X123511099Y-102107346D01*
X123391603Y-102156721D01*
X123112700Y-102435138D01*
X122961572Y-102799093D01*
X122961444Y-102945846D01*
X122072179Y-103835111D01*
X121987882Y-103835037D01*
X121642341Y-103977812D01*
X121581647Y-104038400D01*
X116764110Y-104038400D01*
X115798645Y-103072935D01*
X115798772Y-102927822D01*
X115648279Y-102563603D01*
X115369862Y-102284700D01*
X115005907Y-102133572D01*
X114611822Y-102133228D01*
X114247603Y-102283721D01*
X113968700Y-102562138D01*
X113817572Y-102926093D01*
X113817228Y-103320178D01*
X110721532Y-103320178D01*
X111854256Y-102187454D01*
X112013931Y-101948483D01*
X112070001Y-101666599D01*
X112044601Y-101538904D01*
X112044601Y-101075550D01*
X120403424Y-101075550D01*
X120575911Y-101493001D01*
X120682630Y-101599906D01*
X120577033Y-101705319D01*
X120403818Y-102122468D01*
X120403424Y-102574150D01*
X120575911Y-102991601D01*
X120895019Y-103311267D01*
X121312168Y-103484482D01*
X121763850Y-103484876D01*
X122181301Y-103312389D01*
X122500967Y-102993281D01*
X122674182Y-102576132D01*
X122674576Y-102124450D01*
X122502089Y-101706999D01*
X122395370Y-101600094D01*
X122500967Y-101494681D01*
X122674182Y-101077532D01*
X122674576Y-100625850D01*
X122502089Y-100208399D01*
X122182981Y-99888733D01*
X121765832Y-99715518D01*
X121314150Y-99715124D01*
X120896699Y-99887611D01*
X120577033Y-100206719D01*
X120403818Y-100623868D01*
X120403424Y-101075550D01*
X112044601Y-101075550D01*
X112044601Y-98039934D01*
X113715175Y-96369361D01*
X113896178Y-96369519D01*
X114260397Y-96219026D01*
X114539300Y-95940609D01*
X114690428Y-95576654D01*
X114690772Y-95182569D01*
X114540279Y-94818350D01*
X114261862Y-94539447D01*
X113897907Y-94388319D01*
X113503822Y-94387975D01*
X113139603Y-94538468D01*
X112860700Y-94816885D01*
X112709572Y-95180840D01*
X112709413Y-95363546D01*
X110830507Y-97242452D01*
X110676338Y-97473181D01*
X110640679Y-97652451D01*
X110622201Y-97745346D01*
X110622201Y-101336089D01*
X109648935Y-102309355D01*
X109503822Y-102309228D01*
X109139603Y-102459721D01*
X108860700Y-102738138D01*
X108709572Y-103102093D01*
X108709228Y-103496178D01*
X105601260Y-103496178D01*
X105601260Y-103489000D01*
X105556982Y-103253683D01*
X105417910Y-103037559D01*
X105205710Y-102892569D01*
X104989276Y-102848740D01*
X105213635Y-102698828D01*
X105516467Y-102245609D01*
X105622807Y-101711000D01*
X105516467Y-101176391D01*
X105213635Y-100723172D01*
X104778394Y-100432353D01*
X104843761Y-100413059D01*
X105269450Y-100069026D01*
X105531080Y-99588277D01*
X105546040Y-99514070D01*
X105423540Y-99298000D01*
X103981000Y-99298000D01*
X103981000Y-99318000D01*
X103727000Y-99318000D01*
X103727000Y-99298000D01*
X103707000Y-99298000D01*
X103707000Y-99044000D01*
X103727000Y-99044000D01*
X103727000Y-97774000D01*
X103981000Y-97774000D01*
X103981000Y-99044000D01*
X105423540Y-99044000D01*
X105546040Y-98827930D01*
X105531080Y-98753723D01*
X105269450Y-98272974D01*
X104843761Y-97928941D01*
X104318820Y-97774000D01*
X103981000Y-97774000D01*
X103727000Y-97774000D01*
X103389180Y-97774000D01*
X102864239Y-97928941D01*
X102438550Y-98272974D01*
X102180439Y-98747257D01*
X102180439Y-87264694D01*
X173219226Y-87264694D01*
X173467538Y-87865655D01*
X173812480Y-88211199D01*
X173469154Y-88553927D01*
X173219794Y-89154453D01*
X173219226Y-89804694D01*
X173467538Y-90405655D01*
X173926927Y-90865846D01*
X174527453Y-91115206D01*
X175177694Y-91115774D01*
X175778655Y-90867462D01*
X176238846Y-90408073D01*
X176317937Y-90217600D01*
X180889835Y-90217600D01*
X180967538Y-90405655D01*
X181426927Y-90865846D01*
X182027453Y-91115206D01*
X182677694Y-91115774D01*
X183278655Y-90867462D01*
X183738846Y-90408073D01*
X183988206Y-89807547D01*
X183988774Y-89157306D01*
X183740462Y-88556345D01*
X183395520Y-88210801D01*
X183738846Y-87868073D01*
X183988206Y-87267547D01*
X183988774Y-86617306D01*
X183740462Y-86016345D01*
X183281073Y-85556154D01*
X182680547Y-85306794D01*
X182030306Y-85306226D01*
X181429345Y-85554538D01*
X180969154Y-86013927D01*
X180719794Y-86614453D01*
X180719226Y-87264694D01*
X180967538Y-87865655D01*
X181312480Y-88211199D01*
X180969154Y-88553927D01*
X180890063Y-88744400D01*
X176318165Y-88744400D01*
X176240462Y-88556345D01*
X175895520Y-88210801D01*
X176238846Y-87868073D01*
X176488206Y-87267547D01*
X176488774Y-86617306D01*
X176240462Y-86016345D01*
X175781073Y-85556154D01*
X175180547Y-85306794D01*
X174530306Y-85306226D01*
X173929345Y-85554538D01*
X173469154Y-86013927D01*
X173219794Y-86614453D01*
X173219226Y-87264694D01*
X102180439Y-87264694D01*
X102180439Y-86157137D01*
X108050490Y-86157137D01*
X108080878Y-86151092D01*
X108111685Y-86154398D01*
X108498575Y-86119696D01*
X108558132Y-86102195D01*
X108620041Y-86097632D01*
X108979945Y-85998055D01*
X109035655Y-85970017D01*
X109096007Y-85954291D01*
X109421344Y-85796633D01*
X109471924Y-85758373D01*
X109529324Y-85731397D01*
X109812508Y-85522448D01*
X109856659Y-85473974D01*
X109909638Y-85435340D01*
X110143091Y-85181894D01*
X110178935Y-85123168D01*
X110225351Y-85072378D01*
X110401492Y-84781226D01*
X110426231Y-84712970D01*
X110462865Y-84650293D01*
X110574108Y-84328232D01*
X110584407Y-84253098D01*
X110607389Y-84180823D01*
X110646155Y-83834641D01*
X110642888Y-83796225D01*
X110650410Y-83758410D01*
X110650410Y-80309469D01*
X131856057Y-80309469D01*
X131862665Y-80378141D01*
X131856057Y-80446813D01*
X131880751Y-80691895D01*
X131900899Y-80757780D01*
X131908095Y-80826302D01*
X131978955Y-81054572D01*
X132011135Y-81113852D01*
X132031128Y-81178269D01*
X132143250Y-81384836D01*
X132185562Y-81435724D01*
X132216911Y-81494006D01*
X132365405Y-81673983D01*
X132416294Y-81715523D01*
X132457830Y-81766407D01*
X132637806Y-81914901D01*
X132696088Y-81946250D01*
X132746977Y-81988563D01*
X132953543Y-82100684D01*
X133017961Y-82120677D01*
X133077239Y-82152856D01*
X133305508Y-82223716D01*
X133374030Y-82230912D01*
X133439914Y-82251060D01*
X133684996Y-82275755D01*
X133753670Y-82269147D01*
X133822344Y-82275755D01*
X134067426Y-82251060D01*
X134133310Y-82230912D01*
X134201831Y-82223716D01*
X134430101Y-82152856D01*
X134489380Y-82120676D01*
X134553795Y-82100684D01*
X134760362Y-81988563D01*
X134811249Y-81946252D01*
X134869537Y-81914900D01*
X135049512Y-81766406D01*
X135091051Y-81715519D01*
X135141933Y-81673984D01*
X135290428Y-81494008D01*
X135321779Y-81435722D01*
X135364092Y-81384833D01*
X135476213Y-81178266D01*
X135496205Y-81113851D01*
X135528385Y-81054572D01*
X135599245Y-80826303D01*
X135606441Y-80757781D01*
X135626589Y-80691897D01*
X135651284Y-80446815D01*
X135647955Y-80412224D01*
X135654735Y-80378141D01*
X135647955Y-80344058D01*
X135651283Y-80309469D01*
X167889781Y-80309469D01*
X167896389Y-80378141D01*
X167889781Y-80446813D01*
X167914475Y-80691895D01*
X167934623Y-80757780D01*
X167941819Y-80826302D01*
X168012679Y-81054572D01*
X168044858Y-81113850D01*
X168064850Y-81178265D01*
X168176972Y-81384835D01*
X168219284Y-81435724D01*
X168250636Y-81494011D01*
X168399130Y-81673986D01*
X168450018Y-81715526D01*
X168491557Y-81766412D01*
X168671533Y-81914903D01*
X168729815Y-81946252D01*
X168780705Y-81988565D01*
X168987274Y-82100686D01*
X169051690Y-82120678D01*
X169110966Y-82152856D01*
X169339235Y-82223716D01*
X169407757Y-82230912D01*
X169473641Y-82251060D01*
X169718723Y-82275755D01*
X169787397Y-82269147D01*
X169856071Y-82275755D01*
X170101153Y-82251060D01*
X170167037Y-82230912D01*
X170235558Y-82223716D01*
X170463828Y-82152856D01*
X170523106Y-82120677D01*
X170587524Y-82100684D01*
X170794089Y-81988563D01*
X170844977Y-81946251D01*
X170903261Y-81914901D01*
X171083238Y-81766407D01*
X171124778Y-81715518D01*
X171175662Y-81673982D01*
X171324156Y-81494006D01*
X171355505Y-81435724D01*
X171397817Y-81384836D01*
X171509939Y-81178268D01*
X171529931Y-81113853D01*
X171562112Y-81054572D01*
X171632972Y-80826303D01*
X171640168Y-80757781D01*
X171660316Y-80691897D01*
X171685011Y-80446815D01*
X171681682Y-80412224D01*
X171688462Y-80378141D01*
X171681682Y-80344058D01*
X171685011Y-80309467D01*
X171660316Y-80064385D01*
X171640167Y-79998498D01*
X171632971Y-79929978D01*
X171562111Y-79701710D01*
X171529932Y-79642432D01*
X171509939Y-79578015D01*
X171397817Y-79371447D01*
X171355505Y-79320559D01*
X171324156Y-79262277D01*
X171175662Y-79082301D01*
X171124778Y-79040765D01*
X171083238Y-78989876D01*
X170903261Y-78841382D01*
X170844977Y-78810032D01*
X170794089Y-78767720D01*
X170587524Y-78655599D01*
X170523107Y-78635607D01*
X170463831Y-78603428D01*
X170235561Y-78532567D01*
X170167038Y-78525370D01*
X170101151Y-78505222D01*
X169856069Y-78480528D01*
X169787397Y-78487136D01*
X169718725Y-78480528D01*
X169473643Y-78505222D01*
X169407759Y-78525369D01*
X169339241Y-78532565D01*
X169110971Y-78603423D01*
X169051695Y-78635601D01*
X168987274Y-78655594D01*
X168780705Y-78767715D01*
X168729815Y-78810028D01*
X168671530Y-78841379D01*
X168491554Y-78989873D01*
X168450018Y-79040757D01*
X168399129Y-79082297D01*
X168250635Y-79262274D01*
X168219285Y-79320559D01*
X168176972Y-79371448D01*
X168064850Y-79578018D01*
X168044858Y-79642433D01*
X168012679Y-79701710D01*
X167941820Y-79929979D01*
X167934624Y-79998499D01*
X167914475Y-80064387D01*
X167889781Y-80309469D01*
X135651283Y-80309469D01*
X135651284Y-80309467D01*
X135626589Y-80064385D01*
X135606440Y-79998498D01*
X135599244Y-79929978D01*
X135528384Y-79701710D01*
X135496206Y-79642434D01*
X135476213Y-79578017D01*
X135364092Y-79371450D01*
X135321779Y-79320561D01*
X135290428Y-79262275D01*
X135141933Y-79082299D01*
X135091051Y-79040764D01*
X135049512Y-78989877D01*
X134869537Y-78841383D01*
X134811249Y-78810031D01*
X134760362Y-78767720D01*
X134553795Y-78655599D01*
X134489381Y-78635607D01*
X134430104Y-78603428D01*
X134201834Y-78532567D01*
X134133311Y-78525370D01*
X134067424Y-78505222D01*
X133822342Y-78480528D01*
X133753670Y-78487136D01*
X133684998Y-78480528D01*
X133439916Y-78505222D01*
X133374029Y-78525370D01*
X133305506Y-78532567D01*
X133077236Y-78603428D01*
X133017960Y-78635607D01*
X132953543Y-78655599D01*
X132746977Y-78767720D01*
X132696088Y-78810033D01*
X132637806Y-78841382D01*
X132457830Y-78989876D01*
X132416294Y-79040760D01*
X132365405Y-79082300D01*
X132216911Y-79262277D01*
X132185562Y-79320559D01*
X132143250Y-79371447D01*
X132031128Y-79578014D01*
X132011136Y-79642431D01*
X131978955Y-79701710D01*
X131908096Y-79929979D01*
X131900900Y-79998499D01*
X131880751Y-80064387D01*
X131856057Y-80309469D01*
X110650410Y-80309469D01*
X110650410Y-77786934D01*
X123252064Y-77786934D01*
X123252064Y-78319017D01*
G36*
X126956435Y-93341662D02*
X127228599Y-93395799D01*
X129402170Y-93395799D01*
X135025618Y-99019248D01*
X135025618Y-99623207D01*
X135000218Y-99750902D01*
X135045689Y-99979503D01*
X134295213Y-99979503D01*
X133400889Y-99085179D01*
X133400963Y-99000882D01*
X133258188Y-98655341D01*
X132994049Y-98390741D01*
X132648758Y-98247363D01*
X132274882Y-98247037D01*
X131929341Y-98389812D01*
X131889872Y-98429212D01*
X128247916Y-94787256D01*
X128235392Y-94724293D01*
X128162365Y-94615000D01*
X128081224Y-94493563D01*
X126874728Y-93287067D01*
X126956435Y-93341662D01*
X126956435Y-93341662D01*
G37*
X126956435Y-93341662D02*
X127228599Y-93395799D01*
X129402170Y-93395799D01*
X135025618Y-99019248D01*
X135025618Y-99623207D01*
X135000218Y-99750902D01*
X135045689Y-99979503D01*
X134295213Y-99979503D01*
X133400889Y-99085179D01*
X133400963Y-99000882D01*
X133258188Y-98655341D01*
X132994049Y-98390741D01*
X132648758Y-98247363D01*
X132274882Y-98247037D01*
X131929341Y-98389812D01*
X131889872Y-98429212D01*
X128247916Y-94787256D01*
X128235392Y-94724293D01*
X128162365Y-94615000D01*
X128081224Y-94493563D01*
X126874728Y-93287067D01*
X126956435Y-93341662D01*
G36*
X139478990Y-90801303D02*
X139871630Y-91194629D01*
X140384900Y-91407757D01*
X140940661Y-91408242D01*
X141254808Y-91278439D01*
X141019700Y-91513138D01*
X140868572Y-91877093D01*
X140868228Y-92271178D01*
X141018721Y-92635397D01*
X141147800Y-92764701D01*
X141147800Y-93508346D01*
X140309600Y-94346546D01*
X140309600Y-93120383D01*
X140412300Y-93017862D01*
X140563428Y-92653907D01*
X140563772Y-92259822D01*
X140413279Y-91895603D01*
X140134862Y-91616700D01*
X139770907Y-91465572D01*
X139376822Y-91465228D01*
X139012603Y-91615721D01*
X138733700Y-91894138D01*
X138582572Y-92258093D01*
X138582228Y-92652178D01*
X138732721Y-93016397D01*
X138836400Y-93120257D01*
X138836400Y-95107811D01*
X137777043Y-96167169D01*
X137628998Y-96167169D01*
X137501303Y-96141769D01*
X137490200Y-96143978D01*
X137490200Y-92704886D01*
X137436063Y-92432722D01*
X137436063Y-92432721D01*
X137411557Y-92396046D01*
X137515428Y-92145899D01*
X137515772Y-91751814D01*
X137365279Y-91387595D01*
X137086862Y-91108692D01*
X136722907Y-90957564D01*
X136613261Y-90957468D01*
X136767629Y-90803370D01*
X136853949Y-90595488D01*
X136938990Y-90801303D01*
X137331630Y-91194629D01*
X137844900Y-91407757D01*
X138400661Y-91408242D01*
X138914303Y-91196010D01*
X139307629Y-90803370D01*
X139393949Y-90595488D01*
X139478990Y-90801303D01*
X139478990Y-90801303D01*
G37*
X139478990Y-90801303D02*
X139871630Y-91194629D01*
X140384900Y-91407757D01*
X140940661Y-91408242D01*
X141254808Y-91278439D01*
X141019700Y-91513138D01*
X140868572Y-91877093D01*
X140868228Y-92271178D01*
X141018721Y-92635397D01*
X141147800Y-92764701D01*
X141147800Y-93508346D01*
X140309600Y-94346546D01*
X140309600Y-93120383D01*
X140412300Y-93017862D01*
X140563428Y-92653907D01*
X140563772Y-92259822D01*
X140413279Y-91895603D01*
X140134862Y-91616700D01*
X139770907Y-91465572D01*
X139376822Y-91465228D01*
X139012603Y-91615721D01*
X138733700Y-91894138D01*
X138582572Y-92258093D01*
X138582228Y-92652178D01*
X138732721Y-93016397D01*
X138836400Y-93120257D01*
X138836400Y-95107811D01*
X137777043Y-96167169D01*
X137628998Y-96167169D01*
X137501303Y-96141769D01*
X137490200Y-96143978D01*
X137490200Y-92704886D01*
X137436063Y-92432722D01*
X137436063Y-92432721D01*
X137411557Y-92396046D01*
X137515428Y-92145899D01*
X137515772Y-91751814D01*
X137365279Y-91387595D01*
X137086862Y-91108692D01*
X136722907Y-90957564D01*
X136613261Y-90957468D01*
X136767629Y-90803370D01*
X136853949Y-90595488D01*
X136938990Y-90801303D01*
X137331630Y-91194629D01*
X137844900Y-91407757D01*
X138400661Y-91408242D01*
X138914303Y-91196010D01*
X139307629Y-90803370D01*
X139393949Y-90595488D01*
X139478990Y-90801303D01*
G36*
X134398990Y-90801303D02*
X134791630Y-91194629D01*
X135304900Y-91407757D01*
X135676585Y-91408081D01*
X135534572Y-91750085D01*
X135534228Y-92144170D01*
X135684721Y-92508389D01*
X135860205Y-92684179D01*
X135867937Y-92723051D01*
X136022106Y-92953780D01*
X136067800Y-92999474D01*
X136067800Y-95946012D01*
X134721600Y-94599812D01*
X134721600Y-93120383D01*
X134824300Y-93017862D01*
X134975428Y-92653907D01*
X134975772Y-92259822D01*
X134825279Y-91895603D01*
X134546862Y-91616700D01*
X134182907Y-91465572D01*
X133788822Y-91465228D01*
X133424603Y-91615721D01*
X133145700Y-91894138D01*
X132994572Y-92258093D01*
X132994228Y-92652178D01*
X133144721Y-93016397D01*
X133248400Y-93120257D01*
X133248400Y-93937253D01*
X132054600Y-92743453D01*
X132054600Y-92231379D01*
X132157300Y-92128858D01*
X132308428Y-91764903D01*
X132308772Y-91370818D01*
X132224913Y-91167866D01*
X132251630Y-91194629D01*
X132764900Y-91407757D01*
X133320661Y-91408242D01*
X133834303Y-91196010D01*
X134227629Y-90803370D01*
X134313949Y-90595488D01*
X134398990Y-90801303D01*
X134398990Y-90801303D01*
G37*
X134398990Y-90801303D02*
X134791630Y-91194629D01*
X135304900Y-91407757D01*
X135676585Y-91408081D01*
X135534572Y-91750085D01*
X135534228Y-92144170D01*
X135684721Y-92508389D01*
X135860205Y-92684179D01*
X135867937Y-92723051D01*
X136022106Y-92953780D01*
X136067800Y-92999474D01*
X136067800Y-95946012D01*
X134721600Y-94599812D01*
X134721600Y-93120383D01*
X134824300Y-93017862D01*
X134975428Y-92653907D01*
X134975772Y-92259822D01*
X134825279Y-91895603D01*
X134546862Y-91616700D01*
X134182907Y-91465572D01*
X133788822Y-91465228D01*
X133424603Y-91615721D01*
X133145700Y-91894138D01*
X132994572Y-92258093D01*
X132994228Y-92652178D01*
X133144721Y-93016397D01*
X133248400Y-93120257D01*
X133248400Y-93937253D01*
X132054600Y-92743453D01*
X132054600Y-92231379D01*
X132157300Y-92128858D01*
X132308428Y-91764903D01*
X132308772Y-91370818D01*
X132224913Y-91167866D01*
X132251630Y-91194629D01*
X132764900Y-91407757D01*
X133320661Y-91408242D01*
X133834303Y-91196010D01*
X134227629Y-90803370D01*
X134313949Y-90595488D01*
X134398990Y-90801303D01*
M02*
