%TF.GenerationSoftware,KiCad,Pcbnew,0.201511041201+6297~30~ubuntu15.04.1-product*%
%TF.CreationDate,2015-11-12T00:09:16+01:00*%
%TF.ProjectId,gp8-clock,6770382D636C6F636B2E6B696361645F,rev?*%
%TF.FileFunction,Legend,Top*%
%FSLAX46Y46*%
G04 Gerber Fmt 4.6, Leading zero omitted, Abs format (unit mm)*
G04 Created by KiCad (PCBNEW 0.201511041201+6297~30~ubuntu15.04.1-product) date czw, 12 lis 2015, 00:09:16*
%MOMM*%
G01*
G04 APERTURE LIST*
%ADD10C,0.100000*%
%ADD11C,0.050800*%
%ADD12C,0.299720*%
%ADD13C,0.304800*%
%ADD14C,2.540000*%
%ADD15C,0.150000*%
%ADD16C,2.398980*%
%ADD17R,1.898600X1.349960*%
%ADD18O,1.898600X1.349960*%
%ADD19R,2.599640X1.924000*%
%ADD20O,2.599640X1.924000*%
%ADD21C,1.197560*%
%ADD22C,1.924000*%
%ADD23C,1.400760*%
%ADD24R,1.924000X2.599640*%
%ADD25O,1.924000X2.599640*%
G04 APERTURE END LIST*
D10*
D11*
X187149620Y-105996619D02*
X187198001Y-106020810D01*
X187294763Y-106020810D01*
X187343144Y-105996619D01*
X187367335Y-105972429D01*
X187391525Y-105924048D01*
X187391525Y-105778905D01*
X187367335Y-105730524D01*
X187343144Y-105706333D01*
X187294763Y-105682143D01*
X187198001Y-105682143D01*
X187149620Y-105706333D01*
X186714191Y-105682143D02*
X186714191Y-106020810D01*
X186931906Y-105682143D02*
X186931906Y-105948238D01*
X186907715Y-105996619D01*
X186859334Y-106020810D01*
X186786763Y-106020810D01*
X186738382Y-105996619D01*
X186714191Y-105972429D01*
X186472287Y-106020810D02*
X186472287Y-105682143D01*
X186472287Y-105778905D02*
X186448096Y-105730524D01*
X186423906Y-105706333D01*
X186375525Y-105682143D01*
X186327144Y-105682143D01*
X186157811Y-106020810D02*
X186157811Y-105682143D01*
X186157811Y-105778905D02*
X186133620Y-105730524D01*
X186109430Y-105706333D01*
X186061049Y-105682143D01*
X186012668Y-105682143D01*
X185649811Y-105996619D02*
X185698192Y-106020810D01*
X185794954Y-106020810D01*
X185843335Y-105996619D01*
X185867525Y-105948238D01*
X185867525Y-105754714D01*
X185843335Y-105706333D01*
X185794954Y-105682143D01*
X185698192Y-105682143D01*
X185649811Y-105706333D01*
X185625620Y-105754714D01*
X185625620Y-105803095D01*
X185867525Y-105851476D01*
X185407906Y-105682143D02*
X185407906Y-106020810D01*
X185407906Y-105730524D02*
X185383715Y-105706333D01*
X185335334Y-105682143D01*
X185262763Y-105682143D01*
X185214382Y-105706333D01*
X185190191Y-105754714D01*
X185190191Y-106020810D01*
X185020858Y-105682143D02*
X184827334Y-105682143D01*
X184948287Y-105512810D02*
X184948287Y-105948238D01*
X184924096Y-105996619D01*
X184875715Y-106020810D01*
X184827334Y-106020810D01*
X184319334Y-105512810D02*
X184004857Y-105512810D01*
X184174191Y-105706333D01*
X184101619Y-105706333D01*
X184053238Y-105730524D01*
X184029048Y-105754714D01*
X184004857Y-105803095D01*
X184004857Y-105924048D01*
X184029048Y-105972429D01*
X184053238Y-105996619D01*
X184101619Y-106020810D01*
X184246762Y-106020810D01*
X184295143Y-105996619D01*
X184319334Y-105972429D01*
X183690381Y-105512810D02*
X183642000Y-105512810D01*
X183593619Y-105537000D01*
X183569428Y-105561190D01*
X183545238Y-105609571D01*
X183521047Y-105706333D01*
X183521047Y-105827286D01*
X183545238Y-105924048D01*
X183569428Y-105972429D01*
X183593619Y-105996619D01*
X183642000Y-106020810D01*
X183690381Y-106020810D01*
X183738762Y-105996619D01*
X183762952Y-105972429D01*
X183787143Y-105924048D01*
X183811333Y-105827286D01*
X183811333Y-105706333D01*
X183787143Y-105609571D01*
X183762952Y-105561190D01*
X183738762Y-105537000D01*
X183690381Y-105512810D01*
X183206571Y-105512810D02*
X183158190Y-105512810D01*
X183109809Y-105537000D01*
X183085618Y-105561190D01*
X183061428Y-105609571D01*
X183037237Y-105706333D01*
X183037237Y-105827286D01*
X183061428Y-105924048D01*
X183085618Y-105972429D01*
X183109809Y-105996619D01*
X183158190Y-106020810D01*
X183206571Y-106020810D01*
X183254952Y-105996619D01*
X183279142Y-105972429D01*
X183303333Y-105924048D01*
X183327523Y-105827286D01*
X183327523Y-105706333D01*
X183303333Y-105609571D01*
X183279142Y-105561190D01*
X183254952Y-105537000D01*
X183206571Y-105512810D01*
X182819523Y-106020810D02*
X182819523Y-105682143D01*
X182819523Y-105730524D02*
X182795332Y-105706333D01*
X182746951Y-105682143D01*
X182674380Y-105682143D01*
X182625999Y-105706333D01*
X182601808Y-105754714D01*
X182601808Y-106020810D01*
X182601808Y-105754714D02*
X182577618Y-105706333D01*
X182529237Y-105682143D01*
X182456665Y-105682143D01*
X182408285Y-105706333D01*
X182384094Y-105754714D01*
X182384094Y-106020810D01*
X182166380Y-105875667D02*
X181924475Y-105875667D01*
X182214761Y-106020810D02*
X182045428Y-105512810D01*
X181876094Y-106020810D01*
D12*
X176164640Y-96219760D02*
G75*
G03X176362760Y-93400360I-1310640J1508760D01*
G01*
X173352860Y-93380040D02*
G75*
G03X173523040Y-96212140I1501140J-1330960D01*
G01*
X176852980Y-94711000D02*
G75*
G03X174854000Y-92712020I-1998980J0D01*
G01*
X174854000Y-92712020D02*
G75*
G03X172855020Y-94711000I0J-1998980D01*
G01*
X173352860Y-96011480D02*
X176355140Y-96011480D01*
X173553520Y-96212140D02*
X176154480Y-96212140D01*
X176355140Y-94711000D02*
G75*
G03X176355140Y-94711000I-1501140J0D01*
G01*
X183664640Y-96219760D02*
G75*
G03X183862760Y-93400360I-1310640J1508760D01*
G01*
X180852860Y-93380040D02*
G75*
G03X181023040Y-96212140I1501140J-1330960D01*
G01*
X184352980Y-94711000D02*
G75*
G03X182354000Y-92712020I-1998980J0D01*
G01*
X182354000Y-92712020D02*
G75*
G03X180355020Y-94711000I0J-1998980D01*
G01*
X180852860Y-96011480D02*
X183855140Y-96011480D01*
X181053520Y-96212140D02*
X183654480Y-96212140D01*
X183855140Y-94711000D02*
G75*
G03X183855140Y-94711000I-1501140J0D01*
G01*
X176164640Y-89719760D02*
G75*
G03X176362760Y-86900360I-1310640J1508760D01*
G01*
X173352860Y-86880040D02*
G75*
G03X173523040Y-89712140I1501140J-1330960D01*
G01*
X176852980Y-88211000D02*
G75*
G03X174854000Y-86212020I-1998980J0D01*
G01*
X174854000Y-86212020D02*
G75*
G03X172855020Y-88211000I0J-1998980D01*
G01*
X173352860Y-89511480D02*
X176355140Y-89511480D01*
X173553520Y-89712140D02*
X176154480Y-89712140D01*
X176355140Y-88211000D02*
G75*
G03X176355140Y-88211000I-1501140J0D01*
G01*
X183664640Y-89719760D02*
G75*
G03X183862760Y-86900360I-1310640J1508760D01*
G01*
X180852860Y-86880040D02*
G75*
G03X181023040Y-89712140I1501140J-1330960D01*
G01*
X184352980Y-88211000D02*
G75*
G03X182354000Y-86212020I-1998980J0D01*
G01*
X182354000Y-86212020D02*
G75*
G03X180355020Y-88211000I0J-1998980D01*
G01*
X180852860Y-89511480D02*
X183855140Y-89511480D01*
X181053520Y-89712140D02*
X183654480Y-89712140D01*
X183855140Y-88211000D02*
G75*
G03X183855140Y-88211000I-1501140J0D01*
G01*
D13*
X171806000Y-110163000D02*
X177902000Y-110163000D01*
X177902000Y-110163000D02*
X177902000Y-116259000D01*
X177902000Y-116259000D02*
X171806000Y-116259000D01*
X171806000Y-116259000D02*
X171806000Y-110163000D01*
D14*
X175657219Y-113211000D02*
G75*
G03X175657219Y-113211000I-803219J0D01*
G01*
D10*
X166064000Y-90011000D02*
X107644000Y-90011000D01*
X107644000Y-90011000D02*
X107644000Y-115011000D01*
X166064000Y-115011000D02*
X107644000Y-115011000D01*
X166064000Y-90011000D02*
X166064000Y-115011000D01*
X167374000Y-92411000D02*
X166374000Y-92411000D01*
X166374000Y-92411000D02*
X168374000Y-93411000D01*
X168374000Y-93411000D02*
X166374000Y-93411000D01*
X166374000Y-93411000D02*
X169374000Y-94411000D01*
X169374000Y-94411000D02*
X166374000Y-94411000D01*
X166374000Y-94411000D02*
X170374000Y-95411000D01*
X170374000Y-95411000D02*
X166374000Y-95411000D01*
X166374000Y-95411000D02*
X170374000Y-96411000D01*
X170374000Y-96411000D02*
X166374000Y-96411000D01*
X166374000Y-96411000D02*
X170374000Y-97411000D01*
X170374000Y-97411000D02*
X166374000Y-97411000D01*
X166374000Y-97411000D02*
X170374000Y-98411000D01*
X170374000Y-98411000D02*
X166374000Y-98411000D01*
X166374000Y-98411000D02*
X170374000Y-99411000D01*
X170374000Y-99411000D02*
X166374000Y-99411000D01*
X166374000Y-99411000D02*
X170374000Y-100411000D01*
X170374000Y-100411000D02*
X166374000Y-100411000D01*
X166374000Y-100411000D02*
X170374000Y-101411000D01*
X170374000Y-101411000D02*
X166374000Y-101411000D01*
X166374000Y-101411000D02*
X170374000Y-102411000D01*
X170374000Y-102411000D02*
X166374000Y-102411000D01*
X166374000Y-102411000D02*
X170374000Y-103411000D01*
X170374000Y-103411000D02*
X166374000Y-103411000D01*
X166374000Y-103411000D02*
X170374000Y-104411000D01*
X170374000Y-104411000D02*
X166374000Y-104411000D01*
X166374000Y-104411000D02*
X170374000Y-105411000D01*
X170374000Y-105411000D02*
X166374000Y-105411000D01*
X166374000Y-105411000D02*
X170374000Y-106411000D01*
X170374000Y-106411000D02*
X166374000Y-106411000D01*
X166374000Y-106411000D02*
X170374000Y-107411000D01*
X170374000Y-107411000D02*
X166374000Y-107411000D01*
X166374000Y-107411000D02*
X170374000Y-108411000D01*
X170374000Y-108411000D02*
X166374000Y-108411000D01*
X166374000Y-108411000D02*
X170374000Y-109411000D01*
X170374000Y-109411000D02*
X166374000Y-109411000D01*
X166374000Y-109411000D02*
X170374000Y-110411000D01*
X170374000Y-110411000D02*
X166374000Y-110411000D01*
X166374000Y-110411000D02*
X169374000Y-111411000D01*
X169374000Y-111411000D02*
X166374000Y-111411000D01*
X166374000Y-111411000D02*
X168374000Y-112411000D01*
X168374000Y-112411000D02*
X166374000Y-112411000D01*
X166374000Y-112411000D02*
X167374000Y-113411000D01*
X167374000Y-113411000D02*
X166374000Y-113411000D01*
X172374000Y-106411000D02*
X174374000Y-106411000D01*
X173374000Y-98411000D02*
X173374000Y-100411000D01*
X172374000Y-99411000D02*
X174374000Y-99411000D01*
X166374000Y-91411000D02*
X166374000Y-114411000D01*
X166374000Y-91411000D02*
X170374000Y-95411000D01*
X166374000Y-114411000D02*
X170374000Y-110411000D01*
X170374000Y-110411000D02*
X170374000Y-105411000D01*
X170374000Y-95411000D02*
X170374000Y-105411000D01*
X107374000Y-114411000D02*
X166374000Y-114411000D01*
X107374000Y-91411000D02*
X166374000Y-91411000D01*
X107374000Y-114411000D02*
X107374000Y-91411000D01*
D13*
X182354000Y-114481000D02*
X182354000Y-111941000D01*
X182354000Y-111941000D02*
X184894000Y-114481000D01*
X184894000Y-111941000D02*
X182354000Y-114481000D01*
X179814000Y-111941000D02*
X184894000Y-111941000D01*
X184894000Y-114481000D02*
X179814000Y-114481000D01*
X184894000Y-111941000D02*
X184894000Y-114481000D01*
X179814000Y-114481000D02*
X179814000Y-111941000D01*
D15*
X174115905Y-98663381D02*
X174115905Y-97663381D01*
X174354000Y-97663381D01*
X174496858Y-97711000D01*
X174592096Y-97806238D01*
X174639715Y-97901476D01*
X174687334Y-98091952D01*
X174687334Y-98234810D01*
X174639715Y-98425286D01*
X174592096Y-98520524D01*
X174496858Y-98615762D01*
X174354000Y-98663381D01*
X174115905Y-98663381D01*
X175068286Y-97758619D02*
X175115905Y-97711000D01*
X175211143Y-97663381D01*
X175449239Y-97663381D01*
X175544477Y-97711000D01*
X175592096Y-97758619D01*
X175639715Y-97853857D01*
X175639715Y-97949095D01*
X175592096Y-98091952D01*
X175020667Y-98663381D01*
X175639715Y-98663381D01*
X181615905Y-98663381D02*
X181615905Y-97663381D01*
X181854000Y-97663381D01*
X181996858Y-97711000D01*
X182092096Y-97806238D01*
X182139715Y-97901476D01*
X182187334Y-98091952D01*
X182187334Y-98234810D01*
X182139715Y-98425286D01*
X182092096Y-98520524D01*
X181996858Y-98615762D01*
X181854000Y-98663381D01*
X181615905Y-98663381D01*
X182520667Y-97663381D02*
X183139715Y-97663381D01*
X182806381Y-98044333D01*
X182949239Y-98044333D01*
X183044477Y-98091952D01*
X183092096Y-98139571D01*
X183139715Y-98234810D01*
X183139715Y-98472905D01*
X183092096Y-98568143D01*
X183044477Y-98615762D01*
X182949239Y-98663381D01*
X182663524Y-98663381D01*
X182568286Y-98615762D01*
X182520667Y-98568143D01*
X174013905Y-83891381D02*
X174013905Y-82891381D01*
X174252000Y-82891381D01*
X174394858Y-82939000D01*
X174490096Y-83034238D01*
X174537715Y-83129476D01*
X174585334Y-83319952D01*
X174585334Y-83462810D01*
X174537715Y-83653286D01*
X174490096Y-83748524D01*
X174394858Y-83843762D01*
X174252000Y-83891381D01*
X174013905Y-83891381D01*
X175442477Y-83224714D02*
X175442477Y-83891381D01*
X175204381Y-82843762D02*
X174966286Y-83558048D01*
X175585334Y-83558048D01*
X181506905Y-83891381D02*
X181506905Y-82891381D01*
X181745000Y-82891381D01*
X181887858Y-82939000D01*
X181983096Y-83034238D01*
X182030715Y-83129476D01*
X182078334Y-83319952D01*
X182078334Y-83462810D01*
X182030715Y-83653286D01*
X181983096Y-83748524D01*
X181887858Y-83843762D01*
X181745000Y-83891381D01*
X181506905Y-83891381D01*
X182983096Y-82891381D02*
X182506905Y-82891381D01*
X182459286Y-83367571D01*
X182506905Y-83319952D01*
X182602143Y-83272333D01*
X182840239Y-83272333D01*
X182935477Y-83319952D01*
X182983096Y-83367571D01*
X183030715Y-83462810D01*
X183030715Y-83700905D01*
X182983096Y-83796143D01*
X182935477Y-83843762D01*
X182840239Y-83891381D01*
X182602143Y-83891381D01*
X182506905Y-83843762D01*
X182459286Y-83796143D01*
X173520667Y-108535762D02*
X173663524Y-108583381D01*
X173901620Y-108583381D01*
X173996858Y-108535762D01*
X174044477Y-108488143D01*
X174092096Y-108392905D01*
X174092096Y-108297667D01*
X174044477Y-108202429D01*
X173996858Y-108154810D01*
X173901620Y-108107190D01*
X173711143Y-108059571D01*
X173615905Y-108011952D01*
X173568286Y-107964333D01*
X173520667Y-107869095D01*
X173520667Y-107773857D01*
X173568286Y-107678619D01*
X173615905Y-107631000D01*
X173711143Y-107583381D01*
X173949239Y-107583381D01*
X174092096Y-107631000D01*
X174425429Y-107583381D02*
X174663524Y-108583381D01*
X174854001Y-107869095D01*
X175044477Y-108583381D01*
X175282572Y-107583381D01*
X176187334Y-108583381D02*
X175615905Y-108583381D01*
X175901619Y-108583381D02*
X175901619Y-107583381D01*
X175806381Y-107726238D01*
X175711143Y-107821476D01*
X175615905Y-107869095D01*
X163449095Y-112736381D02*
X163449095Y-113545905D01*
X163496714Y-113641143D01*
X163544333Y-113688762D01*
X163639571Y-113736381D01*
X163830048Y-113736381D01*
X163925286Y-113688762D01*
X163972905Y-113641143D01*
X164020524Y-113545905D01*
X164020524Y-112736381D01*
X164449095Y-112831619D02*
X164496714Y-112784000D01*
X164591952Y-112736381D01*
X164830048Y-112736381D01*
X164925286Y-112784000D01*
X164972905Y-112831619D01*
X165020524Y-112926857D01*
X165020524Y-113022095D01*
X164972905Y-113164952D01*
X164401476Y-113736381D01*
X165020524Y-113736381D01*
X137115905Y-107243381D02*
X137115905Y-106243381D01*
X137354000Y-106243381D01*
X137496858Y-106291000D01*
X137592096Y-106386238D01*
X137639715Y-106481476D01*
X137687334Y-106671952D01*
X137687334Y-106814810D01*
X137639715Y-107005286D01*
X137592096Y-107100524D01*
X137496858Y-107195762D01*
X137354000Y-107243381D01*
X137115905Y-107243381D01*
X138639715Y-107243381D02*
X138068286Y-107243381D01*
X138354000Y-107243381D02*
X138354000Y-106243381D01*
X138258762Y-106386238D01*
X138163524Y-106481476D01*
X138068286Y-106529095D01*
X181020667Y-115774762D02*
X181163524Y-115822381D01*
X181401620Y-115822381D01*
X181496858Y-115774762D01*
X181544477Y-115727143D01*
X181592096Y-115631905D01*
X181592096Y-115536667D01*
X181544477Y-115441429D01*
X181496858Y-115393810D01*
X181401620Y-115346190D01*
X181211143Y-115298571D01*
X181115905Y-115250952D01*
X181068286Y-115203333D01*
X181020667Y-115108095D01*
X181020667Y-115012857D01*
X181068286Y-114917619D01*
X181115905Y-114870000D01*
X181211143Y-114822381D01*
X181449239Y-114822381D01*
X181592096Y-114870000D01*
X181925429Y-114822381D02*
X182163524Y-115822381D01*
X182354001Y-115108095D01*
X182544477Y-115822381D01*
X182782572Y-114822381D01*
X183115905Y-114917619D02*
X183163524Y-114870000D01*
X183258762Y-114822381D01*
X183496858Y-114822381D01*
X183592096Y-114870000D01*
X183639715Y-114917619D01*
X183687334Y-115012857D01*
X183687334Y-115108095D01*
X183639715Y-115250952D01*
X183068286Y-115822381D01*
X183687334Y-115822381D01*
%LPC*%
D16*
X174854000Y-93441000D03*
X174854000Y-95981000D03*
X182354000Y-93441000D03*
X182354000Y-95981000D03*
X174854000Y-86941000D03*
X174854000Y-89481000D03*
X182354000Y-86941000D03*
X182354000Y-89481000D03*
D17*
X179705000Y-99715320D03*
D18*
X179705000Y-100965000D03*
X179705000Y-102214680D03*
D16*
X172603560Y-109959800D03*
X177104440Y-116462200D03*
X177104440Y-109959800D03*
X172603560Y-116462200D03*
D19*
X103854000Y-104251000D03*
D20*
X103854000Y-101711000D03*
X103854000Y-99171000D03*
D21*
X201453700Y-104397380D03*
X201451160Y-100600080D03*
D22*
X155904000Y-90011000D03*
X153364000Y-90011000D03*
X150824000Y-90011000D03*
X148284000Y-90011000D03*
X145744000Y-90011000D03*
X143204000Y-90011000D03*
X140664000Y-90011000D03*
X138124000Y-90011000D03*
X135584000Y-90011000D03*
X133044000Y-90011000D03*
X130504000Y-90011000D03*
X127964000Y-90011000D03*
X125424000Y-90011000D03*
X122884000Y-90011000D03*
X120344000Y-90011000D03*
X117804000Y-90011000D03*
X173414000Y-101711000D03*
X173414000Y-104251000D03*
D23*
X121539000Y-102349300D03*
X121539000Y-100850700D03*
D24*
X183624000Y-113211000D03*
D25*
X181084000Y-113211000D03*
M02*
