<?xml version="1.0" encoding="UTF-8" standalone="no"?>
<svg
   xmlns:dc="http://purl.org/dc/elements/1.1/"
   xmlns:cc="http://creativecommons.org/ns#"
   xmlns:rdf="http://www.w3.org/1999/02/22-rdf-syntax-ns#"
   xmlns:svg="http://www.w3.org/2000/svg"
   xmlns="http://www.w3.org/2000/svg"
   xmlns:sodipodi="http://sodipodi.sourceforge.net/DTD/sodipodi-0.dtd"
   xmlns:inkscape="http://www.inkscape.org/namespaces/inkscape"
   viewBox="0 0 1488.75 1052.5"
   height="1052.5"
   width="1488.75"
   xml:space="preserve"
   version="1.1"
   id="svg39439"
   sodipodi:docname="board.svg"
   inkscape:version="0.92.2 (5c3e80d, 2017-08-06)"><sodipodi:namedview
     pagecolor="#ffffff"
     bordercolor="#666666"
     borderopacity="1"
     objecttolerance="10"
     gridtolerance="10"
     guidetolerance="10"
     inkscape:pageopacity="0"
     inkscape:pageshadow="2"
     inkscape:window-width="1920"
     inkscape:window-height="1172"
     id="namedview4098"
     showgrid="false"
     inkscape:document-units="mm"
     inkscape:measure-start="0,0"
     inkscape:measure-end="0,0"
     inkscape:zoom="4.3772938"
     inkscape:cx="36.762476"
     inkscape:cy="232.69031"
     inkscape:window-x="0"
     inkscape:window-y="0"
     inkscape:window-maximized="1"
     inkscape:current-layer="g39447" /><metadata
     id="metadata39445"><rdf:RDF><cc:Work
         rdf:about=""><dc:format>image/svg+xml</dc:format><dc:type
           rdf:resource="http://purl.org/dc/dcmitype/StillImage" /><dc:title></dc:title></cc:Work></rdf:RDF></metadata><defs
     id="defs39443"><clipPath
       id="clipPath39453"
       clipPathUnits="userSpaceOnUse"><path
         id="path39455"
         d="m 49610,128148 54424,0 0,31947 -54424,0 0,-31947" /></clipPath><clipPath
       id="clipPath39587"
       clipPathUnits="userSpaceOnUse"><path
         id="path39589"
         d="m 49610,95421 54424,0 0,11851 -54424,0 0,-11851" /></clipPath><clipPath
       id="clipPath39665"
       clipPathUnits="userSpaceOnUse"><path
         id="path39667"
         d="m 49610,50726 54424,0 0,31948 -54424,0 0,-31948" /></clipPath><clipPath
       id="clipPath39747"
       clipPathUnits="userSpaceOnUse"><path
         id="path39749"
         d="m 0,0 151253,0 0,214230 L 0,214230 0,0" /></clipPath><clipPath
       id="clipPath54303"
       clipPathUnits="userSpaceOnUse"><path
         id="path54305"
         d="m 0,0 151253,0 0,214230 L 0,214230 0,0" /></clipPath><clipPath
       id="clipPath54315"
       clipPathUnits="userSpaceOnUse"><path
         id="path54317"
         d="m 0,0 151253,0 0,214230 L 0,214230 0,0" /></clipPath></defs><g
     transform="matrix(0,-0.006925,-0.006925,0,1486.25,1050)"
     id="g39447"><path
       style="opacity:1;fill:none;fill-opacity:1;fill-rule:nonzero;stroke:#ff0000;stroke-width:83.50435638;stroke-linecap:round;stroke-linejoin:miter;stroke-miterlimit:4;stroke-dasharray:none;stroke-opacity:1"
       d="m 50221.146,207610.25 h -4281.98 l -218.97,21.85 -203.71,62.71 -184.15,99.28 -160.3,131.59 -132.14,159.62 -99.71,183.37 -62.97,202.84 -21.95,218.05 v 4218.2 H 7071.444 v -4218.2 l -21.945,-218.05 -62.974,-202.84 -99.708,-183.37 -132.148,-159.62 -160.296,-131.59 -184.149,-99.28 -203.708,-62.71 -218.974,-21.85 H 1505.916 v -13851.93 h 4481.626 l 218.974,-21.85 203.708,-62.71 184.149,-99.28 160.296,-131.59 132.148,-159.61 99.708,-183.37 62.974,-202.85 21.945,-218.04 v -4570.52 h 37783.822 v 4478.25 l 21.95,218.03 62.97,202.81 99.71,183.33 132.14,159.56 160.3,131.54 184.15,99.24 203.71,62.67 218.97,21.84 h 4281.98 z"
       id="rect5686"
       inkscape:connector-curvature="0"
       sodipodi:nodetypes="ccccccccccccccccccccccccccccccccccccccccccccc" /><path
       style="opacity:1;fill:none;fill-opacity:1;fill-rule:nonzero;stroke:#ff0000;stroke-width:83.50435638;stroke-linecap:round;stroke-linejoin:miter;stroke-miterlimit:4;stroke-dasharray:none;stroke-opacity:1"
       d="m 42519.528,209483.13 -202.23,20.19 -192.615,59.05 -177.586,95.66 -157.146,130 -128.85,158.55 -94.811,179.17 -58.53,194.33 -20.007,204.04 20.009,204.03 58.531,194.34 94.812,179.17 128.849,158.54 157.146,130 177.586,95.66 192.613,59.05 202.229,20.19 202.229,-20.19 192.614,-59.05 177.586,-95.66 157.145,-130 128.85,-158.54 94.812,-179.17 58.531,-194.34 20.009,-204.03 -20.007,-204.04 -58.531,-194.33 -94.81,-179.17 -128.85,-158.55 -157.146,-130 -177.587,-95.66 -192.615,-59.05 -202.23,-20.19"
       id="path5688"
       inkscape:connector-curvature="0"
       sodipodi:nodetypes="ccccccccccccccccccccccccccccccccc" /><path
       style="opacity:1;fill:none;fill-opacity:1;fill-rule:nonzero;stroke:#ff0000;stroke-width:83.50435638;stroke-linecap:round;stroke-linejoin:miter;stroke-miterlimit:4;stroke-dasharray:none;stroke-opacity:1"
       d="m 42519.528,189590.52 -202.23,20.19 -192.615,59.05 -177.586,95.66 -157.146,130 -128.85,158.55 -94.811,179.17 -58.53,194.33 -20.007,204.04 20.009,204.03 58.531,194.34 94.812,179.17 128.849,158.54 157.146,130 177.586,95.66 192.613,59.05 202.229,20.19 202.229,-20.19 192.614,-59.05 177.586,-95.66 157.145,-130 128.85,-158.54 94.812,-179.17 58.531,-194.34 20.009,-204.03 -20.007,-204.04 -58.531,-194.33 -94.81,-179.17 -128.85,-158.55 -157.146,-130 -177.587,-95.66 -192.615,-59.05 z"
       id="ellipse5692"
       inkscape:connector-curvature="0"
       sodipodi:nodetypes="ccccccccccccccccccccccccccccccccc" /><path
       style="opacity:1;fill:none;fill-opacity:1;fill-rule:nonzero;stroke:#ff0000;stroke-width:83.50435638;stroke-linecap:round;stroke-linejoin:miter;stroke-miterlimit:4;stroke-dasharray:none;stroke-opacity:1"
       d="m 9271.864,209714.05 -202.23,20.19 -192.615,59.05 -177.586,95.66 -157.146,130 -128.85,158.55 -94.811,179.17 -58.53,194.33 -20.007,204.04 20.009,204.03 58.531,194.34 94.812,179.17 128.849,158.54 157.146,130 177.586,95.66 192.613,59.05 202.229,20.19 202.229,-20.19 192.614,-59.05 177.586,-95.66 157.145,-130 128.85,-158.54 94.812,-179.17 58.531,-194.34 20.009,-204.03 -20.007,-204.04 -58.531,-194.33 -94.81,-179.17 -128.85,-158.55 -157.146,-130 -177.587,-95.66 -192.615,-59.05 z"
       id="ellipse5694"
       inkscape:connector-curvature="0"
       sodipodi:nodetypes="ccccccccccccccccccccccccccccccccc" /><path
       style="opacity:1;fill:none;fill-opacity:1;fill-rule:nonzero;stroke:#ff0000;stroke-width:83.50435638;stroke-linecap:round;stroke-linejoin:miter;stroke-miterlimit:4;stroke-dasharray:none;stroke-opacity:1"
       d="m 9431.154,189821.44 -202.23,20.19 -192.615,59.05 -177.587,95.66 -157.146,130 -128.85,158.55 -94.81,179.17 -58.531,194.33 -20.007,204.04 20.009,204.03 58.531,194.34 94.812,179.17 128.85,158.54 157.145,130 177.586,95.66 192.614,59.05 202.229,20.19 202.229,-20.19 192.613,-59.05 177.586,-95.66 157.146,-130 128.849,-158.54 94.812,-179.17 58.531,-194.34 20.009,-204.03 -20.007,-204.04 -58.53,-194.33 -94.811,-179.17 -128.85,-158.55 -157.146,-130 -177.586,-95.66 -192.615,-59.05 z"
       id="ellipse5696"
       inkscape:connector-curvature="0"
       sodipodi:nodetypes="ccccccccccccccccccccccccccccccccc" /></g></svg>