  0
SECTION
  2
HEADER
  9
$ACADVER
  1
AC1014
  9
$HANDSEED
  5
FFFF
  9
$MEASUREMENT
 70
     1
  0
ENDSEC
  0
SECTION
  2
TABLES
  0
TABLE
  2
VPORT
  5
8
330
0
100
AcDbSymbolTable
 70
     4
  0
VPORT
  5
2E
330
8
100
AcDbSymbolTableRecord
100
AcDbViewportTableRecord
  2
*ACTIVE
 70
     0
 10
0.0
 20
0.0
 11
1.0
 21
1.0
 12
210.0
 22
148.5
 13
0.0
 23
0.0
 14
10.0
 24
10.0
 15
10.0
 25
10.0
 16
0.0
 26
0.0
 36
1.0
 17
0.0
 27
0.0
 37
0.0
 40
341.0
 41
1.24
 42
50.0
 43
0.0
 44
0.0
 50
0.0
 51
0.0
 71
     0
 72
   100
 73
     1
 74
     3
 75
     0
 76
     0
 77
     0
 78
     0
  0
ENDTAB
  0
TABLE
  2
LTYPE
  5
5
330
0
100
AcDbSymbolTable
 70
     1
  0
LTYPE
  5
14
330
5
100
AcDbSymbolTableRecord
100
AcDbLinetypeTableRecord
  2
BYBLOCK
 70
     0
  3

 72
    65
 73
     0
 40
0.0
  0
LTYPE
  5
15
330
5
100
AcDbSymbolTableRecord
100
AcDbLinetypeTableRecord
  2
BYLAYER
 70
     0
  3

 72
    65
 73
     0
 40
0.0
  0
LTYPE
  5
16
330
5
100
AcDbSymbolTableRecord
100
AcDbLinetypeTableRecord
  2
CONTINUOUS
 70
     0
  3
Solid line
 72
    65
 73
     0
 40
0.0
  0
ENDTAB
  0
TABLE
  2
LAYER
  5
2
100
AcDbSymbolTable
 70
2
  0
LAYER
  5
50
100
AcDbSymbolTableRecord
100
AcDbLayerTableRecord
  2
0
 70
0
  6
CONTINUOUS
  0
LAYER
  5
51
100
AcDbSymbolTableRecord
100
AcDbLayerTableRecord
  2
Layer_1
 70
0
  6
CONTINUOUS
  0
ENDTAB
  0
TABLE
  2
STYLE
  5
3
330
0
100
AcDbSymbolTable
 70
     1
  0
STYLE
  5
11
330
3
100
AcDbSymbolTableRecord
100
AcDbTextStyleTableRecord
  2
STANDARD
 70
     0
 40
0.0
 41
1.0
 50
0.0
 71
     0
 42
2.5
  3
txt
  4

  0
ENDTAB
  0
TABLE
  2
VIEW
  5
6
330
0
100
AcDbSymbolTable
 70
     0
  0
ENDTAB
  0
TABLE
  2
UCS
  5
7
330
0
100
AcDbSymbolTable
 70
     0
  0
ENDTAB
  0
TABLE
  2
APPID
  5
9
330
0
100
AcDbSymbolTable
 70
     2
  0
APPID
  5
12
330
9
100
AcDbSymbolTableRecord
100
AcDbRegAppTableRecord
  2
ACAD
 70
     0
  0
ENDTAB
  0
TABLE
  2
DIMSTYLE
  5
A
330
0
100
AcDbSymbolTable
 70
     1
  0
DIMSTYLE
105
27
330
A
100
AcDbSymbolTableRecord
100
AcDbDimStyleTableRecord
  2
ISO-25
 70
     0
  3

  4

  5

  6

  7

 40
1.0
 41
2.5
 42
0.625
 43
3.75
 44
1.25
 45
0.0
 46
0.0
 47
0.0
 48
0.0
140
2.5
141
2.5
142
0.0
143
0.03937007874016
144
1.0
145
0.0
146
1.0
147
0.625
 71
     0
 72
     0
 73
     0
 74
     0
 75
     0
 76
     0
 77
     1
 78
     8
170
     0
171
     3
172
     1
173
     0
174
     0
175
     0
176
     0
177
     0
178
     0
270
     2
271
     2
272
     2
273
     2
274
     3
340
11
275
     0
280
     0
281
     0
282
     0
283
     0
284
     8
285
     0
286
     0
287
     3
288
     0
  0
ENDTAB
  0
TABLE
  2
BLOCK_RECORD
  5
1
330
0
100
AcDbSymbolTable
 70
     1
  0
BLOCK_RECORD
  5
1F
330
1
100
AcDbSymbolTableRecord
100
AcDbBlockTableRecord
  2
*MODEL_SPACE
  0
BLOCK_RECORD
  5
1B
330
1
100
AcDbSymbolTableRecord
100
AcDbBlockTableRecord
  2
*PAPER_SPACE
  0
ENDTAB
  0
ENDSEC
  0
SECTION
  2
BLOCKS
  0
BLOCK
  5
20
330
1F
100
AcDbEntity
  8
0
100
AcDbBlockBegin
  2
*MODEL_SPACE
 70
     0
 10
0.0
 20
0.0
 30
0.0
  3
*MODEL_SPACE
  1

  0
ENDBLK
  5
21
330
1F
100
AcDbEntity
  8
0
100
AcDbBlockEnd
  0
BLOCK
  5
1C
330
1B
100
AcDbEntity
 67
     1
  8
0
100
AcDbBlockBegin
  2
*PAPER_SPACE
  1

  0
ENDBLK
  5
1D
330
1B
100
AcDbEntity
 67
     1
  8
0
100
AcDbBlockEnd
  0
ENDSEC
  0
SECTION
  2
ENTITIES
  0
LINE
  5
100
100
AcDbEntity
  8
Layer_1
 62
7
100
AcDbLine
 10
70.202582
 20
179.723941
 30
0.0
 11
70.202582
 21
174.169345
 31
0.0
  0
LINE
  5
101
100
AcDbEntity
  8
Layer_1
 62
7
100
AcDbLine
 10
70.202582
 20
174.169345
 30
0.0
 11
70.159035
 21
173.730027
 31
0.0
  0
LINE
  5
102
100
AcDbEntity
  8
Layer_1
 62
7
100
AcDbLine
 10
70.159035
 20
173.730027
 30
0.0
 11
70.032255
 21
173.321575
 31
0.0
  0
LINE
  5
103
100
AcDbEntity
  8
Layer_1
 62
7
100
AcDbLine
 10
70.032255
 20
173.321575
 30
0.0
 11
69.832715
 21
172.952262
 31
0.0
  0
LINE
  5
104
100
AcDbEntity
  8
Layer_1
 62
7
100
AcDbLine
 10
69.832715
 20
172.952262
 30
0.0
 11
69.567582
 21
172.630351
 31
0.0
  0
LINE
  5
105
100
AcDbEntity
  8
Layer_1
 62
7
100
AcDbLine
 10
69.567582
 20
172.630351
 30
0.0
 11
69.245671
 21
172.365767
 31
0.0
  0
LINE
  5
106
100
AcDbEntity
  8
Layer_1
 62
7
100
AcDbLine
 10
69.245671
 20
172.365767
 30
0.0
 11
68.876357
 21
172.165677
 31
0.0
  0
LINE
  5
107
100
AcDbEntity
  8
Layer_1
 62
7
100
AcDbLine
 10
68.876357
 20
172.165677
 30
0.0
 11
68.467906
 21
172.039448
 31
0.0
  0
LINE
  5
108
100
AcDbEntity
  8
Layer_1
 62
7
100
AcDbLine
 10
68.467906
 20
172.039448
 30
0.0
 11
68.028587
 21
171.995351
 31
0.0
  0
LINE
  5
109
100
AcDbEntity
  8
Layer_1
 62
7
100
AcDbLine
 10
68.028587
 20
171.995351
 30
0.0
 11
62.563289
 21
171.995351
 31
0.0
  0
LINE
  5
10a
100
AcDbEntity
  8
Layer_1
 62
7
100
AcDbLine
 10
62.563289
 20
171.995351
 30
0.0
 11
62.563289
 21
150.584497
 31
0.0
  0
LINE
  5
10b
100
AcDbEntity
  8
Layer_1
 62
7
100
AcDbLine
 10
62.563289
 20
150.584497
 30
0.0
 11
68.028587
 21
150.584497
 31
0.0
  0
LINE
  5
10c
100
AcDbEntity
  8
Layer_1
 62
7
100
AcDbLine
 10
68.028587
 20
150.584497
 30
0.0
 11
68.467906
 21
150.540400
 31
0.0
  0
LINE
  5
10d
100
AcDbEntity
  8
Layer_1
 62
7
100
AcDbLine
 10
68.467906
 20
150.540400
 30
0.0
 11
68.876357
 21
150.414170
 31
0.0
  0
LINE
  5
10e
100
AcDbEntity
  8
Layer_1
 62
7
100
AcDbLine
 10
68.876357
 20
150.414170
 30
0.0
 11
69.245671
 21
150.214080
 31
0.0
  0
LINE
  5
10f
100
AcDbEntity
  8
Layer_1
 62
7
100
AcDbLine
 10
69.245671
 20
150.214080
 30
0.0
 11
69.567582
 21
149.948944
 31
0.0
  0
LINE
  5
110
100
AcDbEntity
  8
Layer_1
 62
7
100
AcDbLine
 10
69.567582
 20
149.948944
 30
0.0
 11
69.832715
 21
149.627586
 31
0.0
  0
LINE
  5
111
100
AcDbEntity
  8
Layer_1
 62
7
100
AcDbLine
 10
69.832715
 20
149.627586
 30
0.0
 11
70.032255
 21
149.258273
 31
0.0
  0
LINE
  5
112
100
AcDbEntity
  8
Layer_1
 62
7
100
AcDbLine
 10
70.032255
 20
149.258273
 30
0.0
 11
70.159035
 21
148.849821
 31
0.0
  0
LINE
  5
113
100
AcDbEntity
  8
Layer_1
 62
7
100
AcDbLine
 10
70.159035
 20
148.849821
 30
0.0
 11
70.202582
 21
148.410502
 31
0.0
  0
LINE
  5
114
100
AcDbEntity
  8
Layer_1
 62
7
100
AcDbLine
 10
70.202582
 20
148.410502
 30
0.0
 11
70.202582
 21
142.934178
 31
0.0
  0
LINE
  5
115
100
AcDbEntity
  8
Layer_1
 62
7
100
AcDbLine
 10
70.202582
 20
142.934178
 30
0.0
 11
79.824042
 21
142.934178
 31
0.0
  0
LINE
  5
116
100
AcDbEntity
  8
Layer_1
 62
7
100
AcDbLine
 10
79.824042
 20
142.934178
 30
0.0
 11
79.824042
 21
144.555855
 31
0.0
  0
LINE
  5
117
100
AcDbEntity
  8
Layer_1
 62
7
100
AcDbLine
 10
79.824042
 20
144.555855
 30
0.0
 11
82.354673
 21
144.555855
 31
0.0
  0
LINE
  5
118
100
AcDbEntity
  8
Layer_1
 62
7
100
AcDbLine
 10
82.354673
 20
144.555855
 30
0.0
 11
82.354673
 21
142.934178
 31
0.0
  0
LINE
  5
119
100
AcDbEntity
  8
Layer_1
 62
7
100
AcDbLine
 10
82.354673
 20
142.934178
 30
0.0
 11
83.245437
 21
142.934178
 31
0.0
  0
LINE
  5
11a
100
AcDbEntity
  8
Layer_1
 62
7
100
AcDbLine
 10
83.245437
 20
142.934178
 30
0.0
 11
83.245437
 21
144.555855
 31
0.0
  0
LINE
  5
11b
100
AcDbEntity
  8
Layer_1
 62
7
100
AcDbLine
 10
83.245437
 20
144.555855
 30
0.0
 11
85.775514
 21
144.555855
 31
0.0
  0
LINE
  5
11c
100
AcDbEntity
  8
Layer_1
 62
7
100
AcDbLine
 10
85.775514
 20
144.555855
 30
0.0
 11
85.775514
 21
142.934178
 31
0.0
  0
LINE
  5
11d
100
AcDbEntity
  8
Layer_1
 62
7
100
AcDbLine
 10
85.775514
 20
142.934178
 30
0.0
 11
125.580974
 21
142.934178
 31
0.0
  0
LINE
  5
11e
100
AcDbEntity
  8
Layer_1
 62
7
100
AcDbLine
 10
125.580974
 20
142.934178
 30
0.0
 11
125.580974
 21
144.555855
 31
0.0
  0
LINE
  5
11f
100
AcDbEntity
  8
Layer_1
 62
7
100
AcDbLine
 10
125.580974
 20
144.555855
 30
0.0
 11
128.111054
 21
144.555855
 31
0.0
  0
LINE
  5
120
100
AcDbEntity
  8
Layer_1
 62
7
100
AcDbLine
 10
128.111054
 20
144.555855
 30
0.0
 11
128.111054
 21
142.934178
 31
0.0
  0
LINE
  5
121
100
AcDbEntity
  8
Layer_1
 62
7
100
AcDbLine
 10
128.111054
 20
142.934178
 30
0.0
 11
129.001818
 21
142.934178
 31
0.0
  0
LINE
  5
122
100
AcDbEntity
  8
Layer_1
 62
7
100
AcDbLine
 10
129.001818
 20
142.934178
 30
0.0
 11
129.001818
 21
144.555855
 31
0.0
  0
LINE
  5
123
100
AcDbEntity
  8
Layer_1
 62
7
100
AcDbLine
 10
129.001818
 20
144.555855
 30
0.0
 11
131.531895
 21
144.555855
 31
0.0
  0
LINE
  5
124
100
AcDbEntity
  8
Layer_1
 62
7
100
AcDbLine
 10
131.531895
 20
144.555855
 30
0.0
 11
131.531895
 21
142.934178
 31
0.0
  0
LINE
  5
125
100
AcDbEntity
  8
Layer_1
 62
7
100
AcDbLine
 10
131.531895
 20
142.934178
 30
0.0
 11
141.225015
 21
142.934178
 31
0.0
  0
LINE
  5
126
100
AcDbEntity
  8
Layer_1
 62
7
100
AcDbLine
 10
141.225015
 20
142.934178
 30
0.0
 11
141.225015
 21
148.410502
 31
0.0
  0
LINE
  5
127
100
AcDbEntity
  8
Layer_1
 62
7
100
AcDbLine
 10
141.225015
 20
148.410502
 30
0.0
 11
141.269112
 21
148.849821
 31
0.0
  0
LINE
  5
128
100
AcDbEntity
  8
Layer_1
 62
7
100
AcDbLine
 10
141.269112
 20
148.849821
 30
0.0
 11
141.395341
 21
149.258273
 31
0.0
  0
LINE
  5
129
100
AcDbEntity
  8
Layer_1
 62
7
100
AcDbLine
 10
141.395341
 20
149.258273
 30
0.0
 11
141.595431
 21
149.627586
 31
0.0
  0
LINE
  5
12a
100
AcDbEntity
  8
Layer_1
 62
7
100
AcDbLine
 10
141.595431
 20
149.627586
 30
0.0
 11
141.860568
 21
149.948944
 31
0.0
  0
LINE
  5
12b
100
AcDbEntity
  8
Layer_1
 62
7
100
AcDbLine
 10
141.860568
 20
149.948944
 30
0.0
 11
142.181926
 21
150.214080
 31
0.0
  0
LINE
  5
12c
100
AcDbEntity
  8
Layer_1
 62
7
100
AcDbLine
 10
142.181926
 20
150.214080
 30
0.0
 11
142.551239
 21
150.414170
 31
0.0
  0
LINE
  5
12d
100
AcDbEntity
  8
Layer_1
 62
7
100
AcDbLine
 10
142.551239
 20
150.414170
 30
0.0
 11
142.960241
 21
150.540400
 31
0.0
  0
LINE
  5
12e
100
AcDbEntity
  8
Layer_1
 62
7
100
AcDbLine
 10
142.960241
 20
150.540400
 30
0.0
 11
143.399009
 21
150.584497
 31
0.0
  0
LINE
  5
12f
100
AcDbEntity
  8
Layer_1
 62
7
100
AcDbLine
 10
143.399009
 20
150.584497
 30
0.0
 11
148.741939
 21
150.584497
 31
0.0
  0
LINE
  5
130
100
AcDbEntity
  8
Layer_1
 62
7
100
AcDbLine
 10
148.741939
 20
150.584497
 30
0.0
 11
148.741939
 21
155.769777
 31
0.0
  0
LINE
  5
131
100
AcDbEntity
  8
Layer_1
 62
7
100
AcDbLine
 10
148.741939
 20
155.769777
 30
0.0
 11
152.700215
 21
155.769777
 31
0.0
  0
LINE
  5
132
100
AcDbEntity
  8
Layer_1
 62
7
100
AcDbLine
 10
152.700215
 20
155.769777
 30
0.0
 11
152.700215
 21
166.888342
 31
0.0
  0
LINE
  5
133
100
AcDbEntity
  8
Layer_1
 62
7
100
AcDbLine
 10
152.700215
 20
166.888342
 30
0.0
 11
148.741939
 21
166.888342
 31
0.0
  0
LINE
  5
134
100
AcDbEntity
  8
Layer_1
 62
7
100
AcDbLine
 10
148.741939
 20
166.888342
 30
0.0
 11
148.741939
 21
171.995351
 31
0.0
  0
LINE
  5
135
100
AcDbEntity
  8
Layer_1
 62
7
100
AcDbLine
 10
148.741939
 20
171.995351
 30
0.0
 11
143.399009
 21
171.995351
 31
0.0
  0
LINE
  5
136
100
AcDbEntity
  8
Layer_1
 62
7
100
AcDbLine
 10
143.399009
 20
171.995351
 30
0.0
 11
142.960241
 21
172.039448
 31
0.0
  0
LINE
  5
137
100
AcDbEntity
  8
Layer_1
 62
7
100
AcDbLine
 10
142.960241
 20
172.039448
 30
0.0
 11
142.551239
 21
172.165677
 31
0.0
  0
LINE
  5
138
100
AcDbEntity
  8
Layer_1
 62
7
100
AcDbLine
 10
142.551239
 20
172.165677
 30
0.0
 11
142.181926
 21
172.365767
 31
0.0
  0
LINE
  5
139
100
AcDbEntity
  8
Layer_1
 62
7
100
AcDbLine
 10
142.181926
 20
172.365767
 30
0.0
 11
141.860568
 21
172.630351
 31
0.0
  0
LINE
  5
13a
100
AcDbEntity
  8
Layer_1
 62
7
100
AcDbLine
 10
141.860568
 20
172.630351
 30
0.0
 11
141.595431
 21
172.952262
 31
0.0
  0
LINE
  5
13b
100
AcDbEntity
  8
Layer_1
 62
7
100
AcDbLine
 10
141.595431
 20
172.952262
 30
0.0
 11
141.395341
 21
173.321575
 31
0.0
  0
LINE
  5
13c
100
AcDbEntity
  8
Layer_1
 62
7
100
AcDbLine
 10
141.395341
 20
173.321575
 30
0.0
 11
141.269112
 21
173.730027
 31
0.0
  0
LINE
  5
13d
100
AcDbEntity
  8
Layer_1
 62
7
100
AcDbLine
 10
141.269112
 20
173.730027
 30
0.0
 11
141.225015
 21
174.169345
 31
0.0
  0
LINE
  5
13e
100
AcDbEntity
  8
Layer_1
 62
7
100
AcDbLine
 10
141.225015
 20
174.169345
 30
0.0
 11
141.225015
 21
179.723941
 31
0.0
  0
LINE
  5
13f
100
AcDbEntity
  8
Layer_1
 62
7
100
AcDbLine
 10
141.225015
 20
179.723941
 30
0.0
 11
131.531895
 21
179.723941
 31
0.0
  0
LINE
  5
140
100
AcDbEntity
  8
Layer_1
 62
7
100
AcDbLine
 10
131.531895
 20
179.723941
 30
0.0
 11
131.531895
 21
178.160693
 31
0.0
  0
LINE
  5
141
100
AcDbEntity
  8
Layer_1
 62
7
100
AcDbLine
 10
131.531895
 20
178.160693
 30
0.0
 11
129.001818
 21
178.160693
 31
0.0
  0
LINE
  5
142
100
AcDbEntity
  8
Layer_1
 62
7
100
AcDbLine
 10
129.001818
 20
178.160693
 30
0.0
 11
129.001818
 21
179.723941
 31
0.0
  0
LINE
  5
143
100
AcDbEntity
  8
Layer_1
 62
7
100
AcDbLine
 10
129.001818
 20
179.723941
 30
0.0
 11
128.111054
 21
179.723941
 31
0.0
  0
LINE
  5
144
100
AcDbEntity
  8
Layer_1
 62
7
100
AcDbLine
 10
128.111054
 20
179.723941
 30
0.0
 11
128.111054
 21
178.160693
 31
0.0
  0
LINE
  5
145
100
AcDbEntity
  8
Layer_1
 62
7
100
AcDbLine
 10
128.111054
 20
178.160693
 30
0.0
 11
125.580974
 21
178.160693
 31
0.0
  0
LINE
  5
146
100
AcDbEntity
  8
Layer_1
 62
7
100
AcDbLine
 10
125.580974
 20
178.160693
 30
0.0
 11
125.580974
 21
179.723941
 31
0.0
  0
LINE
  5
147
100
AcDbEntity
  8
Layer_1
 62
7
100
AcDbLine
 10
125.580974
 20
179.723941
 30
0.0
 11
85.775514
 21
179.723941
 31
0.0
  0
LINE
  5
148
100
AcDbEntity
  8
Layer_1
 62
7
100
AcDbLine
 10
85.775514
 20
179.723941
 30
0.0
 11
85.775514
 21
178.160693
 31
0.0
  0
LINE
  5
149
100
AcDbEntity
  8
Layer_1
 62
7
100
AcDbLine
 10
85.775514
 20
178.160693
 30
0.0
 11
83.245437
 21
178.160693
 31
0.0
  0
LINE
  5
14a
100
AcDbEntity
  8
Layer_1
 62
7
100
AcDbLine
 10
83.245437
 20
178.160693
 30
0.0
 11
83.245437
 21
179.723941
 31
0.0
  0
LINE
  5
14b
100
AcDbEntity
  8
Layer_1
 62
7
100
AcDbLine
 10
83.245437
 20
179.723941
 30
0.0
 11
82.354673
 21
179.723941
 31
0.0
  0
LINE
  5
14c
100
AcDbEntity
  8
Layer_1
 62
7
100
AcDbLine
 10
82.354673
 20
179.723941
 30
0.0
 11
82.354673
 21
178.160693
 31
0.0
  0
LINE
  5
14d
100
AcDbEntity
  8
Layer_1
 62
7
100
AcDbLine
 10
82.354673
 20
178.160693
 30
0.0
 11
79.824042
 21
178.160693
 31
0.0
  0
LINE
  5
14e
100
AcDbEntity
  8
Layer_1
 62
7
100
AcDbLine
 10
79.824042
 20
178.160693
 30
0.0
 11
79.824042
 21
179.723941
 31
0.0
  0
LINE
  5
14f
100
AcDbEntity
  8
Layer_1
 62
7
100
AcDbLine
 10
79.824042
 20
179.723941
 30
0.0
 11
70.202582
 21
179.723941
 31
0.0
  0
LINE
  5
150
100
AcDbEntity
  8
Layer_1
 62
7
100
AcDbLine
 10
70.202582
 20
179.723941
 30
0.0
 11
70.202582
 21
179.723941
 31
0.0
  0
LINE
  5
151
100
AcDbEntity
  8
Layer_1
 62
7
100
AcDbLine
 10
91.176502
 20
176.236815
 30
0.0
 11
91.151412
 21
175.987974
 31
0.0
  0
LINE
  5
152
100
AcDbEntity
  8
Layer_1
 62
7
100
AcDbLine
 10
91.151412
 20
175.987974
 30
0.0
 11
91.079465
 21
175.756204
 31
0.0
  0
LINE
  5
153
100
AcDbEntity
  8
Layer_1
 62
7
100
AcDbLine
 10
91.079465
 20
175.756204
 30
0.0
 11
90.965625
 21
175.546471
 31
0.0
  0
LINE
  5
154
100
AcDbEntity
  8
Layer_1
 62
7
100
AcDbLine
 10
90.965625
 20
175.546471
 30
0.0
 11
90.814854
 21
175.363735
 31
0.0
  0
LINE
  5
155
100
AcDbEntity
  8
Layer_1
 62
7
100
AcDbLine
 10
90.814854
 20
175.363735
 30
0.0
 11
90.632118
 21
175.212963
 31
0.0
  0
LINE
  5
156
100
AcDbEntity
  8
Layer_1
 62
7
100
AcDbLine
 10
90.632118
 20
175.212963
 30
0.0
 11
90.422384
 21
175.099123
 31
0.0
  0
LINE
  5
157
100
AcDbEntity
  8
Layer_1
 62
7
100
AcDbLine
 10
90.422384
 20
175.099123
 30
0.0
 11
90.190615
 21
175.027176
 31
0.0
  0
LINE
  5
158
100
AcDbEntity
  8
Layer_1
 62
7
100
AcDbLine
 10
90.190615
 20
175.027176
 30
0.0
 11
89.941774
 21
175.002087
 31
0.0
  0
LINE
  5
159
100
AcDbEntity
  8
Layer_1
 62
7
100
AcDbLine
 10
89.941774
 20
175.002087
 30
0.0
 11
89.692933
 21
175.027176
 31
0.0
  0
LINE
  5
15a
100
AcDbEntity
  8
Layer_1
 62
7
100
AcDbLine
 10
89.692933
 20
175.027176
 30
0.0
 11
89.461164
 21
175.099123
 31
0.0
  0
LINE
  5
15b
100
AcDbEntity
  8
Layer_1
 62
7
100
AcDbLine
 10
89.461164
 20
175.099123
 30
0.0
 11
89.251430
 21
175.212963
 31
0.0
  0
LINE
  5
15c
100
AcDbEntity
  8
Layer_1
 62
7
100
AcDbLine
 10
89.251430
 20
175.212963
 30
0.0
 11
89.068694
 21
175.363735
 31
0.0
  0
LINE
  5
15d
100
AcDbEntity
  8
Layer_1
 62
7
100
AcDbLine
 10
89.068694
 20
175.363735
 30
0.0
 11
88.917923
 21
175.546471
 31
0.0
  0
LINE
  5
15e
100
AcDbEntity
  8
Layer_1
 62
7
100
AcDbLine
 10
88.917923
 20
175.546471
 30
0.0
 11
88.804083
 21
175.756204
 31
0.0
  0
LINE
  5
15f
100
AcDbEntity
  8
Layer_1
 62
7
100
AcDbLine
 10
88.804083
 20
175.756204
 30
0.0
 11
88.732136
 21
175.987974
 31
0.0
  0
LINE
  5
160
100
AcDbEntity
  8
Layer_1
 62
7
100
AcDbLine
 10
88.732136
 20
175.987974
 30
0.0
 11
88.707046
 21
176.236815
 31
0.0
  0
LINE
  5
161
100
AcDbEntity
  8
Layer_1
 62
7
100
AcDbLine
 10
88.707046
 20
176.236815
 30
0.0
 11
88.732136
 21
176.485656
 31
0.0
  0
LINE
  5
162
100
AcDbEntity
  8
Layer_1
 62
7
100
AcDbLine
 10
88.732136
 20
176.485656
 30
0.0
 11
88.804083
 21
176.717425
 31
0.0
  0
LINE
  5
163
100
AcDbEntity
  8
Layer_1
 62
7
100
AcDbLine
 10
88.804083
 20
176.717425
 30
0.0
 11
88.917923
 21
176.927159
 31
0.0
  0
LINE
  5
164
100
AcDbEntity
  8
Layer_1
 62
7
100
AcDbLine
 10
88.917923
 20
176.927159
 30
0.0
 11
89.068694
 21
177.109895
 31
0.0
  0
LINE
  5
165
100
AcDbEntity
  8
Layer_1
 62
7
100
AcDbLine
 10
89.068694
 20
177.109895
 30
0.0
 11
89.251430
 21
177.260666
 31
0.0
  0
LINE
  5
166
100
AcDbEntity
  8
Layer_1
 62
7
100
AcDbLine
 10
89.251430
 20
177.260666
 30
0.0
 11
89.461164
 21
177.374506
 31
0.0
  0
LINE
  5
167
100
AcDbEntity
  8
Layer_1
 62
7
100
AcDbLine
 10
89.461164
 20
177.374506
 30
0.0
 11
89.692933
 21
177.446453
 31
0.0
  0
LINE
  5
168
100
AcDbEntity
  8
Layer_1
 62
7
100
AcDbLine
 10
89.692933
 20
177.446453
 30
0.0
 11
89.941774
 21
177.471543
 31
0.0
  0
LINE
  5
169
100
AcDbEntity
  8
Layer_1
 62
7
100
AcDbLine
 10
89.941774
 20
177.471543
 30
0.0
 11
90.190615
 21
177.446453
 31
0.0
  0
LINE
  5
16a
100
AcDbEntity
  8
Layer_1
 62
7
100
AcDbLine
 10
90.190615
 20
177.446453
 30
0.0
 11
90.422384
 21
177.374506
 31
0.0
  0
LINE
  5
16b
100
AcDbEntity
  8
Layer_1
 62
7
100
AcDbLine
 10
90.422384
 20
177.374506
 30
0.0
 11
90.632118
 21
177.260666
 31
0.0
  0
LINE
  5
16c
100
AcDbEntity
  8
Layer_1
 62
7
100
AcDbLine
 10
90.632118
 20
177.260666
 30
0.0
 11
90.814854
 21
177.109895
 31
0.0
  0
LINE
  5
16d
100
AcDbEntity
  8
Layer_1
 62
7
100
AcDbLine
 10
90.814854
 20
177.109895
 30
0.0
 11
90.965625
 21
176.927159
 31
0.0
  0
LINE
  5
16e
100
AcDbEntity
  8
Layer_1
 62
7
100
AcDbLine
 10
90.965625
 20
176.927159
 30
0.0
 11
91.079465
 21
176.717425
 31
0.0
  0
LINE
  5
16f
100
AcDbEntity
  8
Layer_1
 62
7
100
AcDbLine
 10
91.079465
 20
176.717425
 30
0.0
 11
91.151412
 21
176.485656
 31
0.0
  0
LINE
  5
170
100
AcDbEntity
  8
Layer_1
 62
7
100
AcDbLine
 10
91.151412
 20
176.485656
 30
0.0
 11
91.176502
 21
176.236815
 31
0.0
  0
LINE
  5
171
100
AcDbEntity
  8
Layer_1
 62
7
100
AcDbLine
 10
122.699722
 20
176.236815
 30
0.0
 11
122.674633
 21
175.987974
 31
0.0
  0
LINE
  5
172
100
AcDbEntity
  8
Layer_1
 62
7
100
AcDbLine
 10
122.674633
 20
175.987974
 30
0.0
 11
122.602686
 21
175.756204
 31
0.0
  0
LINE
  5
173
100
AcDbEntity
  8
Layer_1
 62
7
100
AcDbLine
 10
122.602686
 20
175.756204
 30
0.0
 11
122.488846
 21
175.546471
 31
0.0
  0
LINE
  5
174
100
AcDbEntity
  8
Layer_1
 62
7
100
AcDbLine
 10
122.488846
 20
175.546471
 30
0.0
 11
122.338074
 21
175.363735
 31
0.0
  0
LINE
  5
175
100
AcDbEntity
  8
Layer_1
 62
7
100
AcDbLine
 10
122.338074
 20
175.363735
 30
0.0
 11
122.155338
 21
175.212963
 31
0.0
  0
LINE
  5
176
100
AcDbEntity
  8
Layer_1
 62
7
100
AcDbLine
 10
122.155338
 20
175.212963
 30
0.0
 11
121.945605
 21
175.099123
 31
0.0
  0
LINE
  5
177
100
AcDbEntity
  8
Layer_1
 62
7
100
AcDbLine
 10
121.945605
 20
175.099123
 30
0.0
 11
121.713835
 21
175.027176
 31
0.0
  0
LINE
  5
178
100
AcDbEntity
  8
Layer_1
 62
7
100
AcDbLine
 10
121.713835
 20
175.027176
 30
0.0
 11
121.464994
 21
175.002087
 31
0.0
  0
LINE
  5
179
100
AcDbEntity
  8
Layer_1
 62
7
100
AcDbLine
 10
121.464994
 20
175.002087
 30
0.0
 11
121.216153
 21
175.027176
 31
0.0
  0
LINE
  5
17a
100
AcDbEntity
  8
Layer_1
 62
7
100
AcDbLine
 10
121.216153
 20
175.027176
 30
0.0
 11
120.984384
 21
175.099123
 31
0.0
  0
LINE
  5
17b
100
AcDbEntity
  8
Layer_1
 62
7
100
AcDbLine
 10
120.984384
 20
175.099123
 30
0.0
 11
120.774651
 21
175.212963
 31
0.0
  0
LINE
  5
17c
100
AcDbEntity
  8
Layer_1
 62
7
100
AcDbLine
 10
120.774651
 20
175.212963
 30
0.0
 11
120.591914
 21
175.363735
 31
0.0
  0
LINE
  5
17d
100
AcDbEntity
  8
Layer_1
 62
7
100
AcDbLine
 10
120.591914
 20
175.363735
 30
0.0
 11
120.441143
 21
175.546471
 31
0.0
  0
LINE
  5
17e
100
AcDbEntity
  8
Layer_1
 62
7
100
AcDbLine
 10
120.441143
 20
175.546471
 30
0.0
 11
120.327303
 21
175.756204
 31
0.0
  0
LINE
  5
17f
100
AcDbEntity
  8
Layer_1
 62
7
100
AcDbLine
 10
120.327303
 20
175.756204
 30
0.0
 11
120.255356
 21
175.987974
 31
0.0
  0
LINE
  5
180
100
AcDbEntity
  8
Layer_1
 62
7
100
AcDbLine
 10
120.255356
 20
175.987974
 30
0.0
 11
120.230266
 21
176.236815
 31
0.0
  0
LINE
  5
181
100
AcDbEntity
  8
Layer_1
 62
7
100
AcDbLine
 10
120.230266
 20
176.236815
 30
0.0
 11
120.255356
 21
176.485656
 31
0.0
  0
LINE
  5
182
100
AcDbEntity
  8
Layer_1
 62
7
100
AcDbLine
 10
120.255356
 20
176.485656
 30
0.0
 11
120.327303
 21
176.717425
 31
0.0
  0
LINE
  5
183
100
AcDbEntity
  8
Layer_1
 62
7
100
AcDbLine
 10
120.327303
 20
176.717425
 30
0.0
 11
120.441143
 21
176.927159
 31
0.0
  0
LINE
  5
184
100
AcDbEntity
  8
Layer_1
 62
7
100
AcDbLine
 10
120.441143
 20
176.927159
 30
0.0
 11
120.591914
 21
177.109895
 31
0.0
  0
LINE
  5
185
100
AcDbEntity
  8
Layer_1
 62
7
100
AcDbLine
 10
120.591914
 20
177.109895
 30
0.0
 11
120.774651
 21
177.260666
 31
0.0
  0
LINE
  5
186
100
AcDbEntity
  8
Layer_1
 62
7
100
AcDbLine
 10
120.774651
 20
177.260666
 30
0.0
 11
120.984384
 21
177.374506
 31
0.0
  0
LINE
  5
187
100
AcDbEntity
  8
Layer_1
 62
7
100
AcDbLine
 10
120.984384
 20
177.374506
 30
0.0
 11
121.216153
 21
177.446453
 31
0.0
  0
LINE
  5
188
100
AcDbEntity
  8
Layer_1
 62
7
100
AcDbLine
 10
121.216153
 20
177.446453
 30
0.0
 11
121.464994
 21
177.471543
 31
0.0
  0
LINE
  5
189
100
AcDbEntity
  8
Layer_1
 62
7
100
AcDbLine
 10
121.464994
 20
177.471543
 30
0.0
 11
121.713835
 21
177.446453
 31
0.0
  0
LINE
  5
18a
100
AcDbEntity
  8
Layer_1
 62
7
100
AcDbLine
 10
121.713835
 20
177.446453
 30
0.0
 11
121.945605
 21
177.374506
 31
0.0
  0
LINE
  5
18b
100
AcDbEntity
  8
Layer_1
 62
7
100
AcDbLine
 10
121.945605
 20
177.374506
 30
0.0
 11
122.155338
 21
177.260666
 31
0.0
  0
LINE
  5
18c
100
AcDbEntity
  8
Layer_1
 62
7
100
AcDbLine
 10
122.155338
 20
177.260666
 30
0.0
 11
122.338074
 21
177.109895
 31
0.0
  0
LINE
  5
18d
100
AcDbEntity
  8
Layer_1
 62
7
100
AcDbLine
 10
122.338074
 20
177.109895
 30
0.0
 11
122.488846
 21
176.927159
 31
0.0
  0
LINE
  5
18e
100
AcDbEntity
  8
Layer_1
 62
7
100
AcDbLine
 10
122.488846
 20
176.927159
 30
0.0
 11
122.602686
 21
176.717425
 31
0.0
  0
LINE
  5
18f
100
AcDbEntity
  8
Layer_1
 62
7
100
AcDbLine
 10
122.602686
 20
176.717425
 30
0.0
 11
122.674633
 21
176.485656
 31
0.0
  0
LINE
  5
190
100
AcDbEntity
  8
Layer_1
 62
7
100
AcDbLine
 10
122.674633
 20
176.485656
 30
0.0
 11
122.699722
 21
176.236815
 31
0.0
  0
LINE
  5
191
100
AcDbEntity
  8
Layer_1
 62
7
100
AcDbLine
 10
91.176502
 20
146.373902
 30
0.0
 11
91.151412
 21
146.125061
 31
0.0
  0
LINE
  5
192
100
AcDbEntity
  8
Layer_1
 62
7
100
AcDbLine
 10
91.151412
 20
146.125061
 30
0.0
 11
91.079465
 21
145.893292
 31
0.0
  0
LINE
  5
193
100
AcDbEntity
  8
Layer_1
 62
7
100
AcDbLine
 10
91.079465
 20
145.893292
 30
0.0
 11
90.965625
 21
145.683558
 31
0.0
  0
LINE
  5
194
100
AcDbEntity
  8
Layer_1
 62
7
100
AcDbLine
 10
90.965625
 20
145.683558
 30
0.0
 11
90.814854
 21
145.500822
 31
0.0
  0
LINE
  5
195
100
AcDbEntity
  8
Layer_1
 62
7
100
AcDbLine
 10
90.814854
 20
145.500822
 30
0.0
 11
90.632118
 21
145.350051
 31
0.0
  0
LINE
  5
196
100
AcDbEntity
  8
Layer_1
 62
7
100
AcDbLine
 10
90.632118
 20
145.350051
 30
0.0
 11
90.422384
 21
145.236211
 31
0.0
  0
LINE
  5
197
100
AcDbEntity
  8
Layer_1
 62
7
100
AcDbLine
 10
90.422384
 20
145.236211
 30
0.0
 11
90.190615
 21
145.164264
 31
0.0
  0
LINE
  5
198
100
AcDbEntity
  8
Layer_1
 62
7
100
AcDbLine
 10
90.190615
 20
145.164264
 30
0.0
 11
89.941774
 21
145.139174
 31
0.0
  0
LINE
  5
199
100
AcDbEntity
  8
Layer_1
 62
7
100
AcDbLine
 10
89.941774
 20
145.139174
 30
0.0
 11
89.692933
 21
145.164264
 31
0.0
  0
LINE
  5
19a
100
AcDbEntity
  8
Layer_1
 62
7
100
AcDbLine
 10
89.692933
 20
145.164264
 30
0.0
 11
89.461164
 21
145.236211
 31
0.0
  0
LINE
  5
19b
100
AcDbEntity
  8
Layer_1
 62
7
100
AcDbLine
 10
89.461164
 20
145.236211
 30
0.0
 11
89.251430
 21
145.350051
 31
0.0
  0
LINE
  5
19c
100
AcDbEntity
  8
Layer_1
 62
7
100
AcDbLine
 10
89.251430
 20
145.350051
 30
0.0
 11
89.068694
 21
145.500822
 31
0.0
  0
LINE
  5
19d
100
AcDbEntity
  8
Layer_1
 62
7
100
AcDbLine
 10
89.068694
 20
145.500822
 30
0.0
 11
88.917923
 21
145.683558
 31
0.0
  0
LINE
  5
19e
100
AcDbEntity
  8
Layer_1
 62
7
100
AcDbLine
 10
88.917923
 20
145.683558
 30
0.0
 11
88.804083
 21
145.893292
 31
0.0
  0
LINE
  5
19f
100
AcDbEntity
  8
Layer_1
 62
7
100
AcDbLine
 10
88.804083
 20
145.893292
 30
0.0
 11
88.732136
 21
146.125061
 31
0.0
  0
LINE
  5
1a0
100
AcDbEntity
  8
Layer_1
 62
7
100
AcDbLine
 10
88.732136
 20
146.125061
 30
0.0
 11
88.707046
 21
146.373902
 31
0.0
  0
LINE
  5
1a1
100
AcDbEntity
  8
Layer_1
 62
7
100
AcDbLine
 10
88.707046
 20
146.373902
 30
0.0
 11
88.732136
 21
146.622743
 31
0.0
  0
LINE
  5
1a2
100
AcDbEntity
  8
Layer_1
 62
7
100
AcDbLine
 10
88.732136
 20
146.622743
 30
0.0
 11
88.804083
 21
146.854512
 31
0.0
  0
LINE
  5
1a3
100
AcDbEntity
  8
Layer_1
 62
7
100
AcDbLine
 10
88.804083
 20
146.854512
 30
0.0
 11
88.917923
 21
147.064246
 31
0.0
  0
LINE
  5
1a4
100
AcDbEntity
  8
Layer_1
 62
7
100
AcDbLine
 10
88.917923
 20
147.064246
 30
0.0
 11
89.068694
 21
147.246982
 31
0.0
  0
LINE
  5
1a5
100
AcDbEntity
  8
Layer_1
 62
7
100
AcDbLine
 10
89.068694
 20
147.246982
 30
0.0
 11
89.251430
 21
147.397754
 31
0.0
  0
LINE
  5
1a6
100
AcDbEntity
  8
Layer_1
 62
7
100
AcDbLine
 10
89.251430
 20
147.397754
 30
0.0
 11
89.461164
 21
147.511594
 31
0.0
  0
LINE
  5
1a7
100
AcDbEntity
  8
Layer_1
 62
7
100
AcDbLine
 10
89.461164
 20
147.511594
 30
0.0
 11
89.692933
 21
147.583540
 31
0.0
  0
LINE
  5
1a8
100
AcDbEntity
  8
Layer_1
 62
7
100
AcDbLine
 10
89.692933
 20
147.583540
 30
0.0
 11
89.941774
 21
147.608630
 31
0.0
  0
LINE
  5
1a9
100
AcDbEntity
  8
Layer_1
 62
7
100
AcDbLine
 10
89.941774
 20
147.608630
 30
0.0
 11
90.190615
 21
147.583540
 31
0.0
  0
LINE
  5
1aa
100
AcDbEntity
  8
Layer_1
 62
7
100
AcDbLine
 10
90.190615
 20
147.583540
 30
0.0
 11
90.422384
 21
147.511594
 31
0.0
  0
LINE
  5
1ab
100
AcDbEntity
  8
Layer_1
 62
7
100
AcDbLine
 10
90.422384
 20
147.511594
 30
0.0
 11
90.632118
 21
147.397754
 31
0.0
  0
LINE
  5
1ac
100
AcDbEntity
  8
Layer_1
 62
7
100
AcDbLine
 10
90.632118
 20
147.397754
 30
0.0
 11
90.814854
 21
147.246982
 31
0.0
  0
LINE
  5
1ad
100
AcDbEntity
  8
Layer_1
 62
7
100
AcDbLine
 10
90.814854
 20
147.246982
 30
0.0
 11
90.965625
 21
147.064246
 31
0.0
  0
LINE
  5
1ae
100
AcDbEntity
  8
Layer_1
 62
7
100
AcDbLine
 10
90.965625
 20
147.064246
 30
0.0
 11
91.079465
 21
146.854512
 31
0.0
  0
LINE
  5
1af
100
AcDbEntity
  8
Layer_1
 62
7
100
AcDbLine
 10
91.079465
 20
146.854512
 30
0.0
 11
91.151412
 21
146.622743
 31
0.0
  0
LINE
  5
1b0
100
AcDbEntity
  8
Layer_1
 62
7
100
AcDbLine
 10
91.151412
 20
146.622743
 30
0.0
 11
91.176502
 21
146.373902
 31
0.0
  0
LINE
  5
1b1
100
AcDbEntity
  8
Layer_1
 62
7
100
AcDbLine
 10
122.699722
 20
146.373902
 30
0.0
 11
122.674633
 21
146.125061
 31
0.0
  0
LINE
  5
1b2
100
AcDbEntity
  8
Layer_1
 62
7
100
AcDbLine
 10
122.674633
 20
146.125061
 30
0.0
 11
122.602686
 21
145.893292
 31
0.0
  0
LINE
  5
1b3
100
AcDbEntity
  8
Layer_1
 62
7
100
AcDbLine
 10
122.602686
 20
145.893292
 30
0.0
 11
122.488846
 21
145.683558
 31
0.0
  0
LINE
  5
1b4
100
AcDbEntity
  8
Layer_1
 62
7
100
AcDbLine
 10
122.488846
 20
145.683558
 30
0.0
 11
122.338074
 21
145.500822
 31
0.0
  0
LINE
  5
1b5
100
AcDbEntity
  8
Layer_1
 62
7
100
AcDbLine
 10
122.338074
 20
145.500822
 30
0.0
 11
122.155338
 21
145.350051
 31
0.0
  0
LINE
  5
1b6
100
AcDbEntity
  8
Layer_1
 62
7
100
AcDbLine
 10
122.155338
 20
145.350051
 30
0.0
 11
121.945605
 21
145.236211
 31
0.0
  0
LINE
  5
1b7
100
AcDbEntity
  8
Layer_1
 62
7
100
AcDbLine
 10
121.945605
 20
145.236211
 30
0.0
 11
121.713835
 21
145.164264
 31
0.0
  0
LINE
  5
1b8
100
AcDbEntity
  8
Layer_1
 62
7
100
AcDbLine
 10
121.713835
 20
145.164264
 30
0.0
 11
121.464994
 21
145.139174
 31
0.0
  0
LINE
  5
1b9
100
AcDbEntity
  8
Layer_1
 62
7
100
AcDbLine
 10
121.464994
 20
145.139174
 30
0.0
 11
121.216153
 21
145.164264
 31
0.0
  0
LINE
  5
1ba
100
AcDbEntity
  8
Layer_1
 62
7
100
AcDbLine
 10
121.216153
 20
145.164264
 30
0.0
 11
120.984384
 21
145.236211
 31
0.0
  0
LINE
  5
1bb
100
AcDbEntity
  8
Layer_1
 62
7
100
AcDbLine
 10
120.984384
 20
145.236211
 30
0.0
 11
120.774651
 21
145.350051
 31
0.0
  0
LINE
  5
1bc
100
AcDbEntity
  8
Layer_1
 62
7
100
AcDbLine
 10
120.774651
 20
145.350051
 30
0.0
 11
120.591914
 21
145.500822
 31
0.0
  0
LINE
  5
1bd
100
AcDbEntity
  8
Layer_1
 62
7
100
AcDbLine
 10
120.591914
 20
145.500822
 30
0.0
 11
120.441143
 21
145.683558
 31
0.0
  0
LINE
  5
1be
100
AcDbEntity
  8
Layer_1
 62
7
100
AcDbLine
 10
120.441143
 20
145.683558
 30
0.0
 11
120.327303
 21
145.893292
 31
0.0
  0
LINE
  5
1bf
100
AcDbEntity
  8
Layer_1
 62
7
100
AcDbLine
 10
120.327303
 20
145.893292
 30
0.0
 11
120.255356
 21
146.125061
 31
0.0
  0
LINE
  5
1c0
100
AcDbEntity
  8
Layer_1
 62
7
100
AcDbLine
 10
120.255356
 20
146.125061
 30
0.0
 11
120.230266
 21
146.373902
 31
0.0
  0
LINE
  5
1c1
100
AcDbEntity
  8
Layer_1
 62
7
100
AcDbLine
 10
120.230266
 20
146.373902
 30
0.0
 11
120.255356
 21
146.622743
 31
0.0
  0
LINE
  5
1c2
100
AcDbEntity
  8
Layer_1
 62
7
100
AcDbLine
 10
120.255356
 20
146.622743
 30
0.0
 11
120.327303
 21
146.854512
 31
0.0
  0
LINE
  5
1c3
100
AcDbEntity
  8
Layer_1
 62
7
100
AcDbLine
 10
120.327303
 20
146.854512
 30
0.0
 11
120.441143
 21
147.064246
 31
0.0
  0
LINE
  5
1c4
100
AcDbEntity
  8
Layer_1
 62
7
100
AcDbLine
 10
120.441143
 20
147.064246
 30
0.0
 11
120.591914
 21
147.246982
 31
0.0
  0
LINE
  5
1c5
100
AcDbEntity
  8
Layer_1
 62
7
100
AcDbLine
 10
120.591914
 20
147.246982
 30
0.0
 11
120.774651
 21
147.397754
 31
0.0
  0
LINE
  5
1c6
100
AcDbEntity
  8
Layer_1
 62
7
100
AcDbLine
 10
120.774651
 20
147.397754
 30
0.0
 11
120.984384
 21
147.511594
 31
0.0
  0
LINE
  5
1c7
100
AcDbEntity
  8
Layer_1
 62
7
100
AcDbLine
 10
120.984384
 20
147.511594
 30
0.0
 11
121.216153
 21
147.583540
 31
0.0
  0
LINE
  5
1c8
100
AcDbEntity
  8
Layer_1
 62
7
100
AcDbLine
 10
121.216153
 20
147.583540
 30
0.0
 11
121.464994
 21
147.608630
 31
0.0
  0
LINE
  5
1c9
100
AcDbEntity
  8
Layer_1
 62
7
100
AcDbLine
 10
121.464994
 20
147.608630
 30
0.0
 11
121.713835
 21
147.583540
 31
0.0
  0
LINE
  5
1ca
100
AcDbEntity
  8
Layer_1
 62
7
100
AcDbLine
 10
121.713835
 20
147.583540
 30
0.0
 11
121.945605
 21
147.511594
 31
0.0
  0
LINE
  5
1cb
100
AcDbEntity
  8
Layer_1
 62
7
100
AcDbLine
 10
121.945605
 20
147.511594
 30
0.0
 11
122.155338
 21
147.397754
 31
0.0
  0
LINE
  5
1cc
100
AcDbEntity
  8
Layer_1
 62
7
100
AcDbLine
 10
122.155338
 20
147.397754
 30
0.0
 11
122.338074
 21
147.246982
 31
0.0
  0
LINE
  5
1cd
100
AcDbEntity
  8
Layer_1
 62
7
100
AcDbLine
 10
122.338074
 20
147.246982
 30
0.0
 11
122.488846
 21
147.064246
 31
0.0
  0
LINE
  5
1ce
100
AcDbEntity
  8
Layer_1
 62
7
100
AcDbLine
 10
122.488846
 20
147.064246
 30
0.0
 11
122.602686
 21
146.854512
 31
0.0
  0
LINE
  5
1cf
100
AcDbEntity
  8
Layer_1
 62
7
100
AcDbLine
 10
122.602686
 20
146.854512
 30
0.0
 11
122.674633
 21
146.622743
 31
0.0
  0
LINE
  5
1d0
100
AcDbEntity
  8
Layer_1
 62
7
100
AcDbLine
 10
122.674633
 20
146.622743
 30
0.0
 11
122.699722
 21
146.373902
 31
0.0
  0
ENDSEC
  0
SECTION
  2
OBJECTS
  0
DICTIONARY
  5
C
330
0
100
AcDbDictionary
  3
ACAD_GROUP
350
D
  3
ACAD_MLINESTYLE
350
17
  0
DICTIONARY
  5
D
330
C
100
AcDbDictionary
  0
DICTIONARY
  5
1A
330
C
100
AcDbDictionary
  0
DICTIONARY
  5
17
330
C
100
AcDbDictionary
  3
STANDARD
350
18
  0
DICTIONARY
  5
19
330
C
100
AcDbDictionary
  0
ENDSEC
  0
EOF
