<?xml version="1.0" encoding="UTF-8" standalone="no"?>
<!-- Created with Inkscape (http://www.inkscape.org/) -->

<svg
   xmlns:dc="http://purl.org/dc/elements/1.1/"
   xmlns:cc="http://creativecommons.org/ns#"
   xmlns:rdf="http://www.w3.org/1999/02/22-rdf-syntax-ns#"
   xmlns:svg="http://www.w3.org/2000/svg"
   xmlns="http://www.w3.org/2000/svg"
   xmlns:xlink="http://www.w3.org/1999/xlink"
   xmlns:sodipodi="http://sodipodi.sourceforge.net/DTD/sodipodi-0.dtd"
   xmlns:inkscape="http://www.inkscape.org/namespaces/inkscape"
   width="210mm"
   height="297mm"
   viewBox="0 0 744.09448819 1052.3622047"
   id="svg2"
   version="1.1"
   inkscape:version="0.91 r13725"
   sodipodi:docname="drawing.svg">
  <defs
     id="defs4" />
  <sodipodi:namedview
     id="base"
     pagecolor="#ffffff"
     bordercolor="#666666"
     borderopacity="1.0"
     inkscape:pageopacity="0.0"
     inkscape:pageshadow="2"
     inkscape:zoom="0.49497475"
     inkscape:cx="871.48679"
     inkscape:cy="409.82252"
     inkscape:document-units="mm"
     inkscape:current-layer="layer1"
     showgrid="false"
     inkscape:window-width="1920"
     inkscape:window-height="1176"
     inkscape:window-x="0"
     inkscape:window-y="24"
     inkscape:window-maximized="1">
    <inkscape:grid
       type="xygrid"
       id="grid4879" />
  </sodipodi:namedview>
  <metadata
     id="metadata7">
    <rdf:RDF>
      <cc:Work
         rdf:about="">
        <dc:format>image/svg+xml</dc:format>
        <dc:type
           rdf:resource="http://purl.org/dc/dcmitype/StillImage" />
        <dc:title></dc:title>
      </cc:Work>
    </rdf:RDF>
  </metadata>
  <g
     inkscape:label="Layer 1"
     inkscape:groupmode="layer"
     id="layer1">
    <image
       sodipodi:absref="/home/iwasz/workspace/gp8-clock/hw-design/transmitter/board-outline/case.png"
       xlink:href="case.png"
       width="441.21405"
       height="304.2735"
       preserveAspectRatio="none"
       id="image4258"
       x="157.63986"
       y="515.54242" />
    <path
       style="fill:none;fill-rule:evenodd;stroke:#000000;stroke-width:1px;stroke-linecap:butt;stroke-linejoin:miter;stroke-opacity:1"
       d="M 0,1052.3622 0,891.85039"
       id="path4883"
       inkscape:connector-curvature="0"
       sodipodi:nodetypes="cc" />
    <path
       style="fill:none;fill-opacity:1;stroke:#000000;stroke-width:1;stroke-linejoin:miter;stroke-miterlimit:4;stroke-dasharray:none;stroke-opacity:1"
       d="m 246.729,307.45877 0,19.68164 -0.1543,1.55664 -0.44922,1.44727 -0.70703,1.30859 -0.93945,1.14063 -1.14063,0.9375 -1.30859,0.70898 -1.44727,0.44727 -1.55664,0.15625 -19.36523,0 0,75.86523 19.36523,0 1.55664,0.15625 1.44727,0.44727 1.30859,0.70898 1.14063,0.93946 0.93945,1.13867 0.70703,1.30859 0.44922,1.44727 0.1543,1.55664 0,19.4043 34.09179,0 0,-5.7461 8.9668,0 0,5.7461 3.15625,0 0,-5.7461 8.96484,0 0,5.7461 141.04297,0 0,-5.7461 8.96485,0 0,5.7461 3.15625,0 0,-5.7461 8.96484,0 0,5.7461 34.3457,0 0,-19.4043 0.15625,-1.55664 0.44727,-1.44727 0.70898,-1.30859 0.93946,-1.13867 1.13867,-0.93946 1.30859,-0.70898 1.44922,-0.44727 1.55469,-0.15625 18.93164,0 0,-18.37304 14.02539,0 0,-39.39649 -14.02539,0 0,-18.0957 -18.93164,0 -1.55469,-0.15625 -1.44922,-0.44727 -1.30859,-0.70898 -1.13867,-0.9375 -0.93946,-1.14063 -0.70898,-1.30859 -0.44727,-1.44727 -0.15625,-1.55664 0,-19.68164 -34.3457,0 0,5.53907 -8.96484,0 0,-5.53907 -3.15625,0 0,5.53907 -8.96485,0 0,-5.53907 -141.04297,0 0,5.53907 -8.96484,0 0,-5.53907 -3.15625,0 0,5.53907 -8.9668,0 0,-5.53907 -34.09179,0 z"
       id="rect4261"
       inkscape:connector-curvature="0" />
    <path
       style="fill:none;fill-opacity:1;stroke:#000000;stroke-width:1;stroke-linejoin:miter;stroke-miterlimit:4;stroke-dasharray:none;stroke-opacity:1"
       d="m 321.04604,319.81473 -0.0889,0.88172 -0.25493,0.82123 -0.40337,0.74315 -0.53423,0.64749 -0.64749,0.53423 -0.74315,0.40337 -0.82123,0.25493 -0.88172,0.0889 -0.88172,-0.0889 -0.82123,-0.25493 -0.74315,-0.40337 -0.64749,-0.53423 -0.53423,-0.64749 -0.40337,-0.74315 -0.25493,-0.82123 -0.0889,-0.88172 0.0889,-0.88172 0.25493,-0.82123 0.40337,-0.74315 0.53423,-0.64749 0.64749,-0.53423 0.74315,-0.40337 0.82123,-0.25493 0.88172,-0.0889 0.88172,0.0889 0.82123,0.25493 0.74315,0.40337 0.64749,0.53423 0.53423,0.64749 0.40337,0.74315 0.25493,0.82123 z"
       id="path4299"
       inkscape:connector-curvature="0"
       sodipodi:nodetypes="ccccccccccccccccccccccccccccccccc" />
    <path
       style="fill:none;fill-opacity:1;stroke:#000000;stroke-width:1;stroke-linejoin:miter;stroke-miterlimit:4;stroke-dasharray:none;stroke-opacity:1"
       d="m 432.74249,319.81473 -0.0889,0.88172 -0.25493,0.82123 -0.40337,0.74315 -0.53423,0.64749 -0.64749,0.53423 -0.74315,0.40337 -0.82123,0.25493 -0.88172,0.0889 -0.88172,-0.0889 -0.82123,-0.25493 -0.74315,-0.40337 -0.64749,-0.53423 -0.53423,-0.64749 -0.40337,-0.74315 -0.25493,-0.82123 -0.0889,-0.88172 0.0889,-0.88172 0.25493,-0.82123 0.40337,-0.74315 0.53423,-0.64749 0.64749,-0.53423 0.74315,-0.40337 0.82123,-0.25493 0.88172,-0.0889 0.88172,0.0889 0.82123,0.25493 0.74315,0.40337 0.64749,0.53423 0.53423,0.64749 0.40337,0.74315 0.25493,0.82123 z"
       id="circle4301"
       inkscape:connector-curvature="0"
       sodipodi:nodetypes="ccccccccccccccccccccccccccccccccc" />
    <path
       style="fill:none;fill-opacity:1;stroke:#000000;stroke-width:1;stroke-linejoin:miter;stroke-miterlimit:4;stroke-dasharray:none;stroke-opacity:1"
       d="m 321.04604,425.6282 -0.0889,0.88172 -0.25493,0.82123 -0.40337,0.74315 -0.53423,0.64749 -0.64749,0.53423 -0.74315,0.40337 -0.82123,0.25493 -0.88172,0.0889 -0.88172,-0.0889 -0.82123,-0.25493 -0.74315,-0.40337 -0.64749,-0.53423 -0.53423,-0.64749 -0.40337,-0.74315 -0.25493,-0.82123 -0.0889,-0.88172 0.0889,-0.88172 0.25493,-0.82123 0.40337,-0.74315 0.53423,-0.64749 0.64749,-0.53423 0.74315,-0.40337 0.82123,-0.25493 0.88172,-0.0889 0.88172,0.0889 0.82123,0.25493 0.74315,0.40337 0.64749,0.53423 0.53423,0.64749 0.40337,0.74315 0.25493,0.82123 z"
       id="circle4303"
       inkscape:connector-curvature="0"
       sodipodi:nodetypes="ccccccccccccccccccccccccccccccccc" />
    <path
       style="fill:none;fill-opacity:1;stroke:#000000;stroke-width:1;stroke-linejoin:miter;stroke-miterlimit:4;stroke-dasharray:none;stroke-opacity:1"
       d="m 432.74249,425.6282 -0.0889,0.88172 -0.25493,0.82123 -0.40337,0.74315 -0.53423,0.64749 -0.64749,0.53423 -0.74315,0.40337 -0.82123,0.25493 -0.88172,0.0889 -0.88172,-0.0889 -0.82123,-0.25493 -0.74315,-0.40337 -0.64749,-0.53423 -0.53423,-0.64749 -0.40337,-0.74315 -0.25493,-0.82123 -0.0889,-0.88172 0.0889,-0.88172 0.25493,-0.82123 0.40337,-0.74315 0.53423,-0.64749 0.64749,-0.53423 0.74315,-0.40337 0.82123,-0.25493 0.88172,-0.0889 0.88172,0.0889 0.82123,0.25493 0.74315,0.40337 0.64749,0.53423 0.53423,0.64749 0.40337,0.74315 0.25493,0.82123 z"
       id="circle4305"
       inkscape:connector-curvature="0"
       sodipodi:nodetypes="ccccccccccccccccccccccccccccccccc" />
  </g>
</svg>
