  0
SECTION
  2
HEADER
  9
$ACADVER
  1
AC1014
  9
$HANDSEED
  5
FFFF
  9
$MEASUREMENT
 70
     1
  0
ENDSEC
  0
SECTION
  2
TABLES
  0
TABLE
  2
VPORT
  5
8
330
0
100
AcDbSymbolTable
 70
     4
  0
VPORT
  5
2E
330
8
100
AcDbSymbolTableRecord
100
AcDbViewportTableRecord
  2
*ACTIVE
 70
     0
 10
0.0
 20
0.0
 11
1.0
 21
1.0
 12
210.0
 22
148.5
 13
0.0
 23
0.0
 14
10.0
 24
10.0
 15
10.0
 25
10.0
 16
0.0
 26
0.0
 36
1.0
 17
0.0
 27
0.0
 37
0.0
 40
341.0
 41
1.24
 42
50.0
 43
0.0
 44
0.0
 50
0.0
 51
0.0
 71
     0
 72
   100
 73
     1
 74
     3
 75
     0
 76
     0
 77
     0
 78
     0
  0
ENDTAB
  0
TABLE
  2
LTYPE
  5
5
330
0
100
AcDbSymbolTable
 70
     1
  0
LTYPE
  5
14
330
5
100
AcDbSymbolTableRecord
100
AcDbLinetypeTableRecord
  2
BYBLOCK
 70
     0
  3

 72
    65
 73
     0
 40
0.0
  0
LTYPE
  5
15
330
5
100
AcDbSymbolTableRecord
100
AcDbLinetypeTableRecord
  2
BYLAYER
 70
     0
  3

 72
    65
 73
     0
 40
0.0
  0
LTYPE
  5
16
330
5
100
AcDbSymbolTableRecord
100
AcDbLinetypeTableRecord
  2
CONTINUOUS
 70
     0
  3
Solid line
 72
    65
 73
     0
 40
0.0
  0
ENDTAB
  0
TABLE
  2
LAYER
  5
2
100
AcDbSymbolTable
 70
2
  0
LAYER
  5
50
100
AcDbSymbolTableRecord
100
AcDbLayerTableRecord
  2
0
 70
0
  6
CONTINUOUS
  0
LAYER
  5
51
100
AcDbSymbolTableRecord
100
AcDbLayerTableRecord
  2
Layer_1
 70
0
  6
CONTINUOUS
  0
ENDTAB
  0
TABLE
  2
STYLE
  5
3
330
0
100
AcDbSymbolTable
 70
     1
  0
STYLE
  5
11
330
3
100
AcDbSymbolTableRecord
100
AcDbTextStyleTableRecord
  2
STANDARD
 70
     0
 40
0.0
 41
1.0
 50
0.0
 71
     0
 42
2.5
  3
txt
  4

  0
ENDTAB
  0
TABLE
  2
VIEW
  5
6
330
0
100
AcDbSymbolTable
 70
     0
  0
ENDTAB
  0
TABLE
  2
UCS
  5
7
330
0
100
AcDbSymbolTable
 70
     0
  0
ENDTAB
  0
TABLE
  2
APPID
  5
9
330
0
100
AcDbSymbolTable
 70
     2
  0
APPID
  5
12
330
9
100
AcDbSymbolTableRecord
100
AcDbRegAppTableRecord
  2
ACAD
 70
     0
  0
ENDTAB
  0
TABLE
  2
DIMSTYLE
  5
A
330
0
100
AcDbSymbolTable
 70
     1
  0
DIMSTYLE
105
27
330
A
100
AcDbSymbolTableRecord
100
AcDbDimStyleTableRecord
  2
ISO-25
 70
     0
  3

  4

  5

  6

  7

 40
1.0
 41
2.5
 42
0.625
 43
3.75
 44
1.25
 45
0.0
 46
0.0
 47
0.0
 48
0.0
140
2.5
141
2.5
142
0.0
143
0.03937007874016
144
1.0
145
0.0
146
1.0
147
0.625
 71
     0
 72
     0
 73
     0
 74
     0
 75
     0
 76
     0
 77
     1
 78
     8
170
     0
171
     3
172
     1
173
     0
174
     0
175
     0
176
     0
177
     0
178
     0
270
     2
271
     2
272
     2
273
     2
274
     3
340
11
275
     0
280
     0
281
     0
282
     0
283
     0
284
     8
285
     0
286
     0
287
     3
288
     0
  0
ENDTAB
  0
TABLE
  2
BLOCK_RECORD
  5
1
330
0
100
AcDbSymbolTable
 70
     1
  0
BLOCK_RECORD
  5
1F
330
1
100
AcDbSymbolTableRecord
100
AcDbBlockTableRecord
  2
*MODEL_SPACE
  0
BLOCK_RECORD
  5
1B
330
1
100
AcDbSymbolTableRecord
100
AcDbBlockTableRecord
  2
*PAPER_SPACE
  0
ENDTAB
  0
ENDSEC
  0
SECTION
  2
BLOCKS
  0
BLOCK
  5
20
330
1F
100
AcDbEntity
  8
0
100
AcDbBlockBegin
  2
*MODEL_SPACE
 70
     0
 10
0.0
 20
0.0
 30
0.0
  3
*MODEL_SPACE
  1

  0
ENDBLK
  5
21
330
1F
100
AcDbEntity
  8
0
100
AcDbBlockEnd
  0
BLOCK
  5
1C
330
1B
100
AcDbEntity
 67
     1
  8
0
100
AcDbBlockBegin
  2
*PAPER_SPACE
  1

  0
ENDBLK
  5
1D
330
1B
100
AcDbEntity
 67
     1
  8
0
100
AcDbBlockEnd
  0
ENDSEC
  0
SECTION
  2
ENTITIES
  0
LWPOLYLINE
  5
100
100
AcDbEntity
  8
Layer_1
 62
7
100
AcDbPolyline
 90
77
 70
1
 10
59.762310
 20
180.920666
 30
0.0
 10
59.762310
 20
174.264190
 30
0.0
 10
59.723544
 20
173.918008
 30
0.0
 10
59.612301
 20
173.595947
 30
0.0
 10
59.436160
 20
173.304795
 30
0.0
 10
59.202706
 20
173.051349
 30
0.0
 10
58.919521
 20
172.842400
 30
0.0
 10
58.594184
 20
172.684742
 30
0.0
 10
58.234280
 20
172.585165
 30
0.0
 10
57.847390
 20
172.550463
 30
0.0
 10
51.292339
 20
172.550463
 30
0.0
 10
51.292339
 20
138.482050
 30
0.0
 10
57.847390
 20
138.482050
 30
0.0
 10
58.234280
 20
138.447371
 30
0.0
 10
58.594184
 20
138.347856
 30
0.0
 10
58.919521
 20
138.190286
 30
0.0
 10
59.202706
 20
137.981439
 30
0.0
 10
59.436160
 20
137.728093
 30
0.0
 10
59.612301
 20
137.437032
 30
0.0
 10
59.723544
 20
137.115031
 30
0.0
 10
59.762310
 20
136.768874
 30
0.0
 10
59.762310
 20
129.972390
 30
0.0
 10
73.733964
 20
129.972390
 30
0.0
 10
73.733964
 20
131.334442
 30
0.0
 10
75.554077
 20
131.334442
 30
0.0
 10
75.554077
 20
129.972390
 30
0.0
 10
77.135515
 20
129.972390
 30
0.0
 10
77.135515
 20
131.334442
 30
0.0
 10
78.956179
 20
131.334442
 30
0.0
 10
78.956179
 20
129.972390
 30
0.0
 10
124.139846
 20
129.972390
 30
0.0
 10
124.139846
 20
131.334442
 30
0.0
 10
125.959959
 20
131.334442
 30
0.0
 10
125.959959
 20
129.972390
 30
0.0
 10
127.541395
 20
129.972390
 30
0.0
 10
127.541395
 20
131.334442
 30
0.0
 10
129.362061
 20
131.334442
 30
0.0
 10
129.362061
 20
129.972390
 30
0.0
 10
143.320484
 20
129.972390
 30
0.0
 10
143.320484
 20
136.718161
 30
0.0
 10
143.359250
 20
137.064344
 30
0.0
 10
143.470494
 20
137.386404
 30
0.0
 10
143.646634
 20
137.677556
 30
0.0
 10
143.880088
 20
137.931003
 30
0.0
 10
144.163276
 20
138.139952
 30
0.0
 10
144.488613
 20
138.297612
 30
0.0
 10
144.848517
 20
138.397189
 30
0.0
 10
145.235407
 20
138.431891
 30
0.0
 10
152.039057
 20
138.431891
 30
0.0
 10
152.039057
 20
172.651335
 30
0.0
 10
145.235407
 20
172.651335
 30
0.0
 10
144.848517
 20
172.686015
 30
0.0
 10
144.488613
 20
172.785529
 30
0.0
 10
144.163276
 20
172.943099
 30
0.0
 10
143.880088
 20
173.151947
 30
0.0
 10
143.646634
 20
173.405292
 30
0.0
 10
143.470494
 20
173.696353
 30
0.0
 10
143.359250
 20
174.018355
 30
0.0
 10
143.320484
 20
174.364512
 30
0.0
 10
143.320484
 20
180.920666
 30
0.0
 10
129.362061
 20
180.920666
 30
0.0
 10
129.362061
 20
179.703583
 30
0.0
 10
127.541395
 20
179.703583
 30
0.0
 10
127.541395
 20
180.920666
 30
0.0
 10
125.959959
 20
180.920666
 30
0.0
 10
125.959959
 20
179.703583
 30
0.0
 10
124.139846
 20
179.703583
 30
0.0
 10
124.139846
 20
180.920666
 30
0.0
 10
78.956179
 20
180.920666
 30
0.0
 10
78.956179
 20
179.703583
 30
0.0
 10
77.135515
 20
179.703583
 30
0.0
 10
77.135515
 20
180.920666
 30
0.0
 10
75.554077
 20
180.920666
 30
0.0
 10
75.554077
 20
179.703583
 30
0.0
 10
73.733964
 20
179.703583
 30
0.0
 10
73.733964
 20
180.920666
 30
0.0
 10
59.762310
 20
180.920666
 30
0.0
  0
LWPOLYLINE
  5
101
100
AcDbEntity
  8
Layer_1
 62
7
100
AcDbPolyline
 90
33
 70
1
 10
84.766635
 20
177.644459
 30
0.0
 10
84.741940
 20
177.399377
 30
0.0
 10
84.671080
 20
177.171107
 30
0.0
 10
84.558959
 20
176.964540
 30
0.0
 10
84.410464
 20
176.784564
 30
0.0
 10
84.230489
 20
176.636070
 30
0.0
 10
84.023922
 20
176.523949
 30
0.0
 10
83.795652
 20
176.453089
 30
0.0
 10
83.550570
 20
176.428394
 30
0.0
 10
83.305488
 20
176.453089
 30
0.0
 10
83.077218
 20
176.523949
 30
0.0
 10
82.870652
 20
176.636070
 30
0.0
 10
82.690676
 20
176.784564
 30
0.0
 10
82.542182
 20
176.964540
 30
0.0
 10
82.430060
 20
177.171107
 30
0.0
 10
82.359200
 20
177.399377
 30
0.0
 10
82.334506
 20
177.644459
 30
0.0
 10
82.359200
 20
177.889541
 30
0.0
 10
82.430060
 20
178.117810
 30
0.0
 10
82.542182
 20
178.324377
 30
0.0
 10
82.690676
 20
178.504353
 30
0.0
 10
82.870652
 20
178.652847
 30
0.0
 10
83.077218
 20
178.764968
 30
0.0
 10
83.305488
 20
178.835829
 30
0.0
 10
83.550570
 20
178.860523
 30
0.0
 10
83.795652
 20
178.835829
 30
0.0
 10
84.023922
 20
178.764968
 30
0.0
 10
84.230489
 20
178.652847
 30
0.0
 10
84.410464
 20
178.504353
 30
0.0
 10
84.558959
 20
178.324377
 30
0.0
 10
84.671080
 20
178.117810
 30
0.0
 10
84.741940
 20
177.889541
 30
0.0
 10
84.766635
 20
177.644459
 30
0.0
  0
LWPOLYLINE
  5
102
100
AcDbEntity
  8
Layer_1
 62
7
100
AcDbPolyline
 90
33
 70
1
 10
120.800362
 20
177.644459
 30
0.0
 10
120.775667
 20
177.399377
 30
0.0
 10
120.704807
 20
177.171107
 30
0.0
 10
120.592685
 20
176.964540
 30
0.0
 10
120.444191
 20
176.784564
 30
0.0
 10
120.264215
 20
176.636070
 30
0.0
 10
120.057649
 20
176.523949
 30
0.0
 10
119.829379
 20
176.453089
 30
0.0
 10
119.584297
 20
176.428394
 30
0.0
 10
119.339215
 20
176.453089
 30
0.0
 10
119.110945
 20
176.523949
 30
0.0
 10
118.904376
 20
176.636070
 30
0.0
 10
118.724400
 20
176.784562
 30
0.0
 10
118.575906
 20
176.964537
 30
0.0
 10
118.463784
 20
177.171107
 30
0.0
 10
118.392924
 20
177.399377
 30
0.0
 10
118.368230
 20
177.644459
 30
0.0
 10
118.392924
 20
177.889541
 30
0.0
 10
118.463784
 20
178.117810
 30
0.0
 10
118.575906
 20
178.324380
 30
0.0
 10
118.724400
 20
178.504356
 30
0.0
 10
118.904376
 20
178.652850
 30
0.0
 10
119.110945
 20
178.764971
 30
0.0
 10
119.339215
 20
178.835829
 30
0.0
 10
119.584297
 20
178.860523
 30
0.0
 10
119.829379
 20
178.835829
 30
0.0
 10
120.057649
 20
178.764968
 30
0.0
 10
120.264215
 20
178.652847
 30
0.0
 10
120.444191
 20
178.504353
 30
0.0
 10
120.592685
 20
178.324377
 30
0.0
 10
120.704807
 20
178.117810
 30
0.0
 10
120.775667
 20
177.889541
 30
0.0
 10
120.800362
 20
177.644459
 30
0.0
  0
LWPOLYLINE
  5
103
100
AcDbEntity
  8
Layer_1
 62
7
100
AcDbPolyline
 90
33
 70
1
 10
84.766635
 20
133.396039
 30
0.0
 10
84.741940
 20
133.150957
 30
0.0
 10
84.671080
 20
132.922687
 30
0.0
 10
84.558959
 20
132.716120
 30
0.0
 10
84.410464
 20
132.536144
 30
0.0
 10
84.230489
 20
132.387650
 30
0.0
 10
84.023922
 20
132.275529
 30
0.0
 10
83.795652
 20
132.204669
 30
0.0
 10
83.550570
 20
132.179974
 30
0.0
 10
83.305488
 20
132.204669
 30
0.0
 10
83.077218
 20
132.275529
 30
0.0
 10
82.870652
 20
132.387650
 30
0.0
 10
82.690676
 20
132.536144
 30
0.0
 10
82.542182
 20
132.716120
 30
0.0
 10
82.430060
 20
132.922687
 30
0.0
 10
82.359200
 20
133.150957
 30
0.0
 10
82.334506
 20
133.396039
 30
0.0
 10
82.359200
 20
133.641121
 30
0.0
 10
82.430060
 20
133.869390
 30
0.0
 10
82.542182
 20
134.075957
 30
0.0
 10
82.690676
 20
134.255933
 30
0.0
 10
82.870652
 20
134.404427
 30
0.0
 10
83.077218
 20
134.516549
 30
0.0
 10
83.305488
 20
134.587409
 30
0.0
 10
83.550570
 20
134.612103
 30
0.0
 10
83.795652
 20
134.587409
 30
0.0
 10
84.023922
 20
134.516549
 30
0.0
 10
84.230489
 20
134.404427
 30
0.0
 10
84.410464
 20
134.255933
 30
0.0
 10
84.558959
 20
134.075957
 30
0.0
 10
84.671080
 20
133.869390
 30
0.0
 10
84.741940
 20
133.641121
 30
0.0
 10
84.766635
 20
133.396039
 30
0.0
  0
LWPOLYLINE
  5
104
100
AcDbEntity
  8
Layer_1
 62
7
100
AcDbPolyline
 90
33
 70
1
 10
120.800362
 20
133.396039
 30
0.0
 10
120.775667
 20
133.150957
 30
0.0
 10
120.704807
 20
132.922687
 30
0.0
 10
120.592685
 20
132.716120
 30
0.0
 10
120.444191
 20
132.536144
 30
0.0
 10
120.264215
 20
132.387650
 30
0.0
 10
120.057649
 20
132.275529
 30
0.0
 10
119.829379
 20
132.204669
 30
0.0
 10
119.584297
 20
132.179974
 30
0.0
 10
119.339215
 20
132.204669
 30
0.0
 10
119.110945
 20
132.275529
 30
0.0
 10
118.904376
 20
132.387650
 30
0.0
 10
118.724400
 20
132.536142
 30
0.0
 10
118.575906
 20
132.716118
 30
0.0
 10
118.463784
 20
132.922687
 30
0.0
 10
118.392924
 20
133.150957
 30
0.0
 10
118.368230
 20
133.396039
 30
0.0
 10
118.392924
 20
133.641121
 30
0.0
 10
118.463784
 20
133.869390
 30
0.0
 10
118.575906
 20
134.075960
 30
0.0
 10
118.724400
 20
134.255936
 30
0.0
 10
118.904376
 20
134.404430
 30
0.0
 10
119.110945
 20
134.516551
 30
0.0
 10
119.339215
 20
134.587409
 30
0.0
 10
119.584297
 20
134.612103
 30
0.0
 10
119.829379
 20
134.587409
 30
0.0
 10
120.057649
 20
134.516549
 30
0.0
 10
120.264215
 20
134.404427
 30
0.0
 10
120.444191
 20
134.255933
 30
0.0
 10
120.592685
 20
134.075957
 30
0.0
 10
120.704807
 20
133.869390
 30
0.0
 10
120.775667
 20
133.641121
 30
0.0
 10
120.800362
 20
133.396039
 30
0.0
  0
ENDSEC
  0
SECTION
  2
OBJECTS
  0
DICTIONARY
  5
C
330
0
100
AcDbDictionary
  3
ACAD_GROUP
350
D
  3
ACAD_MLINESTYLE
350
17
  0
DICTIONARY
  5
D
330
C
100
AcDbDictionary
  0
DICTIONARY
  5
1A
330
C
100
AcDbDictionary
  0
DICTIONARY
  5
17
330
C
100
AcDbDictionary
  3
STANDARD
350
18
  0
DICTIONARY
  5
19
330
C
100
AcDbDictionary
  0
ENDSEC
  0
EOF
