<?xml version="1.0" encoding="UTF-8" standalone="no"?>
<!-- Created with Inkscape (http://www.inkscape.org/) -->

<svg
   xmlns:dc="http://purl.org/dc/elements/1.1/"
   xmlns:cc="http://creativecommons.org/ns#"
   xmlns:rdf="http://www.w3.org/1999/02/22-rdf-syntax-ns#"
   xmlns:svg="http://www.w3.org/2000/svg"
   xmlns="http://www.w3.org/2000/svg"
   xmlns:xlink="http://www.w3.org/1999/xlink"
   xmlns:sodipodi="http://sodipodi.sourceforge.net/DTD/sodipodi-0.dtd"
   xmlns:inkscape="http://www.inkscape.org/namespaces/inkscape"
   width="210mm"
   height="297mm"
   viewBox="0 0 744.09448819 1052.3622047"
   id="svg2"
   version="1.1"
   inkscape:version="0.91 r13725"
   sodipodi:docname="drawing.svg">
  <defs
     id="defs4" />
  <sodipodi:namedview
     id="base"
     pagecolor="#ffffff"
     bordercolor="#666666"
     borderopacity="1.0"
     inkscape:pageopacity="0.0"
     inkscape:pageshadow="2"
     inkscape:zoom="0.70000001"
     inkscape:cx="376.12204"
     inkscape:cy="483.97771"
     inkscape:document-units="mm"
     inkscape:current-layer="layer1"
     showgrid="false"
     inkscape:window-width="1920"
     inkscape:window-height="1176"
     inkscape:window-x="0"
     inkscape:window-y="24"
     inkscape:window-maximized="1">
    <inkscape:grid
       type="xygrid"
       id="grid4879" />
  </sodipodi:namedview>
  <metadata
     id="metadata7">
    <rdf:RDF>
      <cc:Work
         rdf:about="">
        <dc:format>image/svg+xml</dc:format>
        <dc:type
           rdf:resource="http://purl.org/dc/dcmitype/StillImage" />
        <dc:title />
      </cc:Work>
    </rdf:RDF>
  </metadata>
  <g
     inkscape:label="Layer 1"
     inkscape:groupmode="layer"
     id="layer1">
    <path
       style="fill:none;fill-rule:evenodd;stroke:#000000;stroke-width:1px;stroke-linecap:butt;stroke-linejoin:miter;stroke-opacity:1"
       d="M 0,1052.3622 0,840.47244"
       id="path4883"
       inkscape:connector-curvature="0"
       sodipodi:nodetypes="cc" />
    <image
       sodipodi:absref="/home/iwasz/workspace/gp8-clock/board-outline/Screenshot from 2015-11-08 22:54:55.png"
       xlink:href="Screenshot from 2015-11-08 22:54:55.png"
       width="503.22644"
       height="355.55371"
       preserveAspectRatio="none"
       id="image4874"
       x="112.6853"
       y="299.72437" />
    <g
       id="g4952"
       transform="translate(54.751288,-61.894145)">
      <path
         id="rect4885"
         d="m 168.92773,441.27539 0,23.58594 c 0,3.36356 -3.02588,6.07226 -6.78515,6.07226 l -23.22656,0 0,120.71485 23.22656,0 c 3.75927,0 6.78515,2.70675 6.78515,6.07031 l 0,24.08203 49.50586,0 0,-4.82617 6.44922,0 0,4.82617 5.60352,0 0,-4.82617 6.45117,0 0,4.82617 160.09961,0 0,-4.82617 6.44922,0 0,4.82617 5.60351,0 0,-4.82617 6.45118,0 0,4.82617 49.45898,0 0,-23.90234 c 0,-3.36356 3.02589,-6.07227 6.78516,-6.07227 l 24.10742,0 0,-121.25 -24.10742,0 c -3.75927,0 -6.78516,-2.70675 -6.78516,-6.07031 l 0,-23.23047 -49.45898,0 0,4.3125 -6.45118,0 0,-4.3125 -5.60351,0 0,4.3125 -6.44922,0 0,-4.3125 -160.09961,0 0,4.3125 -6.45117,0 0,-4.3125 -5.60352,0 0,4.3125 -6.44922,0 0,-4.3125 -49.50586,0 z"
         style="fill:none;fill-opacity:1;stroke:#000000;stroke-width:0.99999994;stroke-linejoin:miter;stroke-miterlimit:4;stroke-dasharray:none;stroke-opacity:1"
         inkscape:connector-curvature="0" />
      <circle
         r="4.3089318"
         cy="452.884"
         cx="253.2168"
         id="path4895"
         style="fill:none;fill-opacity:1;stroke:#000000;stroke-width:0.99999994;stroke-linejoin:miter;stroke-miterlimit:4;stroke-dasharray:none;stroke-opacity:1" />
      <circle
         style="fill:none;fill-opacity:1;stroke:#000000;stroke-width:0.99999994;stroke-linejoin:miter;stroke-miterlimit:4;stroke-dasharray:none;stroke-opacity:1"
         id="circle4897"
         cx="380.89536"
         cy="452.884"
         r="4.3089318" />
      <circle
         style="fill:none;fill-opacity:1;stroke:#000000;stroke-width:0.99999994;stroke-linejoin:miter;stroke-miterlimit:4;stroke-dasharray:none;stroke-opacity:1"
         id="circle4899"
         cx="253.2168"
         cy="609.66974"
         r="4.3089318" />
      <circle
         r="4.3089318"
         cy="609.66974"
         cx="380.89536"
         id="circle4901"
         style="fill:none;fill-opacity:1;stroke:#000000;stroke-width:0.99999994;stroke-linejoin:miter;stroke-miterlimit:4;stroke-dasharray:none;stroke-opacity:1" />
    </g>
  </g>
</svg>
